<?xml version="1.0" encoding="utf-8"?>
<!-- Generator: Adobe Illustrator 24.0.1, SVG Export Plug-In . SVG Version: 6.00 Build 0)  -->
<svg version="1.1" id="Layer_1" xmlns="http://www.w3.org/2000/svg" xmlns:xlink="http://www.w3.org/1999/xlink" x="0px" y="0px"
	 viewBox="0 0 235.6 210.7" style="enable-background:new 0 0 235.6 210.7;" xml:space="preserve">
<style type="text/css">
	.st0{fill-rule:evenodd;clip-rule:evenodd;fill:#396287;}
	.st1{fill-rule:evenodd;clip-rule:evenodd;fill:#F1F2F2;}
	.st2{fill:#F1F2F2;}
	.st3{fill:none;stroke:#004417;stroke-width:0.95;}
	.st4{fill:none;}
	.st5{enable-background:new    ;}
	.st6{fill:#383838;}
	.st7{fill:none;stroke:#1A1A18;stroke-width:0.56;stroke-miterlimit:22.93;stroke-dasharray:5.13,2.57;}
</style>
<title>AA</title>
<g id="Layer_2_1_">
	<g id="Layer_1-2">
		<g id="U1">
			<path class="st0" d="M149.4,1.7c1.6,0,3.1,0.6,4.3,1.7c-0.7-0.4-1.4-0.8-2.2-1.1c-0.2-0.1-0.3,0.5,0,0.8c0.9,0.9,3.3,2.1,2,2.9
				v0.1h-0.1c0.2,0.6-4.9,5-6.5,4.3l0,0c-0.9-0.4-1.7-1-2.2-1.8c-0.5-0.6-0.6-1.4,0-3.6c0.4-0.7,1-1.3,1.7-1.6c1-0.2,2-1,1.6-1.5
				h-0.4C148.1,1.9,148.8,1.8,149.4,1.7"/>
			<path class="st1" d="M151.5,3.2c-0.3-0.3-0.2-0.9,0-0.8c1.8,0.6,3.9,1.9,4.6,3.8c0.1,0.1,0.2,0.3,0.3,0.4c0.1,1-0.2,1.9-0.7,2.7
				l0.1-0.1c-0.5,0.8-1.2,1.5-2,2l0,0c-0.3,0.2-0.5,0.4-0.8,0.6s-0.5,0.1-0.7,0.1h0.2c-0.9,0.3-1.9,0.5-2.9,0.5
				c-3.7,0-6.8-1.3-6.7-5.1c0.1-3.4,2.1-5.3,5.1-5.1c0.3,0.5-0.6,1.4-1.6,1.5c-0.8,0.3-1.4,0.8-1.7,1.6c-0.6,2.2-0.5,3,0,3.6
				c0.6,0.8,1.4,1.4,2.2,1.8l0,0c1.6,0.7,6.8-3.7,6.5-4.3h0.1c0,0,0-0.1,0-0.1c1.3-0.8-1.1-2.1-2-2.9"/>
		</g>
		<g id="U2">
			<path class="st2" d="M170.6,43.7l-0.4-0.3c-0.5-0.5-1-0.9-1.5-1.2c-0.7-0.3-1.4-0.4-2.2-0.3c-1.2,0-2.4-0.1-3.7-0.3
				c-1.5-0.1-2.9,0.1-4.3,0.5c-11.5,2.9-18.3,6.3-16.1,15c0.3,1.2,0.7,2.4,1.3,3.5c1.3,2.7,3.1,5,5.5,6.8c1.2,0.9,2.5,1.7,3.9,2.2
				c0.7,0.3,1.4,0.5,2.1,0.7c0.8,0.2,1.4,0.4,2.2,0.6c0.6,0.1,1.2,0.2,1.8,0.2c1,0.1,2.1-0.1,3.1,0c0.8,0.1,1.5-0.1,2.2-0.5
				c0.6-0.5,1.3-0.9,2.1-1.1c0.7-0.2,1.4-0.5,2-0.9c1.2-0.9,2.2-1.9,3-3.2c1.6-2.6,2.5-5.5,2.8-8.5
				C174.8,52.3,173.9,47.1,170.6,43.7"/>
			<path class="st0" d="M144.2,55.8c-0.1-2.9,0.8-5.8,2.6-8.1c0.6-1.9,5.9-2.5,7.5-3.4c0.5-0.2,1-0.3,1.4-0.3l1.8-0.5
				c1.4-0.4,2.8-0.7,4.2-1c2.4-0.5,5.5-1,7.7,0.4c0.6,0.3,1,0.8,1.3,1.4c0.5,1,0.1,1.3-0.9,1.3c-1-0.1-1.9-0.1-2.9,0.1
				c-1,0-2.1,0.2-3.1,0.5c-0.7,0.4-1.3,0.8-1.8,1.4c-0.5,0.4-1.1,0.6-1.7,0.7c-1.6,0.4-2.6,1.5-4,2.2c-0.8,0.4-1.5,0.9-2.2,1.6
				c-0.7,0.6-1.2,1.4-1.5,2.2c-0.2,1-0.3,1.9-0.3,2.9c0,0.5,0.1,1.6-0.6,1.6s-0.2-0.6-0.2-1c0-0.5,0-0.9-0.1-1.4
				c-0.1-0.8-0.1-1.6,0-2.4c0-0.5,0.2-1,0.5-1.3c0.5-0.6,0.4-1.1,0.8-1.7c0.7-1,1.6-1.8,2.7-2.3c0.8-0.4,1.7-0.6,2.7-0.7
				c0.9-0.3,1.8-0.6,2.7-1c0.9-0.3,1.3-1,2.1-1.4c1.1-0.5,2.2-0.3,3.3-0.5c0.1,0,2.1-0.7,2.1-0.6c-0.3-0.7-0.8-0.5-1.4-0.4l0.4-0.5
				c-0.5-1.3-13.8,3.5-15.4,5h-0.3c-4.5,6.2-6.6,15.6,2.3,18.7c2.9,0.2,4.6,2.3,8.1,1.7c1.1,0,1.1,0.2,1.4,1.3l-0.2,0.7
				c-4.9,0.9-15.8-3.7-18.1-9.3c-0.4-1.1-0.6-2.2-0.8-3.3l0.1-0.1C144.4,57.5,144.4,56.3,144.2,55.8 M158.8,47.6l-0.8,0.3
				L158.8,47.6z"/>
			<path class="st0" d="M150.6,66.9l0.2,0.1h-0.1L150.6,66.9z"/>
			<path class="st0" d="M167.2,67.5c0.7,2.7-2.9,3.2-2.9,0.8c0-0.7-0.2-1.8,0.6-1.9c0.1-0.2,0.4-0.5,0.5-0.6
				c0.5-0.1,0.5,0.3,0.7,0.5s0.5,0.2,0.8,0.4S167.2,67.2,167.2,67.5"/>
			<path class="st0" d="M168.3,67.5c-0.3,0.3-0.2,1.1,0.4,0.9c0.1-0.6-0.1-0.7-0.5-1L168.3,67.5z"/>
			<path class="st0" d="M170,67.3c-0.6,0.1-1.2-0.8-1.6-1.2c-0.1-0.2-1.4-1.4-0.4-1.3c0,0-0.1,0,0,0c0.9,0.1,1.3-1.5,1.4-2.2
				s0.6-2.4,1.5-2.3c0.1-0.3,0-0.9,0.2-1.1c0.3-0.3,0.8,0.1,1.1-0.4c0.2-0.4,0.2-0.9,0.2-1.4c0.1-0.5,0.2-0.9,0.3-1.3
				c0.4,0,0.3,0.9,0.3,1.2c0,0.5,0.2,1,0.2,1.5c0.2,0,0.3,0.1,0.5,0.1c0.3,0.8,0.2,1.7-0.2,2.4c-0.4,0.8-0.7,1.6-0.7,2.5
				c-0.2,0.8-0.9,1.3-1.4,1.9c-0.4,0.6-0.9,1.1-1.4,1.6L170,67.3z"/>
			<path class="st0" d="M173.1,50.4c-1.1-0.2-0.9,1.3-0.5,1.9c0.3,0.3,0.4,0.7,0.5,1.1c0,0.5,0,1,0,1.5c0.3,0.1,0.6,0.1,0.8,0.2
				s0.3,0.4,0.6,0.5c0.2-0.4-0.1-0.9-0.2-1.3s-0.1-1-0.1-1.5s-0.2-2.2-0.9-2.5L173.1,50.4z"/>
			<path class="st0" d="M160.9,57.6c-0.2,0-0.3,0.1-0.3,0.3c0.5,0.1,1,0.2,1.4,0.5c0.3,0.3,0.5,0.7,0.6,1.2c0.1,0,0.2,0,0.3,0l0,0
				c1.3,0.1,0.7-0.8-0.1-1.1c-0.6-0.2-1.3-0.9-1.8-1L160.9,57.6z"/>
		</g>
		<g id="U3">
			<path class="st2" d="M153,193.1l0.1,0.6c0,2.9-0.5,5.7-0.8,8.6L63,75.4c0.5-1.2,1.1-2.5,1.5-3.8c2-5.3,6.1-8.1,9.2-12.2
				c1-1.6,1.4-3.1,2.6-4.8c0.6-0.5,1.3-0.9,2.1-1.1c3.2-0.8,6.4-0.4,9.5-0.7h0.4h0.2h0.2c1.7-0.1,3.3,0.1,4.9,0.7
				c2.4,0.6,4.8,1.6,7,2.8c1.7,1.3,3.7,2,5.6,3.8c0.6,0.5,1.2,1.1,1.6,1.8c1.4,1.6,2.7,5,4.8,5.6c1.7,0.7,3.5,0.3,5,2.2l0.2,0.4
				c0.5,1.6,0.3,3.3,0.7,5c0.3,0.9,0.8,1.8,1.4,2.5c0.6,0.5,1.1,1.1,1.5,1.7l0.2,0.3c1.2,3.3,3.1,6.3,5.5,8.9
				c0.2,0.2,0.5,0.4,0.7,0.6l2.4,1c2.4,1.1,2.3,1.3,3.6,2.9V93c1.6,3.3,2.3,5.3,5.7,7.7c1.6,0.9,3,2.1,4.3,3.5
				c1.2,1.1,1.9,2.6,1.9,4.2c0,1.2-0.2,2.5-0.5,3.7c-0.4,1-0.5,2.1-0.3,3.2l1.1,3.1c0.6,1.5,1.2,3,1.6,4.6l0.2,0.5
				c0.1,0.6,0.3,1.1,0.5,1.6c0.2,0.7,0.4,1.4,0.5,2.1l-0.1,0.1c0.8,2.4,0,5,2.1,7.4l0.4,0.3c0.6,0.5,1,1.1,1.3,1.8
				c0.8,1.9-1.5,3.8-0.8,5.6c0.2,0.7,0.6,1.3,1.1,1.8l1,1.1l0.1,0.1c0.3,0.3,0.5,0.6,0.7,0.9l0.1,0.2l0.2,0.3c0.6,2-0.3,3.9,0.7,5.8
				v0.4v0.3v0.2l0.1,0.6c-0.5,2.3-2.3,4.5-2.7,6.7l-0.2,0.4c-0.3,1.1-0.4,2.3-0.4,3.5v0.6h-0.1l0.1,0.9v3.8c0.1,4.1-1.1,8-0.4,12.1
				c0.2,0.7,0.3,1.4,0.5,2.1l0.1,0.4c0.3,1.1,0.6,2.2,0.6,3.4C153.3,189.7,153.2,191.4,153,193.1z"/>
			<path class="st0" d="M119.7,78.3c3,2.6,3.7,4.2,3.8,5.7l-0.4,0.2l-0.5-0.1c-0.3-0.2-0.5-0.4-0.7-0.7l-0.2-0.2l-0.6-1.2l-0.1-0.1
				l-0.2-0.2l-0.1-0.3h-0.1l-0.4-0.8l-0.2-0.1l-0.2-0.2l-0.6-0.7l-0.5-0.6l-0.1-0.1l-0.1-0.3c0.2-0.2,0-0.3,0.1-0.4l0.7,0.1
				C119.5,78.2,119.6,78.2,119.7,78.3"/>
			<path class="st0" d="M81.5,69v0.4c-0.1,0.2-0.3,0.4-0.6,0.6l-0.2,0.2c-0.7,0.7-0.7,1.4-1.3,2h-0.2l-0.1-0.5
				c-0.8,0.7-1.7,1.4-2.6,2.1c-0.8,0.6-1.8,1-2.6,1.7c-0.4,0.3-0.7,0.5-1.2,0.7c-0.8,0.4-1.3,1.1-1.3,2c0,0.2,0.2,0.5,0.2,0.8
				c0,0.6-0.1,0.3-0.4,0.6c-0.8,0.5,0,0.5,0.2,1.3c0.2,1-2.5,1-4.3,0.8l-2.6-3.6c0.3-1,0.7-2,1.1-3.1c0.1-0.4,0.2-0.7,0.4-1v-0.1
				l0.2-0.6c0.6-1.1,1.3-2.2,2-3.2l0.3-0.3l0.7-1.2c0.5-0.7,0.9-1.3,1.5-1.9c0.6-0.6,1.3-1.4,1.7-1.8l0.3-0.2v-0.1l0.2-0.1l1.5-1.1
				V63l0.7-0.6l0.7-0.5l0.4-0.4l0.4-0.3l0.2-0.2l0.2-0.2l0.3-0.2l0.3-0.3l0.5-0.3l0.2-0.2h0.2l0.4-0.4l0.5-0.4l0.4-0.3l0.2-0.2
				c0.2-0.1,0.5-0.2,0.6-0.1c0.5,0.3-0.2,0.7-0.5,0.9c-0.3,0.3-0.5,0.6-0.6,1c-0.6,1.5-2,2.5-3.2,3.4V64c-1.4,1.1-2.3,2.4-3.5,3.5
				L73,67.7c-0.9,1.1-1.2,2-2.1,3l-0.6,0.8l-1,1.5c-0.1,0.2-0.2,0.3-0.3,0.4v0.2l-0.3,0.7v0.2l-0.3,1.3L68,76.5c0,0.2,0,0.5,0.1,0.7
				c0,0.4,0,0.8-0.1,1.3c-0.2,0.7-1,1-0.9,1.8c0.4,0.2,0.8,0.2,1.2,0.1c0.3-0.2,0.3-0.5,0.6-0.7s1.4-0.2,0.8-0.7
				c-0.1-0.1-1.3-0.2-0.8-0.6c0.3-0.3,1.1,0.2,1.5,0.1c1.1-0.3,0.6-2,1.5-2.7c0.4-0.4,1.5-0.5,1.5-1.3v-0.1l0.3-0.3l1-0.3l0.3-0.2
				h0.1c0.1-0.4,0.2-0.8,0.3-1.2c0,0,0.1-0.2,0.2-0.2h0.2l0.5,0.4h0.2c0.1-0.4,0.1-0.4-0.2-0.7v-0.2l0.5-0.2
				c0.8,0.2,0.6-0.4,1.3-0.6c0.2-0.1,0.4-0.2,0.6-0.3c0.5-0.4,1.4-1.1,1.9-1.6l0.6-0.2l0.4,0.2L81.5,69z"/>
			<path class="st0" d="M82,82.3c0.5-1.3,1.3-2.5,2.5-3.3l0.1-0.1l0.4-0.3c0.2-0.1,0.5-0.2,0.7-0.3c0.4-0.1,0.8-0.2,1.2-0.3h0.2
				l1.1,0.1l0.1,0.1h0.3l0.6,0.2l0.2,0.2c0.3,0.4,0.4,0.9,0.4,1.3c0,0.7-0.2,1.4-0.7,1.9L88.9,82l-0.7,0.6c-0.5,0.4-1.1,0.6-1.7,0.8
				c-0.6,0.1-1.1,0.3-1.7,0.4c-0.6,0.1-1.2,0.2-1.8,0.1l-0.6-0.2l-0.3-0.4l-0.1-0.2C82,82.8,82.1,82.6,82,82.3L82,82.3z"/>
			<path class="st0" d="M99.3,74.4l0.1-2l0.1-1l0.1-0.5l0.2-0.2l0.1-0.2l0.2-0.3c0.5-0.6,1.3-0.9,2.1-0.7l0.6,0.3l0.1,0.2l0.1,0.2
				l0.3,0.3l1,1.3l0.6,0.4l0.4,0.6l0,0l0.1,0.3l0.2,0.3l0.1,0.5c0.3,0.7,0.4,1.4,0.5,2.1l0.2,0.3v0.8c0.2,0.3,0.1,0.6,0.2,0.8v0.3
				c0.1,0.8,0.1,1.5,0.1,2.3l-0.3,0.8L106,82l-0.2,0.1c-0.3,0.2-0.7,0.2-1.1,0.3c-0.6,0-1.1-0.1-1.6-0.3l-0.4-0.3
				c-0.4-0.3-0.8-0.6-1.1-1l-0.3-0.3l-0.7-0.9l-0.1-0.3l-0.1-0.2l-0.2-0.1l-0.1-0.4l-0.1-0.2c-0.2-0.2-0.2-0.5-0.2-0.8l-0.1-0.2
				c0-0.4-0.1-0.7-0.1-1v-0.3l-0.2-0.8L99.3,74.4L99.3,74.4z"/>
			<path class="st0" d="M116.4,83.8l-0.2,0.6h-0.1l-0.4,0.1l-0.3-0.1l-0.2-0.1c-0.4-0.2-0.7-0.5-1-0.8l-0.3-0.3l-0.1-0.2l-0.2-0.3
				l-0.4-0.8l-0.3-0.5l-0.3-0.3l-0.2-0.1c-0.2-0.2-0.1-0.4-0.1-0.6v-0.1l0.2-0.8l0.2-0.3h0.2c0.4,0.2,0.8,0.5,1.2,0.8
				c0.5,0.3,0.6,0.7,0.9,1.1C115.5,81.9,116,82.8,116.4,83.8"/>
			<path class="st0" d="M113,73.6L113,73.6c0.1,0,0.2-0.1,0.3-0.1l0.3,0.2l0.2,0.2c0.3,0.3,0.7,0.6,1.1,0.8l0.9,0.9
				c0.1,0.2,0.2,0.4,0.2,0.6c0,0.2,0,0.4-0.2,0.6c-0.3,0.1-0.6,0.1-0.8-0.1c-0.3-0.3-0.8-0.6-0.9-1.1c-0.1-0.4-0.4-0.8-0.6-1.2
				C113.3,74.3,112.8,73.9,113,73.6"/>
			<path class="st0" d="M83.3,66c0.8-0.9,2-1.6,1.2-4.6c-0.2-0.6-0.5-1.9-1.2-2.1c-0.2-0.1-0.5,0-0.7,0.1c-0.1,0-0.2,0.1-0.3,0.3
				v0.1c0,0.5-0.1,1-0.2,1.5v0.1c0,0.7,0.1,1.5,0.4,2.2l0.1,0.2l0.1,0.4l-0.3,1.2l0,0v0.1c0.1,0,0.2,0.1,0.3,0.1
				c0.1,0,0.1,0.1,0.2,0.1c0,0.1,0.1,0.2,0.2,0.3H83.3"/>
			<path class="st0" d="M97.5,59.7c0.4-0.2,1.2,0.2,1.5,0.5c0.2,0.2,0.4,0.5,0.6,0.8c0.1,0.2,0.1,0.3,0,0.4c-0.4,0.3-0.7,0-1-0.1
				c-0.1-0.1-0.2-0.1-0.3-0.2C97.8,60.6,97.2,60.3,97.5,59.7"/>
			<path class="st2" d="M98.3,96.5l4.4-4.4c0.3-0.3,0.7-0.3,0.9,0l4.4,4.4c0.3,0.3,0.3,0.7,0,0.9l-4.4,4.4c-0.3,0.3-0.7,0.3-0.9,0
				l-4.4-4.4C98.1,97.2,98.1,96.8,98.3,96.5z"/>
			<path class="st2" d="M145.5,118.6c0,0.8-0.6,1.4-1.4,1.4c-0.8,0-1.4-0.6-1.4-1.4s0.6-1.4,1.4-1.4c0,0,0,0,0,0
				C144.9,117.2,145.5,117.9,145.5,118.6"/>
			<path class="st3" d="M145.5,118.6c0,0.8-0.6,1.4-1.4,1.4c-0.8,0-1.4-0.6-1.4-1.4s0.6-1.4,1.4-1.4c0,0,0,0,0,0
				C144.9,117.2,145.5,117.9,145.5,118.6z"/>
			<path class="st2" d="M150.7,146.2c0,0.8-0.6,1.4-1.4,1.4s-1.4-0.6-1.4-1.4s0.6-1.4,1.4-1.4l0,0
				C150.1,144.8,150.7,145.4,150.7,146.2"/>
			<path class="st4" d="M142.8,190.3c0.1-0.1,0.3,0,0.4,0.1l0,0l0,0l0,0l0,0c0.6,0.1,1.2,0.4,1.7,0.4l1.6,0.1c0.7,0,1.3-0.1,2-0.2
				c0.6-0.1,1.1-0.5,1.7-0.1l0.4,0.4l0.2,0.2h0.2v-0.2c0.1-0.1,0.1-0.2,0.2-0.3l0.3-0.1l0.2,0.2c0,0.2,0.1,0.4,0.1,0.6v0.5
				c0,0.9,0,1.8,0,2.7c0.1,0.4-0.1,0.8-0.5,1c-1,0.3-2.1-0.2-3.1-0.3c-0.4,0-0.9-0.2-1.3-0.4c-0.4-0.3-0.8-0.7-0.9-1.1
				c0.1-0.8,0.6-1.5,0.6-2.2v-0.1h-0.3c-0.1,0.1-0.3,0.2-0.4,0.2l-0.6-0.3l0,0l-0.4,0.1c-0.2,0.1-0.3,0-0.5-0.1c0,0.1,0,0.1,0,0.2
				c0.1,0.3,0.3,0.6,0.6,0.9c0,0.1,0.1,0.2,0.1,0.3c0.1,0.1,0.1,0.3,0.1,0.4l-0.1,0.3c-0.2,0.1-0.5,0-0.7-0.1l-0.6-0.6l-0.2-0.4
				c-0.2-0.3-0.4-0.6-0.6-0.9C142.6,190.6,142.7,190.5,142.8,190.3 M143.4,190.4L143.4,190.4z M143.4,190.5L143.4,190.5z
				 M143.4,190.5C143.4,190.5,143.4,190.6,143.4,190.5C143.4,190.6,143.4,190.5,143.4,190.5L143.4,190.5z M143.5,190.6L143.5,190.6z
				 M143.6,190.7C143.6,190.7,143.6,190.8,143.6,190.7C143.6,190.8,143.5,190.8,143.6,190.7L143.6,190.7z M143.7,190.9l0.1,0.1
				L143.7,190.9z M143.8,191L143.8,191z M143.8,191.1L143.8,191.1C143.8,191.1,143.8,191.1,143.8,191.1L143.8,191.1z M143.8,191.2
				L143.8,191.2L143.8,191.2L143.8,191.2z M143.8,191.3C143.8,191.3,143.8,191.3,143.8,191.3C143.8,191.3,143.8,191.3,143.8,191.3
				L143.8,191.3z M144,192.7L144,192.7z M144,192.7L144,192.7z M144,192.7L144,192.7z M144,192.7L144,192.7z M144,192.7L144,192.7z
				 M144,192.7L144,192.7 M144,192.7L144,192.7z M144,192.7L144,192.7 M144,192.7L144,192.7z M144,192.7L144,192.7z M143.9,192.7
				L143.9,192.7z M143.9,192.7L143.9,192.7L143.9,192.7z M143.9,192.6L143.9,192.6z M143.9,192.6L143.9,192.6c0,0-0.3-0.1-0.3-0.1
				L143.9,192.6z M144.1,191.3L144.1,191.3"/>
			<path class="st0" d="M152.4,198.2c0,0.1-0.1,0.2-0.3,0.3v0.1c-0.1,0.9-0.3,1.8-0.6,2.6l-2.1-3l0.3-0.1c0.1-0.1,0.3-0.3,0.7-0.4
				s0.6-0.3,0.8-0.3c0.4-0.1,0.8-0.3,1.1,0c0.1,0.2,0.1,0.3,0,0.5C152.4,198.1,152.4,198.1,152.4,198.2z"/>
			<path class="st0" d="M152.1,198L152.1,198"/>
			<path class="st1" d="M97.6,101.9c-0.7,1.3,0.6,3.5,0.2,3.7c0,0.1,0,0.3,0.1,0.4c0.5,0.5,1,1,1.7,1.3l1.3,0.3l1.3,0.1
				c0.6,0,1.1,0,1.6-0.1c0.5,0,1-0.2,1.4-0.4c0.4-0.2,0.7-0.4,0.9-0.8c0.2-0.3,0.2-0.7,0.6-0.9l0.3-0.2l0.3-0.4c0-0.2,0-0.4-0.1-0.6
				c-0.6-1.4-0.3-2.7-0.5-4.1v-0.1l-0.3-0.3l0,0c-0.9-0.5-2-0.6-2.9-0.2c-1,0.3-1.9,0.6-2.8,1l-0.2,0.1
				C99.8,101.6,97.8,101.7,97.6,101.9"/>
			<path class="st0" d="M121.2,101h-1H120l-1.1-0.8c-0.1-0.2-0.3-0.3-0.3-0.5l-0.2-0.4v-0.4l0.2-1l0.4-1.1l0.3-0.3
				c0.3-0.2,0.6-0.3,0.9-0.3l1,0.1l0.9,0.5l0.1,0.2l0.4,0.5c0,0.5,0.3,1,0,1.5l-0.3,0.6l-0.1,0.2l-0.1,0.3L121.2,101z"/>
			<path class="st1" d="M89.1,104h0.4h0.1l0.2-0.1l0.4-0.1c0.4-0.1,0.8-0.1,1.2-0.1h0.4H92l0,0l0,0l0.3-0.1l0,0l0.3-0.1
				c0.3-0.1,0.6-0.2,0.9-0.3h0.6c0.5,0.2,0.9,0.6,1.1,1.1l0.2,0.2c0,0,0,0,0,0.1c0.4,0.3,0.7,0.9,0.7,1.4c0,0.1,0,0.2,0,0.3l0,0
				l0.1,0.3l0.1,0.2l0.4,0.7c0.3,0.5,0.6,0.9,0.8,1.4c0,0.1,0.1,0.2,0.1,0.3s0,0.3,0,0.4c0,0.1,0,0.2,0,0.3l-0.1,0.2l-0.3,0.3
				c-0.1,0-0.2,0.1-0.3,0.2c-0.8,0.5-1.6,0.8-2.5,0.7c-0.6,0-1.1-0.2-1.6-0.6l-0.5-0.5l-1.3-1.5l-0.4-0.3c-0.1-0.1-0.1-0.3-0.3-0.3
				l-0.4-0.4v-0.1c-0.2,0-0.5,0.1-0.7,0.1L90,108l0.1,0.2v0.3H90h-0.2l-1.7-0.8c-0.3-0.1-0.5-0.3-0.8-0.4c-0.4-0.2-0.8-0.5-1.1-0.9
				l-0.2-0.2c0-0.1,0-0.1,0-0.2c0-0.1,0-0.1-0.1-0.2v-0.3v-0.1c0-0.1,0.1-0.2,0.1-0.3s0.3-0.4,0.5-0.6l0.2-0.2h0.1l0.5-0.1
				C88,104.1,88.5,104,89.1,104"/>
			<path class="st0" d="M91.7,89.8c0.1-0.5,0.5-1,0.9-1.3c0.2-0.2,0.4-0.4,0.7-0.5c0.2-0.1,0.3-0.2,0.5-0.2c0.4-0.2,0.9-0.3,1.3-0.2
				c0.8,0.3,1.6,0.8,2.2,1.3c0.4,0.4,0.7,0.7,1,1.2c0.1,0.3,0.1,0.6,0,0.9l-0.2,0.3c-0.4,0.2-0.8,0.4-1.2,0.6
				c-0.6,0.2-1.1,0.3-1.7,0.3c-0.6,0-1.2,0-1.8,0c-0.4-0.2-0.8-0.4-1.1-0.7C91.8,91,91.5,90.3,91.7,89.8"/>
			<path class="st0" d="M97.5,106.5l0.1-0.3h0.1c0.4,0,0.6,0.2,0.9,0.5c0.2,0.2,0.4,0.5,0.4,0.8v0.2l-0.2,0.2l0,0
				c-0.5,0.1-0.9-0.4-1.2-0.8L97.5,106.5L97.5,106.5z"/>
			<path class="st0" d="M98.1,86c0.4-0.2,0.8-0.2,1.2,0l0.3,0.1c0.5,0.2,1,0.5,1.3,0.9c0.3,0.4,0.5,0.9,0.4,1.4
				c-0.1,0.2-0.3,0.3-0.5,0.3c-0.3,0.1-0.6,0.1-0.9,0c-0.5-0.3-1-0.6-1.4-1c-0.3-0.3-0.6-0.7-0.6-1C97.8,86.5,97.9,86.2,98.1,86"/>
			<path class="st0" d="M116.4,83.8l0.2-1.3l0.2-0.4V82l0.2-0.3l0.2-0.1h0.3c0.6,0,1.3,0.2,1.8,0.6c1.2,1.3,1.3,2.4,2.2,3.7l0.3,0.4
				c0.5,0.9,1.2,1.7,2,2.4l0.2,0.2c1,0.9,1.3,2.3,0.7,3.5c-0.1,0-0.2,0.1-0.3,0.2l-0.3,0.2c-0.2,0.1-0.4,0.2-0.7,0.2h-1.3l-1.3-0.6
				c-0.6-0.5-1.1-1-1.5-1.6l-0.2-0.3l-0.2-0.2l-0.4-0.5c-0.3-0.7-0.8-1.4-1.2-2.1l-0.1-0.2c-0.2-0.3-0.3-0.6-0.3-1l-0.4-1.1
				l-0.2-0.4L116.4,83.8z"/>
			<path class="st0" d="M116.4,98.1L116,98c-0.5,0-0.8-0.3-1.2-0.8l-0.2-0.1V97l-0.2-0.2l-0.3-0.7v0v-0.1v-0.3v-0.7
				c0.1-0.3,0.5-0.5,0.8-0.5l0.7,0.1c0.6,0.1,1.2,0.4,1.5,1c0.1,0.2,0.2,0.5,0.3,0.7v0.4c-0.3,0.5-0.2,0.9-0.7,1.4L116.4,98.1
				l-0.1,0"/>
			<path class="st0" d="M120.4,94.7l0.1-0.1h0.1c0.4,0.1,0.8,0.3,1,0.7l0.1,0.1l0.2,0.2l0,0l-0.1,0.3c-0.4,0-0.7-0.2-1-0.5l-0.3-0.3
				V95L120.4,94.7L120.4,94.7z"/>
			<path class="st0" d="M132.6,106l0.1-0.1h0.3v-0.1c0.7,0.1,1.4,0.4,2,0.7l0.3,0.2l1.1,0.7l0.3,0.3v0.1c0.8,1,1.4,2.2,1.9,3.4
				l0.2,0.4c0,0.2,0.1,0.3,0.1,0.5l-0.1,0.5l-0.1,0.2l0,0h-0.2c-0.2-0.1-0.4-0.3-0.5-0.6l-0.1-0.2l-0.2-0.7l-0.3-0.5l-0.2-0.8
				c-0.3-0.8-0.8-1.4-1.4-2l-0.5-0.3l-0.3-0.2c-0.5-0.4-1.1-0.6-1.7-0.8l-0.4-0.3L132.6,106L132.6,106z"/>
			<path class="st0" d="M134,104.1l0.2-0.2l0.5,0.1c0.2,0.1,0.3,0.3,0.5,0.2h0.1l0.3-0.1h0.4l0.4,0.4l-0.1,0.4v0.4l-0.3,0.4
				l-0.1,0.1l-0.4-0.2l-0.8-0.3l-0.2-0.2l-0.1-0.4l-0.4-0.3L134,104.1L134,104.1z"/>
			<path class="st0" d="M138,105.6l0.1-0.1h0.2c0.4,0.3,0.7,0.6,1,1l0.2,0.3l0.4,0.4l0.3,0.5l0.4,0.6l0.3,0.4l0.5,0.7l0,0l0.2,0.2
				c0.3,0.3,0.5,0.7,0.7,1.1l0.1,0.2c0.1,0.2,0.2,0.5,0.2,0.7v0.2v0.2l-0.1,0.2l-0.2,0.3h-0.1l-0.4-0.2l-0.2-0.4l-0.2-0.9l-0.7-1.5
				c-0.2-0.4-0.5-0.7-0.8-1l-0.8-1.1l-0.2-0.2c-0.3-0.5-1-1-1-1.5L138,105.6z"/>
			<path class="st0" d="M146.7,180.2L146.7,180.2z M146.7,180.2L146.7,180.2 M146.6,180.2L146.6,180.2z M146.6,180.2L146.6,180.2
				 M146.6,180.2L146.6,180.2z M146.6,180.1L146.6,180.1z M146.6,180.1L146.6,180.1z M146.6,180.1L146.6,180.1z M146.7,177.9
				L146.7,177.9z M146.7,177.9L146.7,177.9z M146.7,177.9L146.7,177.9z M146.7,177.9L146.7,177.9z M146.7,177.9h0.1H146.7z
				 M146.8,177.9L146.8,177.9z M146.8,177.9L146.8,177.9z M146.8,177.9L146.8,177.9z M146.8,177.9L146.8,177.9z M146.8,177.9
				L146.8,177.9z M146.8,177.9L146.8,177.9l-0.4-0.1c-0.3,0-0.6,0-0.9,0c-0.4,0-0.9,0.1-1.3,0.2l-0.4,0.1c-0.1,0.1-0.2,0-0.1,0.1
				v0.1l0.1,0.4l0.2,0.2c0.2,0.2,0.3,0.4,0.6,0.6l0.2,0.2c0.5,0.4,1,0.7,1.5,0.9h0.3c0.1,0.1,0.3,0.1,0.5,0.1h0.9h1.2
				c0.8-0.2,1.4,0.5,2.1,0.3l0.2-0.1v-0.6c-0.1-0.5,0.1-0.9-0.1-1.4l-0.2-0.2c-0.5,0-1.1-0.2-1.4-0.7c-0.6-0.1-1.3-0.1-1.9,0h-0.2
				c-0.2-0.1-0.4-0.3-0.6-0.4L146.8,177.9z"/>
			<path class="st0" d="M131.1,151.6L131.1,151.6c-0.3-0.2-0.6-0.4-0.8-0.6c-0.2-0.3-0.3-0.5-0.4-0.9l-0.2-0.4
				c-0.1-0.6-0.2-1-0.3-1.5l-0.1-1.1l0.2-1.1c0.1-0.2,0.2-0.3,0.2-0.5l0.1-0.3l0.3-0.3l0.4-0.3c0.3-0.3,0.7-0.2,1-0.4
				c1,0,2,0.5,2.6,1.3l0.4,0.6l0.1,0.1c0.9,1.2,1.2,2.4,2.2,3.5h0.2c0.2,0.1,0.4,0.3,0.4,0.5c0.1,0.3,0.1,0.7,0,1
				c-0.1,0.3-0.2,0.6-0.4,0.9l-0.2,0.2l-0.6,0.1c-0.3,0-0.6-0.1-0.9-0.1c-0.9-0.5-1.8,0-2.6,0h-1C131.5,152.2,131.3,152,131.1,151.6
				"/>
			<path class="st0" d="M129.8,124.3L129.8,124.3l-0.2-0.2c-0.4,0.1-0.8,0-1.1,0.5v0.3l0.1,0.6l-0.1,0.7v0.1
				c0.2,1.3,0.4,2.5,0.7,3.8l0.1,0.6c0,0.5,0.2,0.9,0.2,1.3l0.1,0.4c0.1,0.2,0.2,0.4,0.3,0.5c0.1,0,0.1,0,0.2,0
				c0.1,0.3,0.4,0.5,0.7,0.5h0.6c0.4-0.1,0.7,0,1-0.2h0.1l0.4-0.2l0.3-0.2l0.3-0.2c0.2-0.3,0.4-0.6,0.4-1c0-0.1,0-0.2,0-0.3
				s0-0.2,0-0.3c-0.1-1-0.4-2-0.8-2.9c0-0.1-0.1-0.1-0.1-0.2c-0.1-0.3-0.2-0.5-0.3-0.8l-0.2-0.5c-0.3-0.9-0.9-1.7-1.6-2.3
				c-0.2-0.3-0.6-0.4-0.9-0.1C130,124.2,129.9,124.3,129.8,124.3"/>
			<polyline class="st0" points="129.8,124.4 129.8,124.4 129.8,124.4 			"/>
			<path class="st0" d="M129.7,124.4L129.7,124.4L129.7,124.4L129.7,124.4"/>
			<polyline class="st0" points="130.2,132.7 130.2,132.7 130.2,132.7 			"/>
			<path class="st0" d="M140.4,119.2C140.4,119.2,140.4,119.2,140.4,119.2C140.4,119.2,140.4,119.2,140.4,119.2"/>
			<path class="st0" d="M140.4,119.1L140.4,119.1L140.4,119.1"/>
			<path class="st0" d="M140.5,118.8L140.5,118.8L140.5,118.8C140.5,118.8,140.5,118.8,140.5,118.8"/>
			<path class="st0" d="M140.5,118.8L140.5,118.8"/>
			<path class="st0" d="M140.5,118.8L140.5,118.8"/>
			<path class="st0" d="M140.6,118.6L140.6,118.6L140.6,118.6"/>
			<path class="st0" d="M140.7,120.1L140.7,120.1L140.7,120.1"/>
			<path class="st0" d="M140.7,120.1L140.7,120.1"/>
			<polyline class="st0" points="140.6,120 140.6,120 140.6,120 			"/>
			<polyline class="st0" points="140.6,120 140.6,120 140.6,120 			"/>
			<polyline class="st0" points="140.6,120 140.6,120 140.6,120 			"/>
			<polyline class="st0" points="140.6,120 140.6,120 140.6,120 			"/>
			<polyline class="st0" points="140.6,119.9 140.6,120 140.6,119.9 			"/>
			<path class="st0" d="M140.6,119.9L140.6,119.9L140.6,119.9"/>
			<polyline class="st0" points="140.5,119.8 140.6,119.9 140.5,119.8 			"/>
			<path class="st0" d="M140.5,119.8L140.5,119.8"/>
			<path class="st0" d="M146.6,119.9c0-0.3,0-0.5-0.1-0.8c-0.1-0.6-0.3-1.2-0.6-1.7c-0.4-1.2-1.5-2.1-2.8-2.1
				c-0.5,0-0.9,0.1-1.4,0.3h-0.1l0,0c-0.3,0.2-0.5,0.3-0.7,0.6c-0.1,0-0.2,0-0.2,0l0,0c-0.2,0.2-0.2,0.1-0.2,0.3s-0.1,0.2-0.1,0.3
				c-0.1,0.3-0.1,0.5-0.1,0.8c0,0.2-0.1,0.5-0.1,0.7c0,1.6,1.3,3,2.9,3c0.9,0,1.8-0.5,2.3-1.2c0.3,0.2,0.6,0.2,0.9,0.1l0,0
				c0.1-0.1,0.2-0.2,0.3-0.3"/>
			<path class="st0" d="M116.7,123L116.7,123l0.1-0.3c0.1-0.1,0.1-0.3,0.1-0.4c0.2-0.8,0.2-1.6,0-2.4c-0.4-0.7-0.8-1.4-1.3-2
				l-0.2-0.1c-0.7-0.5-1.6-0.7-2.5-0.4h-0.1l-0.2,0.1l-0.3,0.3c-0.4,0.4-0.8,0.8-1.3,1.2c0,0.1,0,0.2,0,0.3c0,0,0,0.1,0,0.1
				c0.2,1,0.4,1.9,0.7,2.8c0,0.1,0,0.1,0,0.2c0,1,1.2,1.9,2.7,1.9c0.9,0.1,1.9-0.4,2.4-1.1"/>
			<path class="st0" d="M121.4,158.4L121.4,158.4"/>
			<path class="st0" d="M121.4,158.4L121.4,158.4L121.4,158.4"/>
			<path class="st0" d="M121.6,158.3L121.6,158.3L121.6,158.3"/>
			<polyline class="st0" points="121.6,158.3 121.6,158.3 121.6,158.3 			"/>
			<path class="st0" d="M121.8,158c-0.1,0.1-0.1,0.2-0.2,0.3v0.1c0,0.1-0.1,0.1-0.1,0.2l-5.3-7.5c0.2-0.1,0.4-0.1,0.7-0.2
				c0.2,0,0.4,0,0.5,0c0.2,0.1,0.4,0.4,0.7,0.5s0.3,0.4,0.4,0.6c0.3,0.3,0.6,0.7,0.9,1.1c0.7,0.7,1.3,1.6,1.8,2.5c0,0.1,0,0.1,0,0.2
				s0.1,0.4,0.2,0.5C121.6,156.8,121.7,157.4,121.8,158z"/>
			<path class="st0" d="M118.5,151.9L118.5,151.9L118.5,151.9"/>
			<polyline class="st0" points="117.7,151.3 117.8,151.3 117.7,151.3 			"/>
			<polyline class="st0" points="117.7,151.3 117.7,151.3 117.7,151.3 			"/>
			<path class="st0" d="M117.6,151.3L117.6,151.3"/>
			<path class="st0" d="M122.1,131.1c-0.2-0.2-0.4-0.4-0.7-0.6l0,0c-1.1-1-3.2,1.5-2.9,3.7s1.3,3.7,2.9,3.7c1.2,0,1.2,0.5,2.4,0.6
				c0.4-0.1,0.7-0.3,0.9-0.6c0.1-0.3,0.1-0.6,0.2-0.9c-0.2-0.9-0.4-1.8-0.8-2.7C123.6,133.2,122.9,132.1,122.1,131.1"/>
			<path class="st0" d="M125.5,122.4l0.2-0.1l0,0c0.1,0,0.1-0.1,0.2-0.2c0.6-0.3,1.4-0.1,1.8,0.4c0.3,0.4,0.1,0.6-0.2,0.8l-0.2,0.1
				c-0.2,0.1-0.5,0.1-0.7,0.1c-0.3,0-0.5-0.1-0.8-0.2c-0.2-0.1-0.3-0.2-0.4-0.4C125.4,122.8,125.4,122.6,125.5,122.4"/>
			<path class="st0" d="M139.4,184.4c0.3-0.3,0.8-0.3,1.2,0l0.1,0.1c0,0.1-0.1,0.2-0.2,0.3c-0.2,0.1-0.5,0.1-0.7,0.1
				c-0.1,0-0.2-0.1-0.3-0.2C139.4,184.6,139.4,184.5,139.4,184.4"/>
			<path class="st0" d="M139.9,161.9l0.1-0.2h0.6l1.9,0.2l0.3,0.2v0.1l0.1,0.2l-0.1,0.2l-0.4,0.1c-0.7-0.1-1.3-0.1-2-0.1l-0.3-0.1
				l-0.4-0.3L139.9,161.9L139.9,161.9z"/>
			<path class="st0" d="M140.6,182.3c0-0.1,0.4-0.2,0.5-0.1l0.5,0.2c0.1,0.1,0.1,0.1,0.2,0.2c0,0.1,0,0.1,0,0.2
				c0,0.1-0.1,0.2-0.1,0.2c-0.1,0-0.3,0-0.4,0c-0.2,0-0.3-0.1-0.5-0.2c-0.1-0.1-0.1-0.1-0.2-0.2L140.6,182.3"/>
			<path class="st0" d="M139.4,138.3c0.7,0.1,2.4,0.5,2.5,1.3c0,0.2,0,0.4-0.2,0.5c-0.1,0.1-0.3,0.1-0.5,0.1
				c-0.7,0.1-1.1-0.4-1.8-0.9c-0.1-0.2-0.2-0.4-0.3-0.6C139.2,138.4,139.2,138.3,139.4,138.3"/>
			<path class="st0" d="M141.5,185.1c0.2-0.4,0.5-0.7,0.9-0.8c0.4-0.1,0.8-0.2,1.2-0.2l1.3-0.5c1.7-0.1,3.3-0.6,5-0.4
				c0.2,0,0.3,0.1,0.4,0.3c0,0.1,0.1,0.2,0.1,0.3l0.1,0.4c0,0.2,0.2,0.2,0.3,0.1c0-0.4,0-0.7,0.2-0.9l0,0c0.1-0.1,0.3,0,0.4,0.1
				l0.1,0.1c0.1,0.8,0.2,1.6,0.3,2.4l0,0v0.4v0.5v0.2c0,0.3-0.2,0.6-0.5,0.7l-0.5,0.1c-1.6,0.5-3.3,0.4-4.8-0.2l-1.5-0.8
				c-0.7-0.5-1.5-0.9-2.3-1.2c-0.2,0-0.3,0-0.5-0.1S141.2,185.3,141.5,185.1"/>
			<path class="st0" d="M142.6,167.3c0-0.3,0.2-0.5,0.4-0.7c0.3-0.2,0.7-0.4,1.1-0.4l0.4-0.1l0.4-0.1c1.1-0.3,2.2-0.4,3.3-0.3
				c1.2,0,2.1-0.4,3.2-0.4l0.6,0.1l0.4,0.3l0.1,0.2c-0.2,1.6,0,3.1-0.4,4.7l-0.3,0.6c-0.3,0.2-0.7,0.2-1.1,0.1l-0.4-0.1
				c-2.4-0.9-5.2-1.3-7.4-3l-0.2-0.4l-0.1-0.2L142.6,167.3L142.6,167.3z"/>
			<path class="st0" d="M144.9,128c0.4,0,0.9,0,1.4,0l0.8-0.1l0.3-0.5c0.1-0.3,0-0.6-0.1-0.8l-0.1-0.4c-0.1-0.3-0.3-0.6-0.5-0.9
				c-0.3-0.4-0.8-0.7-1.3-0.8l-1-0.1h-0.2h-0.3l-0.3,0.1h-0.3l-0.2,0.1l-0.2,0.2l-0.2,0.1l-0.2,0.2l-0.1,0.4v0.2v0.1l0.1,0.2
				c0.1,0.2,0.2,0.4,0.3,0.6c0.2,0.9,1,1.4,1.9,1.4L144.9,128"/>
			<path class="st0" d="M147,174.9L147,174.9 M146.5,173.4l0.5-0.2c-0.7-0.1-1.4-0.1-2.1,0.1l-0.1,0.1v0.1c0,0.2,0,0.3,0.1,0.5
				c0,0,0.1,0.1,0.1,0.1c0.1,0.1,0.2,0.3,0.4,0.3c0.2,0.1,0.4,0.2,0.6,0.3c0.6,0.2,1.2,0.4,1.8,0.5l0,0c0.4,0.1,0.8,0.2,1.2,0.1h0.4
				h0.5c0.4,0.1,0.8,0.3,1.1,0.7c0.1,0.1,0.2,0.2,0.3,0.1c0.1,0.1,0.2,0.1,0.3,0c0.1-0.1,0.2-0.3,0.3-0.5c0-0.1,0-0.3,0-0.4v-0.3
				l-0.1-0.5c0-0.1-0.1-0.3-0.1-0.4c-0.2-0.2-0.3-0.4-0.6-0.5c-0.2-0.1-0.5-0.2-0.8-0.2h-0.5c-0.2,0.2-0.5,0.3-0.9,0.4
				c-0.4,0-0.8-0.1-1-0.4h-1L146.5,173.4z M149.7,175.2L149.7,175.2z M151.1,174.3c-0.1-0.1-0.2-0.1-0.3-0.1
				C151,174.2,151.1,174.3,151.1,174.3L151.1,174.3z M150.3,174L150.3,174L150.3,174z M147.6,175.1L147.6,175.1z M147.6,175.1
				L147.6,175.1z M147.5,175.1L147.5,175.1z M147.5,175.1h-0.1H147.5z M147.2,175L147.2,175z M147.2,175L147.2,175L147.2,175z
				 M147.1,175L147.1,175z M147.1,175L147.1,175z M147.1,175L147.1,175z M147.1,175L147.1,175z"/>
			<path class="st0" d="M145.4,135.5c0.4,0.2,0.8,0.3,1.3,0.2c0.7,0,1.4-0.2,2.1-0.4c0.3-0.1,0.5-0.4,0.4-0.6c0-0.8-0.3-1.7-0.9-2.3
				c-0.2-0.3-0.5-0.5-0.9-0.7c-0.4-0.3-0.8-0.4-1.2-0.5l-0.8,0.3c-0.2,0.1-0.5,0.4-0.8,0.5c-0.3,0.2-0.4,0.5-0.5,0.8
				c-0.1,0.2-0.1,0.4-0.1,0.6c0,0.8,0.6,1.5,1.3,1.8C145.4,135.4,145.4,135.5,145.4,135.5"/>
			<path class="st0" d="M151.6,147.4v-0.1C151.6,147.3,151.6,147.4,151.6,147.4L151.6,147.4z"/>
			<path class="st0" d="M146,153.6c0-0.2,0.1-0.5,0.1-0.7l0.7-0.9l0.5-0.1l0.5-0.2h0.7c0.1-0.1,0.2-0.1,0.4-0.1
				c0.4-0.4,0.9-0.6,1.4-0.6c0.2,0,0.3,0,0.5,0.1l0,0c0.4,0,0.7,0.2,0.9,0.4c0.2,0.1,0.4,0.3,0.5,0.6c0.1,0.4,0.2,0.7,0.2,1.1
				c0,0.1-0.1,0.3-0.1,0.4l-0.1,0.7c0,0.1,0,0.3,0,0.4c0,0.5,0,1-0.2,1.6l-0.2,0.5l-0.2,0.1c-0.6,0.1-1.1,0-1.7-0.2l-1.2-0.2h-0.4
				c-0.9-0.6-2.2-1.4-2.4-2.4c0-0.1,0-0.3-0.1-0.4L146,153.6"/>
			<path class="st0" d="M146,138.1l0.2-0.3l0.2-0.2c0.8,0.1,1.5,0.3,2.2,0.6l0.2,0.2l0.1,0.2l-0.2,0.3l-0.4,0.1l-0.1,0.1
				c-0.4,0.1-0.8,0.2-1.3,0.1c-0.3-0.1-0.6-0.3-0.8-0.6L146,138.1L146,138.1z"/>
			<polygon class="st0" points="147,163.4 147,163.3 147.1,163 147.4,162.9 148.6,162.9 149.1,162.9 149.3,163.1 149.5,163.3 
				149.5,164 149.3,164.1 149.1,164.1 147.9,164.3 147.7,164.3 147.2,164 147.2,164 147,163.7 147,163.5 			"/>
			<path class="st0" d="M147.5,130.5c0-0.2,0.1-0.3,0.2-0.4c0,0,0.1,0,0.1-0.1c0.2-0.1,0.3-0.1,0.5,0c0.1,0.1,0.3,0.1,0.4,0.3
				c0,0.1,0,0.1,0.1,0.2c0,0.1-0.1,0.2-0.2,0.3c-0.1,0.1-0.2,0.1-0.3,0.1c-0.1-0.1-0.1-0.3-0.5,0c-0.1,0.1-0.2,0.1-0.3,0
				C147.5,130.8,147.5,130.7,147.5,130.5"/>
			<path class="st0" d="M150.9,143.4L150.9,143.4z"/>
			<path class="st0" d="M150.9,143.6L150.9,143.6z"/>
			<polyline class="st0" points="149.2,147 149.3,147 149.2,147 			"/>
			<path class="st0" d="M149.2,147L149.2,147"/>
			<polyline class="st0" points="149.1,147.1 149.1,147.1 149.1,147.1 			"/>
			<path class="st0" d="M149.1,147.1L149.1,147.1z"/>
			<polyline class="st0" points="149.1,147.1 149.1,147.1 149.1,147.1 			"/>
			<polyline class="st0" points="149.1,147.1 149.1,147.1 149.1,147.1 			"/>
			<path class="st0" d="M149.1,147.3L149.1,147.3L149.1,147.3"/>
			<path class="st0" d="M150.8,143.2c-0.1-0.7-0.3-1.6-0.3-2.1c0-0.2,0.3-0.2,0.3-0.1c0.3,0.7,0.6,1.5,0.7,2.3c0.2,1,0.3,2,0.3,2.9
				c0,0.3-0.1,0.6-0.1,0.8s-0.1,0.4-0.1,0.5c-0.9,0.1-1.7,0-2.6-0.2l0,0l-0.7-0.1c-1.3-0.2-2.5-0.9-3.2-2c-0.1-0.2-0.1-0.5-0.1-0.7
				l0.3-0.9l0.2-0.4c0.3-0.3,0.5-0.4,0.8-0.6l0.3-0.1l0.1-0.1h0.4h1l0.4,0.1c0.8,0.2,1.6,0.5,2.3,1.1h0.1v-0.1
				c0-0.1,0.1-0.2,0.1-0.4"/>
			<polyline class="st0" points="150.9,143.2 150.8,143.2 150.9,143.2 			"/>
			<path class="st0" d="M151.2,160c0.2,0.1,0.4,0.3,0.6,0.3h0.3h0.1l0,0c0.1-0.1,0.2-0.2,0.2-0.3c0-0.3,0.1-0.6,0.1-0.9
				c0-0.1,0-0.1,0-0.2c0-0.1,0-0.1,0-0.2c0-0.1,0-0.2,0-0.3s0-0.3-0.2-0.5l-0.1-0.1c-0.3-0.3-0.8-0.3-1.1-0.2
				c-0.3,0-0.5,0.1-0.7,0.2c-0.2,0.1-0.4,0.2-0.6,0.3c0,0-0.1,0.2-0.1,0.2c0,0.1,0,0.2,0.1,0.4c0.1,0.1,0.2,0.2,0.3,0.3v0.1
				C150.2,159.6,150.6,160,151.2,160"/>
			<path class="st1" d="M70,84.6c-0.6,0.6,0.2,0.8,0.7,0.8c0.1-0.3,0-0.6-0.1-0.9c-0.2,0-0.3,0-0.5,0L70,84.6z"/>
			<path class="st0" d="M60.7,124.1c-0.1-0.2-0.3-0.2-0.5-0.2c-0.2,0.6,0,1.1,0.6,1c0,0.1,0,0.3,0,0.4c0.2,0.1,0.5,0.1,0.8,0
				c0-0.6-0.3-1.1-0.9-1.3L60.7,124.1z"/>
		</g>
		<g id="U4">
			<path class="st2" d="M152.3,202.3c-0.1,0.6-0.1,1.3-0.1,1.9l-100-5.1l0,0c0-1.1,0.1-2.3,0.1-3.5v-0.1v-0.1c0-0.5,0-1,0-1.5v-0.4
				l-0.1-0.4c-0.3-2.8-1.1-5.6-0.9-25.9c0.7-18.8,1.2-18.9,1.3-21.9l-0.2-2.2c-0.2-0.6-0.3-1.3-0.4-1.9c-0.1-0.3-0.2-0.7-0.2-1.1
				l-0.1-0.2c0-1.4,0.4-2.8,1-4c0.4-0.9,0.5-2,0.2-3l-0.3-0.6c-0.2-0.5-0.3-1-0.4-1.5c0-0.5,0-1,0.2-1.6l1-2.1
				c0.5-0.8,0.8-1.7,1.3-2.5c0.7-1,0.8-1.9,1.5-2.7c0.2-0.4,0.4-0.8,0.4-0.9l0,0l0,0c0.5-1,0.8-2.1,1-3.3c0.8-1.8,2.1-3.5,2.7-5.2
				c-0.3-3.4,2.5-8.6,3.2-12c0-0.2,3-9.9-1.2-17.9c-1.1-2.2-0.2-4.5,0.9-7.2L152.3,202.3z"/>
			<path class="st0" d="M67.2,81.3c-0.6,0-1.1-0.1-1.4-0.2h-0.4c-0.7-0.7-1.1-1.6-1-2.6l0.1-0.4l0.1-0.3c0-0.1,0.1-0.2,0.1-0.2
				L67.2,81.3z"/>
			<path class="st2" d="M82.9,196.4l4.4-4.4c0.3-0.3,0.7-0.3,0.9,0l4.4,4.4c0.3,0.3,0.3,0.7,0,0.9l-4.4,4.4c-0.3,0.3-0.7,0.3-0.9,0
				l-4.4-4.4C82.6,197.1,82.6,196.7,82.9,196.4z"/>
			<path class="st0" d="M59.4,144.6c-0.9,0-2.3-0.2-3.1,0.2c-1,0.5-1.1,1.5-0.2,2s2.3,0.3,3.3,0.4c1.5,0.2,2.2-0.3,3.7-0.4
				c0.1-1-0.7-1.3-1.4-1.6c-0.7-0.2-1.3-0.5-1.9-0.9L59.4,144.6z"/>
			<path class="st0" d="M67.3,82.5c-1,0-1.8-0.2-2.9-0.2s-1,0.3-1.1,1.3s0.3,2.1,0.3,3.1c0.1,0.8,0.3,1.6,0.7,2.3
				c0.2,0.8,0.3,1.7,0.4,2.5c0.1,1.1-1,3.4,0.5,3.8c1,0.2,2.1,0,3,0.2c0.7,0.2,1.3,0.7,2,0.7s2.4,0.2,2.1-1.1
				c-0.1-0.5-0.5-0.6-0.8-0.9c-0.3-0.4-0.6-0.8-0.9-1.3c-0.7-0.9-1.5-1.8-2.2-2.7c-1.2-1.4-2-3-2.4-4.7c-0.1-0.5-0.2-1-0.3-1.5
				c-0.3-0.1-1-0.5-1.1-0.9s0.3-0.7,0.8-0.6c0.3,0.1,0.5,0.3,0.8,0.4c1.1,0.1,2.1,0.1,3.2-0.1h-0.1c0.2,0,0.3,0,0.5,0
				c0.1,0.3,0.1,0.6,0.1,0.9c-0.1,0.4-0.2,0.3-0.4,0.5s-0.9,1.2-0.7,1.6c0.5,0.9,1.3-2.5,2-1.8c0,0.1,0,0.1,0,0.2c0.2,0,0.5,0,0.7,0
				c0-0.6-0.1-0.6-0.4-1s-0.4-0.8-0.7-1c-0.8-0.4-2,0.3-2.9,0L67.3,82.5z"/>
			<path class="st0" d="M146,201.3L146,201.3z"/>
			<path class="st0" d="M146.6,201.8L146.6,201.8z"/>
			<path class="st0" d="M145.1,200.5L145.1,200.5"/>
			<path class="st0" d="M145.3,201L145.3,201"/>
			<path class="st0" d="M145.4,201L145.4,201"/>
			<path class="st0" d="M145.5,201L145.5,201"/>
			<path class="st0" d="M145.7,201.2L145.7,201.2L145.7,201.2"/>
			<path class="st0" d="M146.1,201.4L146.1,201.4"/>
			<path class="st0" d="M146.2,201.4L146.2,201.4L146.2,201.4"/>
			<path class="st0" d="M146.4,201.6L146.4,201.6"/>
			<polyline class="st0" points="146.6,201.8 146.6,201.8 146.6,201.8 146.6,201.8 			"/>
			<path class="st0" d="M151.5,201.2c-0.1,0.3-0.2,0.5-0.4,0.8c-1.4,0.2-2.9,0.3-4.3,0.2c-0.1-0.1-0.1-0.2-0.2-0.3
				c0,0.1,0.1,0.2,0.1,0.3l-0.9-0.1c-1.1-0.5-2.1-1.2-2.9-2c0-0.1-0.1-0.1-0.1-0.2v-0.9c0.1,0,0.1,0,0.1,0c0,0,0-0.1,0-0.1
				c-0.1-0.6,0.2-0.7-0.3-1c-0.3-0.1-0.6-0.1-0.8-0.2c0,0,0,0,0-0.1c-0.3-0.6,0.4-0.5,1.1-0.6l0.4,0.1c0,0.3,0.1,0.5,0.1,0.8
				c0.1,0.2,0.5,0.3,0.7,0.4c1,0.1,2,0.2,3,0.2l1.2-0.1l0.9-0.1l0.1-0.1L151.5,201.2z"/>
			<path class="st0" d="M102.8,169.8c-0.5,0.5-0.6,0.9-0.5,1.2l0.2,0.1h0.3l0.2-0.2c0.2-0.4,0.6-0.6,0.8-0.9c0-0.1,0-0.3,0-0.4l0,0
				l-0.3-0.1l-0.1,0.1C103.1,169.5,103,169.7,102.8,169.8"/>
			<path class="st0" d="M122.5,162.6c0.4,0.8,1.5-0.4,1.3-1l-0.3-0.1C123.1,161.4,123,161.6,122.5,162.6"/>
			<path class="st0" d="M102,157.6L102,157.6c0.1,0.3-0.3,0.5-0.6,0.6l-0.9,0.1c-0.2,0.1-0.3,0.2-0.5,0.1c-0.4,0.1-0.7,0.1-1.1,0.1
				c-1.2-0.2-2-1.3-1.9-2.4c0-0.3,0.1-0.7,0.2-1c0.4-0.8,1.2-1.3,2.1-1.2l0,0c0.4,0,0.8,0.1,1.1,0.2c0.3,0.2,0.6,0.5,0.7,0.8
				c0,0.1,0,0.1,0,0.2c0.1,0.4,0.2,0.9,0.5,1.2c0.3,0.3,0.4,0.6,0.4,1c0,0.1,0,0.3,0,0.4C102,157.7,102,157.6,102,157.6"/>
			<path class="st0" d="M116.6,187.3h-0.5c-0.4-0.1-0.8-0.3-1.1-0.6c-0.3-0.3-0.6-0.6-0.9-1l-0.2-0.4c-0.2-0.5-0.3-1-0.3-1.5
				l0.2-0.5l0.2-0.1l0.7-0.4l0,0c0.2-0.1,0.4,0,0.5-0.1h0.2h0.1c0.3,0,0.6,0.1,0.9,0.3l0.3,0.2c0.2,0.2,0.3,0.4,0.4,0.6
				c0.2,0.2,0.3,0.4,0.3,0.6c0,0.1,0.1,0.3,0.1,0.4c0,0.3,0.2,0.6,0.4,0.8h0.7c0.2,0,0.3,0.1,0.4,0.3v0.3c-0.1,0.2-0.2,0.3-0.4,0.3
				c-0.5,0.3-1,0.5-1.5,0.6C117.1,187.2,116.9,187.2,116.6,187.3"/>
			<path class="st0" d="M103.6,139.1c0.3,0.4,0.6,0.8,0.8,1.2c0.1,0.5,0,1-0.3,1.4c-0.2,0.2-0.5,0.4-0.9,0.4l-0.4,0.1
				c-1.5,0.5-4.5,0.2-6.1,0c-0.1-0.1-0.2-0.1-0.4-0.1c-1.2-0.5-3.1-0.9-3.8-2.1c-0.3-1.3-0.6-2.4,0.4-3.8c0.3-0.3,0.7-0.4,1.1-0.4
				h0.5c1.1,0.1,2.2,0.4,3.3,0.7C99.8,136.8,102.9,138,103.6,139.1"/>
			<path class="st0" d="M65.9,149.7l0.2-0.2l0.2-0.1l1.1-0.1l1.2,0.1l0.1,0.1v0.3l-0.3,0.3l-0.2,0.1l-0.6,0.3
				c-0.3,0.1-0.6,0.2-0.9,0.1l-0.3-0.1l-0.3-0.3L65.9,149.7L65.9,149.7z"/>
			<path class="st0" d="M79,142.2c0.9,2,0,2.2-0.6,2.4c-0.4,0.1-0.8,0.2-1.2,0.2h-0.9c-0.2,0-0.5-0.1-0.7-0.1
				c-0.5-0.1-1-0.2-1.4-0.3c-0.2-0.1-0.3-0.1-0.4-0.3c-0.2-0.1-0.1-0.5,0-0.5c0.1-0.2,0.3-0.3,0.5-0.4c0.3-0.1,0.6-0.3,0.8-0.5
				c0.2-0.1,0.4-0.2,0.6-0.4l0.4-0.3c0.4-0.4,1-0.6,1.6-0.7c0.3,0,0.6,0.1,0.8,0.3l0.4,0.4C78.9,142.1,79,142.2,79,142.2"/>
			<path class="st0" d="M76.8,177.7c-0.2-0.1-0.5-0.2-0.7-0.4c-0.2-0.1-0.3-0.3-0.6-0.4s-0.2-0.3-0.3-0.5s-0.1-0.3-0.1-0.4l0.2-0.3
				l0.1-0.1c1-0.2,2.1-0.1,3,0.4c0.7,0.3,1.3,0.7,1.9,1.1v0.1c0,0.1,0.1,0.2,0.1,0.3c0,0.2-0.2,0.3-0.3,0.3l-0.2,0.1
				C78.9,178.2,77.7,178.1,76.8,177.7"/>
			<path class="st0" d="M82.4,166.4h-0.1H82.4l0.5-0.1l0.6-0.1c0.5-0.2,1-0.2,1.5,0c0.7,0.2,1.3,0.6,1.9,1c0.7,0.4,1.3,0.8,1.9,1.3
				c0.1,0.3,0.2,0.6,0.2,0.9l0,0c0.2,0.3,0.2,0.7,0,1c-0.1,0.2-0.3,0.4-0.5,0.5l-0.3,0.1c-0.6,0.2-1.2,0.4-1.8,0.4h-0.2H86
				c-0.6,0.1-1.2,0.1-1.8-0.1l-0.3-0.1h-0.3c-0.5-0.3-1.1-0.8-1.6-1.2l-1-0.8c-0.1-0.2-0.3-0.3-0.5-0.5c-0.3-0.2-0.6-0.4-0.8-0.7
				l-0.1-0.2v-0.2c0.1-0.3,0.3-0.5,0.6-0.5l0.2-0.1l0.4-0.2l0.4-0.2l0.3-0.1c0.1-0.1,0.3-0.1,0.5-0.1L82.4,166.4z"/>
			<path class="st0" d="M84.6,183.2L84.6,183.2c0.2-0.1,0.4-0.1,0.6-0.1c1,0,1.7,0.8,1.8,1.7c0,0.6-0.3,1.1-0.8,1.4l-0.4,0.4
				c-2,0.6-3.5,0.2-4.6-1.6l-0.1-0.3l-0.1-0.2l-0.1-0.1v-0.3c-0.1-0.2-0.1-0.3-0.1-0.5v-0.3l0.1-0.3l0.3-0.3
				c0.4-0.1,0.8-0.2,1.2-0.1C83.1,182.7,83.9,182.9,84.6,183.2"/>
			<path class="st0" d="M128.1,174.1c-1.2-0.8-1.3-1.6-0.3-1.7l0.7-0.1h0.5c0.9,0.3,1.1,0.4,1.4,1.1l0.1,0.3
				c0.1,0.3,0.2,0.7-0.3,0.7C129.4,174.4,128.7,174.3,128.1,174.1"/>
			<path class="st0" d="M85.2,127.3c0.6-0.1,1.1,0.1,1.6,0.4c0.4,0.3,0.8,0.9,1.3,1.2c0.5,0.6,0.3,0.7,0.1,1.4c-0.7,1-2,1.4-3.2,1.1
				l-0.3-0.1c-1.5-0.7-1.2-0.7-1.8-2.1c0-0.1,0-0.3,0-0.4C82.8,127.6,84.3,127.4,85.2,127.3"/>
			<path class="st0" d="M87.1,154.3c0.1-0.4,0.3-0.8,0.7-1.1l0.4-0.5l0,0l0.2-0.2c0.7-0.5,1.6-0.5,2.3-0.2l0.5,0.2
				c0.3,0.3,0.6,0.5,0.9,0.9l0.5,0.4l0.3,0.3c0.3,0.4,0.6,0.8,0.8,1.2l0.4,0.8l0.1,0.2c0.1,0.2,0.2,0.4,0.2,0.7l-0.2,0.5l-0.2,0.1
				c-0.5,0.1-0.9-0.3-1.3-0.4l-0.9-0.2c-1.3,0-2.6-0.4-3.8-1.2c-0.3-0.2-0.6-0.4-0.8-0.6l-0.1-0.2c-0.1-0.2-0.1-0.3-0.1-0.5
				L87.1,154.3z"/>
			<path class="st0" d="M89.6,181.7c-0.3,0-0.7-0.1-0.9-0.3c-0.2-0.1-0.3-0.3-0.4-0.6c-0.1-0.4-0.2-0.5,0.2-0.8
				c0.2-0.1,0.3-0.2,0.5-0.3l0.4-0.1c0.4-0.1,0.9-0.2,1.4-0.1c0.5,0,0.9,0.1,1.3,0.3c0.5,0.4,0.6,0.6,0.3,1.3
				c-0.1,0.1-0.1,0.1-0.2,0.2C91.3,181.6,90.4,181.8,89.6,181.7"/>
			<path class="st0" d="M87.6,158.4c0-0.2,0.1-0.3,0.4-0.4c0.1,0,0.2,0,0.3-0.1c0.2,0,0.5,0,0.7,0.1c0.1,0.1,0.2,0.1,0.3,0.1
				s0.2,0.1,0.3,0.1l0.9,0.4l0.7,0.4c0.2,0.1,0.3,0.2,0.5,0.3c0.1,0.1,0.1,0.3,0,0.5l-0.2,0.2l-0.2,0.2c-0.1,0-0.1,0.1-0.2,0.1
				c-0.5,0.2-1,0.3-1.6,0.3c-0.4-0.1-0.7-0.3-1-0.6c-0.3-0.3-0.7-0.6-0.9-0.9C87.5,158.8,87.5,158.6,87.6,158.4"/>
			<path class="st0" d="M90.9,162.6l0.2-0.2c0.3-0.2,0.6-0.3,1-0.3c0.7-0.1,1.4-0.2,2.1-0.3l0.4,0.1l0.2,0.2l0.1,0.2v0.3
				c0,0.3-0.1,0.6-0.2,0.9l-0.2,0.2l-0.3,0.1c-0.6,0.1-1.2,0.1-1.7-0.1l-0.6-0.2c-0.3-0.1-0.6-0.2-0.9-0.4l-0.1-0.2l-0.1-0.3
				L90.9,162.6z"/>
			<path class="st0" d="M101.6,184.7l-0.5,0.3l0.1,0.2c-3.1,1.4-7-3.6-2.9-4.6c2.3-0.9,4,2.6,3.7,4.3L101.6,184.7z"/>
			<path class="st0" d="M97.2,149.2l0.2-0.1l0,0l0.2-0.1H98l1,0.1l0.4,0.3l0.1,0.4l-0.1,0.2c0,0.1-0.2,0.1-0.3,0.1
				c-0.2,0.1-0.4,0.2-0.7,0.1l-1.1-0.3c-0.1-0.1-0.1-0.3-0.2-0.5L97.2,149.2z"/>
			<path class="st0" d="M99.6,165.9L99.6,165.9C99.6,165.9,99.6,165.9,99.6,165.9c0.7-0.3,1.5-0.2,2.1,0.2c0.8,0.6,1.5,1.4,1.2,2.5
				l0,0c0,0,0-0.1,0-0.1c0,0.1,0,0.2-0.1,0.3c-0.9,0.8-2.1,1-3.2,0.4c-0.7-0.2-1.1-0.9-1.2-1.6c0-0.2,0-0.4,0-0.6
				c0.1-0.4,0.2-0.7,0.5-0.9C99.2,166.1,99.4,166,99.6,165.9"/>
			<path class="st0" d="M106.4,174v-0.5l0.5-0.7l0.2-0.1v-0.1l0.7-0.2l0.3-0.3l0,0l0.3-0.2l0,0l0.3-0.2l0.3-0.1l0.3-0.1
				c0.3,0,0.5,0.2,0.8,0.4c0.4,0.6,0.4,1,0.9,1.6l0.7,0.7l0.2,0.4l0.1,0.4c0.2,0.5,0.1,1.1-0.2,1.6c-0.2,0.1-0.3,0.3-0.5,0.4
				c-0.3,0.1-0.7,0.1-1,0.1c-1.3-0.5-2.5-1.1-3.5-2l-0.4-0.6l-0.1-0.5L106.4,174z"/>
			<path class="st0" d="M106.1,143.8c0.1-0.1,0.1-0.2,0.1-0.2c0.1-0.1,0.2-0.2,0.4-0.1c0.5-0.1,1,0.1,1.5,0.3
				c0.1,0.3,0.1,0.6,0.1,0.9c-0.2,0.1-0.2,0.2-0.3,0.3c-0.3,0.1-0.5,0.1-0.8,0c-0.3,0-0.6-0.2-0.8-0.4c-0.1-0.2-0.2-0.3-0.2-0.5
				C106.1,143.9,106.1,143.8,106.1,143.8"/>
			<path class="st0" d="M107.6,153L107.6,153l0.2-0.5c0.6-0.2,1.2-0.2,1.8,0.1c0.4,0.2,0.7,0.4,0.9,0.8c0.2,0.3,0.2,0.7,0.1,1
				l-0.2,0.3c-0.3,0.1-0.6,0.2-0.9,0.2l-0.7-0.1l-0.5-0.3h-0.2v-0.2l-0.2-0.2c-0.2-0.3-0.3-0.6-0.4-1L107.6,153z"/>
			<path class="st0" d="M121.5,158.5c-0.1,0.2-0.3,0.4-0.5,0.4c-0.7,0.2-1.4,0.2-2.1,0l-0.6-0.2c-0.4-0.2-0.8-0.3-1.2-0.4l-0.5-0.3
				c-0.6-0.6-1.1-1.2-1.4-2c-0.3-0.9-0.4-1.8-0.5-2.7c0,0,0-0.1,0-0.1c-0.1-0.6,0.1-1.2,0.5-1.7c0.1-0.1,0.2-0.2,0.3-0.3
				c0.1,0,0.3-0.1,0.4-0.2c0.1,0,0.2,0,0.3-0.1L121.5,158.5z"/>
			<path class="st0" d="M120.4,164.8l0.4-0.6c0.4-0.2,0.7-0.4,1.1-0.1l0.5,0.4c0.1,0.3,0.1,0.5,0,0.8l-0.2,0.1
				c-0.4,0.2-0.9,0.2-1.3,0.1C120.6,165.4,120.4,165.1,120.4,164.8"/>
			<path class="st0" d="M130.4,178.7c2.3-2.4,8.1,4.7,2,2.9C131.3,181.3,129.8,179.9,130.4,178.7"/>
			<path class="st0" d="M99.8,193.5c-0.1-0.3-0.3-0.5-0.4-0.7c-0.2-0.6-0.2-1.3,0.1-1.8l0.1-0.4l0.2-0.3c0-0.1,0.1-0.3,0.2-0.3
				c0.1,0,0.3,0.1,0.4,0.1c0.5,0.2,0.9,0.5,1.2,0.9c0,0.1,0.1,0.2-0.1,0.4l-0.3,0.1c-0.3-0.2-0.6-0.2-0.8,0
				c-0.3,0.1-0.2,0.3-0.2,0.5c0.1,0.3,0.2,0.5,0.4,0.6c0.3,0.2,0.7,0.3,1,0.2c0.1-0.1,0.2-0.2,0.2-0.3c0.1-0.4,0.1-0.7,0.4-0.9
				s0.7,0.3,0.8,0.4c0.3,0.3,1.9,1.6,1.4,2c-0.1,0.4-0.4,0.7-0.8,0.8c-1.2,0.1-2.4-0.3-3.4-1C100,193.8,99.9,193.7,99.8,193.5"/>
			<path class="st0" d="M95.7,201.3l-0.2-0.1L95.7,201.3l0.1,0.3c0,0.1-0.1,0.2-0.2,0.2l0,0c-0.9,0.3-1.8,0.3-2.7,0.1l-1-0.4
				c-0.1-0.2-1.1-0.6-1-1.7c0-0.3,0-0.7,0.2-1L92,198c0.6-0.2,1.3,0.2,1.9,0.7l0.4,0.7v0.2l0.5,0.8l0.8,0.8
				C95.6,201.2,95.6,201.2,95.7,201.3"/>
			<path class="st0" d="M96.8,192.6c1-0.2,1.6-1,0.9-1.4c-0.4-0.4-1-0.7-1.6-0.8c-0.8,0.1-1.5,0.3-2.2,0.6c-0.2,0.2-0.2,0.3-0.1,0.5
				C94.7,192.1,95.7,192.5,96.8,192.6"/>
			<path class="st0" d="M114,210.7L114,210.7L114,210.7"/>
			<path class="st0" d="M119,193.9c-0.1,0.4-0.2,0.8-0.3,1.2c-1,0.2-2.1,0-3-0.4c-0.5-0.3-0.9-0.8-1-1.3v-0.2
				c0.1-0.2,0.2-0.3,0.3-0.5l0.2-0.1c0.5-0.1,0.9-0.4,1.4-0.5h0.2c0.7,0.1,1.3,0.4,1.8,0.9C118.7,193.3,118.9,193.6,119,193.9"/>
			<path class="st0" d="M123.3,196.5c-1.7-0.7-1.4-2.9,0.8-2.1c0.4,0.1,0.7,0.3,1,0.5c0.1,0.1,0.4,0.5,0.5,0.5l0.3,0.2
				c0.6,0.3,1.1,0.7,1.5,1.1c0.2,0.3,0.1,0.7-0.2,0.8c-0.8,0.1-1.5-0.2-2-0.8C124.6,196.6,124,196.7,123.3,196.5"/>
			<path class="st0" d="M119.8,186.8h0.2c0.7-0.3,1.4-0.2,2,0.3c0.1,0.2,0.1,0.3,0.2,0.5c0,0.2-0.1,0.3-0.2,0.4l-0.1,0.1h-0.2
				c-0.7,0.1-1.4-0.1-1.9-0.6c0-0.1-0.1-0.1-0.1-0.1C119.6,187.1,119.7,186.9,119.8,186.8"/>
			<path class="st0" d="M127.1,202.3c0.1-0.3,0-0.2,0.3-0.4c0.6-0.2,1.2,0,1.7,0.4l0.2,0.3c0,0.3,0,0.5-0.1,0.5
				c-0.4,0.3-1.5,0-1.9-0.3l-0.2-0.2C127.1,202.5,127.1,202.4,127.1,202.3"/>
			<path class="st0" d="M136.3,201L136.3,201l0.2-0.4h0.2l0.3,0.1l0.2,0.2l0.1,0.3l0.1,0.4v0.3l-0.1,0.2l0,0c-0.3,0-0.7-0.1-0.9-0.4
				v-0.4L136.3,201L136.3,201z"/>
			<path class="st0" d="M61.1,109.6c-0.1,0.4-0.1,0.9-0.1,1.3c0,0.6,0,1.2,0.2,1.8c0.2,0.7,0.5,1.4,1,1.9c0.9,0.7,1.4-0.2,2.3-0.4
				c2-0.6,2.5,2.1,3.5,3.1s2.5,0.7,2.4,2.2c0,0.1-0.9,0.4-1,0.4c-0.4-0.1-0.7-0.3-1-0.5c-0.7-0.5-1.2-1.2-1.9-1.6s-1.8-0.2-2.3-1
				c-0.5-0.7-0.3-1.7,0.3-2.2c0.5-0.5,1.1-0.7,1.3-1.5c0.1-0.4,0.1-0.8,0-1.2c-0.1-0.4-0.4-0.3-0.6-0.6s0.1-0.4,0-0.7
				c0-0.5-0.2-1-0.5-1.4c-0.2-0.3-0.7-0.8-0.3-1.1c0.9-0.8,2.7,1.4,3.1,2c1,1.4,1.7,2.9,2.1,4.6c0.2,0.7,0.2,1.7,0.7,2.1
				c0.3,0.3,0.7,0.4,0.7-0.2s-0.5-0.7-0.5-1.2s0.3-0.7,0.3-1.1c0.1-1.1-1-2.9-1.7-3.6c-1.1-1.3-2.3-2.5-3.5-3.7
				c-0.7-0.4-1.5-0.4-2.3-0.1c-0.8,0.6-1.5,1.4-2,2.4C61.1,109.3,61.1,109.4,61.1,109.6"/>
			<path class="st0" d="M71.5,119.1c-0.1,0-0.2,0-0.2,0.1c0,0.3,0.3,0.4,0.6,0.3c0.1-0.1,0.1-0.3,0.1-0.4
				C71.8,119.1,71.6,119.1,71.5,119.1"/>
			<path class="st0" d="M72.3,118.3c0,0.1,0,0.2,0,0.3c0.4,0.1,0.6-0.3,0.3-0.5C72.5,118.2,72.4,118.2,72.3,118.3"/>
			<path class="st0" d="M71.4,117.3c0,0.1,0,0.3,0.1,0.4c0.2,0,0.4,0,0.6,0c0-0.4-0.5-0.7-0.9-0.7c0,0.1,0,0.1,0,0.2
				c0.1,0,0.2,0,0.3,0c0,0,0,0.2,0,0.2L71.4,117.3z"/>
			<path class="st0" d="M62.3,138.9c0-1.2,2.6-0.7,2.9-2c0.1-0.1,0.2,0,0.3,0s0-0.3,0-0.4c1.1,0.2,1.4-0.8,0.7-1.5
				c-0.5-0.5-1.4-0.4-1.9-1c0.4-0.2,1.6,0.3,1.8-0.2s-0.9-1.1-1.3-1.2c-0.1-0.3-0.1-0.7-0.1-1c-0.2-0.2-0.5-0.3-0.7-0.4
				c0-0.5,0-1,0-1.5c-0.3-0.2-0.8-0.4-1.1-0.9c-1-0.2-1.2,0.4-1.2,1.2V129c-0.2,1.6,1.7,2.5,1,4.2c-0.5,1.3-2.2,1.4-2.3,3
				c-0.4-1.1,0.3-1.7,0.8-2.6s0.3-1.6-0.1-2.6c-0.5-1.4-1.5-4.4,0.3-5.4c1.1,1-1.4,1.3-0.5,2.4c0.3-0.1,0.6,0,0.9,0.2
				c0,0-0.2-0.4-0.2-0.3l0.2,0.4c2.6,0.3,4.5,2.6,4.3,5.2c-0.1-0.1-0.2-0.1-0.3-0.2c0.4,0.1,0.7,0.5,1.1,0.5c0,0.8,0.6,1.2,0.6,2
				c0.1,1.3-0.4,1.2-1.5,1.4C64.5,137.5,64,139.1,62.3,138.9L62.3,138.9z"/>
			<path class="st1" d="M63.5,134.3c-2.1-0.3-3.8,2.5-1.1,3.1c1,0.1,2-0.4,2.4-1.3c0.5-1-0.2-1.4-1.2-1.7L63.5,134.3z"/>
			<path class="st0" d="M58.5,123.6c1.2,1,0.9,2.6,0.7,3.9s-0.4,2.6-0.6,3.8s0,2.7-0.2,4c-0.2,1.1-0.4,0.8-1,1.4s-0.3,1.1-0.1,1.8
				c0.6,0.1,1.4,0.3,1.4,0.9c-0.1,0.1-0.2,0-0.3,0s0.1,0.2,0.1,0.3c0.4,0.1,0.8-0.1,1-0.5c0,0.1,0,0.3,0,0.4s-0.1-0.3-0.1-0.3
				c0.3,0.1,0.6-0.1,0.9,0c0.2-0.7,1.3-0.2,0.3,0.6c-0.2,0.1-0.8,0.2-1.1,0.3c-0.5,0.3-0.6,0.6-1.1,0.8c-0.9,0.1-1.9,0.1-2.8,0
				c-1.1-0.1-1.5-0.5-1.2-1.8c0.3-0.7,0.3-1.5,0.2-2.2c-0.2-0.8-0.3-1.7-0.2-2.6c0.2-1.2,0.9-2.2,1.1-3.3c0.1-1,0.1-1.9,0-2.9
				c0-1.4,0.3-1.6,1.3-2.5c0.6-0.6,0.6-2.3,1.7-2L58.5,123.6z"/>
			<path class="st0" d="M69.1,126.7c0.7-0.2,1.2,0.5,1.7,0.9s1,0.3,1.1,1.3c-1.1,0.3-1-0.4-1.6-1c-0.5-0.4-1.1-0.7-1.7-0.9
				c-0.1-0.3,0.1-0.3,0.2-0.4L69.1,126.7z"/>
			<path class="st0" d="M53.2,151.4c-1.9-0.2-1.5,3.2-1.5,4.4c0,2.4,0.1,4,1.4,6c0.5,1,1.1,1.8,1.9,2.5c1,0.6,1.2-0.1,2.1-0.4
				s1.8,0,2.7-0.2c0.7-0.2,1-0.8,1.6-1.2c0.3-0.2,0.7,0,1-0.3s0.2-0.8,0.4-1c0.6-0.8,0.8-0.8,1.1-1.9c-1.3-1-2.9-0.7-4.6-0.8
				c-0.1-0.7-0.7-1.1-1.3-0.7c0.2,0.4,0.3,0.9,0.2,1.3c-0.7,0.4-1.7-0.6-1.7-1.2c0-1,1.4-0.9,2-1.2c0.9-0.5,0.9-1.3,1.6-1.9
				s2,0,2-1.4c-0.5-0.5-0.9-1.2-1.1-1.9c-0.8,0.2-1.6,0.3-2.4,0.3c-0.2-1.2-1.2-0.4-1.9-0.3c-1,0.1-2,0.1-3,0H53.2z"/>
			<path class="st0" d="M57.1,170.2c-1.4,0-2.5,0.5-1.5,2c1,0.1,3.7,0.3,4.4-0.5c1.5-1.5-1.7-1.4-2.5-1.4L57.1,170.2z"/>
			<path class="st0" d="M53.8,192.1c0.3,1.2,1.3,3.2,2.4,3.8s3.2,0.5,4.7,0.7c0.1-0.1-0.1,0.1-0.1,0.1c0.6,1.1,3.9-0.1,3.6,1.4
				c0.7,0.2,0.7-0.3,1.1-0.4c0.4,0,0.9,0,1.3,0c1,0.2,2-0.1,2.8-0.6c0.9-0.8-3.4-4.1-3.9-4.4c-1.1-0.9-2.2-1.9-3.1-2.9
				c-1.6-1.9-3.9-3-6.4-3C53.6,186.8,53.2,190,53.8,192.1"/>
			<path class="st1" d="M59.6,188.8c-1.5-0.1-0.5,3.2-0.4,4c0,0.8,0.1,1.6,0.3,2.3c0.3,0.4,1.3,0.5,1.5,0.7h-0.2
				c1.3,0.7,3.9,0.3,5.4,0.2c0.4-2.1-1.8-2.6-2.8-3.9c-0.3-0.4-0.3-0.7-0.6-1.1s-0.8-0.4-1.1-0.7c-0.6-0.6-1-1.3-1.8-1.7L59.6,188.8
				z"/>
		</g>
		<g id="Labels">
			<g class="st5">
				<path class="st6" d="M155,3.6c0,0,0.1,0,0.1,0c0,0,0.1,0,0.1,0l0.3,0l0.3,0.1l0.2,0.1c0.1,0.1,0.2,0.2,0.3,0.4l0,0.1l-0.1,0.1
					L156,4.6l-0.2,0.2l-0.7,0.4l-0.6,0.3l-0.3,0.1l-0.2,0c-0.1,0-0.1,0-0.2-0.1l-0.1-0.1l0-0.1l0-0.1c0,0,0-0.1,0.1-0.1l0.2-0.1
					l0.4-0.2l0.5-0.3l0.2-0.1l0.2-0.1l0-0.1c0-0.1-0.1-0.2-0.4-0.2l-0.3,0l-0.3,0.1c-0.2,0-0.3-0.1-0.3-0.3c0-0.1,0-0.1,0.1-0.2
					c0,0,0.1-0.1,0.2-0.1l0.3-0.1L155,3.6z M157.3,3.6c0.1,0,0.3,0,0.4,0.1c0.1,0,0.1,0,0.1,0l0.1,0l0.2,0.1c0.1,0,0.1,0.1,0.1,0.1
					c0,0.1,0,0.1,0,0.2l0,0.1l0,0.1l-0.1,0.1l-0.1,0.1L158,4.8l-0.1,0.1l-0.4,0.3l-0.4,0.2l-0.3,0.2l-0.1,0l-0.2,0l-0.1,0
					c0,0-0.1,0-0.1-0.1l-0.1-0.1c0,0,0-0.1,0-0.1c0,0,0-0.1,0.1-0.1l0.1-0.1l0.2-0.1l0.2-0.1l0.4-0.2l0.3-0.2l0.2-0.1
					c0,0,0-0.1,0.1-0.1c0-0.1,0-0.1-0.1-0.1l-0.2,0l-0.1,0l-0.1,0l-0.1,0l-0.1,0l-0.1,0l-0.2,0l-0.1,0c0,0,0,0,0,0c0,0,0,0,0,0
					c0,0,0-0.1,0-0.1l0-0.1c0,0,0-0.1,0.1-0.1c0,0,0.1-0.1,0.1-0.1c0.1,0,0.1,0,0.1,0s0,0,0.1,0c0.1,0,0.2-0.1,0.2-0.1
					C157.1,3.6,157.2,3.6,157.3,3.6C157.3,3.6,157.3,3.6,157.3,3.6z"/>
				<path class="st6" d="M155.9,7L155.9,7c0.2,0.1,0.3,0.1,0.3,0.3c0,0,0,0.1-0.1,0.1l-0.1,0.1l-0.2,0.1l0.3,0.1l0.1,0l0.2,0
					c0.2,0,0.3,0.1,0.3,0.3l0,0.1l-0.1,0.1l-0.1,0.1l-0.1,0.1l-0.5,0.3l-0.1,0.1c0,0,0,0.1,0,0.1l0.5,0.1l0.4,0.1l0.2,0
					c0.2,0,0.2,0.1,0.2,0.2c0,0.2,0,0.3-0.1,0.3l-0.2,0h-0.1l-0.1,0l-0.2,0l-0.3,0l-0.1,0l-0.1,0L155,9.1l-0.1,0c0,0,0,0,0,0
					c0,0,0,0-0.1,0L154.8,9c0,0,0,0-0.1-0.1c0,0,0-0.1,0.1-0.1l0.1-0.1l0.3-0.2l0.3-0.2l0.3-0.2l0.2-0.1l-0.3,0l-0.8-0.1
					c0,0-0.1,0-0.1,0l0-0.1l0.1-0.1l0.2-0.2l0.3-0.2l0.3-0.1C155.7,7,155.8,7,155.9,7z"/>
				<path class="st6" d="M161.7,4.4c0,0.4-0.3,0.8-0.9,1.1c-0.2,0.1-0.4,0.2-0.6,0.2c-0.6,0-0.8-0.2-0.8-0.7c0-0.3,0.2-0.7,0.5-0.9
					c0.3-0.3,0.7-0.4,1-0.4c0.1,0,0.2,0,0.3,0.1c0.1,0,0.2,0.1,0.3,0.1C161.6,4,161.7,4.2,161.7,4.4z M161.2,4.5
					c0-0.2-0.1-0.3-0.4-0.3c-0.2,0-0.3,0.1-0.5,0.2c-0.2,0.2-0.3,0.3-0.3,0.5c0,0.1,0.1,0.2,0.2,0.2h0.1c0.1,0,0.3-0.1,0.5-0.2
					S161.2,4.6,161.2,4.5z"/>
				<path class="st6" d="M160.9,7.1h0.1l0.1,0c0,0,0.1,0,0.1,0c0.1,0,0.2,0.1,0.2,0.3l0,0.2l0,0.1c0,0,0,0.1,0,0.1l0,0.1l-0.1,0.2
					l-0.1,0.2l-0.1,0.2l-0.1,0.2c-0.1,0.1-0.2,0.3-0.3,0.3l-0.1,0l-0.1,0c0,0,0,0-0.1,0l-0.1,0L160.4,9l0-0.1c0,0,0-0.1,0-0.1
					c0,0,0,0,0.1-0.1l0.1-0.1l0.1-0.2l0.2-0.4l0.1-0.2c0,0,0,0,0-0.1c0,0,0,0,0-0.1l-0.1,0c-0.1,0-0.1,0-0.2,0.1L160.5,8l-0.4,0.3
					l-0.7,0.6l-0.3,0.2l-0.3,0.2l-0.2,0.1l-0.2,0.1l-0.1,0l-0.1,0l-0.1,0c-0.1,0-0.1-0.1-0.1-0.2V9.1c0,0,0-0.1,0-0.1l0-0.1
					c0,0,0.1-0.1,0.1-0.1l0.2,0l0.2,0l0.1,0l0.2-0.1l0.4-0.2l0.2-0.1l0.2-0.1l0.2-0.2l0.2-0.2l0.2-0.2l0.2-0.2
					C160.6,7.1,160.8,7.1,160.9,7.1z"/>
				<path class="st6" d="M166,3.5L166,3.5l0.1,0c0,0,0,0,0.1,0.1l0,0.1l0,0.1c0,0.1-0.1,0.2-0.2,0.2c0,0-0.2,0-0.4,0.1l-0.1,0.1
					l-0.1,0.1c0,0-0.1,0-0.1,0.1c0,0-0.1,0-0.1,0.1l-0.1,0.1l-0.1,0.1c0,0.1,0,0.1,0.1,0.1l0.1,0.1l0.2,0h0.1l0.2,0l0.1,0l0.1,0
					c0.1,0,0.1,0.1,0.1,0.2s0,0.2-0.1,0.2l-0.2,0l-0.3,0h-0.2l-0.1,0l-0.3-0.1c-0.2,0-0.3-0.1-0.4-0.2c-0.1-0.2-0.1-0.3-0.1-0.5
					l-0.1,0.1c0,0-0.1,0.1-0.1,0.1l-0.1,0.1L164,5l-0.3,0.2l-0.2,0.1l-0.2,0.1L163,5.6l-0.2,0.1l-0.1,0l-0.1,0h0
					c-0.1,0-0.2-0.1-0.2-0.2l0-0.1c0,0,0.1-0.1,0.1-0.1l0.1,0l0.2-0.1c0.3-0.1,0.6-0.2,0.8-0.4l0.2-0.1l0.2-0.1l-0.6,0l-0.2,0
					l-0.1,0l-0.1,0c-0.1,0-0.1-0.1-0.1-0.2c0-0.1,0.1-0.2,0.2-0.3l0.2,0l0.1,0h0.4c0.2,0,0.3,0,0.4,0.1c0,0,0.1,0.1,0.1,0.1l0.1,0.1
					l0.1,0.2l0.1-0.1l0.1-0.1c0,0,0,0,0,0c0,0,0,0,0.1-0.1l0.2-0.1l0.2-0.2l0.4-0.3C165.8,3.6,165.9,3.5,166,3.5z"/>
				<path class="st6" d="M165.7,7.8L165.7,7.8L165.7,7.8l0,0.1v0.1l0,0.1l0,0.1c0,0,0,0.1,0,0.1l-0.1,0.2l-0.1,0.1
					c-0.1,0.2-0.3,0.2-0.7,0.2c0,0-0.1,0-0.1,0c0,0-0.1,0-0.1,0c0,0-0.1,0-0.1,0s0,0-0.1,0l-0.2-0.1l-0.2-0.1l-0.1-0.2l0,0
					c0,0-0.1,0-0.2,0.1l-0.2,0.1l-0.2,0.2l0.2,0.1l0.1,0.1c0.1,0.1,0.2,0.2,0.3,0.3c0,0.1,0,0.2-0.1,0.2c0,0.1-0.1,0.2-0.2,0.3
					c0,0-0.1,0.1-0.3,0.1l-0.2,0.1l-0.3,0.1l-0.1,0l-0.3,0.1l-0.1,0l-0.1,0l-0.1,0L162,9.9c0,0-0.1,0-0.1-0.1l0-0.2
					c0-0.1,0-0.2,0-0.2l0.1-0.1l0.1,0h0.1l0.1,0l0.3,0.1l0.2,0c0.2,0,0.3,0,0.4-0.1l0.1-0.1l0-0.1c0-0.1-0.1-0.2-0.2-0.2l-0.2-0.1
					c-0.1,0-0.2-0.1-0.2-0.3c0,0,0-0.1,0.1-0.2l0.4-0.4l0.2-0.1l0.2-0.2l0.3-0.2c0.3-0.2,0.7-0.3,1-0.3l0.2,0c0.1,0,0.2,0.1,0.3,0.2
					l0.1,0.1c0,0,0,0.1,0.1,0.2L165.7,7.8z M165.2,7.9c0-0.1-0.1-0.2-0.2-0.3l-0.1,0c-0.1,0-0.1,0-0.2,0c-0.1,0-0.1,0.1-0.2,0.1
					l-0.1,0.1l-0.1,0.1l0.2,0.2c0,0,0.1,0.1,0.1,0.1l0.1,0l0.1,0c0.1,0,0.1,0,0.2-0.1l0.1,0l0-0.1L165.2,7.9z"/>
			</g>
			<path class="st6" d="M172.7,66.2h0.1h0.1h0.3l0.3,0.1l0.2,0.1c0.1,0.1,0.2,0.2,0.3,0.4v0.1l-0.1,0.1l-0.1,0.1l-0.2,0.2l-0.7,0.4
				l-0.6,0.3l-0.3,0.1h-0.2c-0.1,0-0.1,0-0.2-0.1l-0.1-0.1v0v-0.1c0,0,0-0.1,0.1-0.1l0.2-0.1l0.4-0.2l0.5-0.3l0.2-0.1l0.2-0.1v-0.1
				c0-0.1-0.1-0.2-0.4-0.2h-0.3l-0.3,0.1c-0.2,0-0.3-0.1-0.3-0.3c0-0.1,0-0.1,0.1-0.2l0.2-0.1l0.3-0.1H172.7z M175,66.2
				c0.2,0,0.3,0,0.4,0.1h0.1h0.1l0.2,0.1c0.1,0.1,0.2,0.2,0.2,0.3v0.1v0.1L176,67l-0.1,0.1l-0.1,0.1l-0.1,0.1l-0.4,0.3l-0.4,0.3
				l-0.3,0.2h-0.1h-0.1h-0.1c0,0-0.1,0-0.1-0.1L174,68c0,0,0-0.1,0-0.1c0,0,0-0.1,0.1-0.1l0.1-0.1l0.1-0.1l0.2-0.1l0.4-0.2l0.3-0.2
				l0.2-0.1c0,0,0-0.1,0.1-0.1c0-0.1,0-0.1-0.1-0.2h-0.2H175h-0.1h-0.1h-0.1h-0.1h-0.2h-0.1l0,0h-0.1c0,0,0-0.1,0-0.1v-0.1
				c0,0,0-0.1,0.1-0.1l0.1-0.1l0.1-0.1h0.1c0.1,0,0.2,0,0.2-0.1L175,66.2L175,66.2z"/>
			<path class="st6" d="M175.3,69.4h0.2c0.1,0,0.1,0.1,0.1,0.2v0.2c0,0.1,0,0.1-0.1,0.2l-0.3,0.1l0.1,0.2c0.1,0.1,0.1,0.2,0.1,0.3
				v0.2l0,0c0,0,0,0,0,0.1c0,0.2-0.2,0.4-0.4,0.5l-0.2,0.1h-0.1h-0.2h-0.2h-0.2l-0.4-0.1h-0.1l-0.2,0.2l-0.1,0.1l-0.1,0.1l-0.3,0.2
				l-0.1,0.1l-0.2,0.2l-0.2,0.1l-0.4,0.3h-0.1h-0.1l-0.2,0.1h-0.2c-0.2,0-0.3-0.1-0.4-0.2v-0.1v-0.1c0-0.1,0-0.1,0.1-0.2L171,72h0.1
				h0.4c0.1,0,0.2,0,0.3-0.1l0.5-0.3l0.2-0.1l0.3-0.2l0.2-0.1l0.1-0.1l0.1-0.1l0.1-0.1l-0.1-0.1v-0.1v-0.1c0-0.1,0.1-0.2,0.2-0.2
				h0.2h0.1l0.1,0.1c0.1,0,0.1,0.1,0.1,0.2v0.1l0,0l0.1,0.1l0.1,0.1h0.2h0.1h0.1c0.1,0,0.2-0.1,0.2-0.2l0.1-0.1v-0.1
				c0-0.1,0-0.1,0-0.2l-0.1-0.1l-0.1-0.1l-0.1-0.1l-0.2-0.1l-0.2-0.1v-0.1v-0.1c0,0,0-0.1,0.1-0.1l0.2-0.1h0.3h0.1l0.1-0.1l0.1-0.1
				L175.3,69.4L175.3,69.4z"/>
			<path class="st6" d="M180.2,67c0,0.4-0.3,0.8-0.9,1.1c-0.2,0.1-0.4,0.2-0.6,0.2c-0.6,0-0.8-0.2-0.8-0.7c0-0.4,0.2-0.7,0.5-0.9
				c0.3-0.2,0.6-0.4,1-0.4c0.1,0,0.2,0,0.3,0c0.1,0,0.2,0.1,0.3,0.1C180.1,66.6,180.2,66.8,180.2,67z M179.7,67.1
				c0-0.2-0.1-0.3-0.4-0.3c-0.4,0-0.7,0.4-0.8,0.8c0,0.1,0.1,0.2,0.3,0.2h0.1c0.2,0,0.4-0.1,0.5-0.2
				C179.6,67.4,179.7,67.2,179.7,67.1L179.7,67.1z"/>
			<path class="st6" d="M182.6,69.9l0.1-0.1l0.2-0.2c0.1,0,0.2-0.1,0.3-0.1h0.1c0,0,0.1,0,0.1,0.1c0,0,0,0,0.1,0.1c0,0,0,0.1,0,0.1
				c0,0,0,0.1,0,0.1l-0.1,0.1l-0.1,0.1l-0.1,0.1l-0.1,0.1l-0.2,0.1l-0.2,0.1l-0.1,0.1l-0.2,0.1h-0.2H182h-4.3l-0.1,0.1l-0.2,0.2
				l-0.2,0.2l-0.1,0.1l-0.2,0.1h-0.1h-0.1h-0.2c-0.1,0-0.2-0.1-0.2-0.3V71c0,0,0-0.1,0.1-0.1c0.1,0,0.2,0,0.2-0.1
				c0.1,0,0.2-0.1,0.2-0.1l0.1-0.1l0.1-0.1h-0.1c-0.1,0-0.1,0-0.2,0l-0.1-0.1l-0.1-0.1v-0.2c0-0.2,0.1-0.3,0.4-0.3h0.2l0,0h0.1
				c0,0,0.1,0,0.1,0c0.1,0,0.2,0.1,0.3,0.2l0.1,0.2h4h0.1h0.2c0.1,0,0.2-0.1,0.2-0.1l0.1-0.1L182.6,69.9z"/>
			<path class="st6" d="M187.5,66.6c0,0,0.1-0.1,0.2-0.1c0.2,0,0.3,0.1,0.3,0.3V67h-0.1c-0.3,0.2-0.7,0.5-1,0.7
				c-0.3,0.2-0.7,0.3-1,0.5h-0.1h-0.1c-0.1,0-0.1-0.1-0.2-0.2v-0.1c0-0.1,0.1-0.1,0.2-0.2c0.3-0.1,0.5-0.3,0.8-0.4l0.3-0.2l0.4-0.2
				L187.5,66.6z"/>
			<path class="st6" d="M183.8,72.2c-0.1,0-0.2,0-0.3-0.1c-0.1-0.1-0.1-0.2-0.1-0.3v-0.1c0-0.1,0-0.1,0.1-0.1c0.1,0,0.1-0.1,0.2-0.1
				c0.2,0,0.4-0.1,0.6-0.2l0.5-0.3c0.1,0,0.2-0.1,0.3-0.2l0.3-0.2l0.1-0.1l0.1-0.1l-0.1-0.1l-0.1-0.2l-0.1-0.1V70c0,0,0-0.1,0-0.1
				l0.1-0.1c0.1-0.1,0.1-0.1,0.2-0.1c0.1,0,0.2,0,0.3,0.1l0.1,0.1l0.1,0.1l0.4-0.2l0.4-0.2l0.2-0.1c0.1-0.1,0.3-0.1,0.4-0.1
				c0.1,0,0.1,0,0.2,0.1c0.1,0,0.1,0.1,0.1,0.2v0.1c0,0,0,0.1-0.1,0.1l-0.1,0.1h-0.1l-0.2,0.1l-0.2,0.1l-0.4,0.1h-0.2l0.3,0.1
				l0.2,0.1l0.1,0.1l0,0v0.1c0,0,0,0.1,0,0.1v0.1c0,0-0.1,0.1-0.1,0.1h-0.1H187h0l-0.6-0.3l-0.2,0.1L186,71l-0.3,0.2l-0.4,0.3
				l-0.7,0.4l-0.3,0.2l-0.3,0.1h-0.1L183.8,72.2z"/>
			<path class="st6" d="M104.1,101.2l-0.3,0.2l-0.2,0.1l-0.2,0.1l-0.3,0.2l-0.3,0.1l-0.3,0.1h-0.3h-0.5c0,0-0.1,0-0.1,0
				c-0.3-0.1-0.5-0.3-0.6-0.5c0-0.1,0-0.2,0-0.3c0-0.1,0-0.3,0.1-0.4l0.1-0.2l0.2-0.2l0.1-0.1l0.1-0.1l0.2-0.1l0.2-0.1h0.2h0.2h0.1
				l0.1,0.1l0.2,0.2l0.2-0.2l0.2-0.1h0.1h0.1h0.2h0.2c0.3,0,0.5,0.1,0.7,0.3l0.1,0.1c0,0,0,0.1,0,0.2v0.1
				C104.4,100.9,104.3,101,104.1,101.2z M102.3,100.7l-0.1-0.1h-0.1h-0.2l-0.1,0.1c-0.2,0.1-0.3,0.3-0.3,0.5c0,0.1,0.1,0.2,0.1,0.2
				l0.2,0.1l0.3-0.5L102.3,100.7z M103.9,100.5c0-0.1-0.1-0.2-0.3-0.2h-0.1c-0.1,0-0.2,0.1-0.3,0.1l-0.3,0.3l-0.2,0.2l-0.2,0.2
				l-0.1,0.1l-0.1,0.2l0.4-0.1h0.1h0.1l0.2-0.1l0.3-0.2l0.2-0.2C103.8,100.8,103.9,100.7,103.9,100.5z"/>
			<path class="st6" d="M105.1,96.4L105.1,96.4h0.2c0,0,0.1,0.1,0.1,0.1v0.1v0.1c0,0.2-0.1,0.2-0.2,0.2l-0.4,0.1l-0.2,0.1l-0.1,0.1
				l-0.1,0.1l-0.1,0.1l-0.1,0.1l-0.1,0.1c0,0.1,0,0.1,0.1,0.1l0.1,0.1h0.2h0.6h0.1c0.1,0,0.1,0.1,0.1,0.2c0,0.1-0.1,0.2-0.1,0.2
				h-0.2h-0.3h-0.2h-0.1l-0.3-0.1c-0.1,0-0.3-0.1-0.4-0.2c-0.1-0.1-0.1-0.3-0.1-0.5v0.1c0,0-0.1,0.1-0.1,0.1l-0.1,0.1l-0.2,0.2
				l-0.3,0.2l-0.2,0.1l-0.2,0.1l-0.2,0.1l-0.2,0.1h-0.1h-0.1c-0.1,0-0.2-0.1-0.2-0.2V98c0,0,0.1-0.1,0.1-0.1h0.2l0.2-0.1
				c0.3-0.1,0.5-0.2,0.8-0.4l0.2-0.1l0.2-0.2h-0.6h-0.2h-0.1H102c-0.1,0-0.2-0.1-0.2-0.2c0-0.1,0.1-0.2,0.2-0.2c0,0,0,0,0,0h0.2h0.6
				c0.1,0,0.3,0,0.4,0.1c0,0,0.1,0.1,0.1,0.1l0.1,0.1l0.1,0.2l0.1-0.1h0.1l0,0c0,0,0,0,0.1,0L104,97l0.2-0.2l0.4-0.3
				C104.8,96.5,104.9,96.4,105.1,96.4z"/>
			<path class="st6" d="M100,99.9L100,99.9c0.2,0,0.3,0.1,0.3,0.2c0,0,0,0.1-0.1,0.1l-0.1,0.1l-0.2,0.1l0.3,0.1h0.1h0.2
				c0.2,0,0.3,0.1,0.3,0.3v0.1l-0.1,0.1l-0.1,0.1l-0.1,0.1l-0.5,0.3l-0.1,0.1c0,0,0,0.1,0,0.1l0.5,0.1l0.4,0.1h0.2
				c0.2,0,0.3,0.1,0.3,0.2s0,0.3-0.2,0.3h-0.5h-0.2h-0.3h-0.1h-0.1l-0.7-0.2h-0.1l0,0l-0.2,0h-0.1c0,0,0,0-0.1-0.1
				c0,0,0-0.1,0.1-0.1l0.1-0.1l0.3-0.2l0.3-0.2l0.3-0.2l0.2-0.1h-0.3l-0.8-0.1c0,0,0,0-0.1,0v-0.1l0.1-0.1l0.2-0.2l0.3-0.2l0.3-0.1
				C99.8,100,99.9,99.9,100,99.9z"/>
			<path class="st6" d="M100.9,96.4h0.4c0.2,0,0.3,0,0.5,0.1c0.1,0.1,0.2,0.2,0.2,0.3c0,0.2-0.2,0.4-0.3,0.6l-0.2,0.2l-0.3,0.2
				c-0.1,0.1-0.2,0.1-0.3,0.2c-0.1,0.1-0.2,0.1-0.3,0.2l-0.4,0.2l-0.2,0.1h-0.2c0,0-0.1,0-0.1-0.1v-0.1v-0.1c0-0.1,0-0.1,0.1-0.2
				c0.1-0.1,0.1-0.1,0.2-0.1l0.2-0.1l0.2-0.1c0.1,0,0.2-0.1,0.2-0.1c0.3-0.1,0.6-0.4,0.8-0.7l0,0l0,0L101,97h-0.4h-0.1l-0.1,0.1
				h-0.1h-0.1h-0.1c0,0-0.1,0-0.1-0.1l0,0v-0.1c0-0.1,0-0.2,0.1-0.2c0.1-0.1,0.3-0.1,0.4-0.2C100.7,96.5,100.8,96.5,100.9,96.4z"/>
			<path class="st6" d="M97.8,99.4h0.1H98c0.1,0,0.1,0,0.1,0.1c0,0,0,0,0,0.1v0.1c0,0.1-0.1,0.2-0.2,0.3l-0.1,0.1h0.1l0.2,0.1
				c0,0,0.1,0.1,0.1,0.1c0,0,0,0.1,0,0.1c0,0.1-0.1,0.2-0.2,0.3l-0.5,0.3l0.2,0.1l0.2,0.1c0,0.1,0,0.1,0,0.2l0,0c0,0,0,0.1,0,0.1
				l-0.1,0.1l-0.3,0.2L97,102l-0.3,0.2l-0.7,0.5l-0.3,0.2l-0.2,0.1h-0.1h-0.1l-0.3,0.1c-0.1,0.1-0.2,0.1-0.4,0.1c0,0-0.1,0-0.1,0
				h-0.1c0,0,0,0-0.1-0.1c0,0-0.1-0.1-0.1-0.1c0,0,0-0.1,0-0.1c0-0.1,0.1-0.2,0.3-0.3h0.1h0.1h0.1h0.1h0.1l0.2-0.1l0.2-0.1l0.7-0.4
				l0.3-0.2l0.4-0.3l-0.3-0.2c-0.1-0.1-0.1-0.1-0.1-0.2c0,0,0-0.1,0-0.1l0.1-0.1l0.2-0.1l0.3-0.2l-0.1-0.1l-0.2-0.1l-0.1-0.1l0,0
				v-0.1v-0.1l0,0l0-0.4l0,0l0,0l0.2-0.1l0.1-0.1l0.1-0.1l0.1-0.1L97.8,99.4z"/>
			<path class="st6" d="M99.1,96.4L99.1,96.4h0.2c0,0,0.1,0.1,0.1,0.1v0.1v0.1c0,0.2-0.1,0.2-0.2,0.2L98.8,97l-0.2,0.1l-0.1,0.1
				l-0.1,0.1l-0.1,0.1l-0.1,0.1l-0.1,0.1c0,0.1,0,0.1,0.1,0.1l0.2,0.1h0.2H99h0.1c0.1,0,0.1,0.1,0.1,0.2c0,0.1-0.1,0.2-0.2,0.2h-0.2
				h-0.3h-0.2h-0.1L98,98.2c-0.1,0-0.3-0.1-0.4-0.2c-0.1-0.1-0.1-0.3-0.1-0.5l-0.1,0.1c0,0-0.1,0.1-0.1,0.1l-0.1,0.1l-0.2,0.2
				l-0.3,0.2l-0.2,0.1l-0.2,0.1l-0.2,0.1l-0.2,0.1h-0.1h-0.1c-0.1,0-0.2-0.1-0.2-0.2v-0.2c0,0,0.1-0.1,0.1-0.1h0.2l0.2-0.1
				c0.3-0.1,0.5-0.2,0.8-0.4l0.2-0.1l0.2-0.2h-0.6h-0.2h-0.1H96c-0.1,0-0.2-0.2-0.1-0.3c0,0,0,0,0,0c0-0.1,0.1-0.2,0.2-0.3h0.2h0.6
				c0.1,0,0.3,0,0.4,0.1c0,0,0.1,0.1,0.1,0.1l0.1,0.1l0.1,0.2l0.1-0.1h0.1l0,0h0.1L98,97l0.2-0.2l0.4-0.3
				C98.8,96.5,99,96.4,99.1,96.4z"/>
			<path class="st6" d="M93.7,99.8c0.1,0,0.2,0,0.3,0.1c0,0,0.1,0.1,0.1,0.1v0.1l-0.1,0.1H94h-0.1c0,0-0.1,0.1-0.1,0.2
				c0,0.1,0,0.2,0.1,0.2l0.1,0.1h0.1h0.1h0.1c0,0,0.1,0,0.1-0.1l0.1-0.1l0.1-0.1h0.2h0.1c0.1,0,0.1,0.1,0.1,0.1v0.1v0.1
				c0,0.1,0,0.2,0,0.3l-0.1,0.1l-0.2,0.1l-0.2,0.1l-0.5,0.3l-0.6,0.4l-0.3,0.2l-0.3,0.1l-0.3,0.1l-0.3,0.1l-0.2,0.1
				c-0.3,0-0.4-0.1-0.4-0.3c0-0.1,0-0.1,0.1-0.2l0.1-0.1c0,0,0.1,0,0.1,0h0.1H92h0.1c0.1,0,0.2-0.1,0.3-0.1l0.6-0.3l0.3-0.2l0.4-0.3
				c0,0,0-0.1,0-0.1h-0.1h-0.2c-0.1,0-0.2-0.1-0.2-0.2v-0.1v-0.1v-0.2v-0.1c0,0,0,0,0-0.1l0.1-0.2c0-0.1,0.1-0.2,0.2-0.2
				c0,0,0,0,0.1,0h0.1L93.7,99.8z"/>
			<path class="st6" d="M94.7,96.4h0.4c0.2,0,0.3,0,0.5,0.1c0.1,0.1,0.2,0.2,0.2,0.3c0,0.2-0.2,0.4-0.3,0.6l-0.2,0.2L95,97.9
				l-0.2,0.2c-0.1,0.1-0.2,0.1-0.3,0.2L94,98.4l-0.2,0.1h-0.2c0,0-0.1,0-0.1-0.1v-0.1v-0.1c0-0.1,0-0.1,0-0.2
				c0.1-0.1,0.1-0.1,0.2-0.1l0.2-0.1l0.2-0.1c0.1,0,0.2-0.1,0.2-0.1c0.3-0.1,0.6-0.4,0.7-0.7l0,0L95,97h-0.2h-0.4h-0.1l-0.1,0.1
				h-0.1h-0.1h-0.1c0,0-0.1,0-0.1-0.1l-0.1,0v-0.1c0-0.1,0-0.2,0.1-0.2c0.1-0.1,0.3-0.1,0.4-0.2C94.4,96.5,94.6,96.5,94.7,96.4z"/>
			<path class="st6" d="M92,99.7L92,99.7h0.2c0.1,0,0.1,0.1,0.2,0.2v0.2c0,0.1,0,0.1-0.1,0.2l-0.3,0.1l0.1,0.1
				c0.1,0.1,0.2,0.2,0.2,0.3v0.2c0,0,0,0,0,0.1c0,0.2-0.2,0.4-0.4,0.5l-0.2,0.1h-0.2h-0.2h-0.2h-0.2l-0.4-0.1h-0.1l-0.2,0.2
				l-0.1,0.1l-0.1,0.1l-0.3,0.2l-0.1,0.1l-0.2,0.2l-0.2,0.1l-0.4,0.3h-0.1h-0.1l-0.2,0.1H88c-0.2,0-0.3-0.1-0.4-0.2v-0.1v-0.1
				c0-0.1,0-0.1,0.1-0.2l0.1-0.1h0.1h0.4c0.1,0,0.2,0,0.3-0.1L89,102l0.2-0.1l0.3-0.2l0.2-0.1l0.1-0.1l0.1-0.1l0.1-0.1l-0.1-0.1V101
				v0c0-0.1,0.1-0.2,0.2-0.2h0.2h0.1l0.1,0.1c0.1,0,0.1,0.1,0.1,0.2v0.1l0,0l0.1,0.1h0.1h0.2h0.1h0.1c0.1,0,0.2-0.1,0.2-0.2l0.1-0.1
				v-0.1c0-0.1,0-0.1,0-0.2l-0.1-0.1l-0.1-0.1l-0.1-0.1l-0.2-0.1l-0.2-0.1v-0.1v-0.1c0,0,0-0.1,0-0.1l0.2-0.1h0.3h0.1l0.1-0.1
				l0.1-0.1h0.1L92,99.7z"/>
			<path class="st6" d="M89.7,96.5h0.1h0.1h0.3l0.3,0.1l0.2,0.1c0.1,0.1,0.2,0.2,0.3,0.4v0.1l-0.1,0.1l-0.1,0.1l-0.2,0.2L89.9,98
				l-0.6,0.3L89,98.4l-0.2,0.1c-0.1,0-0.1,0-0.2-0.1v-0.1v-0.1v-0.1c0,0,0-0.1,0.1-0.1l0.2-0.1l0.4-0.2l0.5-0.3l0.2-0.1l0.2-0.1
				v-0.1c0-0.1-0.1-0.2-0.4-0.2h-0.3l-0.3,0.1c-0.2,0-0.3-0.1-0.3-0.3c0-0.1,0-0.1,0.1-0.2c0-0.1,0.1-0.1,0.2-0.1l0.3-0.1L89.7,96.5
				z M92,96.5c0.2,0,0.3,0,0.4,0.1h0.1h0.1l0.2,0.1C93,96.8,93,96.9,93,97c0,0.1,0,0.1,0,0.2v0.1v0.1l-0.1,0.1l-0.1,0.1l-0.1,0.1
				l-0.1,0.1l-0.4,0.3l-0.4,0.3l-0.3,0.2h-0.2h-0.2h-0.1c0,0,0,0-0.1-0.1v-0.1c0,0,0-0.1,0-0.1c0,0,0-0.1,0.1-0.1l0.1-0.1l0.2-0.1
				l0.2-0.1l0.4-0.2l0.3-0.2l0.2-0.1c0,0,0.1-0.1,0.1-0.1c0-0.1,0-0.1-0.1-0.2H92h-0.1l-0.1,0.1h-0.1h-0.1h-0.2h-0.1l0,0l0,0
				c0,0,0-0.1,0-0.1v-0.1c0,0,0-0.1,0.1-0.1c0,0,0.1-0.1,0.2-0.1h0.1h0.1c0.1,0,0.2-0.1,0.2-0.1h0.2L92,96.5z"/>
			<path class="st6" d="M43.5,95.5c0.1,0,0.2,0.1,0.2,0.1v0.1v0.1c0,0,0,0,0,0.1L43.6,96h-0.1l-0.1,0.1l-0.1,0.1L43,96.4l-0.2,0.2
				l-0.4,0.3L42.1,97l-0.2,0.1c-0.1,0-0.2,0.1-0.2,0.1l-0.4,0.2h-0.1c-0.1,0-0.2,0-0.2-0.1c0-0.1-0.1-0.1-0.1-0.2V97c0,0,0,0,0-0.1
				h0.1l0.2-0.1l0.4-0.2l0.3-0.2l0.2-0.1l0.2-0.1l0.4-0.3l0.2-0.2l0.2-0.2l0.2-0.1C43.3,95.6,43.4,95.5,43.5,95.5z"/>
			<path class="st6" d="M40.1,94.2c-0.1,0-0.2,0-0.3-0.1c-0.1-0.1-0.1-0.2-0.1-0.3v-0.1c0-0.1,0-0.1,0.1-0.1c0.1,0,0.1-0.1,0.2-0.1
				c0.2,0,0.4-0.1,0.6-0.2l0.5-0.3c0.1,0,0.2-0.1,0.3-0.2l0.3-0.2l0.2-0.1l0.1-0.1L42,92.5l-0.1-0.2l-0.1-0.1v-0.1c0,0,0-0.1,0-0.1
				l0.2-0.1c0.1-0.1,0.1-0.1,0.2-0.1c0.1,0,0.2,0,0.3,0.1l0.1,0.1l0.1,0.1l0.3-0.2l0.4-0.2l0.2-0.1c0.1-0.1,0.3-0.1,0.4-0.1
				c0.1,0,0.1,0,0.2,0.1c0,0,0.1,0.1,0.1,0.2v0.1c0,0,0,0.1-0.1,0.1l-0.1,0.1h-0.1l-0.2,0.1l-0.2,0.1l-0.3,0.1h-0.2l0.3,0.1l0.2,0.1
				l0.1,0.1l0,0v0.1c0,0,0,0.1,0,0.1v0.1c0,0-0.1,0.1-0.1,0.1h-0.1h-0.2h-0.1l-0.6-0.3l-0.2,0.1l-0.2,0.2l-0.3,0.2l-0.4,0.3L41,93.7
				l-0.3,0.2L40.4,94h-0.2L40.1,94.2z"/>
			<path class="st6" d="M48.3,88.3l0.2-0.1h0.2c0.1,0,0.2,0,0.2,0.1c0.1,0,0.1,0.1,0.1,0.2c0,0.1,0,0.1-0.1,0.2h-0.1h-0.1l-0.2,0.1
				L47.8,89c-0.3,0.2-0.5,0.3-0.5,0.6c0,0.1,0,0.1,0.1,0.2h0.1h0.1h0.2H48h0.1h0.1h0.1h0.1c0.1,0,0.1,0,0.2,0l0.1,0.1
				c0,0,0,0.1,0,0.2c0,0.2-0.2,0.3-0.4,0.3H48h-0.2h-0.3l-0.3-0.1h-0.1l-0.1-0.1c-0.2-0.1-0.3-0.3-0.3-0.6c0-0.1,0-0.3,0.1-0.4
				L47,89l0.2-0.2l0.2-0.1l0.2-0.1l0.3-0.2L48.3,88.3z"/>
			<path class="st6" d="M48.5,92.4c0,0.2-0.2,0.5-0.7,0.8L47,93.8l-0.4,0.2c-0.4,0.3-0.8,0.5-1.3,0.6c-0.3,0-0.4-0.1-0.4-0.3
				c0-0.1,0-0.2,0.1-0.3c0.1,0,0.1,0,0.2,0l0,0h0.1h0.1l0,0h0.2h0.1l0.4-0.2l0.2-0.1l0.3-0.2l0.1-0.1c-0.3-0.1-0.5-0.3-0.5-0.5
				c0-0.3,0.1-0.5,0.3-0.7l0.2-0.1L47,92c0.2-0.1,0.5-0.2,0.7-0.2c0.2,0,0.5,0.1,0.7,0.3C48.5,92.2,48.5,92.3,48.5,92.4z M47.9,92.4
				c0-0.1-0.2-0.1-0.4-0.1c-0.2,0-0.4,0.1-0.5,0.3L47,92.6l-0.1,0.1v0.1c0,0.1,0,0.1,0.1,0.2h0.1h0.1h0.2l0.3-0.1
				C47.8,92.7,48,92.6,47.9,92.4C48,92.4,47.9,92.4,47.9,92.4z"/>
			<path class="st6" d="M52.8,95.5c0.1,0,0.2,0.1,0.2,0.1v0.1v0.1c0,0,0,0,0,0.1L52.9,96h-0.1l-0.1,0.1l-0.1,0.1l-0.2,0.2l-0.2,0.2
				l-0.4,0.3L51.4,97l-0.2,0.1c-0.1,0-0.1,0.1-0.2,0.1l-0.4,0.2h-0.1c-0.1,0-0.1,0-0.2-0.1c0-0.1-0.1-0.1-0.1-0.2V97
				c0,0,0-0.1,0-0.1h0l0.2-0.1l0.4-0.2l0.3-0.2l0.2-0.1l0.2-0.1L52,96l0.2-0.2l0.2-0.2l0.2-0.1C52.7,95.5,52.7,95.5,52.8,95.5z"/>
			<path class="st6" d="M53.2,92.4v0.2v0.1c0,0,0,0.1,0,0.1L53,93.1L53,93.1c-0.2,0.2-0.4,0.3-0.7,0.2h-0.1h-0.1H52h-0.1l-0.2-0.1
				l-0.2-0.1L51.5,93v-0.1c-0.1,0-0.1,0-0.2,0.1l-0.2,0.1L51,93.3l0.2,0.1l0.1,0.1c0.1,0.1,0.2,0.2,0.3,0.3c0,0.1,0,0.2-0.1,0.3
				c-0.1,0.1-0.1,0.2-0.3,0.3c-0.1,0.1-0.2,0.1-0.3,0.2l-0.2,0.1l-0.3,0.1h-0.1L50,94.7h-0.1h-0.1h-0.1l-0.1-0.1c0,0-0.1,0-0.1-0.1
				v-0.2c0-0.1,0-0.1,0-0.2h0.1h0.1h0.2l0.3,0.1h0.2c0.1,0,0.3,0,0.4-0.1l0.1-0.1v-0.1c0-0.1-0.1-0.2-0.2-0.2l-0.2-0.1
				c-0.1,0-0.2-0.2-0.2-0.3c0-0.1,0.1-0.2,0.1-0.2l0.4-0.4l0.2-0.2l0.3-0.2l0.3-0.2c0.3-0.2,0.6-0.3,1-0.3h0.2c0.1,0,0.2,0,0.3,0.1
				l0.1,0.1c0,0,0,0.1,0,0.2L53.2,92.4z M52.6,92.6c0-0.1-0.1-0.2-0.2-0.2c0,0,0,0,0,0h-0.1c-0.1,0-0.1,0-0.2,0
				c-0.1,0-0.1,0.1-0.2,0.1l-0.1,0.1l-0.1,0.1l0.2,0.2c0,0,0.1,0.1,0.2,0.1h0.1h0.1c0.1,0,0.1,0,0.2,0h0.1v-0.1L52.6,92.6z"/>
			<path class="st6" d="M57.5,88.7c0,0,0.1-0.1,0.2-0.1c0.2,0,0.3,0.1,0.3,0.3V89l0,0c-0.3,0.2-0.7,0.5-1,0.7
				c-0.3,0.2-0.7,0.3-1,0.5h-0.1h-0.1c-0.1,0-0.2-0.1-0.2-0.2V90v-0.1c0-0.1,0.1-0.2,0.2-0.2c0.3-0.1,0.5-0.3,0.8-0.4l0.3-0.2L57,89
				L57.5,88.7z"/>
			<path class="st6" d="M56.2,91.6h0.4c0.1,0,0.1,0,0.2,0l0.2,0.1c0.3,0.1,0.4,0.2,0.4,0.3c0,0.1,0,0.2-0.1,0.2l-0.1,0.1l-0.1,0.1
				l-0.2,0.2l-0.2,0.2l-0.2,0.2l-0.3,0.2c-0.3,0.2-0.6,0.4-0.9,0.5L54.9,94l-0.2,0.1l-0.2,0.1h-0.2h-0.1h-0.1L54,94.1L53.9,94l0,0
				c0-0.2,0-0.3,0.2-0.3h0.2h0.2h0.2h0.1h0.1l0.2-0.1l0.2-0.1l0.3-0.2l0.2-0.1l0.3-0.1l0.3-0.2l0.2-0.1l0.1-0.1l0.1-0.1
				c0.1,0,0.1-0.1,0.2-0.2v-0.1l0,0l0,0h-0.1h-0.1h-0.2h-0.2h-0.3l0,0h-0.1h-0.1h-0.1h-0.3c-0.1,0-0.2-0.1-0.2-0.2
				c0-0.1,0-0.1,0-0.2c0-0.1,0.1-0.1,0.2-0.1l0.2-0.1h0.2L56.2,91.6z"/>
			<path class="st6" d="M34.7,141.2h0.1h0.1l0.3,0.1l0.3,0.1l0.2,0.1c0.1,0.1,0.2,0.2,0.3,0.4v0.1l-0.1,0.1l-0.1,0.1l-0.2,0.2
				l-0.7,0.4l-0.6,0.3l-0.3,0.1l-0.2,0.1c-0.1,0-0.1,0-0.2-0.1v-0.1V143v-0.1c0,0,0-0.1,0.1-0.1l0.2-0.1l0.4-0.2l0.5-0.3l0.2-0.1
				l0.2-0.1v-0.1c0-0.1-0.1-0.2-0.4-0.2h-0.3l-0.3,0.1c-0.2,0-0.3-0.1-0.3-0.3c0-0.1,0-0.1,0-0.2c0.1,0,0.1-0.1,0.2-0.1l0.3-0.1
				L34.7,141.2z M37,141.2c0.2,0,0.3,0,0.5,0.1c0,0,0.1,0,0.1,0h0.1l0.2,0.1c0.1,0,0.1,0.1,0.1,0.1c0,0.1,0,0.1,0,0.2v0.1v0.1
				l-0.1,0.1l-0.1,0.1l-0.1,0.1l-0.1,0.1l-0.4,0.3l-0.4,0.3l-0.3,0.2h-0.2h-0.2h-0.1c0,0-0.1,0-0.1-0.1V143c0,0,0-0.1,0-0.1
				c0,0,0-0.1,0.1-0.1l0.1-0.1l0.2-0.1l0.2-0.1l0.4-0.2l0.3-0.2l0.2-0.1c0,0,0.1-0.1,0.1-0.1c0-0.1,0-0.1-0.1-0.1H37h-0.1h-0.1h-0.1
				h-0.2h-0.2h-0.1l0,0l0,0c0,0,0-0.1,0-0.1v-0.1c0,0,0-0.1,0-0.1c0,0,0.1-0.1,0.2-0.1l0.1-0.1h0.1c0.1,0,0.2-0.1,0.2-0.1L37,141.2
				L37,141.2z"/>
			<path class="st6" d="M37.3,144.4L37.3,144.4h0.2c0.1,0,0.1,0.1,0.2,0.2v0.2c0,0.1,0,0.1-0.1,0.2l-0.3,0.1l0.2,0.1
				c0.1,0.1,0.1,0.2,0.1,0.3v0.1c0,0,0,0,0,0.1v0.1c0,0.2-0.2,0.4-0.4,0.5l-0.2,0.1l-0.2,0.1h-0.2h-0.2h-0.2l-0.4-0.1h-0.1l-0.2,0.2
				l-0.1,0.1l-0.1,0.1l-0.3,0.2l-0.1,0.1l-0.2,0.2l-0.2,0.1l-0.5,0.3h-0.1h-0.1l-0.2,0.1h-0.2c-0.2,0-0.3-0.1-0.4-0.2v-0.1v-0.1
				c0-0.1,0-0.1,0.1-0.2l0.1-0.1h0.1h0.4c0.1,0,0.2,0,0.3-0.1l0.5-0.3l0.2-0.1l0.3-0.2l0.2-0.1l0.1-0.1l0.1-0.1l0.1-0.1l-0.1-0.1
				v-0.1v-0.1c0-0.1,0.1-0.2,0.2-0.2h0.2h0.1l0.1,0.1c0.1,0,0.1,0.1,0.1,0.1v0.1l0,0l0.1,0.1h0.1h0.2h0.1h0.1c0.1,0,0.2-0.1,0.2-0.2
				l0.1-0.1v-0.1c0-0.1,0-0.1,0-0.2l-0.1-0.1l-0.1-0.1l-0.1-0.1l-0.2-0.1l-0.2-0.1v-0.1v-0.1c0,0,0-0.1,0.1-0.1l0.2-0.1h0.3h0.1
				l0.1-0.1l0.1-0.1L37.3,144.4L37.3,144.4z"/>
			<path class="st6" d="M41.8,148.5c0.1,0,0.2,0.1,0.2,0.1v0.1v0.1c0,0,0,0,0,0.1L42,149h-0.1l-0.1,0.1l-0.1,0.1l-0.2,0.2l-0.2,0.1
				l-0.4,0.3l-0.3,0.2l-0.2,0.1c-0.1,0-0.1,0.1-0.2,0.1l-0.4,0.1h-0.1c-0.1,0-0.1,0-0.2-0.1c-0.1-0.1-0.1-0.1-0.1-0.2v0
				c0,0,0,0,0-0.1h0l0.2-0.1l0.4-0.2l0.3-0.1l0.2-0.1l0.2-0.1L41,149l0.2-0.1l0.2-0.1l0.2-0.1C41.7,148.6,41.8,148.5,41.8,148.5z"/>
			<path class="st6" d="M38.5,147.2c-0.1,0-0.2,0-0.3-0.1c-0.1-0.1-0.1-0.2-0.1-0.3v-0.1c0-0.1,0-0.1,0.1-0.1c0.1,0,0.1-0.1,0.2-0.1
				c0.2,0,0.4-0.1,0.6-0.1l0.5-0.3c0.1,0,0.2-0.1,0.3-0.1l0.3-0.2l0.1-0.1l0.2-0.1l-0.1-0.1l-0.1-0.1l0-0.1v-0.1c0,0,0-0.1,0-0.1
				l0.1-0.1c0.1-0.1,0.1-0.1,0.2-0.1c0.1,0,0.2,0,0.3,0.1h0.1l0.1,0.1l0.4-0.2l0.4-0.2l0.2-0.1c0.1-0.1,0.3-0.1,0.4-0.1
				c0.1,0,0.1,0,0.2,0.1c0.1,0,0.1,0.1,0.1,0.2v0.1c0,0,0,0.1-0.1,0.1l-0.2,0.1h-0.1l-0.3,0.1l-0.2,0.1l-0.3,0.1h-0.2l0.3,0.1
				l0.2,0.1l0.1,0.1l0,0v0.1c0,0,0,0,0,0.1v0.1c0.1,0.1,0,0.2,0,0.3c0,0,0,0,0,0h-0.1h-0.2l-0.6-0.3l-0.2,0.1l-0.2,0.1l-0.3,0.2
				l-0.4,0.3l-0.7,0.4L39,147l-0.3,0.1L38.5,147.2L38.5,147.2z"/>
			<path class="st6" d="M46.6,141.3l0.1-0.1h0.2c0.1,0,0.2,0,0.2,0.1c0.1,0,0.1,0.1,0.1,0.2c0,0.1,0,0.1-0.1,0.2h-0.1H47l-0.2,0.1
				l-0.6,0.3c-0.3,0.1-0.5,0.3-0.5,0.6c0,0.1,0,0.1,0.1,0.2h0.1H46h0.4h0.1c0,0,0,0,0.1,0h0.1h0.1c0,0,0.1,0,0.2,0l0.1,0.1
				c0,0,0,0.1,0,0.1c0,0.1-0.2,0.3-0.4,0.3h-0.2h-0.2H46l-0.3-0.1l-0.1-0.1l-0.1-0.1c-0.2-0.1-0.3-0.4-0.3-0.6c0-0.1,0-0.3,0.1-0.4
				l0.1-0.2l0.2-0.2l0.1-0.1l0.2-0.1l0.3-0.2L46.6,141.3z"/>
			<path class="st6" d="M46.3,144.2L46.3,144.2h0.2c0.1,0,0.1,0,0.1,0.1c0,0,0,0.1,0,0.1v0.1c0,0.1-0.1,0.2-0.2,0.3l-0.1,0.1h0.1
				l0.2,0.1c0,0,0.1,0.1,0.1,0.1c0,0,0,0.1,0,0.1c0,0.1-0.1,0.2-0.2,0.3l-0.5,0.3l0.2,0.1l0.2,0.1c0,0.1,0,0.1,0,0.2v0
				c0,0,0,0.1,0,0.1l-0.1,0.1l-0.3,0.2l-0.3,0.2l-0.3,0.2l-0.7,0.5l-0.3,0.2l-0.2,0.1h-0.1l-0.1,0.1l-0.3,0.1
				c-0.1,0-0.2,0.1-0.3,0.1c0,0-0.1,0-0.1,0h-0.1l-0.1-0.1c0,0,0-0.1-0.1-0.1c0,0,0-0.1,0-0.1c0-0.1,0.1-0.2,0.3-0.3h0.1h0.1h0.1
				h0.1h0.1l0.2-0.1l0.2-0.1l0.7-0.4l0.3-0.2l0.5-0.3l-0.3-0.2c-0.1-0.1-0.1-0.1-0.1-0.2c0,0,0-0.1,0-0.1l0.1-0.1l0.2-0.1l0.3-0.2
				l-0.1-0.1l-0.2-0.1l-0.1-0.1l0,0V145v-0.1l0,0l0.1-0.1l0,0l0,0l0.2-0.1l0.1-0.1c0.1,0,0.1,0,0.1-0.1l0.1-0.1L46.3,144.2z"/>
			<path class="st6" d="M38.1,171.3c0,0.4-0.3,0.8-0.8,1.1c-0.2,0.1-0.4,0.2-0.6,0.2c-0.6,0-0.8-0.2-0.8-0.7c0-0.4,0.2-0.7,0.5-0.9
				c0.3-0.2,0.6-0.4,1-0.4c0.1,0,0.2,0,0.3,0.1C37.9,170.7,38.1,171,38.1,171.3L38.1,171.3z M37.6,171.4c0-0.2-0.1-0.3-0.4-0.3
				c-0.2,0-0.4,0.1-0.5,0.3c-0.2,0.1-0.2,0.3-0.3,0.5c0,0.1,0.1,0.2,0.3,0.2h0.1c0.2,0,0.4-0.1,0.5-0.2
				C37.5,171.7,37.6,171.6,37.6,171.4z"/>
			<path class="st6" d="M40.5,174.3l0.1-0.1l0.2-0.1c0.1,0,0.2-0.1,0.2-0.1h0.1c0.1,0,0.1,0,0.1,0.1c0,0,0.1,0,0.1,0.1
				c0,0,0,0.1,0,0.1c0,0,0,0.1,0,0.1l-0.1,0.1l-0.1,0.1l-0.1,0.1l-0.1,0.1l-0.2,0.1l-0.2,0.1l-0.1,0.1l-0.2,0.1l-0.2,0.1H40h-4.3
				l-0.1,0.1l-0.2,0.1l-0.2,0.2l-0.1,0.1l-0.2,0.1h-0.1h-0.1h-0.2c-0.1,0-0.2-0.1-0.2-0.3v-0.1c0,0,0-0.1,0.1-0.1
				c0.1,0,0.2,0,0.2-0.1c0.1,0,0.2-0.1,0.3-0.1l0.1,0v-0.1h-0.1c-0.1,0-0.1,0-0.2,0l-0.1-0.1l-0.1-0.1v-0.2c0-0.2,0.1-0.3,0.3-0.4
				h0.2l0,0h0.1c0,0,0.1,0,0.1,0c0.1,0,0.2,0.1,0.3,0.2l0.1,0.2h4h0.1h0.2c0.1,0,0.2-0.1,0.2-0.1l0.1-0.1L40.5,174.3z"/>
			<path class="st6" d="M45.9,170.5L45.9,170.5h0.2c0,0,0.1,0.1,0.1,0.1v0.1v0.1c0,0.1-0.1,0.2-0.2,0.2c-0.1,0-0.2,0-0.4,0.1
				l-0.2,0.1l-0.1,0.1l-0.1,0.1l-0.1,0.1l-0.1,0.1l-0.1,0.1c0,0.1,0.1,0.1,0.1,0.1l0.2,0.1h0.7h0.1c0.1,0,0.1,0.1,0.1,0.2
				c0,0.1-0.1,0.2-0.2,0.2l-0.2,0.1h-0.3h-0.2H45l-0.3-0.1c-0.1,0-0.3-0.1-0.4-0.2c-0.1-0.1-0.1-0.3-0.1-0.5v0.1
				c0,0-0.1,0.1-0.1,0.1l-0.1,0.1l-0.2,0.1l-0.3,0.2l-0.2,0.1l-0.2,0.1l-0.2,0.1l-0.2,0.1h-0.1h-0.1c-0.1,0-0.2-0.1-0.2-0.2v-0.1
				c0,0,0.1-0.1,0.1-0.1h0.2l0.2-0.1c0.3-0.1,0.5-0.2,0.8-0.4l0.2-0.1l0.2-0.1h-0.6H43h-0.1h-0.1c-0.1,0-0.2-0.1-0.2-0.2
				c0-0.1,0.1-0.2,0.2-0.2c0,0,0,0,0,0h0.2h0.6c0.1,0,0.3,0,0.4,0.1c0,0,0.1,0.1,0.1,0.1l0.1,0.1l0.1,0.2l0.1-0.1h0.1h0l0.1-0.1
				l0.2-0.1l0.2-0.2l0.4-0.3C45.6,170.5,45.8,170.5,45.9,170.5z"/>
			<path class="st6" d="M43.8,173.9c0.1,0,0.2,0,0.3,0.1c0,0,0.1,0.1,0.1,0.1v0.1l-0.1,0.1h-0.1l-0.1,0.1c-0.1,0.1-0.1,0.3,0,0.4
				l0.1,0.1h0.1h0.1h0.1l0.1-0.1l0.1-0.1l0.1-0.1h0.2H45c0,0,0.1,0.1,0.1,0.1v0.1v0.1c0,0.1,0,0.1-0.1,0.1l-0.1,0.1l-0.2,0.1
				l-0.2,0.1l-0.5,0.4l-0.6,0.4l-0.3,0.2l-0.3,0.1l-0.3,0.1l-0.3,0.1l-0.2,0.1c-0.3,0-0.4-0.1-0.4-0.3c0-0.1,0-0.1,0.1-0.2
				c0,0,0-0.1,0.1-0.1c0,0,0,0,0.1,0h0.1H42h0.1c0.1,0,0.2-0.1,0.3-0.1l0.6-0.3l0.3-0.2l0.4-0.3c0,0,0-0.1,0-0.1h-0.1h-0.2
				c-0.1,0-0.2-0.1-0.2-0.1v-0.1v-0.1v-0.2v-0.1c0,0,0,0,0-0.1l0.1-0.2c0-0.1,0.1-0.2,0.2-0.2l0.1-0.1L43.8,173.9L43.8,173.9z"/>
			<path class="st6" d="M48.8,170.1C48.9,170.1,48.9,170.1,48.8,170.1l0.2-0.1c0.2,0,0.3,0.1,0.3,0.3c0,0.1,0,0.1-0.1,0.1
				c-0.3,0.3-0.7,0.5-1,0.7c-0.2,0.1-0.3,0.2-0.5,0.3c-0.1,0.1-0.3,0.1-0.5,0.2l-0.2,0.1c0,0-0.1,0-0.1,0c0,0-0.1-0.1-0.1-0.1v-0.1
				v-0.1c0,0,0,0,0-0.1c0,0,0-0.1,0-0.1v-0.1h0.1c0.3-0.1,0.5-0.2,0.8-0.4C48.1,170.7,48.5,170.4,48.8,170.1z M49.4,171
				c0,0,0.1-0.1,0.2-0.1c0.2,0,0.3,0.1,0.3,0.3c0,0,0,0.1,0,0.1c0,0,0,0,0,0.1c-0.3,0.2-0.7,0.5-1,0.7c-0.3,0.2-0.7,0.4-1,0.5h-0.1
				h-0.1c-0.1,0-0.2-0.1-0.2-0.1v-0.2c0-0.1,0.1-0.1,0.2-0.2c0.3-0.1,0.5-0.3,0.8-0.4l0.3-0.1c0.1-0.1,0.3-0.1,0.4-0.2
				C49.1,171.2,49.2,171.1,49.4,171L49.4,171z"/>
			<path class="st6" d="M48.3,173.9h0.4c0.1,0,0.1,0,0.2,0l0.2,0.1c0.3,0.1,0.4,0.2,0.4,0.4c0,0.1,0,0.2-0.1,0.2l-0.1,0.1l-0.1,0.1
				L49,175l-0.2,0.2l-0.2,0.1l-0.3,0.2c-0.3,0.2-0.6,0.4-0.9,0.5l-0.4,0.2l-0.2,0.1l-0.2,0.1h-0.2h-0.1h-0.1l-0.1-0.1l-0.1-0.1v-0.1
				c0-0.2,0.1-0.3,0.2-0.3h0.2h0.2h0.2h0.1h0.1l0.2-0.1l0.2-0.1l0.3-0.1l0.2-0.1l0.3-0.1l0.3-0.1l0.2-0.1l0.1-0.1l0.1-0.1
				c0.1,0,0.1-0.1,0.2-0.2v-0.1l0,0l0,0h-0.1h-0.1h-0.2h-0.2H48l0,0h-0.1h-0.1h-0.1h-0.4c-0.1,0-0.2-0.1-0.2-0.2c0-0.1,0-0.1,0-0.2
				c0-0.1,0.1-0.1,0.2-0.1l0.2-0.1l0.2-0.1L48.3,173.9z"/>
			<path class="st6" d="M74.1,190.3h0.1h0.1l0.3,0.1l0.3,0.1l0.2,0.1c0.1,0.1,0.2,0.2,0.3,0.4v0.1l-0.1,0.1l-0.1,0.1l-0.2,0.2
				l-0.7,0.4l-0.6,0.3l-0.3,0.1h-0.2c-0.1,0-0.1,0-0.2-0.1v-0.1v-0.1v-0.1l0.1-0.1l0.2-0.1l0.4-0.2l0.5-0.3l0.2-0.1l0.2-0.1V191
				c0-0.1-0.1-0.1-0.4-0.1h-0.3l-0.3,0.1c-0.2,0-0.3-0.1-0.3-0.3c0-0.1,0-0.1,0-0.2c0.1,0,0.1-0.1,0.2-0.1l0.3-0.1L74.1,190.3z
				 M76.4,190.3c0.2,0,0.3,0,0.4,0.1l0.1,0.1H77l0.2,0.1c0.1,0.1,0.2,0.2,0.2,0.4v0.1v0.1l-0.1,0.1l-0.1,0.1l-0.1,0.1l-0.1,0.1
				l-0.4,0.3l-0.4,0.3l-0.3,0.2h-0.1h-0.2h-0.1c0,0-0.1,0-0.1-0.1v-0.1c0,0,0-0.1,0-0.1c0,0,0-0.1,0.1-0.1l0.1-0.1l0.2-0.1l0.2-0.1
				l0.4-0.2l0.3-0.2l0.2-0.1c0,0,0-0.1,0.1-0.1c0-0.1,0-0.1-0.1-0.1h-0.2h-0.2h-0.1L76,191l0,0h-0.1h-0.2h-0.1l0,0l0,0
				c0,0,0-0.1,0-0.1v-0.1c0,0,0-0.1,0-0.1l0.2-0.1l0.1-0.1H76c0.1,0,0.2,0,0.2-0.1h0.2L76.4,190.3z"/>
			<path class="st6" d="M76.6,193.5L76.6,193.5h0.2c0.1,0,0.1,0.1,0.2,0.2v0.1c0,0.1,0,0.1-0.1,0.2l-0.3,0.1l0.2,0.1
				c0.1,0.1,0.1,0.2,0.1,0.3v0.1c0,0,0,0,0,0.1l0,0c0,0.2-0.2,0.4-0.4,0.5l-0.2,0.1l-0.2,0.1h-0.2h-0.2h-0.2l-0.4-0.1H75l-0.2,0.2
				l-0.1,0.1l-0.2,0.1l-0.3,0.2l-0.1,0.1l-0.3,0.1l-0.2,0.1l-0.4,0.3h-0.1H73l-0.2,0.1h-0.2c-0.2,0-0.3-0.1-0.4-0.2v-0.1v-0.1
				c0-0.1,0-0.1,0.1-0.2l0.1-0.1h0.1h0.4c0.1,0,0.2,0,0.3-0.1l0.5-0.3l0.2-0.1l0.3-0.2l0.2-0.1l0.1-0.1l0.1-0.1l0.1-0.1l-0.1-0.1
				v-0.1v-0.1c0-0.1,0.1-0.2,0.2-0.2h0.2H75l0.1,0.1c0.1,0,0.1,0.1,0.1,0.1v0.1l0,0l0.1,0.1l0.1,0.1h0.2h0.1h0.1
				c0.1,0,0.2-0.1,0.2-0.1l0.1-0.1v-0.1c0-0.1,0-0.1,0-0.2l-0.1-0.1l-0.1-0.1l-0.1-0.1l-0.2-0.1l-0.2-0.1V194V194c0,0,0-0.1,0.1-0.1
				l0.2-0.1h0.3h0.1l0.1-0.1l0.1-0.1h0.1L76.6,193.5z"/>
			<path class="st6" d="M81.5,191.1c0,0.4-0.3,0.8-0.9,1.1c-0.2,0.1-0.4,0.2-0.6,0.2c-0.6,0-0.8-0.2-0.8-0.7c0-0.4,0.2-0.7,0.5-0.9
				c0.3-0.3,0.6-0.4,1-0.4c0.1,0,0.2,0,0.3,0.1c0.1,0,0.2,0.1,0.3,0.1C81.4,190.7,81.5,190.9,81.5,191.1z M81,191.2
				c0-0.2-0.1-0.3-0.4-0.3c-0.2,0-0.4,0.1-0.5,0.3c-0.2,0.1-0.3,0.3-0.3,0.5c0,0.1,0.1,0.2,0.3,0.2h0.1c0.2,0,0.4-0.1,0.5-0.2
				C80.9,191.5,81,191.4,81,191.2L81,191.2z"/>
			<path class="st6" d="M79.4,193.7h0.2c0.1,0,0.2,0.1,0.2,0.1l0.1,0.1c0,0,0.1,0.1,0.1,0.1c0,0,0.1,0,0.1,0l0.1-0.1l0.1-0.1
				l0.1-0.1h0.1h0.1h0.1h0.1l0.1,0.1h0.1l0,0L81,194v0.1l0,0h0.1c0.1,0,0.2,0,0.3-0.1l0.1-0.1l0.1-0.1l0,0l0.1-0.1l0.2-0.1h0.1H82
				c0,0,0.1,0,0.1,0l0.1,0.1v0.1c0,0.1,0,0.2-0.1,0.3l-0.1,0.1c0,0-0.1,0.1-0.2,0.1l-0.2,0.1l-0.2,0.1l-0.2,0.1l-0.4,0.1
				c-0.1,0-0.2,0-0.3-0.1l-0.1-0.1l-0.1-0.1h-0.2c-0.1,0-0.1,0-0.2,0c0,0-0.1,0-0.1,0.1l-0.2,0.2l-0.4,0.3l-0.4,0.3l-0.1,0.1
				l-0.1,0.1l-0.2,0.1l-0.5,0.3l-0.4,0.2l-0.2,0.1l-0.2,0.1H77h-0.3h-0.1c-0.1-0.1-0.2-0.2-0.2-0.3c0-0.1,0.1-0.2,0.2-0.2h0.5
				c0.1,0,0.2-0.1,0.4-0.1l0.4-0.2l0.4-0.2l0.4-0.3l0.3-0.2l0.1-0.1c0,0,0-0.1,0-0.1l0-0.3V194c0,0,0,0,0-0.1l0.1-0.1
				C79.2,193.7,79.3,193.7,79.4,193.7z"/>
			<path class="st6" d="M86.1,190.3l0.2-0.1h0.2c0.1,0,0.2,0,0.2,0.1c0.1,0,0.1,0.1,0.1,0.2c0,0.1,0,0.1-0.1,0.2h-0.1h-0.1l-0.2,0.1
				l-0.6,0.3c-0.3,0.1-0.5,0.3-0.5,0.6c0,0.1,0,0.1,0.1,0.2h0.1h0.1h0.2h0.2h0.1H86l0.1-0.1h0.1c0,0,0.1,0,0.2,0l0.1,0.1
				c0,0,0,0.1,0,0.1c0,0.1-0.2,0.3-0.4,0.3h-0.2h-0.2h-0.2l-0.3-0.1h-0.1l-0.1-0.1c-0.2-0.1-0.3-0.3-0.3-0.6c0-0.1,0-0.3,0.1-0.4
				l0.1-0.2l0.2-0.2l0.2-0.1l0.2-0.1l0.3-0.2L86.1,190.3z"/>
			<path class="st6" d="M85.2,193.7h0.1h0.1h0.2c0.1,0,0.1,0,0.2,0l0.2,0.1c0.3,0.1,0.4,0.2,0.4,0.4c0,0.1,0,0.2-0.1,0.2l-0.1,0.1
				l-0.1,0.1l-0.2,0.2l-0.2,0.2l-0.2,0.1l-0.3,0.2c-0.3,0.2-0.6,0.4-0.9,0.5l-0.4,0.2l-0.2,0.1l-0.2,0.1h-0.2h-0.1h-0.1l-0.1-0.1
				l-0.1-0.1l0,0c0-0.2,0-0.3,0.2-0.3h0.2h0.2h0.2h0.1h0.1l0.1-0.1l0.2-0.1l0.3-0.1l0.2-0.1l0.3-0.1l0.3-0.1l0.2-0.1l0.1-0.1
				l0.1-0.1l0.2-0.2v-0.1l0,0l0,0h-0.1h-0.1h-0.2h-0.2l-0.3,0.1l0,0h-0.1h-0.1h-0.1h-0.3c-0.1,0-0.2-0.1-0.2-0.2c0-0.1,0-0.1,0-0.2
				c0.1-0.1,0.1-0.1,0.2-0.1l0.2-0.1h0.2L85.2,193.7z"/>
			<path class="st6" d="M90.6,197.6c0.1,0,0.2,0.1,0.2,0.1v0.1v0.1c0,0,0,0,0,0.1l-0.1,0.1h-0.1l-0.1,0.1l-0.1,0.1l-0.2,0.2
				l-0.2,0.1l-0.4,0.3l-0.3,0.2l-0.2,0.1c-0.1,0-0.1,0.1-0.2,0.1l-0.4,0.1h-0.1c-0.1,0-0.1,0-0.2-0.1c0-0.1-0.1-0.1-0.1-0.2V199
				c0,0,0-0.1,0-0.1l0,0l0.2-0.1l0.4-0.2l0.3-0.2l0.2-0.1l0.2-0.1l0.4-0.3l0.2-0.1l0.2-0.2l0.2-0.1
				C90.4,197.6,90.5,197.5,90.6,197.6z"/>
			<path class="st6" d="M90.2,193.7L90.2,193.7l0.2-0.1h0.2c0,0,0.1,0,0.1,0.1v0.1c0,0,0,0.1,0,0.1l-0.1,0.1l-0.2,0.2l-0.1,0.1
				l-0.1,0.1l-0.7,0.4l-0.7,0.4l-0.3,0.2l-0.3,0.1l-0.3,0.1c-0.1,0-0.2,0.1-0.3,0.1c-0.1,0-0.2,0-0.3-0.1l-0.1-0.1v-0.1
				c0,0,0-0.1,0-0.1v-0.1c0,0,0,0,0-0.1c0-0.1,0.1-0.1,0.2-0.2l0.1-0.1h0.1h0.2h0.1c0.2,0,0.4,0,0.5-0.1l0.4-0.2l0.8-0.5l0.6-0.4
				L90.2,193.7z"/>
			<path class="st6" d="M143.4,79.8h0.2h0.1c0.1,0.1,0.2,0.2,0.2,0.3v0.2v0.1c0,0,0,0.1,0,0.1v0.1l-0.1,0.2l-0.1,0.2l-0.1,0.2
				l-0.1,0.2c-0.1,0.1-0.2,0.3-0.3,0.3h-0.1h-0.1h-0.1H143l-0.1-0.1v-0.1c0,0,0-0.1,0-0.1c0,0,0-0.1,0.1-0.1l0.1-0.2l0.1-0.2
				l0.2-0.4l0.1-0.2c0,0,0,0,0-0.1l0,0h-0.1c-0.1,0-0.2,0-0.2,0.1l-0.2,0.2l-0.4,0.3l-0.7,0.6l-0.3,0.2l-0.3,0.2l-0.2,0.1l-0.2,0.1
				h-0.1h-0.1h-0.1c-0.1,0-0.1-0.1-0.1-0.2v-0.1c0,0,0-0.1,0-0.1v-0.1c0,0,0.1-0.1,0.1-0.1h0.2h0.2h0.1l0.2-0.1l0.4-0.2l0.2-0.1
				l0.2-0.2l0.2-0.2l0.2-0.2l0.2-0.2L143,80C143.1,79.9,143.3,79.8,143.4,79.8z"/>
			<path class="st6" d="M143.4,76.3h0.3h0.1c0.2,0,0.3,0,0.5,0.1c0.1,0.1,0.2,0.2,0.2,0.3c0,0.2-0.2,0.4-0.3,0.6l-0.2,0.2l-0.3,0.2
				c-0.1,0.1-0.2,0.1-0.2,0.2l-0.3,0.2l-0.5,0.2l-0.2,0.1h-0.2c0,0-0.1,0-0.1-0.1v-0.1v-0.1c0-0.1,0-0.1,0-0.2
				c0.1-0.1,0.1-0.1,0.2-0.1l0.2-0.1l0.2-0.1l0.2-0.1c0.3-0.1,0.6-0.4,0.8-0.7l0,0h-0.1h-0.2H143h-0.1h-0.1l-0.1,0.1h-0.1h-0.1
				c0,0-0.1,0-0.1-0.1l-0.1-0.1v-0.1c0-0.1,0-0.2,0.1-0.2c0.1-0.1,0.3-0.1,0.4-0.2C143,76.3,143.2,76.3,143.4,76.3z"/>
			<path class="st6" d="M140.4,79.7h0.1l0,0c0,0,0.1,0,0.1,0h0.1l0.1,0.1v0.1V80c0,0,0,0.1-0.1,0.1l-0.1,0.1l-0.3,0.2l-0.4,0.3
				l-0.4,0.2l-0.6,0.3l-0.2,0.1c-0.1,0.1-0.2,0.1-0.4,0.2h-0.1l-0.2,0.1H138c0,0-0.1,0-0.1-0.1c-0.1,0-0.1-0.1-0.1-0.1v-0.1
				c0-0.1,0-0.1,0.1-0.2L138,81l0.1-0.1l0.1-0.1v-0.2v-0.5c0-0.1,0-0.1,0-0.2l0,0h0.1h0.1h0.1c0.1,0,0.1,0,0.1,0.1
				c0.1,0.1,0.1,0.2,0.1,0.3v0.1v0.1l-0.1,0.2l-0.1,0.3l-0.1,0.2h0.1l0.1-0.1l0.2-0.1l0.3-0.2l0.5-0.3l0.1-0.1L140,80l0.3-0.2
				L140.4,79.7z"/>
			<path class="st6" d="M140.1,76.3h0.3h0.1c0.2,0,0.3,0,0.5,0.1c0.1,0.1,0.2,0.2,0.2,0.3c0,0.2-0.2,0.4-0.3,0.6l-0.2,0.2l-0.3,0.2
				c-0.1,0.1-0.2,0.1-0.3,0.2c-0.1,0.1-0.2,0.1-0.3,0.2l-0.4,0.2l-0.2,0.1H139c0,0-0.1,0-0.1-0.1v-0.1v-0.1c0-0.1,0-0.1,0.1-0.2
				c0.1-0.1,0.1-0.1,0.2-0.1l0.2-0.1l0.2-0.1c0.4-0.1,0.8-0.4,1-0.8l0,0l0,0h-0.2H140h-0.1h-0.1l-0.1,0.1h-0.1h-0.1
				c0,0-0.1,0-0.1-0.1l-0.1-0.1v-0.1c0-0.1,0-0.2,0.1-0.2c0.1-0.1,0.3-0.1,0.4-0.2C139.9,76.3,140,76.3,140.1,76.3z"/>
			<path class="st6" d="M136.1,79.7c0.1,0,0.2,0,0.3,0.1c0,0,0.1,0.1,0.1,0.1v0l0,0l-0.1,0.1h-0.1h-0.1c0,0-0.1,0.1-0.1,0.2
				c0,0.1,0,0.2,0.1,0.2l0.1,0.1h0.1h0.1h0.1l0.1-0.1l0.1-0.1l0.1-0.1h0.2h0.1c0.1,0,0.1,0.1,0.1,0.1v0.1v0.1c0,0.1-0.1,0.1-0.1,0.2
				l-0.1,0.1l-0.1,0.1l-0.2,0.1l-0.6,0.3l-0.6,0.4l-0.3,0.2l-0.3,0.1l-0.3,0.1l-0.3,0.1l-0.2,0.1c-0.3,0-0.4-0.1-0.4-0.3
				c0,0,0,0,0.1-0.1c0,0,0-0.1,0.1-0.1c0,0,0.1,0,0.1,0h0.1h0.1h0.1c0.1,0,0.2-0.1,0.3-0.2l0.6-0.3l0.3-0.2l0.4-0.3c0,0,0-0.1,0-0.1
				h-0.1h-0.2c-0.1,0-0.2-0.1-0.2-0.1v-0.1v-0.1v-0.2v-0.1c0,0,0,0,0-0.1l0.1-0.2c0-0.1,0.1-0.2,0.2-0.2c0,0,0,0,0.1,0h0.1V79.7z"/>
			<path class="st6" d="M138.1,76.8c0,0,0.1-0.1,0.2-0.1c0.2,0,0.3,0.1,0.3,0.3v0.1l0,0c-0.3,0.2-0.7,0.5-1,0.7
				c-0.3,0.2-0.7,0.3-1,0.5l-0.1,0.1h-0.1c-0.1,0-0.1-0.1-0.2-0.2V78c0-0.1,0-0.1,0.2-0.2c0.3-0.1,0.5-0.3,0.8-0.4l0.3-0.2l0.4-0.2
				L138.1,76.8z"/>
			<path class="st6" d="M134.3,80.1l0.1-0.1l0.2-0.2c0.1,0,0.2-0.1,0.3-0.1h0.1c0,0,0.1,0,0.1,0.1c0,0,0,0,0.1,0.1c0,0,0,0.1,0,0.1
				c0,0,0,0.1,0,0.1l-0.1,0.1l-0.1,0.1l-0.1,0.1l-0.1,0.1l-0.2,0.1l-0.2,0.1l-0.1,0.1l-0.2,0.1H134h-0.1h-4.3l-0.1,0.1l-0.2,0.2
				l-0.2,0.2l-0.1,0.1l-0.2,0.1h-0.1h-0.1h-0.2c-0.1,0-0.2-0.1-0.2-0.3v-0.1c0,0,0-0.1,0.1-0.1c0.1,0,0.2,0,0.2-0.1
				c0.1,0,0.2-0.1,0.2-0.1l0.1-0.1l0.1-0.1h-0.1c-0.1,0-0.1,0-0.2,0l-0.1-0.1l-0.1-0.1v-0.1v-0.1c0-0.2,0.1-0.3,0.3-0.3h0.2l0,0h0.1
				c0,0,0.1,0,0.1,0c0.1,0,0.2,0.1,0.3,0.2l0.1,0.2h4h0.1h0.2c0.1,0,0.2-0.1,0.2-0.1L134.3,80.1L134.3,80.1z"/>
			<path class="st6" d="M132,77.2c0,0.4-0.3,0.8-0.9,1.1c-0.2,0.1-0.4,0.2-0.6,0.2c-0.6,0-0.8-0.2-0.8-0.7c0-0.4,0.2-0.7,0.5-0.9
				c0.3-0.2,0.6-0.4,1-0.4c0.1,0,0.2,0,0.3,0C131.8,76.5,132,76.8,132,77.2L132,77.2z M131.5,77.2c0-0.2-0.1-0.3-0.4-0.3
				c-0.4,0.1-0.7,0.4-0.8,0.8c0,0.1,0.1,0.2,0.3,0.2h0.1c0.2,0,0.4-0.1,0.5-0.2C131.4,77.6,131.5,77.4,131.5,77.2L131.5,77.2z"/>
			<path class="st6" d="M187.8,42.2h2v6.6c0,1.5,0.1,3.3,2.7,3.3s2.7-1.8,2.7-3.3v-6.6h2v7.3c0,2.9-1.9,4.4-4.7,4.4
				s-4.7-1.5-4.7-4.4L187.8,42.2z"/>
			<path class="st6" d="M206.5,53.5h-7.6c0-1.7,1-3.3,2.5-4.2c1.4-1,3.3-1.9,3.4-3.7c0.1-1-0.5-1.9-1.5-2c-0.1,0-0.3,0-0.4,0
				c-1.4,0-1.9,1.2-1.9,2.8h-1.8c0-2.5,1.4-4.3,3.8-4.3c1.8-0.2,3.4,1.2,3.6,3c0,0.1,0,0.3,0,0.4c0,1.8-1.2,2.9-2.5,3.8
				s-2.6,1.6-3,2.6h5.4L206.5,53.5z"/>
			<path class="st6" d="M144.9,86.9h2v6.6c0,1.5,0.1,3.3,2.7,3.3s2.7-1.8,2.7-3.3v-6.6h2v7.3c0,2.9-1.9,4.4-4.7,4.4
				s-4.7-1.4-4.7-4.4L144.9,86.9z"/>
			<path class="st6" d="M159,91.7c1.2,0,2.5-0.4,2.5-1.8c0-0.9-0.7-1.6-1.6-1.6c0,0-0.1,0-0.1,0c-1.1,0.1-1.9,1-1.9,2.1
				c0,0,0,0.1,0,0.1h-1.8c-0.1-2,1.5-3.7,3.5-3.8c0.1,0,0.1,0,0.2,0c1.7,0,3.5,1,3.5,3c0.1,1.1-0.6,2-1.6,2.4l0,0
				c1.3,0.3,2.1,1.5,2,2.8c0,2.1-1.8,3.4-3.9,3.4c-2,0.2-3.7-1.3-3.9-3.3c0-0.2,0-0.4,0-0.6h1.8c-0.2,1.1,0.5,2.2,1.6,2.4
				c0.2,0,0.3,0,0.5,0c1.1,0.1,2-0.7,2.1-1.7c0-0.1,0-0.2,0-0.3c0-1.7-1.5-2-2.9-1.9L159,91.7z"/>
			<path class="st6" d="M30,107.8h2v6.6c0,1.5,0.1,3.3,2.7,3.3s2.7-1.8,2.7-3.3v-6.6h2v7.3c0,2.9-1.9,4.4-4.7,4.4S30,118,30,115.1
				V107.8z"/>
			<path class="st6" d="M48.7,116.6h-1.4v2.6h-1.7v-2.6h-4.8v-1.8l4.8-6.7h1.7v7.1h1.4V116.6z M42.2,115.1h3.4v-4.9l0,0L42.2,115.1z
				"/>
			<path class="st6" d="M179.4,0h2v6.6c0,1.5,0.1,3.3,2.7,3.3s2.7-1.8,2.7-3.3V0h2v7.3c0,2.9-1.9,4.4-4.7,4.4s-4.7-1.4-4.7-4.4
				L179.4,0z"/>
			<path class="st6" d="M190.7,2.1c1.5,0,3-0.5,3.3-1.9h1.5v11.1h-2V3.5h-2.7V2.1z"/>
		</g>
		<g id="Lines">
			<polyline class="st7" points="235.5,208.5 152.1,204.2 52.1,199.1 0,196.4 			"/>
			<line class="st7" x1="64.5" y1="42.3" x2="204.6" y2="94.8"/>
			<line class="st7" x1="52.7" y1="60.8" x2="153.4" y2="203.7"/>
			<line class="st7" x1="60.8" y1="27.3" x2="213.6" y2="26.5"/>
		</g>
	</g>
</g>
</svg>
