<svg xmlns="http://www.w3.org/2000/svg" viewBox="0 0 235.55 210.7"><defs><style>.cls-1{fill:#396287;}.cls-1,.cls-2{fill-rule:evenodd;}.cls-2,.cls-3{fill:#f1f2f2;}.cls-4,.cls-5,.cls-8{fill:none;}.cls-4{stroke:#004417;stroke-width:0.95px;}.cls-6{font-size:9.46px;font-family:A_Randhoo-Aa, A_Randhoo Aa;}.cls-6,.cls-7{fill:#383838;}.cls-8{stroke:#1a1a18;stroke-miterlimit:22.93;stroke-width:0.56px;stroke-dasharray:5.13 2.57;}</style></defs><title>AA</title><g id="Layer_2" data-name="Layer 2"><g id="Layer_1-2" data-name="Layer 1"><g id="U1"><path class="cls-1" d="M149.37,1.74a6.11,6.11,0,0,1,4.28,1.67,10.11,10.11,0,0,0-2.2-1.07c-.19-.07-.3.51,0,.82.91.85,3.26,2.08,2,2.93l0,.1-.09,0c.24.62-4.92,5-6.54,4.3h0a5.76,5.76,0,0,1-2.24-1.79c-.5-.55-.61-1.37,0-3.55a3.23,3.23,0,0,1,1.73-1.56c1-.18,2-1,1.65-1.54l-.42,0a6.56,6.56,0,0,1,1.85-.26"/><path class="cls-2" d="M151.49,3.16c-.34-.31-.23-.89,0-.82,1.76.61,3.94,1.94,4.55,3.78a3.34,3.34,0,0,1,.32.39,4.07,4.07,0,0,1-.74,2.72l.07-.1a5.56,5.56,0,0,1-2,2l0,0c-.27.2-.54.39-.83.58s-.48.08-.71.11l.2,0a8.31,8.31,0,0,1-2.91.51c-3.68,0-6.82-1.33-6.69-5.11.12-3.41,2.09-5.34,5.15-5.13.32.55-.65,1.36-1.65,1.54a3.23,3.23,0,0,0-1.73,1.56c-.61,2.18-.5,3,0,3.55a5.76,5.76,0,0,0,2.24,1.79h0c1.62.71,6.78-3.68,6.54-4.3l.09,0a1.17,1.17,0,0,1,0-.11c1.27-.85-1.08-2.08-2-2.93"/></g><g id="U2"><path class="cls-3" d="M170.62,43.71l-.36-.34a10,10,0,0,0-1.52-1.24,3.91,3.91,0,0,0-2.18-.34,26.22,26.22,0,0,1-3.66-.35,11.81,11.81,0,0,0-4.33.54c-11.53,2.88-18.33,6.34-16.13,15a21.27,21.27,0,0,0,1.25,3.54,18.12,18.12,0,0,0,5.49,6.78,16.7,16.7,0,0,0,3.89,2.23,12.17,12.17,0,0,0,2.12.68c.77.17,1.41.43,2.17.64a11.59,11.59,0,0,0,1.84.24c1,.09,2.05-.05,3.07,0a2.82,2.82,0,0,0,2.16-.52,6.48,6.48,0,0,1,2.11-1.11,6.5,6.5,0,0,0,2-.93,10.86,10.86,0,0,0,3-3.21,19.2,19.2,0,0,0,2.77-8.49c.44-4.56-.36-9.78-3.78-13.07"/><path class="cls-1" d="M144.24,55.84a13,13,0,0,1,2.56-8.1c.59-1.91,5.92-2.47,7.48-3.42a6.24,6.24,0,0,1,1.45-.32l1.83-.49c1.41-.36,2.81-.73,4.23-1,2.38-.47,5.5-1,7.69.36a3.59,3.59,0,0,1,1.33,1.43c.49,1,.14,1.31-.91,1.26a13,13,0,0,0-2.86.06,12.74,12.74,0,0,0-3.09.45,8.69,8.69,0,0,0-1.82,1.37,3.32,3.32,0,0,1-1.66.65c-1.65.38-2.55,1.45-4,2.22a8,8,0,0,0-2.17,1.58,5.8,5.8,0,0,0-1.47,2.2,14.34,14.34,0,0,0-.29,2.93c0,.46.08,1.56-.58,1.64s-.2-.62-.18-1a9.25,9.25,0,0,0-.07-1.39,11.42,11.42,0,0,1,0-2.41,1.76,1.76,0,0,1,.51-1.3c.5-.58.45-1.06.76-1.71a6.91,6.91,0,0,1,2.67-2.32,5.9,5.9,0,0,1,2.66-.65,24.49,24.49,0,0,0,2.66-1c.93-.25,1.32-1,2.15-1.42,1.09-.5,2.19-.31,3.31-.49.14,0,2.07-.67,2.11-.6-.34-.65-.76-.48-1.41-.42l.37-.5c-.48-1.31-13.83,3.54-15.41,5l-.28,0c-4.52,6.17-6.6,15.59,2.29,18.68,2.94.24,4.63,2.28,8.11,1.7,1.13,0,1.07.21,1.41,1.25l-.21.73c-4.93.95-15.81-3.67-18.15-9.32a15.2,15.2,0,0,1-.77-3.31l.08-.09c-.18-.63-.13-1.84-.35-2.31m14.62-8.22-.77.28Z"/><path class="cls-1" d="M150.56,66.94l.16.11-.06,0Z"/><path class="cls-1" d="M167.24,67.48c.67,2.67-2.93,3.16-2.92.75,0-.67-.2-1.78.58-1.89.09-.16.35-.52.54-.57.49-.13.51.29.7.52s.46.19.77.41.27.52.33.78"/><path class="cls-1" d="M168.26,67.46c-.29.31-.2,1.1.4.93.09-.57-.15-.69-.52-1Z"/><path class="cls-1" d="M170,67.34c-.59.07-1.2-.77-1.58-1.18-.15-.18-1.38-1.44-.44-1.28,0,0-.1,0,0,0,.89.1,1.29-1.54,1.41-2.18s.64-2.39,1.52-2.3c.11-.27,0-.9.18-1.06.32-.31.81.11,1.14-.38a2.51,2.51,0,0,0,.16-1.37,10.16,10.16,0,0,1,.3-1.34c.4,0,.29.86.29,1.22,0,.52.23,1,.18,1.52.19,0,.32.09.52.08a2.68,2.68,0,0,1-.24,2.38,7,7,0,0,0-.74,2.5c-.22.83-.9,1.27-1.35,1.93a10.45,10.45,0,0,1-1.37,1.64Z"/><path class="cls-1" d="M173.07,50.36c-1.12-.18-.91,1.34-.51,1.93a1.74,1.74,0,0,1,.46,1.13c0,.5,0,1,0,1.52.32.13.57.08.81.24s.25.4.63.47c.23-.42-.14-.94-.22-1.35s-.05-1-.13-1.51-.23-2.24-.93-2.48Z"/><path class="cls-1" d="M160.91,57.59c-.21,0-.34.07-.34.29a3.42,3.42,0,0,1,1.45.49,2.27,2.27,0,0,1,.61,1.15,1.11,1.11,0,0,0,.26,0s0,0,0,0c1.32.09.7-.76-.05-1.06-.58-.23-1.25-.94-1.84-1Z"/></g><g id="U3"><path class="cls-3" d="M153,193.14l.05.57c0,2.86-.51,5.72-.77,8.56L63,75.38c.51-1.21,1.06-2.47,1.48-3.8,2-5.26,6.11-8.12,9.16-12.19,1-1.59,1.38-3.12,2.63-4.77a5.34,5.34,0,0,1,2.06-1.11c3.16-.8,6.42-.4,9.5-.72l.38,0h.21l.19,0a12.16,12.16,0,0,1,4.88.7,32.06,32.06,0,0,1,7,2.75c1.74,1.25,3.69,2,5.55,3.82a12.2,12.2,0,0,1,1.64,1.76c1.41,1.61,2.73,5,4.79,5.62,1.67.65,3.47.29,5,2.16l.21.38c.51,1.63.25,3.25.72,5a6,6,0,0,0,1.44,2.5,12.88,12.88,0,0,1,1.53,1.68l.23.32a27,27,0,0,0,5.54,8.88,3.63,3.63,0,0,0,.74.55l2.39,1c2.42,1.06,2.27,1.27,3.57,2.92l0,.18c1.65,3.35,2.29,5.3,5.72,7.69a19.4,19.4,0,0,1,4.26,3.46,5.92,5.92,0,0,1,1.93,4.2,17.19,17.19,0,0,1-.53,3.66,5.75,5.75,0,0,0-.33,3.18l1.1,3.14a42.3,42.3,0,0,1,1.61,4.58l.21.47c.13.57.34,1.06.47,1.61.19.7.4,1.36.53,2.12l-.07.08c.75,2.44,0,5,2.08,7.36l.4.32a4.9,4.9,0,0,1,1.34,1.78c.83,1.87-1.48,3.77-.83,5.64a4.84,4.84,0,0,0,1.13,1.84l1,1.07.09.12a2.74,2.74,0,0,1,.68.91l.1.22.17.31c.6,2-.31,3.91.72,5.84l0,.44,0,.26,0,.17.13.63c-.51,2.27-2.29,4.49-2.69,6.7l-.18.4a15.23,15.23,0,0,0-.4,3.48l0,.59-.08,0,.06.91,0,3.75c.11,4.09-1.12,8-.4,12.09.23.74.3,1.44.46,2.12l.09.42a14.12,14.12,0,0,1,.63,3.35A33.52,33.52,0,0,1,153,193.14Z"/><path class="cls-1" d="M119.67,78.29c3,2.56,3.66,4.24,3.81,5.69l-.37.2-.46-.07a5.74,5.74,0,0,1-.71-.68l-.17-.23-.55-1.15-.09-.12-.15-.18-.08-.32h-.08l-.44-.76-.24-.14-.18-.24-.63-.69-.49-.64-.13-.14-.11-.35c.15-.15,0-.27.1-.38l.74.14c.07,0,.16,0,.23.06"/><path class="cls-1" d="M81.51,69l0,.36a2.07,2.07,0,0,1-.56.59l-.19.23c-.68.68-.74,1.42-1.29,2l-.15,0-.06-.53a27.91,27.91,0,0,1-2.59,2.06c-.82.62-1.8,1-2.58,1.66a4.1,4.1,0,0,1-1.17.65,2.32,2.32,0,0,0-1.34,2c0,.24.22.51.22.75,0,.59-.09.34-.41.55-.82.51,0,.46.19,1.25.21,1-2.48,1-4.34.78l-2.55-3.64c.34-1,.68-2,1.06-3.1a3,3,0,0,1,.38-1l0-.13.24-.57a34.18,34.18,0,0,1,2-3.2l.31-.32.66-1.15a20.42,20.42,0,0,1,1.47-1.9c.61-.58,1.25-1.38,1.73-1.77l.28-.16v-.09l.17-.11,1.48-1.1v-.1l.68-.58.7-.48.45-.39.44-.27.24-.19.21-.17.29-.21.34-.26.51-.32.19-.19.15,0,.45-.38.53-.42.44-.28.21-.17c.15-.09.49-.19.64-.08.49.33-.21.69-.47.89a1.93,1.93,0,0,0-.59,1c-.55,1.53-2,2.5-3.18,3.39l0,.09c-1.45,1.14-2.27,2.37-3.5,3.46l-.19.25c-.87,1.06-1.21,2-2.08,3l-.55.79-1,1.54a1.9,1.9,0,0,1-.27.45v.15l-.32.7v.17l-.26,1.33-.53.7a5.86,5.86,0,0,0,.07.73,4.75,4.75,0,0,1-.05,1.25c-.17.7-1,1-.87,1.8a1.64,1.64,0,0,0,1.15.08c.34-.15.34-.48.63-.68s1.45-.15.85-.7c-.12-.12-1.35-.16-.76-.59.32-.25,1.08.21,1.48.09,1.13-.32.64-2,1.49-2.72.44-.36,1.48-.51,1.48-1.29v-.06l.3-.3,1-.3.29-.23.07,0a7.5,7.5,0,0,1,.32-1.21s.08-.17.16-.19l.22,0,.51.37h.19c.12-.39.08-.39-.21-.71v-.16l.53-.19c.75.16.64-.37,1.34-.6a2.72,2.72,0,0,0,.64-.29c.49-.39,1.4-1.13,1.88-1.6l.56-.16.36.18Z"/><path class="cls-1" d="M82,82.3A7,7,0,0,1,84.48,79l.14-.08.38-.32a5.67,5.67,0,0,1,.7-.28,6.63,6.63,0,0,1,1.15-.25h.24l1.08.1.11.11.27,0,.59.21.2.2a2.4,2.4,0,0,1,.4,1.33,2.49,2.49,0,0,1-.68,1.86l-.16.13-.65.55a4.6,4.6,0,0,1-1.68.77c-.58.13-1.12.3-1.67.37a5.08,5.08,0,0,1-1.77.11l-.62-.21-.33-.39-.06-.15c-.13-.22,0-.42-.14-.66Z"/><path class="cls-1" d="M99.32,74.41l.14-2,.12-1,.1-.46.15-.24.08-.23.15-.28a2,2,0,0,1,2.11-.69l.59.26.14.23.09.19.28.33,1,1.31.59.45.45.58v0l.08.27.2.35.13.53a8.69,8.69,0,0,1,.5,2.12l.15.32,0,.77c.15.25.09.58.17.83v.28a11.12,11.12,0,0,1,.08,2.31l-.32.85L106,82l-.19.07a2.74,2.74,0,0,1-1.09.25A3.41,3.41,0,0,1,103.1,82l-.37-.32a4,4,0,0,1-1.1-1l-.34-.34-.72-.88-.13-.3-.11-.15-.17-.11-.14-.38-.09-.2a1.36,1.36,0,0,1-.21-.83l-.11-.24c0-.38-.07-.66-.07-1v-.34l-.15-.78-.1-.65Z"/><path class="cls-1" d="M116.36,83.78l-.16.6-.11,0-.42.09-.35-.08-.16-.08a2.41,2.41,0,0,1-1-.81l-.26-.34-.09-.23-.2-.25-.44-.75-.35-.53-.29-.32-.18-.11c-.16-.22-.09-.42-.13-.62v-.1l.17-.75.19-.28h.24a3.64,3.64,0,0,1,1.17.8c.47.33.59.72.9,1.06a12.25,12.25,0,0,1,1.46,2.66"/><path class="cls-1" d="M113,73.63h0a.73.73,0,0,1,.26-.09l.35.16.2.19c.35.25.71.61,1.06.82l.93.89a.94.94,0,0,1,.18.6.7.7,0,0,1-.18.58.9.9,0,0,1-.81-.09c-.34-.31-.8-.61-.87-1.11a4.69,4.69,0,0,0-.61-1.15c-.18-.17-.68-.5-.51-.8"/><path class="cls-1" d="M83.35,66c.75-.93,2-1.58,1.17-4.58-.23-.56-.46-1.9-1.17-2.08a.75.75,0,0,0-.67.09c-.11,0-.23.1-.35.29l0,.08c0,.49-.11,1-.17,1.47l0,.14a5.35,5.35,0,0,0,.38,2.17l.08.2.09.38-.33,1.2,0,0,0,.07a1.69,1.69,0,0,1,.27.13,1.37,1.37,0,0,1,.2.13A2.34,2.34,0,0,0,83,66l.38,0"/><path class="cls-1" d="M97.47,59.67c.41-.24,1.22.18,1.47.49a2.88,2.88,0,0,1,.59.76c.1.15.1.33,0,.39-.44.3-.72,0-1-.11-.1-.07-.21-.12-.32-.19-.41-.36-1-.71-.75-1.34"/><rect class="cls-3" x="99.4" y="93.22" width="7.52" height="7.52" rx="0.66" transform="translate(-38.36 101.35) rotate(-45)"/><path class="cls-3" d="M145.51,118.63a1.4,1.4,0,1,1-1.39-1.39,1.39,1.39,0,0,1,1.39,1.39"/><path class="cls-4" d="M145.51,118.63a1.4,1.4,0,1,1-1.39-1.39A1.39,1.39,0,0,1,145.51,118.63Z"/><path class="cls-3" d="M150.71,146.2a1.39,1.39,0,1,1-1.39-1.39,1.4,1.4,0,0,1,1.39,1.39"/><path class="cls-5" d="M142.82,190.29c.1-.08.25,0,.42.1h0l0,0,0,0h0c.59.14,1.16.35,1.74.43l1.55.14a9.2,9.2,0,0,0,2-.24c.61-.14,1.15-.46,1.74-.06l.43.4.17.19.19,0,0-.16c.06-.09.12-.19.19-.28l.34-.08.21.22a3.33,3.33,0,0,1,.1.55l0,.46c0,.92,0,1.82,0,2.74a.83.83,0,0,1-.47,1c-1,.32-2.06-.22-3.11-.26a3.93,3.93,0,0,1-1.29-.37,2.25,2.25,0,0,1-.93-1.13c.09-.78.61-1.46.62-2.2l0-.06-.28,0a.87.87,0,0,1-.45.2l-.63-.28h0l-.42.12c-.23.08-.29,0-.5-.12a1.06,1.06,0,0,0,0,.19,3.17,3.17,0,0,0,.57.86,2.31,2.31,0,0,1,.1.28.53.53,0,0,1,.13.41l-.15.25a.77.77,0,0,1-.66-.14l-.57-.56-.22-.39a3,3,0,0,1-.55-.87c-.48-1-.39-1.17-.18-1.36m.45.12,0,0Zm0,.06,0,0Zm.06.07a.1.1,0,0,1,0,.05A.1.1,0,0,0,143.38,190.54Zm.08.09,0,0Zm.07.11a.21.21,0,0,1,0,.06A.21.21,0,0,0,143.53,190.74Zm.09.14.08.14Zm.1.18,0,0Zm0,.08a.05.05,0,0,1,0,0A.05.05,0,0,0,143.75,191.14Zm.05.09h0a0,0,0,0,1,0,0,0,0,0,0,0,0,0Zm0,.06a.08.08,0,0,1,0,.05A.08.08,0,0,0,143.82,191.29Zm.23,1.43h0Zm0,0Zm0,0h0Zm0,0h0Zm0,0h0Zm0,0h0Zm0,0h0m0,0h0Zm0,0h0m0,0h0Zm-.06,0,0,0Zm-.06,0h0Zm0,0,0,0h0Zm-.07-.05,0,0Zm0,0s0,0,0,0S143.57,192.55,143.59,192.56Zm.2-1.36a0,0,0,0,0,0,0"/><path class="cls-1" d="M152.41,198.18c0,.11-.09.21-.25.28l0,.12a15.87,15.87,0,0,1-.59,2.63l-2.08-3,.26-.1c.06-.15.33-.28.7-.36s.55-.26.8-.3c.4-.08.81-.27,1.13,0a.62.62,0,0,1,0,.51C152.37,198.05,152.41,198.1,152.41,198.18Z"/><path class="cls-1" d="M152.14,198h0"/><path class="cls-2" d="M97.62,101.9c-.66,1.26.61,3.46.17,3.66a1.37,1.37,0,0,0,.1.41,5.25,5.25,0,0,0,1.66,1.26l1.3.29,1.28.06c.56,0,1.05,0,1.62-.09a3.66,3.66,0,0,0,1.43-.44,2,2,0,0,0,.91-.76c.15-.31.22-.69.6-.93l.31-.19.3-.4a1.21,1.21,0,0,0-.13-.58c-.56-1.39-.32-2.74-.46-4.13l0-.13-.35-.29v0a3.3,3.3,0,0,0-2.94-.19c-1,.33-1.89.63-2.85,1l-.19.13c-.57,1-2.58,1.07-2.72,1.33"/><path class="cls-1" d="M121.2,101l-1,0L120,101l-1.12-.79a1.68,1.68,0,0,1-.34-.54l-.15-.38v-.36l.17-1,.41-1.12.26-.25a1.79,1.79,0,0,1,.89-.28l1,.11.89.48.13.22.43.47c0,.5.3,1,0,1.51l-.26.58-.08.15-.11.35Z"/><path class="cls-2" d="M89.06,104h.42l.1,0,.22-.12.38-.12a5.73,5.73,0,0,1,1.16-.13l.44,0,.22,0,0,0,0,0,.31-.07,0,0,.3-.09c.31-.09.6-.22.92-.33h.64a2.19,2.19,0,0,1,1.09,1.07l.16.23s0,0,0,.06a1.84,1.84,0,0,1,.67,1.39,1.1,1.1,0,0,1,0,.26l0,0,.12.27.09.2.43.68a15.79,15.79,0,0,1,.8,1.42c0,.1.06.2.08.3s0,.27,0,.4a2.35,2.35,0,0,0,0,.26l-.12.24-.25.35a3.18,3.18,0,0,0-.32.16,4.46,4.46,0,0,1-2.54.74,2.18,2.18,0,0,1-1.56-.59l-.51-.53-1.35-1.54-.42-.32c-.09-.08-.09-.25-.29-.35l-.39-.38v-.07a5.16,5.16,0,0,1-.7.08L90,108l.13.19v.35H90l-.19,0-1.73-.85c-.25-.14-.51-.29-.77-.42a4.84,4.84,0,0,1-1.09-.9l-.21-.19a1.09,1.09,0,0,0,0-.17c0-.07,0-.14-.07-.22l0-.3,0-.08c0-.1.07-.21.11-.31s.34-.4.52-.59l.24-.17.14,0,.51-.1a5.14,5.14,0,0,1,1.64-.25"/><path class="cls-1" d="M91.66,89.75a2.41,2.41,0,0,1,.92-1.34,2.78,2.78,0,0,1,.68-.48,1.69,1.69,0,0,1,.54-.24,2,2,0,0,1,1.3-.21,8.13,8.13,0,0,1,2.24,1.34,10.9,10.9,0,0,1,1,1.15,1.4,1.4,0,0,1,0,.88l-.22.32a4.35,4.35,0,0,1-1.22.56,10.18,10.18,0,0,1-1.72.31,12.17,12.17,0,0,1-1.82,0,4.43,4.43,0,0,1-1.11-.68,1.86,1.86,0,0,1-.67-1.64"/><path class="cls-1" d="M97.51,106.46l.14-.28h.11c.36,0,.58.19.91.49a1.6,1.6,0,0,1,.44.81v.2l-.18.22,0,0c-.47.06-.94-.39-1.22-.81l-.2-.57Z"/><path class="cls-1" d="M98.1,86a1.46,1.46,0,0,1,1.23,0l.28.12a3.6,3.6,0,0,1,1.33.86,1.78,1.78,0,0,1,.37,1.44.69.69,0,0,1-.49.34,1.06,1.06,0,0,1-.89,0,8.34,8.34,0,0,1-1.45-1c-.28-.29-.59-.65-.55-1A.79.79,0,0,1,98.1,86"/><path class="cls-1" d="M116.36,83.78l.19-1.25.24-.4,0-.08.24-.27.22-.12.28,0a3.21,3.21,0,0,1,1.8.59c1.24,1.25,1.31,2.45,2.22,3.67l.27.38a10.18,10.18,0,0,0,2,2.37l.2.19a2.94,2.94,0,0,1,.69,3.47,1,1,0,0,0-.27.19l-.28.2a2,2,0,0,1-.68.23l-1.28,0-1.33-.62a9.65,9.65,0,0,1-1.49-1.61l-.17-.26-.2-.23-.43-.5c-.33-.72-.84-1.4-1.16-2.14l-.09-.23a2.88,2.88,0,0,1-.35-1l-.37-1.11-.17-.36Z"/><path class="cls-1" d="M116.43,98.11,116,98c-.54,0-.82-.25-1.22-.79l-.15-.11V97l-.17-.23-.35-.73V96l0-.14,0-.28,0-.7a.81.81,0,0,1,.84-.48l.65.1a2,2,0,0,1,1.53,1,3.57,3.57,0,0,1,.32.7v.42c-.27.46-.2.89-.65,1.36l-.27.12s-.22,0-.22,0"/><path class="cls-1" d="M120.37,94.68l.07-.12h.12a1.85,1.85,0,0,1,1,.68l.07.07.17.22,0,0-.11.34a1.5,1.5,0,0,1-1-.48l-.25-.27,0-.11-.09-.31Z"/><path class="cls-1" d="M132.57,106l.14-.08.28,0,0-.05a5.11,5.11,0,0,1,2,.74l.25.18,1.05.73.32.29v.12a14.68,14.68,0,0,1,1.87,3.36l.17.39a3.55,3.55,0,0,1,.09.47l-.08.46-.08.17h0l-.19,0a1.13,1.13,0,0,1-.47-.57l-.09-.23-.24-.66-.25-.46-.24-.79a5.6,5.6,0,0,0-1.42-2l-.48-.35-.3-.22a6.85,6.85,0,0,0-1.73-.83l-.42-.26-.2-.33Z"/><path class="cls-1" d="M134,104.14l.17-.16.53.07c.16.11.32.27.52.21l.06,0,.31-.09H136l.44.38-.07.41v.44l-.27.42-.15.09-.4-.19-.84-.29-.17-.24-.08-.38-.39-.3,0-.27Z"/><path class="cls-1" d="M138,105.61l.12-.08.2,0a8,8,0,0,1,1,1l.24.3.36.37.31.47.35.6.28.39.51.73v0l.17.23a5.27,5.27,0,0,1,.68,1.11l.09.23a3.38,3.38,0,0,1,.24.72l0,.23,0,.2-.11.19-.19.28h-.05l-.39-.19-.2-.37-.22-.92-.71-1.5a5.31,5.31,0,0,0-.75-1l-.84-1.14-.19-.23c-.32-.49-1-1-1-1.52Z"/><path class="cls-1" d="M146.67,180.18h0m0,0Zm0,0h0m-.06,0v0Zm0,0h0m0,0,0,0Zm-.06-.07v0Zm0,0h0Zm0,0h0Zm.1-2.22h0Zm0,0h0Zm0,0h0Zm0,0h0Zm0,0,.1,0Zm.11,0Zm0,0h0Zm0,0h0Zm0,0h0Zm.06,0h0Zm0,0h0Zm0,0h0l-.42-.1a6.72,6.72,0,0,0-.92,0,6.24,6.24,0,0,0-1.29.16l-.38.13c-.08.1-.17,0-.11.1l0,.09.12.35.17.22a2.32,2.32,0,0,0,.57.56l.19.19a5.68,5.68,0,0,0,1.52.9l.26,0a.7.7,0,0,0,.49.1h.9l1.24,0c.84-.23,1.44.53,2.15.33l.2-.08,0-.58c-.12-.46.14-.86-.15-1.35l-.23-.16a1.61,1.61,0,0,1-1.37-.69,4.88,4.88,0,0,0-1.9,0h-.24A6.1,6.1,0,0,0,147,177.67Z"/><path class="cls-1" d="M131.09,151.61H131a2.61,2.61,0,0,1-.66-.63,2.11,2.11,0,0,1-.38-.85l-.16-.4c-.09-.55-.19-1-.29-1.54l-.07-1.13.19-1.09a2,2,0,0,0,.23-.51l.14-.3.29-.34.35-.31c.33-.28.68-.23,1-.37a3.06,3.06,0,0,1,2.59,1.34l.41.61.08.12c.91,1.16,1.23,2.36,2.21,3.49h.19a.75.75,0,0,1,.41.53,1.67,1.67,0,0,1,0,1,6.11,6.11,0,0,1-.36.87l-.2.19-.63.13c-.32,0-.58-.08-.91-.1-.93-.53-1.78,0-2.63,0l-1,0a1.61,1.61,0,0,1-.68-.64"/><path class="cls-1" d="M129.83,124.31l0,0-.19-.16c-.38.09-.8,0-1.1.49l0,.27.1.55-.09.74,0,.11a29.63,29.63,0,0,0,.73,3.78l.12.57c0,.47.17.87.23,1.31l.12.37a1.16,1.16,0,0,0,.32.52.68.68,0,0,0,.19,0,.8.8,0,0,0,.69.54l.61,0c.35-.14.66,0,1-.19h.14l.38-.24.25-.17.29-.2a1.72,1.72,0,0,0,.39-1c0-.11,0-.22,0-.33s0-.22,0-.33a7.9,7.9,0,0,0-.81-2.93,1.46,1.46,0,0,1-.07-.19c-.11-.26-.21-.51-.32-.75l-.24-.5a5.21,5.21,0,0,0-1.63-2.27.67.67,0,0,0-1.07,0"/><polyline class="cls-1" points="129.78 124.38 129.79 124.36 129.78 124.38"/><path class="cls-1" d="M129.72,124.43h0l.05-.05-.05.05"/><polyline class="cls-1" points="130.19 132.7 130.19 132.69 130.19 132.7"/><path class="cls-1" d="M140.41,119.18a.28.28,0,0,0,0,.09.28.28,0,0,1,0-.09"/><path class="cls-1" d="M140.42,119.13s0,0,0,0,0,0,0,0"/><path class="cls-1" d="M140.51,118.8l0,0v0s0,0,0-.08"/><path class="cls-1" d="M140.51,118.79h0"/><path class="cls-1" d="M140.53,118.76v0"/><path class="cls-1" d="M140.59,118.64h0a0,0,0,0,1,0,0"/><path class="cls-1" d="M140.69,120.09l0,0,0,0"/><path class="cls-1" d="M140.67,120.07h0"/><polyline class="cls-1" points="140.63 120 140.64 120.01 140.63 120"/><polyline class="cls-1" points="140.63 119.99 140.63 119.99 140.63 119.99"/><polyline class="cls-1" points="140.62 119.98 140.62 119.98 140.62 119.98"/><polyline class="cls-1" points="140.61 119.96 140.62 119.97 140.61 119.96"/><polyline class="cls-1" points="140.6 119.95 140.6 119.96 140.6 119.95"/><path class="cls-1" d="M140.55,119.86s0,0,0,0,0,0,0,0"/><polyline class="cls-1" points="140.54 119.85 140.55 119.86 140.54 119.85"/><path class="cls-1" d="M140.54,119.83h0"/><path class="cls-1" d="M146.61,119.94a2.22,2.22,0,0,0-.08-.8,6.79,6.79,0,0,0-.64-1.74,2.93,2.93,0,0,0-2.78-2.13,2.8,2.8,0,0,0-1.35.35l-.12,0,0,0a2.81,2.81,0,0,0-.67.57.35.35,0,0,0-.24,0l0,0c-.16.16-.16.08-.24.27s-.08.17-.08.25a3.68,3.68,0,0,0-.08.82,3.84,3.84,0,0,0-.07.69,3,3,0,0,0,2.93,3,2.89,2.89,0,0,0,2.31-1.19.88.88,0,0,0,.92.09h0c.09-.09.17-.19.25-.28"/><path class="cls-1" d="M116.67,123h.08l.06-.29a1.32,1.32,0,0,0,.08-.44,4.85,4.85,0,0,0,0-2.45,13.26,13.26,0,0,0-1.3-2l-.17-.13a2.63,2.63,0,0,0-2.47-.42h-.05l-.23.14-.34.26a14,14,0,0,1-1.27,1.15c0,.1,0,.19,0,.28a.45.45,0,0,0,0,.11c.22,1,.4,1.9.66,2.84,0,.06,0,.12,0,.18,0,1,1.19,1.87,2.65,1.87a2.84,2.84,0,0,0,2.43-1.13"/><path class="cls-1" d="M121.4,158.45h0"/><path class="cls-1" d="M121.44,158.42s0,0,0,0,0,0,0,0"/><path class="cls-1" d="M121.56,158.33l0,0,0,0"/><polyline class="cls-1" points="121.58 158.32 121.57 158.33 121.58 158.32"/><path class="cls-1" d="M121.83,158a1.48,1.48,0,0,1-.23.3v.06a1.06,1.06,0,0,1-.1.17L116.18,151a3.28,3.28,0,0,1,.67-.17,4.7,4.7,0,0,1,.53,0c.24.07.41.39.66.47s.3.43.45.64a7.17,7.17,0,0,1,.87,1.06,10.25,10.25,0,0,1,1.8,2.5c0,.06,0,.11,0,.17s.11.36.17.53A9.34,9.34,0,0,1,121.83,158Z"/><path class="cls-1" d="M118.47,151.89l0,0,0,0"/><polyline class="cls-1" points="117.74 151.3 117.75 151.3 117.74 151.3"/><polyline class="cls-1" points="117.72 151.29 117.72 151.29 117.72 151.29"/><path class="cls-1" d="M117.61,151.26h0"/><path class="cls-1" d="M122.09,131.11a1.75,1.75,0,0,0-.71-.55l0,0c-1.1-1-3.15,1.46-2.95,3.7s1.33,3.7,2.95,3.7c1.19,0,1.17.48,2.41.58a1.29,1.29,0,0,0,.92-.6c.06-.29.13-.58.2-.86a12,12,0,0,0-.81-2.68,18.16,18.16,0,0,0-2-3.27"/><path class="cls-1" d="M125.5,122.45l.19-.12h0c.09,0,.14-.13.24-.16a1.59,1.59,0,0,1,1.81.45c.25.39.13.55-.2.78l-.16.08a2.69,2.69,0,0,1-.74.14c-.26,0-.49-.13-.75-.16a1,1,0,0,1-.42-.43,1.42,1.42,0,0,1,0-.58"/><path class="cls-1" d="M139.4,184.38a.9.9,0,0,1,1.16,0l.05.09a.36.36,0,0,1-.19.27,1.78,1.78,0,0,1-.7.13.43.43,0,0,1-.31-.18.29.29,0,0,1,0-.3"/><path class="cls-1" d="M139.9,161.85l.13-.17.64,0,1.93.16.26.19v.05l.06.19-.11.19-.36.05a14.41,14.41,0,0,0-2-.08l-.28-.12-.36-.26v-.12Z"/><path class="cls-1" d="M140.6,182.27c0-.14.38-.21.51-.15l.49.21c.08.08.07.14.17.23a.23.23,0,0,1,0,.2.26.26,0,0,1-.14.19.71.71,0,0,1-.38,0,1.28,1.28,0,0,1-.49-.21.53.53,0,0,1-.17-.24v-.2"/><path class="cls-1" d="M139.42,138.27c.66.07,2.37.54,2.52,1.27a.58.58,0,0,1-.18.48.93.93,0,0,1-.46.12c-.72.07-1.13-.36-1.77-.95a1.68,1.68,0,0,1-.3-.6c0-.22,0-.29.19-.32"/><path class="cls-1" d="M141.51,185.09a1.64,1.64,0,0,1,.87-.81,5.64,5.64,0,0,1,1.23-.2l1.29-.5c1.7-.09,3.33-.57,5-.39a.63.63,0,0,1,.45.26,3.42,3.42,0,0,0,.13.34l.09.44c0,.2.22.24.3.09,0-.43,0-.66.18-.85h0a.45.45,0,0,1,.44.06l.09.14c.09.8.24,1.57.33,2.36l0,0v.36l0,.53,0,.24a.84.84,0,0,1-.52.67l-.5.13a7,7,0,0,1-4.83-.23l-1.51-.77a11.36,11.36,0,0,0-2.31-1.16c-.24,0-.25,0-.47-.11s-.57-.34-.33-.63"/><path class="cls-1" d="M142.59,167.32a.89.89,0,0,1,.4-.67,3.51,3.51,0,0,1,1.11-.45l.41-.13.38-.13a9.41,9.41,0,0,1,3.26-.27c1.16,0,2.14-.44,3.22-.44l.62.14.36.25.08.2c-.22,1.58,0,3.12-.4,4.73l-.28.6a1.45,1.45,0,0,1-1.08.06l-.39-.14c-2.44-.88-5.19-1.32-7.37-3l-.2-.39-.09-.19-.08-.1Z"/><path class="cls-1" d="M144.9,128c.44,0,.88,0,1.36,0l.82-.1.32-.48a1.18,1.18,0,0,0-.1-.83l-.14-.38a3.75,3.75,0,0,0-.53-.93,2.24,2.24,0,0,0-1.3-.8l-1-.09h-.22l-.28,0-.28.13-.26,0-.2.08-.22.17-.19.12-.19.2-.15.39v.2l0,.08.11.21a1.75,1.75,0,0,0,.31.63,1.8,1.8,0,0,0,1.87,1.39h.24"/><path class="cls-1" d="M147,174.88h0m-.51-1.53.53-.22a6.74,6.74,0,0,0-2.15.05l-.13.12,0,.11a.64.64,0,0,0,.1.47.64.64,0,0,1,.08.14,1,1,0,0,0,.35.34,2,2,0,0,0,.64.25,7.68,7.68,0,0,0,1.78.47h0a5,5,0,0,0,1.22.15l.39,0,.48,0a2.46,2.46,0,0,1,1.15.66.25.25,0,0,0,.27.13.35.35,0,0,0,.34,0,1.12,1.12,0,0,0,.29-.51c0-.13,0-.26,0-.39l0-.25-.06-.46a2.77,2.77,0,0,0-.12-.41,2.36,2.36,0,0,0-.56-.53,2,2,0,0,0-.79-.23h-.47a1.24,1.24,0,0,1-.85.35,1.22,1.22,0,0,1-1-.44l-1,0Zm3.24,1.88h0Zm1.37-.89a.39.39,0,0,0-.25-.12A.39.39,0,0,1,151.13,174.34Zm-.76-.34,0-.05Zm-2.72,1.07h0Zm0,0h0Zm-.09,0h0Zm-.07,0-.11,0Zm-.15-.05Zm-.08,0h0Zm0,0-.08,0Zm-.12,0h0Zm0,0h0Zm0,0h0Zm0,0h0Z"/><path class="cls-1" d="M145.37,135.53a2.3,2.3,0,0,0,1.29.23,6.3,6.3,0,0,0,2.11-.44c.26-.15.47-.36.4-.6a3.1,3.1,0,0,0-.86-2.26,2.37,2.37,0,0,0-.88-.67,2.67,2.67,0,0,0-1.22-.49l-.75.29c-.24.12-.51.36-.77.5a1.43,1.43,0,0,0-.48.84,1.68,1.68,0,0,0-.12.63,2,2,0,0,0,1.32,1.79,1,1,0,0,0,0,.18"/><path class="cls-1" d="M151.65,147.45l0-.13s0,.08,0,.12Z"/><path class="cls-1" d="M146,153.64c0-.23.09-.46.14-.69l.66-.88.47-.13.52-.18h.72a1,1,0,0,1,.35-.09,1.9,1.9,0,0,1,1.44-.63,2.08,2.08,0,0,1,.5.07h0a1.34,1.34,0,0,1,.93.4,1,1,0,0,1,.48.56,5,5,0,0,1,.24,1.09c0,.14-.05.28-.07.42l-.09.69c0,.15,0,.29,0,.43a6.43,6.43,0,0,1-.17,1.56l-.23.51-.19.14a4.09,4.09,0,0,1-1.67-.16l-1.16-.2-.42,0c-.88-.59-2.23-1.43-2.44-2.39,0-.12,0-.26-.05-.39l0-.08"/><path class="cls-1" d="M146,138.1l.18-.28.24-.16a6.45,6.45,0,0,1,2.18.64l.17.18.08.2-.23.3-.38.13-.11.09a3.2,3.2,0,0,1-1.26.12,1.47,1.47,0,0,1-.8-.56l-.1-.58Z"/><polygon class="cls-1" points="147.03 163.42 147.02 163.28 147.12 163 147.35 162.88 148.56 162.88 149.14 162.94 149.34 163.05 149.53 163.29 149.51 163.97 149.26 164.13 149.09 164.14 147.91 164.34 147.72 164.31 147.19 164 147.19 163.96 146.98 163.67 146.98 163.51 147.03 163.42"/><path class="cls-1" d="M147.54,130.51a.41.41,0,0,1,.19-.39s.07,0,.1-.09a.62.62,0,0,1,.5,0,1.09,1.09,0,0,1,.4.25c0,.07,0,.14.05.2a.46.46,0,0,1-.22.29.25.25,0,0,1-.29.11c-.09-.15-.12-.27-.5,0a.22.22,0,0,1-.26,0,.31.31,0,0,1,0-.28"/><path class="cls-1" d="M150.87,143.36v0Z"/><path class="cls-1" d="M150.93,143.64v0Z"/><polyline class="cls-1" points="149.24 147.01 149.25 147 149.24 147.01"/><path class="cls-1" d="M149.21,147h0"/><polyline class="cls-1" points="149.14 147.06 149.15 147.06 149.14 147.06"/><path class="cls-1" d="M149.11,147.1h0Z"/><polyline class="cls-1" points="149.1 147.11 149.1 147.11 149.1 147.11"/><polyline class="cls-1" points="149.09 147.13 149.09 147.12 149.09 147.13"/><path class="cls-1" d="M149.05,147.3s0,0,0,0,0,0,0,0"/><path class="cls-1" d="M150.84,143.18c-.13-.71-.26-1.65-.32-2.07,0-.17.3-.21.34-.09a9.58,9.58,0,0,1,.7,2.27c.18,1,.26,2,.34,2.93,0,.28-.09.55-.14.82s-.1.36-.14.54a6.58,6.58,0,0,1-2.57-.19v0l-.68-.11a4.91,4.91,0,0,1-3.24-2,1.69,1.69,0,0,1-.13-.73l.25-.86.21-.4c.29-.28.49-.36.76-.6l.26-.06.11-.08.39,0,1,0,.35.11a4.93,4.93,0,0,1,2.25,1.09h.14l0-.06a1.75,1.75,0,0,0,.11-.35"/><polyline class="cls-1" points="150.85 143.22 150.84 143.22 150.85 143.22"/><path class="cls-1" d="M151.21,160a2.13,2.13,0,0,0,.63.33l.34,0,.08,0h0a.58.58,0,0,0,.24-.31,8.09,8.09,0,0,0,.07-.86.55.55,0,0,0,0-.18,1,1,0,0,0,0-.18c0-.11,0-.21,0-.32s0-.31-.17-.5l-.12-.12a1.15,1.15,0,0,0-1.15-.19,6.24,6.24,0,0,0-.74.19,5.12,5.12,0,0,0-.56.26s-.1.17-.08.2a.51.51,0,0,0,.09.35,3.18,3.18,0,0,0,.25.26V159a1.14,1.14,0,0,0,1.1,1"/><path class="cls-2" d="M70,84.62c-.6.63.16.84.7.81a1.5,1.5,0,0,0-.12-.92,1.76,1.76,0,0,0-.46,0Z"/><path class="cls-1" d="M60.71,124.12a.6.6,0,0,0-.55-.2c-.17.57,0,1.09.64,1a3.07,3.07,0,0,0,0,.42,1.89,1.89,0,0,0,.75,0,1.4,1.4,0,0,0-.87-1.33Z"/></g><g id="U4"><path class="cls-3" d="M152.28,202.27c-.06.64-.12,1.28-.15,1.93l-100-5.15v0c0-1.15.1-2.33.13-3.48l0-.06,0-.07c0-.5,0-1-.05-1.48l0-.42-.06-.45c-.27-2.82-1.14-5.55-.91-25.85.68-18.82,1.17-18.86,1.27-21.9l-.23-2.24a19.39,19.39,0,0,1-.43-1.93,4.16,4.16,0,0,1-.19-1.06l-.06-.24a8.84,8.84,0,0,1,1-4,4.12,4.12,0,0,0,.19-3l-.26-.59a9.2,9.2,0,0,1-.44-1.53,5.71,5.71,0,0,1,.15-1.56l.95-2.13c.51-.8.85-1.67,1.27-2.48.74-1,.76-1.86,1.55-2.73.19-.4.38-.79.42-.91v0l0,0a11.8,11.8,0,0,0,1-3.27c.76-1.78,2.08-3.48,2.69-5.19-.25-3.4,2.46-8.61,3.18-12,0-.22,2.95-9.93-1.2-17.86-1.11-2.16-.19-4.53.91-7.2Z"/><path class="cls-1" d="M67.2,81.35c-.56,0-1.06-.12-1.36-.16h-.45a3.26,3.26,0,0,1-1-2.6l.1-.36.11-.28c0-.08.06-.15.08-.23Z"/><rect class="cls-3" x="83.97" y="193.12" width="7.52" height="7.52" rx="0.66" transform="translate(-113.52 119.7) rotate(-45)"/><path class="cls-1" d="M59.36,144.58c-.92,0-2.34-.2-3.12.22-1,.54-1.12,1.49-.2,2s2.29.29,3.32.44c1.47.22,2.23-.32,3.68-.35.06-1-.7-1.26-1.44-1.55a10,10,0,0,1-1.9-.89Z"/><path class="cls-1" d="M67.32,82.5c-1,0-1.83-.23-2.86-.23s-1,.35-1.08,1.3.3,2.07.3,3.11A6.93,6.93,0,0,0,64.36,89a11.37,11.37,0,0,1,.37,2.54c.09,1.05-1,3.39.5,3.75,1,.23,2.07,0,3,.2.71.16,1.29.7,2,.74s2.4.22,2.12-1.05c-.11-.47-.52-.59-.83-.9A14.69,14.69,0,0,1,70.67,93c-.74-.91-1.49-1.78-2.23-2.71A12,12,0,0,1,66,85.57a13.66,13.66,0,0,0-.31-1.47c-.34-.13-1-.48-1.14-.89s.3-.69.75-.59c.25.06.48.35.76.43A12.83,12.83,0,0,0,69.24,83h-.07a2.69,2.69,0,0,1,.49,0,1.86,1.86,0,0,1,.07.88c-.11.38-.17.27-.41.54s-.9,1.22-.65,1.63c.54.9,1.25-2.53,2-1.75,0,.1,0,.1,0,.21a6.09,6.09,0,0,0,.74,0c0-.58-.1-.62-.41-1s-.4-.78-.7-1c-.78-.43-2,.34-2.87,0Z"/><path class="cls-1" d="M146,201.34h0Z"/><path class="cls-1" d="M146.58,201.75h0Z"/><path class="cls-1" d="M145.05,200.5v0"/><path class="cls-1" d="M145.31,201h0"/><path class="cls-1" d="M145.42,201h0"/><path class="cls-1" d="M145.47,201h0"/><path class="cls-1" d="M145.68,201.16l0,0,0,0"/><path class="cls-1" d="M146.06,201.37h0"/><path class="cls-1" d="M146.17,201.43s0,0,0,0,0,0,0,0"/><path class="cls-1" d="M146.37,201.56h0"/><polyline class="cls-1" points="146.63 201.82 146.63 201.81 146.63 201.81 146.63 201.82"/><path class="cls-1" d="M151.52,201.21a3.23,3.23,0,0,1-.36.75,24.86,24.86,0,0,1-4.3.19,3,3,0,0,1-.2-.32.6.6,0,0,1,.07.27l-.87-.15a9,9,0,0,1-2.88-2,.67.67,0,0,0-.09-.19v-.85c.06,0,.09,0,.15,0a.12.12,0,0,0,0-.1c-.07-.55.23-.66-.26-1-.25-.11-.57-.11-.83-.23a.17.17,0,0,0,0-.07c-.3-.55.36-.46,1.06-.55l.35.07a7.68,7.68,0,0,0,.11.82c.11.19.47.26.7.38a23.36,23.36,0,0,0,3,.2l1.23-.05.93-.12.11-.05Z"/><path class="cls-1" d="M102.77,169.75c-.51.52-.63.92-.46,1.24l.2.09.3,0,.21-.24c.19-.39.62-.64.83-.95,0-.13,0-.26,0-.4v0l-.31-.15-.1.08c-.34.11-.41.27-.69.38"/><path class="cls-1" d="M122.53,162.56c.41.8,1.48-.44,1.34-1l-.25-.15c-.5-.06-.61.19-1.09,1.18"/><path class="cls-1" d="M102,157.56v0c.1.32-.27.5-.62.55l-.86.15a.88.88,0,0,1-.54.14,4.28,4.28,0,0,1-1.07.11A2.39,2.39,0,0,1,97,156.06a3.94,3.94,0,0,1,.15-1,2.2,2.2,0,0,1,2.13-1.2h0a2,2,0,0,1,1.1.24,1.37,1.37,0,0,1,.66.84.85.85,0,0,1,0,.17,2.27,2.27,0,0,0,.54,1.2,1.41,1.41,0,0,1,.43,1c0,.1,0,.26,0,.37a.16.16,0,0,0,0-.07"/><path class="cls-1" d="M116.63,187.29h-.54a3,3,0,0,1-1.1-.55,7.84,7.84,0,0,1-.89-1l-.2-.41a2.83,2.83,0,0,1-.28-1.51l.19-.47.19-.15.7-.35,0,0c.2-.05.41,0,.53-.1h.2l.12,0a1.17,1.17,0,0,1,.89.28l.33.22a3,3,0,0,1,.43.65,1.63,1.63,0,0,1,.35.56c0,.15.07.29.11.43a1.21,1.21,0,0,0,.45.82l.66,0a.56.56,0,0,1,.37.26v.33a.69.69,0,0,1-.38.32,5.2,5.2,0,0,1-1.5.56c-.21.05-.41.07-.61.1"/><path class="cls-1" d="M103.6,139.12a4.21,4.21,0,0,1,.79,1.2,1.6,1.6,0,0,1-.26,1.41,1.81,1.81,0,0,1-.87.41l-.43.13c-1.47.5-4.49.23-6.13,0a.48.48,0,0,0-.36-.11c-1.2-.47-3.12-.95-3.82-2.12-.3-1.27-.61-2.45.43-3.78a1.48,1.48,0,0,1,1.11-.41l.5,0a16.9,16.9,0,0,1,3.32.7c1.87.26,5.07,1.44,5.72,2.62"/><path class="cls-1" d="M65.9,149.73l.15-.19.19-.08,1.12-.11,1.2.11.13.13,0,.25-.33.29-.18.07-.55.25a1.73,1.73,0,0,1-.93.12l-.34-.11-.33-.34-.13-.31Z"/><path class="cls-1" d="M79,142.18c.93,2,0,2.21-.63,2.42a3.53,3.53,0,0,1-1.19.19l-.88,0a6.2,6.2,0,0,1-.71-.12c-.48-.09-1-.22-1.44-.31a1.26,1.26,0,0,1-.44-.25c-.15-.06-.12-.48,0-.51.12-.21.28-.26.51-.38a3.22,3.22,0,0,0,.8-.54,1.7,1.7,0,0,0,.57-.37l.39-.25a2.56,2.56,0,0,1,1.64-.67,1.27,1.27,0,0,1,.84.32l.42.35c.06,0,.11.11.17.15"/><path class="cls-1" d="M76.83,177.67a3.76,3.76,0,0,1-.71-.38c-.2-.12-.35-.31-.55-.44s-.21-.3-.31-.46-.12-.32-.07-.45l.18-.28.13-.08a4.82,4.82,0,0,1,3,.39,10.06,10.06,0,0,1,1.87,1.09l0,.08c0,.09.05.2.08.3a.41.41,0,0,1-.33.34l-.16.09a4.35,4.35,0,0,1-3.22-.2"/><path class="cls-1" d="M82.44,166.39l-.11,0,.16-.06.46-.09.57-.14a2.35,2.35,0,0,1,1.46,0,8.29,8.29,0,0,1,1.94,1,10.5,10.5,0,0,1,1.92,1.3,1.9,1.9,0,0,1,.19.91h0a1,1,0,0,1,0,1,.92.92,0,0,1-.48.48l-.27.13a5.65,5.65,0,0,1-1.81.4l-.21,0H86a5.63,5.63,0,0,1-1.83-.06l-.28-.15h-.27c-.51-.27-1.07-.8-1.61-1.16l-1-.75c-.08-.19-.31-.3-.51-.48a2.18,2.18,0,0,1-.8-.72l-.08-.23v-.19a.74.74,0,0,1,.61-.51l.22-.09.38-.17.38-.17.27-.06c.14-.12.31-.06.47-.12Z"/><path class="cls-1" d="M84.55,183.21s0,0,0,0a1.78,1.78,0,0,1,.61-.11,1.74,1.74,0,0,1,1.75,1.71,1.69,1.69,0,0,1-.8,1.43l-.36.44c-2,.56-3.48.22-4.6-1.62l-.13-.27-.08-.18-.09-.12,0-.27a1.11,1.11,0,0,1-.12-.5v-.32l.1-.27.26-.32a3.73,3.73,0,0,1,1.24-.14,7.38,7.38,0,0,1,2.25.49"/><path class="cls-1" d="M128.05,174.1c-1.18-.77-1.35-1.65-.28-1.74l.69-.1.46,0c.86.27,1.09.42,1.4,1.07l.12.32c.09.32.17.66-.34.66a4.13,4.13,0,0,1-2-.19"/><path class="cls-1" d="M85.21,127.25a2.22,2.22,0,0,1,1.55.42c.42.28.82.9,1.29,1.24.54.58.3.68.07,1.37a3.13,3.13,0,0,1-3.19,1.14l-.29-.11c-1.48-.68-1.21-.69-1.82-2.11,0-.06,0-.3,0-.35,0-1.26,1.44-1.45,2.43-1.6"/><path class="cls-1" d="M87.1,154.32a2.48,2.48,0,0,1,.66-1.1l.45-.48h0l.19-.2a2.41,2.41,0,0,1,2.32-.18l.5.21a6.72,6.72,0,0,1,.91.86l.48.37.3.26a6.5,6.5,0,0,1,.84,1.22l.37.76.09.22a1.3,1.3,0,0,1,.17.69l-.22.53-.19.11c-.46.09-.87-.34-1.33-.44l-.86-.18a6.53,6.53,0,0,1-3.75-1.17,2.58,2.58,0,0,1-.78-.62l-.13-.24a1,1,0,0,1-.09-.5Z"/><path class="cls-1" d="M89.58,181.67a1.91,1.91,0,0,1-.94-.31,1.48,1.48,0,0,1-.44-.56c-.1-.4-.15-.49.15-.75a1.64,1.64,0,0,1,.54-.25l.37-.14a3.14,3.14,0,0,1,1.36-.15,3.84,3.84,0,0,1,1.34.31c.54.42.56.6.27,1.27a.53.53,0,0,1-.23.16,4,4,0,0,1-2.42.42"/><path class="cls-1" d="M87.62,158.4c0-.18.14-.29.37-.39a2.61,2.61,0,0,1,.27-.06A2.45,2.45,0,0,1,89,158c.1.06.24.07.34.14s.19.08.29.11l.94.38.68.41a5,5,0,0,1,.48.3.41.41,0,0,1,0,.47l-.18.2-.23.2a1.42,1.42,0,0,1-.18.08,3,3,0,0,1-1.59.25,2.82,2.82,0,0,1-1-.58,6,6,0,0,1-.94-.94.7.7,0,0,1,0-.63"/><path class="cls-1" d="M90.91,162.61l.16-.17a2.07,2.07,0,0,1,1-.31,15.21,15.21,0,0,1,2.07-.26l.44.11.2.22.12.23,0,.25a1.4,1.4,0,0,1-.22.88l-.2.21-.27.12a4,4,0,0,1-1.74-.06l-.58-.16a2.33,2.33,0,0,1-.87-.42l-.12-.19-.06-.31Z"/><path class="cls-1" d="M101.59,184.71l-.52.26.1.16c-3.06,1.43-7-3.6-2.89-4.63,2.28-.92,4,2.57,3.7,4.31Z"/><path class="cls-1" d="M97.22,149.22l.16-.15h0l.23-.09H98l1,.05.4.28.09.43-.07.19c0,.12-.23.09-.31.13a.64.64,0,0,1-.66.06l-1.09-.31c-.12-.15-.09-.31-.15-.47Z"/><path class="cls-1" d="M99.63,165.9l0,0s0,0,0-.07a2.21,2.21,0,0,1,2.1.3c.75.62,1.53,1.44,1.18,2.52l0,0s0-.07,0-.11a2.05,2.05,0,0,1-.07.34,2.84,2.84,0,0,1-3.19.45,1.8,1.8,0,0,1-1.17-1.58c0-.19,0-.37,0-.56a1.84,1.84,0,0,1,.48-.94,4,4,0,0,1,.71-.39"/><path class="cls-1" d="M106.39,174l0-.5.47-.7.2-.09,0-.05.68-.21.35-.27h0l.26-.21h0l.27-.17.27-.12.35-.1c.31,0,.54.18.82.45.38.57.39,1,.91,1.55l.72.74.23.39.14.35a1.65,1.65,0,0,1-.2,1.56c-.21.14-.29.31-.51.4a4.09,4.09,0,0,1-1,.15,11.54,11.54,0,0,1-3.54-2l-.45-.55-.1-.49Z"/><path class="cls-1" d="M106.13,143.79c.07-.06.08-.16.14-.22a.44.44,0,0,1,.39-.15,2.47,2.47,0,0,1,1.48.31,1.36,1.36,0,0,1,.07.89c-.18.15-.18.21-.35.25a1.8,1.8,0,0,1-.76,0,1.35,1.35,0,0,1-.78-.39,1.33,1.33,0,0,1-.18-.54,1.34,1.34,0,0,0,0-.2"/><path class="cls-1" d="M107.62,153v-.08l.21-.41a2.24,2.24,0,0,1,1.79.14,2.12,2.12,0,0,1,.88.75,1.51,1.51,0,0,1,.13,1l-.21.31a3.31,3.31,0,0,1-.87.19l-.67-.1-.48-.25-.19,0v-.2l-.21-.22a2.09,2.09,0,0,1-.38-1Z"/><path class="cls-1" d="M121.5,158.53c-.13.23-.34.45-.53.45a4.64,4.64,0,0,1-2.06,0l-.62-.19a9.36,9.36,0,0,0-1.2-.45l-.49-.34a5.72,5.72,0,0,1-1.42-2,12.22,12.22,0,0,1-.51-2.69.34.34,0,0,1,0-.13,2,2,0,0,1,.51-1.7c.12-.12.23-.21.34-.33a2.7,2.7,0,0,0,.38-.17,1.2,1.2,0,0,0,.3-.07Z"/><path class="cls-1" d="M120.44,164.78l.36-.59c.41-.23.7-.41,1.1-.09l.47.42a1.47,1.47,0,0,1,0,.78l-.24.11a2,2,0,0,1-1.31.13.76.76,0,0,1-.34-.76"/><path class="cls-1" d="M130.36,178.73c2.3-2.37,8.07,4.67,2,2.89-1.05-.27-2.6-1.71-2-2.89"/><path class="cls-1" d="M99.79,193.54c-.12-.25-.27-.46-.39-.71a2.27,2.27,0,0,1,.13-1.82l.1-.42.15-.25A.58.58,0,0,1,100,190a1.12,1.12,0,0,1,.41.12,2.53,2.53,0,0,1,1.18.87c0,.12.1.23-.09.38l-.34.09a.74.74,0,0,0-.84,0c-.27.12-.2.29-.23.5a1.16,1.16,0,0,0,.42.65,1.3,1.3,0,0,0,1,.19.52.52,0,0,0,.21-.32c.11-.35.1-.67.41-.86s.65.25.78.43c.32.25,1.9,1.58,1.44,2a1.34,1.34,0,0,1-.76.8,5,5,0,0,1-3.42-1,1.21,1.21,0,0,1-.39-.28"/><path class="cls-1" d="M95.69,201.28l-.16-.11.16.11.09.32a.25.25,0,0,1-.18.24l0,0a4.17,4.17,0,0,1-2.66.06l-1-.45c-.14-.22-1.13-.61-1-1.66a3,3,0,0,1,.15-1L92,198c.62-.19,1.27.22,1.92.73l.42.68,0,.19.51.8.79.75a.3.3,0,0,0,0,.1"/><path class="cls-1" d="M96.79,192.56c1-.18,1.62-1,.93-1.4a3.47,3.47,0,0,0-1.57-.8,13.21,13.21,0,0,0-2.23.55c-.23.22-.19.3-.08.48a4.93,4.93,0,0,0,3,1.17"/><path class="cls-1" d="M114,210.7l0,0,0,0"/><path class="cls-1" d="M119,193.88c-.11.4-.2.81-.3,1.22a4.62,4.62,0,0,1-3-.44,1.9,1.9,0,0,1-1-1.32v-.19c.09-.16.18-.32.28-.48l.16-.09c.49-.1.92-.36,1.42-.47h.2a2.6,2.6,0,0,1,1.77.94,5.14,5.14,0,0,1,.49.84"/><path class="cls-1" d="M123.29,196.47c-1.67-.67-1.42-2.92.85-2.08a1.83,1.83,0,0,1,1,.54c.12.14.38.49.52.52l.33.22a7.2,7.2,0,0,1,1.54,1.1c.18.32.14.68-.24.79a2.26,2.26,0,0,1-2-.75c-.71-.24-1.33-.13-2-.34"/><path class="cls-1" d="M119.83,186.8l.22,0a1.88,1.88,0,0,1,2,.27,1.41,1.41,0,0,1,.17.53.82.82,0,0,1-.22.4l-.11.09h-.15a2.43,2.43,0,0,1-1.88-.59c0-.07-.08-.09-.09-.15-.16-.27-.11-.45,0-.51"/><path class="cls-1" d="M127.14,202.32c.07-.26,0-.24.3-.37a1.92,1.92,0,0,1,1.71.38l.24.25c0,.26,0,.46-.12.54-.44.33-1.54,0-1.92-.27l-.2-.19a.56.56,0,0,1,0-.34"/><path class="cls-1" d="M136.26,201h0l.22-.43h.24l.27.1.16.22.06.32.12.38,0,.27-.12.19h0a1.06,1.06,0,0,1-.88-.35v-.39l0-.23Z"/><path class="cls-1" d="M61.09,109.59a6,6,0,0,0-.06,1.29,5.41,5.41,0,0,0,.19,1.76,4,4,0,0,0,1,1.9c.88.71,1.44-.2,2.28-.44,2-.58,2.48,2.09,3.49,3.11s2.52.7,2.44,2.18c0,.13-.87.37-1,.36a2.41,2.41,0,0,1-1-.52c-.65-.47-1.15-1.24-1.92-1.55s-1.83-.19-2.35-1a1.73,1.73,0,0,1,.31-2.22c.53-.5,1.09-.71,1.28-1.49a2.89,2.89,0,0,0,0-1.24c-.12-.43-.38-.32-.56-.63s.05-.45,0-.66a2.37,2.37,0,0,0-.5-1.44c-.16-.25-.65-.78-.33-1.09.88-.83,2.68,1.44,3.08,2a14.21,14.21,0,0,1,2.09,4.56c.15.65.16,1.65.69,2.14.33.31.67.36.7-.19s-.51-.74-.52-1.19.33-.66.35-1.06c.07-1.13-1-2.86-1.74-3.64a32.19,32.19,0,0,0-3.53-3.66,2.71,2.71,0,0,0-2.25-.12,7.06,7.06,0,0,0-2,2.37,1.86,1.86,0,0,0-.19.47"/><path class="cls-1" d="M71.49,119.11a.57.57,0,0,0-.22.07c0,.34.27.41.56.33a.55.55,0,0,0,.06-.4,1.34,1.34,0,0,0-.4,0"/><path class="cls-1" d="M72.31,118.28a1.36,1.36,0,0,0,0,.35c.37.08.63-.31.29-.53-.07.08-.24.13-.3.18"/><path class="cls-1" d="M71.43,117.34a.67.67,0,0,0,.07.4,4.42,4.42,0,0,0,.63,0c0-.45-.52-.66-.86-.69a.85.85,0,0,0,0,.16.83.83,0,0,1,.27,0s0,.15,0,.18Z"/><path class="cls-1" d="M62.29,138.89c0-1.18,2.57-.68,2.91-2,.06-.06.19,0,.26,0s0-.25,0-.36c1.08.2,1.37-.83.69-1.49-.52-.52-1.44-.44-1.94-1,.41-.23,1.59.29,1.85-.19s-.86-1.12-1.27-1.2a4.4,4.4,0,0,1-.13-1,6.72,6.72,0,0,0-.74-.42c0-.5,0-1,0-1.52-.32-.24-.83-.45-1.06-.87-1-.19-1.22.37-1.24,1.21v-1.05c-.16,1.55,1.65,2.54,1,4.18-.52,1.3-2.16,1.36-2.27,3-.36-1.12.26-1.72.8-2.6s.29-1.65-.08-2.64c-.51-1.39-1.51-4.37.27-5.38,1.14,1-1.37,1.34-.47,2.39a1.14,1.14,0,0,1,.87.17s-.21-.36-.19-.34l.19.36A4.83,4.83,0,0,1,66,133.37a1.41,1.41,0,0,1-.34-.2c.43.14.67.49,1.09.49,0,.82.57,1.22.63,2,.09,1.33-.4,1.16-1.46,1.45-1.43.4-1.95,2-3.58,1.84Z"/><path class="cls-2" d="M63.5,134.3c-2.14-.25-3.76,2.53-1.12,3.13a2.32,2.32,0,0,0,2.38-1.32c.46-1-.21-1.41-1.15-1.7Z"/><path class="cls-1" d="M58.47,123.56c1.19,1,.92,2.61.67,3.91s-.38,2.57-.56,3.8,0,2.66-.22,4c-.15,1.08-.43.75-1,1.45s-.3,1.06-.09,1.77c.56.11,1.4.26,1.41.9-.12.06-.17,0-.29,0s.14.21.11.29a.91.91,0,0,0,1-.5c0,.08,0,.28,0,.37s-.14-.28-.11-.28c.25.06.62-.09.87,0,.15-.73,1.26-.18.25.57-.19.14-.82.17-1.1.34-.49.28-.57.62-1.14.78a9.07,9.07,0,0,1-2.8,0c-1.07-.14-1.47-.54-1.2-1.79a4.29,4.29,0,0,0,.2-2.23,8.53,8.53,0,0,1-.23-2.6c.15-1.18.86-2.17,1.1-3.33a15.69,15.69,0,0,0,0-2.91c0-1.42.28-1.55,1.25-2.54.6-.6.63-2.25,1.65-2Z"/><path class="cls-1" d="M69.09,126.69c.67-.15,1.19.54,1.68.9s1,.3,1.1,1.32c-1.09.26-1-.44-1.58-1a7.16,7.16,0,0,0-1.74-.94c-.1-.28.06-.28.21-.43Z"/><path class="cls-1" d="M53.22,151.4c-1.94-.19-1.46,3.16-1.46,4.36,0,2.42.1,4,1.37,6A8.36,8.36,0,0,0,55,164.28c1,.62,1.23-.09,2.13-.37s1.84,0,2.66-.24c.65-.23,1-.83,1.61-1.18.34-.19.69,0,1-.33s.21-.76.41-1c.59-.82.83-.83,1.14-1.9-1.31-1-2.89-.7-4.58-.8-.1-.67-.67-1.14-1.34-.74a2.24,2.24,0,0,1,.19,1.3c-.72.42-1.71-.61-1.69-1.23.05-1,1.39-.9,2-1.23.91-.49.92-1.29,1.61-1.85s2,0,2-1.37A4.88,4.88,0,0,1,61,151.42a7.55,7.55,0,0,1-2.42.3c-.24-1.21-1.18-.44-1.92-.32a20.16,20.16,0,0,1-3,0Z"/><path class="cls-1" d="M57.13,170.18c-1.37,0-2.55.46-1.55,2,1,.14,3.71.28,4.42-.46,1.46-1.49-1.73-1.42-2.53-1.42Z"/><path class="cls-1" d="M53.77,192.08c.32,1.17,1.25,3.16,2.36,3.8s3.24.51,4.7.68c.08-.11-.1.09-.11.11.6,1.12,3.93-.15,3.57,1.44.71.19.67-.32,1.11-.42a7.49,7.49,0,0,1,1.34,0,3.77,3.77,0,0,0,2.84-.65c.87-.75-3.43-4.07-3.87-4.43a25.32,25.32,0,0,1-3.1-2.94,8.55,8.55,0,0,0-6.4-3c-2.65.15-3,3.36-2.44,5.44"/><path class="cls-2" d="M59.59,188.84c-1.54-.09-.51,3.22-.42,4a6.86,6.86,0,0,0,.33,2.32c.33.45,1.31.46,1.55.69h-.19c1.34.74,3.86.29,5.42.21.38-2.1-1.83-2.62-2.75-3.92-.27-.37-.25-.71-.61-1.06s-.78-.41-1.1-.7c-.64-.59-1-1.27-1.78-1.68Z"/></g><g id="Labels"><text class="cls-6" transform="translate(150.04 9.11)"><tspan xml:space="preserve"> UDcaot</tspan></text><path class="cls-7" d="M172.71,66.21h.12l.09,0,.27,0,.27.07.2.09a.47.47,0,0,1,.26.37l0,.13-.07.12-.08.11-.19.16-.68.45-.62.33-.26.11-.24,0a.29.29,0,0,1-.18-.08l-.05-.08V68l0-.12s0-.06.09-.1l.22-.11.41-.17.53-.28.22-.11.16-.12,0-.07c0-.1-.14-.15-.41-.15l-.28,0-.33.11c-.23,0-.34-.09-.34-.28a.23.23,0,0,1,.05-.17l.18-.11.33-.11Zm2.32,0a2.07,2.07,0,0,1,.45.07l.13,0,.1,0,.2.14a.35.35,0,0,1,.18.35l0,.07,0,.09-.1.12-.1.11-.1.11-.13.12-.38.29-.36.25-.33.19-.15,0-.15,0h-.12a.18.18,0,0,1-.1-.06l-.05-.1s0-.06,0-.08a.22.22,0,0,1,.06-.13l.12-.06.15-.07.22-.11.39-.21.3-.24.16-.14s0-.06.06-.12a.14.14,0,0,0-.1-.15l-.23,0h-.15l-.11,0-.11,0-.09,0-.08,0-.21,0-.08,0s0,0,0,0l-.05,0a.24.24,0,0,1,0-.13v-.08a.35.35,0,0,1,.05-.08l.15-.1.1-.05.1,0a1.05,1.05,0,0,1,.24-.06l.17,0Z"/><path class="cls-7" d="M175.28,69.38h.16a.4.4,0,0,1,.15.18v.15a.19.19,0,0,1-.08.18l-.3.13.15.15a.49.49,0,0,1,.14.33v.15a.11.11,0,0,0,0,0s0,0,0,.05a.75.75,0,0,1-.41.54l-.22.12-.15,0-.19,0h-.19l-.2,0-.37-.09-.06,0-.24.2-.12.11-.14.11-.31.23-.14.08-.24.15-.22.14-.45.25-.09,0-.11,0-.19.1-.18,0a.43.43,0,0,1-.38-.22l0-.06,0-.12a.22.22,0,0,1,.06-.17l.08-.06.07,0h.39a.66.66,0,0,0,.3-.07l.5-.27.18-.11.29-.19.19-.14.12-.13.1-.08.11-.12-.08-.13,0-.1v-.09a.39.39,0,0,1,.21-.24l.16,0h.11l.13.06a.23.23,0,0,1,.14.15l0,.12,0,0,.13.08.14.06h.17l.12,0,.1,0a.66.66,0,0,0,.24-.15l.06-.1,0-.09a.27.27,0,0,0,0-.16l-.07-.08-.11-.07-.1-.06-.19-.09-.18-.13,0-.07,0-.1a.11.11,0,0,1,.06-.11l.17-.08h.31l.12,0,.11-.07.1-.06.1,0Z"/><path class="cls-7" d="M180.18,67c0,.44-.29.81-.86,1.11a1.21,1.21,0,0,1-.58.18c-.55,0-.83-.24-.83-.71a1.18,1.18,0,0,1,.48-.92,1.57,1.57,0,0,1,1-.39,1,1,0,0,1,.31,0,.89.89,0,0,1,.25.14A.71.71,0,0,1,180.18,67Zm-.52.08c0-.19-.14-.29-.41-.29a.87.87,0,0,0-.77.77c0,.12.08.19.25.19h.13a.94.94,0,0,0,.5-.23C179.56,67.37,179.66,67.23,179.66,67.08Z"/><path class="cls-7" d="M182.55,69.94l.11-.11.2-.15a.56.56,0,0,1,.25-.07h.06a.23.23,0,0,1,.13.07.16.16,0,0,1,.06.08.2.2,0,0,1,0,.11.52.52,0,0,1,0,.11l-.05.08-.08.09-.12.11-.12.09-.18.11-.16.09-.15.07-.16.06-.17,0-.15,0h-4.27l-.08.1-.16.15-.21.17-.13.1-.22.12-.09,0-.13,0-.2,0a.28.28,0,0,1-.19-.26v-.1s0-.07.11-.09a.77.77,0,0,0,.23-.09.57.57,0,0,0,.24-.14l.06-.07.05-.1h-.11a.42.42,0,0,1-.17,0l-.07-.08-.06-.12v-.18c0-.17.12-.29.35-.35h.16l0,0h.13a.27.27,0,0,1,.12,0,.48.48,0,0,1,.29.22l.12.22h4l.08,0,.23,0a.57.57,0,0,0,.24-.13l.08-.08Z"/><path class="cls-7" d="M187.48,66.63a.27.27,0,0,1,.18-.07c.17,0,.25.11.25.34V67l-.05,0a9.9,9.9,0,0,1-1,.67,9,9,0,0,1-1,.49l-.13,0-.1,0c-.09,0-.15-.06-.2-.16V67.9c0-.08.05-.14.16-.17a7.41,7.41,0,0,0,.77-.41l.26-.15.37-.23Z"/><path class="cls-7" d="M183.82,72.17a.56.56,0,0,1-.32-.08.35.35,0,0,1-.1-.26v-.09a.15.15,0,0,1,.09-.14.48.48,0,0,1,.2-.07,1.58,1.58,0,0,0,.63-.15l.52-.29a1.11,1.11,0,0,0,.3-.16l.34-.24.15-.08.14-.13-.07-.06-.12-.15-.06-.12V70a.31.31,0,0,1,0-.12l.09-.08a.4.4,0,0,1,.23-.09.75.75,0,0,1,.3.09l.1.06.12.07.35-.18.42-.23.22-.09a1.75,1.75,0,0,1,.44-.14.44.44,0,0,1,.2.07c.05,0,.08.09.09.19v.07a.24.24,0,0,1-.09.12l-.15.1-.08,0-.24.11-.22.1-.35.1-.18,0,.28.14.21.11.11.11,0,0v.06a.24.24,0,0,1,0,.08l0,.07a.17.17,0,0,1-.1.1l-.11,0-.15,0H187l-.57-.29-.2.12L186,71l-.28.16-.38.25-.71.4-.28.16-.27.13-.15,0Z"/><path class="cls-7" d="M104.12,101.17l-.25.24-.17.13-.19.11-.31.15-.31.1-.35.07-.35,0h-.5a.31.31,0,0,1-.13,0,.87.87,0,0,1-.64-.53,1.47,1.47,0,0,1,0-.32,1.2,1.2,0,0,1,.11-.41l.14-.17.17-.17.09-.07.1-.06.22-.1.21-.07.2,0h.18l.14,0,.12.06.18.18.18-.17.15-.11.09,0,.11,0,.2,0,.23,0a.84.84,0,0,1,.68.28l.08.11a.75.75,0,0,1,0,.15v.12A1.12,1.12,0,0,1,104.12,101.17Zm-1.79-.48-.12-.07-.13,0h-.21l-.13.06a.51.51,0,0,0-.31.48.25.25,0,0,0,.13.21l.22.09.34-.48Zm1.59-.16c0-.11-.08-.17-.25-.17h-.1a1,1,0,0,0-.27.13l-.34.27-.2.19-.16.18-.09.12-.14.21.44-.07h.06l.1,0,.15-.08.27-.18.22-.16C103.82,100.79,103.92,100.65,103.92,100.53Z"/><path class="cls-7" d="M105.08,96.4h.07l.08,0a.19.19,0,0,1,.06.1l0,.12v.1c0,.15-.06.22-.2.22l-.36.07-.15.06-.11.05-.12.06-.09.07-.11.12-.11.13a.22.22,0,0,0,.1.14l.14.06.16,0H105l.09,0a.22.22,0,0,1,.08.2.19.19,0,0,1-.14.2l-.21,0-.26,0h-.23l-.09,0-.29-.06a.45.45,0,0,1-.36-.2.94.94,0,0,1-.14-.46l0,.07a.19.19,0,0,1-.1.08l-.07.07-.23.16-.34.22-.24.14-.21.12-.21.1-.19.07-.14,0h-.12c-.13,0-.19-.08-.19-.23l0-.15a.17.17,0,0,1,.11-.09l.15,0,.18-.06a2.34,2.34,0,0,0,.77-.42l.15-.13.16-.15-.59,0-.16,0h-.09l-.08,0a.22.22,0,0,1-.15-.24.23.23,0,0,1,.21-.25l.23,0h.56a.86.86,0,0,1,.43.09.48.48,0,0,1,.09.13l.07.14.09.19.1-.09.06,0,0,0s0,0,.08,0L104,97l.24-.16.44-.29A.79.79,0,0,1,105.08,96.4Z"/><path class="cls-7" d="M100,99.86l.09,0a.23.23,0,0,1,.2.24.42.42,0,0,1-.07.13l-.14.1-.17.07.33.07.13,0,.15,0c.23,0,.34.14.34.3l0,.09-.14.11-.09.07-.14.1-.47.27-.1.07s0,.06,0,.08l.54.11.43.08.15,0c.17,0,.25.07.25.21s0,.27-.15.29h-.47l-.22,0-.27,0-.11,0-.12,0-.74-.2-.06,0h0L99,102l-.1,0s0,0-.06-.11a.18.18,0,0,1,.06-.13l.1-.11.27-.18.29-.18.28-.18.18-.14-.28,0-.81-.12s0,0-.07,0v-.13l.14-.11.23-.17.28-.19.25-.14A.5.5,0,0,1,100,99.86Z"/><path class="cls-7" d="M100.94,96.45h.37a.88.88,0,0,1,.5.12.38.38,0,0,1,.18.33,1,1,0,0,1-.32.56l-.2.22-.26.21a1.8,1.8,0,0,1-.25.18,1.4,1.4,0,0,1-.3.15l-.45.19-.23.11h-.15s-.07,0-.13-.1l0-.07,0-.08a.31.31,0,0,1,.05-.17.48.48,0,0,1,.19-.13l.19-.06.23-.07a.74.74,0,0,0,.23-.1,1.13,1.13,0,0,0,.75-.69l0,0,0,0L101,97h-.39l-.08,0-.1.06-.09,0-.08,0h-.12a.17.17,0,0,1-.12-.05L100,97l0-.09a.21.21,0,0,1,.1-.2,3.25,3.25,0,0,1,.43-.18A2,2,0,0,1,100.94,96.45Z"/><path class="cls-7" d="M97.77,99.41l.11,0H98a.24.24,0,0,1,.14.09s0,0,0,.08v.08a.43.43,0,0,1-.24.28l-.14.07.06,0,.16.08a.34.34,0,0,1,.12.12.16.16,0,0,1,0,.12.41.41,0,0,1-.18.29l-.54.25.15.08.15.1a1,1,0,0,1,0,.17v0a.16.16,0,0,1,0,.08l-.14.14-.31.23L97,102l-.26.19-.71.48-.25.16-.23.12-.07,0-.11,0-.29.13a1.24,1.24,0,0,1-.36.1.28.28,0,0,1-.13,0l-.08,0a.17.17,0,0,1-.06-.06.15.15,0,0,1-.06-.09,1.06,1.06,0,0,1,0-.14c0-.14.11-.23.32-.28l.14,0,.1,0,.12,0,.12,0,.14,0,.18-.08.18-.11.67-.42.32-.21.45-.33-.25-.16a.31.31,0,0,1-.11-.22.22.22,0,0,1,0-.1l.12-.13.21-.1.32-.16-.14-.08-.18-.11-.09-.06,0,0,0-.08v-.09s0,0,0,0L97,99.8h0l0,0,.17-.06.14-.06.13-.07.12-.08Z"/><path class="cls-7" d="M99.11,96.4h.08l.07,0a.2.2,0,0,1,.07.1l0,.12,0,.1c0,.15-.07.22-.2.22l-.37.07-.15.06-.11.05-.12.06-.09.07-.11.12-.11.13a.22.22,0,0,0,.1.14l.15.06.15,0h.53l.09,0a.2.2,0,0,1,.09.2.19.19,0,0,1-.15.2l-.2,0-.27,0H98.4l-.1,0L98,98.19a.49.49,0,0,1-.36-.2.94.94,0,0,1-.14-.46l-.05.07a.22.22,0,0,1-.09.08l-.08.07-.22.16-.35.22-.24.14-.2.12-.22.1-.19.07-.14,0h-.11c-.13,0-.2-.08-.2-.23l0-.15a.2.2,0,0,1,.11-.09l.15,0,.19-.06a2.28,2.28,0,0,0,.76-.42l.15-.13.16-.15-.59,0-.15,0h-.09l-.09,0A.22.22,0,0,1,95.9,97a.23.23,0,0,1,.2-.25l.23,0h.56a.83.83,0,0,1,.43.09.25.25,0,0,1,.09.13l.08.14.08.19.1-.09.06,0,0,0,.08,0L98,97l.24-.16.44-.29A.81.81,0,0,1,99.11,96.4Z"/><path class="cls-7" d="M93.69,99.84a.48.48,0,0,1,.33.09.17.17,0,0,1,.07.14v.11l-.08.06-.06,0-.1,0a.26.26,0,0,0-.06.15.26.26,0,0,0,.11.23l.12.09.06,0,.08,0,.13,0a.28.28,0,0,0,.11-.08l.1-.08.11-.08.19,0h.08a.26.26,0,0,1,.13.11l0,.06v.08A.37.37,0,0,1,95,101l-.12.09-.15.1-.18.13-.54.34-.62.36-.33.19-.28.14-.26.12-.33.14-.23.07c-.26,0-.39-.11-.39-.32a.52.52,0,0,1,.07-.21l.07-.09a.13.13,0,0,1,.08,0l.1,0,.13,0,.14,0a2.24,2.24,0,0,0,.33-.14l.62-.32.31-.17.39-.26s0-.07,0-.08h-.08l-.16,0a.47.47,0,0,1-.22-.15l0-.06,0-.11,0-.17v-.08s0,0,0-.06l.09-.2a.57.57,0,0,1,.18-.24.22.22,0,0,1,.06,0l.08,0Z"/><path class="cls-7" d="M94.73,96.45h.36a.88.88,0,0,1,.5.12.38.38,0,0,1,.18.33,1,1,0,0,1-.32.56l-.2.22-.26.21-.24.18a1.77,1.77,0,0,1-.31.15l-.45.19-.22.11h-.16s-.07,0-.13-.1l0-.07,0-.08a.31.31,0,0,1,0-.17.48.48,0,0,1,.19-.13l.19-.06.23-.07a1,1,0,0,0,.24-.1,1.14,1.14,0,0,0,.74-.69l0,0L95,97l-.17,0H94.4l-.08,0-.1.06-.09,0-.07,0h-.12a.17.17,0,0,1-.12-.05L93.73,97l0-.09a.22.22,0,0,1,.11-.2,2.41,2.41,0,0,1,.43-.18A2,2,0,0,1,94.73,96.45Z"/><path class="cls-7" d="M92,99.65h.09l.07,0a.32.32,0,0,1,.15.17l0,.16a.19.19,0,0,1-.08.18l-.3.13.14.14a.46.46,0,0,1,.15.34v.2a.17.17,0,0,1,0,.05.78.78,0,0,1-.41.53l-.22.12-.16,0-.18,0h-.19l-.2,0-.37-.08-.06,0-.24.21-.12.1-.14.11-.32.23-.13.08-.24.16-.22.13-.45.25-.1,0-.1,0-.19.1-.18,0a.43.43,0,0,1-.39-.22v-.06l0-.12a.21.21,0,0,1,.07-.17l.08-.06.06,0h.4a.63.63,0,0,0,.29-.08l.51-.27.17-.11.29-.19.19-.13.12-.13.1-.08.12-.12-.08-.14,0-.09V101a.38.38,0,0,1,.21-.23l.16,0h.1l.14.06a.25.25,0,0,1,.14.15v.13l0,0,.13.09.13,0h.18l.12,0,.09,0a.67.67,0,0,0,.24-.16l.07-.1,0-.08a.31.31,0,0,0,0-.17l-.08-.08-.1-.06-.1-.07-.19-.09-.18-.13,0-.07,0-.09A.11.11,0,0,1,91,100l.17-.08h.31l.12,0,.1-.08.1-.06.11,0Z"/><path class="cls-7" d="M89.7,96.48h.12l.1,0,.26,0,.28.08.2.09a.44.44,0,0,1,.26.36l0,.13-.07.12-.08.11-.2.16-.67.45-.62.33-.26.11-.24.05a.27.27,0,0,1-.18-.07l0-.09v-.11l0-.11s0-.06.09-.11l.21-.11.42-.17.53-.27.22-.12.16-.11,0-.07c0-.11-.13-.16-.4-.16l-.28,0-.33.11c-.23,0-.35-.1-.35-.29a.21.21,0,0,1,.06-.16.46.46,0,0,1,.18-.12l.32-.1Zm2.33,0a1.71,1.71,0,0,1,.45.07l.13,0,.1,0,.2.13A.37.37,0,0,1,93,97a.31.31,0,0,1,0,.2l0,.07,0,.09-.1.12-.11.12-.09.11-.14.11-.37.29-.37.25-.32.19-.15,0-.16,0h-.12s0,0-.09-.06l0-.1a.19.19,0,0,0,0-.08.24.24,0,0,1,.07-.13l.11-.05.16-.08.22-.11.39-.21.3-.23.15-.14a.3.3,0,0,0,.07-.13.15.15,0,0,0-.1-.15h-.38l-.11,0-.11.05-.1,0h-.08l-.2,0-.08,0,0,0,0,0a.33.33,0,0,1,0-.13v-.08a.22.22,0,0,1,.05-.08.48.48,0,0,1,.15-.11l.1,0,.1,0a.75.75,0,0,1,.23-.07l.18,0Z"/><path class="cls-7" d="M43.48,95.53a.2.2,0,0,1,.2.14l0,.1v.08a.09.09,0,0,1,0,.07l-.09.1-.06,0-.13.06-.13.07L43,96.4l-.22.16-.38.25-.34.2-.19.11a1.45,1.45,0,0,1-.23.11l-.37.15-.14,0a.29.29,0,0,1-.21-.09.35.35,0,0,1-.07-.21V97a.21.21,0,0,1,0-.07l.06,0,.18-.1.38-.17.33-.16.22-.1.2-.11.39-.25.22-.15.2-.16.22-.12A.3.3,0,0,1,43.48,95.53Z"/><path class="cls-7" d="M40.13,94.24a.5.5,0,0,1-.31-.08.32.32,0,0,1-.11-.26v-.09a.15.15,0,0,1,.09-.14.48.48,0,0,1,.2-.07,1.58,1.58,0,0,0,.63-.15l.52-.29a1.11,1.11,0,0,0,.3-.16l.34-.24.15-.08.14-.13L42,92.49l-.12-.15-.06-.12V92.1a.31.31,0,0,1,0-.12L42,91.9a.4.4,0,0,1,.23-.09.75.75,0,0,1,.3.09l.1.06.12.07.35-.18.42-.23.22-.09a1.75,1.75,0,0,1,.44-.14.44.44,0,0,1,.2.07s.08.09.09.19v.07a.24.24,0,0,1-.09.12l-.14.1-.09,0-.24.11-.22.1-.35.1-.18,0,.28.14.21.11.11.11,0,0v.06a.24.24,0,0,1,0,.08l0,.07a.17.17,0,0,1-.1.1l-.11,0-.15,0h-.09l-.57-.29-.2.12-.19.15-.28.16-.38.25-.71.4-.28.16-.27.13-.15,0Z"/><path class="cls-7" d="M48.25,88.29l.15-.06.16,0a.32.32,0,0,1,.23.06.17.17,0,0,1,.1.16.18.18,0,0,1-.09.18l-.06,0-.1,0-.21.09-.58.26c-.31.15-.47.33-.47.55a.28.28,0,0,0,.1.19l.07,0,.09,0,.2,0H48l.08,0,.07,0,.1,0,.09,0a.3.3,0,0,1,.16,0l.09.12a.28.28,0,0,1,0,.15c0,.15-.18.26-.44.34l-.17,0-.15,0-.25,0-.26-.08-.13,0-.12-.08a.66.66,0,0,1-.34-.59.65.65,0,0,1,.13-.38l.12-.16.18-.17.15-.11.18-.12.32-.2Z"/><path class="cls-7" d="M48.5,92.44c0,.23-.23.51-.7.82l-.84.57-.37.22a3.28,3.28,0,0,1-1.28.56c-.29,0-.44-.11-.44-.34A.31.31,0,0,1,45,94a.39.39,0,0,1,.22,0h0l.06,0,.07,0,0,0h.2l.14,0,.39-.2.15-.08.27-.16.14-.11c-.31-.14-.47-.32-.47-.54a.89.89,0,0,1,.34-.7l.16-.1L47,92a1.49,1.49,0,0,1,.72-.19,1,1,0,0,1,.65.25A.53.53,0,0,1,48.5,92.44Zm-.58-.07c-.05-.07-.16-.11-.36-.11a.92.92,0,0,0-.53.25l-.07.08-.08.12,0,.1c0,.06,0,.12.13.18l.1,0,.08,0,.15,0,.25-.13c.25-.16.37-.3.37-.4A.13.13,0,0,0,47.92,92.37Z"/><path class="cls-7" d="M52.77,95.53a.22.22,0,0,1,.21.14l0,.1v.08a.09.09,0,0,1,0,.07l-.08.1-.07,0-.12.06-.13.07-.24.22-.22.16-.39.25-.33.2-.2.11a1.45,1.45,0,0,1-.22.11l-.38.15-.14,0a.28.28,0,0,1-.2-.09.37.37,0,0,1-.08-.21l0-.1s0-.06,0-.07l.05,0,.18-.1.39-.17.33-.16.22-.1.2-.11L52,96l.22-.15.2-.16.22-.12A.25.25,0,0,1,52.77,95.53Z"/><path class="cls-7" d="M53.17,92.44v.22l0,.11a.1.1,0,0,1,0,.09l-.13.19-.06.08a.81.81,0,0,1-.66.24h-.13l-.1,0-.07,0-.09,0-.15-.11-.16-.13-.15-.18,0-.05a.44.44,0,0,0-.16.09l-.15.13-.19.2.19.08.13.07a.4.4,0,0,1,.25.33.36.36,0,0,1-.08.25.74.74,0,0,1-.25.26,1.36,1.36,0,0,1-.26.15l-.16.07-.33.12-.13,0-.32.07h-.14l-.09,0-.11,0-.12-.06a.12.12,0,0,1-.07-.07l0-.19a.39.39,0,0,1,0-.22l.07,0,.12,0h.21l.3.07.22,0a.49.49,0,0,0,.38-.14l.08-.1,0-.11q0-.13-.24-.21l-.2-.07a.25.25,0,0,1-.17-.28.54.54,0,0,1,.13-.23l.44-.42.18-.15.25-.17.33-.18a2,2,0,0,1,1-.29l.16,0A.51.51,0,0,1,53,92l.1.14a.66.66,0,0,1,0,.15Zm-.54.12a.23.23,0,0,0-.23-.25h-.1a.52.52,0,0,0-.18,0,.47.47,0,0,0-.18.1l-.08.06-.07.07.16.16a.5.5,0,0,0,.15.08l.07,0h.12a.36.36,0,0,0,.21,0l.07,0,0-.07Z"/><path class="cls-7" d="M57.49,88.7a.27.27,0,0,1,.18-.07c.17,0,.25.12.25.34v.08l0,0a11.26,11.26,0,0,1-1,.67,8.14,8.14,0,0,1-1,.49l-.13,0-.11,0a.21.21,0,0,1-.19-.16l0-.09,0-.12a.18.18,0,0,1,.15-.17,6.28,6.28,0,0,0,.78-.41l.25-.15L57,89Z"/><path class="cls-7" d="M56.19,91.64h.4a.41.41,0,0,1,.21,0l.22.05c.26.06.4.17.4.35a.49.49,0,0,1-.08.24l-.1.14-.13.14-.2.18-.24.19-.21.15-.3.21a9.27,9.27,0,0,1-.92.51l-.39.19-.18.06-.23.08-.17,0-.12,0-.06,0L54,94.08,53.92,94l0,0c0-.16.05-.25.16-.27l.17,0h.15l.17,0,.11,0,.12,0,.15-.07.19-.1.32-.15.15-.07.25-.14.27-.15.17-.11.09-.07.14-.12a1,1,0,0,0,.18-.17l0-.06,0,0a.08.08,0,0,0,0,0l-.08,0h-.07l-.18,0h-.22l-.29,0h0l-.09,0-.09,0-.06,0h-.35a.31.31,0,0,1-.18-.23.33.33,0,0,1,.05-.19.52.52,0,0,1,.17-.13l.16-.05.15,0Z"/><path class="cls-7" d="M34.68,141.24h.12l.09,0,.27.05.27.08.2.09a.44.44,0,0,1,.26.36l0,.13-.07.12-.08.11-.19.16-.68.45-.62.33-.26.11-.24.05a.27.27,0,0,1-.18-.07l0-.09V143l0-.11a.25.25,0,0,1,.09-.11l.22-.11.41-.17.53-.27.22-.12.16-.11,0-.07c0-.11-.14-.16-.41-.16l-.28,0-.33.11c-.23,0-.34-.1-.34-.29a.25.25,0,0,1,0-.16.7.7,0,0,1,.18-.12l.33-.1Zm2.32,0a1.6,1.6,0,0,1,.45.07.4.4,0,0,1,.13,0l.1,0,.2.14a.4.4,0,0,1,.14.15.4.4,0,0,1,0,.2l0,.07,0,.09-.1.12-.1.12-.1.11-.13.11-.37.29-.37.25-.33.19-.15,0-.15,0h-.12a.18.18,0,0,1-.1-.06l0-.1a.19.19,0,0,0,0-.08.22.22,0,0,1,.06-.13l.12-.06.15-.07.22-.11.39-.21.3-.23.16-.14a.31.31,0,0,0,.06-.13.14.14,0,0,0-.1-.15h-.38l-.11,0-.11,0-.09,0H36.5l-.21,0-.08,0,0,0,0,0a.68.68,0,0,1,0-.13v-.08a.22.22,0,0,1,0-.08,1,1,0,0,1,.15-.11l.1-.05.1,0a.73.73,0,0,1,.24-.07l.17,0Z"/><path class="cls-7" d="M37.25,144.41h.08l.08,0a.32.32,0,0,1,.15.17v.16a.22.22,0,0,1-.07.18l-.31.13.15.14a.49.49,0,0,1,.14.34v.14a.13.13,0,0,0,0,.06l0,.05a.75.75,0,0,1-.41.53l-.22.12-.15.05-.19,0h-.19l-.2,0-.36-.08-.07,0-.24.21-.12.1-.14.11-.31.23-.14.08-.24.16-.22.13-.45.25-.09,0-.11,0-.18.1-.18,0a.43.43,0,0,1-.39-.22l0-.06,0-.12a.24.24,0,0,1,.06-.17l.08-.06.07,0h.39a.67.67,0,0,0,.3-.08l.5-.27.18-.11.29-.19.19-.13.12-.13.1-.08.11-.12-.07-.14,0-.09,0-.1c0-.09.08-.16.2-.23l.16,0h.11l.14.06a.23.23,0,0,1,.13.15l0,.13,0,0,.13.09.14,0h.17l.12,0,.1,0a.9.9,0,0,0,.24-.16l.06-.1,0-.08a.31.31,0,0,0,0-.17l-.07-.08-.11-.06-.1-.07-.19-.09-.18-.13,0-.07,0-.09a.11.11,0,0,1,.06-.11l.17-.08h.32l.11,0,.11-.08.1-.06.1,0Z"/><path class="cls-7" d="M41.85,148.49a.22.22,0,0,1,.21.14l0,.1v.08a.09.09,0,0,1,0,.07L42,149l-.06,0-.13.06-.13.06-.24.23-.22.15-.38.25-.34.2-.19.11a.89.89,0,0,1-.23.11l-.37.15-.14,0a.28.28,0,0,1-.2-.09.32.32,0,0,1-.08-.22V150a.13.13,0,0,1,0-.07l.05,0,.18-.1.39-.17.32-.15.22-.11.21-.11.38-.25.22-.15.2-.15.22-.13A.3.3,0,0,1,41.85,148.49Z"/><path class="cls-7" d="M38.5,147.21a.46.46,0,0,1-.31-.09.3.3,0,0,1-.1-.26v-.09a.16.16,0,0,1,.09-.14.48.48,0,0,1,.2-.07,1.71,1.71,0,0,0,.63-.14l.52-.3a.83.83,0,0,0,.3-.15l.35-.24.14-.09.15-.13-.07-.06-.13-.14-.05-.12v-.12a.58.58,0,0,1,0-.13l.09-.07a.37.37,0,0,1,.23-.1.71.71,0,0,1,.31.1l.09,0,.12.08.36-.19.41-.23.22-.09a1.89,1.89,0,0,1,.44-.14.45.45,0,0,1,.21.07.26.26,0,0,1,.08.19v.07a.28.28,0,0,1-.08.12l-.15.1-.08,0-.25.11-.22.09-.35.1-.18,0,.28.14.22.11.11.1,0,0v.06a.19.19,0,0,1,0,.07l0,.07A.2.2,0,0,1,42,146l-.12,0h-.23l-.57-.29-.2.12-.2.15-.27.16-.39.25-.7.4L39,147l-.27.13-.15,0Z"/><path class="cls-7" d="M46.63,141.25l.14-.06.16,0a.35.35,0,0,1,.24.06.18.18,0,0,1,.09.16.23.23,0,0,1-.08.19l-.06,0-.11,0-.2.09-.59.27c-.31.14-.46.32-.46.55a.26.26,0,0,0,.09.18l.07,0,.09,0h.38l.08,0a.09.09,0,0,0,.07,0l.1,0,.1,0a.28.28,0,0,1,.15,0l.09.12a.28.28,0,0,1,0,.15c0,.15-.17.26-.44.34l-.17,0-.15,0-.24,0-.27-.07-.13-.05-.12-.07a.68.68,0,0,1-.34-.6.67.67,0,0,1,.13-.38l.13-.16.18-.17.14-.1.18-.12.32-.2Z"/><path class="cls-7" d="M46.33,144.17l.1,0h.1a.24.24,0,0,1,.14.09.27.27,0,0,0,0,.08v.08a.43.43,0,0,1-.24.28l-.13.07.06,0,.15.08a.51.51,0,0,1,.13.12.21.21,0,0,1,0,.12.43.43,0,0,1-.19.29l-.54.25.15.08.15.1a.5.5,0,0,1,0,.17V146a.12.12,0,0,1,0,.08l-.14.14-.3.23-.34.24-.26.19-.71.48-.25.16-.22.12-.08,0-.11.05-.29.13a1.29,1.29,0,0,1-.35.1.32.32,0,0,1-.14,0l-.08,0-.06-.06a.2.2,0,0,1-.06-.09.46.46,0,0,1,0-.14c0-.14.1-.23.31-.28l.14,0,.1,0,.13,0,.11,0,.14,0,.18-.09.18-.1.67-.42.32-.21.46-.33-.26-.16a.3.3,0,0,1-.1-.22.2.2,0,0,1,0-.1l.13-.13.21-.1.31-.16-.14-.08-.17-.11-.1-.06,0,0,0-.08v-.09l0,0,.12-.09h0l0,0,.17-.07.13-.05c.07,0,.12,0,.13-.07l.12-.08Z"/><path class="cls-7" d="M38.13,171.33c0,.44-.28.81-.85,1.11a1.24,1.24,0,0,1-.58.18c-.56,0-.83-.24-.83-.71a1.19,1.19,0,0,1,.47-.92,1.59,1.59,0,0,1,1-.39.91.91,0,0,1,.31.05.66.66,0,0,1,.47.68Zm-.51.08c0-.19-.14-.29-.42-.29a.73.73,0,0,0-.51.25.7.7,0,0,0-.25.52c0,.12.08.19.25.19h.12a.93.93,0,0,0,.51-.23C37.52,171.7,37.62,171.56,37.62,171.41Z"/><path class="cls-7" d="M40.51,174.27l.1-.11.21-.15a.49.49,0,0,1,.24-.07h.06a.21.21,0,0,1,.13.07.27.27,0,0,1,.07.08.2.2,0,0,1,0,.11.45.45,0,0,1,0,.11l-.06.08-.07.09-.12.11-.13.09-.18.11-.16.09-.14.07-.16.06-.17.05-.16,0H35.71l-.08.1-.16.15-.21.17-.13.1-.21.12-.1,0-.13,0-.19,0a.29.29,0,0,1-.2-.26v-.1s0-.07.11-.09a.77.77,0,0,0,.23-.09.61.61,0,0,0,.25-.14L35,175l0-.1h-.1a.39.39,0,0,1-.17,0l-.08-.08-.06-.12v-.18c0-.17.11-.29.34-.35h.16l0,0h.13a.21.21,0,0,1,.12,0,.48.48,0,0,1,.29.22l.12.22h4l.08,0,.23,0a.57.57,0,0,0,.24-.13l.07-.08Z"/><path class="cls-7" d="M45.92,170.46H46l.07,0a.2.2,0,0,1,.07.1l0,.12,0,.1c0,.15-.07.22-.2.22a2,2,0,0,0-.37.07l-.15.06-.11.05-.12.06-.09.07-.11.12-.11.13a.21.21,0,0,0,.1.13l.15.07h.68l.09,0a.23.23,0,0,1,.09.21.19.19,0,0,1-.15.2l-.2.05-.27,0h-.22l-.1,0-.29-.06a.52.52,0,0,1-.36-.2,1,1,0,0,1-.14-.46l0,.07a.18.18,0,0,1-.09.07l-.08.08-.22.15-.35.23-.24.14-.2.12-.22.09-.19.08-.14,0h-.11c-.13,0-.2-.07-.2-.22l0-.15a.17.17,0,0,1,.11-.09l.15,0,.19-.07a2.47,2.47,0,0,0,.76-.41l.15-.13.16-.15-.59,0-.15,0h-.09l-.08,0a.22.22,0,0,1-.15-.24.23.23,0,0,1,.21-.25l.22,0h.57a.73.73,0,0,1,.42.1.25.25,0,0,1,.09.13l.08.14.08.19.1-.1.06,0,.05,0,.08-.05.15-.14.24-.17.44-.28A.84.84,0,0,1,45.92,170.46Z"/><path class="cls-7" d="M43.84,173.9a.51.51,0,0,1,.34.09.23.23,0,0,1,.07.14v.1l-.08.07-.06,0-.1.06a.29.29,0,0,0,0,.38l.12.08.06,0h.08l.13,0,.11-.08.1-.08.11-.08.19,0H45a.34.34,0,0,1,.12.12l0,.06v.08a.54.54,0,0,1-.08.15l-.13.1-.15.09-.18.13-.54.35-.61.36-.33.18-.29.14-.26.13-.32.14-.24.07c-.26,0-.38-.11-.38-.32a.4.4,0,0,1,.07-.21.22.22,0,0,1,.07-.09.11.11,0,0,1,.07,0l.1,0,.13,0h.14a2,2,0,0,0,.34-.15l.62-.31.3-.17.39-.26s0-.07,0-.08h-.09l-.16,0a.43.43,0,0,1-.22-.14l0-.06,0-.11,0-.18v-.07a.11.11,0,0,1,0-.06l.08-.2a.47.47,0,0,1,.18-.24l.06-.05.08,0Z"/><path class="cls-7" d="M48.84,170.12a.24.24,0,0,1,.09-.06H49c.17,0,.25.11.25.33a.16.16,0,0,1-.06.14,9.47,9.47,0,0,1-1,.7,3.67,3.67,0,0,1-.47.26,4.43,4.43,0,0,1-.45.2l-.22.08a.28.28,0,0,1-.12,0,.31.31,0,0,1-.08-.12l0-.06v-.1a.07.07,0,0,1,0-.05.28.28,0,0,1,0-.12s0-.05,0-.05l.07,0a2.51,2.51,0,0,0,.79-.36A7.1,7.1,0,0,0,48.84,170.12Zm.52.91a.29.29,0,0,1,.17-.06c.17,0,.26.11.26.33a.15.15,0,0,1,0,.08s0,0,0,.06a9.36,9.36,0,0,1-1,.66,8.23,8.23,0,0,1-1,.5l-.13,0-.1,0a.23.23,0,0,1-.2-.15v-.21q0-.12.15-.18a5,5,0,0,0,.79-.41l.25-.15c.13-.07.25-.15.37-.23A5.2,5.2,0,0,0,49.36,171Z"/><path class="cls-7" d="M48.32,173.9h.41a.66.66,0,0,1,.21,0l.21.06c.27.06.4.17.4.35a.49.49,0,0,1-.08.24l-.09.14-.14.13-.2.19-.24.19-.2.15-.31.21a8.26,8.26,0,0,1-.92.51l-.38.19-.19.06-.23.08-.16,0-.12,0-.07,0-.1-.08-.07-.12,0-.05c0-.17.06-.25.16-.27l.17,0h.15l.18,0,.1,0,.12,0,.15-.07.19-.1.32-.15.15-.07.25-.14.28-.15.16-.11.1-.07.13-.12a1,1,0,0,0,.18-.17l0-.06v0a.08.08,0,0,0,0,0l-.08,0h-.07l-.18,0h-.22l-.29,0h0l-.08,0-.1,0-.06,0H47.4a.27.27,0,0,1-.18-.23.34.34,0,0,1,0-.19.46.46,0,0,1,.18-.13l.15-.05.16-.05Z"/><path class="cls-7" d="M74.05,190.33h.12l.09,0,.27.05.28.08.19.08a.47.47,0,0,1,.26.37l0,.13-.07.12-.08.11-.19.16-.68.45-.62.33-.26.11-.23,0a.29.29,0,0,1-.19-.08l0-.08v-.11l0-.12.09-.1.22-.11.41-.17.54-.28.21-.11.16-.12,0-.07c0-.1-.14-.15-.41-.15l-.28,0-.32.12c-.24,0-.35-.1-.35-.29a.23.23,0,0,1,0-.16.7.7,0,0,1,.18-.12l.33-.1Zm2.32,0a2,2,0,0,1,.45.06l.13.05.1,0,.2.14a.35.35,0,0,1,.18.35l0,.07,0,.09-.1.12-.1.11-.1.12-.13.11-.37.29-.37.25-.33.19-.14,0-.16,0h-.12a.18.18,0,0,1-.1-.06l0-.1a.19.19,0,0,0,0-.08.22.22,0,0,1,.06-.13l.12-.06.15-.07.23-.11.38-.21.3-.24.16-.13a.4.4,0,0,0,.06-.13.14.14,0,0,0-.1-.15l-.23,0h-.15l-.1,0L76,191,76,191h-.08l-.2,0-.09,0a.07.07,0,0,1,0,0l0,0a.4.4,0,0,1,0-.12v-.08a.41.41,0,0,1,0-.09l.15-.1.1-.05.1,0a1.05,1.05,0,0,1,.24-.06l.17,0Z"/><path class="cls-7" d="M76.62,193.5h.09l.07,0a.29.29,0,0,1,.15.17v.15c0,.09,0,.15-.07.18l-.31.13.15.15a.49.49,0,0,1,.14.33v.15a.11.11,0,0,0,0,.05.08.08,0,0,1,0,0,.75.75,0,0,1-.41.54l-.22.12-.15.05-.19,0h-.19l-.19,0-.37-.09-.07,0-.24.2-.11.11-.15.11-.31.23-.13.08-.25.15-.22.14-.45.25-.09,0-.11,0-.18.1-.18,0a.43.43,0,0,1-.39-.22l0-.06,0-.12a.22.22,0,0,1,.06-.17l.08-.06.07,0h.39a.66.66,0,0,0,.3-.07l.5-.27.18-.11.29-.19.19-.14.12-.13.1-.08.11-.12L74.5,195l0-.1,0-.09a.32.32,0,0,1,.2-.23l.16,0H75l.14.06a.29.29,0,0,1,.14.15v.12l0,0,.13.08.14.06h.17l.12,0,.1,0a.66.66,0,0,0,.24-.15l.06-.1,0-.09a.27.27,0,0,0,0-.16l-.07-.08-.11-.07-.1-.06-.19-.09-.18-.13,0-.07,0-.09a.13.13,0,0,1,.06-.12l.17-.07h.32l.11,0,.11-.08.1-.06.11,0Z"/><path class="cls-7" d="M81.52,191.12c0,.44-.29.81-.86,1.11a1.21,1.21,0,0,1-.58.18c-.55,0-.83-.24-.83-.71a1.14,1.14,0,0,1,.48-.91,1.53,1.53,0,0,1,1-.4,1,1,0,0,1,.31.05.64.64,0,0,1,.25.15A.65.65,0,0,1,81.52,191.12Zm-.52.09c0-.2-.14-.3-.41-.3a.75.75,0,0,0-.51.25.71.71,0,0,0-.26.52c0,.12.09.19.25.19h.13a.91.91,0,0,0,.5-.23C80.9,191.49,81,191.35,81,191.21Z"/><path class="cls-7" d="M79.42,193.68l.17,0a.36.36,0,0,1,.24.13l.06.11A.26.26,0,0,0,80,194a.24.24,0,0,0,.12,0l.11-.1.09-.07.08-.08.08,0,.13,0h.07l.06,0,.1.05.05,0,0,0L81,194l0,.13h0l.06,0a.6.6,0,0,0,.25-.07l.11-.09.11-.11,0,0,.07-.05.15-.07.12,0h.11a.1.1,0,0,1,.08,0l.07.09,0,.07a.4.4,0,0,1-.09.27l-.13.15s-.07.07-.15.11l-.17.09-.19.08-.2.06-.36.07a.47.47,0,0,1-.29-.08l-.12-.09-.12-.12h-.22a.44.44,0,0,0-.17,0,.23.23,0,0,0-.12.06l-.24.22-.36.3-.37.28-.11.07-.13.09-.17.1-.52.3-.4.22-.17.07-.18.06-.16,0h-.29l-.13,0a.33.33,0,0,1-.16-.32.26.26,0,0,1,.16-.24h.51a1.14,1.14,0,0,0,.36-.14l.36-.19.41-.22.38-.25.29-.22.07-.09a.19.19,0,0,0,0-.08L79,194.2V194s0,0,0-.06l.07-.1A.54.54,0,0,1,79.42,193.68Z"/><path class="cls-7" d="M86.09,190.34l.15-.06.16,0a.32.32,0,0,1,.23.06.17.17,0,0,1,.1.16.21.21,0,0,1-.09.19l-.06,0-.1,0-.21.09-.58.26c-.31.15-.46.33-.46.55a.26.26,0,0,0,.09.19l.07,0,.09,0,.2,0h.18l.08,0,.07,0,.1-.05.1,0a.28.28,0,0,1,.15,0l.09.12a.28.28,0,0,1,0,.15c0,.15-.18.26-.44.34l-.17,0-.15,0-.24,0-.27-.08-.13,0-.12-.08a.66.66,0,0,1-.34-.59.65.65,0,0,1,.13-.38l.13-.16.17-.17.15-.11.18-.12.32-.19Z"/><path class="cls-7" d="M85.16,193.69h.12l.1,0h.18a.41.41,0,0,1,.21,0l.22.05c.26.06.4.18.4.35a.46.46,0,0,1-.08.24l-.1.14-.13.14-.2.18-.24.19-.21.15-.31.21a7.46,7.46,0,0,1-.92.51l-.38.19-.18.06-.23.08-.17,0-.12,0-.07,0-.1-.07-.06-.13,0,0c0-.16,0-.25.16-.27l.17,0h.15l.17,0,.11,0,.12,0,.14-.06.2-.11.32-.15.15-.07.25-.14.27-.15.16-.11.1-.07.14-.11.18-.18,0-.06h0a.07.07,0,0,0,0,0l-.08,0h-.08l-.17,0h-.22l-.29.05h0l-.08,0-.09,0-.07,0h-.34a.29.29,0,0,1-.18-.23.45.45,0,0,1,0-.19.68.68,0,0,1,.18-.13l.16-.05.15,0Z"/><path class="cls-7" d="M90.6,197.58a.21.21,0,0,1,.21.14l0,.1v.08a.1.1,0,0,1,0,.07l-.08.1-.06,0-.13.06-.13.07-.24.23-.22.15-.38.25-.34.2-.2.11a1.1,1.1,0,0,1-.22.11l-.38.15-.14,0a.32.32,0,0,1-.2-.08.42.42,0,0,1-.08-.22l0-.1s0-.06,0-.07l0,0,.18-.1.39-.17.33-.16.22-.1.2-.11.39-.25.22-.15.2-.16.22-.12A.25.25,0,0,1,90.6,197.58Z"/><path class="cls-7" d="M90.18,193.74l.1-.07.1,0,.15,0a.13.13,0,0,1,.09.09l0,.11a.21.21,0,0,1,0,.13l-.13.12-.17.18-.11.08-.09.07-.68.43-.7.4-.34.17-.34.14-.34.13a1.11,1.11,0,0,1-.34.06.58.58,0,0,1-.3-.09l-.1-.09,0-.05s0-.05,0-.08v-.08a.35.35,0,0,1,0-.06.26.26,0,0,1,.15-.16l.13-.05.13,0,.21,0h.07a1.21,1.21,0,0,0,.53-.13l.37-.18.84-.49.6-.39Z"/><path class="cls-7" d="M143.44,79.85h.22l.09,0a.43.43,0,0,1,.22.29l0,.16,0,.12a.22.22,0,0,1,0,.09l0,.13-.07.24-.08.22-.08.17-.09.19a1,1,0,0,1-.28.35l-.13,0-.07,0-.07,0-.08,0-.1-.07,0-.12a.25.25,0,0,1,0-.1.15.15,0,0,1,.05-.08l.11-.15.11-.16.19-.36.07-.18a.18.18,0,0,1,0-.06.08.08,0,0,0,0,0h-.05a.33.33,0,0,0-.21.07l-.17.15-.38.32-.74.57-.26.19-.3.18-.24.13-.19.07-.15,0-.14,0-.08,0a.22.22,0,0,1-.09-.21v-.1a.19.19,0,0,1,0-.08l0-.09s.06-.07.15-.11l.2,0H141l.11,0,.24-.12.37-.24.17-.13.18-.15.23-.2.24-.2.23-.21L143,80A.64.64,0,0,1,143.44,79.85Z"/><path class="cls-7" d="M143.37,76.34h.27l.09,0a.86.86,0,0,1,.5.12.38.38,0,0,1,.18.33.94.94,0,0,1-.32.55l-.2.22-.26.21a1.08,1.08,0,0,1-.24.18l-.3.16-.46.19-.22.1-.16,0s-.07,0-.13-.11l0-.06,0-.09a.28.28,0,0,1,0-.16.48.48,0,0,1,.19-.13l.19-.06.23-.07.24-.1a1.18,1.18,0,0,0,.75-.69l0,0-.05,0-.17,0H143l-.08,0-.1,0-.08.05-.08,0h-.12a.17.17,0,0,1-.12-.05l-.09-.12,0-.1a.23.23,0,0,1,.11-.2,2.41,2.41,0,0,1,.43-.17A2,2,0,0,1,143.37,76.34Z"/><path class="cls-7" d="M140.4,79.72l.12,0h0a.13.13,0,0,1,.08,0l.05,0,.07.08,0,.12,0,.08a.66.66,0,0,1-.06.12l-.1.08-.27.21-.36.26-.35.23-.59.35-.24.12a2.84,2.84,0,0,1-.36.17l-.13,0-.16.05H138a.17.17,0,0,1-.12-.06.2.2,0,0,1-.11-.14v-.11a.45.45,0,0,1,.08-.19l.13-.14.1-.11.06-.09,0-.15v-.52a.5.5,0,0,1,0-.19s0,0,0,0l.1,0,.15,0h.13a.19.19,0,0,1,.13.07.27.27,0,0,1,.12.25v.08l0,.08-.09.19-.07.27-.06.19.11,0,.14-.08.19-.11.25-.16.46-.3.1-.08L140,80l.27-.21Z"/><path class="cls-7" d="M140.12,76.34h.28l.09,0a.88.88,0,0,1,.5.12.38.38,0,0,1,.18.33.92.92,0,0,1-.33.55l-.19.22-.26.21a.94.94,0,0,1-.25.18,2.11,2.11,0,0,1-.3.16l-.45.19-.23.1-.15,0s-.07,0-.13-.11l0-.06,0-.09a.28.28,0,0,1,.05-.16.48.48,0,0,1,.19-.13l.19-.06.23-.07a1.92,1.92,0,0,0,1-.79l0,0,0,0-.17,0h-.39l-.08,0-.1,0-.09.05-.08,0h-.12a.17.17,0,0,1-.12-.05l-.08-.12,0-.1a.22.22,0,0,1,.1-.2,3.2,3.2,0,0,1,.43-.17A2,2,0,0,1,140.12,76.34Z"/><path class="cls-7" d="M136.12,79.73a.48.48,0,0,1,.33.09.16.16,0,0,1,.07.14V80l0,0-.07.07-.06,0-.1,0a.26.26,0,0,0-.06.15.27.27,0,0,0,.11.23l.12.08.06,0h.08l.13,0,.11-.08.1-.08.11-.08.19,0h.08a.36.36,0,0,1,.13.12l0,.06v.08a.44.44,0,0,1-.09.15l-.12.1-.15.09-.18.13-.55.35-.61.36-.33.18-.28.14-.26.13-.33.14-.23.07c-.26,0-.39-.11-.39-.32A.52.52,0,0,1,134,82a.35.35,0,0,1,.07-.09.13.13,0,0,1,.08,0l.1,0,.13,0h.14a1.73,1.73,0,0,0,.33-.15l.62-.31.31-.17.39-.26a.09.09,0,0,0,0-.08h-.08l-.16,0a.43.43,0,0,1-.22-.14l0-.06,0-.11,0-.18v-.07s0,0,0-.06l.09-.2a.47.47,0,0,1,.18-.24.22.22,0,0,1,.06,0l.08,0Z"/><path class="cls-7" d="M138.06,76.79a.27.27,0,0,1,.18-.07c.17,0,.25.11.25.34v.08a.12.12,0,0,1,0,0,9.9,9.9,0,0,1-1,.67,9,9,0,0,1-1,.49l-.13.05-.1,0c-.09,0-.15-.05-.2-.16v-.21c0-.08,0-.14.16-.17a7.41,7.41,0,0,0,.77-.41l.26-.15.37-.23Z"/><path class="cls-7" d="M134.33,80.1l.1-.11.21-.15a.53.53,0,0,1,.25-.07H135a.23.23,0,0,1,.13.07.24.24,0,0,1,.06.08.2.2,0,0,1,0,.11.52.52,0,0,1,0,.11l-.06.08-.07.09-.12.11-.12.09-.18.11-.17.09-.14.07-.16.06-.17,0-.15,0h-4.27l-.08.1-.16.15-.21.17-.13.1-.22.12-.09,0-.14,0-.19,0a.28.28,0,0,1-.19-.26v-.1s0-.07.11-.09a.91.91,0,0,0,.23-.09.57.57,0,0,0,.24-.14l.06-.07.05-.1h-.11a.42.42,0,0,1-.17,0l-.07-.08-.06-.12,0-.1v-.08c0-.17.12-.29.34-.35h.17l0,0h.13a.27.27,0,0,1,.12,0,.48.48,0,0,1,.29.22l.12.22h4l.08,0,.23,0a.57.57,0,0,0,.24-.13l.08-.08Z"/><path class="cls-7" d="M132,77.16c0,.44-.28.81-.85,1.11a1.24,1.24,0,0,1-.59.18c-.55,0-.82-.24-.82-.71a1.19,1.19,0,0,1,.47-.92,1.59,1.59,0,0,1,1-.39,1,1,0,0,1,.31,0,.69.69,0,0,1,.47.68Zm-.52.08c0-.19-.13-.29-.41-.29a.9.9,0,0,0-.77.77c0,.12.09.19.25.19h.13a.93.93,0,0,0,.51-.23A.6.6,0,0,0,131.49,77.24Z"/><path class="cls-7" d="M187.84,42.15h2v6.62c0,1.53.1,3.3,2.68,3.3s2.67-1.77,2.67-3.3V42.15h2v7.28c0,2.91-1.87,4.36-4.67,4.36s-4.67-1.45-4.67-4.36Z"/><path class="cls-7" d="M206.5,53.52h-7.62a5,5,0,0,1,2.46-4.22c1.45-1,3.33-1.93,3.36-3.66a1.76,1.76,0,0,0-1.88-2c-1.43,0-1.86,1.23-1.91,2.79h-1.82c0-2.47,1.36-4.3,3.84-4.3a3.31,3.31,0,0,1,3.59,3.42c0,1.77-1.22,2.87-2.49,3.76s-2.64,1.58-3,2.57h5.43Z"/><path class="cls-7" d="M144.93,86.86h2v6.63c0,1.53.1,3.3,2.68,3.3s2.67-1.77,2.67-3.3V86.86h2v7.28c0,2.92-1.87,4.37-4.67,4.37s-4.67-1.45-4.67-4.37Z"/><path class="cls-7" d="M159,91.71c1.21,0,2.47-.39,2.47-1.76a1.59,1.59,0,0,0-1.74-1.57,2,2,0,0,0-1.85,2.27h-1.82a3.64,3.64,0,0,1,3.7-3.79c1.74,0,3.52,1,3.52,3a2.35,2.35,0,0,1-1.58,2.39v0a2.64,2.64,0,0,1,2,2.79c0,2.1-1.82,3.41-3.95,3.41a3.6,3.6,0,0,1-3.92-3.89h1.81A2.06,2.06,0,0,0,159.77,97a1.94,1.94,0,0,0,2.13-2c0-1.74-1.48-2-2.91-1.9Z"/><path class="cls-7" d="M30,107.84h2v6.62c0,1.53.1,3.3,2.68,3.3s2.67-1.77,2.67-3.3v-6.62h2v7.28c0,2.91-1.87,4.36-4.67,4.36S30,118,30,115.12Z"/><path class="cls-7" d="M48.74,116.57H47.31v2.64H45.59v-2.64H40.81v-1.8l4.78-6.71h1.72v7.07h1.43Zm-6.53-1.44h3.38v-4.9h0Z"/><path class="cls-7" d="M179.42,0h2V6.63c0,1.53.09,3.29,2.68,3.29s2.67-1.76,2.67-3.29V0h2V7.28c0,2.92-1.86,4.36-4.66,4.36s-4.67-1.44-4.67-4.36Z"/><path class="cls-7" d="M190.68,2.07c1.53,0,3-.51,3.25-1.85h1.49V11.37h-2V3.5h-2.74Z"/></g><g id="Lines"><polyline class="cls-8" points="235.53 208.47 152.13 204.2 52.08 199.05 0.01 196.38"/><line class="cls-8" x1="64.49" y1="42.33" x2="204.56" y2="94.85"/><line class="cls-8" x1="52.68" y1="60.8" x2="153.43" y2="203.66"/><line class="cls-8" x1="60.8" y1="27.33" x2="213.61" y2="26.54"/></g></g></g></svg>