<svg xmlns="http://www.w3.org/2000/svg" viewBox="0 0 275.55 213.52"><defs><style>.cls-1,.cls-4{fill:#f1f2f2;}.cls-2,.cls-3{fill:#396287;}.cls-3,.cls-4{fill-rule:evenodd;}.cls-5{fill:#383838;}.cls-6{fill:none;stroke:#1a1a18;stroke-miterlimit:22.93;stroke-width:0.66px;stroke-dasharray:6 3;}</style></defs><title>ADH_1</title><g id="Layer_2" data-name="Layer 2"><g id="Layer_1-2" data-name="Layer 1"><g id="I2"><path class="cls-1" d="M187.41,89.6c0,.64-.08,1.33-.15,2.06l0,8.5a81.51,81.51,0,0,1-1.66,11.27l-.53,2.24.07,0c0,3.63-2.86,7.33-3.5,10.91-.24,3.44-.42,6.76-2.7,10.14l-.18.38L176.45,146c-2.76,13.58-9.34,12.71-6.31,18.74.4,1.54-.13,2.36-1.57,3.52-.57.39-1.17.75-1.77,1.12-3,2.62-5.25,6.31-8.21,9.1l-1.91,1.89c-.4.26-.64.73-1.1,1.15a10.26,10.26,0,0,0-1,1.06l-91.09-33-1-13.86c-4.39-6.46-4.72-10-4.85-10.34l-.31-.9A20.92,20.92,0,0,1,56,122.26c-.75-1.4-.11-2.7-.37-4.05a8.21,8.21,0,0,0-1.58-2.64l-.51-.73a7.53,7.53,0,0,1-1-1.86l-.11-.27a4.79,4.79,0,0,1-.35-1.59l0-.44.09-.05-.06-.08a2.89,2.89,0,0,1,.55-1.47l.13-.35.27-.33c.49-.64.93-1.07,1.57-1.8l.73-1,.49-.56a5.9,5.9,0,0,0,.84-1l.31-.44.4-.35.38-.47A15.58,15.58,0,0,0,60,97.35l-1-3.9-.34-8.39a15.42,15.42,0,0,0,.2-2.85V80.3c-.37-4.18.25-8.43.53-12.66l0-1.53c.09-.51-.07-.91,0-1.42a12.78,12.78,0,0,0-.18-1.5Z"/><path class="cls-2" d="M71.63,135.19a1.9,1.9,0,1,1-1.9-1.9,1.9,1.9,0,0,1,1.9,1.9Z"/><path class="cls-3" d="M150.64,150.7l.31-.36.41-.72,0-.05c.14,0,.44.22.57.24l1,.52a15.52,15.52,0,0,1,1.26,1.21l.33.43a1.32,1.32,0,0,1-.17.63,3.11,3.11,0,0,1-3.07.08,2,2,0,0,1-1-1.6,3.68,3.68,0,0,0,.31-.38Z"/><path class="cls-3" d="M84.74,131.8c-.37-.13-.69.3-1,.89-.19.4.25.58.6.3l.41-.27a.62.62,0,0,0,.37-.66c-.11-.2-.21-.21-.39-.26Z"/><path class="cls-3" d="M90.51,96.89s0,0,0,0l-.31.1-.25.12,0,0-.44.14c-1.85.54-3.82.89-5.7-.46,0-1.5-1.49-2.63,4.44-5.58.14-.06.27-.14.41-.21l.32,0,0-.06.33-.1c.25-.11.51-.21.76-.33s.23-.1.35-.15c.42-.15.84-.31,1.25-.48l.91-.11a21.16,21.16,0,0,0,3.24-.5,3.39,3.39,0,0,1,.8-.51l.5-.17a7.63,7.63,0,0,0,2.56-.22l.65.29.56.39a4.64,4.64,0,0,1,.57.72c.35,2.12-4.26,3.78-5.9,4.82Z"/><path class="cls-3" d="M113.55,147.63c0,1.81-2.25,3.3-5,3.3-.21,0-.42,0-.62,0-.24.48-.74.41-1.23.72l-.23,0-.42.14-.34.11c-1,.48-1.94,1.19-3,.45-.17-.1-.17-.26-.4-.4l-.37-.38a19,19,0,0,1-1.06-2.25l-.3-.5c-.36-1.18-1-1.71-1.07-3.14l.6-1.27a4.14,4.14,0,0,1,2.59-1.2c.25,0,3.38.55,6,1.12,1.89.35,4.55,1.22,4.83,3.3Z"/><path class="cls-3" d="M125.62,171.94a.28.28,0,0,1-.09.13l-8.32-3c.09-.06.15-.13.24-.2l.13,0c.25-1.28,2.06-2.28,4.25-2.28,2.35,0,4.28,1.15,4.28,2.55,0,.06,0,.13,0,.17s.09.25.16.38C126.48,170.39,126,171.14,125.62,171.94Z"/><path class="cls-3" d="M135.43,175.66,131,174.07l.16-.14.22,0,.49-.29.24-.13a2.8,2.8,0,0,1,3,.44l.2.33,0,.29Z"/><path class="cls-3" d="M144.46,173.87a10.43,10.43,0,0,1-.91,3.14,2.65,2.65,0,0,1-.73,1.33l-5.07-1.84a2.53,2.53,0,0,1,.07-1,1.69,1.69,0,0,1,.51-.85c.55-.44,1.28-1.06,1.86-1.44.93-.42,2.63-1,4-.17A1.57,1.57,0,0,1,144.46,173.87Z"/><path class="cls-3" d="M144.77,162.83c.22,0,.41-.12,1,.51.2.09.39.15.58-.07.19,0,.3-.17.35-.38a1.14,1.14,0,0,0,.2-.85c.08-.54-.26-.56-.57-.86a.92.92,0,0,0-.75.38.7.7,0,0,1-.64.2h0c-.35-.21-.35-1.19-.14-1.47s.16-.34.58-.35l.47.26H146a6.24,6.24,0,0,1,2.22.37,2.78,2.78,0,0,1,1.3,1.28c0,.19.08.39.11.58a2.83,2.83,0,0,1-.95,1.13,9.42,9.42,0,0,1-1.84.95l-.49.1-.88-.33a2.21,2.21,0,0,1-.7-1.44Z"/><path class="cls-3" d="M70,64.67Z"/><path class="cls-2" d="M70,64.61l0,0,0,0"/><path class="cls-3" d="M78.86,70.78c.84.43,1.7.8,2.48.15a3.5,3.5,0,0,1,.75-.33c.92-.35,2,.42,2.88.12l.87.13.69.3,0,0a6.73,6.73,0,0,1,1-.24h0l.22-.08.18,0c.2,0,.41,0,.62,0a5.87,5.87,0,0,1,2.31.45l.53,0c.69.28,1.32.49,1.63,1.12l.16.62-.12.38-.28.23-.29.37-.41.37-.34.15-.26,0a4,4,0,0,1-1.23.56,1.82,1.82,0,0,1-1.13.21,5.44,5.44,0,0,1-.57,0,5.67,5.67,0,0,1-2.63-.61c-.5-.2-1-.44-1.51-.66-1.3-.51-2.13-1.22-3.57-1.47a24.35,24.35,0,0,1-3.42-.7l-.49-.11-.24-.32-.11-.35V71l0-.24.21-.2a2.58,2.58,0,0,1,1.69.08l.36.1Z"/><path class="cls-3" d="M98.05,79.58l0,0Z"/><path class="cls-2" d="M98.35,79.75h0"/><path class="cls-2" d="M98.25,79.7h0"/><path class="cls-2" d="M98.18,79.66h0"/><path class="cls-2" d="M105.45,73.67s0,0,0,0,0,0,0,0"/><path class="cls-2" d="M105.5,73.65h0"/><path class="cls-3" d="M108.51,73.33a1.16,1.16,0,0,0,.06.15,3,3,0,0,0,3,1.44,12.21,12.21,0,0,0,1.57-.62Z"/><path class="cls-3" d="M94.57,123h.1v0l-1.61.23s-.33.06-.33,0l-.91.05a2.59,2.59,0,0,1-.68-.2.72.72,0,0,1-.22-.86l0-.14,0-.24a4.62,4.62,0,0,1,1.22-1.46,5.27,5.27,0,0,1,2-.63v.1c.28-.13.52-.18.76-.27s.66-.2,1-.29a4.11,4.11,0,0,1,2.82.38l.4.29a.81.81,0,0,1,.16.77c-.13.22-.22.58-.45.66a5.24,5.24,0,0,1-1,.74,2.73,2.73,0,0,1-.67.37,10.62,10.62,0,0,1-2.42.44Z"/><path class="cls-3" d="M69,107.63a61.29,61.29,0,0,1-7.4-.24,1.2,1.2,0,0,1,.58-1.25,3.42,3.42,0,0,0-1.36-.3c-.56,0,1.19-3.23,1.24-3.49.51-2.52-.67-4.56-1.28-6.86l0-.08s0,0,0,0a.14.14,0,0,1,0-.06.42.42,0,0,0,0-.1,6.53,6.53,0,0,1-.27-2.42,13,13,0,0,1,.17-1.38c.14-.79.32-1.59.44-2.39a11,11,0,0,0,.11-1.52,15.44,15.44,0,0,1,.72-3.74,16.22,16.22,0,0,1,.88-2.13l.08-.05.15-.11.37.05.22.13.12.15.12.15.15.28.15.27.09.36.09.36.1.17,0,.27.15.87v.25c.75,2.51-1.09,5.07.75,7.59.65,1,2,1.71,1.47,2.82-.22.4-.53.55-.91,1.06-.55.61-.28,1.13-.14,1.7,0,.08,0,.16,0,.24l.18.36.2.35.29.73.1.41a.35.35,0,0,1,0,.07l0,.29.13.49a5.55,5.55,0,0,0,.47,2l.26.35.07.08.15.14c.21.19.26.29.45.48l.23.41,0,.08a1.24,1.24,0,0,1-.49,1.22l-.15.24-.17,0-.21.41v.19l.16.12.83.07a8.43,8.43,0,0,0,1.53-.17,1.58,1.58,0,0,0,.31-.09c.2-.06.38-.15.59-.22l.18-.22,0-.23-.14-.3-.33-.31-.15,0-.12,0-.14-.07-.13-.06-.09-.11-.09-.1-.05,0-.15-.13-.28-.83a4.08,4.08,0,0,0-.85-1.41,2.51,2.51,0,0,1,.06-.77l.2-.69.17-.45a6,6,0,0,0,.25-3.22v-.18L69,96.83,68.52,96l-.07-.14,0,0a1.24,1.24,0,0,0,0-.16A11.72,11.72,0,0,1,68,91.8l.53-.56.09-.09.09-.1.14-.14.43-.47.1-.13,0,0,.12-.36,0-.87s0,.11,0,.16a5.3,5.3,0,0,1-.35,1.17l-.06.13-.06,0-.06,0-.36.08-.41-.15-.14-.23-.14-.22a6.85,6.85,0,0,1-.57-2.66v-.36a5.46,5.46,0,0,1,.26-1.42l.21-.23.2-.24.12-.06.23-.11a1,1,0,0,1-.24,0,8.77,8.77,0,0,1-1.45-.62l-.27-.29h-.05L66,83.92l-.13-.12-.11-.58v0a.73.73,0,0,1,.39-.36l.2-.08a4.5,4.5,0,0,1,2.66.62c.25.13.51.28.77.45a2.2,2.2,0,0,1-.07-.21l0,0a1.06,1.06,0,0,1,.37.87l.52,1.3.11.3a9.53,9.53,0,0,1,.41,2.26l.05.09c-.17,1.45-.46,2.88-.66,4.28a9.68,9.68,0,0,0,.38,3.73l.09.19c.39.73.48,1.6.86,2.31a17.3,17.3,0,0,1,1.77,3c.65,2.09-2.17,1.37-1.4,2.69.54,0,1.1,0,1.64,0,1,1.84-3.87,3-4.82,3Z"/><path class="cls-3" d="M134.33,122.58c2.34-.86,3.1-.67,3.82-.34,2.92,1.38,1.89,2.37,1.89,2.7s-.11.19-.29.43l-.32.23-.26,0-.77.25-1,.46a2.57,2.57,0,0,1-1.82-.39c-.48-.44-1-.9-1.43-1.35a1.65,1.65,0,0,1-.15-1.86c.1-.06.22-.1.32-.17Z"/><path class="cls-3" d="M143.82,109.94a7.4,7.4,0,0,1-1.69-.45c-.58-.19-1.13-.13-1.46-.39,0-.07-.07-.13-.1-.19s0-.25,0-.37a.62.62,0,0,1,.36-.78c.3-.21,1.11.09,1.71.11.41-.09.81-.33,1.22-.19a1.34,1.34,0,0,1,.94,1.17,1.59,1.59,0,0,1-.43.79.82.82,0,0,1-.54.3Z"/><path class="cls-3" d="M90.42,107.69h0a3.32,3.32,0,0,1-2.66-.69l-.17-.49.06-.1.15-.35.37-.3a9.18,9.18,0,0,0,2.3-1.32h0l0,0a5,5,0,0,1,3.19.91l.13.23a1.3,1.3,0,0,1,.09.7l-.5.79c-.16.18-.34.19-.53.34l-.27.09a9.33,9.33,0,0,1-1.57.25,3.61,3.61,0,0,0-.57,0l-.11,0Z"/><path class="cls-3" d="M90.87,155.2V155l.28-.3h.15l.6.43.67.38.17.41.05,0a1.47,1.47,0,0,1-.61,1.11l-.23.15-.3.1-.33-.18c-.33-.49-.12-1-.44-1.44l-.06-.37Z"/><path class="cls-3" d="M98.72,133.21a1,1,0,0,1,0,.19c0,1.23-2,3.85-4,3.85a4.83,4.83,0,0,1-3-.94c-.36.23-.69-.12-.84-.52a6.88,6.88,0,0,1-.48-2.57c.06-.22.12-.45.17-.68l.25-.36a4.18,4.18,0,0,1,1.41-.1h.36c.54-.29,1.07-.56,1.59-.85.59-.07.88,0,1.12.42a1.15,1.15,0,0,0,.4.8c.69.3,1.07,0,1.68,0a1.57,1.57,0,0,1,.59-.19l.45-.16a.79.79,0,0,1,.77.07c0,.15.07.3.11.44l-.51.65Z"/><path class="cls-3" d="M92.15,112.42c.21-.17.5-.19.7-.37a6.61,6.61,0,0,0,.71-.35,1.14,1.14,0,0,1,.85-.15c.4.08.54.1.69.56l.16.31c0,.12,0,.25,0,.37a1.07,1.07,0,0,1-.61.65l-.45.1-1.13.25a1.52,1.52,0,0,1-1.23-.37l-.2-.32a.83.83,0,0,1,.55-.68Z"/><path class="cls-3" d="M102.3,103.75a7.23,7.23,0,0,1-1.84,1.38,8.94,8.94,0,0,1-3.78.19c-1.35-.22-1.47-2.46,0-3.51,0-.09.4-.11.42-.2.27-.06.51-.12.77-.2a14,14,0,0,1,4.81,1.13,2.29,2.29,0,0,0,.14.27,1.34,1.34,0,0,1-.56.94Z"/><path class="cls-3" d="M98.39,94l.29-.27a4.94,4.94,0,0,1,.87-.15l.45,0,.54-.07a15.85,15.85,0,0,1,2.69-.92h.32c1.21,0,2.41.49,3.64.53l.71.26.15.32a3.29,3.29,0,0,1,.13,1.36l-.22.53h0c0,1-1.15,1.88-2.67,2.15h0l-.32.11-.06,0a5.25,5.25,0,0,1-2.89-.34c-1.24-.32-2-1.58-3-2.19a1.11,1.11,0,0,1-.53-.57l-.15-.68Z"/><path class="cls-2" d="M102.86,138.11v0"/><path class="cls-2" d="M102.88,138.07s0,0,0,0,0,0,0,0"/><path class="cls-2" d="M102.89,138h0"/><path class="cls-3" d="M109.77,136.65c.86.78,1.57.48,2.31,1.33a.3.3,0,0,1,0,.45,3.48,3.48,0,0,1-1.82.82h.08c-1.65.7-3.32,1.25-5,.76a7.6,7.6,0,0,1-2.41-.8c-.53-1,.14-2.22,1-3a10.29,10.29,0,0,1,1.58-1.16,1.46,1.46,0,0,0,.55-.25c.51-.18,3.18,1.25,3.7,1.86Z"/><path class="cls-3" d="M108.94,136.18h0Z"/><path class="cls-3" d="M103.31,114.57l.13-.65.22-.45.39-.43.18-.3.3-.24.31-.16.26-.23.27-.06.41-.13,0,0,.32-.09,1.08-.31.45-.14a4.74,4.74,0,0,1,1.71-.37l.58,0,0-.06.32,0a4.67,4.67,0,0,0,2-.48,8.42,8.42,0,0,0,1.28-1.7l.35-.33.23,0c1.21-.34,2.39.26,3.63.77l.43.3v.06l.17.25.1.23v0l-.29.68c-1.48.58-2.94.48-4.42.89l-.4.15-.36.23a6.52,6.52,0,0,0-1.14,1,6.26,6.26,0,0,1-1.55.93l-.28.2-1.25.71c-.45.32-.84.43-1.28.79l-.59.25a3,3,0,0,1-2.9-.39l-.55-.37-.21-.5Z"/><path class="cls-2" d="M108,161.07h0"/><path class="cls-2" d="M118.42,162a2.32,2.32,0,0,1-.22.36,7,7,0,0,0-1.06.82c-.27.19-.53.44-.8.64-.53.55-1,1.1-1.57,1.66a22,22,0,0,1-1.86,2l-6.18-2.23a9.25,9.25,0,0,1-.2-1.13c.18-.69.25-1.55.36-2.28l.22-.29c0-.07.11-.13.16-.22l.11-.07a11.75,11.75,0,0,0,.88-.95l.49-.38.22,0,0-.07.31-.22h.14l.42-.15,0,0c.73,0,1.26-.15,2-.06h.07l.66.06,1.33.42c.4.18.8.36,1.2.51.59.22,1.19.42,1.79.65a3,3,0,0,1,1.22.55,1.07,1.07,0,0,1,.24.33Z"/><path class="cls-3" d="M113.49,86.82a2.72,2.72,0,0,0,.9-.23l.21-.39-.06-.23a1.79,1.79,0,0,0-.16-.8l-.17-.17v-.15l-.53-.51-.9-.27h0l-.33.52-.19.22-.31.38-.23.17-.75.34-1.31.28-.45.12a4.09,4.09,0,0,0-1.65.6l-.4.6,0,.09.1.35c.14.28.57.46,1,.83,2.83.29,2.94-1.09,5.32-1.76Z"/><path class="cls-3" d="M111.78,140.51l.18-.4.32-.1.45.08.64.44v.23l-.22.35a1.14,1.14,0,0,1-1.29-.18l-.11-.32Z"/><path class="cls-3" d="M112.16,101.21l.25-.32.63-.21h.39l.23,0,.37.08.61.34.14.26,0,.5-.19.09-.54.21-.5,0a1.13,1.13,0,0,1-1.13-.14l-.34-.58.06-.1Z"/><path class="cls-3" d="M112.63,119.17c0-.17.05-.28.26-.33l1.09-.25.52-.15.68-.07.22.12.62.49.09.58v.2c-.08.13-.16.26-.25.39l-.23.1a2,2,0,0,1-.76.16,2.63,2.63,0,0,1-1.77-.49l-.33-.27c-.07-.13-.13-.27-.2-.4s.05,0,.06-.08Z"/><polygon class="cls-3" points="125.47 146.85 125.47 146.9 125.47 146.92 125.47 146.9 125.47 146.85"/><path class="cls-2" d="M125.48,146.74a.43.43,0,0,1,0,0,.43.43,0,0,0,0,0"/><path class="cls-2" d="M125.48,146.68v0"/><path class="cls-2" d="M125.58,145.8v0"/><path class="cls-2" d="M125.59,145.73s0,0,0,0,0,0,0,0"/><path class="cls-2" d="M125.94,145.51l-.11,0,.11,0"/><path class="cls-2" d="M126.08,145.56h0"/><path class="cls-3" d="M126.44,145.73h0c1.17.61,1.7,1.57,1.36,1.89,0,.1-.19.16-.38.13a1.24,1.24,0,0,1-.19.24c-1.12-1-2.56.57-3.83.45a9.35,9.35,0,0,1-1.58.2l-.79.28-.5.14-.14.1-.23.05-.25.19-.44.15-.81.15h-.83l-.73-.47c-.14,0,0-.16-.2-.23l-.07-1a2,2,0,0,1,.48-.9l.36-.3.8-.41.23-.08.4-.13.75-.48a6.77,6.77,0,0,1,1.39-.84l.26-.1.35-.15a4.65,4.65,0,0,1,1.12-.16,4.26,4.26,0,0,1,1.82.53,15.78,15.78,0,0,1,1.66.76Z"/><path class="cls-3" d="M115.84,130c.09-.06.2-.09.28-.15s0,0,0,0a5.33,5.33,0,0,1,4.23.24,3,3,0,0,1,.82,1.08.64.64,0,0,0,.1.13,1.05,1.05,0,0,1-.41,1,4.23,4.23,0,0,1-1.31.34,4.68,4.68,0,0,0-.9.2,3.11,3.11,0,0,1-1.71,0l-.69-.26c-.14-.17-.29-.32-.43-.48a2.68,2.68,0,0,0-.41-.64l-.06-.22c-.06-.82,0-.73.45-1.29Z"/><path class="cls-3" d="M117.71,86.54l-.21.17a3.77,3.77,0,0,1,2.75,0,6.07,6.07,0,0,1,1.62.73l.65.62c.14.26,0,.49.06.77l-.26.45-.21.24-.41.24-.35.33-.57.28-.64.47L120,91l-.47.36-.22.06-.06,0a6.11,6.11,0,0,1-2.86-.69l-.24-.21a2.21,2.21,0,0,1-1-.65l-.16-.85v-.3l0-.11,0-.1a1.76,1.76,0,0,1,.61-1.06,13,13,0,0,1,1.57-.81l.54-.14Z"/><path class="cls-3" d="M119.28,151.59c.09-.14.25-.14.39-.28l.76-.43a5.27,5.27,0,0,0,.72-.41h.37a3,3,0,0,1,2,0l.52.26c.42.15.66.57.94,1.1a3.27,3.27,0,0,1,0,1.32c.07.24-.6.74-.78.89-.41,0-.76.4-1.22.5a3.36,3.36,0,0,1-3.72-1l-.19-.45c-.33-.56,0-1,.19-1.49Z"/><path class="cls-3" d="M122.22,109.61l0-.25.3-.47a3.65,3.65,0,0,1,1.47-.84c1.58,0,3.44-.06,4.72,1.44v.41l-.22.28h-.19l0,0-.28.11-.3.19-.72.25-.25.13-.23.24h-.18l-.13.14-.22,0c-.42.16-.8.47-1.23.44a2.28,2.28,0,0,1-1.91-.53,1.76,1.76,0,0,1-.5-.67l-.07-.35-.1-.51Z"/><path class="cls-3" d="M122.17,90.7l.09-.16c.36-.24.72,0,1.08.19l.19.13a.75.75,0,0,1,.11.45.29.29,0,0,1-.19.23,2.09,2.09,0,0,1-.61,0l-.47-.25-.15-.19c0-.09,0-.18-.08-.27l0-.1Z"/><path class="cls-3" d="M127.4,81.74l.32-.1a10.53,10.53,0,0,0,1.2-.65l.26-.28c0-.09,0-.18,0-.27a.6.6,0,0,0-.36-.28h-1.4c-1-.39-2-.82-2.94-.38-.17,0-.34.06-.51.11a2.2,2.2,0,0,0-.72.19l-.4.2c-.3.18-.45.37-.45.6s.18.31.18.49a3.38,3.38,0,0,0,.66.55c.24.18.52.32.75.49a.45.45,0,0,0,.32,0l0,0,.32.12a3.18,3.18,0,0,0,2,.11l.64-.73Z"/><path class="cls-3" d="M123.79,93.51a.33.33,0,0,1,.23-.27,2.12,2.12,0,0,1,.44,0,3.62,3.62,0,0,1,1.06.77.45.45,0,0,1,.11.33c-.27.42-1.12.15-1.65-.15-.23-.21-.18-.35-.24-.49a1.31,1.31,0,0,0,.05-.15Z"/><path class="cls-3" d="M140.54,79.92l4.61,1,0,0a3.24,3.24,0,0,1-2.59,0l0-.09a5,5,0,0,1-1.07-.31c-.22,0-.44-.24-.68-.35A.78.78,0,0,1,140.54,79.92Z"/><path class="cls-3" d="M127.31,157.35l.34-.46.22-.23c.54-.28,1,.16,1.53.23a4.13,4.13,0,0,1,1.34.72l.37.45.33.63.11.35c-.09.47,0,.88-.38,1.27l-.09.1h-.37v-.09c-.32-.48,0-.9,0-1.36l-.13-.31a2.66,2.66,0,0,0-1.47-.81l-.67.25-.23.13-.23.05-.39-.06-.2-.29v0l-.11-.45Z"/><path class="cls-3" d="M134.86,164.82a8.1,8.1,0,0,0-1.31,1.57,2.07,2.07,0,0,1-2.1,1.15c-.4-.09-.75-.28-.78-.51a.58.58,0,0,1,0-.4l.32-.2.52,0a1.91,1.91,0,0,0,.74-.25c.57-.39,1-.84,1.58-1.26l.22-.29,0-.13v0l-.2-.22c-.06-.11-.19-.16-.39-.12a9.54,9.54,0,0,0-2.58.36c-.42.19-.62,0-.87-.19a1.45,1.45,0,0,1-.1-.41,1.51,1.51,0,0,1,.63-.74l.86-.26a10.09,10.09,0,0,1,3.28-.08,1,1,0,0,1,.56.49c.24.45-.07.94-.28,1.41Z"/><path class="cls-3" d="M129.49,137.26l.24-.43.26-.1a4.53,4.53,0,0,1,1.68,0l.35-.05.38,0a6.3,6.3,0,0,1,2.41.35l.32.26a1.51,1.51,0,0,1,.25.55l0,.07-.19,1.32-.19.14a4.39,4.39,0,0,1-.9.22,6.24,6.24,0,0,1-4.58-1.82l-.07-.38Z"/><path class="cls-3" d="M130.59,93.88l.29-.13.46-.24.21-.05.38-.11a2.06,2.06,0,0,1,1,.22,2,2,0,0,1,.41.28l.11.37-.17.32H133l-.19.27a8.8,8.8,0,0,1-1.12,1.49,5.49,5.49,0,0,1-1.36.12A1.89,1.89,0,0,1,129,96l-.25-.27-.06-.45.05-.1.56-1,.25-.15a3.71,3.71,0,0,1,1-.16l.1-.05Z"/><path class="cls-3" d="M129.9,112.41a1.75,1.75,0,0,1,.51-.92l.49-.23a1.33,1.33,0,0,1,1,0l1.39,1.18.1.27,0,0-.35.68c-.11.16-.11.07-.3.25l-.36.24-.67.23c-.45.07-.88-.23-1.34-.68l-.51-.92Z"/><path class="cls-3" d="M133.14,154.13h0l.25-.43c1.1-.84,2.23-1.13,3.38-.22l.39.31.05.18v.59l-.22.27-.23.14-.44.06-.94.26-.6.25a1.65,1.65,0,0,1-1.69-1.29Z"/><path class="cls-3" d="M133.31,145.3l.08-.1.27-.37.13-.06.55-.17.21-.16.55-.15.85.26.6.52.17.63-.05.31v.18l-.34.49-.46.12a2.29,2.29,0,0,1-2.51-1.2l-.1-.23Z"/><path class="cls-3" d="M137.36,97.56l.15.16h.74l.56-.14c.21-.2.4-.11.63-.15a4.9,4.9,0,0,1,3.32,1.45l.43.39c.28.13.24.34.45.47l.08.23.29,1.18v.36l-.13.22-.36-.09-.23-.07a10.74,10.74,0,0,1-2.73-2,2.92,2.92,0,0,0-2.15-.8l-.27,0a7.91,7.91,0,0,1-.65.64h-.12l-.11.11h-.05l.11-.12h0c-1.13.21-2.24-.66-3.39-.9l-.21-.08-.43-.3-.18-.47,0-.08.31-.33c.69-.28.82-.87,1.42-1.41.67-1.11,1.82-1,1.86.57v.27a1.23,1.23,0,0,0,.64.8Z"/><path class="cls-3" d="M137.6,160.36a10,10,0,0,0-.52.9,1.68,1.68,0,0,0,.26,1.39c.23.21.59.15.9.16.21-.14.42-.24.63-.39a1.71,1.71,0,0,0,.57-.87c.27-.54.84-1.23.82-1.83a3.58,3.58,0,0,0-.7-1,.54.54,0,0,0-.65,0l0,.07-1.28,1.54Z"/><path class="cls-3" d="M139.52,135.21l.12,0,.22-.15a2.13,2.13,0,0,1,1.58,1l.08.49-.21.29h-.53c-.68-.21-1.38-.92-1.33-1.51Z"/><path class="cls-3" d="M139.15,86.18l.13-.26a1.35,1.35,0,0,1,1-.31l.42-.14.45,0c.33.18.78.4.83.75l0,.36-.14.23-.26.16-.32.05-.62.15-.41,0a1.84,1.84,0,0,1-.79-.56l0,0-.24-.09v-.18Z"/><path class="cls-3" d="M141.72,144a.88.88,0,0,1,.64-.5l.25-.06a1.39,1.39,0,0,1,1.53.5,1,1,0,0,1,.24.44.87.87,0,0,1-.35,1.06c-.35.18-.68.32-1,.17a3,3,0,0,1-1.13-.84,1.36,1.36,0,0,1-.23-.62.77.77,0,0,1,0-.15Z"/><path class="cls-3" d="M142.35,116.78a2.91,2.91,0,0,1,1.06-.27l1.63.06v.05l1.25-.09a2.24,2.24,0,0,1,1.17,1.2,8.6,8.6,0,0,1,.08.9l-.15.1a6.69,6.69,0,0,1-3,.57,2.94,2.94,0,0,1-2-.79c-.5-.26-.27-.43-.47-.72a1,1,0,0,1,.42-1Z"/><path class="cls-3" d="M152.39,109.17l.79.3.22.37v0a2.6,2.6,0,0,1,.12,1.57,1.08,1.08,0,0,1-.08.19l-.21.28c-.29.19-.59.3-.89.48s-.27.45-.43.65l-.45.47-.28.27c-.4.19-1,.69-2.53-.13-.48-.24-.92-.66-1.34-.86a1,1,0,0,1,.39-1.31l.35-.24c.25,0,.53-.3.8-.35a1.16,1.16,0,0,0,.66-.51.94.94,0,0,0,.19-.15l.9-1.15a1.23,1.23,0,0,1,1.1-.16Z"/><path class="cls-3" d="M147.22,95.61l.18-.31.63-.92,1.48,0,.37.22,0,.29a2,2,0,0,1-1,.41l-.93.93-.49,0-.29-.23,0-.31Z"/><path class="cls-3" d="M151.89,137.9a.89.89,0,0,1,.12.65.94.94,0,0,1-.44.55h-.14a2.29,2.29,0,0,1-1.66-.56l-.24-.27-.24-.5c-.06-.3-.15-.33-.06-.64a1.23,1.23,0,0,1,1.69-.38l.71.51a3.84,3.84,0,0,1,.26.63Z"/><path class="cls-3" d="M151.27,140.15l.26-.27.55,0a1.85,1.85,0,0,1,.35,1.21,2.07,2.07,0,0,1-1.67.66c-.07,0-.14-.11-.21-.16s-.13-.45,0-.72c0-.14.35-.45.68-.74Z"/><path class="cls-3" d="M155.5,152.62a1.85,1.85,0,0,1,1.56.73c.53,1.32-.55,1.31-1.47.72a2.32,2.32,0,0,1-.44-.89c0-.15.11-.55.35-.56Z"/><path class="cls-3" d="M156.05,137.3l.12-.36a2.26,2.26,0,0,1,.8-.41,3.45,3.45,0,0,1,1-.18,1.33,1.33,0,0,1,1.09.48c.47.66.13,1.3-.34,1.84a2.14,2.14,0,0,1-1.35.41,2,2,0,0,1-1.37-1.63l.06-.15Z"/><polygon class="cls-3" points="155.32 100.06 155.36 99.84 155.56 99.51 155.75 99.45 156.12 99.36 156.47 99.49 156.67 99.71 156.87 100.06 156.81 100.16 156.87 100.25 156.83 100.6 156.51 101.11 155.84 101.19 155.53 100.96 155.47 100.78 155.28 100.14 155.32 100.06"/><path class="cls-3" d="M156.94,117.39l.23-.32.15,0a1.34,1.34,0,0,1,.94.06l.14.19v.26l-.31.59a1.27,1.27,0,0,1-1-.19l-.2-.46Z"/><path class="cls-3" d="M159.4,98.14a1.32,1.32,0,0,1-.27-.76c-.13-.54,0-.77.47-1.08A.69.69,0,0,1,160,96c1,.69,2,.43,2.94.94l.17.33-.06.39-.25.24-.28.19-.25.15-.23,0a2.4,2.4,0,0,1-2.27,0,1.16,1.16,0,0,0-.39-.17Z"/><path class="cls-2" d="M179.74,128.43h0"/><path class="cls-3" d="M179.78,128.45h0Z"/><path class="cls-2" d="M179.86,128.49l-.08,0,.08,0"/><path class="cls-2" d="M179.87,128.5h0"/><path class="cls-3" d="M166.7,103.73l.15-.31,1.71-.09a2.79,2.79,0,0,1,1.06.11l.47.34v0l0,.23-.21.28-1.23-.06h-.49a1.83,1.83,0,0,1-1.46-.31l0-.1Z"/><path class="cls-3" d="M181,126.11l-.38-.32-1.22-.19-.18-.1-.57-.11-.4-.17c-1.54-.13-3.07.43-4.61.4h-.49l-1.49-.13h-.36l-.58,0-.49.22v.16l.28.23.64.15a19.8,19.8,0,0,0,3,.46l.49,0,2.17.11.92.08h.17l.31.28a4.39,4.39,0,0,0,2.19-.45l.49-.36.14-.19Z"/><path class="cls-3" d="M176.67,132.5a1.91,1.91,0,0,1,.89.3c.49.28.7.41-.12.87a2.55,2.55,0,0,1-.79.41l-.32.06a2.68,2.68,0,0,1-1.1.16l-3-.15c-1.15-.1-2.18.68-3.33.15l-.36-.35.05-.1c0-.13.14-.06.26-.19l.32-.1,1.3.05,1-.11,1.72-.31.67-.15.54-.15a11.65,11.65,0,0,1,2.25-.39Z"/><path class="cls-3" d="M173.9,106.35l.16-.41.54-.56.19,0a1.22,1.22,0,0,1,.7-.11l.37.29v0l.1.36-.27.42h-.18l-.35.14-.35.24-.58.1-.33-.21,0-.18Z"/><path class="cls-3" d="M177.26,90.21l.23-.33.4-.07.78.3.4.3.11.24,0,.18-.18.31a1.58,1.58,0,0,1-1.4-.23l-.33-.22,0-.4Z"/><path class="cls-2" d="M124.51,120.66a11.33,11.33,0,0,1,1.17,0l1.16-.17a3.55,3.55,0,0,1,2,.31,3.16,3.16,0,0,1,.53.62,1.11,1.11,0,0,0,0,.17,3,3,0,0,1,.12.54c0,.13.06.28.06.42a1.42,1.42,0,0,1-.57,1.23,1.1,1.1,0,0,1-.72.14,1.18,1.18,0,0,1-.62-.37c-.52-.83-1.22-.86-2-1.16a1.88,1.88,0,0,1-1.22-1.42h0s0,0,0,0l-.06-.15a.59.59,0,0,0,.05-.23m4.89,1h0Zm0,0h0Zm0,0v0Zm0,0Zm0,0h0Zm0,0v0Zm0,0h0Zm0,0h0Zm0,0v0Zm0,0Zm0,0h0m-4.82-.65h0Zm0,0h0Z"/><path class="cls-3" d="M158.84,156.57a1.3,1.3,0,0,1,0,2.59,1.3,1.3,0,1,1,0-2.59Z"/><path class="cls-3" d="M139.57,163.45a6.07,6.07,0,0,1-2.06,1.85,2,2,0,0,0,0,.74l.23.4a3.3,3.3,0,0,0,1.69.36c.76-.21,2.6-1.09,2.71-1.66a1.56,1.56,0,0,0,.48-1,1.14,1.14,0,0,1-.1-.19l-.2-.18-.22-.27c-.37-.3-.74-.6-1.1-.91l-.38.06-.13.1a4.19,4.19,0,0,1-.94.69Z"/><path class="cls-3" d="M127.55,132.52c1.25.5,1.86.55,1.88,1s-1.27.79-2.16.8-1.58,0-1.77-.88.81-1.44,2-.95Z"/><path class="cls-3" d="M68.45,65.07a4.32,4.32,0,0,1-1.3.22c-.56,0-2,.24-2.35-.13-.38.17-1.33-.67-1.66-.87s-.53-.31-.78-.48Z"/><path class="cls-3" d="M72.79,79.4a1.08,1.08,0,0,0-.49,1.78,5.12,5.12,0,0,0,2.52.44c2.48-.25-.74-1.91-1.77-2.09Z"/><path class="cls-3" d="M64,126.13c-1.26,0-2.56,0-3,1.29a6.83,6.83,0,0,0,.43,4c.58,1.39,1.68,1.53,2.59,2.57a24,24,0,0,1,1.62,2.95c-.15,0-.33.05-.49,0-.06.84.85,1.93,1.25,2.6a21.56,21.56,0,0,1,1.19,2.68c.83,1.92,2.88,2.48,4.1.62a12,12,0,0,0,1.45-5.65c0-1.67-1.66-3-2.2-4.52-.28-.8-.17-1.81-.53-2.58a8.1,8.1,0,0,0-1.82-2A6.15,6.15,0,0,0,64,126.26Z"/><path class="cls-3" d="M73,144.33c.48.2.61.84.52,1.42-.16,1-.29.57-1,1-1,.62-.72,1.29-1.18,2.23.83.21,2,.78,2.79.33.3-.17.13-.84.51-1.08s1.06-.06,1.47,0c0,.52-.36.79-.83.81,0,2.5-2,1.17-3.27.71-1.67-.58-2.62,0-2-2.22.37-1.38,1-3.15,2.77-2.93Z"/><path class="cls-3" d="M151.94,174.09a16.21,16.21,0,0,0-1.3,1.79c-.49.6-.49,1.57-.78,2.3-.13.34-.31.69-.44,1a9.82,9.82,0,0,0-.13,1.12,1.25,1.25,0,0,1-.11.29l-1-.37a5.65,5.65,0,0,0,.73-1.29c.15-.44.13-.86.27-1.3s.35-.76.44-1.16a8.23,8.23,0,0,1,.22-1c.27-.69.71-.78,1.2-1.29a9.79,9.79,0,0,1,1.23-1.26,9.46,9.46,0,0,0,1.33-1,7.76,7.76,0,0,1,.76-1,.82.82,0,0,1,.31,1.11c-.2.42-.51.39-.91.53A5.28,5.28,0,0,0,151.94,174.09Z"/><path class="cls-3" d="M164.37,170.19a5.27,5.27,0,0,1-.62,1.62c-.29.42-.65.82-.91,1.26a21.28,21.28,0,0,1-1.75,2.92c-.78.89-1.75,1.64-2.53,2.57s-1.46,1.82-2.21,2.66a11.25,11.25,0,0,1-1.62,1.44l-.15-.07-2.68-1a1,1,0,0,1,.18-.18c.4-.33.86-.53,1.28-.86s1-.87,1.53-1.31,1.13-1.15,1.73-1.66a5,5,0,0,0,1.26-1.53c.13-.26.24-.6.51-.75s.51-.13.75-.33a5.41,5.41,0,0,0,1.22-2.2,24.31,24.31,0,0,1,1.06-2.92,6,6,0,0,1,1.48-2.46c.4-.33,1.93-.53,2.26,0C165.78,168.29,164.61,169.35,164.37,170.19Z"/><path class="cls-3" d="M154.12,176.74c1-1,2.92-2.06,2.22-3.82-.35-.88-1.58-.29-2.14,0a5.25,5.25,0,0,0-1.94,2.1c-.55.8-1.83,1.58-1.87,2.62,0,1.49,1.7.78,2.44.2.45-.36.88-.71,1.29-1.11Z"/><path class="cls-3" d="M157,168.23a3,3,0,0,0-1.6,2.33c0,.56.35.43.74.71s.45.76.87.84c.92.17.63-1.35.63-1.91s.26-2.2-.42-2Z"/><path class="cls-3" d="M173.39,139.54c.52.27.87-.44.78-.84s-.87-.82-.17-1c0-.55-.05-.81.49-.62s.41.34.54.84a9.57,9.57,0,0,1,.22,2.78,10.67,10.67,0,0,1-.37,3.4c-.41,1.06-.65,2.17-1,3.23-.08.23,0,.49-.31.6a5,5,0,0,1-.76,2.22,2.14,2.14,0,0,1-1,.81c-.32.1-1.12-.13-.95.47.37.14.52.44.79.64a1.56,1.56,0,0,0,1.11.21,10.21,10.21,0,0,0,1.06-1.22c.11-.22.1-.52.24-.77a4.59,4.59,0,0,0,.56-.89c.12-.45.17-.95.27-1.41.18-.86.52-1.67.75-2.52a29.17,29.17,0,0,1,1.81-5.13,9.7,9.7,0,0,0,.57-2.21c.11-.5.55-1.49-.05-1.84s-1.74-.07-2.33-.07a4.18,4.18,0,0,0-1.12,0c-.35.12-.83.36-1.16.5s-.41.27-.46.71,0,1.81.52,2.09Z"/><path class="cls-3" d="M173.22,141.89a3,3,0,0,1-.87,1.32,6,6,0,0,0-.78,1.4,11.25,11.25,0,0,0-.69,2.65c.73.12.79-.41.79-1a2.15,2.15,0,0,1,.52-1.56c.32-.42,1.72-2.28,1.18-2.75Z"/><path class="cls-3" d="M173.53,140.41a.47.47,0,0,0-.1.62c0-.25.13-.31.36-.25s.08.08.21.15c.43-.91-.78-1.07-.68-.05Z"/><path class="cls-3" d="M170.55,135.78a3.44,3.44,0,0,0-1.59.46c-.47.18-1.35.32-1.66.71.35.42,1.83.24,2.26,0s1.5-.86,1.1-1.18Z"/><path class="cls-3" d="M179.92,128.17a5.82,5.82,0,0,0-1.65.32,4.81,4.81,0,0,1-1.33.48,4.34,4.34,0,0,0-1.32.33,8.23,8.23,0,0,1-1.28.31c-1,.22-1.86.7-2.79.89s-1.86-.15-2.75,0c-.3.05-.71.21-.27.48.24.14.84-.05,1.12,0a11.64,11.64,0,0,1,1.28.49,5,5,0,0,0,1.53.21c1.84,0,3.64.31,5.53.2.17-.3,1-.15,1.35-.15,0,0,0,0,0,0h.18c.06-.39.55-.33.7-.62a2.81,2.81,0,0,0,0-1,3.3,3.3,0,0,1,.07-1c.11-.31.45-.51.4-.86a1.43,1.43,0,0,0-.68-.17Z"/><path class="cls-3" d="M179.63,119.37a5.32,5.32,0,0,0-2.16.76c-.47.26-1.41.63-1.56,1.21a3.32,3.32,0,0,0,1,2.55,3.26,3.26,0,0,0,2.6.76,2.4,2.4,0,0,0,1.88-.8c.45-.5.38-1.43.49-2.09.07-.46.3-1.78,0-2.17s-1.63-.18-2.11-.17Z"/><path class="cls-3" d="M177.1,118.12c-.08-.1-.18-.12-.23-.26a9,9,0,0,0-2.49,0c-.57,0-.54.12-.94.39s-.74.1-1.18.25c-.25,1,2.34.69,2.92.69a2.57,2.57,0,0,0,1.33-.28c.27-.14,1.09-.57.38-.78Z"/><path class="cls-3" d="M173.11,114.34c.47.4-.14.65-.54.68-.61,0-1.17-.39-1.79-.37a1.1,1.1,0,0,1-.06-.57,4.13,4.13,0,0,0,2.29-.43,3.42,3.42,0,0,1,3,0c.53.21,1.35.19,1.53.85.29,1-1.24.69-1.77.51-.19-.27,0-.62-.18-.88a1.7,1.7,0,0,0-.78-.39c-.68-.13-1.45,0-1.55.64Z"/><path class="cls-3" d="M172.79,120.35c-.18.23-1.62.38-.92.92.42.32,1.34-.55,1.13-.87Z"/><path class="cls-3" d="M174.38,122.32c.69.09.92,1.42.11,1.11a2.3,2.3,0,0,1-.73-1.32l.2-.09a.35.35,0,0,1,.16.09Z"/><path class="cls-3" d="M181.2,108.43a7,7,0,0,0-1.17.18,3.75,3.75,0,0,0-.37,1.63c.36,0,.58-.83,1-.44.21.19-.12.94-.07,1.29.1.76.51,2.1.2,2.87-.33.06-.2.78-.3,1.06.39.07.78-.19,1.14-.27a6.43,6.43,0,0,1,1.4-.09c1,0,1.66-.2,1.88-1.33.09-.47,0-1,.14-1.44s.33-.85.43-1.29a4.81,4.81,0,0,0,.16-1.37c0-.61-.17-.52-.69-.63-.36-.08-.68-.27-1.05-.34a8.18,8.18,0,0,0-1.12-.05,4.75,4.75,0,0,0-2,.22Z"/><path class="cls-3" d="M181.73,102.21a8.87,8.87,0,0,0-.92.58c-.27.23-.74.39-1,.66-.78.8.88.92,1.27,1.38s.37.6.75.8a3.1,3.1,0,0,0,1.37.36,2.55,2.55,0,0,0,1.41-.2c.47-.28.39-.54.41-1.08a5.35,5.35,0,0,1,.65-1.75c.31-.8.08-1-.7-1a7.66,7.66,0,0,0-3.46.27Z"/><path class="cls-3" d="M183.11,91.89a1.13,1.13,0,0,0-.52,1.17.9.9,0,0,0,.47-.36c.48,0,1,.17,1.43.09.08-.62-.81-1.67.23-2.06s1.3,1,1.37,1.69c.08.94-.27,1.68-.27,2.61s.22,2-.58,2.46a2.38,2.38,0,0,1-1.16.15c-.19.82,1.83.55,2.28.42s.53-.27.53-.85,0-.89,0-1.33c0-.87,0-1.7.05-2.55a4.91,4.91,0,0,0,0-1.33c-.09-.43-.35-.62-.54-1s-.09-.84-.63-1.08a2.69,2.69,0,0,0-1.59,0c-1.12.41-.45,1.68-1.24,2.22Z"/><path class="cls-3" d="M184,94.34c-.37,0-.72.58-.7.86,0,.65.68.33,1.12.35a4,4,0,0,0-.22-1.21.67.67,0,0,0-.2,0Z"/></g><g id="I1"><path class="cls-1" d="M187.41,89.6,59.31,63.19c-.16-1-.4-2-.53-3-.67-3.23-1.77-6.44,0-9.72.46-1.08.64-2,1-3l.09-.22a12.88,12.88,0,0,0,.24-2.59c.47-4.05.36-7.92,2.44-12l0-.08,0-.56c-.08-1.95-1.63-3.76-2.3-5.67L60,25.59A76,76,0,0,1,58.2,16l.18-1.49.46-1.13,0-.31.24-.73,0-.35a12.66,12.66,0,0,0,.6-2.19l.4-2,.18-1.33.57-3L178,9.47a21.64,21.64,0,0,0,1.46,9.9,8.65,8.65,0,0,0,1.26,2.41l.4.51.36.31,1.21,1.18c.34.48.91,1.32.8,1.88-1.53,4.58-3.94,9.1-3.1,13.59l.2,1.8v.22l.35,2.39.71,4.32.25.48,0,.22c.6,1.24,1.06,2.46,1.77,3.7l.11.27.16.42a4.19,4.19,0,0,1,.24,2.61c-.71,1.93-.42,3.63-.53,5.45l.07.77.11,1v.55l0,.35,0,.29-.07.27.16.66,0,.56.38,1.9.37,1,.18.35L185,69l0,.07.38.93.13.22,0,.22.49,1.09.11.19a7.17,7.17,0,0,1,.49,1.07c.64,1.61.22,3.23.31,4.8l.09.62-.05.31C187,80.08,187.9,81.54,187.41,89.6Z"/><path class="cls-3" d="M122.33,38.38a1.18,1.18,0,0,0-.72,0c-1.23.18-1.82,1.25-.61,3.28h0l.14.16.23.22.2.27c0,.08,0,.15,0,.22h0l-.25.15L121,43c0,.12.07.24.1.37a2.67,2.67,0,0,0,.76.51,6.24,6.24,0,0,0,3.66,1,7.34,7.34,0,0,1,1.91.59,2.25,2.25,0,0,0,1.95-.16.89.89,0,0,0,.13-.77c-.08-.17-.15-.34-.23-.5l-.29-.26c-.28-.22-.46-.47-.6-.52l-.76-.79-.23-.18,0-.13c-.26-.31-.52-.61-.76-.91a2.29,2.29,0,0,1-.1-.23,6.28,6.28,0,0,0-4.17-2.62"/><path class="cls-3" d="M174.63,47.84,175,47a4.81,4.81,0,0,0,.78-1l.88-1.48.32-.24.18-.08a6.1,6.1,0,0,1,2.41.44l.46.21a2.2,2.2,0,0,1,.65.92,6.83,6.83,0,0,1,.56,2.83,12.7,12.7,0,0,1,.28,2.45l-.28.69-.18.17-.35.2c-.31.15-.63,0-1-.05a7.27,7.27,0,0,0-1.8-.65l-.36-.18a11,11,0,0,0-1.79-1.2l-.44-.25a2.88,2.88,0,0,1-.77-1.79Z"/><path class="cls-3" d="M170.07,17.29l.2-.24c1.86,0,3.75.84,5.69.59a3.32,3.32,0,0,1,2,.55l.07.6.08,1.27-.09.73-.26.33-.12.11a3.44,3.44,0,0,1-1.06-.06A10.49,10.49,0,0,1,172.07,19a2,2,0,0,0-1.48-.82,1,1,0,0,1-.32-.13,1,1,0,0,1-.27-.59Z"/><path class="cls-3" d="M64.09,50.49Z"/><path class="cls-3" d="M64.12,50.48h0"/><path class="cls-3" d="M64.15,50.47h0"/><path class="cls-3" d="M64.19,50.44l0,0,0,0"/><path class="cls-3" d="M64.24,50.41l0,0,0,0"/><path class="cls-3" d="M78.66,28.67l0,0,0,0"/><path class="cls-3" d="M78.63,28.65s0,0,0,0,0,0,0,0"/><path class="cls-3" d="M78.6,28.63h0"/><path class="cls-3" d="M78.54,28.59h0"/><path class="cls-3" d="M78.54,28.59h0"/><polyline class="cls-3" points="78.44 28.55 78.44 28.55 78.44 28.55"/><path class="cls-3" d="M78.4,28.54h0"/><polyline class="cls-3" points="78.38 28.54 78.39 28.54 78.38 28.54"/><path class="cls-3" d="M76,26.22s0,0,0,0,0,0,0,0"/><path class="cls-3" d="M76.13,26.34s0,0,0,0,0,0,0,0"/><path class="cls-3" d="M76.16,26.36h0"/><path class="cls-3" d="M76.25,26.42l0,0,0,0"/><path class="cls-3" d="M76.28,26.45h0"/><path class="cls-3" d="M76.58,26.66s0,0,0,0l0,0,0,0s0,0,0,0"/><polyline class="cls-3" points="78.37 28.54 78.37 28.54 78.37 28.54"/><path class="cls-3" d="M78.56,28.6h0"/><path class="cls-4" d="M69.23,28.85l.21-.78a3.41,3.41,0,0,0,.65-.51l.29-.11,0,0,.62-.2.22-.15.26-.19.52-.7.57-.28.32-.06.8.66.87,1.62a1.15,1.15,0,0,0,.61.48h.71l.42-.11.5.4.16.23a6.28,6.28,0,0,0,1.09,1.59l.1.17a2.4,2.4,0,0,1,.16.73l-.17.35-.26,0a5.12,5.12,0,0,0-2.49,0l-1.17.59c-1.05.59-2.17,0-3.27-.69l-1-.56-.13-.22,0-.14-.29-.15-.11-.55A10.37,10.37,0,0,1,69.2,29Z"/><path class="cls-4" d="M69.94,41.41l.19-.83h.1l.31-.24,1.07.15h.19l.37.11.22.13.77.71c.34.76,0,1.48-.19,2.26L72.39,45l-.22.25,0,.09-.34.15h-.19l-.32-.13a22.33,22.33,0,0,1-.94-2.1c-.16-.61-.23-1.15-.43-1.73Z"/><path class="cls-2" d="M74.1,56.31h0"/><path class="cls-2" d="M74.05,56.37s0,0,0,0,0,0,0,0"/><path class="cls-2" d="M74,56.41l.07,0-.07,0"/><path class="cls-2" d="M74,56.42h0"/><path class="cls-2" d="M73.92,56.43h0"/><path class="cls-2" d="M75.15,56.08h0"/><path class="cls-2" d="M73.55,56a1,1,0,0,1-.31-.29,0,0,0,0,0,0,0,0,0,0,0,1,0,0,1,1,0,0,0,.31.29"/><path class="cls-3" d="M110.43,24.52a5.88,5.88,0,0,0-3.05-2.91,13.78,13.78,0,0,0-2-.09l-.4.07c-.48-.09-1,.2-1.53,1.81a4.94,4.94,0,0,0,.52,1.76,5.57,5.57,0,0,0,1.75,1.7,12.44,12.44,0,0,0,1.93.13c.34-.07,1.05-.37,1.45-.44.7-.27.85-.49,1.18-1.22,0-.27.11-.54.17-.81"/><path class="cls-3" d="M83.93,46.77a1.37,1.37,0,0,1,1-.19,2.86,2.86,0,0,1,.7.49.92.92,0,0,1,.09.69,1.46,1.46,0,0,1-.35.49,1.58,1.58,0,0,1-.67.34,1.24,1.24,0,0,1-.54-.22,1.55,1.55,0,0,1-.39-.51.89.89,0,0,1,.12-1.09"/><path class="cls-3" d="M87.29,54.11l.36-.42V53.6l.29-.2.23-.15.67-.29.44-.15a4,4,0,0,1,1.49-.28l.37,0,.45,0a4.76,4.76,0,0,1,3.34,1.19l.11.17v.19l-.61.61L94,55l-.61.56-.22.16-.23.13-.79.35c-1.4.58-2.72,0-4.16-.71l-.4-.24-.24-.32c-.15-.22-.08-.45-.13-.67Z"/><path class="cls-3" d="M87.79,21.15l.19-.59.45-.52.15-.1a4.86,4.86,0,0,1,2.09-.17l.47,0,.39,0a7.27,7.27,0,0,1,4.55,1.79,4.2,4.2,0,0,1,1.15,1.53l.09.28a5,5,0,0,1,.49,1.06l.21.5.16.68,0,.21-.22.33h-.06l-.48.23a6.1,6.1,0,0,1-2.61.2,16.61,16.61,0,0,1-4.27-1.42L90.42,25l-.79-.43-.51-.38A6.38,6.38,0,0,1,88,22.77a4.13,4.13,0,0,1-.22-1.4l-.06-.09Z"/><path class="cls-3" d="M89.15,45.39a1.44,1.44,0,0,1,.51-.64,12.52,12.52,0,0,1,1.85-1.27l1.31-.36a5.08,5.08,0,0,1,3.09,1.43l.18.21a.9.9,0,0,1,0,1L95.9,46l-.26.16a1.69,1.69,0,0,1-.62.42l-.25.2c-.27.13-.48.23-.76.34l-.28.09,0,.06c-1.46.73-3.21.06-4.48-1.33l-.11-.4Z"/><path class="cls-3" d="M94.37,29.41a2.46,2.46,0,0,1,.51-.16,2.78,2.78,0,0,1,1.94.93c.05.16.25.73-.11.87a1.21,1.21,0,0,1-.71.14,1.34,1.34,0,0,1-.79.27.37.37,0,0,1-.12.07.78.78,0,0,1-.4,0,1.45,1.45,0,0,1-.75-.79,1,1,0,0,1,.43-1.32"/><path class="cls-3" d="M104.06,61.72c-1.3.5-3.25,1.64-5.1-.68a3.29,3.29,0,0,1,.31-2.94l.47-.35A3,3,0,0,1,102,58a35,35,0,0,0,3.31,1.42l.7.33a.74.74,0,0,1,.19.48,1.11,1.11,0,0,1-.39.46c-.37.2-.7.43-1.07.63s-.48.24-.7.4Z"/><path class="cls-3" d="M111.55,44.5h0Zm0,0h0Zm0-.05v0Zm0,0v0Zm0,0v0Zm0-.11h0Zm0-.06h0Zm0,0h0Zm0-.08,0,0s0-.07.05-.1a.47.47,0,0,0-.05.1m5.09,1.15a2.91,2.91,0,0,0,.65-.06A2.91,2.91,0,0,1,116.72,45.17Zm.79-1.42h0Zm0,0s0,0,0,0S117.53,43.78,117.53,43.76Zm0,0,.08.07c-.17-.22-.38-.46-.64-.74-.18-.09-.37-.26-.55-.36a19,19,0,0,0-3-1.39,2.08,2.08,0,0,0-1.16.34,4.41,4.41,0,0,0-.76,1.58c-.06.11-.12.21-.17.32s0,.31,0,.46a2.34,2.34,0,0,0,.2.58l.09,0c.36.62,2,1,4.75,1.19a5.42,5.42,0,0,0,3.56-.36c0-.23.11-.31,0-.54a3.5,3.5,0,0,0-1.46-.48A3.69,3.69,0,0,1,117.55,43.79Z"/><path class="cls-3" d="M98.19,38.13l1-.08,0-.06c.23,0,.25-.32.39-.46a1.9,1.9,0,0,1,.66-.63l.8-.32a7.43,7.43,0,0,1,5,2.65,1.35,1.35,0,0,1-.09,1.13,8.19,8.19,0,0,0-.91,1.18,5.81,5.81,0,0,1-2.16,0c-1.24-.33-1.69-.15-2.69-1.13a4.49,4.49,0,0,0-2-1.84c-.22-.23-.06-.22-.07-.44"/><path class="cls-3" d="M101.92,11.11a1.42,1.42,0,0,0-1.1-.77,3.73,3.73,0,0,0-1.49.23,2.63,2.63,0,0,0-1.12,2.26,2.77,2.77,0,0,0,.39,1.45l.38.3v0l1,.55c.59.15,1.24.37,1.84.48a5.4,5.4,0,0,0,2.53,0l.23-.24c0-.21.09-.43.14-.64a5.87,5.87,0,0,0-.74-1.51c-.2-.24-.37-.49-.56-.75s-1.08-1.36-1.47-1.41v0"/><path class="cls-3" d="M101.56,11.13l.35,0s-.26,0-.35,0"/><path class="cls-3" d="M114.51,73.33a5,5,0,0,1-1.33,1h0l-4.64-1h0c-.28-.53-1-1.55-.84-2a.94.94,0,0,1,.38-.58l.2,0,.15-.07c.56-.17,1.09-.35,1.62-.57l.44-.18c.78-.29,1.51.4,2.3.77.42.29,1.58.89,1.58,1.51v0s.06.07.11.09A2,2,0,0,1,114.51,73.33Z"/><path class="cls-3" d="M106.58,55c-.06-.09-.13-.16-.18-.23a2.3,2.3,0,0,1-.15-1,.58.58,0,0,1,0-.14l.21-.57c.38-.69,1-.73,1.72-.77a4,4,0,0,1,1.63,0c.36.13.49.34.84.47l.41.42.21.2v0a2.16,2.16,0,0,1,.47,1.31,1.67,1.67,0,0,1,.21.93c0,.19-.12.25-.18.37l-.46.05a2.69,2.69,0,0,1-2.18,1.07,2.54,2.54,0,0,1-2.6-2.16Z"/><path class="cls-3" d="M106.58,12.84l.25-.37.18-.11.26-.09.64-.25a4.5,4.5,0,0,1,3.86.36,4.22,4.22,0,0,1,1,1.1l.24.2.16.37.14.12.28.66.12.55-.19.23c-1,.64-2.15.17-3.24-.1-1.32-.09-3.34-.65-3.76-2.36v-.21Z"/><path class="cls-3" d="M109.75,33.5a1.35,1.35,0,0,1,.5-1l.08-.05a2.64,2.64,0,0,1,.83-.16,2,2,0,0,1,1,1.26,1.23,1.23,0,0,1,.12.82,1.17,1.17,0,0,1-.51.61,2.88,2.88,0,0,1-1.16.27l-.19,0-.46-.3a1.28,1.28,0,0,1-.15-.57l-.09-.86Z"/><path class="cls-3" d="M132.64,43.86l.15.08-.14-.06v0"/><path class="cls-3" d="M135,38.33l-.2-.29h.1a1.31,1.31,0,0,1,.1.3"/><path class="cls-3" d="M138.44,43.37l-.58-.86c.71.35,1.42.75,1.28,2-.19.1-.35.31-.75.18a.27.27,0,0,1-.15,0Z"/><path class="cls-3" d="M132.46,43.58c0-.2.07-.28.29-.26l0,.18,1,1.28,2.52.07a14.14,14.14,0,0,0,1.84.06h.11l.66,0c.48,0,.45-.34.59-.76,0-.2-.06-.28-.11-.48a6,6,0,0,0-1.68-1.42l-2.05-3a3,3,0,0,0-.41-1.15c-1.14-1-2.76-.57-2.39.45.27.76.77-.5,1.16,0l-.11.14-.66,2.82a4.94,4.94,0,0,1-.32.59,2.43,2.43,0,0,1-.34.83h-.05l-.16.33a.75.75,0,0,1,0,.16v.05l.1.16"/><path class="cls-3" d="M119.77,9.34c1.66-2.56,2.52-2,3-1,.19.56.38,1.12.56,1.69s.47.85.69,1.27.62.73.91,1.1a3,3,0,0,1,.5,1.39,2.23,2.23,0,0,1-1.59,1.46,1,1,0,0,1-1-.45,7.54,7.54,0,0,0-1.33-1.24L120.18,13c-.91-.36-1.48-1.58-2.11-2.32-.44-.57-.38-.36-.2-1H118l1-.09.77-.22"/><path class="cls-2" d="M120.75,67.49h-.06l-.11,0,.11,0h.06m-.35-2.9h0Zm0,0h0Zm0,0h0Zm0,0h0m0,0h0m0,0h0Zm0,0h0Zm0,0h0c.15-.12.29-.24.46-.36l.31-.11.83.34c.59.38,1.15.92,1.74.9l1-.33a1.41,1.41,0,0,1,1.18.25l.24.11.23.48,0,.33,0,.32a2,2,0,0,1-1.06,1.13,4.61,4.61,0,0,1-1.25.32c-.16,0-.33,0-.48,0h0c-1.61.33-3.09.42-4.63-1a1.31,1.31,0,0,1-.26-.91,2.4,2.4,0,0,1,.12-.58c.26-.37.33-.47.74-.57l.32-.08.39-.14ZM123.57,68h0Zm.06,0,.06,0Zm.12,0h0Zm0,0h0Zm.13,0h0Z"/><path class="cls-3" d="M116.29,15.66h0l0,0,.4-.65c.3-.3.35-.29.76-.3,2.1,2.19,4.18.65,6.3,2.94a4.89,4.89,0,0,1,.88,1.09s0,0,0,0l.33.24c.06.06.81.36.71,1.74l-.23.2a6.06,6.06,0,0,1-2.55.08l-1.61-.32a10.36,10.36,0,0,1-4.12-2c-.28-.53-.61-1-.89-1.57-.45.05-1.24-.08-1.26-.59l.35-.42.94-.47Z"/><path class="cls-3" d="M123.42,20.19a1.93,1.93,0,0,1-.5.12,1.93,1.93,0,0,0,.5-.12"/><path class="cls-3" d="M119.59,45.06h.13c0,.15.06.31-.08.27l-.09-.22Z"/><path class="cls-3" d="M122.32,56.46a2.78,2.78,0,0,1,1.57.62c.21.15.25.24.24.58l0,.09a.54.54,0,0,1-.41.11c-.47-.06-.77-.25-1.16-.28a2.87,2.87,0,0,1-.71-.29.45.45,0,0,1-.09-.26.53.53,0,0,1,.6-.57Z"/><path class="cls-3" d="M131.09,62.86c-.91-.49-1.46-1.1-2.37-1.58-.27,0-1,.21-1.28.19l-.32-.13c-.06-.08-.13-.16-.19-.25V61c-.24-.53.13-1,.07-1.54.18-.48.24-1,.41-1.47a2.8,2.8,0,0,1,1.34-1.18l.23-.05.05,0c1.25-.3,2.45.39,3.7,1.13A7.37,7.37,0,0,1,135,59.79l.4.47a1.76,1.76,0,0,1-.11,2.11l-.23.13a10.52,10.52,0,0,1-3.94.36Z"/><path class="cls-3" d="M126.78,14.89a1.79,1.79,0,0,1,.21-.78,1.79,1.79,0,0,1,.43-.34l.24-.33L127.3,13l-.11-.26c-.08-.62,1.55-1,1.91-1s.94.08,1.12.49a1.89,1.89,0,0,1,.44,1c-.53.81-1,.54-2.28.51-.25.06-.18.1-.43.3a6.25,6.25,0,0,0,.11,1,7.7,7.7,0,0,1,.14,1.43.36.36,0,0,1-.5.16.89.89,0,0,1-.41-.31c-.2-.25-.7-.91-.51-1.47"/><path class="cls-3" d="M134.09,73.57l.35-.46.31,0a6.11,6.11,0,0,0,2.12-.22l.79.31v0l.05.09,0,.1-.22.37L137,74a6.51,6.51,0,0,1-1.07.13h-.64l-.81,0L134.2,74c-.12,0-.06-.17-.13-.26Z"/><path class="cls-3" d="M133.33,17.08a0,0,0,0,1,0,0,0,0,0,0,0,0,0"/><path class="cls-3" d="M137.09,13.65l0,0a2.28,2.28,0,0,1,.58.3,10.64,10.64,0,0,1,2.63,1.68l.5,0c.41.32.8.66,1.21,1,.29.49.19.55-.09,1a3.85,3.85,0,0,1-.88.72c-.33.1-.63.33-.93.3-.58.07-1.1.12-1.68.16a5.8,5.8,0,0,1-2.27-.59c-1.72-.28-2.59-.74-2.83-1.1a2.63,2.63,0,0,1-.73-.4c-.23-.43-.22-.32,0-.72a2.29,2.29,0,0,0,.62-.54l1-1.92a.64.64,0,0,1,.39-.24,2.58,2.58,0,0,1,1.45-.08,2.31,2.31,0,0,1,.72.22,4,4,0,0,0,.39.23l-.11,0,0,0"/><path class="cls-3" d="M141.28,61.14l.15.32c.12.1.23.19.33.29l.5.2.33.26c.69.47.6,1.15,1.11,1.72l.14.15c.17.09.34.16.51.24l.08,0a4.85,4.85,0,0,1,.58.07l.1,0h0a2.35,2.35,0,0,1,.5.21,5.58,5.58,0,0,1,2.81,0l1.09-.09a1.71,1.71,0,0,1,.83.45,1.37,1.37,0,0,1,.17,1c-.3.53-.53.7-1,.72l-.11.06a13.58,13.58,0,0,1-1.88.29c-1.12.43-3.5,2.19-3.92,1.7.14-.29.32-.33.48-.53l.1,0a7,7,0,0,1,2-1.31.26.26,0,0,0-.17-.37A8,8,0,0,1,144,66l-.22-.18c-.76-.09-1.34-.37-1.37-.71a12.94,12.94,0,0,0-1.14-1.46l-1-.78-1.53-1-1.06-.68c-.18-.31-.24-.27-.25-.63a.66.66,0,0,1,.58-.19c-.08,0-.11.1-.1.16s.06-.15.2-.2c2,.46,1.88.21,3.18.82Z"/><path class="cls-2" d="M142.35,57.64h0"/><path class="cls-2" d="M142.31,57.66h0"/><path class="cls-2" d="M144.92,57.57h0"/><path class="cls-2" d="M145,57.59h0"/><path class="cls-2" d="M145,57.59h0"/><path class="cls-2" d="M145,57.6h0"/><path class="cls-3" d="M145.61,55.72l.6.29.17.13a11.37,11.37,0,0,1,1.33,1,.38.38,0,0,1,.08.45l-.12.23h0c-.74.06-1.37-.23-2-.15-.18,0-.4,0-.57-.08h0l-.24,0a17.09,17.09,0,0,1-2.38.15l-.35-.14h.09a1,1,0,0,1-.22,0,3.73,3.73,0,0,1-1.88-.85c-.18-.18-.36-.37-.53-.56-.34-.4-.27-.67.11-.9a4.9,4.9,0,0,1,1.57-.19h0a.13.13,0,0,0,0-.06l1.94,0a4.58,4.58,0,0,1,1.33,0l.68.23.47.35Z"/><path class="cls-3" d="M144,12.89l.22-.29a3.36,3.36,0,0,1,1.8-.31l.27.09.9.74a2.65,2.65,0,0,1,.24.63l-.24.6h-.05a2.93,2.93,0,0,1-1.57.52c-.73-.26-1-1-1.57-1.53-.1-.26-.17-.26,0-.45"/><path class="cls-3" d="M147.74,18.67l.36-.34a4.93,4.93,0,0,1,1.38-.12l.55,0,.56.29.14.22,0,.5-.33.06c-.85.07-2,.43-2.64-.5Z"/><path class="cls-3" d="M154.46,66.1c-1.74.89-2.12.94-2.6.89-.25-.1-.33-.17-.34-.45.74-.61,1.88-.76,2.73-1.37,0-.18.08-.26.17-.41l.12-.14c.25-.08.64.33,1,0l-.73-.42-.75-.48c-.13-.26-.13-.34.2-.45s.87.1,1.33.25a3.86,3.86,0,0,0,1.55.4l1.75-.24,1-.09.72,0c1,.15,1.88-.11,2.91.13.3.06.49.17.56.35a.45.45,0,0,1,0,.49.65.65,0,0,1-.31.4c-1.49.42-3.79-.12-5.21-.1l-.8.15a7.07,7.07,0,0,1-.77.22l-.09,0a15.44,15.44,0,0,0-2.5.9Z"/><path class="cls-3" d="M155.79,27.1a5.33,5.33,0,0,1,.89,0c.39-.09.76-.17,1.14-.28a1,1,0,0,1,.68,0c.54.56.26.9-.36,1-.37,0-.77.09-1.14.13a2.62,2.62,0,0,1-1.42-.33c-.17-.2-.13-.36.21-.48"/><path class="cls-3" d="M163.27,43.83h0l.25-.2a1.47,1.47,0,0,1,1.11.48l.11.25-.18.23h0l-.78-.07-.36-.16-.1-.19-.06-.25Z"/><path class="cls-3" d="M168.91,50.85a2.3,2.3,0,0,1-1-.41l-.17-.22-.08-.21,0-.1a.45.45,0,0,1,.34-.29,3.77,3.77,0,0,1,1.63.22l-.12,0c.44.12.88.3,1.32.39.22.13.32.33.2.52a1.34,1.34,0,0,1-.69.16c-.44,0-.95,0-1.38,0l-.1,0"/><path class="cls-3" d="M167.81,27.65l.44,0,1.56.22.72.14.1.15v.17l-.69.54a5,5,0,0,1-1.26.44h-.3c-.32-.36-.24-.82-.78-1l-.09-.29Z"/><path class="cls-3" d="M167.67,21.45l.22-.24h.31l.93.41a31.87,31.87,0,0,0,4.18,1.82c.28,0,.14-.24.27-.34l.16-.14a7.41,7.41,0,0,1,2.63.3,1.76,1.76,0,0,1,.84-.19,1.68,1.68,0,0,1,1.35.62,1.61,1.61,0,0,1,.36.66,9.24,9.24,0,0,0,.22,1.26l0,.95c0,.53-.09,1.15-.07,1.67l-.47.56-.67.22-4.09-1.17-.4-.21-1.22-.81a9.07,9.07,0,0,0-.7-.65l-.38-.45-.2-.52L170.8,25l-.06-.22-.15-.26-.19-.13-.71-.87c-.6-.53-1.15-.61-1.8-1.13-.29-.3-.21-.57-.26-.83Z"/><path class="cls-3" d="M171.75,50.39h0c.14-.14.23-.24.29-.24a2.78,2.78,0,0,1,2.07.61,1,1,0,0,1,.4.48l.05.21-.23.34a1.84,1.84,0,0,1-.9.07l-.55-.21-.15-.26-.82-.46a1.24,1.24,0,0,1-.15-.4Z"/><path class="cls-3" d="M173.13,35.66h0Z"/><path class="cls-3" d="M173.07,35.68h0"/><path class="cls-3" d="M173,35.7h0"/><path class="cls-3" d="M173,35.71h0"/><path class="cls-3" d="M173,35.72h0Z"/><path class="cls-3" d="M172.92,35.73h0"/><path class="cls-3" d="M172.89,35.74h0"/><path class="cls-3" d="M172.82,35.76h0"/><path class="cls-3" d="M172.75,35.78h0"/><path class="cls-3" d="M178.66,39.5h0c2.68.54,3.17-4.6-.64-5.29-.16-.78-.11-1,.42-1.46,2.68-1.71-3.77-3.95-4.92-2,.52,1.51,2.24,1,2.41,2.65-1.06,1.15-4.15,2.45-3.21,3.74,2.43,1.9,3.12,2.17,6,2.32"/><path class="cls-3" d="M179.09,39.47h0"/><path class="cls-3" d="M179.16,39.45h0"/><path class="cls-3" d="M179.2,39.44h0"/><path class="cls-3" d="M179.26,39.41h0"/><path class="cls-3" d="M179.31,39.39l0,0,0,0"/><path class="cls-3" d="M179.47,39.27l0,0,0,0"/><path class="cls-3" d="M179.5,39.23s0,0,0,0,0,0,0,0"/><path class="cls-3" d="M174,54.52l.18-.37.24-.2.25-.18H175l.38.24,0,.13v.19l-.13.24-.16.22c-.05.2-.28.28-.44.44h-.38l-.16-.14-.15-.17v-.31Z"/><path class="cls-2" d="M145.37,77.69h-.07"/><path class="cls-3" d="M147.61,77.62c-.18-.09-.36,0-.54-.15l-1.12.15-.45.07,0-.07a6,6,0,0,0-3.65-.2l-.45.07-.2.24a1.28,1.28,0,0,1,.47,0,5.67,5.67,0,0,0-.75.11,3.2,3.2,0,0,0-.78.93,1.58,1.58,0,0,0,.38,1.15l0,0,4.61,1h0l.44-.4.16-.29.29-.33.22-.35-.05-.14-.28.2c-.12.09-.18.27-.27.36s-.29.2-.35.28-.12.09-.16.14a.51.51,0,0,1-.29,0,.16.16,0,0,0,.11,0l.2-.14c.07-.08.29-.19.36-.28s.17-.27.28-.36a8.49,8.49,0,0,1,.73-.44c.25-.13.47-.29.71-.4s.25-.2.4-.51Zm-2.46.07c-.22,0-.58-.22-.87-.27a3.28,3.28,0,0,1,1,.27Z"/><path class="cls-3" d="M145.3,77.69h-.15c-.22,0-.58-.22-.87-.27A3.28,3.28,0,0,1,145.3,77.69Z"/><path class="cls-3" d="M160.79,79.73a2.23,2.23,0,0,1,1.46.06c.28.17.21.42,0,.68a1.88,1.88,0,0,1-.71.15,1.57,1.57,0,0,1-.84-.34c-.05-.09-.12-.17-.08-.29a.4.4,0,0,1,.16-.26Z"/><path class="cls-3" d="M178.59,85.72a.39.39,0,0,1,.19-.1,3.23,3.23,0,0,1,2.46.58.62.62,0,0,1,.33.35.45.45,0,0,1,0,.38.36.36,0,0,1-.22.26.49.49,0,0,1-.35.15,3.63,3.63,0,0,1-2.65-1.23.37.37,0,0,1,.24-.39Z"/><path class="cls-3" d="M66.57,9.69c.28-.08,1.24-.28,1.52-.1.59.36-.4.69-.67.77a1.33,1.33,0,0,0-.94.72c-.12.38.21,1.17-.28,1.32a.17.17,0,0,1,0-.07c-.33.18-.24.59-.24.93a1.45,1.45,0,0,0,.52,1.24,4.65,4.65,0,0,0,2.1,1.44,11.1,11.1,0,0,0,2.34.28c1,0,1.41-.86,1.68-1.7a2.07,2.07,0,0,0,0-1c-.11-.57-.56-.91-.95-1.34s-.54.74-.57,1a1.75,1.75,0,0,1-.68,1.31,1.47,1.47,0,0,1-1.61,0c-.06-.06,0-.06-.1-.1-.15-.54,1.08-.38,1.39-.75a2.08,2.08,0,0,0,.31-1.71c0-.35-.09-1.33.49-1.25.28,0,.5.36.68.56.5.58.92,1.33,1.48,1.86s.93.82,1.35,1.31c.21.24.51.47.39.84-.2.59-.74,1-1,1.48-.13.33-.1.7-.33,1-.34.47-1.48.35-2,.19a1.39,1.39,0,0,0-.92-.11,5.16,5.16,0,0,1-1.13.11,8.85,8.85,0,0,1-2.42-.06A14.87,14.87,0,0,1,63.85,16c-.6-.4-1-.83-.8-1.61.09-.37.11-.71.18-1.11a7.39,7.39,0,0,1,.47-1c.24-.69-.14-1.57.45-2.09a3.59,3.59,0,0,1,2.46-.44Z"/><path class="cls-4" d="M68.81,11.07c.78,0,1.13,1.42.82,2a2,2,0,0,1-1.87.85c-1.59-.32-1.2-3.16.43-3.06A7,7,0,0,1,69,11Z"/><path class="cls-3" d="M70.62,36.3c0-.15.32-.5.48-.67.3-.32.4-.27.86-.34s.44-.33.81-.51a4.46,4.46,0,0,1,1.1-.1,8.21,8.21,0,0,0,2.77-1,1.3,1.3,0,0,1,.84-.25,2.25,2.25,0,0,0,1-.19c.54-.24.94-.43,1.05-1.05a1.47,1.47,0,0,0-.47-1.3,3,3,0,0,1-1.15-2.51c.53,0,.71,0,.91.42s.18.62.7.72c.2,1,1.2,2.27.55,3.35-.48.79-1.41,1.07-2.13,1.57-.9.64-.7,1.79-.65,2.8s1.39,1.47,1,2.44-1.36-.45-1.53-.88a9.21,9.21,0,0,0-.77-2.27c-.2-.28-.52-.93-.79-1.07a5.91,5.91,0,0,0-1.92,0c-.54.1-.87.49-1.43.57a4.64,4.64,0,0,0-.76.1c-.27.08-.33.31-.67.23Z"/><path class="cls-3" d="M76,26.38c.33.42-.12.61-.52.52a2.22,2.22,0,0,1-.8-.49,9.26,9.26,0,0,1-1.5-1.16c-.5-.49-1.07-.9-1.48-1.39a2.1,2.1,0,0,0-1.61-1c-.35,0-.7,0-1,0-.27-.6.48-.65.9-.66-.14-.83-.65-.72-1.23-1.14s-.75-1.42.14-1.43,1.4.79,1.91,1.32a15.1,15.1,0,0,1,1.43,2A6.61,6.61,0,0,0,74,24.81a5.11,5.11,0,0,1,1,.74c.25.27.42.62.84.55.06.13.15.24.2.37Z"/><path class="cls-3" d="M73.29,45.45a.45.45,0,0,1-.23,0c-.1-.45.23-.63.46-1a1.66,1.66,0,0,0,.25-1.09,6.94,6.94,0,0,0-.33-2.2c-.19-.58-.48-1.33-1.1-1.56-.31-.13-.69-.11-1-.25a5.59,5.59,0,0,0-.89-.33,4.15,4.15,0,0,1-1.31-.34,4.79,4.79,0,0,1-.91-1,11.65,11.65,0,0,0-1.64,2.86,3.74,3.74,0,0,0,.1,2.07,3.17,3.17,0,0,1-.38,2.28,11.89,11.89,0,0,0-.59,1.31c-.32.9.23,2.2-.47,2.92-1.8,1.83-3.43-2.06-3.71-3.23a8.12,8.12,0,0,1-.21-2.3c0-.73.26-1.43.22-2.16-.07-1.18-.37-2.7.4-3.72.5-.65.36-1.28.55-2s.48-1.5.61-2.29A14.08,14.08,0,0,0,63,31.29a4.07,4.07,0,0,0-.14-1.56c-.19-.46-.54-.85-.71-1.31A8.48,8.48,0,0,1,62,25.48H61.9a9.18,9.18,0,0,1,0-1.89,7.24,7.24,0,0,1,.7-1.88,4.74,4.74,0,0,1,1-1.38,2.82,2.82,0,0,1,2-.23l-.19.05a1.88,1.88,0,0,1-.33,1.1,1.88,1.88,0,0,0-.39.85A7.37,7.37,0,0,0,65,24.47c.42,1.47,1.5,3.44.67,5a3.59,3.59,0,0,1-1.16,1.07c-.67.52-.18,1.5,0,2.2a6.34,6.34,0,0,0,2.13,0,1.31,1.31,0,0,0-.09-.79c-.15-.24-.45-.3-.53-.59-.18-.64.46-.95.69-.25.17.52.08.83.48,1.29s.8.58.5,1.1c-.52,0-1.43-.19-1.81.23-.71.78.65,1.81,1.15,2.24a8.32,8.32,0,0,1,.73.86,6.58,6.58,0,0,0,3.74,1.82.92.92,0,0,1,.77,0c.29.18.33.61.59.84s.63.23.84.64a3.45,3.45,0,0,1,.29,1.09,17.1,17.1,0,0,1,.1,2.38c0,.56.21,1.81-.53,2h-.23Z"/><path class="cls-3" d="M69.62,40.59c-1-.78-1.29,1.14-1.24,1.7s.07,1.92.81,2.21c.38.15.94,0,.64-.5-.13-.18-.56-.27-.75-.44-.62-.62-.24-1.42.11-2.07a1.46,1.46,0,0,0,.19-.9c-.07,0-.06,0-.09-.05Z"/><path class="cls-3" d="M67.52,42.73c-.33.2-.34,1.18.14,1.2s.3-.94,0-1.2Z"/><path class="cls-3" d="M68.09,44.4c-.41.29-.23.76.28.66,0-.27,0-.58-.28-.66"/><path class="cls-3" d="M68.72,46.07c-1.12,0-1.11,1.21-1.61,2-.4.61-1.56,1.82-.2,2.16,1,.25,1.09-.84,1.32-1.6.12-.4,0-.81.16-1.2s.48-.66.36-1a.36.36,0,0,0-.13-.21Z"/><path class="cls-3" d="M76.34,60.49c.11.73-.65,1.41-1.13,1.86s-2.31.44-1.69-.2c.09-.09.38-.09.49-.16a1.25,1.25,0,0,0,.38-.38c.26-.33.2-.55.33-.93A4,4,0,0,0,73,59.84a18.77,18.77,0,0,1-2.5-.13,2.27,2.27,0,0,0-.87.07.8.8,0,0,0,0,.31c.56.4,1.49.62.91,1.35s-1.44,1-1.53,1.79c.49.09,1-.24,1.53-.33a6,6,0,0,1,1.7-.13c1.13.11.2,1-.37,1.24-.75.24-1.51.33-2.24.62a8.24,8.24,0,0,1-1.13.44l-6.09-1.26a3.24,3.24,0,0,1-.84-.71,2.56,2.56,0,0,1,0-3.06,2.27,2.27,0,0,1,2-.91,9.15,9.15,0,0,0,3.59-.33,9.9,9.9,0,0,1,3.68-.53,5.79,5.79,0,0,1,1.61,0,6.65,6.65,0,0,1,1.33.73l-.13,0c.37.13.49.35,1,.37C75.45,59.36,76.2,59.6,76.34,60.49Z"/><path class="cls-3" d="M74.87,54.56c-.46-.06-.83.25-1.23.39s-.64,0-.58.66c.1.88,1.32,1,2,.62.3-.18.43-.48.76-.62s.83,0,1.08-.3c.62-.69-.37-1.16-.93-1.08-.34,0-1.08,0-1.25.33Z"/><path class="cls-3" d="M181.1,82.1c.57-.18,1,.71,1.12,1.11,0,0,.08,0,.12,0a2.85,2.85,0,0,1,0,.31,2,2,0,0,1-.24,0h1.3a5.78,5.78,0,0,1,1.39.32c.4.08,1,.07,1.17-.21a2.81,2.81,0,0,0,0-1.29,5,5,0,0,1-.32-1.06,10.59,10.59,0,0,0,0-1.38,1.49,1.49,0,0,0-1.39-1.24,4.08,4.08,0,0,0-1.76.11,1,1,0,0,0-.24,1.24c.57,0,1.14.15,1,.84-.31,0-.5-.26-.79-.31-.49-.09-.5.14-.79.43s-.65.55-.74,0c0-.27.41-.61.46-.88a3.28,3.28,0,0,0-1.39.11,2.37,2.37,0,0,1-1.11-.28c-.86-.31-1.66.11-2.4-.53.36-.68,2.5-.11,3.15-.11a5,5,0,0,0,1.48.1c.49-.15.31-.6.67-.82a5.27,5.27,0,0,1,1.95-.08c.66,0,1.44-.21,2,.22s.55,1.21.75,1.85a15.34,15.34,0,0,1,.4,2.67c.14,1.12-.74,1.31-1.69,1.22-.38,0-.65-.3-1-.37a6.57,6.57,0,0,0-1.33,0,1.4,1.4,0,0,1-1.31-.66c-.22-.24-1.23-1.06-.44-1.31Z"/><path class="cls-3" d="M183.16,71c-.6-.27-1.38.31-1.91.54s-1.69,0-1.54.88a16.4,16.4,0,0,1,2.5.55,2.14,2.14,0,0,0,2.16-.11,2.48,2.48,0,0,1,.5-.31c.15,0,.54,0,.65-.1.24-.28,0-.71-.27-.88-.52-.4-1.39-.3-2-.63Z"/><path class="cls-3" d="M181.57,67.2c-.16.17-1,.69-1,.86s.87.27,1.12.26A12.41,12.41,0,0,0,184,68c.17-.52-.16-.46-.37-.83s-.18-.67-.37-1a2,2,0,0,0-.64-.67,2.77,2.77,0,0,1-.56-.78c-.4-.56-1.53-.34-2.25-.3a1.73,1.73,0,0,0-1.07.39,5,5,0,0,1-1.07.4,7.86,7.86,0,0,1-1.21.49c-.29,0-.95-.15-1.12.1s.22,1,.42,1.16a1.65,1.65,0,0,0,1.33.32c0-.28-.4-.49-.52-.77a2,2,0,0,1,1.34-.49,9.11,9.11,0,0,0,1.8-.36,1.41,1.41,0,0,1,1.39.18c.54.37.52.84.52,1.51Z"/><path class="cls-3" d="M177.57,14.46c-.1-.77-.29-1.46-.41-2.19-.12-.31-.12-.63-.46-.88-.1-.17-.55-.34-.64-.19a.94.94,0,0,1-.5-.14l-.41-.31-.57-.29-.15,0-.06,0c-.29.07-.57.15-.86.24h-.37a13.09,13.09,0,0,0-2.24.18.82.82,0,0,0-.17.34,1.35,1.35,0,0,0,.33.7l1.27,1,.52.37a7,7,0,0,0,2.84,1.09,4.12,4.12,0,0,0,1.6.25c.09,0,.23-.08.28-.2"/></g><g id="I3"><path class="cls-1" d="M154.58,182.59c-.38.42-.73.86-1.11,1.26a56.09,56.09,0,0,1-8.54,7.4l-.84.57c-2.09,1.33-4,2.79-5.92,4.28-1,.7-3.38,2.76-4.07.73a10.47,10.47,0,0,1-.38-2.2l0-1.41,0-.6v-.35l.15-2.33c.93-3.28,1.88-3.28,3.48-5.47a3.45,3.45,0,0,0-.31-3.23l-.64-.8c-1.73-.79-2.66.11-3.66,1.29a6,6,0,0,0-.37,1.52,20.55,20.55,0,0,0-.76,4.23c-.11,1,.07,1.91,0,2.82.09,1.59.89,5.46.44,6.86a3.64,3.64,0,0,1-1,1.44c-.78,0-1.53,0-2.28,0h0l-.09-.58-.84-1.43-.62-.4-.47-.4-1.93-.67c-23.29,7.93-59.24-16.84-58.51-29.77-.62-1.67-1.4-4.7-2.06-6.65l-.67-9.1Z"/><path class="cls-2" d="M112.3,196.32a1.9,1.9,0,1,1-1.9-1.91,1.91,1.91,0,0,1,1.9,1.91Z"/><path class="cls-2" d="M122.05,197.24a1.91,1.91,0,1,1-1.9-1.9,1.9,1.9,0,0,1,1.9,1.9Z"/><path class="cls-2" d="M108.34,194.62a1.63,1.63,0,1,1-1.63-1.63,1.63,1.63,0,0,1,1.63,1.63Z"/><path class="cls-3" d="M125.53,172.07c-.68,1.22-.75,2.06-3.83,3.3a10.07,10.07,0,0,1-4.21-.31,4.72,4.72,0,0,1-2.5-1.86l0-.9c.33-.6.69-1.22,1-1.84.26-.33.53-.69.8-1,.13-.13.28-.24.42-.38Z"/><path class="cls-3" d="M135.49,176.32l-.15,1.16a.54.54,0,0,0-.11.26l-.69.31-.4.29a4.08,4.08,0,0,1-3.16.27l-.33-.07c-.58,0-.91,0-1.49-.09a.14.14,0,0,0,.05.09,11.37,11.37,0,0,1-1.09-.58l-.2-.11v-.09a2.56,2.56,0,0,1-.15-.73l0-.13.47-.6.62-.57.17-.14.93-.84.49-.37.49-.25.06-.06,4.39,1.59v.55Z"/><path class="cls-2" d="M130.41,194.66h0"/><path class="cls-2" d="M130.36,194.67h0"/><path class="cls-2" d="M130.31,194.68h0"/><path class="cls-2" d="M130.3,194.69h0"/><path class="cls-2" d="M130.29,194.69h0"/><path class="cls-2" d="M130.26,194.71h0"/><path class="cls-2" d="M130.2,194.74h0"/><path class="cls-2" d="M130.18,194.75h0"/><path class="cls-2" d="M129.91,195v0"/><path class="cls-3" d="M142.82,178.34a4.39,4.39,0,0,1-.73.33c-.86.29-1.92-.35-2.3-.06,0,.39.58.66.27.95a4.74,4.74,0,0,1-1.13,0c-.47-.18-.51-.16-.56-.58,0-.06-.31-.55-.33-.62s-.51-.57-.42-.75c.31,0,.84.69.95.4-.17-.31-.68-.8-.73-1.13a1.44,1.44,0,0,1-.09-.4Z"/><path class="cls-3" d="M73.89,161.84v-.08l.27-.28,0,0,.21-.07a2.37,2.37,0,0,1,.93.76l.14.27h.1l.33.53.09.3,0,.34-.24.35h-.19l-.89-.75-.41-.48-.3-.44-.09-.32Z"/><path class="cls-3" d="M75.89,159.05l.1-.14.19-.06h0l.5,0c.49.22.78.71,1.2,1.1l.1.49-.12.27-.37.16-.36-.08-.41-.32-.15-.25c-.09-.32-.4-.32-.64-.59l-.12-.52Z"/><path class="cls-2" d="M112.91,167.51c-.4.4-.77.8-1.15,1.2a1.84,1.84,0,0,1-.35.15l-.71.2a1.88,1.88,0,0,1-.36,0,2.47,2.47,0,0,1-1.08-.84s0,0,0,0,0,0,0-.06l0,0h0s0,0,0,0,0,0,0,0l0,0a6.93,6.93,0,0,0-1.15-.84,4.63,4.63,0,0,1-1-.91,7.31,7.31,0,0,0-.23-.95Z"/><path class="cls-3" d="M70,154.78c-.61-.73-2.51-.43-3.33-.24-.33.58,0,1.16.12,1.76,1-.06,2.51.68,3.46.29s.72-1.67-.25-2.06Z"/><path class="cls-3" d="M68.53,163.56c-1.24-.92-1.64.2-1.84,1.13a4.12,4.12,0,0,0-.23,1.58c.12.64.47.73.74,1.32.53,1.19.28,1.48,1.71,2,.58.23,2.57,1.23,2.43,0-1.26-.37-.84-2.19-1.27-3.12a23.34,23.34,0,0,1-1.42-3Z"/><path class="cls-3" d="M72.53,171.82c-1.36-.18-.07,3.44-1.12,4.13,1.62.21,2.29-3,1.37-3.87Z"/><path class="cls-3" d="M71.47,177.58a9.24,9.24,0,0,0-.64-1.71c-.24-.4-.66-.5-.88-1.05-.15-.35,0-3.19-.28-3.24-3-.65-.65,4.77,0,5.89a43.87,43.87,0,0,1,2.42,4.73c1,2.09,1.34,4.29,3.32,5.65a10.59,10.59,0,0,0,5.72,2.06c4.48.45,9.78.84,14,2.47,2,.75,2.93,2.43,5,3.16,3.53,1.25,7,3.09,10.42,4.61,3.21,1.43,6,1.1,9.43,1.1,1.46,0,5.53.64,6.19-.9a6.77,6.77,0,0,0-.88-5.45,4.4,4.4,0,0,0-1.46-1,4.73,4.73,0,0,1-.79-.37,3.22,3.22,0,0,0-.78-.52,1.92,1.92,0,0,0-.68,0c-.14,0-.08-.08-.21,0s0,.21-.11.27c-.31.29-.72-.09-1-.21a16.41,16.41,0,0,0-5.16-1.22c-2-.1-4.17.15-5.91.11,0-.11,0-.22,0-.34-1.54-.08-2.15-.21-2,1.51,1.81,0,3.14.83,4.77,1.17a26.6,26.6,0,0,0,4.64.78c1.21,0,2.39.32,3.6.33a3.24,3.24,0,0,0,1.69-.29.7.7,0,0,0,.36-.43c.12-.48-.58-.7-.81-1.08s.07-.54-.13-.85a2.41,2.41,0,0,0-1.1-.68c-.44-.2-.86-.43-1.3-.63a9.69,9.69,0,0,0-3-.88,43,43,0,0,0-6.32-.13c-2.66.13-4.31.64-6.94-.23s-5.12-1.94-7.64-2.75c-.85-.27-1.82-.16-2.71-.39a26.08,26.08,0,0,1-6.73-2.49,24.1,24.1,0,0,1-3-2.28c-.74-.59-2-.86-2.59-1.58s-.22-1.86-.64-2.81S76.09,174.63,75,175a13,13,0,0,0,2.45,2,2.4,2.4,0,0,1,1.36,2.33c.14,2.5,2.13,3,4.14,4.28.27.17,3.27,2.67,3,2.7-.88.08-1.88-.76-2.68-1.15-1.17-.55-3.56-1.7-4.89-1.55a1.41,1.41,0,0,1-.14-1.16c-.79-1-1.75-1-2.56-1.7s-1.1-1.19-2.16-1.58-1.6-.43-2-1.54Z"/><path class="cls-3" d="M129.41,194.92c-.41.47-.21,1.45-.21,2.06s-.07,1.46-.1,2.18.17,1.77,1,2a1.42,1.42,0,0,0,1.48-.73,2.29,2.29,0,0,0-.05-1.53c-.1-.23-.32-.41-.4-.65a3.2,3.2,0,0,1,0-1.07,2.35,2.35,0,0,0-.36-1.73c-.38-.46-.65-.43-1.26-.43Z"/><path class="cls-3" d="M154.73,182.66l-1,.77a13.81,13.81,0,0,0-1.81,1.86c-.53.62-1.33,1-1.91,1.51s-1.08,1.06-1.66,1.55a25.82,25.82,0,0,0-2.23,1.61c-.67.71-1.64,1-2.3,1.66s-1.16.8-1.73,1.29a9.79,9.79,0,0,1-1.71,1.1c-.31.16-.53.45-.82.6s-.68.11-1,.29a2.91,2.91,0,0,0-.89,1.09.15.15,0,0,1,.09,0,2,2,0,0,1-1.39-.11c-.76-.27-.82-.76-.82-1.46a1.88,1.88,0,0,1,.31-1.29c.17-.18.31-.4.48-.57.65-.78,1.62-1.33,2.31-2.09a6.69,6.69,0,0,1,2.45-2,6.61,6.61,0,0,0,2.57-1.62,7.13,7.13,0,0,0,1.84-2.14,21.61,21.61,0,0,1,1.46-2.17c.2-.34.24-.69.4-1a10.05,10.05,0,0,1,.82-1.26l1,.37c-.36.64-1.11,1.15-1,1.88.26,0,.33-.15.57-.15s.31.2.49.22a4.11,4.11,0,0,0,1.4,0,3.43,3.43,0,0,0,1.28-1l2.68,1Z"/></g><g id="Labels"><path class="cls-5" d="M183.71,14.83h.14l.11,0,.31.06.33.09.22.1a.55.55,0,0,1,.31.43l0,.16-.08.14-.09.12-.23.19-.79.52-.72.39-.31.13-.27.06a.29.29,0,0,1-.21-.09l-.06-.1,0-.13,0-.13s0-.07.1-.13l.25-.12.49-.21.62-.31.26-.14.19-.14,0-.08c0-.12-.15-.17-.47-.17l-.33,0-.38.13c-.27,0-.41-.11-.41-.33a.3.3,0,0,1,.07-.2A.86.86,0,0,1,183,15l.38-.12Zm2.72,0a2.2,2.2,0,0,1,.52.08l.16.05.11,0,.24.16a.64.64,0,0,1,.16.17.6.6,0,0,1,0,.24l0,.09,0,.1-.12.14-.12.13-.12.13-.15.13-.43.35-.44.29-.38.22-.17,0-.18,0h-.14a.19.19,0,0,1-.12-.07l-.06-.12a.22.22,0,0,0,0-.09.21.21,0,0,1,.07-.15l.14-.07.18-.09.26-.12.46-.25.34-.27.19-.17a.34.34,0,0,0,.07-.15.16.16,0,0,0-.12-.17l-.27,0h-.17l-.13,0-.13,0-.11,0-.09,0-.24,0-.1-.05,0,0-.05-.05a.64.64,0,0,1,0-.15v-.09l.06-.1a.93.93,0,0,1,.18-.12l.12-.06.12,0a.9.9,0,0,1,.27-.07l.2,0Z"/><path class="cls-5" d="M186.71,18.54h.11a.11.11,0,0,1,.08,0,.36.36,0,0,1,.18.2v.18a.26.26,0,0,1-.08.21l-.36.15.17.17a.57.57,0,0,1,.17.39V20a.13.13,0,0,0,0,.06.15.15,0,0,1,0,.06.87.87,0,0,1-.47.62l-.26.14L186,21l-.22,0h-.22l-.23,0-.43-.1-.08-.05-.28.24-.13.12-.17.13-.37.27-.16.1-.28.17-.26.16-.53.29-.11.05-.12.06-.22.12-.21,0a.49.49,0,0,1-.45-.26l0-.06,0-.14a.25.25,0,0,1,.08-.2l.09-.08.08,0h.46a.84.84,0,0,0,.34-.08l.59-.32.21-.13.34-.22.22-.16.14-.15.12-.09.13-.14-.09-.17,0-.1v-.11a.42.42,0,0,1,.25-.28l.18,0h.12l.17.08a.29.29,0,0,1,.16.17l0,.14,0,.05.16.09.16.07h.2l.14,0,.11,0a.66.66,0,0,0,.28-.19l.08-.11,0-.1a.36.36,0,0,0-.05-.19l-.09-.1-.12-.08-.12-.07-.22-.11-.21-.15,0-.08,0-.11a.13.13,0,0,1,.07-.13l.19-.09h.37l.14-.06.12-.09.12-.07.12-.05Z"/><path class="cls-5" d="M191.58,23.11c.18,0,.26.14.26.41,0,0,0,.07-.11.14l-.14.1-.2.14-1,.62-1.11.63-.09,0c-.18,0-.27-.11-.27-.34s.1-.23.29-.34l.44-.24L190,24l.71-.44A3.27,3.27,0,0,1,191.58,23.11Zm.35,1.14.09,0,.13,0a.26.26,0,0,1,.26.2l0,.18a.19.19,0,0,1-.07.16l-1.53.9-.72.41-.12.06-.13,0a.36.36,0,0,1-.25-.15l0-.11v-.11a.28.28,0,0,1,.1-.18,2.44,2.44,0,0,1,.36-.26l.61-.31.72-.42Z"/><path class="cls-5" d="M191.09,18.76h.14a.29.29,0,0,1,.12,0h.22a.54.54,0,0,1,.24.05l.26.06c.31.07.46.2.46.41a.54.54,0,0,1-.09.28.91.91,0,0,1-.11.16l-.16.16-.23.22-.28.23-.24.17-.36.24a8.2,8.2,0,0,1-1.08.6l-.45.22-.21.07-.27.09-.19,0-.14,0-.09,0-.11-.09-.08-.15,0-.06c0-.19.06-.29.18-.31l.2,0H189l.2,0,.12,0,.15,0,.17-.07.23-.12.37-.19a.85.85,0,0,0,.17-.08l.3-.15.32-.18.19-.13.11-.08.16-.14a1.34,1.34,0,0,0,.21-.2l0-.07,0,0a.08.08,0,0,0,0,0l-.1-.05h-.08l-.21,0-.16,0h-.1l-.34,0-.05,0-.09,0-.11,0-.08,0H190a.34.34,0,0,1-.21-.27.49.49,0,0,1,0-.23.85.85,0,0,1,.21-.14l.18-.06.18-.06Z"/><path class="cls-5" d="M196.89,14.33l.1-.06.11,0c.2,0,.3.13.3.4a.22.22,0,0,1-.07.16,13.72,13.72,0,0,1-1.22.82l-.55.3c-.18.09-.35.17-.53.24l-.26.08a.27.27,0,0,1-.14,0,.42.42,0,0,1-.09-.14l0-.07v-.11s0-.05,0-.06a.29.29,0,0,1,.06-.15l0-.06.09,0a3,3,0,0,0,.91-.42A7.62,7.62,0,0,0,196.89,14.33Zm.6,1.07a.35.35,0,0,1,.21-.07q.3,0,.3.39a.2.2,0,0,1,0,.09.18.18,0,0,1,0,.07,12.85,12.85,0,0,1-1.14.78,11.26,11.26,0,0,1-1.15.58l-.15.05-.12,0c-.1,0-.17-.06-.23-.18l0-.1,0-.14q0-.15.18-.21a6.53,6.53,0,0,0,.91-.48l.3-.17.43-.27A5.31,5.31,0,0,0,197.49,15.4Z"/><path class="cls-5" d="M195.24,18.83h.1a.16.16,0,0,1,.09,0l.16.11.14.12.06.07h.4l.2-.21.17-.06a.47.47,0,0,1,.17,0,.6.6,0,0,1,.26.07s.08.08.11.2l0,.23h.35l.21-.26a1,1,0,0,1,.26-.18l.09,0,.17,0h.18l0,0,.06.05.08.1,0,.05v.11l0,.08a.48.48,0,0,1,0,.11l-.07.08a1.38,1.38,0,0,1-.53.47l-.2.11-.2.08-.27.07h-.6l-.1-.07-.1-.19,0-.07h-.77a1.33,1.33,0,0,0-.39.2l-.39.24-.22.17-.22.19a.66.66,0,0,0-.22.41.5.5,0,0,0,.08.27.66.66,0,0,0,.26.18,1.61,1.61,0,0,0,.36.1l.38,0h.32l.38,0,.38,0a.36.36,0,0,0,.23-.08l.17-.11a.41.41,0,0,1,.19,0h.13l.07,0,.09.07.11.11.06.11a.44.44,0,0,1-.24.37l-.11.07-.16.07-.2.06h-2.12a1.07,1.07,0,0,1-.54-.19L194,22l-.05,0-.07-.07a.94.94,0,0,1-.39-.72v-.2l.07-.2.09-.17.11-.15.26-.23.37-.29.32-.23v-.09l-.11-.07,0-.08v-.12l0-.14c0-.11.14-.21.37-.31Z"/><path class="cls-5" d="M204,15.76c0,.51-.33.94-1,1.29a1.43,1.43,0,0,1-.68.21c-.65,0-1-.28-1-.83a1.37,1.37,0,0,1,.56-1.07,1.8,1.8,0,0,1,1.18-.46,1,1,0,0,1,.36.06.66.66,0,0,1,.29.17A.8.8,0,0,1,204,15.76Zm-.61.09c0-.22-.16-.34-.48-.34a.89.89,0,0,0-.6.29.82.82,0,0,0-.29.61c0,.14.09.22.29.22h.14a1.07,1.07,0,0,0,.6-.27A.68.68,0,0,0,203.36,15.85Z"/><path class="cls-5" d="M201.52,18.75l.19,0a.43.43,0,0,1,.28.16l.08.12a.26.26,0,0,0,.17.09.34.34,0,0,0,.14,0l.13-.12.1-.08.09-.09.1,0,.15,0H203l.07,0,.12.06.06,0,.05.06.07.16,0,.15,0,0,.07,0a.79.79,0,0,0,.3-.09l.13-.1.13-.13a.12.12,0,0,1,0-.05l.09-.06.17-.09.14,0h.13s.06,0,.09.06l.08.1,0,.08a.5.5,0,0,1-.11.32l-.16.18a.35.35,0,0,1-.17.12l-.19.11-.24.09-.23.08-.41.08a.6.6,0,0,1-.35-.1l-.13-.1-.14-.14h-.26l-.2,0a.37.37,0,0,0-.14.08l-.28.26-.43.35-.43.32-.12.09-.16.1-.19.12-.62.35-.47.26-.19.08a1.28,1.28,0,0,1-.21.07l-.19.05h-.21l-.13,0-.15-.06a.37.37,0,0,1-.18-.37.3.3,0,0,1,.18-.28h.6a1.32,1.32,0,0,0,.41-.16l.42-.22.49-.26.44-.29.34-.27.08-.09a.19.19,0,0,0,0-.1l-.16-.3v-.22a.17.17,0,0,1,0-.08l.09-.11A.59.59,0,0,1,201.52,18.75Z"/><path class="cls-5" d="M209.66,15.32a.37.37,0,0,1,.21-.08c.19,0,.29.13.29.4v.09l-.06.06a12.73,12.73,0,0,1-1.13.78,10.33,10.33,0,0,1-1.15.58l-.15.05-.12,0c-.1,0-.18-.06-.24-.19v-.24c0-.1.07-.17.19-.21a6.53,6.53,0,0,0,.91-.48l.29-.17.44-.27Z"/><path class="cls-5" d="M208.8,18.82l.11-.08.11,0,.18,0a.14.14,0,0,1,.1.1l0,.13a.24.24,0,0,1,0,.16l-.15.13-.2.22-.13.09-.1.08-.79.5-.83.47-.4.2-.38.16-.41.16a1.15,1.15,0,0,1-.39.07.66.66,0,0,1-.35-.11l-.12-.1,0-.07s0-.05,0-.08v-.1s0-.06,0-.07a.32.32,0,0,1,.17-.19l.15-.06.15,0,.25,0h.08a1.39,1.39,0,0,0,.62-.16l.44-.21,1-.57.69-.45Z"/><path class="cls-5" d="M146.29,31.72l.14,0h.06a.13.13,0,0,1,.08,0l.07,0,.08.09,0,.14,0,.09a.21.21,0,0,1-.07.14l-.1.1-.33.25-.41.3-.41.27-.69.41-.28.13a3.16,3.16,0,0,1-.43.2l-.15.05-.19.06h-.22a.26.26,0,0,1-.14-.07.3.3,0,0,1-.13-.16v-.13a.46.46,0,0,1,.09-.22l.16-.18.11-.12.07-.1,0-.18V32.2a.69.69,0,0,1,0-.22.1.1,0,0,1,.06-.05l.11-.07.18,0h.15a.37.37,0,0,1,.29.37l0,.1,0,.09-.09.22-.09.32-.08.22.14-.06.15-.1.23-.13.29-.17.54-.36.12-.09.19-.17.32-.24Z"/><path class="cls-5" d="M146,27.77h.32l.11,0a1,1,0,0,1,.59.14.43.43,0,0,1,.21.38,1.14,1.14,0,0,1-.38.66l-.24.25-.29.25a2.59,2.59,0,0,1-.3.21,1.92,1.92,0,0,1-.35.18l-.53.22-.26.12-.19,0s-.08,0-.14-.12l0-.08,0-.1a.31.31,0,0,1,.06-.19.53.53,0,0,1,.22-.15l.23-.07.27-.08a1.24,1.24,0,0,0,.27-.12,1.35,1.35,0,0,0,.88-.81l-.05,0-.06,0-.2,0h-.46l-.09,0-.12.07-.1.05-.09,0h-.14a.26.26,0,0,1-.14-.06l-.1-.14,0-.12a.26.26,0,0,1,.13-.23,2.48,2.48,0,0,1,.5-.2A2.2,2.2,0,0,1,146,27.77Z"/><path class="cls-5" d="M139.48,31.72l.19,0a.4.4,0,0,1,.28.16L140,32a.3.3,0,0,0,.17.08.34.34,0,0,0,.14,0l.13-.12.1-.08.1-.09a.19.19,0,0,1,.09,0l.15,0H141l.08,0,.11.06.06,0,0,.06.07.16,0,.15,0,0,.07,0a.74.74,0,0,0,.3-.08l.13-.11.13-.13a.12.12,0,0,1,0-.05l.09-.06.17-.09.14,0h.13s.06,0,.09.06l.08.1,0,.09a.47.47,0,0,1-.11.31l-.15.18a.59.59,0,0,1-.18.13l-.19.1-.24.1-.23.07-.41.08a.7.7,0,0,1-.35-.09l-.13-.11-.14-.14h-.26a.56.56,0,0,0-.2,0,.31.31,0,0,0-.14.07l-.28.26-.43.35-.43.33-.12.08-.16.1-.19.12-.62.35-.47.26-.19.08-.21.08-.19,0h-.21l-.13,0-.15-.06c-.12-.05-.18-.18-.18-.37a.29.29,0,0,1,.18-.27l.13,0H137a1.09,1.09,0,0,0,.41-.16l.42-.22.49-.26.44-.29.34-.26.08-.1a.17.17,0,0,0,0-.1l-.15-.3,0-.14v-.08s0-.06,0-.07l.08-.12A.59.59,0,0,1,139.48,31.72Z"/><path class="cls-5" d="M137,33.28l-.3.29-.2.14-.22.14-.37.18-.35.11-.41.09-.41,0h-.59a.42.42,0,0,1-.15,0,1,1,0,0,1-.74-.62,1.13,1.13,0,0,1,0-.38,1.33,1.33,0,0,1,.13-.48l.16-.2.2-.19.1-.09.12-.06.26-.13.24-.08.23,0h.22l.16,0a.61.61,0,0,1,.14.07l.22.21.21-.2.17-.12.1-.06.13,0,.24-.05.26,0a1,1,0,0,1,.8.34l.09.13a.4.4,0,0,1,0,.16v.15A1.4,1.4,0,0,1,137,33.28Zm-2.1-.56-.14-.08-.15,0h-.25l-.15.07a.62.62,0,0,0-.37.56.31.31,0,0,0,.16.25l.26.11.39-.57Zm1.86-.19c0-.13-.1-.19-.29-.19h-.12a.86.86,0,0,0-.32.16l-.39.31-.24.22-.18.21-.1.14-.17.25.52-.08.07,0,.11,0,.17-.1.32-.21.26-.19Q136.76,32.74,136.76,32.53Z"/><path class="cls-5" d="M136.59,27.77h.32l.11,0a1,1,0,0,1,.58.14.43.43,0,0,1,.21.38,1.09,1.09,0,0,1-.38.66l-.23.25-.3.25a2.43,2.43,0,0,1-.29.21,2.31,2.31,0,0,1-.35.18l-.53.22-.26.12-.19,0s-.08,0-.14-.12l0-.08,0-.1a.31.31,0,0,1,.06-.19.47.47,0,0,1,.22-.15l.23-.07.26-.08a1.43,1.43,0,0,0,.28-.12,1.33,1.33,0,0,0,.87-.81l0,0-.06,0-.2,0h-.46l-.09,0-.12.07-.1.05-.09,0h-.14a.26.26,0,0,1-.14-.06l-.1-.14,0-.12a.25.25,0,0,1,.13-.23,2.48,2.48,0,0,1,.5-.2A2.15,2.15,0,0,1,136.59,27.77Z"/><path class="cls-5" d="M129,34.78a.61.61,0,0,1-.37-.1.38.38,0,0,1-.12-.3v-.11a.2.2,0,0,1,.1-.17.61.61,0,0,1,.24-.07,1.88,1.88,0,0,0,.73-.18l.61-.34a1.05,1.05,0,0,0,.35-.18l.4-.28.17-.11.17-.15-.08-.07-.14-.16-.07-.15v-.14a.33.33,0,0,1,0-.14l.1-.09a.47.47,0,0,1,.27-.11.94.94,0,0,1,.36.11l.11.07.14.08.41-.21.49-.27.26-.11a1.72,1.72,0,0,1,.51-.16.59.59,0,0,1,.24.08.27.27,0,0,1,.1.22v.09a.37.37,0,0,1-.1.14l-.17.11-.1,0-.28.13-.26.11-.41.12-.21.05.33.17.24.13.13.11,0,.05v.07a.19.19,0,0,1,0,.08l0,.09a.23.23,0,0,1-.12.12l-.13.06-.17,0a.18.18,0,0,1-.11,0l-.66-.34-.23.15-.24.17-.32.19-.45.29-.82.47-.33.18-.32.16-.17.06Z"/><path class="cls-5" d="M132.5,27.77h.32l.11,0a1,1,0,0,1,.59.14.43.43,0,0,1,.21.38,1.14,1.14,0,0,1-.38.66l-.24.25-.29.25-.29.21a2.42,2.42,0,0,1-.36.18l-.53.22-.26.12-.18,0s-.09,0-.15-.12l0-.08,0-.1a.26.26,0,0,1,.07-.19.44.44,0,0,1,.21-.15l.23-.07.27-.08a1.24,1.24,0,0,0,.27-.12,1.35,1.35,0,0,0,.88-.81l0,0-.06,0-.2,0h-.46l-.09,0-.12.07-.1.05-.09,0h-.14a.26.26,0,0,1-.14-.06l-.1-.14,0-.12a.26.26,0,0,1,.13-.23,2.48,2.48,0,0,1,.5-.2A2.2,2.2,0,0,1,132.5,27.77Z"/><path class="cls-5" d="M129.33,31.51h.1l.09,0a.35.35,0,0,1,.17.2l0,.18q0,.17-.09.21l-.35.15.17.18a.54.54,0,0,1,.17.39V33s0,0,0,.06a.14.14,0,0,1,0,.06.92.92,0,0,1-.48.63l-.26.14-.18.06-.22,0h-.22L128,34l-.43-.11-.07-.05-.28.24-.14.12-.17.13-.36.27-.16.1-.28.18-.26.15-.53.29-.11,0-.12.06-.22.12-.21,0a.5.5,0,0,1-.46-.26v-.06l0-.14a.24.24,0,0,1,.07-.2l.1-.08.07,0h.46a.76.76,0,0,0,.35-.09l.59-.31.2-.13.35-.23.22-.16.14-.15.12-.09.13-.14-.09-.16,0-.11,0-.11a.45.45,0,0,1,.24-.28l.19,0h.12l.16.08a.27.27,0,0,1,.16.17l0,.15,0,0,.15.1.16.06h.21l.13,0,.12,0a.73.73,0,0,0,.28-.19l.07-.11,0-.1a.36.36,0,0,0-.05-.19l-.08-.1-.13-.07-.11-.08-.23-.11-.21-.15,0-.08,0-.11a.14.14,0,0,1,.07-.13l.2-.09h.37l.13-.06.13-.09.12-.07.12-.05Z"/><path class="cls-5" d="M126.63,27.8h.14l.11,0,.31.05.33.09.22.1a.52.52,0,0,1,.3.43l0,.16-.08.14-.09.12-.23.19-.79.53-.73.38-.3.14-.27.05a.29.29,0,0,1-.21-.09l-.06-.1,0-.13,0-.13s0-.07.1-.12l.25-.13.48-.2.63-.32.26-.14.18-.13,0-.08c0-.12-.16-.18-.47-.18l-.33,0-.38.13c-.27,0-.41-.11-.41-.33a.24.24,0,0,1,.07-.19.51.51,0,0,1,.21-.13l.38-.13Zm2.72,0a2.2,2.2,0,0,1,.52.08L130,28l.11.05.23.16a.55.55,0,0,1,.17.17.6.6,0,0,1,.05.24l0,.09-.06.1-.11.14-.12.14-.12.13-.15.13-.44.34-.43.29-.38.23-.17,0-.18,0h-.14a.22.22,0,0,1-.12-.06l-.06-.12a.31.31,0,0,0,0-.1.21.21,0,0,1,.07-.15l.14-.07.18-.08.26-.13.45-.25.35-.27.18-.16a.46.46,0,0,0,.08-.16.16.16,0,0,0-.12-.17l-.27,0-.17,0-.13,0-.13,0-.11,0-.09,0-.24,0-.1-.05,0,0s0,0,0-.05a.41.41,0,0,1-.05-.15v-.09l.06-.1a.93.93,0,0,1,.18-.12l.12-.05.11,0a1.64,1.64,0,0,1,.28-.07l.2,0Z"/><path class="cls-5" d="M184.19,43.05h.14l.11,0,.31,0,.33.09.22.11a.53.53,0,0,1,.31.42l0,.16-.08.14-.09.13-.23.18-.79.53-.73.38-.3.14-.27.05a.32.32,0,0,1-.21-.08l-.06-.11,0-.13,0-.13a.28.28,0,0,1,.1-.12l.25-.13.48-.2.63-.32.26-.13.19-.14,0-.08c0-.12-.15-.18-.47-.18l-.33,0-.38.13c-.27,0-.41-.11-.41-.34a.25.25,0,0,1,.07-.19.63.63,0,0,1,.21-.13l.38-.13Zm2.72,0a1.83,1.83,0,0,1,.52.09.62.62,0,0,1,.16,0l.11.06.24.15a.55.55,0,0,1,.16.18.54.54,0,0,1,.05.24l0,.08-.05.1-.12.15-.12.13-.12.13-.15.13-.44.35-.43.29-.38.22-.17,0-.18,0h-.14a.22.22,0,0,1-.12-.06l-.06-.12a.22.22,0,0,0,0-.09.21.21,0,0,1,.07-.15l.14-.07.18-.09.26-.13.46-.24.34-.28.19-.16a.34.34,0,0,0,.07-.15.17.17,0,0,0-.12-.18h-.44l-.13,0-.13.06-.11,0h-.09l-.24,0-.1-.05,0,0-.05,0a.64.64,0,0,1,0-.15v-.1l.06-.09.18-.13.12,0,.12,0a1.38,1.38,0,0,1,.27-.08l.2,0Z"/><path class="cls-5" d="M187.19,46.75h.11l.08,0a.4.4,0,0,1,.18.2v.19a.26.26,0,0,1-.08.21l-.36.15.17.17a.54.54,0,0,1,.17.39v.23s0,0,0,.06A.88.88,0,0,1,187,49l-.26.14-.18.06-.22,0h-.22l-.23,0-.43-.1-.08-.05-.28.23-.14.12-.16.13-.37.27-.16.1-.28.18-.26.16-.53.29-.11,0-.12.06-.22.11-.21,0a.49.49,0,0,1-.45-.26l0-.07,0-.14a.26.26,0,0,1,.08-.2l.09-.07.08,0h.46a.72.72,0,0,0,.34-.09l.59-.31.21-.13.34-.23.22-.15.14-.16.12-.09.13-.14-.09-.16,0-.11v-.11a.43.43,0,0,1,.25-.27l.18,0h.12l.17.07a.29.29,0,0,1,.16.17v.15l0,0,.15.1.17.07h.2l.14,0,.11,0a.82.82,0,0,0,.28-.18l.08-.12,0-.1a.38.38,0,0,0-.05-.19l-.09-.1-.12-.07-.12-.08-.23-.1-.21-.16,0-.08,0-.11a.13.13,0,0,1,.07-.12l.2-.1h.37l.14-.06.12-.08.12-.07.12-.06Z"/><path class="cls-5" d="M192.61,43.53a.31.31,0,0,1,.2-.07q.3,0,.3.39l0,.09A.12.12,0,0,1,193,44a10.88,10.88,0,0,1-1.14.77,9.62,9.62,0,0,1-1.15.59l-.15.05-.12,0c-.1,0-.17-.06-.23-.18l0-.1,0-.14c0-.1.06-.17.19-.21a7.38,7.38,0,0,0,.9-.48l.3-.17.44-.27Z"/><path class="cls-5" d="M191.08,47h.48a.55.55,0,0,1,.24,0l.25.06c.31.07.47.21.47.41a.57.57,0,0,1-.09.29l-.11.16c0,.05-.1.1-.16.16l-.24.21-.28.23-.23.17L191,49a10.13,10.13,0,0,1-1.07.6l-.45.21-.22.08L189,50l-.2,0-.14,0-.08,0-.12-.08-.07-.16,0,0c0-.19.06-.3.18-.32H189l.2,0,.12,0,.14,0,.18-.08.22-.12.38-.18.17-.08a2.36,2.36,0,0,0,.3-.16l.31-.18.19-.12.12-.09.16-.13a1,1,0,0,0,.2-.21l.06-.06,0,0a.07.07,0,0,0,0-.06l-.09,0-.09,0h-.2l-.16,0h-.1l-.34,0h0l-.1,0-.1,0-.08,0h-.25l-.15,0a.34.34,0,0,1-.21-.27.45.45,0,0,1,.05-.22.6.6,0,0,1,.21-.14l.18-.06.18-.06Z"/><path class="cls-5" d="M198.05,43h.09l.08,0a.2.2,0,0,1,.08.11l0,.14,0,.12c0,.17-.08.26-.23.26a3.21,3.21,0,0,0-.43.08l-.18.07-.13.06-.13.07-.11.08-.13.14-.13.15a.23.23,0,0,0,.12.16l.17.08h.8l.1,0a.25.25,0,0,1,.11.24.24.24,0,0,1-.18.24l-.24.05-.31,0h-.37l-.34-.07a.63.63,0,0,1-.42-.24,1.07,1.07,0,0,1-.16-.54l-.07.08a.17.17,0,0,1-.1.09l-.09.09-.27.18-.4.26-.28.16-.24.15-.25.11-.22.08-.17.05H194c-.15,0-.23-.09-.23-.27l0-.17a.24.24,0,0,1,.13-.11l.17,0,.23-.08a3,3,0,0,0,.89-.48l.18-.16.18-.17-.69,0-.18,0h-.1l-.1-.05c-.12,0-.17-.13-.17-.28a.28.28,0,0,1,.24-.3l.26,0h.66a1,1,0,0,1,.5.11.37.37,0,0,1,.11.15l.09.16.09.23.12-.11.07-.06,0,0,.1-.06.18-.16.28-.19.52-.34A1,1,0,0,1,198.05,43Z"/><path class="cls-5" d="M196.91,47.11h.15l.11,0,.1,0a.52.52,0,0,1,.26.35l0,.19,0,.13a.34.34,0,0,1,0,.11l0,.15-.07.28-.1.26-.09.2-.11.22a1,1,0,0,1-.33.41l-.15,0-.08,0a.18.18,0,0,1-.09,0l-.08,0-.13-.09,0-.14s0-.08,0-.11l.06-.09.13-.18.13-.19.22-.41.08-.22a.35.35,0,0,0,0-.06.14.14,0,0,0,0-.07h-.06a.43.43,0,0,0-.24.08l-.2.18-.45.37-.86.67-.31.22-.35.21-.27.15-.23.08h-.17l-.16,0-.1,0a.25.25,0,0,1-.11-.23v-.12a.22.22,0,0,1,0-.1l0-.11a.43.43,0,0,1,.18-.12l.23,0h.18l.14,0,.27-.14.44-.28.2-.16.21-.17.27-.24.28-.23.26-.25.28-.24A.78.78,0,0,1,196.91,47.11Z"/><path class="cls-5" d="M38.9,94.72H39l.11,0,.32,0,.32.09L40,95a.49.49,0,0,1,.3.42l0,.16-.08.14-.09.12L39.9,96l-.79.53-.73.38-.3.14-.28,0a.32.32,0,0,1-.21-.09l-.06-.1v-.13l0-.13a.31.31,0,0,1,.1-.12l.26-.13.48-.2.63-.32.25-.14.19-.13,0-.08q0-.18-.48-.18l-.32,0-.39.13c-.27,0-.4-.12-.4-.34A.27.27,0,0,1,38,95a.51.51,0,0,1,.21-.13l.38-.13Zm2.72,0a2.27,2.27,0,0,1,.53.08l.15,0,.12.06.23.15a.46.46,0,0,1,.16.18.41.41,0,0,1,.06.23l0,.09,0,.1-.12.14-.12.14-.11.13-.16.13-.43.34-.43.3-.39.22-.16,0-.19,0h-.14a.24.24,0,0,1-.11-.06L40.36,97a.2.2,0,0,0,0-.09.23.23,0,0,1,.08-.16l.13-.07.18-.08.27-.13.45-.25.35-.27.18-.16a.94.94,0,0,0,.08-.15.17.17,0,0,0-.12-.18h-.45l-.12,0-.14,0-.1,0H41l-.23,0-.1,0,0,0-.06,0a.71.71,0,0,1,0-.16v-.09a.18.18,0,0,1,.06-.09.84.84,0,0,1,.17-.13l.12,0,.12,0a1.43,1.43,0,0,1,.28-.07l.2,0Z"/><path class="cls-5" d="M41.91,98.43H42l.09,0a.39.39,0,0,1,.17.2l0,.18q0,.17-.09.21l-.36.15.18.18a.54.54,0,0,1,.17.39v.17s0,0,0,.06a.14.14,0,0,1,0,.06,1,1,0,0,1-.48.63l-.26.14-.18.06-.22,0h-.22l-.23,0-.43-.11-.07,0-.29.24-.13.12-.17.13-.37.27-.15.1-.28.18-.26.15-.53.3-.11,0-.13.06-.21.12-.21,0a.52.52,0,0,1-.46-.26v-.07l0-.14a.25.25,0,0,1,.08-.2l.1-.08.07,0h.46a.76.76,0,0,0,.35-.09l.59-.31.2-.13.34-.23.23-.16.14-.15.11-.09.13-.14-.08-.16,0-.11,0-.11a.41.41,0,0,1,.24-.27l.18,0H40l.16.08a.27.27,0,0,1,.16.17l0,.15,0,0,.15.1.16.06h.21l.13,0,.12,0a.82.82,0,0,0,.28-.18l.07-.12,0-.1a.36.36,0,0,0-.05-.19l-.09-.1-.12-.07-.11-.08-.23-.11-.21-.15,0-.08,0-.11a.14.14,0,0,1,.07-.13l.2-.09h.37l.13-.06.13-.09.12-.07.12-.05Z"/><path class="cls-5" d="M47.64,95.65c0,.51-.33.94-1,1.3a1.52,1.52,0,0,1-.68.2c-.64,0-1-.27-1-.83a1.37,1.37,0,0,1,.55-1.07,1.87,1.87,0,0,1,1.18-.46,1,1,0,0,1,.36.06.8.8,0,0,1,.55.8Zm-.6.1c0-.23-.16-.34-.48-.34a.88.88,0,0,0-.61.28.86.86,0,0,0-.29.61c0,.15.1.22.29.22h.15a1.09,1.09,0,0,0,.59-.26C46.92,96.08,47,95.91,47,95.75Z"/><path class="cls-5" d="M45.19,98.64l.2,0a.47.47,0,0,1,.28.16l.07.13a.33.33,0,0,0,.18.08.26.26,0,0,0,.14-.05l.13-.12.09-.08.1-.09.1,0,.15,0h.07l.08,0,.12.06.06,0,0,.06.07.17.06.14,0,0,.06,0a.67.67,0,0,0,.3-.08l.13-.1.13-.14.06-.05.08-.06.17-.09.14,0h.13a.1.1,0,0,1,.09.06l.08.1,0,.09a.43.43,0,0,1-.12.31l-.15.18a.41.41,0,0,1-.17.13l-.2.1-.23.1-.23.07-.42.08a.67.67,0,0,1-.34-.09l-.13-.11-.14-.14h-.26a.66.66,0,0,0-.21,0,.27.27,0,0,0-.13.07l-.29.26-.42.35-.44.33-.12.08-.16.11-.19.11-.61.35-.47.26-.19.08-.22.08-.19,0h-.2l-.13,0-.15-.06c-.13,0-.19-.18-.19-.37a.29.29,0,0,1,.18-.27l.14,0h.47a1.16,1.16,0,0,0,.41-.16l.42-.22.49-.26.44-.29.33-.26.09-.1,0-.1-.16-.3,0-.14V99a.12.12,0,0,1,0-.07l.08-.12A.65.65,0,0,1,45.19,98.64Z"/><path class="cls-5" d="M53.34,95.21a.32.32,0,0,1,.2-.07q.3,0,.3.39l0,.09a.1.1,0,0,1,0,.07,10.88,10.88,0,0,1-1.14.77,8.26,8.26,0,0,1-1.15.58l-.15,0-.12,0A.27.27,0,0,1,51,97l0-.11,0-.14c0-.09.06-.16.19-.2a7.38,7.38,0,0,0,.9-.48l.3-.18.44-.27Z"/><path class="cls-5" d="M51.81,98.65H52l.12,0h.22a.55.55,0,0,1,.24,0l.26.06c.31.07.46.21.46.41a.57.57,0,0,1-.09.29l-.11.15-.16.17-.23.21-.29.23-.23.17-.36.25a11.4,11.4,0,0,1-1.08.6l-.45.21-.22.08-.26.08-.19,0-.15,0-.08,0-.12-.09-.07-.15,0-.06c0-.18.06-.29.18-.31l.2,0h.18l.2,0,.12,0,.14,0,.18-.07.22-.12.38-.18.17-.08.3-.16.32-.18.19-.12.11-.09.16-.13a2.08,2.08,0,0,0,.21-.21l.05-.06,0,0s0,0,0,0l-.1,0-.08,0-.21,0-.16,0h-.1l-.34.06h-.05l-.09.05-.11,0-.08,0h-.25l-.15,0a.34.34,0,0,1-.21-.27.45.45,0,0,1,0-.22.62.62,0,0,1,.21-.15l.18-.06.18-.06Z"/><path class="cls-5" d="M182.77,140.77a.23.23,0,0,1,.24.16l0,.12v.09a.09.09,0,0,1,0,.08l-.1.12-.07,0-.15.07-.16.08-.28.26L182,142l-.45.28-.39.24-.23.13a2,2,0,0,1-.27.13l-.43.17-.17,0a.32.32,0,0,1-.23-.1.4.4,0,0,1-.1-.25l0-.12a.19.19,0,0,1,.05-.09l.06,0,.22-.11.45-.2.38-.19.26-.12.23-.13.46-.29.26-.18.23-.18.25-.15A.41.41,0,0,1,182.77,140.77Z"/><path class="cls-5" d="M183.24,137.15v.26l0,.13a.16.16,0,0,1,0,.11l-.15.22-.07.09a.94.94,0,0,1-.77.28H182l-.11,0-.09,0-.1-.05-.18-.12-.18-.15-.18-.21,0-.06a.4.4,0,0,0-.18.1l-.18.16-.23.23.23.1.15.08a.47.47,0,0,1,.29.39.52.52,0,0,1-.09.29,1.13,1.13,0,0,1-.29.3,2.59,2.59,0,0,1-.3.17l-.2.08-.38.15-.15,0-.38.08h-.16l-.11,0-.12,0-.15-.07a.2.2,0,0,1-.08-.08l0-.23a.47.47,0,0,1,0-.25l.08-.07.14,0h.25l.35.09h.26a.63.63,0,0,0,.45-.15l.09-.12,0-.13c0-.1-.09-.18-.28-.25l-.23-.08a.3.3,0,0,1-.21-.33.68.68,0,0,1,.16-.27l.52-.49.2-.17.29-.2.39-.22a2.41,2.41,0,0,1,1.2-.33l.2,0a.58.58,0,0,1,.35.27l.11.16a.6.6,0,0,1,.06.19Zm-.63.15a.28.28,0,0,0-.27-.3h-.13a.64.64,0,0,0-.2,0,.69.69,0,0,0-.22.12l-.09.07-.08.08.19.19a.52.52,0,0,0,.17.09l.08,0h.15a.48.48,0,0,0,.24-.06l.09,0,0-.09Z"/><path class="cls-5" d="M188,132.3l.17-.07.18,0a.45.45,0,0,1,.28.07.23.23,0,0,1,.11.19.25.25,0,0,1-.1.22l-.07,0-.12.06-.24.1-.69.31c-.36.17-.54.39-.54.65a.29.29,0,0,0,.11.21l.08,0,.11,0,.24,0h.21l.09,0a.2.2,0,0,0,.08,0l.11,0,.12,0a.26.26,0,0,1,.18,0l.1.13a.3.3,0,0,1,0,.18c0,.18-.21.31-.52.4l-.19,0-.19,0-.28,0-.31-.08-.15-.05-.14-.09a.78.78,0,0,1-.4-.7.8.8,0,0,1,.15-.44l.15-.19.21-.2.17-.12.21-.14.38-.23Z"/><path class="cls-5" d="M187.82,136.16h.26l.15,0c.09,0,.13.06.13.18l0,.14a.25.25,0,0,1-.08.18.44.44,0,0,1-.23.11l-.32,0-.09,0-.17,0-.29.09c-.1,0-.16.06-.17.11l.09.13,0,.06,0,.07.05.12a.67.67,0,0,1,0,.23v.1l0,.17a.5.5,0,0,1,0,.16l-.08.16,0,.06-.06.07-.07.07-.1.06-.3.14-.18.05h-1.44a.5.5,0,0,1-.18,0l-.14-.06-.06,0-.12-.08a.56.56,0,0,1-.14-.35.3.3,0,0,1,.05-.16l.11-.12.1-.09a1.15,1.15,0,0,1,.29-.08.27.27,0,0,1,.17.08l.08.12.14.1.17,0h.68c.24,0,.39-.06.46-.18v-.08l0-.08a.42.42,0,0,0-.08-.18l-.1-.1-.09-.13-.14-.18,0-.21a.27.27,0,0,1,0-.18l.13-.09.18-.09.18-.12a1.59,1.59,0,0,1,.27-.12l.31-.11A2.32,2.32,0,0,1,187.82,136.16Z"/><path class="cls-5" d="M190.68,136.21l.2,0a.44.44,0,0,1,.28.17l.07.12a.28.28,0,0,0,.18.09.3.3,0,0,0,.14-.06l.13-.12.09-.08.1-.08a.31.31,0,0,1,.1-.05h.23l.07,0,.12.06.06,0s0,0,0,.06l.07.16.06.15,0,0,.07,0a.71.71,0,0,0,.29-.09l.13-.1.13-.14.06-.05.08,0,.18-.1.14,0h.13a.09.09,0,0,1,.08.06l.08.09,0,.09a.41.41,0,0,1-.12.31l-.15.18c0,.05-.08.09-.17.13l-.2.1-.23.1-.23.07-.42.08a.67.67,0,0,1-.34-.09l-.13-.11-.14-.14h-.26l-.21,0a.4.4,0,0,0-.13.07l-.28.26-.43.36-.43.32-.13.09-.16.1-.18.12-.62.34-.47.26-.19.08a1.19,1.19,0,0,1-.22.08l-.19,0h-.33l-.15-.06a.37.37,0,0,1-.19-.37.29.29,0,0,1,.18-.28l.14,0h.47a1.16,1.16,0,0,0,.41-.16l.42-.21.49-.26.44-.3.34-.26.08-.1a.29.29,0,0,0,0-.1l-.16-.29v-.22s0-.07,0-.08l.08-.11A.6.6,0,0,1,190.68,136.21Z"/><path class="cls-5" d="M198.83,132.77a.32.32,0,0,1,.2-.07q.3,0,.3.39l0,.1s0,0-.05.06a12.85,12.85,0,0,1-1.14.78,11.26,11.26,0,0,1-1.15.58l-.15,0-.12,0a.27.27,0,0,1-.23-.18l0-.1,0-.14c0-.1.06-.17.19-.21a7.38,7.38,0,0,0,.9-.48l.3-.17.44-.27C198.5,133,198.68,132.89,198.83,132.77Z"/><path class="cls-5" d="M198.92,136h.19a.38.38,0,0,1,.17.2l0,.19a.23.23,0,0,1-.09.21l-.35.15.17.17a.54.54,0,0,1,.17.39v.17s0,0,0,.06a.14.14,0,0,1,0,.06.88.88,0,0,1-.48.63l-.26.14-.18.06-.22,0h-.22l-.23,0-.43-.1-.07-.05-.29.24-.13.12-.17.12-.36.28-.16.09-.28.18-.26.16-.53.29-.11,0-.12.06-.22.12-.21,0a.52.52,0,0,1-.46-.26v-.07l0-.14a.26.26,0,0,1,.07-.2l.1-.07.07,0h.46a.76.76,0,0,0,.35-.09l.59-.31.2-.13.34-.23.23-.15.14-.15.12-.1.13-.14-.09-.16,0-.11,0-.11a.43.43,0,0,1,.24-.27l.19,0H197l.16.07a.28.28,0,0,1,.16.18l0,.14.05,0,.15.1.16.07h.21l.13,0,.12-.05a.82.82,0,0,0,.28-.18l.07-.11,0-.11a.38.38,0,0,0-.05-.19l-.08-.09-.13-.08-.11-.07-.23-.11-.21-.15,0-.09,0-.1c0-.07,0-.11.07-.13l.2-.1h.37l.13-.06.13-.08.12-.07.12-.06Z"/><path class="cls-5" d="M182.38,170.56h.19a.43.43,0,0,1,.17.2l0,.19a.23.23,0,0,1-.09.21l-.36.15.18.17a.54.54,0,0,1,.17.39v.18a.43.43,0,0,1,0,.05.14.14,0,0,1,0,.06.9.9,0,0,1-.48.63l-.26.14-.18.06-.22,0h-.22l-.23,0-.43-.1-.07-.05-.29.24-.13.12-.17.13-.37.27-.15.09-.28.18-.26.16-.53.29-.11,0-.13.06-.21.12-.21,0a.52.52,0,0,1-.46-.26v-.06l0-.14a.25.25,0,0,1,.08-.2l.1-.08.07,0h.46a.89.89,0,0,0,.35-.08l.59-.32.2-.13.34-.22.23-.16.14-.15.11-.1.13-.14-.08-.16,0-.11,0-.1a.43.43,0,0,1,.24-.28l.18,0h.13l.16.07a.28.28,0,0,1,.16.18l0,.14.05.05.15.09.16.07h.21l.13,0,.12,0a.69.69,0,0,0,.28-.18l.07-.11,0-.11a.41.41,0,0,0-.05-.19l-.09-.09-.12-.08-.11-.07-.23-.11-.21-.15,0-.08,0-.11a.13.13,0,0,1,.07-.13l.2-.09h.17l.2,0,.13,0,.13-.09.11-.07.13-.06Z"/><path class="cls-5" d="M182.34,175.33a.23.23,0,0,1,.24.16l0,.12v.09a.09.09,0,0,1,0,.08l-.09.12-.08,0-.15.07-.15.08-.28.26-.26.19-.45.28-.39.24-.23.13a1.23,1.23,0,0,1-.26.13l-.44.17-.16,0a.33.33,0,0,1-.24-.1.43.43,0,0,1-.09-.25v-.12a.35.35,0,0,1,.06-.09l.06,0,.21-.11.45-.2.38-.19.26-.12.24-.13.45-.29.26-.18.23-.18.26-.14A.28.28,0,0,1,182.34,175.33Z"/><path class="cls-5" d="M177.81,170.73l.26,0,.15,0c.09,0,.13.06.13.18l0,.14a.25.25,0,0,1-.08.18.44.44,0,0,1-.23.11l-.32,0h-.09l-.17,0-.29.09c-.1,0-.16.06-.17.11l.09.13,0,.06,0,.07,0,.12a.7.7,0,0,1,0,.24v.09l0,.17a.45.45,0,0,1,0,.16l-.08.16-.05.06L177,173l-.07.08-.1.05-.3.15-.18,0h-1.44a.5.5,0,0,1-.18,0l-.14-.06-.06,0-.12-.09a.54.54,0,0,1-.14-.35.3.3,0,0,1,.05-.16l.11-.12.1-.08a.88.88,0,0,1,.29-.09.24.24,0,0,1,.17.09l.08.11.14.1.17,0h.68c.24,0,.39-.06.46-.18v-.08l0-.08a.4.4,0,0,0-.08-.17l-.1-.11-.09-.13-.14-.17,0-.22a.27.27,0,0,1,0-.18l.13-.09.18-.09.18-.12a1.59,1.59,0,0,1,.27-.12l.31-.1A1.93,1.93,0,0,1,177.81,170.73Z"/><path class="cls-5" d="M177.62,166.81h.43a1.09,1.09,0,0,1,.59.14.46.46,0,0,1,.21.39,1.1,1.1,0,0,1-.38.65l-.24.26-.29.24a2.21,2.21,0,0,1-.29.22,4,4,0,0,1-.36.17l-.53.23-.26.12-.18,0s-.09,0-.15-.12l0-.08,0-.1a.29.29,0,0,1,.07-.2.63.63,0,0,1,.21-.15l.23-.06.27-.09a1.46,1.46,0,0,0,.27-.11,1.35,1.35,0,0,0,.88-.81l0,0-.06,0-.2,0-.15,0-.15,0h-.16l-.09,0-.12.06-.1.06-.09,0h-.14a.17.17,0,0,1-.14-.06l-.1-.14,0-.11a.26.26,0,0,1,.13-.23,2.5,2.5,0,0,1,.5-.21A2.77,2.77,0,0,1,177.62,166.81Z"/><path class="cls-5" d="M170,173.82a.61.61,0,0,1-.37-.09.39.39,0,0,1-.12-.31v-.11a.18.18,0,0,1,.1-.16.62.62,0,0,1,.24-.08,2.08,2.08,0,0,0,.73-.17l.61-.34a.94.94,0,0,0,.35-.19l.41-.28.16-.1.18-.15-.09-.07-.14-.17-.07-.14v-.14a.35.35,0,0,1,0-.15l.1-.08a.42.42,0,0,1,.27-.12,1.09,1.09,0,0,1,.36.12l.11.06.14.09.41-.22.49-.27.26-.11a1.93,1.93,0,0,1,.51-.15.63.63,0,0,1,.24.07.3.3,0,0,1,.1.22v.09a.26.26,0,0,1-.1.14l-.17.12-.1,0-.28.13-.26.11-.41.11-.21.06.33.16.25.13.12.12,0,0v.07a.15.15,0,0,1,0,.09l0,.09a.32.32,0,0,1-.11.12l-.14.06-.17,0-.11,0-.66-.34-.23.15-.24.17-.31.19-.46.28-.82.48-.33.18-.32.16-.17.05Z"/><path class="cls-5" d="M174.6,167.34a.32.32,0,0,1,.2-.08q.3,0,.3.39l0,.1s0,0-.05.06a12.85,12.85,0,0,1-1.14.78,9.53,9.53,0,0,1-1.15.58l-.15.05-.12,0c-.1,0-.17-.07-.23-.19l0-.1,0-.14c0-.1.06-.17.19-.21a7.38,7.38,0,0,0,.9-.48l.3-.17.44-.27Z"/><path class="cls-5" d="M170.14,170.71c.28,0,.43.08.43.24a.62.62,0,0,1-.17.4l-.14.15-.2.13-.2.08-.26.07-.35,0H169l-.34,0h-.2l-.06.09-.13.15-.27.27-.19.15-.21.15-.63.44-.36.22-.25.13-.18.1-.35.16-.17.07a1.11,1.11,0,0,1-.3.06l-.08,0-.1-.05-.08,0-.1-.08a.31.31,0,0,1-.1-.15l0-.1v-.13A.49.49,0,0,1,165,173l.12,0,.12,0h.08a.44.44,0,0,1,.15,0l.16,0,.14,0,.16-.06.45-.2.24-.13.22-.13a4.34,4.34,0,0,0,.62-.45l.11-.12,0-.12-.06-.09a.26.26,0,0,1-.09-.16.66.66,0,0,1,.2-.46.73.73,0,0,1,.48-.2.54.54,0,0,1,.29.13c.12.08.19.16.19.24l.34,0a1.13,1.13,0,0,0,.36-.08,2.81,2.81,0,0,0,.45-.27l.1-.06.09-.06A.41.41,0,0,1,170.14,170.71Z"/><path class="cls-5" d="M170.61,167.77c0,.52-.33.95-1,1.3a1.43,1.43,0,0,1-.68.21c-.64,0-1-.28-1-.83a1.37,1.37,0,0,1,.56-1.07,1.8,1.8,0,0,1,1.18-.46,1,1,0,0,1,.36.06.66.66,0,0,1,.29.17A.76.76,0,0,1,170.61,167.77Zm-.6.1c0-.23-.16-.34-.48-.34a.92.92,0,0,0-.61.28.88.88,0,0,0-.29.62c0,.14.1.21.29.21h.15a1,1,0,0,0,.59-.26A.69.69,0,0,0,170,167.87Z"/><path class="cls-5" d="M147.48,190.08h.14l.11,0,.31.05.33.09.22.11a.52.52,0,0,1,.31.42l0,.16-.08.14-.09.12-.23.19-.79.53-.73.38-.3.14-.27,0a.32.32,0,0,1-.21-.08l-.06-.11,0-.13,0-.13s0-.07.1-.12l.25-.13.48-.2.63-.32.26-.14L148,191l0-.08c0-.12-.15-.18-.47-.18l-.33,0-.38.13c-.27,0-.41-.11-.41-.34a.24.24,0,0,1,.07-.19.51.51,0,0,1,.21-.13l.38-.13Zm2.72,0a2.2,2.2,0,0,1,.52.08l.16,0,.11.06.24.15a.55.55,0,0,1,.16.18.52.52,0,0,1,.05.23l0,.09,0,.1-.12.14-.12.14-.12.13-.15.13-.44.35-.43.29-.38.22-.17,0-.18,0h-.14a.22.22,0,0,1-.12-.06l-.06-.12a.22.22,0,0,0,0-.09.21.21,0,0,1,.07-.15l.14-.07.18-.09.26-.13.46-.24.34-.28.19-.16a.34.34,0,0,0,.07-.15.17.17,0,0,0-.12-.18h-.44l-.13,0-.13,0-.11,0h-.09l-.24,0-.1,0,0,0,0,0a.64.64,0,0,1-.05-.15v-.1l.06-.09.18-.13.12,0,.12,0a1.38,1.38,0,0,1,.27-.08l.2,0Z"/><path class="cls-5" d="M150.48,193.78h.11l.08,0a.4.4,0,0,1,.18.2v.18a.27.27,0,0,1-.08.22l-.36.15.17.17a.54.54,0,0,1,.17.39v.23s0,0,0,.06a.9.9,0,0,1-.47.63l-.26.14-.18.06-.22,0h-.22l-.23,0-.43-.11-.08,0-.28.23-.14.12-.16.13-.37.27-.16.1-.28.18-.26.16-.53.29-.11.05-.12.06-.22.11-.21,0a.49.49,0,0,1-.45-.26l0-.07,0-.14a.25.25,0,0,1,.08-.2l.09-.07.08-.05H146a.72.72,0,0,0,.34-.09l.59-.31.21-.13.34-.23.22-.16.14-.15.12-.09.13-.14-.09-.16,0-.11v-.11a.43.43,0,0,1,.25-.27l.18,0h.12l.17.08a.29.29,0,0,1,.16.17v.15l.05,0,.15.1.17.06.2,0,.14,0,.11,0a.82.82,0,0,0,.28-.18l.08-.12,0-.1a.36.36,0,0,0,0-.19l-.09-.1-.12-.07-.12-.08-.23-.11-.21-.15,0-.08,0-.11a.16.16,0,0,1,.07-.13l.2-.09h.37L150,194l.12-.08.12-.07.12-.06Z"/><path class="cls-5" d="M156.22,191c0,.51-.33.94-1,1.3a1.4,1.4,0,0,1-.68.2c-.65,0-1-.27-1-.82a1.35,1.35,0,0,1,.56-1.07,1.8,1.8,0,0,1,1.18-.46,1,1,0,0,1,.36.06.64.64,0,0,1,.29.16A.8.8,0,0,1,156.22,191Zm-.61.1c0-.23-.16-.34-.48-.34a.87.87,0,0,0-.6.28.83.83,0,0,0-.29.61c0,.15.09.22.29.22h.14a1.11,1.11,0,0,0,.6-.26A.71.71,0,0,0,155.61,191.1Z"/><path class="cls-5" d="M155.32,194.14h.16l.1,0a.21.21,0,0,1,.11.05.54.54,0,0,1,.25.35l.05.19,0,.13a.25.25,0,0,1,0,.1l0,.16-.08.28-.1.26-.08.2-.12.22a1,1,0,0,1-.33.41l-.14,0-.08,0a.16.16,0,0,1-.09,0l-.09,0-.12-.09,0-.14a.31.31,0,0,1,0-.11s0,0,.06-.09l.13-.18.13-.19.22-.41.07-.22s0,0,0-.06a.08.08,0,0,0,0-.07h-.06a.38.38,0,0,0-.24.08l-.2.18-.44.37-.86.67-.32.22-.35.21-.27.15-.22.08h-.18l-.16,0-.1,0a.24.24,0,0,1-.1-.23v-.12a.25.25,0,0,1,0-.1l0-.11s.07-.07.17-.12l.23,0h.19l.13,0,.28-.14.43-.29.21-.15.21-.17.27-.24.27-.23.27-.25.28-.24A.74.74,0,0,1,155.32,194.14Z"/><path class="cls-5" d="M160.74,198.56a.26.26,0,0,1,.25.15l0,.13v.09a.11.11,0,0,1,0,.08l-.1.12-.08,0-.14.07-.16.07-.28.27-.26.18-.44.29-.4.24-.23.13-.26.13-.44.16-.16,0a.34.34,0,0,1-.24-.11.4.4,0,0,1-.09-.24l0-.12a.19.19,0,0,1,0-.09l.06,0L158,200l.46-.2.37-.18.26-.12.24-.13.45-.3.26-.17.24-.18.25-.15A.41.41,0,0,1,160.74,198.56Z"/><path class="cls-5" d="M161.21,193.78h.1l.09,0a.39.39,0,0,1,.17.2l0,.18a.24.24,0,0,1-.09.22l-.36.15.18.17a.54.54,0,0,1,.17.39v.17s0,0,0,.06a.14.14,0,0,1,0,.06,1,1,0,0,1-.48.63l-.26.14-.18.06-.22,0h-.22l-.23,0-.43-.11-.07,0-.29.23-.13.12-.17.13-.37.27-.15.1-.28.18-.26.16-.53.29-.11.05-.13.06-.21.11-.21,0a.52.52,0,0,1-.46-.26v-.07l0-.14a.25.25,0,0,1,.08-.2l.1-.07.07-.05h.46a.76.76,0,0,0,.35-.09l.59-.31.2-.13.34-.23.23-.16.14-.15.11-.09.13-.14-.08-.16,0-.11,0-.11a.43.43,0,0,1,.24-.27l.18,0h.13l.16.08a.27.27,0,0,1,.16.17l0,.15,0,0,.15.1.16.06.21,0,.13,0,.12,0a.82.82,0,0,0,.28-.18l.07-.12,0-.1a.36.36,0,0,0,0-.19l-.09-.1-.12-.07-.11-.08-.23-.11-.21-.15,0-.08,0-.11a.14.14,0,0,1,.07-.13l.2-.09h.37l.13-.06.13-.08.11-.07.13-.06Z"/><path class="cls-5" d="M119.94,211.32a.23.23,0,0,1,.24.16l0,.12v.09a.12.12,0,0,1,0,.08l-.1.12-.07,0-.15.07-.16.08-.28.26-.25.19-.45.28-.39.24-.23.13a1.52,1.52,0,0,1-.27.13l-.43.17-.17,0a.32.32,0,0,1-.23-.1.38.38,0,0,1-.1-.25l0-.12a.19.19,0,0,1,0-.09l.06,0,.21-.11.46-.2.38-.19.26-.11.23-.14.46-.29.26-.18.23-.18.25-.14A.33.33,0,0,1,119.94,211.32Z"/><path class="cls-5" d="M119.23,206.68h.14l.17.15a.19.19,0,0,1,.1.18,2.17,2.17,0,0,1-.39.42l1.38,0,0,0,0,0a.31.31,0,0,1,.09.13c0,.12-.15.27-.45.46l-.7.41-.51.3-.82.53-1.09.56-.64.28-.2.07-.21.06-.27.06a.61.61,0,0,1-.22,0l-.12-.06a.41.41,0,0,1-.13-.35q0-.15.24-.24l.23,0a2,2,0,0,0,.43-.05,2.08,2.08,0,0,0,.44-.15l.1,0,.16-.08.41-.18,2.07-1.19h-1.85a.23.23,0,0,1-.06-.11.58.58,0,0,1,0-.21l0-.1.13,0,.15-.06.24-.11.42-.2.29-.16a.25.25,0,0,0,.14-.13.27.27,0,0,1,.08-.11l.07,0Z"/><path class="cls-5" d="M125.56,211.32a.25.25,0,0,1,.25.16l0,.12v.09a.11.11,0,0,1,0,.08l-.1.12-.08,0-.14.07-.16.08-.28.26-.25.19-.45.28-.4.24-.23.13a1.23,1.23,0,0,1-.26.13l-.44.17-.16,0a.33.33,0,0,1-.24-.1.43.43,0,0,1-.09-.25l0-.12a.19.19,0,0,1,0-.09l.06,0,.21-.11.46-.2.37-.19.26-.11.24-.14.45-.29.26-.18.24-.18.25-.14A.32.32,0,0,1,125.56,211.32Z"/><path class="cls-5" d="M125.39,206.72l.26,0,.15,0c.08,0,.13.06.13.18v.14a.24.24,0,0,1-.07.18.54.54,0,0,1-.24.11l-.31,0h-.1l-.17,0-.29.09c-.1,0-.15.06-.16.12l.08.12,0,.06,0,.07,0,.12a.7.7,0,0,1,0,.24v.26a.54.54,0,0,1,0,.16l-.08.16,0,.06,0,.07-.08.08-.1,0-.29.15-.18,0h-1.45a.42.42,0,0,1-.17,0,.42.42,0,0,1-.14-.06l-.06,0-.12-.09a.49.49,0,0,1-.14-.35.24.24,0,0,1,0-.16l.1-.12.11-.08a.75.75,0,0,1,.29-.09.22.22,0,0,1,.16.09l.09.11.14.1.16,0h.33l.18,0h.18a.51.51,0,0,0,.46-.19v-.16a.35.35,0,0,0-.07-.17L124,208l-.1-.13-.13-.17,0-.22a.35.35,0,0,1,0-.18l.13-.09.19-.09.17-.12.27-.12.31-.1A2,2,0,0,1,125.39,206.72Z"/><path class="cls-5" d="M130.79,211.32a.23.23,0,0,1,.24.16l0,.12v.09a.12.12,0,0,1,0,.08l-.1.12-.08,0-.14.07-.16.08-.28.26-.25.19-.45.28-.4.24-.22.13a1.52,1.52,0,0,1-.27.13l-.44.17-.16,0a.36.36,0,0,1-.24-.1.43.43,0,0,1-.09-.25l0-.12a.19.19,0,0,1,0-.09l.06,0,.21-.11.46-.2.38-.19.25-.11.24-.14.46-.29.26-.18.23-.18.25-.14A.33.33,0,0,1,130.79,211.32Z"/><path class="cls-5" d="M129.63,206.76h.15c.05,0,.09,0,.11,0h.22a.54.54,0,0,1,.24,0l.26.05c.31.08.46.21.46.42a.54.54,0,0,1-.09.28.91.91,0,0,1-.11.16,1.2,1.2,0,0,1-.16.16l-.23.22-.28.22-.24.18-.36.24a11.4,11.4,0,0,1-1.08.6l-.45.22-.21.07-.27.09-.19,0-.14,0-.08,0-.12-.09-.08-.15,0-.06c0-.19.06-.29.18-.32h.38l.2,0,.13,0,.14,0,.17-.07.23-.12.37-.19.18-.08.29-.15.32-.18.19-.13.11-.08.16-.14a1.34,1.34,0,0,0,.21-.2l.05-.07,0,0a.08.08,0,0,0,0,0l-.09-.05h-.09l-.21,0-.16,0h-.1l-.34,0,0,0-.1,0-.11,0-.08,0h-.4a.34.34,0,0,1-.21-.27.49.49,0,0,1,0-.23.85.85,0,0,1,.21-.14l.18-.06.18-.06Z"/><path class="cls-5" d="M135.43,202.34l.1-.06.12,0c.19,0,.29.13.29.4a.22.22,0,0,1-.07.16c-.41.3-.82.58-1.22.82l-.55.3c-.18.09-.35.17-.53.24l-.26.08a.22.22,0,0,1-.13,0,.39.39,0,0,1-.1-.14l0-.07v-.12a.13.13,0,0,1,0-.06.27.27,0,0,1,.06-.14s0-.05.05-.06l.08,0a2.9,2.9,0,0,0,.92-.43A7.31,7.31,0,0,0,135.43,202.34Zm.6,1.07a.35.35,0,0,1,.21-.07q.3,0,.3.39a.2.2,0,0,1,0,.09s0,.05-.05.07a10.88,10.88,0,0,1-1.14.77,9.62,9.62,0,0,1-1.15.59l-.15.05-.12,0c-.1,0-.17-.06-.23-.18l0-.1,0-.14q0-.15.18-.21a6.53,6.53,0,0,0,.91-.48l.3-.17.44-.28C135.71,203.65,135.88,203.52,136,203.41Z"/><path class="cls-5" d="M134.82,206.76H135c.06,0,.1,0,.12,0h.22a.54.54,0,0,1,.24,0l.26.05c.31.08.46.21.46.42a.54.54,0,0,1-.09.28.91.91,0,0,1-.11.16c0,.05-.1.1-.16.16l-.23.22-.28.22-.24.18-.36.24a11.4,11.4,0,0,1-1.08.6l-.45.22-.21.07-.27.09-.19,0-.14,0-.08,0-.12-.09-.08-.15,0-.06c0-.19.06-.29.18-.32h.38l.2,0,.12,0,.15,0,.17-.07.23-.12.37-.19.17-.08.3-.15.32-.18.19-.13L135,208l.16-.14a1.34,1.34,0,0,0,.21-.2l.05-.07,0,0a.08.08,0,0,0,0,0l-.09-.05h-.09l-.21,0-.16,0h-.1l-.34,0-.05,0-.09,0-.11,0-.08,0h-.4a.34.34,0,0,1-.21-.27.49.49,0,0,1,.05-.23.85.85,0,0,1,.21-.14l.18-.06.18-.06Z"/><path class="cls-5" d="M95,198.23l.12,0h.12a.31.31,0,0,1,.16.1.41.41,0,0,1,0,.1v.09a.52.52,0,0,1-.28.33l-.16.08.07,0,.18.11a.5.5,0,0,1,.15.13.24.24,0,0,1,0,.15.48.48,0,0,1-.21.33l-.63.29.17.1.18.11a.81.81,0,0,1,0,.2v.06a.16.16,0,0,1,0,.1l-.17.16-.35.27-.39.28-.31.23-.83.55a2.72,2.72,0,0,1-.29.19l-.26.14-.09,0-.13.06-.34.15a1.24,1.24,0,0,1-.42.12.37.37,0,0,1-.15,0l-.1,0-.07-.06a.41.41,0,0,1-.07-.11s0-.1,0-.17.12-.27.37-.33l.16,0,.12,0,.15,0,.13,0,.16-.06.22-.09.21-.12.78-.49.38-.26.53-.38-.3-.19a.35.35,0,0,1-.13-.26.3.3,0,0,1,0-.11.84.84,0,0,1,.14-.15l.25-.13.36-.17-.16-.11-.2-.12-.11-.07,0,0L94,199l0,0,0-.06,0,0,.13-.11h0l.06,0,.2-.07.16-.07.15-.07.14-.1Z"/><path class="cls-5" d="M95.68,194.82l.17-.07.19,0c.14,0,.23,0,.27.07a.2.2,0,0,1,.11.19.23.23,0,0,1-.09.21l-.08.06-.12.05-.24.11-.68.31c-.36.17-.54.38-.54.64a.28.28,0,0,0,.11.22l.07,0,.11,0,.24,0h.21l.09,0,.09,0a.38.38,0,0,1,.11,0,.3.3,0,0,1,.11,0,.36.36,0,0,1,.18,0l.11.14a.42.42,0,0,1,0,.18q0,.25-.51.39l-.2.05-.18,0-.28,0-.31-.09-.16-.05-.14-.09a.8.8,0,0,1-.4-.69.75.75,0,0,1,.16-.45l.14-.18.22-.2.16-.13.21-.14.38-.23Z"/><path class="cls-5" d="M88.43,198.73l.2,0a.43.43,0,0,1,.28.16l.08.13a.3.3,0,0,0,.17.08.39.39,0,0,0,.14,0l.13-.12.1-.08.09-.09.1,0,.15,0H90l.07,0,.12.06.06,0s0,0,0,.06l.08.16.05.15,0,0,.07,0a.74.74,0,0,0,.3-.08l.12-.11L91,199l.06-.05.08-.06.18-.09.14,0h.13a.09.09,0,0,1,.08.06l.09.1,0,.09a.43.43,0,0,1-.12.31l-.15.18a.43.43,0,0,1-.17.13l-.19.1-.24.1-.23.07-.42.08a.67.67,0,0,1-.34-.09l-.13-.11-.14-.14h-.26a.56.56,0,0,0-.2,0,.26.26,0,0,0-.14.07l-.28.26-.43.35-.43.33-.12.08-.16.1-.19.12-.62.35-.47.26-.19.08-.21.08-.19,0h-.21l-.13,0-.15-.06c-.12-.05-.18-.18-.18-.37a.29.29,0,0,1,.17-.27l.14,0h.47a1.09,1.09,0,0,0,.41-.16l.42-.22.49-.26.44-.29.34-.26.08-.1a.17.17,0,0,0,0-.1l-.16-.3v-.22s0-.06,0-.07l.08-.12A.65.65,0,0,1,88.43,198.73Z"/><path class="cls-5" d="M91,195.74c0,.51-.33.94-1,1.3a1.52,1.52,0,0,1-.68.2c-.64,0-1-.27-1-.83a1.38,1.38,0,0,1,.56-1.07,1.85,1.85,0,0,1,1.18-.46,1,1,0,0,1,.36.06.8.8,0,0,1,.55.8Zm-.6.1c0-.23-.16-.35-.48-.35a.89.89,0,0,0-.61.29.86.86,0,0,0-.29.61c0,.15.1.22.29.22h.15a1.09,1.09,0,0,0,.59-.26C90.23,196.17,90.35,196,90.35,195.84Z"/><path class="cls-5" d="M85.83,198.23l.12,0h.12a.31.31,0,0,1,.16.1.33.33,0,0,0,0,.1v.09a.51.51,0,0,1-.29.33l-.15.08.07,0,.18.11a.45.45,0,0,1,.14.13.25.25,0,0,1,0,.15c0,.1-.07.21-.22.33l-.62.29.17.1.18.11s0,.09,0,.2v.06a.26.26,0,0,1,0,.1l-.17.16-.36.27-.38.28-.31.23-.83.55a2.72,2.72,0,0,1-.29.19l-.27.14-.08,0-.13.06-.34.15a1.24,1.24,0,0,1-.42.12.41.41,0,0,1-.16,0l-.09,0-.07-.06a.41.41,0,0,1-.07-.11s0-.1,0-.17.12-.27.37-.33l.16,0,.12,0,.15,0,.13,0,.16-.06.22-.09.21-.12.78-.49.37-.26.53-.38-.29-.19a.32.32,0,0,1-.13-.26.19.19,0,0,1,0-.11.84.84,0,0,1,.14-.15l.24-.13.37-.17-.16-.11-.21-.12-.1-.07,0,0-.06-.1v-.1l0,0,.13-.11h0l.06,0,.2-.07.16-.07.16-.07.14-.1Z"/><path class="cls-5" d="M85.87,194.78h.31l.11,0a1,1,0,0,1,.59.14.43.43,0,0,1,.21.38,1.14,1.14,0,0,1-.38.66l-.23.25-.3.25a2.43,2.43,0,0,1-.29.21,2,2,0,0,1-.36.18l-.52.22-.27.12-.18,0s-.08,0-.15-.12l0-.08-.05-.1a.32.32,0,0,1,.07-.19.43.43,0,0,1,.22-.15l.22-.07.27-.08a.88.88,0,0,0,.27-.12,1.35,1.35,0,0,0,.88-.81l0,0-.06,0-.2,0h-.46l-.09,0-.12.07-.1.05-.09,0h-.14a.3.3,0,0,1-.14-.06l-.1-.14,0-.12a.26.26,0,0,1,.12-.23,2.48,2.48,0,0,1,.5-.2A2.22,2.22,0,0,1,85.87,194.78Z"/><path class="cls-5" d="M82.51,198.67c.28,0,.42.08.42.25a.64.64,0,0,1-.17.4l-.14.15-.2.13-.2.07-.26.07-.35,0h-.75l-.07.1-.13.14-.27.28-.19.15-.21.15-.63.43-.36.23-.25.13-.18.1-.35.16-.17.06a1.11,1.11,0,0,1-.3.06h-.08l-.1-.05-.08,0-.1-.08a.28.28,0,0,1-.1-.15l0-.1v-.13a.46.46,0,0,1,.12-.24s0,0,.12-.06l.12,0h.08l.15,0,.16,0,.14,0,.16,0,.45-.21.24-.12.22-.13a3.84,3.84,0,0,0,.62-.45l.11-.13,0-.11-.06-.09a.23.23,0,0,1-.08-.16.63.63,0,0,1,.2-.47.69.69,0,0,1,.47-.2.54.54,0,0,1,.29.13c.13.08.19.17.19.24l.34,0a.94.94,0,0,0,.36-.09,2.7,2.7,0,0,0,.45-.26l.1-.07.09-.05A.45.45,0,0,1,82.51,198.67Z"/><path class="cls-5" d="M82.73,203.29a.25.25,0,0,1,.24.16l0,.13v.08a.13.13,0,0,1,0,.09l-.1.12-.08,0-.14.07-.16.07-.28.27-.25.18-.45.29-.4.23-.22.13a1.52,1.52,0,0,1-.27.13l-.44.17-.16,0a.34.34,0,0,1-.24-.1.4.4,0,0,1-.09-.25l0-.12a.16.16,0,0,1,0-.08l.06,0,.21-.12.46-.2.37-.18.26-.12.24-.14.46-.29.26-.17.23-.19.25-.14A.33.33,0,0,1,82.73,203.29Z"/><path class="cls-5" d="M190.55,65.11h.14l.11,0,.32.06.32.09.23.1a.52.52,0,0,1,.3.43l0,.15-.08.14-.1.13-.22.19-.79.52-.73.39-.3.13-.28.06a.32.32,0,0,1-.21-.09l-.06-.1,0-.13,0-.13s0-.07.1-.13l.26-.12.48-.21.63-.32.25-.13.19-.14,0-.08q0-.18-.48-.18l-.32,0-.39.13c-.27,0-.4-.11-.4-.33a.3.3,0,0,1,.06-.2.86.86,0,0,1,.21-.13l.38-.12Zm2.72,0a1.89,1.89,0,0,1,.53.08l.15,0,.12,0,.23.16a.64.64,0,0,1,.16.17.45.45,0,0,1,0,.24l0,.09,0,.1-.12.14-.12.13-.11.13-.16.13-.43.35-.43.29-.39.22-.17,0-.18,0h-.14s-.06,0-.11-.07l-.06-.12a.2.2,0,0,0,0-.09.22.22,0,0,1,.08-.15l.13-.07.18-.09.26-.12.46-.25.34-.28.19-.16a.34.34,0,0,0,.07-.15.16.16,0,0,0-.12-.17l-.26,0h-.18l-.12,0-.14.06-.11,0-.09,0-.24,0-.09,0,0,0-.06,0a.75.75,0,0,1,0-.15v-.09a.21.21,0,0,1,.06-.1.83.83,0,0,1,.17-.12l.12-.06.12,0a1.38,1.38,0,0,1,.27-.08l.21,0Z"/><path class="cls-5" d="M193.56,68.82h.19a.43.43,0,0,1,.17.2l0,.19a.23.23,0,0,1-.09.21l-.36.15.18.17a.56.56,0,0,1,.16.39v.18a.13.13,0,0,0,0,.06.17.17,0,0,1,0,.05.9.9,0,0,1-.48.63l-.26.14-.18.06-.22,0h-.22l-.23,0-.43-.1-.08,0-.28.24-.13.12-.17.13-.37.27-.15.09-.29.18-.25.16-.53.29-.11,0-.13.06-.21.12-.21,0a.52.52,0,0,1-.46-.26v-.06l0-.14a.25.25,0,0,1,.08-.2l.1-.08.07,0h.46a.89.89,0,0,0,.35-.08l.59-.32.2-.13.34-.22.22-.16.14-.15.12-.09.13-.14-.08-.17,0-.11,0-.1c0-.11.09-.2.24-.28l.18,0h.13l.16.07a.3.3,0,0,1,.16.18l0,.14,0,0,.15.09.16.07h.21l.13,0,.11-.05a.72.72,0,0,0,.29-.18l.07-.11,0-.11a.35.35,0,0,0,0-.18L193,70l-.12-.08-.11-.07-.23-.11-.21-.15,0-.08,0-.11a.13.13,0,0,1,.07-.13l.2-.09h.37l.13-.06.12-.09.12-.07.13-.05Z"/><path class="cls-5" d="M199,65.6a.37.37,0,0,1,.2-.08c.2,0,.3.13.3.4l0,.09s0,0,0,.06a12.85,12.85,0,0,1-1.14.78,9.53,9.53,0,0,1-1.15.58l-.15,0-.12,0c-.09,0-.17-.07-.23-.19v-.24c0-.1.06-.17.19-.21a7.38,7.38,0,0,0,.9-.48l.3-.17.44-.27Z"/><path class="cls-5" d="M198.63,70.59l-.29.28-.2.15-.22.13-.37.18-.35.12-.41.08-.42,0h-.59l-.15,0a1,1,0,0,1-.74-.63,1.32,1.32,0,0,1,0-.37A1.44,1.44,0,0,1,195,70l.17-.2.2-.19.1-.09.12-.07.26-.12.24-.08.23,0h.22l.16,0a.37.37,0,0,1,.14.07l.21.21.21-.2.18-.13.1-.05.12,0,.25-.06.26,0a1,1,0,0,1,.8.33l.09.13a.53.53,0,0,1,0,.17v.15A1.37,1.37,0,0,1,198.63,70.59ZM196.54,70,196.4,70l-.16,0H196l-.15.06a.61.61,0,0,0-.37.57.28.28,0,0,0,.15.24l.26.11.4-.57Zm1.86-.19c0-.13-.1-.19-.3-.19H198a.87.87,0,0,0-.32.15l-.39.32-.24.21-.18.22-.11.14-.16.25.51-.09h.07l.11,0,.18-.1.32-.22.25-.18C198.28,70.14,198.4,70,198.4,69.84Z"/><path class="cls-5" d="M203.92,73.59a.23.23,0,0,1,.24.16l0,.12V74a.11.11,0,0,1,0,.09l-.1.11-.07,0-.15.07-.15.08-.29.26-.25.19-.45.28-.39.24-.23.13a1.23,1.23,0,0,1-.26.13l-.44.17-.16,0a.33.33,0,0,1-.24-.1.43.43,0,0,1-.09-.25v-.12a.2.2,0,0,1,.06-.09l.06,0,.21-.11.45-.2.38-.19.26-.11.24-.14.45-.29.26-.17.23-.19.26-.14A.28.28,0,0,1,203.92,73.59Z"/><path class="cls-5" d="M203.43,69.1l.11-.08.12,0,.17,0s.08,0,.11.1l0,.13a.32.32,0,0,1,0,.16l-.16.13-.2.21-.13.1-.1.08-.79.5-.82.46-.4.21-.39.16-.41.16a1.15,1.15,0,0,1-.39.07.68.68,0,0,1-.35-.11l-.12-.1,0-.07s0,0,0-.08V71a.17.17,0,0,1,0-.08.33.33,0,0,1,.17-.18l.15-.06.15,0h.33a1.36,1.36,0,0,0,.62-.16l.44-.21,1-.57.7-.45Z"/><path class="cls-5" d="M209,65.6a.34.34,0,0,1,.2-.08c.2,0,.3.13.3.4l0,.09s0,0-.05.06a12.85,12.85,0,0,1-1.14.78,9.53,9.53,0,0,1-1.15.58l-.15,0-.12,0c-.09,0-.17-.07-.23-.19l0-.1,0-.14c0-.1.06-.17.19-.21a7.38,7.38,0,0,0,.9-.48l.3-.17.44-.27Z"/><path class="cls-5" d="M207.43,69h.14a.29.29,0,0,1,.12,0h.22a.54.54,0,0,1,.24.05l.26.06c.31.07.46.2.46.41a.54.54,0,0,1-.09.28.91.91,0,0,1-.11.16s-.1.1-.16.16l-.23.22-.28.22-.24.18-.36.24a11.4,11.4,0,0,1-1.08.6l-.45.22-.21.07-.27.09-.19,0-.14,0L205,72l-.11-.09-.08-.15,0-.06c0-.19.06-.29.18-.31l.2,0h.18l.2,0,.12,0,.14,0,.18-.07.23-.12.37-.19a.85.85,0,0,0,.17-.08l.3-.15.32-.18.19-.13.11-.08.16-.14a1.34,1.34,0,0,0,.21-.2l0-.07,0,0a.08.08,0,0,0,0,0l-.1-.05h-.08l-.21,0-.16,0h-.1l-.34,0-.05,0-.09,0-.11,0-.08,0h-.4a.34.34,0,0,1-.21-.27.49.49,0,0,1,.05-.23.85.85,0,0,1,.21-.14l.18-.06.18-.06Z"/><path class="cls-5" d="M217.82,37.94h2.33V51.25h-2.33Z"/><path class="cls-5" d="M222.57,40.36c1.79,0,3.49-.59,3.8-2.16h1.74v13h-2.33V42h-3.21Z"/><path class="cls-5" d="M211.48,140.38h2.33v13.31h-2.33Z"/><path class="cls-5" d="M224.88,153.69H216a5.87,5.87,0,0,1,2.87-4.94c1.7-1.23,3.9-2.25,3.93-4.29a2.06,2.06,0,0,0-2.2-2.31c-1.67,0-2.18,1.44-2.23,3.26h-2.13c0-2.89,1.59-5,4.49-5a3.88,3.88,0,0,1,4.2,4c0,2.07-1.42,3.36-2.91,4.4s-3.09,1.85-3.47,3h6.36Z"/><path class="cls-5" d="M174.83,199.33h2.33v13.31h-2.33Z"/><path class="cls-5" d="M182.85,205c1.41.06,2.89-.45,2.89-2.05a1.87,1.87,0,0,0-2-1.85c-1.47,0-2.2,1.33-2.16,2.67h-2.12c.11-2.54,1.69-4.44,4.32-4.44,2,0,4.12,1.18,4.12,3.49a2.74,2.74,0,0,1-1.84,2.79v0a3.08,3.08,0,0,1,2.36,3.26c0,2.47-2.12,4-4.62,4-3,0-4.53-1.82-4.59-4.55h2.13a2.4,2.4,0,0,0,2.46,2.78,2.28,2.28,0,0,0,2.5-2.33c0-2-1.73-2.29-3.41-2.22Z"/></g><g id="Lines"><polyline class="cls-6" points="275.53 14.48 177.96 9.47 60.9 3.45 0.02 0.33"/><line class="cls-6" x1="36.91" y1="58" x2="234.52" y2="99.92"/><line class="cls-6" x1="42.31" y1="140.61" x2="222.06" y2="207.44"/></g></g></g></svg>