<svg xmlns="http://www.w3.org/2000/svg" viewBox="0 0 163.63 192.52"><defs><style>.cls-1{fill:#f1f2f2;}.cls-2{fill:#396287;fill-rule:evenodd;}.cls-3{isolation:isolate;}.cls-4{fill:#383838;}.cls-5{fill:none;stroke:#1a1a18;stroke-miterlimit:22.93;stroke-width:0.41px;stroke-dasharray:3.73 1.86;}</style></defs><title>B</title><g id="Layer_2" data-name="Layer 2"><g id="Layer_1-2" data-name="Layer 1"><g id="Layer_2-2" data-name="Layer 2"><g id="Layer_1-2-2" data-name="Layer 1-2"><g id="F1"><path class="cls-1" d="M149.52,67.52c-5.15,1.27-4.51,5.43-7.46,7A16.89,16.89,0,0,0,134,84a2.65,2.65,0,0,1-1.06,1.3l.5-46.17L27.41,51l.23-6.92,2.29-7.94,1.72-2.24,2.4-.46C52.7,35,69.93,33.58,88.28,35c13.52.71,26.29-5.11,39.16-4.92,4.29.09,22.15,4.75,26.11,13.52l2.74,14.21C158.3,60,155.34,66.07,149.52,67.52Z"/><path class="cls-1" d="M92,2.16A27.36,27.36,0,0,1,101.86.41l6.69,1.72-.17,2.46,2.2,2.05,1.14,1.14c2.46,0,1.16,2.27,3,3.73L117.61,14l1.14,5-4.42,6.27-2.74,1.16C106.65,30.34,95.87,30,86.36,30L77,29.26l-3.85.13-7.92,1.38H64L45.6,30.34,43.25,27.1c3.41-4.05.8-7.09,9.66-8.55,7.87-4,14.75-6.35,22.82-9.56l3.73-1.21A63.77,63.77,0,0,1,92,2.18"/><path class="cls-2" d="M118.12,34.22h.54l.31-.17.38-.48h0a13.5,13.5,0,0,1,1.25-.66h.59a.74.74,0,0,0,.21,0h0c.54-.13,1.08-.15,1.62-.31h.62a2,2,0,0,0,.41-.1,3,3,0,0,1,1.51,0h.22a1.3,1.3,0,0,0,.91,0h0a1.65,1.65,0,0,0,.41-.28h0v-.11h0a2.47,2.47,0,0,0,.3-.61v-.32h0a.74.74,0,0,0,0-.21h0v-.09h0a1.32,1.32,0,0,0-.65-.34l-.75-.09h-.67a13.37,13.37,0,0,0-1.54.15h-.55l-.16-.76h0L122,30l-1.23.21h0a4.86,4.86,0,0,0-.54,0h-.46a4.21,4.21,0,0,1-.49.09h-.19l-.42.13h0l-.26.1h0c-.25,0-.66.35-1,.41h-.22l-.5.15-1.12.61-.93.24h-.12l-.41.12c-.54.14-1.1.26-1.66.46h-.22v.11a.26.26,0,0,0,0,.21h0l.13.09a2.63,2.63,0,0,0,.8.32,7.37,7.37,0,0,0,1.53.35,14.4,14.4,0,0,0,2.16.23h1.48"/><path class="cls-2" d="M143.94,72.43v.26h0a.55.55,0,0,0-.13.17h0l-.11.09h0l-.13.13-.2.21-.12.09a6.15,6.15,0,0,1-.5.41h0a1.56,1.56,0,0,1-1.1.17,5.14,5.14,0,0,1-1.25-.43h-.22a5.61,5.61,0,0,1-1.61-.36l-.63-.15c-.19-.11-.36-.14-.54-.24l-.39-.22h-.13a5.89,5.89,0,0,1-.66-.34h0a15.23,15.23,0,0,1-2.29-1.45h0V69.15h.22l.34-.15a.25.25,0,0,0-.17,0h-.17s-.11,0,0-.1h.62a6.87,6.87,0,0,1,1.86-.28,5.9,5.9,0,0,1,1,0h1.83a8.58,8.58,0,0,1,3.26,1.5l.24.13.25.15c.2.14.46.29.7.44h.13a1,1,0,0,1,.21.19l.15.15v.11h0v.11h0v.13a.59.59,0,0,1-.49.9Z"/><path class="cls-2" d="M148.92,46.25h.15a.52.52,0,0,1,.32.11h0a.47.47,0,0,0-.43,0"/><path class="cls-2" d="M149.63,52.79a1.07,1.07,0,0,1-.56-.26l-.15-.17h0v-.24h0V52a.81.81,0,0,1,0-.22v-.38a1.85,1.85,0,0,1,.19-.37h0l.11-.09h.6a9.32,9.32,0,0,1,1.36.8h0l.3.22.09.13h0a.38.38,0,0,1,0,.21v.13h-.11a1.7,1.7,0,0,1-.45,0h-.28a1.41,1.41,0,0,0-.41,0h-.46Z"/><path class="cls-2" d="M64,15.09a1.32,1.32,0,0,1,.36-.51l.3-.26h.09a1.75,1.75,0,0,1,1.75-.17,2.55,2.55,0,0,1,.5.41,2.63,2.63,0,0,1,.47.53h0v.11a.67.67,0,0,1,0,.2.91.91,0,0,1-.32.45v.09l-.26.12H66a5.16,5.16,0,0,1-1-.15h-.37a1.48,1.48,0,0,1-.25-.25v-.22a1.93,1.93,0,0,1,0-.34H64Z"/><path class="cls-2" d="M69,12.33c0-.26.5-.49.84-.64h.09l.39-.18h0l.36-.17.18-.15a1.49,1.49,0,0,0,.36-.17h.5l.28-.13h.41a1.32,1.32,0,0,1,1.1.43l.13.15v.11h0v.21h0V12a.48.48,0,0,1,0,.17h0v.45a.23.23,0,0,1,0,.2,1.61,1.61,0,0,1-.17.28h-.16a.35.35,0,0,0-.25.12H71.2a1.63,1.63,0,0,1-1.08-.41L69,13.05v-.2h0v-.11a.76.76,0,0,1,0-.3h0Z"/><path class="cls-2" d="M132.83,37.39c0,.09-.15.2-.21.3a4.57,4.57,0,0,1-.52.8h0v.09a.64.64,0,0,1-.3.11,7.09,7.09,0,0,1-.91-.22h-.28a.67.67,0,0,1-.32-.17.17.17,0,0,0-.13-.15V38a1.13,1.13,0,0,1,0-.26.81.81,0,0,1,.3-.58h0l.13-.11h0l.32-.15h0a2.68,2.68,0,0,1,.8,0,1.86,1.86,0,0,1,.62.09h0v.3c0,.13.24.15.31.28v.1Z"/><path class="cls-2" d="M89.75,3.26l.69.47h0V4h0v.45h0l-.26.22L90,4.85h0a.51.51,0,0,0-.16.13h0l-.34.61h0l-.22.19-.34.3-.15.11h0c-.17.15-.37.28-.54.41a1.57,1.57,0,0,1-.26.19l-1,.67h-.17l-.15.11h-.58a.42.42,0,0,1-.18.11h-.11l-.43.23h0L85.18,8a1.07,1.07,0,0,1-.31.13h0l-1.7,1.19h-5a.45.45,0,0,1,0-.28h0V8.91l.11-.28V8.52h0V8.43h0V8.3h.11a1.57,1.57,0,0,1,.84-.84"/><path class="cls-2" d="M144.88,67.39c.31,0,.65.26,1,.34l.27.15a1.36,1.36,0,0,1,.41.26.18.18,0,0,0,.14.17h0v.16h0V69h0a.92.92,0,0,1-.33,0h-.26c-.24,0-.49-.21-.71-.28a1.69,1.69,0,0,1-.58-.26l-.09-.12-.19-.2h0l-.11-.11v-.26a.48.48,0,0,1,0-.17h.41Z"/><path class="cls-2" d="M142.19,38.58a.63.63,0,0,1,.49.3h0V39h0a1.14,1.14,0,0,1-.27,1.07l-.11.15-.11.13h0a5.47,5.47,0,0,1-.58-.15,1.4,1.4,0,0,1-.56-.17.79.79,0,0,1-.22-.19h0v-.09h0a.48.48,0,0,1,.13-.43,1.73,1.73,0,0,1,.28-.26h0l.17-.17h.39Z"/><polyline class="cls-2" points="144.07 51.43 144.06 51.41 144.07 51.43"/><polyline class="cls-2" points="144.28 51.6 144.26 51.6 144.26 51.6 144.26 51.6 144.28 51.6"/><path class="cls-2" d="M140.53,60.25a3.3,3.3,0,0,1,1,.15,15.66,15.66,0,0,0,1.86.63h.21a1.87,1.87,0,0,1,.52.17c.3,0,.58.21.86,0h.22a4,4,0,0,1,1,.54h.13l.26.15.69.51.28.2.21.15h0l.24.19h0l.41.31.24.21h.1l.22.18.21.21V64h0a.15.15,0,0,0,.11.13l.15.15.09.19a1.46,1.46,0,0,1,.17.3,2,2,0,0,1,0,.35v.09h-.41a2.35,2.35,0,0,1-.53,0l-.57-.09a3.19,3.19,0,0,1-.81-.19l-1.13-.33-.66-.19a13.06,13.06,0,0,1-2.64-1,8.51,8.51,0,0,1-.92-.54l-.3-.13h-.22l-.22-.17-.6-.46-.3-.26-.11-.12h0v-.11h0l-.41-.63v-.1h0a.66.66,0,0,1,0-.28h.52Z"/><path class="cls-2" d="M112,8.35A1.82,1.82,0,0,0,112,8V7.91l-.17-.26h0l-.24-.19h0V7.37l-.17-.15h0V7.1L111.29,7h0l-.11-.15h0l-.11-.11h0V6.64h0l-.1-.11h0l-1-.71V5.71h0V5.59h0l-.11-.11h0V5.35h0l-.18-.24h0l-.3-.28-1.27-1.1a.85.85,0,0,0-.5,0h-.21v.11h-.15v.09h0v.15h0v.13c0,.32-.43.66-.32,1s0,.11,0,.14h0a1.49,1.49,0,0,0,.12.66h.26l.24-.13h.19a1.53,1.53,0,0,1,.74.26c.23.11.45.17.69.3a.68.68,0,0,1,.26.18h0l.11.11h0v.25h0c.38.11.68.3,1,.39h.15a.48.48,0,0,0,.28.15h.58a1.06,1.06,0,0,0,.2-.17h0a1.08,1.08,0,0,0,.24-.32"/><path class="cls-2" d="M108,3.73h.62l.13.13h0l.13.13h0v.09h0l.2.25h0v.11h0l.12.11h.09l.13.11h0l.17.19h0l.17.13h0l.11.13h0l.13.15h0l.11.15.13.13c.13.15.19.3.3.45s0,.13.11.2a.86.86,0,0,1,0,.32v.22h0a2.29,2.29,0,0,0,0-.37V7.91l-.17-.26h0l1.12-.19h0V7.37l-.17-.15h0V7.1L111.27,7h0l-.11-.13h0l-.11-.11h0L111,6.64h0L110,5.82V5.71h0l-.11-.12h0l-.09-.11V5.37h0l-.21-.24h0a2.06,2.06,0,0,0-.31-.28l-1.14-1.12a.72.72,0,0,0-.5,0h-.19v.09h.35Z"/><path class="cls-2" d="M119.16,20.7l-.2-.64h0v-.14h0v-.27h0v-.22l-.12-.3v-.28h0v-.26h0v-.22h0v-.1h0v-.42l-1.36-1.07h0v-.31l-.09-.23a4.6,4.6,0,0,1-.19-.52.67.67,0,0,1-.09-.21h0l-.15-.39h0v-.2h0v-.26l-.11-.32h0v-.21h0v-.22h0a.31.31,0,0,0-.13-.24h0c0-.17-.21-.32-.32-.49l-.78-.69h0c-.12-.18-.24-.36-.38-.54h0l-.09-.11h0l-.43-.65h0V11.1l-.15-.15h-.13s0-.1-.15-.13l-.41-.28h0a1,1,0,0,0-.48,0h0a.85.85,0,0,0-.3.15H113l-.11.13h0a9.41,9.41,0,0,0-.65.83v.49a2.44,2.44,0,0,0,0,.54.47.47,0,0,0,.11.35,1.77,1.77,0,0,1,.17.55,1.51,1.51,0,0,0,.14.35h0V14h0l.21.21h0l.09.18v.64h0l.15.15v.09h0c.11.13.19.28.3.41h0v.11h.11l.3.24h.13l.11.12h0v.11h0a6.65,6.65,0,0,1,.23.76h0v.28a1.5,1.5,0,0,0,0,.3.89.89,0,0,0,.13.56c.13.19,0,.24.09.37v.19h0a.57.57,0,0,0,.09.37v.23h0v.11h0a2.65,2.65,0,0,0,.21.26h0l.11.11h0l.22.24.12.12h0l.15.13a2.57,2.57,0,0,1,.33.33h0a.53.53,0,0,0,.45.21h.2l.12-.12h.11l.13-.22h0a2.24,2.24,0,0,0,.18-.61h0V19.8a4.17,4.17,0,0,0,0-.5"/><path class="cls-2" d="M112.91,21.41h0V21.3a.28.28,0,0,1,0,.13,1.08,1.08,0,0,0,.19.41h0l.15.11h.11a1.64,1.64,0,0,0,.56.32h.15a4.43,4.43,0,0,0,0-.75v-.19L113.9,21v-.11h0v-.12h0a2.17,2.17,0,0,1-.15-.35h0l-.16-.22h0v-.14h0a.91.91,0,0,1-.21-.18l-.13-.09L113,19.6l-.34-.21h-.11a2.59,2.59,0,0,0-.93-.33h-.17v.24l.11.17h0V20h0v.25h0a2.8,2.8,0,0,0,.5.41c.12,0,.19-.1.3-.1h0a.17.17,0,0,1,.1.1h0v.09"/><path class="cls-2" d="M36.91,49.94l-9.33,1v-.3h0v-.33h0v-.26h0v-.45h0a9.21,9.21,0,0,0-.17-1v-.37a2.48,2.48,0,0,1,.27-1v-.16l.24-.28a.58.58,0,0,1,.11-.15.51.51,0,0,1,.24-.15h0a1.26,1.26,0,0,1,.38-.15h.57a1.27,1.27,0,0,1,.47.09,3.28,3.28,0,0,1,.58.32l.13.09h.11a14.37,14.37,0,0,0,1.62.92A13.06,13.06,0,0,0,34.58,49l1.28.52a6.94,6.94,0,0,1,1,.52l.21.11h0Z"/><path class="cls-2" d="M46.81,46.25h.84a.43.43,0,0,1,.2.15h0l.11.14v.4h-.91a.59.59,0,0,1-.37,0,3,3,0,0,1-.64-.26h-.13a.48.48,0,0,1,0-.17v-.13h.64Z"/><path class="cls-2" d="M89.16,29.18v.3l-.1.13v.21l-.18.24h-.3l-.93-.41a4.83,4.83,0,0,0-1.61,0l-.26.19a1.22,1.22,0,0,1-.43.09l-.61-.11c-.26-.21-.73-.43-1.14-.69a6.89,6.89,0,0,1-.71-.49v-.22a1,1,0,0,1,0-.71c.26-.24.26-.43.47-.63l.15-.1.24-.09h.74l1.42.15,1.31.13a4.29,4.29,0,0,1,1.25.47h.15l.11.11v.13h0V28l.09.11v.3h0l.13.71Z"/><path class="cls-2" d="M77.73,39h0a1,1,0,0,1-.15.41l-.21.23a1.79,1.79,0,0,1-.39.2h-.56a4.45,4.45,0,0,1-.73,0h-.44c-.51-.11-1-.09-1.5-.22h-.24l-.45-.19h-.13l-.54-.24L72,39a3.74,3.74,0,0,1-1.55-.69h0c-.11-.09-.2-.2-.31-.31h0v-.12h0a1.47,1.47,0,0,0-.21-.39h0v-.11A1.09,1.09,0,0,1,69.8,37a.86.86,0,0,1,0-.32v-.19h0l.11-.11h0v-.09h0l.26-.13h.1a1.77,1.77,0,0,1,.46,0,5.61,5.61,0,0,0,.82,0,.86.86,0,0,0,.39,0h1.14a.44.44,0,0,0,.32,0h.22s.12.11.17.11h.13a1.62,1.62,0,0,1,.78.17h0a1.19,1.19,0,0,1,.53,0,4.48,4.48,0,0,1,.56.32h0l.13.11.09.09.13.19v.2l.11.15v.11h0c0,.12.13.21.15.32a.74.74,0,0,1,0,.21h0v.09h0v.41a.34.34,0,0,1,0,.2h0Z"/><path class="cls-2" d="M72.24,27.41a.68.68,0,0,1-.16.38h-.49a.74.74,0,0,1-.41-.1h-.11v-.33h0v-.28h0v-.23h.09a.86.86,0,0,1,.39,0,2,2,0,0,1,.36.17h0l.15.11h0a1.5,1.5,0,0,1,0,.3Z"/><path class="cls-2" d="M70,28.75h0a.53.53,0,0,1-.16.38h0a1,1,0,0,1-.75-.11v-.28h0v-.26h.17a.77.77,0,0,1,.61.22h0v.09Z"/><path class="cls-2" d="M106.5,29.71h0l.11-.19h0a.31.31,0,0,0-.22-.36,2.55,2.55,0,0,1-.52-.33c0-.11-.19-.17-.3-.28h0a2.26,2.26,0,0,0-1.14-.58,2.78,2.78,0,0,1-.67-.33H103a1.06,1.06,0,0,0-.56,0,.33.33,0,0,0-.26.15h0a.72.72,0,0,0-.22.44h0v.3a.71.71,0,0,0,.09.28h0v.26h0l.1.11.2.19.26.17a5.07,5.07,0,0,0,2,.3,4.38,4.38,0,0,0,.72-.15h.43l.52.15h0Z"/><path class="cls-2" d="M32.47,43.6h.37a5.29,5.29,0,0,1,1.12.15h0l.28.11h0a4.83,4.83,0,0,0,1.86.48h0a6.88,6.88,0,0,0,1.29-.13h0A4.76,4.76,0,0,0,38.57,44l.78-.15h0l.48-.09.71-.11h.3a.74.74,0,0,0,.21,0h1.19l1.53-.3h.48a15.76,15.76,0,0,0,1.66-.23h.56A5.4,5.4,0,0,0,47.68,43h3.23c.21,0,.9.09,1.34.09h6.12l.48-.22h0a1.33,1.33,0,0,0,.34-.37,1.4,1.4,0,0,0,.24-1.12v-.3h0l-.13-.22h0v-.15c0-.23-.22-.43-.32-.65h0a2.39,2.39,0,0,1-.14-.43h0a.55.55,0,0,0-.1-.38v-.16h0v-.23h0c0-.18-.17-.37-.24-.56a1.3,1.3,0,0,0-.52-.52,2.18,2.18,0,0,0-.9-.26l-.93-.15H56c-.64,0-1.27-.11-1.87-.13h0l-1-.11L52.22,36h0c-1-.17-2-.45-3.06-.67h-.11l-.32-.1-.32-.11-1.12-.24H47l-.77-.09A24.21,24.21,0,0,0,42,34.37h-2.8a1.19,1.19,0,0,0-.46,0h-.23L38,34.5a4.59,4.59,0,0,1-1,.17H35.43a6.39,6.39,0,0,0-1.06.2h-.32a7.38,7.38,0,0,0-.78.19H33.2a8.51,8.51,0,0,0-.92.54h0l-.17.15a1.6,1.6,0,0,0-.26.26l-.15.54h0c-.09.09-.15.24-.26.3h0l-.22.11h-.09l-.21.11h0l-.17.13a5.19,5.19,0,0,0-1.21,2.67c0,.37-.19.74-.2,1.12h0v.41a.57.57,0,0,0,0,.26h0v.09a2.08,2.08,0,0,0,1.32.54,8.71,8.71,0,0,1,.89.32,3.33,3.33,0,0,0,1.12.43"/><path class="cls-2" d="M58.13,22.62V23c-.25.87-.66.74-1.36,1.21a39,39,0,0,1-3.6,2.93,7.74,7.74,0,0,0-1.64,1c-.56.47-1.48.62-1.87,1A4,4,0,0,1,44,28.47a4.15,4.15,0,0,1-.84-1.86,7.09,7.09,0,0,1,.58-3.52.09.09,0,0,1,.1,0,.61.61,0,0,1,.13-.45c.13-.15,0,.09.2,0,.26-.32.5-.62.77-1,.69.17,2-.54,2.72-.78A39.44,39.44,0,0,0,51.9,19l.2-.09.26-.13h.23a3.62,3.62,0,0,1,.71-.28h0a1.93,1.93,0,0,1,.48,0h.11a1.57,1.57,0,0,1,.53,0h.15a5.12,5.12,0,0,1,.85.32h.17l.26.14h.24c.19.17.43.32.6.49h0a1.16,1.16,0,0,0,.28.26A3,3,0,0,1,58,22.34"/><path class="cls-2" d="M104.24,0c.49.19.94.37,1.4.6H106a4.27,4.27,0,0,1,.44.3l.14.09a3.59,3.59,0,0,0,.35.32V1.4h0a.37.37,0,0,1-.15.5h0l-.15.11H106c-.46,0-.93-.28-1.38-.16H103.5a.73.73,0,0,1-.36,0l-.24-.1h0a.28.28,0,0,1-.24-.15h-.24a5.72,5.72,0,0,0-1.72,1H100a4.68,4.68,0,0,0-1.12.18h0c-.24,0-.47.21-.69.3h0l-.19.1H96.34a3.91,3.91,0,0,1-1.23,0h-.34l-.5-.15h0c-.1,0-.12-.13-.19-.18h0v-.1h0l-.15-.24"/><path class="cls-2" d="M94.28,3l.55.17h.33a4.06,4.06,0,0,0,.92.11h1.67l.19-.09h0a4.22,4.22,0,0,1,.89-.41h0A4.78,4.78,0,0,1,100,2.63h.69a3.67,3.67,0,0,1,.73.24h0V3l-.28-.11h0l-.33-.13-.51-.09a4.2,4.2,0,0,0-1.17.13h-.36l-.16.09h0l-.25.1h-.39a2.51,2.51,0,0,1-.67,0h-1a2.27,2.27,0,0,1-1.19.48,1.74,1.74,0,0,1-.45-.17h-.1Z"/><path class="cls-2" d="M136.86,67.49v.15h-.28a11.87,11.87,0,0,0-1.44.2h-1.32a2,2,0,0,1-.62-.17V65.12h.28l.38.2H134c.35.17.68.36,1,.56a3.47,3.47,0,0,1,.37.26l.28.17q.39.21.75.45a1.18,1.18,0,0,1,.28.22h0Z"/><path class="cls-2" d="M137.58,79.25v.26a.92.92,0,0,1-.14.28l-.12.13a7.49,7.49,0,0,1-.61.51h-.11a1.66,1.66,0,0,1-.71.3,3,3,0,0,1-.6,0h-.11a4.05,4.05,0,0,1-.47-.12h-.33c-.3-.13-.64-.24-.93-.39h0l-.45,0V78a3.08,3.08,0,0,1,.43,0H134l.76.14h.36l.28.11h1.15C137.06,78.81,137.42,78.88,137.58,79.25Z"/><path class="cls-2" d="M57.55,29.2c-.77.1-2.31-.48-1.51-1.41s1.86-.34,2.59-.27a17.61,17.61,0,0,0,3.84,0,18.12,18.12,0,0,1,3.88-.39c1,0-.5,2.11-1,2.28a11.12,11.12,0,0,1-3.73,0H57.46Z"/><path class="cls-2" d="M142.41,54.58H140a9.36,9.36,0,0,1-4.23-.5c-.69-.32-1.68-.58-2.43-1V50.67a4,4,0,0,1,1.87.24c.8.3,1,.93,1.49,1.38a7.14,7.14,0,0,0,1.87.89h0c1,.17,3.93-.54,4.71,0S143,54.51,142.41,54.58Z"/><path class="cls-2" d="M141.28,48a1.88,1.88,0,0,1,.2,1.21c-1,.17-1.12-.19-1.71-.71a2.13,2.13,0,0,0-1.87-.6c-.76,0-4.9.51-4-1.11a7.93,7.93,0,0,1,1.64-1.12,6.15,6.15,0,0,1,2.56-.12c1,0,2.87.84,2.78,2a1.26,1.26,0,0,1,.7.43Z"/><path class="cls-2" d="M140.77,50.68c-2.1-.52-1.86,1.16,0,1.44,2.32.37,1.09-1.42-.33-1.64Z"/><path class="cls-2" d="M143,46.49v1.86c1.27.36,1.49-1.64.39-1.86Z"/><path class="cls-2" d="M146.82,50.59c-1.1.41-.69,2.26.31,2.35s.86-2-.11-2.35Z"/><path class="cls-2" d="M148.46,39.31c2.29,1.21-.86,1.12-1.64,1.44a5.2,5.2,0,0,0-1.53,1.13c-.36.36-.62,1.16-1.14,1.23-.91.12-.8-.74-.71-1.34a1.63,1.63,0,0,1,1.1-1.45,8.37,8.37,0,0,1,4-.69Z"/><path class="cls-2" d="M148,45.37c-.82,0-.89.89-.82,1.51a15.58,15.58,0,0,0,3.27-.26,2.72,2.72,0,0,0,0-.9c-.79-.28-1.53,0-2.35-.31Z"/><path class="cls-2" d="M152.45,41.36c0-.17-.17-.32-.23-.48a1.85,1.85,0,0,0-1,0c-.16.72.3,1.23.68,1.75a6,6,0,0,1,1,2.12,19.54,19.54,0,0,0,1,1.87,10.77,10.77,0,0,1,.65,2c-.74,0,0,1.37.17,1.87a12,12,0,0,1,0,2.54,6,6,0,0,1-.41,2.25c-.56,1.66,0,3.53,2,2.74s1.19-2.72,1.17-4.17a33.09,33.09,0,0,0-.41-6.05,11.53,11.53,0,0,0-3.58-6.15c-.3-.19-.63-.22-.93-.41Z"/></g><g id="F3"><path class="cls-1" d="M70.3,135.9a113.58,113.58,0,0,1-15,5.71c-6,1.21-12.36-.54-18.21,0a2.18,2.18,0,0,0-1.66.88,2.17,2.17,0,0,1-1.57.67c0,1-2.46.58-2.8.58-.71-.13-1.58-1.87-1.47-2.37s-.82-1.44-5.6-9.33l-4.43-7.45c-.36-.68-.28-1.7-1.51-1.87a1.83,1.83,0,0,1-.88-.56,2.71,2.71,0,0,1-2.72-1,2.26,2.26,0,0,1-.43-1.86Z"/><path class="cls-1" d="M45.39,192.39l.11-.26a13.53,13.53,0,0,0,3.23.39A12.69,12.69,0,0,0,54.79,191a160.46,160.46,0,0,0,24.35-8.26,37,37,0,0,0,9.72-7.26c2.25-3.19,3.56-6.3-1.75-9a78.33,78.33,0,0,0-20.85-2.18A131.56,131.56,0,0,0,42.89,166,14.15,14.15,0,0,0,32,172.51a40.42,40.42,0,0,0-1.78,8.13c1.18,3.73,2.65,7.12,6.2,9.32A15.14,15.14,0,0,0,45.39,192.39Z"/><path class="cls-2" d="M64.6,135.36h0a.43.43,0,0,1-.3.19l-.45.15c-.91.33-1.86.73-2.7,1.1a.91.91,0,0,1-.62.26h-.11a.31.31,0,0,1-.15-.34,3.11,3.11,0,0,1,0-.61,1,1,0,0,1,0-.24h0v-.28h0a2.8,2.8,0,0,0,0-.41.21.21,0,0,0,0-.19v-.48h0v-.23h0l.11-.15h0l.12-.15.16-.18.17-.15,2.93.86h0a8.1,8.1,0,0,1,.45,1.19Z"/><path class="cls-2" d="M56,134.52a1.79,1.79,0,0,1,.22.38,2.08,2.08,0,0,1,.37,1.13v.1l.15,1v.47h0v.14h0v.15h0V138a3.48,3.48,0,0,1-1.58.76h0a13.27,13.27,0,0,1-1.87.41h-.48a.74.74,0,0,1-.34-.78v-.3h0v-.17a.67.67,0,0,1,0-.2h0v-.15h0v-.13h0v-.25h0l-.2-1h0V136h0l.09-.13h0l.22-.27h0l.13-.13h0l.13-.11a2,2,0,0,1,.26-.24h0l.15-.09.38-.21h1.06l.19.11h0l.18.13h0Z"/><path class="cls-2" d="M49.92,138.78h-.45l-.2.15h0c-.22.2-.69.54-.67.85h0v.13h0l.09.17h0l.13.11H50.5a.54.54,0,0,0,.15-.22v-.49h0l-.28-.37a.44.44,0,0,0-.15-.18h0Z"/><path class="cls-2" d="M31.7,124.51h-.41a2.9,2.9,0,0,0-.59.09h-.13a.55.55,0,0,1-.4-.11.7.7,0,0,1,.15-.54Z"/><path class="cls-2" d="M70.42,135.94a21.43,21.43,0,0,1-3.64.52c-.09-.13-.86-.93-1.31-1.36a2.76,2.76,0,0,1-.33-.72l5.16,1.52Z"/><path class="cls-2" d="M40.45,127.08a3.5,3.5,0,0,1-.36,1.09c-.44.69-.7.55-.85,1.54a12,12,0,0,0-.36,1.66,2.12,2.12,0,0,1,0,.71,7.49,7.49,0,0,1-.28.92h0a4.27,4.27,0,0,0-.44,1.24,3.15,3.15,0,0,1-.45.92c-.13.22-.36.41-.41.63l-.19.23-.13.15a1.7,1.7,0,0,1-.24.22h0l-.17.11h0l-.11.09h-.58l-.2.13h0l-.23.17h-.2l-.12.13a1.61,1.61,0,0,0-.24.28l-.13.17h0v.13l-.26.32h0l-.26.32-.21.18h0a.88.88,0,0,1-.22.21h0l-.24.13H33.2a.89.89,0,0,1-.23,0,3.42,3.42,0,0,1-.71.13,1.41,1.41,0,0,1-.41,0l-.41-.13a.41.41,0,0,0-.22,0h-.11l-1.27,1.1a1.36,1.36,0,0,1-.3-.13l-.41-.23-.17-.11a6,6,0,0,1-.71-.54l-.35-.28h0l-.13-.11h-.11a3.79,3.79,0,0,0-.45-.34h-.13a1.62,1.62,0,0,1-.19-.18l-.13-.15h-.09a1.36,1.36,0,0,1-.24-.24l-.32-.47H26l-.21-.17-.22-.2v-.12h0c-.15-.18-.32-.31-.49-.52l-.15-.15v-.13h0l-.11-.17h0l-.37-.48h0L24.3,135h0l-.86-.75-.15-.15V134h0l-.11-.15-.13-.17h0l-.09-.15v-.11a1.17,1.17,0,0,1-.19-.3,2,2,0,0,1-.2-.28c-.21-.41-.38-.82-.58-1.21v-.11c-.11-.2-.23-.43-.32-.63h0c0-.21-.22-.39-.3-.6h0v-.09a2,2,0,0,0-.18-.56c-.06-.19-.13-.56-.23-.84h0a29.55,29.55,0,0,1-.45-3,8.34,8.34,0,0,0-.26-1.86v-.47c-.11-.31-.2-.61-.29-.93h0a6.23,6.23,0,0,0-.3-1v-.14l3.54,1v.15l-.11.17h0v.15a1.75,1.75,0,0,0-.13.65,6.48,6.48,0,0,0,.39,1.23v.48a.32.32,0,0,0,.28.28l.15.15c0,.17.15.3.2.45v.19a3,3,0,0,0,.17.41l.26.35.15.24h0l.37.23h0a3,3,0,0,0,.47,1.19h.09l.13.15a9.26,9.26,0,0,1,.53,1.1l.22.73v.17h0l.11.09a.74.74,0,0,0,.51,0,4.48,4.48,0,0,1,1.86,0,4.31,4.31,0,0,1,.49.22v.11h0v.23l.14.35a1.85,1.85,0,0,0,.21.45,2.88,2.88,0,0,0,.58.52h0a3.36,3.36,0,0,0,1.69.77h.64l.61-.12h.36a1.37,1.37,0,0,1,1.15.36l.12.13a.51.51,0,0,0,.22.19h1.16l.13-.13.15-.17h.09a.14.14,0,0,1,.11-.13v-.15a.74.74,0,0,1,0-.21,1.86,1.86,0,0,0,.3-1.17v-.56l.2-.24h0a3.74,3.74,0,0,1,.21-.88l.19-.28a.8.8,0,0,0,.15-.5h0a.12.12,0,0,1-.12-.1.43.43,0,0,0,0-.16v-.14h0v-.22a1.86,1.86,0,0,1,.15-.56v-.15a.47.47,0,0,1,.11-.26h0a1.75,1.75,0,0,0,.43-1L38,127h-.52a2.76,2.76,0,0,0-.17.9c-1,.46-1.33,1.36-2.48,1.7a4.16,4.16,0,0,1-3.25-.43c-1.23-.69-2.77-.62-3.89-1.44s-1.87-3.34-2.91-5.05l1.86.56a7.82,7.82,0,0,0,.24,1.67,5.28,5.28,0,0,0,3,2.58,9.81,9.81,0,0,1,2,.56,3.08,3.08,0,0,0,2,.65,4.3,4.3,0,0,0,1.34,0c.24-.11.15-.39.3-.56s.54-.22.71-.39a9.87,9.87,0,0,0,1.15-1.51Z"/><path class="cls-2" d="M38.16,190.5a9,9,0,0,0,2.31.27c1.3.12,2.61.19,3.91.18.34,0-.37-.86-.48-.89a4.08,4.08,0,0,0-1.29-.23,31.16,31.16,0,0,1-3.73-.35A4.31,4.31,0,0,1,37,188a12.36,12.36,0,0,1-3.9-7.85A9.92,9.92,0,0,1,33.7,176a38.81,38.81,0,0,1,1.6-3.61,7.22,7.22,0,0,1,2.37-3.29,4.32,4.32,0,0,0,1.27-1.1,1.83,1.83,0,0,1,1.27-.83c1.4-.21,2.33.91,3.73.35.7-.3,1.38-.69,2.08-1a6.63,6.63,0,0,1,1.87-.39,30.15,30.15,0,0,1,4.33-.86c1.51,0,3-.18,4.51-.18h4.49a8.55,8.55,0,0,1,4.25,1.53,9.32,9.32,0,0,0,2,.93c.26,0,1.55.34,1.73,0s-.78-.58-1-.63a8.09,8.09,0,0,1-1.72-.64c-.26-.13-.93-.54-1-.78-.21-.65.58-.62,1.08-.64,1.31,0,2.48-.31,3.73-.26s2.27,0,3.39.13a11.13,11.13,0,0,1,3.42,1.1,12.45,12.45,0,0,0,4.25.53c1.27.11,3-.12,4,.85.61.6.48,1.87.35,2.73s-.65,3.11-2,2.59c-.47-.19-.47-.64-1-.71a4.29,4.29,0,0,0-1.47.11,3.48,3.48,0,0,0-1.87,2.61c0,.47-.26,1.46-.84,1.64s-.69-.59-1.21-.5c-1.16.17.9,2.09.58,2.65s-1.08.31-1.55.37a1.86,1.86,0,0,0-1.1.56,3.14,3.14,0,0,1-1.34.73c-.56.11-1-.26-1.55-.13s-.56.48-.91.76-.56.3-.84.52c-.73.62-1.31,1.53-2,2.2a13.48,13.48,0,0,1-6,3,20.36,20.36,0,0,1-3.21.37,8.6,8.6,0,0,0-2.2.17,3.6,3.6,0,0,0-1.41,1.38A6,6,0,0,1,52.91,190c-.4,1.49,3.13.25,3.73,0a6.31,6.31,0,0,1,1.86-.54,6.18,6.18,0,0,0,2-.26c1.36-.5,2.89-.6,4.31-1.08,1.86-.63,3.62-1.14,5.43-1.87.93-.35,1.73-.91,2.7-1.19s1.64-.47,2.44-.74A13.31,13.31,0,0,0,78,183.19c.84-.52,1.86-.69,2.81-1.17s2-1.49,3.17-2.11a10.26,10.26,0,0,0,2.13-1.23,10.57,10.57,0,0,0,1.44-1.4c.89-1.19,1.86-2.33,2.66-3.56a4.64,4.64,0,0,0,.6-3.93,6.6,6.6,0,0,0-2.54-3,6.28,6.28,0,0,0-4-1.12,25.81,25.81,0,0,1-3.6-.52c-1.36-.28-2.83-.5-4.23-.71a56,56,0,0,0-8.09-.35H54.23a22.35,22.35,0,0,0-4.83.26c-2.83.67-5.89.22-8.56,1.57a10.48,10.48,0,0,1-1.73.71,11.72,11.72,0,0,0-1.2.31c-.44.17-.69.64-1,.9a11.87,11.87,0,0,0-1.31.84l-1.21,1.21a11.54,11.54,0,0,0-2.65,3.52c-.33.75-.46,1.57-.82,2.32-1.13,2.42-.13,6.21.94,8.5a20.89,20.89,0,0,0,1.67,3c.56.82.86,1.53,1.77,1.86a23.09,23.09,0,0,0,3,1.31"/><path class="cls-2" d="M39.44,171.56c-.45.37-1,.65-1.15,1.27,1,0,1.21-.21,1.21-1.22Z"/><path class="cls-2" d="M40.15,174.23a.72.72,0,0,0,0,.5,1,1,0,0,0,.49,0,1,1,0,0,0,0-.43h-.25Z"/><path class="cls-2" d="M41.31,173.07a1.5,1.5,0,0,0,0,.3c.59.13.74-.56.26-.43Z"/><path class="cls-2" d="M40.34,183.36a5.18,5.18,0,0,1,2.76,2.8c.09.28.24,1-.19,1.06s-.48-.59-.58-.84a4.38,4.38,0,0,0-1.27-1.6c-.5-.48-1.13-.71-1.23-1.47a.74.74,0,0,1,.51,0"/><path class="cls-2" d="M44.27,186.33a8.7,8.7,0,0,1-.18,1c.76.19.95-.89.37-.84Z"/><path class="cls-2" d="M75.43,167.72c-.31,0-.89-.15-.89.24a1.36,1.36,0,0,0,1.25.2.5.5,0,0,0-.3-.44Z"/><path class="cls-2" d="M78.45,171.2a1.39,1.39,0,0,0,.21.75.38.38,0,0,0,0-.75Z"/><path class="cls-2" d="M80.77,170c-.12.19,0,.92.35.54s-.17-.74-.47-.8Z"/><path class="cls-2" d="M79,168.87c-.28.54.48.6.82.45a.54.54,0,0,0-.33-.69.55.55,0,0,0-.31,0Z"/></g><g id="F2"><path class="cls-1" d="M133.46,39.16,133,85.41c-1.17.69-2.63.11-2.67,1-8.31,10.29-6,5.76-12.55,10.31-.65.47,0,2.54-.56,3.24-.93,1.33-2.08,3-2.94,4.27s-2.37,1.35-2.93,2.37a42.38,42.38,0,0,0-6.88,5.34l-4,4.45L98.33,119c-.6,1.07-2.44,1.27-3.49,1.87A28.44,28.44,0,0,0,87,126.17c-3.52,3.28-10.22,6.88-16.78,9.79L14,119.35c.37-1.68,2.78-2.88,3.28-4.78.24-3.84-7.46-8.41-5.86-19.41L27.6,73.94,27,66.05l.46-15Z"/><path class="cls-2" d="M23.26,105.84l.56-1.52.09-.14h0l.17-.22.15-.2h0v-.12a3.25,3.25,0,0,0,.37-.52h0l.45-.61v-.17c.16-.21.37-.41.54-.64l.11-.11h0l.15-.15h0v-.11c.15-.11.26-.26.41-.35s.18-.19.3-.3v-.09l.22-.28.15-.25a3.06,3.06,0,0,0,.65-2v-1A8.07,8.07,0,0,0,27.69,95V94.8l-.11-.22h0a3.27,3.27,0,0,1-.13-.54,1.39,1.39,0,0,0,.52-.8v-.13h0V93l-.15-.2v-.34l-.09-.2a2,2,0,0,1,0-.84h0a.79.79,0,0,1,0-.43h0a.36.36,0,0,0,.11-.26v-.21a2.38,2.38,0,0,1,.13-1,2.73,2.73,0,0,1,.23-.8h0v-.32a1,1,0,0,1,.18-.28h0v-.37a1.63,1.63,0,0,1,.32-.82h0l.36-.53h0a1.83,1.83,0,0,0,.24-.31.45.45,0,0,0,0-.23h0v-.28h0v-.48h0a2.89,2.89,0,0,1,.26-2,1.32,1.32,0,0,0,.09-.48,1.5,1.5,0,0,0,0-.3h0a.27.27,0,0,0-.22-.11,6.25,6.25,0,0,1-.6-.24c-.45-.26-.89-.53-1.32-.36h-.36a2.09,2.09,0,0,0-.5,0,.78.78,0,0,1-.6,0,2.36,2.36,0,0,0-.89-.31h0a1.71,1.71,0,0,0-.32,0h0a.86.86,0,0,1-.2.13h0l-.41.11h0l-.56.13H23.5l-.34.17h0l-.26.2h0a1.66,1.66,0,0,0-.39.26l-.28.23a6.47,6.47,0,0,0-.56.5l-.24.2c-.49.49-1.27.81-1.62,1.38v.12a.57.57,0,0,0,0,.26v.3a.25.25,0,0,1-.1.24v.74a.76.76,0,0,0,0,.3v.82h0a5.24,5.24,0,0,1,0,1v.13h0v1.87h0l-.11.32a3,3,0,0,1-.91,1.1,1.91,1.91,0,0,1-.58.35l-.47.24a.43.43,0,0,1-.16,0H16.6a1.66,1.66,0,0,0-.47.26,2,2,0,0,0-.39.25V93h-.13c0,.11-.22.17-.28.28v.15c0,.11-.11.22-.19.33-.18.39-.39.75-.54,1.14h0a.52.52,0,0,1-.13.41h0v.24h0v.39h0v.26h0a3.08,3.08,0,0,1,0,.43v.28h0a2.41,2.41,0,0,0,0,.38v1h0v1.61l-1.41,1.21a2.57,2.57,0,0,0,.2.69v.11a.74.74,0,0,1,0,.21h0a3.69,3.69,0,0,1,.19.56h0c.06.15.1.31.15.46v.19l.15.26h0c0,.26.22.52.33.82a3.13,3.13,0,0,1,.24.6h0l.15.33.41.86a2.08,2.08,0,0,1,.19.49v.29h0a3.38,3.38,0,0,0,.11.34,2.07,2.07,0,0,0,.15.58h0c.15.39.34.8.5,1.15a7,7,0,0,0,.69,1.37,2.51,2.51,0,0,0,.56.52l.43.18a1.17,1.17,0,0,1,.26.1,2.75,2.75,0,0,0,.81,0h.33a4.19,4.19,0,0,0,1.27-1.1h0l.45-.66.15-.22.11-.17h0l.31-.58h0v-.14h0c.3-.58.55-1.16.88-1.72l.11-.19h0l.15-.22Z"/><path class="cls-2" d="M22.72,104.43h0v.18h0a.19.19,0,0,0,0,.15c0,.28-.36.43-.43.71h0a1.31,1.31,0,0,0,0,.28v.34H22a.63.63,0,0,0-.34.18h-.52c-.13,0-.2-.11-.33-.11h-.27a.45.45,0,0,1-.13-.17c-.09-.13-.13-.29-.22-.41v-.18a1.1,1.1,0,0,0-.52-.41h-.32a1.08,1.08,0,0,1-.45-.34,2,2,0,0,1-.24-.58V102.6h0V102l-.15-.34a2,2,0,0,1-.11-.35v-.17h0v-.15h0v-.21a2.77,2.77,0,0,0,.22-.63.41.41,0,0,0,0-.22v-.54c0-.06-.15-.21-.15-.36V98.7a2,2,0,0,0,.43-.8h0v-.24h0a4,4,0,0,0,0-.49c0-.3.17-.44.23-.67v-.09a3.47,3.47,0,0,0-.11-.56v-.21l-.47-.54V95l-.09-.33v-1a1.23,1.23,0,0,1,.35-.52c.17-.19.41-.34.58-.52a5.52,5.52,0,0,1,.78-.67h0a3,3,0,0,0,.49-.45,1.76,1.76,0,0,0,.29-.58v.19h0v-.12a4.27,4.27,0,0,1,.3-.44l.13-.3v-.69a2,2,0,0,0,.15-.28l.21-.34h0a5.64,5.64,0,0,0,.48-1l.15-.33a8.3,8.3,0,0,1,.38-.86,1.48,1.48,0,0,1,.26-.3l.15-.15.14-.11h.15l.82-.41.1-.15V85.5a3.54,3.54,0,0,0-.13-1h0l-.3.26h0v-.26l.11-.28a.24.24,0,0,1,.11-.19h0c.11-.13.24,0,.38,0h0c.11,0,.11-.18.22-.24s.19,0,.26,0h.21a.22.22,0,0,0,.2.09h1.16l.11-.18.09-.13H27a.25.25,0,0,0,.24,0,1.14,1.14,0,0,1,.15-.23h.18a1.72,1.72,0,0,1,.21-.43h0c.15,0,.3.23.47.32a.27.27,0,0,1,.13.15v.73h0v.15h0c-.12.22-.28.43-.26.63a.3.3,0,0,0,0,.23v.09l.09.17h0v.37a.56.56,0,0,1-.19.54h0a1.91,1.91,0,0,0-.24.32.34.34,0,0,1,0,.2v.23a1.81,1.81,0,0,1-.19.29h0l-.15.17-.09.21a1,1,0,0,1-.17.63v.43l-.22.71v.17c-.09.35-.13.69-.24,1.06a1.79,1.79,0,0,0-.13.32h0v.09h.09v.22a1.38,1.38,0,0,0-.17.25.22.22,0,0,0,0,.16,1.51,1.51,0,0,0,.15.28h0v.25a.66.66,0,0,1,0,.28h0a.41.41,0,0,0-.22,0h0a.23.23,0,0,0,0,.2H27A1,1,0,0,1,27,93H27a.35.35,0,0,1,.37.19c.12.19,0,.19,0,.3v.17a.82.82,0,0,0,.12.2h0q0,.8,0,1.59h0a3.07,3.07,0,0,1,0,1.28h-.4v.1h0V97h0l-.11.18h0v-.09h0a.34.34,0,0,1-.11-.17h0v-.33h0v.11a2.41,2.41,0,0,1-.17.58c0,.17-.11.35,0,.52h.13a.66.66,0,0,1,0,.48,1.49,1.49,0,0,1-.37.55l-.39,1.9h0l-.26.28h-.3l.11-.13a.87.87,0,0,0,.17-.21h0v.09h0a.21.21,0,0,0,0,.19h0l.11.15a.49.49,0,0,1,0,.17h-.13s-.19.17-.17.24h0a.81.81,0,0,1-.39.8,1.2,1.2,0,0,0-.22.23h-.47a1.43,1.43,0,0,0-.09.41h0a.56.56,0,0,1-.11.2c0,.11-.49.28-.53.37"/><path class="cls-2" d="M49.85,110.39h0a1.19,1.19,0,0,1-.6-.22l-.2-.15c-.15-.17-.25-.35-.38-.52h0l-.09-.13-.09-.34h0c-.15-.22-.28-.46-.41-.69h0a9.84,9.84,0,0,1-.62-1,2.15,2.15,0,0,1-.24-1.27,2.09,2.09,0,0,1,.35-.86h0l.3-.33.36-.32h0l.18-.17.17-.18h0l.11-.12h0a1,1,0,0,0,.15-.2h0a4.54,4.54,0,0,0,.35-.78l.1-.17.17-.36.13-.2.2-.26h.09l.21-.21h0l.17-.11.17-.11h0c.09,0,.14-.11.24-.11a3.57,3.57,0,0,1,.78-.26,9.73,9.73,0,0,1,1.87,0h.76a.59.59,0,0,1,0,.37,2.88,2.88,0,0,1-.19.45v.09s-.11.22-.16.3c-.26.45,0,.82-.41,1.25l-.12.18-.16.28a1.86,1.86,0,0,0-.21,1.2c.11.52.24,1,.39,1.54h0a2.67,2.67,0,0,0,0,.4,1.82,1.82,0,0,1,0,1.58,1.14,1.14,0,0,1-.22.32l-.21.26-.26.26h0l-.09.11h0c-.34.21-.65.41-1,.58h0a1.5,1.5,0,0,1-.52.26c-.15,0-.28.15-.43.17h-.36Z"/><path class="cls-2" d="M56.71,106.11h-.45a1.86,1.86,0,0,1-.28-.21l0-.19h0v-.09a1.23,1.23,0,0,1-.12-.26,1,1,0,0,1-.16-.41h0l-.12-.37h0l-.13-.23h0l-.18-.15-.25-.11-.18-.11h0a.21.21,0,0,1,0-.19,1.16,1.16,0,0,1,.15-.5h0c.3,0,.59.2.87.11h0v-.32l.12-.14h.26c.09,0,.13-.27.24-.38h0l.13-.09h.11a1.55,1.55,0,0,0,.56-.19h.21a5.19,5.19,0,0,0,.76-.17h1.62a2.17,2.17,0,0,1,.66.19,1.34,1.34,0,0,1,.55.73v.13a.9.9,0,0,1-.16.39,1.87,1.87,0,0,1-.36.43c-.24.22-.5.37-.74.56l-.19.13h-.13L59,105h0l-.17.15h0l-.16.14h-.1l-.13.14h0l-.28.29h0l-.2.21h-.24a.92.92,0,0,1-.4.15Z"/><path class="cls-2" d="M133.13,69.54v1.62c-.34-.26-.54-.5-.54-.67a1,1,0,0,1,.39-.71C132.89,69.65,133,69.57,133.13,69.54Z"/><path class="cls-2" d="M83.13,73.1a1.63,1.63,0,0,1,0,.54.31.31,0,0,1-.11.19h0a.41.41,0,0,1-.24.11h0a1.13,1.13,0,0,1-.65-.17l-.47-.22a.65.65,0,0,1-.47-.3.78.78,0,0,1-.18-.32.34.34,0,0,1,0-.2v-.27c0-.33-.13-.67.15-1a.15.15,0,0,1,.13,0,3,3,0,0,1,1.55.56l.13.15.16.2h0a3.72,3.72,0,0,1,.21.39,1.93,1.93,0,0,1,0,.34Z"/><path class="cls-2" d="M74.09,72.88v-.81h.75L75.1,72h0l.16-.11a3.14,3.14,0,0,1,.69-.39h.12a5.2,5.2,0,0,1,1.67,0,1.4,1.4,0,0,1,.58.33l.11.1.1.11h0a1.7,1.7,0,0,0,.17.54h0v.15a1.44,1.44,0,0,0,.13.32h0l.13.26a3,3,0,0,0,.18.41h0v.16h0v.1h0a2.78,2.78,0,0,0-.91,0h-.86a1.68,1.68,0,0,1-1.1.37,2,2,0,0,1-.86-.2h-.13l-.31.48a.31.31,0,0,1-.19,0h0v-.13a4.66,4.66,0,0,0,0-1.12h0a.73.73,0,0,0-.41-.32"/><path class="cls-2" d="M64.08,134.06l-2.93-.86a1.36,1.36,0,0,1,.41-.34,1.14,1.14,0,0,1,.43-.24h.39a1,1,0,0,1,.35,0h0c.34.17.47.47.73.69l.24.19a.54.54,0,0,1,.15.15h0A1.5,1.5,0,0,1,64.08,134.06Z"/><path class="cls-2" d="M130.54,43.21h0v.18h0v.17a5.6,5.6,0,0,1-.36.49.21.21,0,0,1-.11.18v.11a4.47,4.47,0,0,1-.32.41.82.82,0,0,0-.13.23l-.11.13h-.41a3.83,3.83,0,0,1-1-.13,5.25,5.25,0,0,1-2.18-1h0v-.09h0a.59.59,0,0,1,0-.6.54.54,0,0,1,.15-.15h0l.32-.18h.43a4.14,4.14,0,0,1,3,.09.9.9,0,0,1,.3.17.27.27,0,0,1,0-.38.28.28,0,0,1,.38.06h0v.26h0Z"/><path class="cls-2" d="M35.92,54.82h0l-.1.23h0l-.09.09h0l-.09.11h0v.13h0a1.16,1.16,0,0,0-.21.56l.13.11h0l.23.19.15.11.2.17a.52.52,0,0,0,.32.22h.22v.15a.49.49,0,0,1,.45.17h.11V57a.63.63,0,0,0,.15-.32h0v-.17h0l-.17-.22.36-.32-.19-.16h0l-.09-.23h0l-.1-.13a2.35,2.35,0,0,0-.33-.3L36.61,55H36Z"/><path class="cls-2" d="M69.8,93.37h.93a7.94,7.94,0,0,1,1.07.26l.39.11h.3a2,2,0,0,1,.83.41h0l.15.15h0a.94.94,0,0,1,.13.24v.56a2.22,2.22,0,0,1-.35.64h0L73,96l-.12.11h0a1.5,1.5,0,0,1-.89,0h-.8a8.46,8.46,0,0,1-1-.15,2.39,2.39,0,0,1-1.14-.73L69,95.1V95h0a.43.43,0,0,1,0-.16v-.13h0a.66.66,0,0,1,0-.28v-.13h0v-.17h.8Z"/><path class="cls-2" d="M67.13,99.21a4.62,4.62,0,0,1,1.05.18l.63.24h0a1.08,1.08,0,0,1,.32.32l.15.23h0v.11a.19.19,0,0,1,0,.15v.13a.84.84,0,0,1-.28.18H67.47a2.21,2.21,0,0,1-1.73-.35h0a1.35,1.35,0,0,1-.15-.26h0v-.41a.7.7,0,0,1,.11-.23h.09l.19-.11h.17a1.83,1.83,0,0,1,1-.18Z"/><polygon class="cls-2" points="59.36 101.16 59.34 101.2 59.36 101.16 59.36 101.16"/><path class="cls-2" d="M66.07,110.49h0l.47-.51h0l.22-.22h0l.15-.15a1.26,1.26,0,0,0,.22-.24l.19-.23.69-.76.17-.17.2-.18c.13-.13.23-.27.32-.34s0-.13.15-.17l.17-.2.11-.15h0l.09-.1.13-.2a1.94,1.94,0,0,0,.21-.34v-.11h0v-.17h0v-.09h0l-.13-.11a1.8,1.8,0,0,0-.49-.22h-.15a8.25,8.25,0,0,0-1.36-.51h0l-.54-.18a2.59,2.59,0,0,0-1.86,0l-.36.16h-.13l-.46.19H63l-.37.24h-.11a1.14,1.14,0,0,0-.19.19h0v.17h0v.28h0l-.15.15-.24.28-.15.13-.22.24h0l-.23.2h0l-.13.15h-.11l-.26.28h0l-.15.26h0a4.65,4.65,0,0,0,0,1.29v.34h0l.11.18.15.13.11.1.34.28h0l.24.2h0a4.41,4.41,0,0,0,.49.36h.33a1.16,1.16,0,0,1,.6.2h0a2.09,2.09,0,0,0,.63.28h.15a.71.71,0,0,0,.26-.13,1.8,1.8,0,0,0,.64-.41h.11l.22-.17h0l.28-.17a4.17,4.17,0,0,0,.53-.41h0L66,110Z"/><path class="cls-2" d="M67.6,112.69h0a.76.76,0,0,0-.13.39v.17h0v.5h0l-.11.15h0a.36.36,0,0,0,0,.35l.13.23.32.24.55.32a3.48,3.48,0,0,0,.83.26h0a.69.69,0,0,1,.35,0h.2A3.81,3.81,0,0,0,71,115h.46l.23-.11h0l.26-.09h0l.41-.19.28-.13h.11c.13,0,.24-.15.37-.2h0l.73-.41h0a30.44,30.44,0,0,0,3.26-1.94h0l.26-.19h0l.25-.19h0l.14-.13h0l.32-.26.09-.11h.12l.09-.17h0V109h0l-.13-.15h0a6.34,6.34,0,0,0-2.2-.65h-.6a9,9,0,0,0-1,.15h-2a2.19,2.19,0,0,1-.36.39l-.09.11h0c-.15.13-.3.2-.45.33h0l-.3.23h0l-.2.28v.11l-.12.13h-.22l-.09.15h0l-.26.22-.13.13c-.21.21-.32.43-.47.55h0l-.11.11h-.11a.57.57,0,0,0-.15.3h0l-.13.2h0a1.71,1.71,0,0,1-.26.21h0l-.23.14h0Z"/><path class="cls-2" d="M67.13,73.79h1.55a3.78,3.78,0,0,1,1.2.2,1.89,1.89,0,0,1,.5.28h.09a1.31,1.31,0,0,1,.24.23l.13.11.14.13h0v.11h0a2.56,2.56,0,0,1,.2.26h0l.13.21h0c.06.11.12.22.17.33a.66.66,0,0,1,0,.28h0v.34h0v.13h0v.26h0v.11h-.71a6.17,6.17,0,0,1-2.85-.5,6.82,6.82,0,0,1-.77-.37H67l-.21-.15.39.41a.2.2,0,0,0,0-.11h0a2.4,2.4,0,0,1-.11-.23v-.17a4.64,4.64,0,0,1-.11-.65v-1h0Z"/><path class="cls-2" d="M74.72,80.88a1.87,1.87,0,0,1,.67.09h0l.17.13h0v.17h0v.15a.92.92,0,0,1,0,.33v.78h0l.19.21.11.13h0L76,83h0l.17.11h0l.3.3h0a.29.29,0,0,1,0,.13.57.57,0,0,1,0,.26h0a6.07,6.07,0,0,1-1.51-.32h-.43l-.28-.16h0v-.71h0a2.21,2.21,0,0,0-.3-.45h0a.6.6,0,0,1,0-.19h0v-.11h0v-.35h0A.14.14,0,0,1,74,81.4h.34Z"/><path class="cls-2" d="M68.29,88.3h0v.11a2.12,2.12,0,0,0,.48.37l.17.11h0a.17.17,0,0,1,.15.13.45.45,0,0,1,.11.17.14.14,0,0,1,0,.15H67.49l-.49.09h-.26a1.14,1.14,0,0,1-.8-.2h-.15a1.34,1.34,0,0,0-.67-.28,2.66,2.66,0,0,1-.69,0,2.86,2.86,0,0,1-1.08-.22h-.8a1,1,0,0,1-.73-.28h0l-.09-.15v-.25h0a2,2,0,0,1,.18-1.26h0l.21-.21H64a3.42,3.42,0,0,1,.64,0l.16.09.19.15h0a.75.75,0,0,1,.6.38h0a.86.86,0,0,0,.2.18h.11a10.58,10.58,0,0,1,1.51.84l.21.13Z"/><path class="cls-2" d="M74.91,88.18a8.7,8.7,0,0,0,1.6.17h.32a2.17,2.17,0,0,1,.35.15,1.25,1.25,0,0,1,.49.24h.13l.19.15.13.12.17.18,0,.32.1.17v.09a.38.38,0,0,0,0,.15.41.41,0,0,1,0,.22l-.12.11H76.4a4.84,4.84,0,0,1-.84-.27l-.2-.12a2.21,2.21,0,0,1-.45-.3l-.11,0a1.43,1.43,0,0,1-.19-.24l-.13-.21h0a1.14,1.14,0,0,1-.09-.26v-.19h0a2.17,2.17,0,0,1,.35-.15h.17Z"/><path class="cls-2" d="M28.7,57.92h.43a2.8,2.8,0,0,1,.58.09,1.51,1.51,0,0,1,.61.26h.12l.11.15.18.17.12.11h0l.13.15V59h0l.11.19h0v.17h0a2,2,0,0,1,.15.33.83.83,0,0,0,.13.32v.13h0v.13a1.87,1.87,0,0,1,.15.28l.09.37v.21h0v.52l.13.67h0v.49a1,1,0,0,0,.13.59V64l.11.58v.73a6.27,6.27,0,0,0,.13.71c0,.24,0,.26.1.39s0,.46.11.71v.24l.17.69.13.58h0l.11.29v.4h0v.2c0,.11.11.21.11.3h0V70a2.07,2.07,0,0,1,.15.34h0v.09h0l.09.21h0v.2h0V71h0v.09l.12.3v.23h0v.16h0v.13h0v.17c0,.1.09.2.13.3v.11l.14.32h0V73a8.86,8.86,0,0,1,.23,1.25h0v.24h0v.13a1.41,1.41,0,0,1,0,.41h0a.52.52,0,0,1-.19.52h-.24l-.49.19h0l-.5.2h0l-.56.23h0c-.43.2-.82.35-1.21.58l-.24.13-.21.09h0c-.45.19-.89.45-1.34.65H28a2.26,2.26,0,0,1-.52,0h-.13a3.62,3.62,0,0,1-1-.15h-.18a4,4,0,0,1-.92-.54h-.37l-.22-.24h0v-.11a1,1,0,0,1-.13-.23l-.17-.29h0v-.12h0a2.55,2.55,0,0,1,0-1.1h0c.24-.69.91-1.34,1.12-2h0a9.72,9.72,0,0,0,.28-1.86v-2.2h0v-.23a.26.26,0,0,0-.1-.2V68h0v-.28h0V67.6h0v-.69h0c0-.82.17-1.64.23-2.46h0a1.13,1.13,0,0,0,0-.26h0a3.42,3.42,0,0,1,0-.64,3.84,3.84,0,0,1,0-.48h0v-2.5a4,4,0,0,1,.24-.84,1,1,0,0,1,.13-.37,3.11,3.11,0,0,1,.45-.82l.18-.21.1-.11h.13l.22-.11h.43Z"/><polygon class="cls-2" points="134 48.63 133.99 48.62 134 48.63 134 48.63"/><polygon class="cls-2" points="134.19 46.21 134.21 46.23 134.23 46.23 134.21 46.23 134.19 46.21"/><path class="cls-2" d="M50.72,87.42H51l.22.09h.32l.18.15h0v.23h0a.77.77,0,0,1,0,.37.48.48,0,0,1-.11.3l-.09.11a1.83,1.83,0,0,1-1,.5,1.16,1.16,0,0,1-.69,0h-.56a4.21,4.21,0,0,0-.71,0h-.71l-.41.15h0l-.24.11h-.13l-.24.15h0c-.25.12-.49.28-.73.41l-.24.13h-.13l-.4.17h0c-.2.09-.42.16-.63.23H43.51a.29.29,0,0,1-.13,0h-.64a2,2,0,0,1-1.86-.81v-.26h0a1.31,1.31,0,0,1,0-.28h0V89h0a2.8,2.8,0,0,1,0-.41,4.27,4.27,0,0,1,.15-.71.85.85,0,0,1,.26-.41h0a.47.47,0,0,1,.15-.13l.15-.11.2-.14h.09l.28-.13.27-.11h0a23,23,0,0,1,2.33.24h.35a.54.54,0,0,1,.34.12,3.27,3.27,0,0,0,1.12.26,1.23,1.23,0,0,1,.48.22,1.37,1.37,0,0,0,.45.13h.2a5.8,5.8,0,0,0,1.31-.3h1.66Z"/><path class="cls-2" d="M48.77,89.51h.11l.11.09h.22a1.77,1.77,0,0,0-.46,0,3.65,3.65,0,0,0-.73.23h0l.47-.32h.28Z"/><path class="cls-2" d="M39,52.06h0a.6.6,0,0,1-.13.43h-.18a1.37,1.37,0,0,1-.75,0h-.28a3.08,3.08,0,0,0-.43,0,3.39,3.39,0,0,1-1.1-.09H36a7,7,0,0,0-1.45,0h0a1.41,1.41,0,0,0-.41,0h-.2a1.56,1.56,0,0,1-.6.15h0a2.73,2.73,0,0,0-.69.2h-.47a1.32,1.32,0,0,1-.39.15H30.53l-.47-.11H30a1.62,1.62,0,0,1-.54-.35l-.22-.17v-.11L28.94,52a.38.38,0,0,0,0-.15h-.09l-.88,0v-.22h0l-.18-.39,9.32-1.05h.19a4,4,0,0,0,.37.34c.16.14.32.29.47.45h.11a3.34,3.34,0,0,1,.5.56h0a.51.51,0,0,1,.19.22h0Z"/><path class="cls-2" d="M51.9,58.16h.32a6,6,0,0,1,1.71.39h.15l.49.28.37.25.17.09.26.2h0l.09.12h0a.88.88,0,0,1,.11.24h0a.86.86,0,0,1,0,.32h0v.14h0l-.11.15h0l-.22.13h0l-.38.13a.28.28,0,0,1-.18,0h-.17l-.43.94h-.93l-.62-.26-.43-.23A6.17,6.17,0,0,1,51,60.23l-.11-.11h0L50.69,60h0l-.34-.11h0v-.11h0v-.17a1.14,1.14,0,0,1,0-.58v-.22l.13-.17h1.33Z"/><path class="cls-2" d="M58,66.89a2.86,2.86,0,0,1,1.47.58h0c.15.15.3.22.43.35s0,0,0,.09h0a1.14,1.14,0,0,1,.15.36.29.29,0,0,1,0,.13v.17l-.13.26-.17.17h0l-.26.24-.49.28c-.13,0-.24.11-.35.13a.89.89,0,0,1-.56,0h-.2a1.65,1.65,0,0,1-.36-.22.44.44,0,0,1-.13-.14h-.09l-.23-.24h0l-.13-.18h0l-.09-.15c-.06-.1-.12-.2-.17-.3v-.36h0a.92.92,0,0,1,0-.52h0l.17-.26h0a.29.29,0,0,0,.13,0h.41Z"/><polygon class="cls-2" points="51.06 74.24 51.04 74.22 51.06 74.22 51.06 74.24"/><path class="cls-2" d="M50.61,73.23a.29.29,0,0,1,0,.13h0a3.19,3.19,0,0,0-.45-.45L50,72.8h0l-.38-.3h-.15a2.29,2.29,0,0,0-.5-.3,1,1,0,0,0-.35,0h-.15a2.43,2.43,0,0,0-.66,0h-.37l-.11.15h0a1.35,1.35,0,0,0,0,.49h0V73a.64.64,0,0,0,.11.3v.15h0a.36.36,0,0,0,.15.15h0a3.79,3.79,0,0,0,.69.43h.26a.43.43,0,0,1,.34.11h.5a2.48,2.48,0,0,0,.86,0,.55.55,0,0,0,.46-.15h0v-.37h0v-.11h0v-.13l-.09-.25v-.09h0v-.2h0Z"/><path class="cls-2" d="M64.45,74.29h0a2.92,2.92,0,0,0-.32-.28h0a.57.57,0,0,1,0-.26h0v-.56A.61.61,0,0,0,64,73V72.8l-.58-.45h0l-.18-.15a2.31,2.31,0,0,0-.69-.16H61.35l-.2.11H61l-.1.24a.6.6,0,0,0,0,.19h0a1.19,1.19,0,0,0,0,.46h0l.11.11v.1h0a2.37,2.37,0,0,0,.81.32H63.7a.45.45,0,0,1,.28,0h.3a.23.23,0,0,0,0-.25.38.38,0,0,0,0-.15"/><path class="cls-2" d="M53.93,72h.41l.24.13.64.24.22.11.28.21.13.13c.9.32,1.21,1.86,1.2,2.89H56.5a3.66,3.66,0,0,1-.65-.17c-.3-.15-.59-.24-.87-.35a1.78,1.78,0,0,1-1.09-.56h-.15a3.68,3.68,0,0,1-.78-.58v-.22h0V73.7h0a.13.13,0,0,1,0-.12,1.62,1.62,0,0,1,0-.44v-.41a.61.61,0,0,1,0-.27v-.2h.17a.57.57,0,0,1,.26,0h.71Z"/><path class="cls-2" d="M56.93,86a2.07,2.07,0,0,1,1,.29l.19.19h0l.17.43v.52h0c0,.3-.22.6-.22.92a.47.47,0,0,1-.14.28h-1a.71.71,0,0,0-.41.09c-.15.09-.45,0-.67,0h-.86v-.11h0v-.12h0v-.24h0V88h0v-.43h0l.09-.18V87.1l.15-.22.22-.17h0a1.79,1.79,0,0,1,.64-.37h.54a1.63,1.63,0,0,1,.54,0h0Z"/><path class="cls-2" d="M34.05,105.62h.36a1.26,1.26,0,0,1,.35.17s.09,0,.11.13h0a1.49,1.49,0,0,1,0,1,1.37,1.37,0,0,1-.22.56,2.4,2.4,0,0,1-.41.43h0l-.13.11h0l-.17.12h-.09l-.15.15h0c-.15.35-.54.61-.75,1a1.19,1.19,0,0,1-.31.28h-.12l-.16.09a1.89,1.89,0,0,1-.82,0h-.41a.56.56,0,0,1-.47-.21L30,110h0v-.11h0a.85.85,0,0,1,.24-.88,2.86,2.86,0,0,1,.35-.43l.19-.24.3-.35h0l.32-.36h0a4,4,0,0,1,.41-.41L32,107h0l.13-.11h0l.17-.13.24-.21h.11a3,3,0,0,1,.86-.43h.36Z"/><path class="cls-2" d="M26.71,113.42h.69v.09h0l.11.09h0a.7.7,0,0,1-.15.39,1.89,1.89,0,0,0-.3.58h0c0,.45-.35.9-.45,1.36a1.45,1.45,0,0,1-.18.17.24.24,0,0,0-.28.19.86.86,0,0,1-.45.41H25a10.47,10.47,0,0,1-1.25-.19h0a2.34,2.34,0,0,1-.62-.19h-.09l-.28-.18h-.11l-.15-.19h0v-.13h0a.41.41,0,0,1,0-.22v-.17h0v-.15h0v-.09a1.07,1.07,0,0,1,.28-.19,1.48,1.48,0,0,1,.45-.28h.31a3.26,3.26,0,0,0,.4-.24l.18-.11.19-.15h0l.19-.11h0l.85-.36h.79a.86.86,0,0,1,.39,0h0Z"/><path class="cls-2" d="M30.3,114.33h0a1.32,1.32,0,0,1,.62.15.21.21,0,0,1,.13.17h0a.38.38,0,0,1,0,.15v.11h0l-.22.11h-.32a4.13,4.13,0,0,0-.69.11h-.17a.55.55,0,0,1-.46-.15c-.13-.15.11-.48.22-.73l.24-.26h.67Z"/><path class="cls-2" d="M32,124.21v.11H31.7l-1.41-.41h0a1.4,1.4,0,0,0,.16-.22h.68a.92.92,0,0,1,.48.11.17.17,0,0,1,.15.13V124S32,124.17,32,124.21Z"/><path class="cls-2" d="M78.42,125.33a3.63,3.63,0,0,0-.15.54c-.19.82,0,2.93,1,3,.69,1.38,2.73,1.06,3.73.13a47.27,47.27,0,0,1,4.2-3.27l.11-.11h0l.19-.15h0l.13-.15h0a1,1,0,0,1,.26-.2l.28-.19h.48c.15,0,.27-.2.41-.3l.25-.17.2-.18.13-.13h0l.26-.26.19-.21h0l.45-.45h0l.18-.18h0l.12-.11h0l.13-.19h0l.15-.13h.09a4.63,4.63,0,0,1,.5-.58h0l.28-.28h0l.11-.11h0l.17-.15h0c.11,0,.23-.22.32-.32h.35v-.09c0-.09.21-.19.3-.3h0a1.11,1.11,0,0,0,.17-.47.24.24,0,0,0-.09-.13h1.06c-3.73-.37-6.84,1.25-10,2.88a17,17,0,0,0-3.73,2.22c-1.07.91-1.7,1-2.09,2.23"/><path class="cls-2" d="M81.06,119.18v.17h0l-.11.18h0v.24h0v.15a1.13,1.13,0,0,0,0,.26,3,3,0,0,0,0,.73,1.37,1.37,0,0,0,.23.43H82a.84.84,0,0,0,.3-.11h0a.49.49,0,0,0,0-.24.48.48,0,0,1,0-.17h.15l.11-.09h.93l.15-.25v-.18H84a1,1,0,0,0,.3-.13h0l.28-.28h0l.19-.12a.15.15,0,0,0,.13-.11H85l.15-.11c.45-.28.91-.45,1.36-.73h0l.24-.15h.11a.17.17,0,0,0-.14,0h-.38a5.61,5.61,0,0,0-.58,0c-.35,0-.71.07-1.06.13H83l.88-1.32h0a1.5,1.5,0,0,0-.3,0h0l-.52.19h-.49a2.73,2.73,0,0,0-.43.26h0l-.26.15h-.13l-.17.11h-.09v.2h0l-.11.12h0Z"/><path class="cls-2" d="M105.34,76.46h0a7.12,7.12,0,0,0,1,.16h.33a3.87,3.87,0,0,1,.55.25l.82.35.59.22h0a6.54,6.54,0,0,0,1.12.41h0c.58.21,1.16.36,1.75.53H112a.25.25,0,0,1,.17,0l.47.09a8.79,8.79,0,0,0,.89.19q.39,0,.78,0a3,3,0,0,0,.84-.15h.26a.75.75,0,0,0,.21-.26.76.76,0,0,0,.17-.56h0a2.16,2.16,0,0,0,0-.36h0a1.48,1.48,0,0,0-.19-.35h0l-.32-.39h0l-.35-.13h0l-.36-.34h0l-.2-.17h-.09l-.13-.11h-.21l-.35-.28-.23-.13h-.09l-.32-.22h-.09l-.5-.36h0l-.3-.18-.39-.25-.51-.26h-.24a8,8,0,0,0-1-.45h-.13c-.34,0-.66-.26-1-.33h-.47a3,3,0,0,0-.78-.43,6.59,6.59,0,0,0-1.2-1.16h-.54a2.09,2.09,0,0,1-.5,0h-.52a3.66,3.66,0,0,0-1.4,0h-1.6l-.12.13v.45a.92.92,0,0,0,.12.51h0V73l.11.11h0l.2.13h.15l.32.13a1.82,1.82,0,0,0,0,.33,2.64,2.64,0,0,0,2.54,2.75h.29"/><path class="cls-2" d="M106.69,78.64h-.25a2.3,2.3,0,0,1-.74,0h0a5.05,5.05,0,0,1-1-.32h-.32l-.43-.2a1,1,0,0,1-1-.36v-.22a.66.66,0,0,1,.11-.49l.13-.17a.58.58,0,0,1,.15-.11h.09a1,1,0,0,1,.56.11h0l.86.36a1.61,1.61,0,0,1,.54.2,1.93,1.93,0,0,1,.38.19h0l.2.13h0a1.88,1.88,0,0,1,.35.34.2.2,0,0,0,.12.18h0v.15h0Z"/><path class="cls-2" d="M97.87,75h-.14v-.15h0l-.14-.09a.4.4,0,0,1-.19-.15h.41a.61.61,0,0,1,0,.19h0a.14.14,0,0,0,.09,0Z"/><path class="cls-2" d="M116.36,60h-1.64v.13a1,1,0,0,0,.6.86h0l.5.3h0a4.34,4.34,0,0,0,.69.17h1a.25.25,0,0,0,0-.17v-.15l-.06-.26a1.81,1.81,0,0,0-.28-.34h0l-.13-.13-.2-.15-.15-.11h0l-.15-.09"/><path class="cls-2" d="M125.18,49.53h-1.51l-.09.09v.13a1,1,0,0,0,.62.86h0l.48.3h0a2.6,2.6,0,0,0,.67.15h1a.25.25,0,0,0,0-.17v-.34c-.09-.12-.18-.24-.28-.35h0l-.13-.11-.21-.17-.13-.11h-.26"/><path class="cls-2" d="M117,69.85l-.51-.41h0a.64.64,0,0,1-.2-.16h0l-.19-.21V69h0a1.37,1.37,0,0,0-.13-.45h0a.38.38,0,0,1-.32-.22V68h0v-.11h0a1.07,1.07,0,0,1-.26-.73,1.2,1.2,0,0,1,.23-.22h.16a1.94,1.94,0,0,1,.3-.13c.32-.1.64.11.95.2s.17,0,.26-.13a.19.19,0,0,1,.15,0h.13a2.33,2.33,0,0,1,.41.24h.19a.94.94,0,0,0,.47,0H119a.28.28,0,0,1,0-.13h0a1.15,1.15,0,0,1,1,.13h0l.09.12.21.2a.6.6,0,0,0,.28.13h.11c.11,0,.21.1.32.15h0l.24.34.17.28h0v.11h0l.09.17h0l.21.24h0l.18.22a.32.32,0,0,0,.15.26h.11l.12.12.11.13h0l.11.18h0V70a2.1,2.1,0,0,1,.13.26v.17a1.52,1.52,0,0,1,0,1.25c0,.78-2.18,1.32-2.59,1A7.57,7.57,0,0,1,116.29,70c-.3-.24-.45-.65-.6-.65Z"/><path class="cls-2" d="M127.22,55.94h0a1,1,0,0,0-.25-.22h0s-.11,0-.11-.09a7.31,7.31,0,0,0-2.14-.94h0a10,10,0,0,0-2-.28,1.69,1.69,0,0,0-.45,0h-.1c-.24.12-.46,0-.7.17a.17.17,0,0,0,0,.1c-.1.2,0,.37.13.55h0a1,1,0,0,0,.2.23l.11.09.15.11.26.17h0l.19.11h.11a12.62,12.62,0,0,0,1.23.71v.11H124l.54.15a7.51,7.51,0,0,0,1.34.13h1l.23-.2a1.93,1.93,0,0,0,0-.34v-.11h0v-.11h0v-.36"/><path class="cls-2" d="M129.4,69.11h0"/><path class="cls-2" d="M129.31,69h0a7.41,7.41,0,0,0,2.51.48h.34a.88.88,0,0,0,.18-.46h0l.06-.6h0c-.15-.13-.2-.23-.33-.32h0c-.12,0-.23-.22-.38-.3l-.33-.2h-.15l-.39-.47h-.12a2.48,2.48,0,0,0-.48-.17,3.45,3.45,0,0,0-.54-.11h-.43l-.13.17h0v.32a2.44,2.44,0,0,0,0,.54h0a2.54,2.54,0,0,0,0,.39h0v.11l.09.09.13.15h.11Z"/><path class="cls-2" d="M129.32,69h0a7.27,7.27,0,0,0,2.52.48h.45l-.17.15h-.5a6.63,6.63,0,0,1-1.87-.34l-.28-.09h-.3Z"/><path class="cls-2" d="M133,65.16h.2v2.55l-.2-.11-.21-.15a1.26,1.26,0,0,1-.37-.32h0l-.11-.15h0l-.11-.11-.13-.19h0c-.25-.22-.62-.39-.64-.69v-.15h0c.13,0,.21-.18.32-.27h.39a.94.94,0,0,1,.47,0h.11Z"/><path class="cls-2" d="M108,105.23a4.47,4.47,0,0,1-.63-.6,6.06,6.06,0,0,0-.47-.54v-.43a.11.11,0,0,0,.11,0,1,1,0,0,1,.34,0h.26l.24.1h2.31l.82.31h.12l.26.11v.15h0v.1a2.94,2.94,0,0,1-.64.63,2.46,2.46,0,0,1-.44.34l-.23.13h-.26c-.56-.36-1.25-.45-1.77-.84h0Z"/><path class="cls-2" d="M109.15,101.18h0v-.3h0v-.11h.28v-.09h0l.11-.13h0l.17-.28.16-.15h0a1.7,1.7,0,0,1,.51-.24h.54l.6.11h0a2,2,0,0,1,.39.13h0a5.47,5.47,0,0,1,2.48,2.13v.16l-.23.17h0a2.12,2.12,0,0,1-.69.34,1.19,1.19,0,0,1-.46,0,1.6,1.6,0,0,1-.75-.12h-.19l-.48-.18H111a6.2,6.2,0,0,1-1.14-.6h-.49Z"/><path class="cls-2" d="M111.46,95.91c0-.14,0-.28.17-.34h.24a2,2,0,0,1,.73.11h0l.26.09,1.49.66c.19,0,.41.18.62.26h0l1.1.46c.31.12.55.25.85.38s1.1.33,1.4.89v.13l-.33.3h0a3.07,3.07,0,0,1-.88.54h-.35a2.41,2.41,0,0,0-.69-.17h0a3.51,3.51,0,0,1-.77-.33h-.56a.66.66,0,0,1-.19-.09,4.4,4.4,0,0,1-.5-.38l-.3-.24h0a3.2,3.2,0,0,1-.61-.15h0l-.23-.2h0a1.17,1.17,0,0,1-.7-.66,2.34,2.34,0,0,1-.53-.46v-.1h0v-.39h0Z"/><path class="cls-2" d="M117,94.25a1.73,1.73,0,0,1-.62-.77l-.15-.37a1.4,1.4,0,0,0-.13-.69V92h0v-.26a.81.81,0,0,1,.36-.47h.16l.19-.11h.67a1.93,1.93,0,0,1,.34,0h.28a5.86,5.86,0,0,1,.87.43l.32.19a5.89,5.89,0,0,1,.84.65,1.11,1.11,0,0,0,.37.2h0l.28.11h.43a5.19,5.19,0,0,0,.79.12,4,4,0,0,1,.69,0h.13v.09h0v.26h0a.75.75,0,0,1-.25.28,3.29,3.29,0,0,0-.26.24,2.12,2.12,0,0,1-.43.38,4.28,4.28,0,0,1-.71.54,4.39,4.39,0,0,1-.63.26h-1.38l-.32-.13h0c-.39-.23-.82-.39-1.19-.64a5.92,5.92,0,0,1-.61-.33Z"/><path class="cls-2" d="M124.42,89.25a1.1,1.1,0,0,1-.35-.65,1,1,0,0,1,0-.25h0a.66.66,0,0,1-.14-.2v-.3a.86.86,0,0,1,0-.32v-.15l.14-.11.16-.11h1a3,3,0,0,1,.93.8c.45.6,1.09.9,1.46,1.57h0l-.45.24-.24.11h-.3l-.5-.2H126l-.48-.1a5.73,5.73,0,0,1-.58-.07h0a1.29,1.29,0,0,1-.33-.17h0Z"/><path class="cls-2" d="M127.65,86.84c-.38-.37-.73-.8-1.14-1.15s-.56-.38-.71-.77a1.13,1.13,0,0,1,0-.26.29.29,0,0,1,0-.13h0a.38.38,0,0,1,0-.15h0l.34-.17a4.93,4.93,0,0,1,.67-.11h1.12a3.9,3.9,0,0,1,.67.11h.16a4.16,4.16,0,0,1,.51.28h0c.24.15.45.34.67.51h0l.43.41a1.49,1.49,0,0,1,.3.57v.17a1.1,1.1,0,0,1-.49.39h-.11l-.35.23h-.94l-.37-.15h-.48a1.28,1.28,0,0,1-.27-.11h0Z"/><path class="cls-2" d="M124.36,89.19h0a.83.83,0,0,1-.2-.32,3.26,3.26,0,0,1-.15-.44c0-.19-.17-.28-.22-.49v-.46a.13.13,0,0,1,0-.12h0l.13-.11h0l.22-.11h.76l.25.11h.09a14.73,14.73,0,0,1,2.54,2.26h0l-.19.09-.22.13h-.66l-.65-.26h-.48a1,1,0,0,1-.68-.17l-.24-.11h-.3Z"/><path class="cls-2" d="M133,77.91v2.2c-.14,0-.29-.19-.48-.26h0a7.76,7.76,0,0,0-.84-.34h0a.81.81,0,0,1-.39-.2h0a1.7,1.7,0,0,1-.3-.75v-.15l.13-.15h.26a1.93,1.93,0,0,1,.34,0h1.06Z"/><path class="cls-2" d="M94.94,115.76c0-.22-.32-.26-.39-.5h.5a.25.25,0,0,1,.17,0h.26a1.71,1.71,0,0,1,.32,0h.31a.66.66,0,0,1,.24.11H98a.39.39,0,0,1,.39.38h0v.09l-.11.13h0l-.11.11h-.11l-.21.21h0l-.28.13H97c-.22,0-.34-.28-.54-.36h-.22l-.34-.2H95.4a1.31,1.31,0,0,1-.28,0Z"/><path class="cls-2" d="M96.3,113a.68.68,0,0,1-.26-.27.42.42,0,0,1,0-.38h.31a.31.31,0,0,1,.19,0H97a1.12,1.12,0,0,1,.71.86h0v.15h-.11a2.44,2.44,0,0,0-.66-.15h-.18a1.09,1.09,0,0,1-.34-.17Z"/><path class="cls-2" d="M99.86,112.05a6.2,6.2,0,0,1-.8-.82,15.63,15.63,0,0,1-1-1.73l-.33-.49h0a.28.28,0,0,1,0-.13c0-.15.15-.22.18-.37h0v-.45h0a1.81,1.81,0,0,1,.58-.52l.58-.28h.13l.28-.17h.45l.22-.11h.19l.37-.69h.17l.45-.13h.39m.09,0h1.14l.33.09h.64a6.28,6.28,0,0,0,1.3.64H106a1.49,1.49,0,0,1,.73.39h0v.3a.59.59,0,0,1-.19.43,8.08,8.08,0,0,1-1.27,1.21l-.17.11-1.49,1.14-.17.11c-.43.32-1,.56-1.34.9l-.26.2-.17.11a2.1,2.1,0,0,1-.82.47h.34c-.17,0-.28-.3-.49-.36h-.09l.13.27h0a.25.25,0,0,1-.24,0,1.89,1.89,0,0,1-.49-.25Z"/><path class="cls-2" d="M104,104.65h0a.55.55,0,0,1,.39-.2h0a1,1,0,0,1,.34.11h0l.24.17a2.83,2.83,0,0,1,.36.16l.11.1h0v.11h-.84a3,3,0,0,0-.67-.39Z"/><path class="cls-2" d="M108,105.25a5.28,5.28,0,0,1-.63-.62h0c-.13-.3-.41-.35-.51-.73h0v-.16h.56l.26.09h0a1,1,0,0,0,.34,0h.8a1.8,1.8,0,0,1,.75.11h.56l.61.24H111a.29.29,0,0,1,.24.21v.09h0a1.77,1.77,0,0,1-.44.54l-.23.17a2.77,2.77,0,0,1-.65.47h-.28l-.28-.19h-.47a5.93,5.93,0,0,1-1-.46h0Z"/><path class="cls-2" d="M109.17,101.18a.3.3,0,0,1-.12-.17h0v-.11a.2.2,0,0,1,0-.11v-.09h.26v-.3a3,3,0,0,1,.32-.47h0a.92.92,0,0,1,.3-.18h.71a4.86,4.86,0,0,0,.54,0h.54a5.9,5.9,0,0,1,1.57,1h0c.22.25.52.4.67.79V102a2.43,2.43,0,0,1-.88.44h-.33c-.25-.13-.6,0-.84-.16h-.23l-.54-.21h-.61a1.93,1.93,0,0,1-.54-.26h0a3.67,3.67,0,0,0-.73-.39h-.13Z"/><path class="cls-2" d="M89.81,84.75c1.23.62,2.61,1.87,1.58,3.14s-5.48,1-5.48.57a1.47,1.47,0,0,1-1.21-.24c-.75-.43-1.23-.5-1.42-1.08-.72-.45-.87-1.86-1-2.65s-.44-2-.65-3a2.05,2.05,0,0,1,.47-1.44h.11a1.51,1.51,0,0,1,.47-.09,3.25,3.25,0,0,1,1.67.6l.32.22.32.3.2.17.15.11.39.37h0l.25.21h.11l.19.17.27.2h0l.19.13h.09l.17.11.28.19.15.11h.09l.28.24.49.38h.09l.17.16.13.12L89,84h0Z"/><path class="cls-2" d="M70.45,135.94h-.11l-5.16-1.53a4,4,0,0,0-.21-.84l.11-.59C70.45,124.57,81.1,133.44,70.45,135.94Z"/><path class="cls-2" d="M38.81,108.94c1.15,0,2.11.62,2.11,1.4a3.27,3.27,0,0,1-2.65,2.29c-1.16,0-2-.37-2-1.14s1.4-2.55,2.56-2.55"/><path class="cls-2" d="M40.26,103.18c1.27,0,2.3.69,2.3,1.53a3.6,3.6,0,0,1-2.88,2.48c-1.26,0-2.21-.38-2.21-1.22s1.52-2.79,2.79-2.79"/><path class="cls-2" d="M41.16,124c-.23-1.36-1.76-1.16-2.82-.88-.22,0-.45-.13-.67-.11H37.3v.11h-.9c-.56,0-1.86-.14-1.86.55a21.78,21.78,0,0,1,2.31.44,9.52,9.52,0,0,1,1.51,0,2,2,0,0,1,0,1.18,2.66,2.66,0,0,0-.71.71l3,.89a5.53,5.53,0,0,1,.25-1A2.83,2.83,0,0,0,41.16,124Zm-15.61-2.5a17.78,17.78,0,0,0-2.33-2,7.85,7.85,0,0,0-2.93-.32h-.15s.15.11.15.24h-.11a1.69,1.69,0,0,0-.36.17h0l-.14.13a.51.51,0,0,0-.15.21h0a2.43,2.43,0,0,0-.17.52l3.54,1h0a.28.28,0,0,1,0-.18h.15c.86-.36,1.6.31,2.28,1.36l1.86.56a1.94,1.94,0,0,0-.17-.58C26.67,122,26.11,121.84,25.55,121.45Z"/><path class="cls-2" d="M133.33,50.67V53a3.13,3.13,0,0,1-.82-.67l.28.2C132.1,51.36,132.53,50.8,133.33,50.67Z"/><path class="cls-2" d="M97.87,75h-.14v-.15h0l-.14-.09a.4.4,0,0,1-.19-.15h0l-.54-.11h-.6v.39a.57.57,0,0,0,0,.26.49.49,0,0,0,0,.17h0l.19.11h.17a.68.68,0,0,0,.15.26h0l-.12-.17v-.13H97a.21.21,0,0,1,.13.13h0a1.41,1.41,0,0,0,.19.9v.13h0c0,.11.11.21.15.32h0V77l.16.18h0a1.46,1.46,0,0,1,.3.17l.41.21h.13l.26.11a3.27,3.27,0,0,0,.71.28,6.61,6.61,0,0,1,1.25.18h.43a.27.27,0,0,0,.26-.18h0l-.11-.36-.09-.15h0c0-.11-.1-.22-.15-.35V77a1,1,0,0,0-.1-.3,1.36,1.36,0,0,0-.26-.41h0l-.26-.22h0a2.13,2.13,0,0,0-.28-.23,3.8,3.8,0,0,0-.91-.63H99a4.32,4.32,0,0,0-.67-.28h-.13a1.24,1.24,0,0,0-.47,0h-.11Zm-.17-.13Z"/><path class="cls-2" d="M98.57,72.39h-.48a.21.21,0,0,1-.15-.11,1.58,1.58,0,0,1-.15-.24h-.13a.6.6,0,0,1,0-.19c-.26-.11-.47,0-.73-.15h-.72l-1.1-.48h0l-.34-.17h-.13l-.24-.19a1.2,1.2,0,0,1-.26-.24l-.27-.28h0l-.13-.21a.87.87,0,0,1,0-.8v-.11h.73a3.42,3.42,0,0,1,.64,0h.63l.43.19.33.2.34.17.17.11a3.3,3.3,0,0,1,.39.26h0l.17.24h0a2.1,2.1,0,0,1,.13.55v.39h.13s.26.15.28.26v.28l.09.15h0Z"/><rect class="cls-1" x="91.24" y="96.71" width="7.4" height="7.4" rx="0.65" transform="translate(-43.2 96.55) rotate(-45)"/></g><g id="Labels"><g class="cls-3"><path class="cls-4" d="M75.42,56h5.71v1.25H76.86v2.16h3.75v1.19H76.86V64.3H75.42Z"/><path class="cls-4" d="M87.39,64.3H81.86a3.63,3.63,0,0,1,1.78-3.07c1-.77,2.42-1.4,2.44-2.67a1.28,1.28,0,0,0-1.36-1.43c-1,0-1.36.89-1.39,2H82C82,57.36,83,56,84.8,56a2.4,2.4,0,0,1,2.6,2.49,3.41,3.41,0,0,1-1.8,2.73c-.94.65-1.93,1.15-2.16,1.87h4Z"/></g><g class="cls-3"><path class="cls-4" d="M108.61,21.85l.12,0h0a.13.13,0,0,1,.08,0l.05,0,.07.07,0,.12,0,.08a.21.21,0,0,1,0,.12l-.09.08-.28.21-.35.26-.35.22-.57.35-.24.11a2.84,2.84,0,0,1-.36.17l-.13,0-.16.05h-.18a.28.28,0,0,1-.12,0,.26.26,0,0,1-.11-.14v-.11a.37.37,0,0,1,.07-.19l.13-.14.1-.11,0-.08,0-.15v-.52a.58.58,0,0,1,0-.19l0,0,.09-.05.16,0h.12s.08,0,.13.08a.25.25,0,0,1,.11.24v.08l0,.08-.09.19-.07.26-.06.19.11,0,.13-.08.19-.11.25-.15.45-.3.1-.07.16-.15.27-.2Z"/></g><g class="cls-3"><path class="cls-4" d="M108.34,18.52h.27l.09,0a.94.94,0,0,1,.49.11.38.38,0,0,1,.18.33,1,1,0,0,1-.32.55l-.19.21-.25.21-.25.18a1.4,1.4,0,0,1-.3.15l-.44.19-.22.1h-.16s-.07,0-.12-.1l0-.06,0-.09a.23.23,0,0,1,.06-.16.38.38,0,0,1,.18-.13l.19-.05.23-.07.23-.1a1.17,1.17,0,0,0,.74-.68l0,0-.05,0-.16,0H108l-.07,0-.11.05-.08.05-.08,0h-.12a.31.31,0,0,1-.12-.05l-.08-.12,0-.09a.23.23,0,0,1,.1-.2,2.26,2.26,0,0,1,.43-.17A1.89,1.89,0,0,1,108.34,18.52Z"/></g><g class="cls-3"><path class="cls-4" d="M104.7,21.87l.08,0a.23.23,0,0,1,.2.24.27.27,0,0,1-.07.13l-.13.09-.17.07.32.08.13,0,.15,0c.22,0,.34.13.34.29l0,.08-.14.11-.09.08-.14.1-.47.26-.1.07a.1.1,0,0,0,0,.08l.53.11.42.08h.15c.16,0,.24.07.24.22s0,.26-.14.27h-.33l-.14,0-.21,0-.26,0-.12,0-.12,0-.72-.2h-.06l0,0-.06,0-.1-.06s0,0,0-.11a.21.21,0,0,1,0-.12l.1-.11.26-.18.3-.18.26-.17.18-.14-.27,0-.8-.12s0,0-.07,0v-.13l.13-.1.22-.17.28-.19.25-.14A.84.84,0,0,1,104.7,21.87Z"/></g><g class="cls-3"><path class="cls-4" d="M106.58,19a.27.27,0,0,1,.17-.06c.17,0,.25.11.25.33v.07a.13.13,0,0,1,0,.06,9,9,0,0,1-1,.65,7.25,7.25,0,0,1-1,.49l-.13.05-.1,0a.24.24,0,0,1-.2-.16v-.21c0-.08,0-.13.16-.17a6,6,0,0,0,.76-.4l.25-.15c.13-.07.25-.15.37-.23Z"/></g><g class="cls-3"><path class="cls-4" d="M99.22,24.42a.46.46,0,0,1-.31-.08.29.29,0,0,1-.1-.25V24a.15.15,0,0,1,.09-.14.48.48,0,0,1,.2-.07,1.47,1.47,0,0,0,.62-.15l.52-.28a1,1,0,0,0,.29-.16l.34-.24.14-.08.14-.13-.06-.06-.13-.14,0-.12v-.12a.31.31,0,0,1,0-.12l.08-.07a.37.37,0,0,1,.23-.1,1,1,0,0,1,.3.1l.1.05.11.08.35-.19.41-.22.22-.1a1.88,1.88,0,0,1,.43-.13.44.44,0,0,1,.2.07c.05,0,.07.09.08.18v.08a.17.17,0,0,1-.08.11l-.14.1-.09,0-.23.11-.22.09-.35.1-.18,0,.28.14.21.11.11.1,0,0V23a.11.11,0,0,1,0,.07l0,.07a.19.19,0,0,1-.1.1l-.11.05-.15,0s-.06,0-.08,0l-.56-.28-.2.12-.2.15-.26.16-.39.24-.69.4-.28.15-.26.13-.15.05Z"/></g><g class="cls-3"><path class="cls-4" d="M102.88,25.69a.22.22,0,0,1,.21.13l0,.11V26a.08.08,0,0,1,0,.07l-.08.11-.07,0-.12.06-.13.06-.24.22-.22.16-.37.24-.34.2-.19.11-.22.11-.37.14-.14,0a.3.3,0,0,1-.2-.09.35.35,0,0,1-.07-.21v-.1a.13.13,0,0,1,.05-.07l0,0,.17-.09.39-.17.32-.16.21-.1.2-.11.39-.25.22-.14.19-.16.21-.12A.3.3,0,0,1,102.88,25.69Z"/></g><g class="cls-3"><path class="cls-4" d="M99,21.85l.12,0h0a.11.11,0,0,1,.07,0l.06,0,.06.07,0,.12,0,.08a.17.17,0,0,1-.06.12l-.09.08-.27.21-.36.26-.34.22-.58.35-.24.11a2.84,2.84,0,0,1-.36.17l-.12,0-.16.05h-.18a.21.21,0,0,1-.12,0,.28.28,0,0,1-.12-.14v-.11a.32.32,0,0,1,.08-.19l.13-.14.09-.11.06-.08,0-.15v-.52a.58.58,0,0,1,0-.19l0,0L97,22l.15,0h.13a.24.24,0,0,1,.13.08.27.27,0,0,1,.11.24v.08l0,.08-.08.19-.08.26-.06.19.12,0,.13-.08.19-.11.24-.15.46-.3.1-.07.15-.15.27-.2Z"/></g><g class="cls-3"><path class="cls-4" d="M99.45,25.69a.2.2,0,0,1,.2.13l0,.11V26a.08.08,0,0,1,0,.07l-.09.11-.06,0-.12.06-.13.06-.24.22-.22.16-.37.24-.34.2-.19.11-.22.11-.37.14-.14,0a.3.3,0,0,1-.2-.09.35.35,0,0,1-.07-.21v-.1a.13.13,0,0,1,0-.07l0,0,.17-.09.39-.17.31-.16.22-.1.2-.11.39-.25.21-.14.2-.16.21-.12A.3.3,0,0,1,99.45,25.69Z"/></g><g class="cls-3"><path class="cls-4" d="M95,21.79h.11l.15.12a.19.19,0,0,1,.08.16s-.11.14-.33.35l1.17,0s0,0,0,0l0,0a.2.2,0,0,1,.07.11c0,.09-.13.22-.38.38l-.59.35-.42.25-.69.44-.92.48-.54.23-.17.07-.18,0-.22.06a.53.53,0,0,1-.2,0l-.1-.05a.4.4,0,0,1-.1-.29c0-.09.07-.16.2-.21l.19,0a1.5,1.5,0,0,0,.37,0,1.3,1.3,0,0,0,.36-.13l.09,0,.13-.06.35-.16,1.74-1H93.63s0-.06-.06-.1a.72.72,0,0,1,0-.17l0-.09.11,0,.13,0,.2-.1.35-.16.25-.14a.17.17,0,0,0,.11-.11c0-.05.05-.09.07-.1H95Z"/></g><g class="cls-3"><path class="cls-4" d="M95.25,18.52h.27l.09,0a1,1,0,0,1,.5.11.39.39,0,0,1,.17.33,1,1,0,0,1-.32.55l-.19.21-.25.21-.25.18a1.4,1.4,0,0,1-.3.15l-.44.19-.23.1h-.15s-.07,0-.12-.1l0-.06,0-.09a.23.23,0,0,1,.06-.16.38.38,0,0,1,.18-.13l.19-.05.22-.07.24-.1a1.17,1.17,0,0,0,.74-.68l0,0,0,0-.17,0h-.38l-.07,0-.11.05-.08.05-.08,0h-.12a.16.16,0,0,1-.11-.05L94.27,19l0-.09a.2.2,0,0,1,.11-.2,1.76,1.76,0,0,1,.42-.17A1.89,1.89,0,0,1,95.25,18.52Z"/></g><g class="cls-3"><path class="cls-4" d="M141.44,28.3h.11l.09,0,.27,0,.27.08.19.09a.44.44,0,0,1,.26.36l0,.13-.07.12-.08.1-.19.16-.66.45-.62.32-.25.11-.23,0a.34.34,0,0,1-.18-.07l-.05-.09,0-.11,0-.11s0-.06.08-.1l.22-.11.4-.17.53-.27.22-.12.16-.11,0-.07c0-.1-.14-.15-.4-.15l-.28,0-.32.11c-.23,0-.34-.09-.34-.28a.25.25,0,0,1,0-.16.7.7,0,0,1,.18-.11l.32-.11Zm2.28,0a2.07,2.07,0,0,1,.45.07l.13,0,.09.05.2.13a.4.4,0,0,1,.14.15.4.4,0,0,1,0,.2l0,.07,0,.09-.1.12-.1.11-.1.11-.13.11-.36.29-.37.25-.32.18-.14,0-.16,0h-.11s-.06,0-.1-.06l-.05-.1s0-.06,0-.07a.18.18,0,0,1,.06-.13l.11-.06.15-.07.23-.11.38-.21.29-.23.16-.14a.33.33,0,0,0,.06-.12.14.14,0,0,0-.1-.15l-.23,0-.15,0-.1,0-.11.05-.09,0-.08,0-.2,0-.08,0,0,0,0,0a.5.5,0,0,1,0-.12v-.08a.22.22,0,0,1,0-.08.56.56,0,0,1,.14-.1l.11,0,.09,0a1.05,1.05,0,0,1,.24-.06l.17,0Z"/><path class="cls-4" d="M144,31.42h.08l.07,0a.32.32,0,0,1,.15.17l0,.15a.19.19,0,0,1-.08.18l-.3.13.15.14a.49.49,0,0,1,.14.33v.2l0,0a.75.75,0,0,1-.4.52l-.22.12-.15,0-.19,0H143l-.19,0-.36-.08-.06,0-.24.2-.12.11-.14.11-.31.22-.13.09-.24.15-.21.13-.45.24-.09,0-.11,0-.18.1-.18,0a.42.42,0,0,1-.38-.22v-.05l0-.12a.19.19,0,0,1,.07-.17l.08-.06.06,0h.39a.63.63,0,0,0,.29-.08l.49-.26.18-.11.29-.19.18-.13.12-.13.1-.08.11-.12-.07-.13,0-.1,0-.09a.35.35,0,0,1,.2-.23l.16,0h.1l.14.06a.27.27,0,0,1,.14.14v.13l0,0,.13.09.13,0h.18l.11,0,.1,0a.56.56,0,0,0,.23-.15l.07-.1,0-.08a.25.25,0,0,0,0-.16l-.08-.08-.1-.07-.1-.06-.19-.09L143,32l0-.07,0-.09a.11.11,0,0,1,.06-.11l.16-.08h.31l.12-.06.1-.07.1-.06.11,0Z"/><path class="cls-4" d="M148.52,28.71a.32.32,0,0,1,.18-.06c.16,0,.25.11.25.33l0,.08s0,0,0,.05a9.15,9.15,0,0,1-1,.66,9.8,9.8,0,0,1-1,.49l-.13,0-.1,0c-.08,0-.14,0-.19-.16l0-.08,0-.12c0-.08.05-.14.16-.17a7.75,7.75,0,0,0,.76-.41l.25-.15.37-.22A4.67,4.67,0,0,0,148.52,28.71Z"/><path class="cls-4" d="M147.24,31.61h.4a.44.44,0,0,1,.21,0l.21.05c.26.06.39.17.39.34a.73.73,0,0,1-.17.37l-.13.14-.2.18-.24.19-.2.15-.3.21a10,10,0,0,1-.91.5l-.38.18-.18.07-.22.07-.16,0-.12,0-.07,0-.1-.07-.07-.13v0c0-.16,0-.24.15-.26h.32l.17,0,.1,0,.12,0,.15-.06.19-.1.31-.16.15-.06.25-.14.27-.15.16-.1.09-.08.14-.11a1.37,1.37,0,0,0,.17-.17l.05-.06h0s0,0,0,0l-.08,0h-.24l-.14,0h-.08l-.29,0h0l-.08,0-.09,0-.06,0h-.34a.29.29,0,0,1-.18-.23.36.36,0,0,1,0-.19.94.94,0,0,1,.18-.12l.15-.05.15-.05Z"/><path class="cls-4" d="M152.63,28.71a.32.32,0,0,1,.17-.06c.17,0,.25.11.25.33v.08a.12.12,0,0,1,0,.05,8.12,8.12,0,0,1-1,.66c-.33.18-.65.35-1,.49l-.13,0-.1,0c-.08,0-.15,0-.2-.16V30c0-.08.06-.14.16-.17a6.47,6.47,0,0,0,.77-.41l.25-.15.36-.22C152.35,28.91,152.5,28.81,152.63,28.71Z"/><path class="cls-4" d="M152.28,31.6l.11,0h.05a.1.1,0,0,1,.07,0l.06,0,.06.08,0,.12,0,.07a.17.17,0,0,1-.06.12l-.09.08-.27.21-.36.26-.34.23-.58.34-.24.12a3.32,3.32,0,0,1-.35.16l-.13.05-.16,0h-.18a.21.21,0,0,1-.12-.05.24.24,0,0,1-.12-.14v-.11a.35.35,0,0,1,.08-.19l.13-.14.09-.11.06-.08,0-.15V32a.48.48,0,0,1,0-.18l0-.05.1-.05.15,0h.13a.23.23,0,0,1,.13.07.28.28,0,0,1,.11.24v.08l0,.09-.08.18-.07.27-.07.18.12-.05.13-.08.19-.11.25-.15.45-.3.1-.07.16-.15.26-.2Z"/></g><g class="cls-3"><path class="cls-4" d="M82,33.15h.12l.09,0,.26,0,.27.08.2.09a.43.43,0,0,1,.25.36l0,.13-.06.12-.08.1-.19.16-.67.44-.61.33-.26.11-.23,0a.29.29,0,0,1-.18-.08l0-.08v-.11l0-.11s0-.06.09-.11l.21-.1.41-.17.53-.27.21-.12.16-.11,0-.07c0-.1-.13-.15-.4-.15l-.27,0-.33.11c-.22,0-.34-.09-.34-.28a.21.21,0,0,1,.06-.16.5.5,0,0,1,.17-.11l.32-.11Zm2.29,0a2.08,2.08,0,0,1,.44.07.4.4,0,0,1,.13,0l.1,0,.19.13a.4.4,0,0,1,.14.15.39.39,0,0,1,.05.2l0,.07-.05.09-.1.11-.1.12-.09.11-.13.11-.37.29-.36.24-.33.19-.14,0h-.27s0,0-.1-.06l0-.1a.19.19,0,0,0,0-.08.17.17,0,0,1,.06-.12l.12-.06.15-.08.22-.1.38-.21.29-.23.16-.14a.31.31,0,0,0,.06-.13.13.13,0,0,0-.1-.14l-.22,0h-.15l-.11,0-.11.05-.09,0-.08,0-.2,0-.08,0s0,0,0,0a.1.1,0,0,1-.05,0,.4.4,0,0,1,0-.12v-.08a.22.22,0,0,1,.05-.08,1,1,0,0,1,.15-.11l.1,0,.1,0A1,1,0,0,1,84,33.2a.62.62,0,0,1,.17,0Z"/><path class="cls-4" d="M84.48,36.27h.09l.07,0a.3.3,0,0,1,.15.16v.16a.22.22,0,0,1-.07.18l-.31.13.15.14a.45.45,0,0,1,.14.33v.14a.43.43,0,0,1,0,0,.08.08,0,0,1,0,.05.75.75,0,0,1-.4.53l-.22.12-.15,0-.19,0h-.18l-.19,0L83,38.25l-.06,0-.24.2-.11.11-.14.1-.31.23-.13.08-.24.15-.22.13-.45.25-.09,0-.1,0-.18.1-.18,0a.4.4,0,0,1-.38-.22l0-.05,0-.12a.22.22,0,0,1,.06-.17l.08-.06.06,0h.39a.6.6,0,0,0,.29-.08l.5-.26.17-.11.29-.19.19-.13.11-.13.1-.08.11-.12-.07-.14,0-.09V37.6a.38.38,0,0,1,.21-.23l.15,0h.11l.13.07a.22.22,0,0,1,.14.14v.13l0,0,.13.09.14.05h.17l.11,0,.1,0a.59.59,0,0,0,.24-.15l.06-.1,0-.08a.25.25,0,0,0,0-.16L84,37.23l-.11-.07-.09-.06L83.65,37l-.18-.13,0-.07,0-.09a.11.11,0,0,1,.06-.11l.17-.08H84l.11-.05.11-.07.1-.06.1,0Z"/><path class="cls-4" d="M89.31,33.93c0,.43-.28.79-.84,1.09a1.15,1.15,0,0,1-.58.17q-.81,0-.81-.69a1.13,1.13,0,0,1,.47-.9,1.52,1.52,0,0,1,1-.39,1,1,0,0,1,.31,0,.58.58,0,0,1,.24.14A.67.67,0,0,1,89.31,33.93ZM88.8,34c0-.19-.13-.29-.41-.29a.85.85,0,0,0-.75.76q0,.18.24.18H88a.88.88,0,0,0,.5-.22C88.7,34.29,88.8,34.15,88.8,34Z"/><path class="cls-4" d="M87.24,36.45l.17,0a.37.37,0,0,1,.23.14l.07.11a.21.21,0,0,0,.14.07.28.28,0,0,0,.12,0l.11-.1.08-.06.09-.08a.15.15,0,0,1,.08,0,.22.22,0,0,1,.12,0h.07l.06,0,.1,0,0,0,0,0,.06.14,0,.12,0,0,0,0a.64.64,0,0,0,.25-.08l.11-.08.11-.12,0,0,.07-.05.15-.08.12,0h.1a.09.09,0,0,1,.08,0l.07.08,0,.08a.39.39,0,0,1-.09.26l-.13.15s-.07.07-.15.11l-.16.09-.19.08-.2.06-.35.06a.57.57,0,0,1-.29-.07l-.11-.09-.12-.12h-.22a.43.43,0,0,0-.17,0,.23.23,0,0,0-.12.06l-.23.22-.36.29-.37.27a.44.44,0,0,1-.1.08l-.13.08-.16.1-.52.29-.4.22-.16.07-.18.07L85,39h-.28l-.13-.05a.33.33,0,0,1-.15-.32.25.25,0,0,1,.15-.23h.51a1,1,0,0,0,.34-.14l.36-.18.41-.22.37-.25.28-.22L87,37.3a.13.13,0,0,0,0-.08L86.85,37l0-.12v-.06a.08.08,0,0,1,0-.06l.07-.1A.47.47,0,0,1,87.24,36.45Z"/><path class="cls-4" d="M93.82,33.16,94,33.1l.16,0a.33.33,0,0,1,.23.06.18.18,0,0,1,.09.16.22.22,0,0,1-.08.18l-.06,0-.11,0-.2.09-.57.26c-.31.14-.46.32-.46.54a.21.21,0,0,0,.1.18l.06,0,.09,0,.2,0h.18l.07,0,.08,0,.09,0,.1,0a.28.28,0,0,1,.15,0l.09.11a.32.32,0,0,1,0,.15c0,.15-.17.26-.43.33l-.16,0-.16,0-.23,0L93,35.17l-.13,0-.12-.08a.65.65,0,0,1-.21-1l.13-.15.17-.17.14-.1.18-.12.32-.2Z"/><path class="cls-4" d="M93.82,36.45l.12,0h0l.07,0,0,0,.07.08,0,.12v.07a.34.34,0,0,1-.06.12l-.09.08-.28.21-.35.26-.34.22-.58.35-.24.11a2.84,2.84,0,0,1-.36.17l-.13.05-.15,0h-.19a.28.28,0,0,1-.12-.05.31.31,0,0,1-.11-.14V38a.4.4,0,0,1,.07-.19l.14-.14.09-.11.06-.08,0-.15v-.52a.9.9,0,0,1,0-.18s0,0,0-.05l.09,0,.16,0h.13a.19.19,0,0,1,.12.07.26.26,0,0,1,.11.24v.08l0,.08-.09.19-.07.26-.06.19.11,0,.13-.08.19-.11.25-.15.46-.3.1-.07.15-.15.27-.2Z"/></g><g class="cls-3"><path class="cls-4" d="M111,49.77h.12l.09,0,.26,0,.28.08.19.08a.44.44,0,0,1,.25.36v.13l-.07.12-.08.11-.19.16-.67.44-.61.32-.25.12-.24,0a.23.23,0,0,1-.17-.07l-.05-.09,0-.11,0-.11a.35.35,0,0,1,.09-.1l.21-.1.41-.18.53-.27.21-.11.16-.11,0-.07c0-.1-.13-.15-.4-.15l-.27,0-.32.11c-.23,0-.35-.09-.35-.28a.2.2,0,0,1,.06-.16.46.46,0,0,1,.18-.12l.32-.1Zm2.29,0a1.53,1.53,0,0,1,.44.07l.14,0,.09,0,.2.14a.4.4,0,0,1,.18.34l0,.08,0,.08-.1.12-.1.11-.1.11-.13.11-.37.29-.36.25-.32.19-.14,0-.16,0h-.12a.21.21,0,0,1-.09,0l0-.1a.15.15,0,0,0,0-.08.17.17,0,0,1,.07-.13l.11-.06.15-.07.22-.1.39-.22.29-.23.15-.13a.46.46,0,0,0,.07-.13.15.15,0,0,0-.1-.15h-.38l-.1,0-.12,0-.09,0h-.07l-.21,0-.08,0,0,0,0,0s0-.07,0-.13v-.08l0-.08.15-.1.1-.05.1,0a1.19,1.19,0,0,1,.23-.07l.17,0Z"/><path class="cls-4" d="M113.53,52.89h.16a.36.36,0,0,1,.15.17v.16a.18.18,0,0,1-.07.17l-.3.13.14.15a.42.42,0,0,1,.15.32v.15s0,0,0,.05a.06.06,0,0,1,0,0,.74.74,0,0,1-.4.53l-.22.12L113,55h-.37l-.19,0-.36-.09-.07,0-.23.2-.12.1-.14.11-.31.23-.13.08-.24.15-.22.13-.44.25-.09,0-.11,0-.18.1-.18,0a.44.44,0,0,1-.38-.22V56l0-.12a.2.2,0,0,1,.06-.16l.08-.07.07,0h.38a.66.66,0,0,0,.3-.07l.49-.27.18-.11L111,55l.19-.13.12-.13.1-.08.11-.11-.08-.14,0-.09v-.09a.36.36,0,0,1,.21-.23l.15,0h.11L112,54a.27.27,0,0,1,.13.15l0,.12,0,0,.12.08.14.06h.17l.12,0,.09,0a.67.67,0,0,0,.24-.16l.06-.09,0-.09a.27.27,0,0,0,0-.16l-.07-.08-.1-.06-.1-.07-.19-.09-.18-.13,0-.06,0-.09a.11.11,0,0,1,.06-.11l.17-.08H113l.11,0,.11-.07.1-.06.1-.05Z"/><path class="cls-4" d="M117.58,49.35a.2.2,0,0,1,.09-.05.15.15,0,0,1,.09,0c.17,0,.25.11.25.33a.17.17,0,0,1-.06.14,11.46,11.46,0,0,1-1,.69l-.47.25a4.43,4.43,0,0,1-.45.2l-.21.07a.27.27,0,0,1-.12,0,.41.41,0,0,1-.08-.12v-.16s0,0,0,0a.28.28,0,0,1,0-.12l0,0,.07,0a2.36,2.36,0,0,0,.77-.35A6.5,6.5,0,0,0,117.58,49.35Zm.51.9a.32.32,0,0,1,.17-.06c.17,0,.25.11.25.33,0,0,0,.06,0,.07s0,0,0,.06a9,9,0,0,1-1,.65,7.36,7.36,0,0,1-1,.49l-.13.05-.1,0a.21.21,0,0,1-.19-.14l0-.1,0-.11q0-.12.15-.18a6.54,6.54,0,0,0,.77-.4l.25-.15.36-.23Z"/><path class="cls-4" d="M117.63,53.12l.09-.06.1,0,.14,0a.11.11,0,0,1,.09.08l0,.11a.21.21,0,0,1,0,.13l-.12.11-.17.19-.11.08-.09.07-.67.41-.69.4-.34.17-.32.14-.34.13a1.06,1.06,0,0,1-.34.06.51.51,0,0,1-.29-.1l-.1-.08a.16.16,0,0,1,0-.06s0,0,0-.07v-.08a.35.35,0,0,1,0-.06.26.26,0,0,1,.15-.16l.13,0,.12,0,.21,0h.07a1.17,1.17,0,0,0,.52-.13l.37-.18.82-.47.59-.38Z"/><path class="cls-4" d="M122.26,56.91a.21.21,0,0,1,.21.13l0,.11v.07a.09.09,0,0,1,0,.07l-.09.1-.06,0-.12.06-.13.07-.24.22-.21.16-.38.24-.33.2-.2.11a1,1,0,0,1-.22.1l-.37.15-.13,0a.3.3,0,0,1-.2-.08.31.31,0,0,1-.08-.21v-.1a.16.16,0,0,1,0-.08l0,0,.18-.1.38-.17.32-.15.22-.1.2-.12.38-.24.22-.15.19-.15.22-.13A.24.24,0,0,1,122.26,56.91Z"/><path class="cls-4" d="M122.22,53.07l.12,0h0l.08,0,.05,0,.07.07,0,.12,0,.08a.28.28,0,0,1,0,.12l-.1.08-.27.21-.35.25-.35.23-.57.35-.24.11a2.68,2.68,0,0,1-.36.16l-.13.05a.53.53,0,0,1-.16,0h-.18a.17.17,0,0,1-.12-.06.23.23,0,0,1-.11-.14v-.11a.42.42,0,0,1,.08-.18l.13-.15.09-.1.06-.09,0-.14v-.52a.5.5,0,0,1,0-.19.11.11,0,0,1,0,0l.09-.05.16,0h.12a.24.24,0,0,1,.13.07.28.28,0,0,1,.11.25v.08l0,.08-.08.18-.07.27-.06.18.11,0,.13-.09.19-.1.25-.15.45-.3.1-.08.16-.14.27-.2Z"/></g><g class="cls-3"><path class="cls-4" d="M113,63.87h.08l.08,0a.32.32,0,0,1,.14.16l0,.16a.19.19,0,0,1-.08.18l-.3.12.15.15a.47.47,0,0,1,.14.33v.19a.08.08,0,0,1,0,0,.75.75,0,0,1-.4.53l-.22.12-.15.05-.19,0H112l-.2,0-.36-.09-.06,0-.24.2-.11.1-.15.11-.3.23-.14.08-.23.15-.22.13-.45.25-.09,0-.1,0-.19.1-.17,0a.43.43,0,0,1-.39-.22v0l0-.12a.19.19,0,0,1,.07-.17l.08-.06.06,0h.39a.62.62,0,0,0,.29-.07l.5-.26.17-.11.29-.19.18-.14.12-.12.1-.08.11-.12-.07-.14,0-.09,0-.09c0-.09.08-.16.2-.23l.16,0h.1l.14.07a.24.24,0,0,1,.14.14v.12l0,0,.13.08.14.06h.17l.11,0,.1,0a.56.56,0,0,0,.23-.15l.07-.1,0-.08a.25.25,0,0,0,0-.16l-.07-.09-.11-.06-.09-.06-.19-.09-.18-.13,0-.07,0-.09a.11.11,0,0,1,.06-.11l.17-.08h.31l.11-.05.1-.07.1-.06.11,0Z"/></g><g class="cls-3"><path class="cls-4" d="M113.56,60.67h.08l.07,0a.16.16,0,0,1,.06.09l0,.12V61c0,.15-.06.22-.19.22l-.36.07-.15.06-.11,0a.34.34,0,0,0-.12.06.35.35,0,0,0-.09.07l-.11.11-.1.13a.24.24,0,0,0,.09.14l.15.06h.67l.09,0a.22.22,0,0,1,.09.2.19.19,0,0,1-.15.2l-.2,0-.26,0h-.22l-.1,0-.28-.06a.49.49,0,0,1-.36-.2.89.89,0,0,1-.13-.45l-.06.07a.11.11,0,0,1-.09.07l-.07.08-.22.15-.34.22-.24.14-.2.12-.21.09-.19.07-.14,0h-.11c-.13,0-.19-.08-.19-.22v-.15a.24.24,0,0,1,.11-.09l.15-.05.18-.06a2.27,2.27,0,0,0,.76-.41l.15-.13.15-.14h-.82l-.08,0c-.1,0-.14-.11-.14-.24a.23.23,0,0,1,.2-.25l.22,0h.56a.82.82,0,0,1,.42.09.48.48,0,0,1,.09.13l.07.14.08.19.1-.1.06-.05,0,0,.08-.05.15-.14.24-.16.43-.28A.78.78,0,0,1,113.56,60.67Z"/></g><g class="cls-3"><path class="cls-4" d="M106.69,64.05l.16,0a.37.37,0,0,1,.24.14l.06.1a.18.18,0,0,0,.27,0l.11-.1.08-.07.08-.07.08,0H108l.07,0,.1,0,.05,0a.09.09,0,0,1,0,0l.06.14,0,.12,0,0h0a.63.63,0,0,0,.25-.07l.11-.08.11-.12.05,0,.07,0,.14-.08.12,0h.11a.08.08,0,0,1,.07,0l.07.08,0,.07a.36.36,0,0,1-.1.27l-.12.15s-.07.07-.15.11l-.16.09-.2.08-.2.06-.35.06A.59.59,0,0,1,108,65l-.11-.09-.11-.12h-.22l-.17,0a.35.35,0,0,0-.12.07l-.24.21-.36.3-.36.27-.1.08-.14.08-.16.1-.51.29-.4.22-.16.07-.18.06-.16,0h-.28l-.13,0a.33.33,0,0,1-.16-.32.25.25,0,0,1,.15-.23h.51a1,1,0,0,0,.35-.13l.35-.18.41-.22.38-.25.28-.22.07-.08,0-.08-.14-.26v-.18a.15.15,0,0,1,0-.07l.07-.09A.52.52,0,0,1,106.69,64.05Z"/></g><g class="cls-3"><path class="cls-4" d="M108.81,61.53c0,.43-.28.79-.84,1.09a1.21,1.21,0,0,1-.58.17q-.81,0-.81-.69a1.13,1.13,0,0,1,.47-.91,1.56,1.56,0,0,1,1-.38.85.85,0,0,1,.3,0,.56.56,0,0,1,.25.14A.68.68,0,0,1,108.81,61.53Zm-.51.08c0-.19-.14-.29-.41-.29a.75.75,0,0,0-.51.24.72.72,0,0,0-.24.52q0,.18.24.18h.13A.86.86,0,0,0,108,62C108.2,61.89,108.3,61.75,108.3,61.61Z"/></g><g class="cls-3"><path class="cls-4" d="M104.51,63.63l.1,0h.1a.17.17,0,0,1,.13.08.22.22,0,0,1,0,.08v.08a.44.44,0,0,1-.24.27l-.13.07.06,0,.15.09a.33.33,0,0,1,.12.11.16.16,0,0,1,0,.12.39.39,0,0,1-.18.28l-.53.25.14.08.16.1s0,.07,0,.16v.06a.13.13,0,0,1,0,.07l-.15.14-.3.23-.32.24-.26.19-.7.46-.25.16-.22.12-.07,0-.11,0-.29.12a1,1,0,0,1-.35.1l-.13,0-.08,0-.06,0a.15.15,0,0,1-.06-.09.46.46,0,0,1,0-.14c0-.14.1-.23.31-.28l.13,0,.1,0,.13,0,.11,0,.14,0,.18-.08.18-.11L103,66l.32-.21.45-.32-.25-.17a.28.28,0,0,1-.11-.21.16.16,0,0,1,0-.09.46.46,0,0,1,.12-.13l.21-.11.31-.15-.14-.09-.17-.1-.1,0,0,0,0-.08,0,0,0,0s0,0,0,0a.35.35,0,0,1,.11-.09l0,0,0,0a.44.44,0,0,0,.16-.06l.14-.05.13-.07.12-.08Z"/></g><g class="cls-3"><path class="cls-4" d="M105.42,61.16a.32.32,0,0,1,.17-.06c.17,0,.25.11.25.33v.07a.13.13,0,0,1,0,.06,8,8,0,0,1-1,.65,7.36,7.36,0,0,1-1,.49l-.13,0-.1,0a.24.24,0,0,1-.2-.16v-.2c0-.09.06-.14.16-.18a5.33,5.33,0,0,0,.76-.4l.26-.15.36-.23C105.14,61.36,105.29,61.25,105.42,61.16Z"/></g><g class="cls-3"><path class="cls-4" d="M99,64.05l.17,0a.37.37,0,0,1,.23.14l.07.1a.25.25,0,0,0,.14.08.21.21,0,0,0,.12,0l.11-.1.08-.07.09-.07.08,0h.19l.06,0,.1,0,.05,0,0,0,.06.14,0,.12,0,0h.06a.63.63,0,0,0,.25-.07l.11-.08.11-.12,0,0,.07,0,.15-.08.12,0h.11s.05,0,.07,0l.07.08,0,.07a.4.4,0,0,1-.09.27l-.13.15a.34.34,0,0,1-.14.11l-.17.09-.19.08L101,65l-.35.06a.57.57,0,0,1-.29-.07l-.11-.09-.12-.12h-.22l-.17,0a.41.41,0,0,0-.11.07l-.24.21-.36.3-.37.27-.1.08-.13.08-.16.1-.52.29-.4.22-.15.07-.19.06-.16,0h-.28l-.13,0a.33.33,0,0,1-.15-.32.25.25,0,0,1,.15-.23h.51a1,1,0,0,0,.35-.13l.35-.18.41-.22.37-.25.29-.22.06-.08a.13.13,0,0,0,0-.08l-.13-.26,0-.12v-.06a.14.14,0,0,1,0-.07l.07-.09A.47.47,0,0,1,99,64.05Z"/></g><g class="cls-3"><path class="cls-4" d="M100.27,60.72h.27l.09,0a1,1,0,0,1,.49.11.38.38,0,0,1,.18.33,1,1,0,0,1-.32.55l-.2.21-.25.21-.24.18a2.1,2.1,0,0,1-.3.15l-.45.19-.22.1h-.15s-.07,0-.13-.1l0-.06,0-.08a.31.31,0,0,1,0-.17.48.48,0,0,1,.19-.13l.19-.05.22-.07a1.9,1.9,0,0,0,1-.78l0,0,0,0-.17,0h-.39l-.07,0-.1,0-.08.05-.08,0h-.12a.22.22,0,0,1-.12,0l-.08-.12,0-.09a.21.21,0,0,1,.1-.2,1.94,1.94,0,0,1,.42-.17A2,2,0,0,1,100.27,60.72Z"/></g><g class="cls-3"><path class="cls-4" d="M142.26,74.88h.11l.1,0,.26,0L143,75l.19.08a.44.44,0,0,1,.26.36l0,.13-.07.12-.07.11-.2.15-.66.45-.62.32-.25.11-.23,0a.27.27,0,0,1-.18-.07l-.05-.09v-.11l0-.11s0-.06.08-.1l.22-.11.4-.17.53-.27.22-.11.16-.12,0-.07c0-.09-.14-.15-.4-.15l-.28,0-.32.11c-.23,0-.34-.1-.34-.28a.26.26,0,0,1,.05-.17l.18-.11.32-.1Zm2.29,0A1.59,1.59,0,0,1,145,75a.28.28,0,0,1,.13,0l.1,0,.19.13a.64.64,0,0,1,.14.15.4.4,0,0,1,0,.2l0,.07,0,.09-.1.12-.1.11-.1.11-.13.11-.36.29-.37.25-.32.18-.14,0-.16,0h-.11a.18.18,0,0,1-.1-.06l-.05-.1a.15.15,0,0,0,0-.07.18.18,0,0,1,.06-.13l.11-.06.16-.07.22-.11.38-.21.29-.23.16-.14s0-.06.06-.12a.14.14,0,0,0-.1-.15h-.37l-.11,0-.11.05-.09,0h-.08l-.2,0-.08,0,0,0s0,0,0,0a.33.33,0,0,1,0-.13v-.08a.22.22,0,0,1,.05-.08.56.56,0,0,1,.14-.1l.11,0,.09,0a1.05,1.05,0,0,1,.24-.06l.17,0Z"/><path class="cls-4" d="M144.79,78H145a.35.35,0,0,1,.14.17l0,.15a.19.19,0,0,1-.08.18l-.3.13.15.14a.49.49,0,0,1,.14.33v.15a.09.09,0,0,0,0,0,.17.17,0,0,1,0,.05.79.79,0,0,1-.4.53l-.22.11-.15,0-.19,0h-.19l-.19,0-.36-.08-.06,0-.24.2-.11.1-.15.11-.31.22-.13.09-.23.15-.22.13-.45.25-.09,0-.11,0-.18.1-.17,0a.44.44,0,0,1-.39-.21v-.06l0-.12a.21.21,0,0,1,.07-.17l.08-.06.06,0H141a.77.77,0,0,0,.29-.07l.5-.27.17-.11.29-.19.18-.13.12-.13.1-.08.11-.11-.07-.14,0-.09v-.09a.35.35,0,0,1,.2-.24l.16,0h.1l.14.06a.29.29,0,0,1,.14.15v.12l0,0,.13.09.13,0h.18l.11,0,.1,0a.74.74,0,0,0,.23-.16l.07-.09,0-.09a.27.27,0,0,0,0-.16l-.07-.08-.11-.07-.1-.06-.19-.09-.17-.13,0-.06,0-.1a.11.11,0,0,1,.06-.11l.16-.07h.31l.12-.05.1-.08.1,0,.11,0Z"/><path class="cls-4" d="M149.62,75.66c0,.43-.28.8-.84,1.1a1.34,1.34,0,0,1-.58.17c-.54,0-.81-.24-.81-.7a1.13,1.13,0,0,1,.47-.9,1.52,1.52,0,0,1,1-.39.85.85,0,0,1,.3,0,.68.68,0,0,1,.25.14A.7.7,0,0,1,149.62,75.66Zm-.51.08c0-.19-.14-.28-.41-.28a.75.75,0,0,0-.51.24.72.72,0,0,0-.24.51c0,.12.08.19.24.19h.13a.88.88,0,0,0,.49-.23A.58.58,0,0,0,149.11,75.74Z"/><path class="cls-4" d="M147.55,78.18l.16,0a.32.32,0,0,1,.24.13l.06.11a.26.26,0,0,0,.15.07.24.24,0,0,0,.12,0l.11-.1.08-.07.08-.07a.2.2,0,0,1,.08,0l.13,0h.06l.07,0,.1,0,0,0,0,0,0,.14.05.12,0,0,.05,0a.63.63,0,0,0,.25-.07l.11-.09.11-.11,0,0,.07,0,.14-.07.12,0h.11a.09.09,0,0,1,.08.06l.06.08,0,.07a.37.37,0,0,1-.09.26l-.13.15a.27.27,0,0,1-.15.11l-.16.09-.2.08-.19.06-.35.07a.61.61,0,0,1-.3-.08l-.11-.09-.11-.12h-.22a.42.42,0,0,0-.17,0,.23.23,0,0,0-.12.06l-.23.22-.37.29-.36.28-.1.07-.14.09-.15.1-.52.29-.4.22-.16.06-.18.07-.16,0h-.28l-.13,0a.31.31,0,0,1-.16-.31.25.25,0,0,1,.16-.24h.51a1.1,1.1,0,0,0,.34-.14l.36-.18.41-.22.37-.24.28-.23.07-.08s0,0,0-.08l-.13-.25,0-.12v-.07a.08.08,0,0,1,0-.06l.06-.1A.57.57,0,0,1,147.55,78.18Z"/><path class="cls-4" d="M154.41,75.29a.32.32,0,0,1,.17-.06c.17,0,.25.11.25.33v.08a.1.1,0,0,1,0,0,9.15,9.15,0,0,1-1,.66,8,8,0,0,1-1,.49l-.13,0-.1,0a.21.21,0,0,1-.19-.15l0-.09,0-.12a.18.18,0,0,1,.15-.17,6.47,6.47,0,0,0,.77-.41l.25-.14.37-.23Z"/><path class="cls-4" d="M154.29,79c0,.23-.22.5-.68.81l-.84.56-.35.22a3.28,3.28,0,0,1-1.26.55c-.3,0-.44-.11-.44-.34a.32.32,0,0,1,.15-.27.39.39,0,0,1,.22,0h0l.06,0,.07,0,0,0h.2l.14-.05.38-.2.15-.08.26-.16.14-.1c-.31-.14-.46-.32-.46-.53a.88.88,0,0,1,.33-.69l.16-.11.16-.12a1.55,1.55,0,0,1,.7-.18.94.94,0,0,1,.64.25A.48.48,0,0,1,154.29,79Zm-.57-.07c0-.07-.16-.11-.35-.11a.94.94,0,0,0-.52.25l-.08.08-.07.12,0,.1c0,.06,0,.11.12.17l.11,0,.08,0,.14,0,.24-.12c.25-.17.38-.3.38-.4A.14.14,0,0,0,153.72,78.91Z"/><path class="cls-4" d="M158.53,75.29a.27.27,0,0,1,.17-.06c.17,0,.25.11.25.33v.08a.08.08,0,0,1-.05,0,9.15,9.15,0,0,1-1,.66,8.7,8.7,0,0,1-1,.49l-.13,0-.1,0a.23.23,0,0,1-.2-.15v-.21c0-.08.05-.14.16-.17a6.69,6.69,0,0,0,.76-.41l.25-.14.37-.23C158.25,75.49,158.4,75.39,158.53,75.29Z"/><path class="cls-4" d="M154.92,80.76a.5.5,0,0,1-.31-.08.31.31,0,0,1-.1-.26v-.09a.15.15,0,0,1,.09-.14.48.48,0,0,1,.2-.07,1.7,1.7,0,0,0,.62-.14l.51-.29a1,1,0,0,0,.29-.15l.34-.24.15-.09.14-.12-.07-.06-.12-.14,0-.12v-.12a.79.79,0,0,1,0-.12l.09-.08a.4.4,0,0,1,.23-.09.86.86,0,0,1,.3.09l.09.06.12.07.35-.18.41-.23.22-.09a1.46,1.46,0,0,1,.43-.13.68.68,0,0,1,.2.06.26.26,0,0,1,.08.19v.07a.28.28,0,0,1-.08.12l-.15.1-.08,0-.24.11-.22.09-.34.1-.18.05.28.13.21.11.11.1,0,0v.06a.19.19,0,0,1,0,.07l0,.08a.16.16,0,0,1-.09.09l-.11.06H158l-.56-.29-.19.12-.2.15-.27.16-.38.24-.69.4-.28.15-.27.14-.14,0Z"/><path class="cls-4" d="M163.21,75.29a.27.27,0,0,1,.17-.06c.17,0,.25.11.25.33v.08a.08.08,0,0,1-.05,0,9.15,9.15,0,0,1-1,.66,8.7,8.7,0,0,1-1,.49l-.13,0-.1,0a.23.23,0,0,1-.2-.15v-.21c0-.08.05-.14.16-.17a6.69,6.69,0,0,0,.76-.41l.25-.14.37-.23C162.93,75.49,163.08,75.39,163.21,75.29Z"/><path class="cls-4" d="M163.28,78h.16a.32.32,0,0,1,.15.17v.15c0,.09,0,.15-.07.18l-.3.13.15.14a.49.49,0,0,1,.14.33v.2s0,0,0,.05a.73.73,0,0,1-.4.53l-.21.11-.15,0-.19,0h-.19l-.19,0-.36-.08-.07,0-.23.2-.12.1-.14.11-.31.22-.13.09-.24.15-.22.13-.44.25-.09,0-.11,0-.18.1-.18,0a.43.43,0,0,1-.38-.21v-.06l0-.12a.24.24,0,0,1,.06-.17l.09-.06.06,0h.39a.82.82,0,0,0,.29-.07l.49-.27.18-.11.28-.19.19-.13.12-.13.1-.08.11-.11-.07-.14,0-.09,0-.09a.35.35,0,0,1,.2-.24l.16,0h.1l.14.06a.23.23,0,0,1,.13.15l0,.12,0,0,.13.09.13,0h.18l.11,0,.09,0a.67.67,0,0,0,.24-.16l.07-.09,0-.09a.38.38,0,0,0,0-.16l-.08-.08-.1-.07-.1-.06-.19-.09-.18-.13,0-.06,0-.1a.13.13,0,0,1,.05-.11l.17-.07h.31l.12-.05.1-.08.1,0,.1,0Z"/></g><g class="cls-3"><path class="cls-4" d="M108.09,97.81h.14l.08,0s0,0,.09,0a.48.48,0,0,1,.22.29l0,.16,0,.12s0,.07,0,.08l0,.13-.07.24-.08.22-.07.17-.1.19a.93.93,0,0,1-.28.34l-.12,0h-.14l-.07,0-.11-.08,0-.11c0-.05,0-.08,0-.1l0-.08.11-.14.11-.17.19-.34.06-.19s0,0,0,0,0,0,0,0l0,0a.34.34,0,0,0-.2.08l-.17.15-.37.31-.73.56-.26.19-.3.18-.22.12-.2.07h-.14l-.14,0-.08,0a.2.2,0,0,1-.09-.2v-.1a.19.19,0,0,1,0-.08l0-.09s.06-.07.15-.11l.19,0h.16l.11,0,.24-.12.36-.24.17-.13.18-.14.23-.2.23-.2.22-.21.24-.2A.63.63,0,0,1,108.09,97.81Z"/></g><g class="cls-3"><path class="cls-4" d="M106.93,94.62a.3.3,0,0,1,.15-.05c.1,0,.16.07.19.21v.1l-.54.4a1.75,1.75,0,0,0-.39.31.37.37,0,0,0-.12.23c0,.12.1.19.25.19h.11a.52.52,0,0,0,.43-.16.2.2,0,0,1,.19-.09c.13,0,.21.11.24.32s-.12.32-.38.36l-.16,0h-.25c-.7,0-1-.2-1-.61a.85.85,0,0,1,.35-.56l.23-.18.22-.17Zm2.23,0,.1,0,.09,0c.12,0,.19.07.23.21v.06a.21.21,0,0,1-.08.17l-.57.31c-.38.22-.57.36-.57.44v.09q0,.18.42.18a.54.54,0,0,0,.38-.12l.12-.08.08,0a.3.3,0,0,1,.19.09.26.26,0,0,1,.09.19.31.31,0,0,1-.14.24l-.13.07-.15.06-.25,0h-.33c-.6,0-.89-.17-.89-.53l0-.15a1.76,1.76,0,0,1,.69-.73A6.53,6.53,0,0,1,109.16,94.62Z"/></g><g class="cls-3"><path class="cls-4" d="M105.24,97.51h.09l.07,0a.25.25,0,0,1,.14.16l0,.16a.22.22,0,0,1-.07.18l-.3.13.14.14a.47.47,0,0,1,.14.33v.14a.11.11,0,0,0,0,0,.08.08,0,0,1,0,.05.75.75,0,0,1-.4.53l-.22.12-.15,0-.19,0h-.18l-.19,0-.37-.09-.06,0-.24.2-.11.11-.14.1-.31.23-.14.08-.23.15-.22.13-.45.25-.09,0-.1,0-.19.1-.17,0a.4.4,0,0,1-.38-.22l0,0,0-.12a.22.22,0,0,1,.07-.17l.08-.06.06,0h.39a.62.62,0,0,0,.29-.07l.5-.26.17-.11.29-.19.18-.14.12-.12.1-.08.11-.12-.07-.14,0-.09v-.09a.35.35,0,0,1,.21-.23l.15,0h.1l.14.07a.24.24,0,0,1,.14.14v.12l0,0,.13.08.14.06h.17l.11,0,.1,0a.59.59,0,0,0,.24-.15l.06-.1,0-.08a.25.25,0,0,0,0-.16l-.07-.09-.11-.06-.09-.06-.19-.09-.18-.13,0-.07,0-.09a.11.11,0,0,1,.06-.11l.17-.08h.31l.11-.05.1-.07.1-.06.11,0Z"/></g><g class="cls-3"><path class="cls-4" d="M105.44,94.8a.29.29,0,0,1,.17-.06c.17,0,.25.11.25.33v.08a.23.23,0,0,1,0,0,8.11,8.11,0,0,1-1,.65,6.69,6.69,0,0,1-1,.49l-.13,0-.1,0c-.08,0-.15,0-.2-.16v-.2c0-.08.06-.14.16-.18a4.39,4.39,0,0,0,.76-.4l.25-.15.37-.22Z"/></g><g class="cls-3"><path class="cls-4" d="M101.39,97.27l.1,0h.11a.19.19,0,0,1,.13.08.22.22,0,0,1,0,.08v.08a.39.39,0,0,1-.24.27l-.13.07.06,0,.16.09a.65.65,0,0,1,.12.11.21.21,0,0,1,0,.12c0,.09-.07.18-.19.28l-.53.25.15.08.15.1a1.12,1.12,0,0,1,0,.16v.06a.13.13,0,0,1,0,.07l-.14.14-.3.23-.33.24-.26.19-.69.46-.25.16-.22.12-.08,0-.1,0-.29.12a1,1,0,0,1-.35.1l-.14,0-.08,0s0,0-.05,0a.15.15,0,0,1-.06-.09,1.06,1.06,0,0,1,0-.14c0-.13.1-.23.31-.27l.14,0,.1,0,.12,0,.12,0,.13,0,.18-.08.18-.11.66-.41.32-.21.44-.32-.25-.17a.26.26,0,0,1-.1-.21.16.16,0,0,1,0-.09.46.46,0,0,1,.12-.13l.2-.11.31-.15-.14-.08-.17-.1-.09-.06,0,0,0-.08v-.08l0,0,.11-.09h0l0,0a.49.49,0,0,0,.17-.06l.13,0,.13-.06.12-.09Z"/></g><g class="cls-3"><path class="cls-4" d="M101.42,94.36h.27l.09,0a1,1,0,0,1,.5.11.37.37,0,0,1,.17.33.89.89,0,0,1-.32.55l-.19.21-.25.21a1.8,1.8,0,0,1-.25.18,1.59,1.59,0,0,1-.29.15l-.45.19-.22.1-.16,0a.28.28,0,0,1-.12-.1l0-.07,0-.08a.25.25,0,0,1,.05-.17.44.44,0,0,1,.18-.13l.19,0,.23-.07.23-.1a1.15,1.15,0,0,0,.74-.68l0,0,0,0-.17,0h-.39l-.07,0-.11,0-.08,0-.08,0h-.11a.22.22,0,0,1-.12,0l-.09-.12,0-.09a.22.22,0,0,1,.11-.2,1.8,1.8,0,0,1,.89-.23Z"/></g><g class="cls-3"><path class="cls-4" d="M98.59,97.64c.23,0,.35.07.35.21a.51.51,0,0,1-.13.33l-.13.13-.17.11-.16.06-.22.06-.3,0H97.2l0,.08-.12.12-.22.23-.16.13-.18.13-.53.36-.31.2-.21.11-.15.08-.29.13-.14.06a1.14,1.14,0,0,1-.26,0l-.06,0-.09,0-.07,0-.08-.07a.25.25,0,0,1-.09-.13l0-.09v-.1a.41.41,0,0,1,.1-.21.28.28,0,0,1,.1,0h.17a.32.32,0,0,1,.13,0l.13,0,.12,0,.14,0,.38-.17.2-.11.19-.11a2.86,2.86,0,0,0,.51-.38l.1-.1,0-.1,0-.07a.21.21,0,0,1-.07-.14.54.54,0,0,1,.16-.39.62.62,0,0,1,.4-.17.55.55,0,0,1,.25.11c.11.07.16.14.16.21h.29a.79.79,0,0,0,.3-.07,2.61,2.61,0,0,0,.38-.22l.08-.06.08,0A.3.3,0,0,1,98.59,97.64Z"/></g><g class="cls-3"><path class="cls-4" d="M98.78,101.53a.2.2,0,0,1,.2.13l0,.11v.07a.09.09,0,0,1,0,.08l-.08.1-.06,0-.12.06-.14.06-.23.22-.22.16-.37.24-.34.2-.19.11-.22.11-.37.14-.14,0a.28.28,0,0,1-.2-.09.35.35,0,0,1-.07-.21V103a.13.13,0,0,1,0-.07l0,0,.18-.09.39-.17.31-.16.22-.1.2-.11L98,102l.21-.14.2-.16.21-.12A.3.3,0,0,1,98.78,101.53Z"/></g><g class="cls-3"><path class="cls-4" d="M42.49,141.9h.12l.09,0L43,142l.28.07.19.09a.43.43,0,0,1,.25.36l0,.13-.06.12-.08.11-.19.15-.67.45-.61.32-.26.11-.23.05a.27.27,0,0,1-.18-.07l-.05-.09v-.11l0-.11a.24.24,0,0,1,.09-.1l.21-.11.41-.17.53-.27.21-.11.16-.12,0-.07c0-.09-.13-.15-.4-.15l-.27,0-.32.11c-.23,0-.35-.1-.35-.28a.22.22,0,0,1,.06-.17.46.46,0,0,1,.18-.11l.31-.1Zm2.29,0a1.53,1.53,0,0,1,.44.07.25.25,0,0,1,.13,0l.1,0,.2.13a.58.58,0,0,1,.13.15.39.39,0,0,1,0,.2l0,.07,0,.09-.1.12-.1.11-.09.11-.13.11-.37.29-.36.25-.33.18-.14,0L44,144h-.12s0,0-.09-.06l-.05-.1a.14.14,0,0,0,0-.07.16.16,0,0,1,.07-.13l.11-.06.15-.07.22-.11.38-.21.3-.23.15-.14s0-.06.06-.12a.14.14,0,0,0-.1-.15h-.37l-.1,0-.12.05-.09,0h-.08l-.2,0-.08,0,0,0,0,0,0-.13v-.08a.22.22,0,0,1,0-.08l.15-.1.1-.05.1,0,.23-.06.17,0Z"/><path class="cls-4" d="M45,145h.16a.32.32,0,0,1,.15.17v.15c0,.09,0,.15-.07.18l-.3.13.14.14a.45.45,0,0,1,.14.33v.15s0,0,0,.05l0,0a.76.76,0,0,1-.4.53l-.22.11-.15.05-.18,0h-.19l-.19,0-.37-.08-.06,0-.24.2-.11.1-.14.11-.31.22-.13.09-.24.15-.22.13-.44.25-.1,0-.1.05-.18.09-.18,0a.42.42,0,0,1-.38-.21l0-.06,0-.12a.24.24,0,0,1,.06-.17l.08-.06.07,0h.38a.73.73,0,0,0,.29-.07l.5-.27.17-.11.29-.19.19-.13.12-.13.1-.08.1-.11-.07-.14,0-.09v-.09a.39.39,0,0,1,.21-.24l.15,0h.11l.13.06a.25.25,0,0,1,.14.15v.12l0,0,.12.09.14,0h.17l.12,0,.09,0a.67.67,0,0,0,.24-.16l.06-.09,0-.09a.25.25,0,0,0,0-.16l-.07-.08-.1-.07-.1-.06-.19-.09-.18-.13,0-.07,0-.09a.11.11,0,0,1,.06-.11l.17-.07h.31l.11-.05.11-.08.1-.05.1,0Z"/><path class="cls-4" d="M49.07,141.49a.24.24,0,0,1,.09-.06h.09c.16,0,.25.11.25.33a.17.17,0,0,1-.06.14c-.35.25-.69.48-1,.69l-.46.25-.45.2-.22.07a.19.19,0,0,1-.11,0,.35.35,0,0,1-.08-.11l0-.06v-.1a.07.07,0,0,1,0,0,.28.28,0,0,1,.05-.12s0-.05,0-.05l.07,0a2.63,2.63,0,0,0,.77-.35A6.5,6.5,0,0,0,49.07,141.49Zm.51.9a.25.25,0,0,1,.17-.07c.17,0,.25.11.25.33a.17.17,0,0,1,0,.08.13.13,0,0,1-.05.06,10.83,10.83,0,0,1-1,.65,8.7,8.7,0,0,1-1,.49l-.13,0-.1,0a.23.23,0,0,1-.2-.15v-.2q0-.12.15-.18a4.7,4.7,0,0,0,.77-.41,2,2,0,0,0,.25-.14l.37-.23Z"/><path class="cls-4" d="M49.92,146v.22l0,.11a.12.12,0,0,1,0,.09l-.13.18-.06.08a.78.78,0,0,1-.65.24h-.13l-.09,0-.08,0-.08,0-.15-.1-.16-.12-.14-.19,0,0a.54.54,0,0,0-.15.08l-.15.13-.19.2.19.08.13.07a.36.36,0,0,1,.17.57.84.84,0,0,1-.25.26,1.81,1.81,0,0,1-.25.14l-.16.07-.33.12-.13,0-.31.07h-.14l-.09,0-.1,0-.13-.06s0,0-.07-.06l0-.2a.45.45,0,0,1,0-.21l.08,0,.11,0h.21l.29.08h.22a.49.49,0,0,0,.38-.13l.08-.1,0-.11q0-.12-.24-.21l-.2-.07c-.11,0-.17-.12-.17-.27a.54.54,0,0,1,.13-.23l.44-.42.17-.14.25-.16.33-.19a2.05,2.05,0,0,1,1-.28l.16,0a.54.54,0,0,1,.3.24l.09.13a.75.75,0,0,1,0,.16Zm-.53.12a.23.23,0,0,0-.23-.25h-.1a.47.47,0,0,0-.17,0,.7.7,0,0,0-.19.1l-.07.06-.07.06.16.17.14.08h.07l.13,0a.46.46,0,0,0,.2,0l.07,0,0-.07Z"/><path class="cls-4" d="M54.15,149.05a.21.21,0,0,1,.21.13l0,.1v.08a.09.09,0,0,1,0,.07l-.08.1-.06,0-.13.06-.13.06-.24.23-.21.15-.38.24-.33.2-.19.11-.22.11-.37.14-.14,0a.28.28,0,0,1-.2-.09.37.37,0,0,1-.08-.21l0-.1a.16.16,0,0,1,0-.07l0,0,.18-.09.38-.17.32-.15.22-.1.2-.12.38-.24.22-.15.2-.16.21-.12A.28.28,0,0,1,54.15,149.05Z"/><path class="cls-4" d="M53.74,145.26l.1-.06.09,0,.15,0a.16.16,0,0,1,.09.09l0,.11a.23.23,0,0,1,0,.13l-.13.11-.17.18-.11.09-.08.06-.67.42-.7.39L52,147l-.33.13-.34.14a1,1,0,0,1-.33.05.52.52,0,0,1-.29-.09l-.11-.08a.14.14,0,0,1,0-.06s0-.05,0-.07v-.08a.15.15,0,0,1,0-.07.23.23,0,0,1,.14-.15l.13-.05.12,0,.21,0h.08a1.21,1.21,0,0,0,.52-.13l.36-.18.83-.47.59-.39Z"/></g><g class="cls-3"><path class="cls-4" d="M23,134.53v.22l0,.11a.14.14,0,0,1,0,.09l-.13.19-.06.07a.8.8,0,0,1-.65.24h-.13l-.1,0-.07,0-.08,0-.16-.1-.15-.13-.15-.18,0-.05A.54.54,0,0,0,21,135l-.15.13-.19.21.19.07.13.07a.41.41,0,0,1,.24.33.45.45,0,0,1-.07.25,1.16,1.16,0,0,1-.25.25,1.3,1.3,0,0,1-.26.14l-.16.07-.32.12-.13,0-.32.07h-.13l-.1,0-.1,0-.12,0-.07-.07,0-.2a.51.51,0,0,1,0-.21l.07,0,.11,0h.21l.3.07.22,0a.51.51,0,0,0,.38-.14l.07-.09,0-.11c0-.09-.08-.16-.24-.22l-.2-.06a.25.25,0,0,1-.17-.28.61.61,0,0,1,.13-.23l.43-.41.18-.14.24-.17.33-.18a2,2,0,0,1,1-.29l.17,0a.5.5,0,0,1,.29.23l.09.14a.34.34,0,0,1,.06.15Zm-.53.13a.25.25,0,0,0-.23-.26h-.1l-.18,0a.85.85,0,0,0-.18.1l-.08.06-.06.07.15.16.15.08.07,0h.12a.46.46,0,0,0,.21,0l.07,0,0-.07Z"/></g><g class="cls-3"><path class="cls-4" d="M22.26,130.4h.36a.88.88,0,0,1,.5.12.36.36,0,0,1,.17.32.91.91,0,0,1-.32.56l-.19.21-.25.21a1.8,1.8,0,0,1-.25.18l-.29.15-.45.18-.22.11h-.16s-.07,0-.12-.1l0-.07,0-.08a.22.22,0,0,1,.05-.16.44.44,0,0,1,.18-.13l.2-.05.22-.08a1,1,0,0,0,.23-.09,1.14,1.14,0,0,0,.74-.69l0,0-.05,0-.17,0h-.39l-.07,0-.11.05-.08,0-.08,0h-.11a.33.33,0,0,1-.12,0l-.08-.12,0-.1a.21.21,0,0,1,.11-.19,2.65,2.65,0,0,1,.42-.18A2,2,0,0,1,22.26,130.4Z"/></g><g class="cls-3"><path class="cls-4" d="M18.31,133.74a.47.47,0,0,1,.33.09.17.17,0,0,1,.07.14v.1l-.08.07-.06,0-.1.06a.38.38,0,0,0-.05.14.25.25,0,0,0,.1.23l.12.08.06,0h.08l.13,0a.59.59,0,0,0,.11-.08l.09-.08.11-.07.19,0h.08a.4.4,0,0,1,.13.11l0,.06v.08a.35.35,0,0,1-.08.15l-.12.1-.15.09-.18.13-.53.34-.6.35-.33.19-.28.13-.26.13-.32.13-.23.07c-.25,0-.38-.1-.38-.31a.4.4,0,0,1,.07-.21.22.22,0,0,1,.07-.09.11.11,0,0,1,.08,0l.09,0,.13,0,.14,0a2.24,2.24,0,0,0,.33-.14l.61-.31.3-.17.38-.25c0-.05,0-.07,0-.08h-.09l-.15-.05a.43.43,0,0,1-.22-.14l0-.06,0-.11,0-.17v-.07a.14.14,0,0,1,0-.07l.08-.19a.47.47,0,0,1,.18-.24l.06-.05.08,0Z"/></g><g class="cls-3"><path class="cls-4" d="M19.52,130l.09-.05a.16.16,0,0,1,.1,0q.24,0,.24.33a.17.17,0,0,1-.06.14,10.18,10.18,0,0,1-1,.69c-.16.09-.31.18-.46.25l-.45.2-.22.07a.27.27,0,0,1-.12,0,.81.81,0,0,1-.08-.12v-.16s0,0,0,0a.28.28,0,0,1,0-.12s0,0,0-.05l.07,0a2.37,2.37,0,0,0,.78-.35A6.81,6.81,0,0,0,19.52,130Zm.51.9a.32.32,0,0,1,.18-.06c.16,0,.25.11.25.33a.56.56,0,0,1,0,.07l-.05.06a9,9,0,0,1-1,.65,6.79,6.79,0,0,1-1,.49l-.13,0-.1,0c-.08,0-.14-.06-.19-.15l0-.1,0-.11q0-.12.15-.18a5.8,5.8,0,0,0,.77-.4l.25-.15c.13-.07.25-.15.37-.23Z"/></g><g class="cls-3"><path class="cls-4" d="M16.44,133.56h.16a.3.3,0,0,1,.14.17l0,.16a.19.19,0,0,1-.08.17l-.3.13.15.15a.45.45,0,0,1,.14.32v.15a.11.11,0,0,0,0,.05s0,0,0,0a.77.77,0,0,1-.4.53l-.22.12-.15.05H15.5l-.19,0-.37-.09-.06,0-.24.2-.11.1-.14.11-.31.23-.14.08-.23.15-.22.13-.45.25-.09,0-.1.05-.19.1-.17,0a.42.42,0,0,1-.38-.22l0-.06,0-.12a.18.18,0,0,1,.07-.16l.08-.07.06,0h.39a.62.62,0,0,0,.29-.07l.5-.27.17-.11.29-.19.18-.13.12-.13.1-.07.11-.12-.07-.14,0-.09v-.09a.33.33,0,0,1,.21-.23l.15,0h.1l.14.06a.29.29,0,0,1,.14.15V135l0,0,.13.08.14.06h.17l.11,0,.1,0a1.14,1.14,0,0,0,.24-.15l.06-.1,0-.09a.27.27,0,0,0,0-.16l-.07-.08-.11-.06-.09-.07-.19-.09-.18-.13,0-.06,0-.09a.11.11,0,0,1,.06-.11l.17-.08h.31l.11-.05.11-.07.1-.06.1,0Z"/></g><g class="cls-3"><path class="cls-4" d="M14.16,130.44h.12a.14.14,0,0,1,.09,0l.27,0,.27.08.19.08a.45.45,0,0,1,.26.36l0,.13-.07.12-.08.11-.19.16-.66.44-.62.32-.25.12-.23,0a.26.26,0,0,1-.18-.07L13,132.3l0-.11,0-.11s0-.05.08-.1l.22-.1.4-.18.53-.27.22-.11.15-.11,0-.07c0-.1-.14-.15-.4-.15L14,131l-.32.11c-.23,0-.34-.09-.34-.28a.23.23,0,0,1,0-.16.7.7,0,0,1,.18-.12l.32-.1Zm2.29,0a1.6,1.6,0,0,1,.45.07l.13,0,.09,0,.2.14a.47.47,0,0,1,.14.14.42.42,0,0,1,0,.2l0,.08,0,.08-.1.12-.1.11-.1.11-.13.11-.36.29-.37.25-.32.19-.14,0-.16,0h-.12a.21.21,0,0,1-.09-.05l0-.1s0-.06,0-.08a.19.19,0,0,1,.06-.13l.11-.06.15-.07.23-.1.38-.22.29-.23.16-.13a.31.31,0,0,0,.06-.13.14.14,0,0,0-.1-.15h-.37l-.11,0-.11,0-.09,0H16l-.2,0-.08,0,0,0a.1.1,0,0,0-.05,0,.63.63,0,0,1,0-.13v-.07a.26.26,0,0,1,0-.09l.14-.1.11-.05.09,0a1.09,1.09,0,0,1,.24-.07l.17,0Z"/></g><g class="cls-3"><path class="cls-4" d="M59.38,158.23l.1,0h.1a.24.24,0,0,1,.14.09l0,.08v.07a.41.41,0,0,1-.24.28l-.13.07.06,0,.15.08a.34.34,0,0,1,.12.12.16.16,0,0,1,0,.12.39.39,0,0,1-.18.28l-.53.25.15.08.15.1a.62.62,0,0,1,0,.16v.06a.13.13,0,0,1,0,.07l-.14.14-.3.23-.33.24-.26.18-.7.47a1.66,1.66,0,0,1-.25.16l-.22.12-.07,0-.11.06-.29.12a.9.9,0,0,1-.35.1.31.31,0,0,1-.13,0l-.08,0-.06,0a.19.19,0,0,1,0-.09.42.42,0,0,1,0-.14c0-.14.1-.23.31-.28l.14,0a.19.19,0,0,0,.1,0l.12,0,.11,0a.38.38,0,0,0,.14,0l.18-.08.18-.1.65-.41.32-.21.45-.32-.25-.17a.28.28,0,0,1-.11-.21.16.16,0,0,1,0-.09.64.64,0,0,1,.12-.14l.21-.1.31-.15-.14-.09-.17-.1-.09,0,0-.05,0-.08v-.09l0,0,.11-.09,0,0,0,0a.49.49,0,0,0,.17-.06l.13-.05.13-.07.12-.08Z"/></g><g class="cls-3"><path class="cls-4" d="M59.41,155.32h.36a.84.84,0,0,1,.49.12.38.38,0,0,1,.18.33,1,1,0,0,1-.32.55l-.19.21-.26.21-.24.18a1.4,1.4,0,0,1-.3.15l-.44.19-.23.1h-.15s-.07,0-.12-.1l0-.07,0-.08a.23.23,0,0,1,.06-.16.38.38,0,0,1,.18-.13l.19-.05.22-.07.24-.1a1.13,1.13,0,0,0,.73-.68l0,0,0,0-.17,0h-.38l-.08,0-.1.05-.08,0-.08,0h-.12a.22.22,0,0,1-.12,0l-.08-.12,0-.1a.21.21,0,0,1,.1-.19,2.77,2.77,0,0,1,.43-.18A2.42,2.42,0,0,1,59.41,155.32Z"/></g><g class="cls-3"><path class="cls-4" d="M55.48,158.65a.5.5,0,0,1,.33.09.21.21,0,0,1,.07.14V159l-.07.06-.07,0-.09,0a.26.26,0,0,0-.06.15.24.24,0,0,0,.11.22l.12.09.05,0,.08,0,.13,0a.28.28,0,0,0,.11-.08l.09-.08.12-.07.19,0h.08a.34.34,0,0,1,.12.12l0,.05v.09a.44.44,0,0,1-.09.15l-.12.09-.14.09-.18.13-.54.34-.6.36-.33.18-.28.14-.25.12-.32.13-.24.07c-.25,0-.37-.1-.37-.31a.48.48,0,0,1,.06-.21l.07-.09a.12.12,0,0,1,.08,0l.1,0,.12,0,.14,0a1.46,1.46,0,0,0,.33-.14l.61-.31.3-.17.39-.25a.08.08,0,0,0,0-.08h-.08l-.16-.05a.42.42,0,0,1-.21-.14l-.05-.06,0-.11,0-.17v-.07a.15.15,0,0,1,0-.07l.08-.19a.83.83,0,0,1,.18-.24l.06-.05.08,0Z"/></g><g class="cls-3"><path class="cls-4" d="M57.38,155.76a.32.32,0,0,1,.18-.06c.16,0,.25.1.25.33l0,.07s0,0,0,.06a9,9,0,0,1-1,.65,6.79,6.79,0,0,1-1,.49l-.13,0-.1,0c-.08,0-.14-.05-.19-.15V157c0-.08.05-.13.16-.17a6,6,0,0,0,.76-.4l.25-.15.37-.23Z"/></g><g class="cls-3"><path class="cls-4" d="M53.79,158.47h.09l.07,0a.3.3,0,0,1,.15.16v.16A.22.22,0,0,1,54,159l-.3.12.14.15a.45.45,0,0,1,.14.33v.14a.11.11,0,0,0,0,.05s0,0,0,.05a.77.77,0,0,1-.4.53l-.22.12-.15.05-.19,0h-.18l-.19,0-.37-.09-.06,0-.24.2-.11.1-.14.11-.31.23-.13.08-.24.15-.22.13-.45.25-.09,0-.1.05-.18.1-.18,0a.4.4,0,0,1-.38-.22l0-.05,0-.12a.21.21,0,0,1,.07-.17l.08-.07.06,0H50a.59.59,0,0,0,.29-.07l.5-.27.17-.1.29-.19.19-.14.11-.12.1-.08.11-.12L51.7,160l0-.09v-.09a.38.38,0,0,1,.21-.23l.15,0h.11l.13.07a.22.22,0,0,1,.14.14v.12l0,0,.13.08.14.06h.17l.11,0,.1,0a.59.59,0,0,0,.24-.15l.06-.1,0-.08a.25.25,0,0,0,0-.16l-.07-.09-.11-.06-.09-.06-.19-.1-.18-.12,0-.07,0-.09a.11.11,0,0,1,.06-.11l.17-.08h.31l.11-.05.11-.07.1-.06.1,0Z"/></g><g class="cls-3"><path class="cls-4" d="M51.52,155.35h.11l.1,0,.26,0,.27.08.19.09a.42.42,0,0,1,.26.36l0,.13-.07.12-.07.1-.2.16-.66.44-.62.32-.25.12-.23,0a.27.27,0,0,1-.18-.07l0-.09v-.11l0-.1s0-.06.08-.11l.22-.1.4-.18.53-.26.22-.12.16-.11,0-.07c0-.1-.14-.15-.4-.15l-.28,0L51,156c-.23,0-.34-.09-.34-.28a.25.25,0,0,1,0-.16.5.5,0,0,1,.18-.11l.32-.11Zm2.29,0a1.59,1.59,0,0,1,.44.07l.13,0,.1.05.19.13a.47.47,0,0,1,.14.14.42.42,0,0,1,0,.2l0,.08,0,.08-.1.12-.1.11-.1.11-.13.11-.36.29-.37.25-.32.19-.14,0-.16,0h-.11a.15.15,0,0,1-.1,0l0-.1a.19.19,0,0,0,0-.08.22.22,0,0,1,.06-.13l.11-.06.16-.07.22-.1.38-.21.29-.23.16-.14a.31.31,0,0,0,.06-.13.12.12,0,0,0-.1-.14l-.23,0H53.7l-.11,0-.11,0-.09,0-.08,0-.2,0L53,156l0,0,0,0a.24.24,0,0,1,0-.13v-.07a.22.22,0,0,1,0-.08.57.57,0,0,1,.14-.11l.11-.05.09,0,.24-.07.17,0Z"/></g><g class="cls-3"><path class="cls-4" d="M82.77,156.86h.12l.09,0,.26,0,.28.08.19.09a.41.41,0,0,1,.25.36l0,.13-.07.12-.07.1-.19.16-.67.44-.61.33-.26.11-.23,0a.29.29,0,0,1-.18-.08l0-.08v-.11l0-.11s0-.06.09-.11l.21-.1.41-.18.53-.26.21-.12.16-.11,0-.07c0-.1-.13-.15-.4-.15l-.27,0-.33.11c-.22,0-.34-.09-.34-.28a.21.21,0,0,1,.06-.16.38.38,0,0,1,.17-.11l.32-.11Zm2.29,0a1.59,1.59,0,0,1,.44.07.4.4,0,0,1,.13,0l.1,0,.19.13a.33.33,0,0,1,.14.15.39.39,0,0,1,0,.2l0,.07,0,.08-.1.12-.1.12-.09.11-.14.1-.36.3-.36.24-.33.19-.14,0h-.27s0,0-.1-.06l-.05-.1a.19.19,0,0,0,0-.08.17.17,0,0,1,.06-.12l.12-.06.15-.08.22-.1.38-.21.29-.23.16-.14a.31.31,0,0,0,.06-.13.13.13,0,0,0-.1-.14l-.22,0H85l-.1,0-.12.05-.09,0-.08,0-.2,0-.08,0,0,0a.1.1,0,0,1,0,0,.4.4,0,0,1,0-.12v-.08a.22.22,0,0,1,0-.08,1,1,0,0,1,.15-.11l.1,0,.1,0,.23-.07.17,0Z"/><path class="cls-4" d="M85.3,160h.09l.07,0a.25.25,0,0,1,.14.16l0,.16a.22.22,0,0,1-.07.18l-.3.13.14.14a.47.47,0,0,1,.14.33v.14a.11.11,0,0,0,0,0,.08.08,0,0,1,0,.05.72.72,0,0,1-.4.53l-.22.12-.15,0-.18,0h-.19l-.19,0L83.8,162l-.06,0-.24.2-.11.1-.14.11-.31.23-.13.08-.24.15-.22.13-.45.25-.09,0-.1.05-.18.1-.18,0a.41.41,0,0,1-.38-.22l0,0,0-.12a.22.22,0,0,1,.06-.17l.08-.06.07,0h.38a.59.59,0,0,0,.29-.07l.5-.26.17-.11.29-.19L83,162l.11-.12.1-.08.11-.12-.07-.14,0-.09v-.09a.35.35,0,0,1,.21-.23l.15,0h.11l.13.07a.24.24,0,0,1,.14.14v.12l0,0,.13.08.14.06h.17l.12,0,.09,0a.59.59,0,0,0,.24-.15l.06-.1,0-.08a.25.25,0,0,0,0-.16l-.07-.09-.11-.06-.09-.06-.19-.09-.18-.13,0-.07,0-.09a.11.11,0,0,1,.06-.11l.17-.08h.31l.11,0,.11-.07.1-.06.1,0Z"/><path class="cls-4" d="M90.13,157.64c0,.43-.28.79-.84,1.09a1.18,1.18,0,0,1-.57.17c-.55,0-.82-.23-.82-.69a1.13,1.13,0,0,1,.47-.9,1.52,1.52,0,0,1,1-.39,1,1,0,0,1,.31.05.58.58,0,0,1,.24.14A.65.65,0,0,1,90.13,157.64Zm-.51.08c0-.19-.13-.29-.4-.29a.72.72,0,0,0-.51.24.7.7,0,0,0-.25.52c0,.12.08.18.25.18h.12a.91.91,0,0,0,.5-.22C89.52,158,89.62,157.86,89.62,157.72Z"/><path class="cls-4" d="M88.06,160.16l.17,0a.37.37,0,0,1,.23.14l.07.1a.22.22,0,0,0,.14.08.28.28,0,0,0,.12-.05l.11-.1.08-.07.08-.07a.24.24,0,0,1,.09,0,.22.22,0,0,1,.12,0h.07l.06,0,.1.05,0,0,0,.05.06.14,0,.12,0,0,0,0a.68.68,0,0,0,.26-.08l.1-.08.11-.12,0,0,.07-.05.15-.08.12,0h.11a.1.1,0,0,1,.07.05l.07.08,0,.07a.4.4,0,0,1-.09.27l-.13.15a.34.34,0,0,1-.14.11l-.17.09-.2.08-.19.06-.35.06a.57.57,0,0,1-.29-.07l-.11-.09-.12-.12H88.9l-.17,0a.23.23,0,0,0-.11.07l-.24.22-.36.29-.37.27a.44.44,0,0,1-.1.08l-.13.08-.16.1-.52.29-.4.22-.16.07a.64.64,0,0,1-.18.06l-.16,0h-.28l-.13,0a.33.33,0,0,1-.15-.32.25.25,0,0,1,.15-.23h.51a1,1,0,0,0,.34-.13l.36-.18.41-.22.37-.25.28-.22.07-.08a.13.13,0,0,0,0-.08l-.13-.26,0-.12v-.06a.14.14,0,0,1,0-.07l.07-.09A.47.47,0,0,1,88.06,160.16Z"/><path class="cls-4" d="M94.64,156.87l.14-.06.16,0a.33.33,0,0,1,.23.06.18.18,0,0,1,.09.16.22.22,0,0,1-.08.18l-.06,0-.1.05-.2.09-.58.26c-.31.14-.46.32-.46.54a.21.21,0,0,0,.1.18l.06,0,.09,0,.2,0h.18l.07,0,.08,0,.09-.05.1,0a.27.27,0,0,1,.15,0l.09.11a.28.28,0,0,1,0,.15c0,.15-.17.26-.44.33l-.16.05-.16,0L94,159l-.26-.08-.13,0-.12-.08a.65.65,0,0,1-.21-1l.13-.15.17-.17.14-.11.18-.11.32-.2Z"/><path class="cls-4" d="M94.27,160.22l.09-.07.1,0,.15,0a.13.13,0,0,1,.09.09l0,.11a.24.24,0,0,1,0,.13l-.13.11-.17.18-.11.08-.08.07-.67.42-.7.39-.33.17-.33.14-.34.13a1.05,1.05,0,0,1-.33.06.58.58,0,0,1-.3-.09l-.1-.09a.08.08,0,0,1,0-.05.64.64,0,0,0,0-.07v-.09s0,0,0-.06a.23.23,0,0,1,.14-.15l.13-.06.12,0h.29a1.28,1.28,0,0,0,.51-.13l.37-.18.83-.48.58-.38Z"/><path class="cls-4" d="M98.64,156.87l.15-.06.15,0a.32.32,0,0,1,.23.06.18.18,0,0,1,.09.16.19.19,0,0,1-.08.18l-.06,0-.1.05-.2.09-.58.26c-.3.14-.46.32-.46.54a.24.24,0,0,0,.1.18l.06,0,.09,0,.2,0h.18l.08,0,.07,0,.09-.05.1,0a.25.25,0,0,1,.15,0l.09.11a.28.28,0,0,1,0,.15c0,.15-.17.26-.43.33l-.17.05-.15,0L98,159l-.26-.08-.13,0-.12-.08a.64.64,0,0,1-.34-.58.72.72,0,0,1,.13-.38l.13-.15.17-.17.15-.11.17-.11.32-.2Z"/><path class="cls-4" d="M98.34,159.74l.1,0h.11a.17.17,0,0,1,.13.08.22.22,0,0,1,0,.08V160a.4.4,0,0,1-.23.27l-.14.07.06,0,.16.09a.65.65,0,0,1,.12.11.21.21,0,0,1,0,.12c0,.09-.06.18-.19.28l-.52.25.14.08.15.1a1.12,1.12,0,0,1,0,.16v.06a.13.13,0,0,1,0,.07l-.14.14-.3.23-.33.24-.26.19-.69.46-.25.16-.22.12-.07,0-.11.05-.29.12a1,1,0,0,1-.35.1l-.13,0-.08-.05s0,0-.06,0a.15.15,0,0,1-.06-.09,1.06,1.06,0,0,1,0-.14c0-.13.11-.23.31-.28l.14,0,.1,0,.12,0,.12,0,.13,0,.19-.08.17-.11.66-.41.32-.21.44-.32-.25-.17a.26.26,0,0,1-.1-.21.16.16,0,0,1,0-.09.46.46,0,0,1,.12-.13l.2-.11.31-.15-.13-.08-.18-.11-.09-.05,0-.05,0-.08,0,0,0-.05,0,0,.12-.09h0l.05,0a.49.49,0,0,0,.17-.06L98,160l.13-.07.11-.08Z"/></g><g class="cls-3"><path class="cls-4" d="M94,167.55h.21l.26.05.27.08.19.08a.44.44,0,0,1,.26.36l0,.13-.07.12-.07.11-.2.15-.66.45-.61.32-.26.11-.23,0a.27.27,0,0,1-.18-.07l-.05-.09v-.11l0-.11s0-.06.09-.1l.21-.11.41-.17.52-.27.22-.11.16-.12,0-.07c0-.09-.13-.14-.4-.14l-.28,0-.32.11c-.23,0-.34-.1-.34-.28a.26.26,0,0,1,.05-.17l.18-.11.32-.1Zm2.29,0a1.59,1.59,0,0,1,.44.07.28.28,0,0,1,.13,0l.1,0,.19.13a.64.64,0,0,1,.14.15.4.4,0,0,1,0,.2l0,.07-.05.09-.1.12-.1.11-.1.11-.13.11-.36.29-.36.25-.33.18-.14,0-.15,0h-.12a.18.18,0,0,1-.1-.06l0-.1a.15.15,0,0,0,0-.07.18.18,0,0,1,.06-.13l.12-.06.15-.07.22-.11.38-.21.29-.23.16-.14s0-.06.06-.12a.14.14,0,0,0-.1-.15h-.37l-.11,0-.11,0-.09,0h-.08l-.2,0-.08,0,0,0s0,0,0,0a.33.33,0,0,1,0-.13v-.08a.22.22,0,0,1,.05-.08.65.65,0,0,1,.15-.1l.1,0,.1,0a.86.86,0,0,1,.23-.06l.17,0Z"/><path class="cls-4" d="M96.51,170.67h.16a.35.35,0,0,1,.14.17l0,.16a.19.19,0,0,1-.08.17l-.3.13.15.14a.49.49,0,0,1,.14.33v.15a.09.09,0,0,0,0,0,.17.17,0,0,1,0,.05.79.79,0,0,1-.4.53l-.22.12-.15,0-.19,0h-.18l-.2,0-.36-.08-.06,0-.24.2-.11.1-.14.11-.31.22-.14.09-.23.15-.22.13-.45.25-.09,0-.1.05-.19.1-.17,0a.44.44,0,0,1-.39-.21v-.06l0-.12a.21.21,0,0,1,.07-.17l.08-.06.06,0h.39a.77.77,0,0,0,.29-.07l.5-.27.17-.11.29-.19.18-.13.12-.13.1-.08.11-.11-.07-.14,0-.09V172a.35.35,0,0,1,.2-.24l.16,0h.1l.14.06a.29.29,0,0,1,.14.15v.12l0,0,.13.08.14.05h.17l.11,0,.1,0a.9.9,0,0,0,.24-.16l.06-.09,0-.09a.27.27,0,0,0,0-.16l-.07-.08-.11-.06-.09-.07-.19-.09-.18-.13,0-.06,0-.1a.1.1,0,0,1,.06-.1l.17-.08H96l.11,0,.1-.08.1,0,.11-.05Z"/><path class="cls-4" d="M101,174.69a.21.21,0,0,1,.21.13l0,.1V175a.09.09,0,0,1,0,.07l-.08.1-.07,0-.12.06-.13.06-.24.23-.21.15-.38.24-.33.2-.19.11a1.45,1.45,0,0,1-.23.11l-.37.14-.13,0a.27.27,0,0,1-.2-.09.37.37,0,0,1-.08-.21v-.1l0-.07,0,0,.18-.09.38-.17.32-.15.22-.1.2-.12.38-.24.22-.15.19-.16.22-.12A.26.26,0,0,1,101,174.69Z"/><path class="cls-4" d="M100.8,171H101l.09.05a.39.39,0,0,1,.21.29l0,.16,0,.11a.22.22,0,0,1,0,.09l0,.13-.06.23-.08.23-.08.16-.09.19a.86.86,0,0,1-.28.34l-.12,0-.07,0-.07,0-.08,0-.1-.07,0-.12a.22.22,0,0,1,0-.09.25.25,0,0,1,0-.08l.11-.15.11-.16.19-.35.06-.18a.35.35,0,0,0,0-.06s0,0,0,0h0a.31.31,0,0,0-.2.07l-.17.15-.38.31-.72.57-.26.18-.3.18-.23.13-.19.06h-.14l-.14,0-.08,0c-.06,0-.09-.09-.09-.2v-.09s0-.07,0-.08l0-.1a.36.36,0,0,1,.15-.1l.19,0h.16l.11,0,.23-.12.37-.24.17-.12.18-.15.23-.2.23-.2.22-.21.23-.2A.64.64,0,0,1,100.8,171Z"/><path class="cls-4" d="M105.87,167.46h.07l.07,0a.2.2,0,0,1,.07.1l0,.12,0,.1c0,.14-.07.22-.2.22a2.14,2.14,0,0,0-.36.07l-.14.05-.12,0-.11.06-.09.07-.11.11-.11.13a.2.2,0,0,0,.1.14l.14.06.15,0h.53l.08,0a.23.23,0,0,1-.05.4l-.2.05-.27,0h-.31l-.29-.06a.48.48,0,0,1-.35-.2.94.94,0,0,1-.14-.46l-.05.07a.16.16,0,0,1-.09.08l-.08.07-.22.16-.33.22-.24.13-.21.12-.21.1-.18.07-.14,0h-.12c-.13,0-.19-.07-.19-.22l0-.15a.2.2,0,0,1,.11-.09l.14,0,.19-.07a2.4,2.4,0,0,0,.75-.4l.15-.13.16-.15-.58,0-.16,0h-.08l-.09,0a.22.22,0,0,1-.14-.24.23.23,0,0,1,.21-.25h.77a.73.73,0,0,1,.42.1.23.23,0,0,1,.09.12l.08.14.08.19.1-.09.06,0,0,0,.08-.05.15-.13.24-.17.43-.28A.79.79,0,0,1,105.87,167.46Z"/><path class="cls-4" d="M105,170.81h.22l.13,0c.07,0,.1,0,.1.15l0,.12a.18.18,0,0,1-.07.15.62.62,0,0,1-.19.1l-.27,0h-.08l-.14,0-.25.07c-.08,0-.13,0-.14.1l.08.11,0,.05,0,.06.05.1a.81.81,0,0,1,0,.2v.22a.3.3,0,0,1,0,.13l-.07.14,0,.05,0,.06-.07.06-.08,0-.25.12-.15,0h-1.22a.34.34,0,0,1-.15,0l-.12-.05-.05,0-.1-.07a.48.48,0,0,1-.11-.3.2.2,0,0,1,0-.13l.09-.1.08-.07a.9.9,0,0,1,.25-.08.21.21,0,0,1,.14.08l.07.09.12.09.13,0,.29,0h.29q.3,0,.39-.15v-.14a.3.3,0,0,0-.06-.14l-.08-.09-.08-.11-.12-.15,0-.18a.25.25,0,0,1,0-.15l.11-.07.15-.09.15-.1.22-.09.27-.09A1.66,1.66,0,0,1,105,170.81Z"/></g><g class="cls-3"><path class="cls-4" d="M115.11,84.17c0,.43-.28.79-.84,1.09a1.27,1.27,0,0,1-.58.17q-.81,0-.81-.69a1.16,1.16,0,0,1,.47-.91,1.56,1.56,0,0,1,1-.38.75.75,0,0,1,.31,0,.49.49,0,0,1,.24.14A.65.65,0,0,1,115.11,84.17Zm-.51.08c0-.19-.13-.29-.4-.29a.72.72,0,0,0-.51.24.7.7,0,0,0-.25.52c0,.12.08.18.25.18h.12a.88.88,0,0,0,.5-.22C114.5,84.53,114.6,84.39,114.6,84.25Z"/><path class="cls-4" d="M117.45,87.06l.1-.11.21-.14a.52.52,0,0,1,.24-.08h.06a.19.19,0,0,1,.12.07.16.16,0,0,1,.07.07.2.2,0,0,1,0,.11.45.45,0,0,1,0,.11l-.06.08-.07.09-.12.11-.12.08-.18.12-.16.09-.14.06-.15.06-.17,0-.16,0h-4.2l-.08.09-.16.15-.21.18-.12.09-.22.12-.09,0-.13,0-.19,0a.28.28,0,0,1-.19-.26v-.1s0-.06.1-.09a.46.46,0,0,0,.23-.09.47.47,0,0,0,.24-.13l.06-.07,0-.09h-.11l-.16,0-.08-.09-.06-.12v-.17c0-.17.11-.29.34-.35h.32a.21.21,0,0,1,.12,0,.48.48,0,0,1,.29.22l.12.21h4l.23,0a.69.69,0,0,0,.23-.13l.08-.08Z"/><path class="cls-4" d="M122.79,83.3l.07,0,.07,0s0,0,.07.09l0,.12,0,.1c0,.15-.07.22-.2.22a2.14,2.14,0,0,0-.36.07l-.15,0-.11.06a.3.3,0,0,0-.11.06l-.09.06-.11.12-.11.13a.18.18,0,0,0,.1.13l.14.07h.68l.08,0a.2.2,0,0,1,.09.2.19.19,0,0,1-.15.2l-.2.05-.26,0H122l-.29-.06a.52.52,0,0,1-.36-.2,1,1,0,0,1-.13-.45l0,.07a.18.18,0,0,1-.09.07l-.08.07-.22.16-.34.22-.23.13-.21.13-.21.09-.18.07-.15,0h-.11c-.13,0-.19-.08-.19-.23l0-.14a.17.17,0,0,1,.11-.09l.14,0,.19-.06a2.41,2.41,0,0,0,.75-.41l.15-.13.16-.14h-.82l-.09,0a.22.22,0,0,1-.14-.24.23.23,0,0,1,.2-.24l.23,0h.55a.81.81,0,0,1,.42.1.25.25,0,0,1,.09.13l.07.13.09.2.1-.1.06,0,0,0,.08,0,.15-.14.24-.16.43-.29A.79.79,0,0,1,122.79,83.3Z"/><path class="cls-4" d="M120.73,86.69a.51.51,0,0,1,.34.09.2.2,0,0,1,.06.14V87l-.08.07-.06,0-.1.05a.37.37,0,0,0,0,.15.25.25,0,0,0,.1.22l.12.09.06,0,.08,0,.13,0a.38.38,0,0,0,.11-.08l.09-.08.11-.07.19,0h.08a.58.58,0,0,1,.13.11l0,.06v.08a.32.32,0,0,1-.08.16l-.12.09-.15.09-.18.13-.53.34-.6.35-.33.19-.28.13-.25.13-.33.13-.23.07c-.25,0-.38-.1-.38-.31a.52.52,0,0,1,.07-.21.35.35,0,0,1,.07-.09.11.11,0,0,1,.08,0l.09,0,.13,0,.14,0a1.46,1.46,0,0,0,.33-.14l.61-.31.3-.17.38-.25s0-.07,0-.08h-.09l-.15,0a.43.43,0,0,1-.22-.14l0-.06,0-.11,0-.17v-.07a.14.14,0,0,1,0-.07l.08-.19a.57.57,0,0,1,.18-.24l.06,0,.08,0Z"/><path class="cls-4" d="M125.66,83a.2.2,0,0,1,.09,0l.09,0c.17,0,.25.11.25.33a.17.17,0,0,1-.06.14,11.57,11.57,0,0,1-1,.69,5.2,5.2,0,0,1-.46.25,4.43,4.43,0,0,1-.45.2l-.22.07-.11,0a.41.41,0,0,1-.08-.12v-.15s0,0,0,0a.27.27,0,0,1,0-.13l0,0,.07,0a2.36,2.36,0,0,0,.77-.35A6.5,6.5,0,0,0,125.66,83Zm.51.9a.32.32,0,0,1,.17-.06c.17,0,.25.11.25.33a.19.19,0,0,1,0,.08.23.23,0,0,1,0,0,8.92,8.92,0,0,1-1,.65,8,8,0,0,1-1,.49l-.13,0-.1,0a.23.23,0,0,1-.2-.15v-.21c0-.08.06-.14.16-.18a4.81,4.81,0,0,0,.76-.4l.26-.15.36-.23C125.89,84.07,126,84,126.17,83.87Z"/><path class="cls-4" d="M125.15,86.69h.4a.6.6,0,0,1,.21,0l.21,0c.26.06.39.18.39.35a.52.52,0,0,1-.08.24.51.51,0,0,1-.09.13l-.13.14-.2.18-.24.19-.2.14-.3.21a8.13,8.13,0,0,1-.91.51l-.38.18-.18.06-.22.08-.17,0-.11,0-.07,0-.1-.07-.07-.13v0q0-.24.15-.27h.32l.17,0,.1,0a.27.27,0,0,0,.12,0l.15-.06.19-.1.31-.15.15-.07.25-.13.27-.15.16-.11.09-.07.14-.11a1.41,1.41,0,0,0,.17-.18l0,0v0a.05.05,0,0,0,0,0l-.08,0-.07,0h-.17l-.14,0h-.08l-.29,0h0l-.08,0-.09,0-.06,0h-.21l-.13,0a.29.29,0,0,1-.18-.22.36.36,0,0,1,0-.19.63.63,0,0,1,.18-.12l.15,0,.15,0Z"/></g><g class="cls-3"><path class="cls-4" d="M129.23,15.71h5.71V17h-4.26v2.17h3.74v1.18h-3.74V24h-1.45Z"/><path class="cls-4" d="M135.84,17.22c1.11,0,2.16-.37,2.36-1.35h1.08V24h-1.45V18.26h-2Z"/></g><g class="cls-3"><path class="cls-4" d="M22.12,151.71h5.71V153H23.57v2.17h3.74v1.18H23.57V160H22.12Z"/><path class="cls-4" d="M30.75,155.23c.88,0,1.79-.28,1.79-1.27a1.16,1.16,0,0,0-1.26-1.15,1.45,1.45,0,0,0-1.34,1.66H28.62a2.64,2.64,0,0,1,2.69-2.76,2.31,2.31,0,0,1,2.55,2.17,1.71,1.71,0,0,1-1.14,1.73v0a1.91,1.91,0,0,1,1.47,2,2.61,2.61,0,0,1-2.87,2.48,2.61,2.61,0,0,1-2.85-2.83h1.32A1.49,1.49,0,0,0,31.32,159a1.41,1.41,0,0,0,1.55-1.45c0-1.26-1.08-1.42-2.12-1.38Z"/></g></g><g id="Lines"><polyline class="cls-5" points="7.41 53.26 133.63 39.1 132.63 107.78"/><line class="cls-5" x1="0.06" y1="115.15" x2="143.07" y2="157.44"/></g></g></g></g></g></svg>