<svg xmlns="http://www.w3.org/2000/svg" viewBox="0 0 225.13 260.18"><defs><style>.cls-1{fill:#383838;}.cls-2,.cls-4{fill:none;stroke-width:1.77px;}.cls-2{stroke:#e9590a;}.cls-3{fill:#f1f2f2;}.cls-4{stroke:#004417;}.cls-5{fill:#396287;fill-rule:evenodd;}</style></defs><title>DH</title><g id="Layer_2" data-name="Layer 2"><g id="Layer_1-2" data-name="Layer 1"><g id="M1"><polygon class="cls-1" points="142.82 27.87 142.6 31.13 145.55 30 146.02 31.72 143.01 32.38 144.94 34.77 143.44 35.78 141.93 33.17 140.41 35.78 138.92 34.77 140.84 32.38 137.84 31.72 138.3 30 141.25 31.13 141.04 27.87 142.82 27.87"/><polygon class="cls-1" points="48.2 111.8 47.97 115.06 50.93 113.94 51.4 115.65 48.38 116.31 50.32 118.7 48.81 119.71 47.3 117.1 45.79 119.71 44.29 118.7 46.22 116.31 43.21 115.65 43.68 113.94 46.63 115.06 46.41 111.8 48.2 111.8"/><path class="cls-1" d="M72.86,68.59a3.05,3.05,0,1,1-3-3,3,3,0,0,1,3,3"/><path class="cls-1" d="M103.3,241.43a2.61,2.61,0,1,1-2.61-2.61,2.61,2.61,0,0,1,2.61,2.61"/><path class="cls-2" d="M103.3,241.43a2.61,2.61,0,1,1-2.61-2.61A2.61,2.61,0,0,1,103.3,241.43Z"/><path class="cls-1" d="M108.62,235.22a2.61,2.61,0,1,1-2.61-2.61,2.61,2.61,0,0,1,2.61,2.61"/><path class="cls-3" d="M115.15,32.51a2.61,2.61,0,1,1-2.61-2.6,2.61,2.61,0,0,1,2.61,2.6"/><path class="cls-4" d="M115.15,32.51a2.61,2.61,0,1,1-2.61-2.6A2.61,2.61,0,0,1,115.15,32.51Z"/><path class="cls-3" d="M168.6,39.56a2.67,2.67,0,0,1,2.06-.42c.11-.29.2-.56.32-.82-.65-3.92-1.44-7.87-2.38-11.88-2.12-5.62-1.06-10.68-5.63-16.15l-1.68-1.07a7.86,7.86,0,0,1,.35,1.41c-1.4,1.18-5.72,3.2-7.67,4.76-2.1.07-2.57-.12-2.46-1.88,2.13-2.31,3.51-5.22,6.1-6.65L155.8,5.7a8.79,8.79,0,0,1-.44,1c-3.11,2.39-6.43,4.14-10.51,7.22-2.82,1.36-6.36-.84-6.27-3.32,0-1.18.64-1.38-.55-1.6-.25.72-11.49,5.41-14.65.26-.37-.6-.07-.63-1.27-.57-1.63.84-2.47.64-4.51.71-.87.66-1.11.43-.35,1.8,1.48.56,5.44.41,7,1.86a6.29,6.29,0,0,0,3.17,2.72,43.43,43.43,0,0,1,8.3-1.57c2.28.29,3,1.76,1.28,3.43-2.2,1.17-5.06,1.47-7.49,2-1.51-.5-3,.39-4.82-1.1a19.41,19.41,0,0,1-2.28-3.27c-1.44-.88-5.23-1.41-7.09-1.68-3.09,0-5.59.07-8.68.07-2.07-.82-3.16-2.5-2.74-4.13a24.52,24.52,0,0,0-4.53-.78c-.14.31-.28.62-.44.91a3.26,3.26,0,0,1,.64,1.94,8.65,8.65,0,0,1-2.88,5.69c-1.53,1.4-2.29,1.46-6.21.7C82.38,21.17,75.27,26.13,68,29.61c-3.65,1.75-5.69,1.26-6.15-1.47a4.8,4.8,0,0,1-.09-1.73,81.62,81.62,0,0,0-7.33,9.08c.1.35.17.74.24,1.13,1.67,0,6.32,3.14,5.89,4.77,0,3.72-.44,6.93-.67,10.38.24,2.64-1.48,3.58-4.69,3.63A23.53,23.53,0,0,1,47,52.05a3.56,3.56,0,0,1-1.67-3.43c-1.92,2.74-3.84,5.35-5.71,7.62-1.25,2.47-2.42,4.69-3.5,6.73l.42-.41c2.54-1.34,5.12-.6,6.43,2.31a15,15,0,0,1,.14,3.88,16.44,16.44,0,0,1-.9,3.92c-1.74.61-2.16-.08-2.22-1.19.44-.89.58-1.26,1-2.16.09-1-.34-1.06-.81-1.48a4,4,0,0,0-2.54,1.82,11.6,11.6,0,0,0-3.9,8.61l2.31,10.42c.26.77.35.91.61,1.69s2.16,1,3.73.16c1.09-2.29,1-4.05.46-6.54.14-1.59,1.3-1.38,1.55-.12a14.91,14.91,0,0,1,.65,5.53,14.05,14.05,0,0,1-1.61,6.67c-1.48,2.24-3.64,3-7.31.62a20.71,20.71,0,0,1-4.33-5.18,63.19,63.19,0,0,0,2.7,7.08c2.42,3.21,3.34,7.91,5,11.87a55.21,55.21,0,0,1-4,13.79L32,127.94a6.69,6.69,0,0,0,1.21-1.43,58,58,0,0,1,2.58-7.42,10.41,10.41,0,0,1,3.38-3.92c.94-.51,1.92-1,3.67,1A6.34,6.34,0,0,1,44.06,122c-.28,2-2.19,2-3.24,1.59-1.23-.88-.46-1.16-1.13-2.41q-1.57,3.81-3.14,7.62a74.77,74.77,0,0,0-3.78,7.08,29.84,29.84,0,0,0-1.19,7.53c-.32,1.4,1.46,1.33,1.63-.17a20.27,20.27,0,0,1,.72-6.66,33.39,33.39,0,0,1,1.76-4.38c1-.43,1.28,0,1.6.81a13.59,13.59,0,0,0-1.08,8c0,.7-.11,1.45.28,1.75,1.36,1.05,1,1.69.82,2.26-.4.84-1.74,1.12-2.77,1s-1.3,1.37-1.4,1.82a2.53,2.53,0,0,0,.53,2c.26.37,1,1.1,1.36.61,1.59-2.16,3.5.68,5.94-2.66,2.33-.84,2.21,1.29,2.12,2.25-1.35,2.75-.82,2.64-3.43,3.88-.32.14-.68.32-1.1.52-.06.88-.12,1.73-.14,2.49-.22,6.78-.94,8.37-.43,12.78,1.56,3.88,3.95,5.35,4.35,10.15.07,3.19-.44,6.35-.08,9.72a138,138,0,0,0,3.63,14.58c0,1.78-1.69,2.1-2.43.67-1.87-6-4.43-13-4.1-19.07.12-2.43.1-4.47.12-6.83-.48-2.63-2.39-2.13-2.43-.28-.23,4.55-.84,9.47-.21,15.26.84,3.53,1.33,6.72,2.17,10.27.07,1.75-.26,3.64.72,4.86,3.89,4.8,5.17,8.12,5.94,13.18,1.11,1.26,1.55,2.31,2.67,3.57,2.27,2.6,5.49,5.1,7.78,7.67,1.59,1,2.65,3.33,4.19,4.43,2.77,2,5.31,2.18,8.32,3.44,2.63,0,3.9-.1,3.09-1.66-2.07-1.79-3.71-3.69-5.78-5.48-1.18-2.13-.42-2.79,2.31-2,1.51,1.29,2.53,2.94,4,4.22,1.72,1.48,4,2.61,5.68,4.08l3.51,4.34c1.21,2.64.68,3.83-.28,4.63l18-2.63,5.45-2.69,2.76-1.75c0-.22,0-.47,0-.7s0-.36,0-.53l-4.66,1.66a6.83,6.83,0,0,1-5.55-4.7c.24-2.4.42-4.55,3.84-6.2,3.16-2,6.69-1,11.25-2.92,3.27-1.85,5.3-1.15,5.39-5.3.75-1.61,3.09-2.05,5.5-.33,1,.8,2,1.57,3,2.36a2.28,2.28,0,0,0-1.29-.11,8.14,8.14,0,0,1-1.58,2.36h.58c.41,0,.81,0,1.21,0,.93-.32,2-.54,2.66-.76a2.58,2.58,0,0,1,.4,1.2c.34.07.66.15,1,.24l11.3-8.11-.24,0c-1-.35-2.42-1-2.84-1.91-.3-.73-.88-1.25.25-2.85,2.92-2.7,4.68-3.92,7.73-7.72.46-.58.6-1.95,1.16-2.62s1.86-1.59,1.37-2.31c-.75-.31-1.21,0-2.11,0a1.23,1.23,0,0,1-.08-2.46c.39-.06,2.58-.23,2.52-.68a2.35,2.35,0,0,0-.8-1.77c-1.31-.21-2.17,1.28-3.11.17a2.09,2.09,0,0,1,1-2.57c1.72-1.18,2.85-.2,3.8,1.48a47.07,47.07,0,0,1,7.29,8,2.19,2.19,0,0,1,.79,1.44L162.4,201a90.91,90.91,0,0,0,4.15-8.94c-1.34,2.48-2.75,4.88-4.25,7.2a3.78,3.78,0,0,1-5,2.12,56.79,56.79,0,0,0-5.07-3.85c-.45-1.34-.58-2.6.45-3.51,1.58-.51,2.25-.68,4.65,0,2.42.05,3.85-4.71,4.66-8.92a13.5,13.5,0,0,1,1.53-10c-.09-4.66-.2-9.3-.29-13.95h-.12l0-6.94,2.86-8.76c.37-2.8-.09-5.25-2.33-6.9a3.73,3.73,0,0,1-2.86-1.58c-.59-1.21-.93-2.33.54-2.85a7,7,0,0,0,3.57-3.64,27.5,27.5,0,0,0,.76-7.13c-1.4-2.88-4.32-3-4.47-4.33-1-4.35,3.53-2.18,7.19-1.82,1.2.13,2.06.19,2.72.3.05-2.07.15-4.13.25-6.19a1,1,0,0,0-.76-.32c-.59,0-.44.23-1.05,1.06s-.12,1.31,1.07,1h0c-1,.57-2.08,1-3.22,1.6-3.11.44-6.1,1.11-8.53.62-1.44-1.19-1-2.47.16-3.12a22.62,22.62,0,0,1,3.24-1.25c1.73-1.2-.35-2.73.9-3.62.8-.3,1.46-.71,1.12-1.91-1-.85-1.61-2.13-1.47-4.36-.14-1.36.35-2.34,2.26-2.48,1.18.4,1.64,1,2.77,1a16.81,16.81,0,0,0,1.59-.58,1.88,1.88,0,0,1,2.76.45q.15-1.64.27-3.27a2.61,2.61,0,0,1-1.91.6c-2.28-.42-4.56-.61-6.84-1a2.6,2.6,0,0,1-2.88-2.39c-.12-1.74,2.5-2,2.27-2.3-.64-1.37-.43-3.31.14-5.51,1.18-2,2.44-3.71,3.63-5.68,1-1.37,1.86-3,2.82-4.34,1.69-1.68,2.85-1,3.8.7,0-3.42,0-6.84,0-10.26l-.28-.2c-.73.55-1.94.64-3.82.08-1.09-1.4-2.81-2.47-6-4-3-.81-2.3-2.09-1.09-3.43a38,38,0,0,0,1.36-7.26,20.51,20.51,0,0,1,1.95-8.09,34.69,34.69,0,0,1,2.94-3.6"/><path class="cls-3" d="M109.72,63.92a1.24,1.24,0,0,1-1.76,0l-8.21-8.21a1.24,1.24,0,0,1,0-1.76L108,45.74a1.24,1.24,0,0,1,1.76,0L117.93,54a1.24,1.24,0,0,1,0,1.76Z"/><path class="cls-5" d="M171.34,132.6q.06,1.26.18,2.52a4.52,4.52,0,0,0-1.33,0c-1.6.51-3.22.79-4.83,1.3-1.44.24-2.5-.67-.39-1.53s4.1-1.44,6.16-2.16l.21-.13"/><path class="cls-5" d="M153.6,210.62l-1.16,1.27-2.2,1.59c1.14-.94,2.26-1.88,3.36-2.86"/><path class="cls-5" d="M171.75,105.77c0,.55-.08,1.09-.12,1.65-.41-.5-.18-1,.12-1.65"/><path class="cls-5" d="M153.41,1.9c2.23.72,3.32,2.09,2,4.85-3.11,2.39-6.43,4.14-10.51,7.22-2.83,1.36-6.36-.84-6.27-3.32,0-1.18.64-1.39-.55-1.61-.25.72-11.49,5.42-14.65.27-.37-.6-.07-.63-1.27-.57-1.63.84-2.47.64-4.51.71-.87.65-1.11.42-.35,1.8,1.48.56,5.44.41,7,1.86a6.21,6.21,0,0,0,3.17,2.72,43.43,43.43,0,0,1,8.3-1.57c2.28.29,3,1.76,1.28,3.42-2.19,1.18-5.06,1.49-7.5,2-1.5-.5-3,.39-4.81-1.11a18.85,18.85,0,0,1-2.28-3.26c-1.44-.89-5.23-1.41-7.09-1.68-3.09,0-5.59.08-8.68.07-3-1.18-3.92-4.23-1.23-6.17l11-1.64c4.39-1.31,8.4-2.46,12.78-3.77a26.53,26.53,0,0,1,10,.83c4.75-.56,9.43-.52,14.17-1.07"/><path class="cls-5" d="M157.62,6.86c2.32-.8,3.5.91,4,3.76-1.41,1.19-5.73,3.21-7.68,4.77-2.1.07-2.57-.1-2.47-1.88,2.15-2.31,3.52-5.23,6.12-6.65"/><path class="cls-5" d="M160.31,16.81a4,4,0,0,1,4.41.67,55.82,55.82,0,0,1,3,6,2.56,2.56,0,0,1-1.52,3,28.57,28.57,0,0,1-7.7,2.57c-2.45-.45-4.16-1.48-4.2-3.77a15.54,15.54,0,0,1,3-6.44,6.51,6.51,0,0,1,2.94-2.05"/><path class="cls-5" d="M168.6,39.56c2.18-1.2,3.09,0,3.81,1.51A144.08,144.08,0,0,0,173.65,59c1.07,4.74,1.17,8.54-4.23,6.92-1.09-1.4-2.81-2.47-6-4-3-.82-2.3-2.1-1.09-3.44a38,38,0,0,0,1.36-7.26,20.77,20.77,0,0,1,1.95-8.1,35.69,35.69,0,0,1,2.94-3.59"/><path class="cls-5" d="M167.07,46.48c1.73-1.86,2-1.28,2.3.08Q169.19,52,169,57.38c-.47,2.42-1.33,3.68-3.07,2.4a5.16,5.16,0,0,1-.86-3.43c.61-3.42,1.4-6.46,2-9.87"/><path class="cls-5" d="M123.13,223.32c1,.8,2,1.57,3,2.38a2.31,2.31,0,0,0-1.31-.13,9.54,9.54,0,0,1-1.68,2.53c-.32.41-.1.49.66.4a21.76,21.76,0,0,1,3.9-1.3,2,2,0,0,1-.84,3.11c-5.49,1.82-10.12,5-14.83,8.11l-4.16,2.5-5.2,1.85a6.85,6.85,0,0,1-5.55-4.7c.24-2.4.42-4.55,3.84-6.21,3.16-2,6.69-1,11.25-2.91,3.27-1.85,5.31-1.15,5.38-5.3.76-1.61,3.09-2,5.51-.33"/><path class="cls-5" d="M156.38,205.29a47.07,47.07,0,0,0-7.29-8c-1-1.68-2.08-2.66-3.8-1.48a2.1,2.1,0,0,0-1,2.57c.94,1.11,1.81-.39,3.11-.17a2.44,2.44,0,0,1,.81,1.77c0,.45-2.14.62-2.53.68a1.23,1.23,0,0,0,.08,2.46c.9,0,1.36-.27,2.11,0,.49.72-.83,1.58-1.37,2.31s-.7,2-1.16,2.62c-3.05,3.81-4.81,5-7.73,7.72-1.13,1.6-.55,2.12-.25,2.85.42.91,1.85,1.56,2.84,1.91,1-.05,1.53-.56,2.66-1.29,4.19-3.21,8.41-6.42,12.25-10,2.26-1.35,2.69-2.69,1.3-4"/><path class="cls-5" d="M163.25,161.19c.07,4.65.18,9.29.27,13.95a13.48,13.48,0,0,0-1.53,10c-.81,4.22-2.24,9-4.66,8.93-2.4-.7-3.07-.53-4.65,0-1,.91-.89,2.17-.45,3.51a56.79,56.79,0,0,1,5.07,3.85,3.78,3.78,0,0,0,5-2.13,111,111,0,0,0,6.27-11.06,92.41,92.41,0,0,0,2.19-21.47l.17-5.51H171c.54-7.65.7-15.32,1.8-23,.39-2.08,0-3.46-2.6-3.12-1.6.53-3.22.8-4.83,1.31-1.44.24-2.49-.67-.39-1.54l6.16-2.15A3.28,3.28,0,0,0,172.9,129q0-5.13,0-10.25c-.52-1.32-1.53-1.21-4.5-1.53-3.66-.36-8.22-2.53-7.19,1.82.15,1.34,3.07,1.46,4.47,4.33a27.5,27.5,0,0,1-.76,7.13,7.06,7.06,0,0,1-3.56,3.64c-1.48.52-1.15,1.65-.56,2.85a3.76,3.76,0,0,0,2.87,1.58c2.24,1.65,2.7,4.1,2.33,6.92l-2.86,8.74,0,6.94Z"/><path class="cls-5" d="M167.9,99.66c-1.13,0-1.59-.65-2.77-1-1.9.14-2.4,1.12-2.26,2.48-.14,2.22.48,3.51,1.47,4.36.34,1.2-.32,1.61-1.12,1.91-1.25.89.83,2.42-.9,3.62a23.08,23.08,0,0,0-3.24,1.25c-1.17.65-1.6,1.93-.16,3.12,2.43.49,5.42-.18,8.52-.61,1.15-.62,2.21-1,3.23-1.61h0c-1.19.26-1.67-.22-1.07-1S170,111,170.62,111a1.08,1.08,0,0,1,1.07,1.06c0,.16,0,.28,0,.39a8.62,8.62,0,0,0,1.71-1.67,2.81,2.81,0,0,0-.91-2.77c-1.53-.76-1.13-1.41-.68-2.38.87-.85,1.23-.33,1.14-2,.45-3-.87-6.12-3.46-4.59-.32.18-1,.34-1.59.57"/><path class="cls-5" d="M169.76,75.61c1.74-1.75,2.93-1,3.9.93-.06,4.82-.11,9.68-.15,14.51.27,3.33-.12,5.9-2.9,5.81-2.28-.42-4.56-.61-6.84-1a2.6,2.6,0,0,1-2.88-2.4c-.12-1.73,2.5-2,2.27-2.29-.64-1.37-.43-3.31.14-5.51,1.18-2,2.44-3.71,3.63-5.68,1-1.37,1.86-3,2.83-4.34"/><polygon class="cls-5" points="124.48 74.01 123.46 76.58 130.12 78.99 130.95 76.04 128.28 74.17 124.48 74.01"/><path class="cls-5" d="M54.37,36.65c1.3-.45,6.68,3,6.21,4.74,0,3.73-.44,6.93-.67,10.38.24,2.64-1.49,3.58-4.69,3.63A23.42,23.42,0,0,1,47,52.05c-1.86-.9-2.23-4.06-.81-5.72a38.78,38.78,0,0,0,5.17-5.73c.86-1.55,2.07-4,3-4"/><path class="cls-5" d="M55.45,41.63c.59-1,2.75-.7,3,.68a52.45,52.45,0,0,1-1.14,8c-.39,2-1.14,2.43-2.92,2-1.38-.79-2-1.89-2.05-3.94.74-2.36,1.1-4.15,3.08-6.75"/><path class="cls-5" d="M43,64.87c-1.31-2.91-3.89-3.64-6.43-2.3a18.17,18.17,0,0,0-4,5.51A41.44,41.44,0,0,0,28,81.87a11.89,11.89,0,0,0,.85,7.88,21.4,21.4,0,0,0,5.28,7c3.68,2.4,5.84,1.62,7.32-.61a14.12,14.12,0,0,0,1.61-6.68,14.76,14.76,0,0,0-.65-5.54c-.25-1.25-1.41-1.46-1.55.13.51,2.5.63,4.26-.46,6.54-1.57.8-3.44.71-3.72-.16s-.36-.91-.62-1.69q-1.16-5.2-2.32-10.42a11.6,11.6,0,0,1,3.91-8.6,4,4,0,0,1,2.54-1.83c.47.41.9.49.81,1.48-.44.9-.58,1.27-1,2.16.06,1.11.48,1.79,2.22,1.19a16.44,16.44,0,0,0,.9-3.92A14.57,14.57,0,0,0,43,64.87"/><path class="cls-5" d="M51.93,100.77q-1.57-2.64-4.11-.85c-1.08.83-.52,2.38-1.42,3.34-4.55-.5-6.71.93-8.35,3.25-1.44,2.24-.35,3.48.76,4.48a11.84,11.84,0,0,0,7.59,3.82c2.33-.11,2.76.84,4.27,1.7,3.58.91,5.2-1.49,4.59-3.66a7.58,7.58,0,0,0-3-2.76,2,2,0,0,1-.91-2.43c.21-1.19.82-2.34,1-3.52a3.62,3.62,0,0,0-.44-3.37"/><path class="cls-5" d="M47.76,105.17c1.29-.2,1.92,0,1.89,1.06a7.06,7.06,0,0,1-1.07,2.8A8.26,8.26,0,0,0,52,112.31c1.27,1.46-.31.85-2,.58a8,8,0,0,1-3.94-2.66c-.34-.9-.95-1.49-.76-2.8a5,5,0,0,1,2.44-2.26"/><path class="cls-5" d="M39.69,121.15c.67,1.24-.1,1.53,1.13,2.41,1,.4,3,.43,3.23-1.6a6.3,6.3,0,0,0-1.18-5.84c-1.75-1.9-2.73-1.46-3.67-1a10.37,10.37,0,0,0-3.38,3.93,57.71,57.71,0,0,0-2.58,7.4c-1.06,1.72-2.82,2.41-4.33,4.42-3.05,8.33-5,16.58-5.36,24.17.3,5,2.27,7.38,4.76,11.59a54.5,54.5,0,0,1,2.17,7.7c.79,7.79.35,13.27,0,19.78A44.2,44.2,0,0,0,32,207.42c3.52,5.89,6.53,11.85,7.95,18.8,1.27,6.72,5.09,10.62,8.8,14.84,4.1,2.93,8.22,5.83,13,7.39,6,1.31,12,2.65,18.05,1.88,1.58-1,3.36-1.79,1.64-5.55L78,240.44c-1.72-1.47-4-2.6-5.68-4.07-1.52-1.29-2.53-2.94-4-4.23-2.73-.81-3.49-.15-2.31,2,2.07,1.78,3.71,3.68,5.78,5.47.81,1.56-.46,1.66-3.09,1.65-3-1.25-5.55-1.45-8.32-3.43-1.54-1.1-2.6-3.41-4.19-4.42-2.29-2.58-5.51-5.08-7.78-7.68-1.12-1.26-1.56-2.31-2.67-3.56-.77-5.06-2.05-8.39-5.94-13.19-1-1.2-.65-3.11-.72-4.86-.84-3.55-1.33-6.74-2.17-10.27-.63-5.78,0-10.71.21-15.27,0-1.84,2-2.34,2.43.29,0,2.36,0,4.4-.12,6.84-.33,6.1,2.22,13.08,4.1,19.06.74,1.43,2.45,1.11,2.43-.68a137.23,137.23,0,0,1-3.63-14.57c-.36-3.37.15-6.53.08-9.72-.4-4.8-2.79-6.27-4.35-10.15-.51-4.41.21-6,.43-12.78,0-.76.08-1.61.14-2.49.42-.2.78-.38,1.1-.52,2.61-1.24,2.08-1.13,3.43-3.88.09-1,.21-3.09-2.12-2.25-2.44,3.34-4.35.5-5.94,2.66-.37.49-1.1-.24-1.36-.61a2.53,2.53,0,0,1-.53-2c.1-.46.34-2,1.4-1.82s2.37-.13,2.77-1c.23-.57.54-1.21-.82-2.26-.39-.3-.23-1.05-.28-1.75a13.59,13.59,0,0,1,1.08-8c-.32-.82-.62-1.24-1.6-.81a33.39,33.39,0,0,0-1.76,4.38,20.3,20.3,0,0,0-.72,6.67c-.17,1.5-1.95,1.56-1.63.16a29.91,29.91,0,0,1,1.19-7.53,78.8,78.8,0,0,1,3.77-7.09l3.15-7.61"/><path class="cls-5" d="M42.53,136.64c.74-1.07,2.6-.95,2.24.72-1.23,2.21-2.76,3.49-5.21,5.71-1.53.78-2.16-.76-1.2-1.78s1.71-1.63,2.71-2.8c.59-.81.87-1,1.46-1.85"/><path class="cls-5" d="M96.2,8.67c1.93,0,3.29.74,3.42,3a8.65,8.65,0,0,1-2.88,5.69c-1.53,1.41-2.3,1.45-6.21.7C82.38,21.18,75.27,26.13,68,29.61c-3.66,1.75-5.7,1.26-6.16-1.47q-.66-2.87,2-5.77c5-4.81,9.76-6.46,14.57-8.5A91.14,91.14,0,0,1,96.2,8.67"/><path class="cls-5" d="M94.34,12.84c1.57-.49,2.06.05,1.43,1.59C92.6,15.72,89.2,16.48,86,17.77c-3.51,1.66-7,3.56-10.47,5.23-1.39.55-2.92-.14-1.53-1.69A42.71,42.71,0,0,1,83.62,17a34,34,0,0,0,10.72-4.12"/><path class="cls-5" d="M60.58,63.38c-.24-1.44.62-1.88,2.21-1.63a27.88,27.88,0,0,1,8.05,5.12,3,3,0,0,1-.55,3,10.87,10.87,0,0,1-3.82-.26,20.67,20.67,0,0,1-4.1-3.08,7,7,0,0,1-1.79-3.16"/><path class="cls-5" d="M83.32,107.5c-.09-1.23-.19-2.46-.29-3.69a2.79,2.79,0,0,1,2.55-1.44,60.58,60.58,0,0,0,6.58,5.24c1.38,2.09.79,2.7-.06,3.09a47.4,47.4,0,0,0-6.37-.91,4.32,4.32,0,0,1-2.41-2.29"/><path class="cls-5" d="M150.8,190.24c.59-.05,1.07.33.91.92s-.4.93-.9.94a.91.91,0,0,1-.9-.93.86.86,0,0,1,.89-.93"/><path class="cls-5" d="M129,190.2c1.08-.1,1.94.59,1.64,1.67s-.71,1.68-1.61,1.69a1.67,1.67,0,0,1-1.65-1.66,1.62,1.62,0,0,1,1.62-1.7"/><path class="cls-5" d="M114.94,196.11c1.08-.09,1.93.53,1.64,1.53s-.72,1.54-1.61,1.56a1.59,1.59,0,0,1-1.64-1.53c0-.86.53-1.47,1.61-1.56"/><path class="cls-5" d="M96.9,182.1c1-.08,1.82.52,1.54,1.44S97.76,185,96.93,185a1.49,1.49,0,0,1-1.54-1.43c0-.81.5-1.39,1.51-1.48"/><path class="cls-5" d="M114.37,176.64c1-.08,1.81.5,1.54,1.42s-.68,1.46-1.52,1.47a1.5,1.5,0,0,1-1.54-1.44c0-.79.5-1.37,1.52-1.45"/><path class="cls-5" d="M95.61,166.57c1-.1,2.75.66,2.45,2.18s-1.52,1-2.42.71-1.53-.64-1.54-1.43.5-1.38,1.51-1.46"/><path class="cls-5" d="M107.89,199.84a3.74,3.74,0,0,1,3.77,3.92c0,2.07-1.63,3.11-3.61,3.13a3.79,3.79,0,0,1-3.71-3.61c0-1.88,1.41-3.27,3.55-3.44"/><path class="cls-5" d="M101.69,185.15c2.5.11,3.67,2.1,3.62,4.51s-1.52,5.13-3.5,3.72-2.83-2.09-3.16-4.21.55-4.14,3-4"/><path class="cls-5" d="M120.41,199.53c2.3-1.52,3.53,1.29,2.85,4s-1,3-2.86,3.47-3.39-2.23-2.87-4,.56-2,2.88-3.52"/><path class="cls-5" d="M97.42,175.4c2.46-.51,4.22.28,4,1.65s-1.71,2.24-3.89,2.26-4-1.27-4-2.2,1.49-1.19,4-1.71"/><path class="cls-5" d="M119.76,170.71c-.21-1.68.66-2.8,1.84-2.54a2.24,2.24,0,0,1,1.61,2.77c-.2,1.46-1.54,2.59-2.35,2.53s-.89-1.07-1.1-2.76"/><path class="cls-5" d="M115.56,181.65c1.88-.1,3.73-1.9,5.65-1.27,1,.3,2.09,2.44,2,3-.2,1.21-3.21,1.83-6.91,1.7s-7,.19-7.77-1.87,5.14-1.48,7-1.57"/><path class="cls-5" d="M121.36,157.68c.71,0,1.71.55,1.71,1.44a1.47,1.47,0,0,1-1.28,1.61,1.6,1.6,0,0,1-1.48-1.59c0-.88.33-1.46,1-1.46"/><path class="cls-5" d="M91.89,151.88c.46-.65,2.5-.29,3.76.56s2.31,2.25,1.86,2.91-2.3.55-3.55-.31-2.52-2.49-2.07-3.16"/><path class="cls-5" d="M96.92,143.63c1.06-.78,2.15-.27,3.23.47s2,1.93,1.59,2.51-1.3.25-3-.27-2.83-2-1.77-2.71"/><path class="cls-5" d="M118.91,147.35a3,3,0,0,1,3,.44c.8.53,1.84,1.79,1.48,2.32s-1.21.26-2.83-.25-3-2-1.65-2.51"/><path class="cls-5" d="M111.84,139.5c1,.25,1.18.36,1.34,1.16s-.42,1.25-1.27,1.14-1.11-.2-1.39-1.12.31-1.45,1.32-1.18"/><path class="cls-5" d="M100.1,133.83c1.15.16,1.38.35,1.28,1.32s-.41,1.25-1.27,1.13-1.11-.19-1.38-1.12.22-1.49,1.37-1.33"/><path class="cls-5" d="M105.65,123.55c1,.23,1.76.6,1.77,1.36a1.61,1.61,0,0,1-1.75,1.39c-1,0-2.26-.51-2.27-1.55s1.28-1.45,2.25-1.2"/><path class="cls-5" d="M120.8,126.72c1.4.47,2.5,1,2.38,1.86s-1.38,1.31-2.8,1.11-3.26-1.05-3.1-2.18,2.13-1.26,3.52-.79"/><path class="cls-5" d="M123.84,114.81c2,1.43,2.86,1.22,2.8,2.53s-1.56,1.46-3.31.31-3.48-1.24-3.72-3,2.21-1.31,4.23.12"/><path class="cls-5" d="M97.86,113.53a1.31,1.31,0,0,1,1.19,1.41,1.24,1.24,0,0,1-1.17,1.44c-.71,0-.75-.3-1.19-1.42s.27-1.63,1.17-1.43"/><path class="cls-5" d="M92.2,120.4c.9.2,1.31.52,1.39,1.31s-.4,1.59-1.32,1.4a1.79,1.79,0,0,1-1.54-1.57c-.09-.78.57-1.34,1.47-1.14"/><path class="cls-5" d="M87.39,133.19c.9.19,1.32.53,1.4,1.32s-.4,1.58-1.32,1.39a1.8,1.8,0,0,1-1.55-1.57,1.09,1.09,0,0,1,1.47-1.14"/><path class="cls-5" d="M83.14,127.65c1.13.2,1.66.53,1.75,1.32a1.29,1.29,0,0,1-1.67,1.39c-1.15-.19-1.83-.77-1.94-1.57s.72-1.33,1.86-1.14"/><path class="cls-5" d="M74.55,134.55c1.27.19,1.86.53,2,1.32s-.57,1.58-1.87,1.4-2-.79-2.17-1.58.8-1.33,2.08-1.14"/><path class="cls-5" d="M64,131.92a1.46,1.46,0,0,1,1.25,1.51c.07.9-.35,1.81-1.18,1.59a1.92,1.92,0,0,1-1.38-1.8c-.09-.9.5-1.53,1.31-1.3"/><path class="cls-5" d="M65.35,120.45c1,.21,1.49.58,1.57,1.44s-.45,1.74-1.48,1.53a2,2,0,0,1-1.75-1.71c-.1-.86.65-1.47,1.66-1.26"/><path class="cls-5" d="M61.12,112c1,.21,1.23.49,1.31,1.35s-.45,1.73-1.49,1.52a2,2,0,0,1-1.74-1.72c-.1-.85.9-1.37,1.92-1.15"/><path class="cls-5" d="M59.9,101.57c.74.26.39.08,1,1.6s-.12,2.61-1.17,2-1.08-1.27-1.16-2.3.65-1.61,1.37-1.35"/><path class="cls-5" d="M42.12,109c1.38-.12,3.29.5,3.29.95s-1.67.11-3.32.86-3.14.48-2.75-.55,1.39-1.15,2.78-1.26"/><path class="cls-5" d="M45.47,125.08c.9,0,1.39,2.38,1.33,5s-.25,4.55-2.14,4.92-1.8-2.11-1.12-4.89,1-5,1.93-5"/><path class="cls-5" d="M39.43,127.19c.62,0,1,.66,1,1.46a1.49,1.49,0,0,1-1.32,1.49c-.62,0-.92-.65-.92-1.47a1.44,1.44,0,0,1,1.27-1.48"/><path class="cls-5" d="M153.23,154.45c2,.49,2.67.56,2.67,1.27s-1.13,1.09-2.61,1.11-2.4,0-2.71-1.06.68-1.8,2.65-1.32"/><path class="cls-5" d="M151.7,103.38c.6,0,.93.61.73,1.37a1.78,1.78,0,0,1-1.46,1.37c-.59,0-.91-.6-.71-1.35a1.78,1.78,0,0,1,1.44-1.39"/><path class="cls-5" d="M144.18,105.28a2,2,0,0,1,2.18,1.63c0,.9-1,1.64-2.15,1.66a2,2,0,0,1-2.19-1.63c0-.89.95-1.65,2.16-1.66"/><path class="cls-5" d="M148.92,112.49c1,0,1.89.62,1.89,1.39s-.83,1.4-1.86,1.42-1.88-.61-1.89-1.39.83-1.41,1.86-1.42"/><path class="cls-5" d="M132,107.14A1.65,1.65,0,0,1,133.9,109c-.16,1.07-.54,1.56-1.86,1.74s-2.16-.58-1.89-1.71.65-1.79,1.86-1.91"/><path class="cls-5" d="M132,91.47c6.55-1,9.12.33,9.79,3.7s-4.29,5-9.51,3.57-8.64-1.41-9.36-3.45,2.54-2.83,9.08-3.82"/><path class="cls-5" d="M117.41,94.36c1.25.39,1.8.89,1.81,1.82A1.88,1.88,0,0,1,117.44,98c-1,0-1.36-.38-1.79-1.81s.51-2.24,1.76-1.85"/><path class="cls-5" d="M103.1,94.31c2.44.42,2.91,1.34,2.92,2.49S104.76,99,103.18,99a2.8,2.8,0,0,1-2.87-2.18c-.52-1.4.36-3,2.79-2.55"/><path class="cls-5" d="M80.09,95.67c1.15.16,1.48.61,1.48,1.37a1.43,1.43,0,0,1-1.45,1.39c-.82,0-1.14-.43-1.49-1.36s.31-1.57,1.46-1.4"/><path class="cls-5" d="M40.25,74.67c.72,0,1.52,1.39,2.28,3.09s.92,3.4-.27,3.46-2.1-1.66-2.33-3.43-.39-3.12.32-3.12"/><path class="cls-5" d="M47.49,64.22c1.78.38,1.58.36,2.16,1.8s-.47,2.11-2,1.77-1.33-.32-2.08-1.72.09-2.23,1.88-1.85"/><path class="cls-5" d="M52.86,67.94c1.18-.89,3,0,4.13,1.39s2.73,2.77.91,3.34-2.21-.16-3.66-1.19-2.56-2.66-1.38-3.54"/><path class="cls-5" d="M74.6,59.34c2.17,2.39,3.17,6,.05,5.46-1.67-.3-2.25-1.12-2.54-2.72a2.17,2.17,0,0,1,2.49-2.74"/><path class="cls-5" d="M82.16,51.93c1,.1,1.18.48,1.37,1.5s-.45,1.61-1.35,1.44-1.21-.59-1.37-1.46a1.17,1.17,0,0,1,1.35-1.48"/><path class="cls-5" d="M78.47,27.41c1.16.17,1.18.3,1.62,1.74s-.5,1.78-1.59,1.44S77.23,30,77,29a1.21,1.21,0,0,1,1.5-1.6"/><path class="cls-5" d="M112.32,33.28c1.57,0,3.08,1.34,2.79,2.38s-.94,1.65-2.54,1.91-3.17-.57-3-1.81a2.8,2.8,0,0,1,2.78-2.48"/><path class="cls-5" d="M140,171.13c2.57.44,4.75,1.76,4.76,3.75s-2.47,3.5-4.69,3.52a3.79,3.79,0,0,1-4.08-3.6,3.22,3.22,0,0,1,4-3.67"/><path class="cls-5" d="M141.2,151.07c1.11.2,1.47.55,1.48,1.24a1.37,1.37,0,0,1-1.46,1.26c-.82,0-1.18-.35-1.49-1.24s.35-1.44,1.47-1.26"/><path class="cls-5" d="M142.37,139c1.12.2,1.18.63,1.19,1.32a1.33,1.33,0,0,1-1.46,1.19c-.82,0-1.18-.27-1.49-1.16s.65-1.54,1.76-1.35"/><path class="cls-5" d="M145.6,122.59c2.2-.86,3.05.21,2.74,1.34s-1.21,1.37-2.71,1.39-2.73-.6-2.74-1.34.51-.52,2.71-1.39"/><path class="cls-5" d="M143.87,72c1.8.33,2.66.69,2.67,1.57s-1.18,1.6-2.64,1.6-2.39-.42-2.66-1.55.83-2,2.63-1.62"/><path class="cls-5" d="M146,51.62c3,.48,3.86,1.43,3.88,3.22s-1.7,3.27-3.83,3.28-3.34-1.12-3.89-3.21.82-3.77,3.84-3.29"/><path class="cls-5" d="M121.73,53c2.1,0,4.21,1.63,4.22,3.33s-1.68,3.08-3.79,3.09-3.83-1.34-3.85-3A3.38,3.38,0,0,1,121.73,53"/><path class="cls-5" d="M122.44,62.57c2.08.59,2.44.79,2.45,1.79s-1.07,1.83-2.4,1.83-1.94-.38-2.44-1.78.33-2.44,2.39-1.84"/><path class="cls-5" d="M130.65,60.83c1.85,0,2.62.91,2.32,2A2.74,2.74,0,0,1,130.53,65a2.45,2.45,0,0,1-2.47-2.18c0-1,.73-2,2.59-2"/><path class="cls-5" d="M145.24,29.77c.71-.38,1.46-.38,1.66,0s-.23,1-1,1.36-1.47.39-1.67,0,.24-1,1-1.36"/><path class="cls-5" d="M49.81,158.17c.94.33,1.5.52,1.51,1.19a1.37,1.37,0,0,1-1.49,1.21c-.83,0-1.39-.18-1.52-1.18s.55-1.56,1.5-1.22"/><path class="cls-5" d="M68.85,155.29c-.31,1-.48,1.52-1.14,1.54a1.37,1.37,0,0,1-1.25-1.46c0-.82.14-1.39,1.14-1.54s1.57.51,1.25,1.46"/><path class="cls-5" d="M58.78,158.82c.37-.62,2.35-.86,3.67-.08a2.35,2.35,0,0,1,1.12,2.89c-.37.64-1.74.51-3.06-.26s-2.1-1.91-1.73-2.55"/><path class="cls-5" d="M75.28,167.86c-.06-1.5,2.11-1.75,4-.1s1.65,2.49,1.24,3.18-1.92.56-3.36-.3-1.84-1.3-1.9-2.78"/><path class="cls-5" d="M81.58,147.77c-.62-1.4,1.25-2.28,4.18-1.25s2.92,1.89,2.68,2.66-2.12,1.1-4.21.72-2-.73-2.65-2.13"/><path class="cls-5" d="M72.14,244.44c1-.6,2-1.24,1.85-2.94,0-1,.74-1,2.23-.27a6.68,6.68,0,0,1,2.13,2.34,3,3,0,0,1,.09,1.81c.74,1.12,1,1.69.07,2-6.28-1.24-6.74-2.12-6.37-2.94"/><path class="cls-5" d="M115.85,219.6a2,2,0,0,1,2,2.19,2.13,2.13,0,0,1-2,2.24c-1.09,0-1.68-.81-2-2.2a1.7,1.7,0,0,1,1.95-2.23"/><path class="cls-5" d="M82.79,83.27c2,.56,2.72.74,2.73,1.68s-1.21,1.72-2.7,1.74-2.36-.3-2.74-1.7.73-2.29,2.71-1.72"/><path class="cls-5" d="M90,82c1.58.45,2.19.59,2.19,1.35s-1,1.39-2.18,1.4-2.13.31-2.43-.8A1.77,1.77,0,0,1,90,82"/><path class="cls-5" d="M109.17,72.92c2.28.85,3.33,2.06,3.08,3.26s-2.11,1.5-4,1.13-3.52-.82-3.6-2.46,2.22-2.79,4.49-1.93"/><path class="cls-5" d="M94.83,73.45c2,1.44,2.32,3.12,1.75,4.21s-2.59,1.5-4.26.63-3-2.38-2.65-4,3.21-2.29,5.16-.85"/><path class="cls-5" d="M88.22,43.65c2,0,3.41,1.27,3.44,2.43.76-.83.18,2.27-.35.94a4.28,4.28,0,0,1-3.26,1.25c-2,0-3.72-1.42-3.73-2.6s1.9-2,3.9-2"/><path class="cls-5" d="M100.31,59.7c2,.17,3.51,1.87,3.4,3.26s-1.86,2-3.83,1.79-3.49-1.44-3.37-2.83,1.82-2.38,3.8-2.22"/><path class="cls-5" d="M162.41,36.7a1.18,1.18,0,1,1,0,2.3,1.18,1.18,0,1,1,0-2.3"/><path class="cls-5" d="M70.59,187.59c.86-.41,1.68.09,2.41,1.14s.82,2.24.21,2.66-1.62.11-2.78-.95a1.7,1.7,0,0,1,.16-2.85"/><path class="cls-5" d="M60.22,194.12a1.34,1.34,0,0,1-.1,1.16c.82.09,1.42.83,1.81,2,.47,1.36.21,2.68-.58,2.95s-1.33-.47-2.26-2a2.83,2.83,0,0,1-.49-1.74c-1,.49-2.1.42-2.44-.18s.06-1.63,1.25-2.65a1.68,1.68,0,0,1,2.81.44"/><path class="cls-5" d="M70.32,201.44l.92,1.18a2.17,2.17,0,0,1,0,.26,1.62,1.62,0,0,1-1.55,1.68c-.86,0-1.32-.49-1.58-1.65-.37-1.66,1-2,2.2-1.47"/><path class="cls-5" d="M59.31,207.41a2.39,2.39,0,0,1,2.23,2.51c0,1.4-1,3.1-2.19,2.57s-2.22-1.55-2.23-2.53,1-2.54,2.19-2.55"/><path class="cls-5" d="M68.09,209.54c1.37,0,2.49,1.42,2.51,3.16s-1.09,3.2-2.46,3.21-2.5-1.41-2.52-3.16,1.09-3.19,2.47-3.21"/></g><g id="Labels"><path class="cls-1" d="M23.19,52.38a.92.92,0,0,1-.58-.15.6.6,0,0,1-.19-.49v-.17a.32.32,0,0,1,.17-.27.81.81,0,0,1,.38-.12,3.38,3.38,0,0,0,1.18-.28l1-.55a1.76,1.76,0,0,0,.56-.29l.65-.45.27-.17.27-.24-.12-.11-.24-.27-.1-.23v-.22a.55.55,0,0,1,.08-.23l.16-.14a.63.63,0,0,1,.44-.18,1.46,1.46,0,0,1,.57.18l.18.1.22.14.66-.35.78-.43.42-.17a2.9,2.9,0,0,1,.82-.25.88.88,0,0,1,.38.12c.09.05.14.17.16.35v.14a.4.4,0,0,1-.16.22l-.28.19-.15.07-.45.2-.42.18-.66.19-.34.09.53.26.4.2.21.19.05.07v.12a.27.27,0,0,1,0,.14l0,.13a.34.34,0,0,1-.18.19l-.22.1-.27,0a.39.39,0,0,1-.17,0L28,49.65l-.37.23-.38.28-.51.31-.72.45-1.32.77-.53.28-.51.26-.28.09Z"/><path class="cls-1" d="M30.15,54.8a.38.38,0,0,1,.39.25l0,.2,0,.14a.16.16,0,0,1-.06.13l-.15.19-.12.06-.24.12-.25.12-.45.42-.41.3-.71.46-.64.38-.36.21a3.44,3.44,0,0,1-.42.2l-.71.27-.26.07a.54.54,0,0,1-.38-.16.65.65,0,0,1-.14-.4l0-.19a.28.28,0,0,1,.09-.14l.09-.07.34-.18.73-.32.6-.3.42-.19.38-.22.73-.46.41-.28.38-.3.4-.23A.52.52,0,0,1,30.15,54.8Z"/><path class="cls-1" d="M18,47.49l.31,0a.66.66,0,0,1,.45.26l.13.2a.5.5,0,0,0,.27.14.45.45,0,0,0,.23-.09l.21-.19.15-.13.16-.14a.52.52,0,0,1,.15-.07.94.94,0,0,1,.25,0h.12l.12.07.19.09.1.06.07.09.11.27.08.23.07,0,.11,0a1.3,1.3,0,0,0,.47-.14l.21-.16.21-.22.09-.08a.56.56,0,0,1,.14-.09l.27-.15.23,0h.21a.15.15,0,0,1,.13.09l.13.16.05.13a.7.7,0,0,1-.18.51l-.24.28a.61.61,0,0,1-.28.21l-.31.17-.37.15-.37.12-.67.12a1.12,1.12,0,0,1-.55-.14l-.21-.18L20,48.89h-.41a1.06,1.06,0,0,0-.33,0,.43.43,0,0,0-.22.12l-.45.41L18,50l-.7.51a1,1,0,0,1-.19.14l-.26.17-.3.19-1,.55-.75.42-.3.13-.35.12-.3.07-.33,0-.21,0L13,52.22a.6.6,0,0,1-.3-.6.46.46,0,0,1,.29-.44l.21,0h.16l.6,0a2,2,0,0,0,.66-.26l.67-.35.78-.41.71-.47.54-.43.13-.15a.3.3,0,0,0,.05-.16l-.25-.48,0-.23v-.12a.17.17,0,0,1,0-.12l.13-.19A1,1,0,0,1,18,47.49Z"/><path class="cls-1" d="M14.06,50l-.47.45-.31.23-.36.22-.59.29-.57.18-.65.14-.67,0H9.5a.53.53,0,0,1-.24-.06,1.6,1.6,0,0,1-1.19-1A2.1,2.1,0,0,1,8,49.88a2.08,2.08,0,0,1,.21-.77l.26-.32.32-.32L9,48.33l.19-.1.41-.2.38-.13.37,0h.36a1.11,1.11,0,0,1,.26.07,1,1,0,0,1,.21.11l.35.34.34-.32.28-.2.16-.09.2-.08.39-.08.43,0a1.6,1.6,0,0,1,1.28.54l.14.21a1.24,1.24,0,0,1,.07.27v.23A2.19,2.19,0,0,1,14.06,50Zm-3.35-.9L10.48,49l-.25,0-.17,0H10l-.13,0-.25.1A1,1,0,0,0,9,50a.46.46,0,0,0,.25.39l.41.17.63-.9Zm3-.3c0-.21-.16-.32-.48-.32l-.19,0a1.4,1.4,0,0,0-.5.25l-.63.51-.38.34-.3.35-.16.22-.26.4.82-.14.11,0a.55.55,0,0,0,.18,0,1.73,1.73,0,0,0,.28-.16l.51-.34.41-.29C13.49,49.27,13.69,49,13.69,48.79Z"/><path class="cls-1" d="M13.41,41.15h.51a.48.48,0,0,1,.18,0,1.7,1.7,0,0,1,.94.23.69.69,0,0,1,.33.61,1.79,1.79,0,0,1-.6,1l-.38.4-.47.41a4.78,4.78,0,0,1-.47.33,3.81,3.81,0,0,1-.57.29l-.84.35-.43.2-.29,0c-.05,0-.13-.06-.24-.19L11,44.76l-.07-.16a.55.55,0,0,1,.1-.31.89.89,0,0,1,.35-.24l.37-.1.42-.14a2.07,2.07,0,0,0,.44-.19A2.17,2.17,0,0,0,14,42.32L14,42.26l-.1,0-.31,0-.24,0-.24,0H12.8l-.14,0-.2.11-.15.08-.15.07h-.23a.4.4,0,0,1-.22-.09l-.16-.23,0-.18a.39.39,0,0,1,.2-.37,4.07,4.07,0,0,1,.8-.33A3.47,3.47,0,0,1,13.41,41.15Z"/><path class="cls-1" d="M8.33,47.15h.16l.14,0a.63.63,0,0,1,.27.32l0,.3a.38.38,0,0,1-.14.34l-.57.24.28.28a.84.84,0,0,1,.27.62v.28s0,.06,0,.09a.22.22,0,0,1,0,.1,1.44,1.44,0,0,1-.77,1L7.53,51l-.29.09-.35,0H6.53l-.36,0-.7-.16-.12-.08-.45.38-.21.19-.27.21L3.83,52l-.25.16-.45.29-.42.24-.85.48-.17.07-.2.1-.35.19-.33,0a.81.81,0,0,1-.73-.41l0-.11,0-.23a.41.41,0,0,1,.12-.32l.16-.12.12-.07h.74a1.26,1.26,0,0,0,.55-.13l.94-.51L3,51.51l.55-.36.35-.25.23-.24.19-.15.21-.22L4.35,50l0-.17,0-.17a.66.66,0,0,1,.39-.44l.3-.06h.19l.26.13a.43.43,0,0,1,.26.27l0,.23.08.07.24.16.26.11h.33l.22,0,.18-.07a1.47,1.47,0,0,0,.45-.29l.12-.19.06-.16a.57.57,0,0,0-.08-.31L7.48,49l-.19-.12-.19-.12-.36-.18L6.4,48.3l-.06-.13,0-.17a.22.22,0,0,1,.11-.21l.32-.15H7l.32,0,.22-.09.2-.14.19-.11.2-.09Z"/><path class="cls-1" d="M4,41.21h.22l.18,0,.5.09.52.15.36.16a.81.81,0,0,1,.49.68l0,.25-.13.23L6,43l-.37.3-1.26.84-1.17.62L2.67,45l-.44.09a.46.46,0,0,1-.33-.14l-.1-.16,0-.21.05-.21s.06-.11.16-.2L2.39,44l.77-.34,1-.51.41-.21.3-.22.06-.13c0-.19-.25-.29-.76-.29l-.52,0L3,42.5c-.43,0-.65-.17-.65-.53a.45.45,0,0,1,.1-.31,1,1,0,0,1,.34-.21l.61-.2Zm4.36,0a3.13,3.13,0,0,1,.83.13.8.8,0,0,1,.26.08l.18.08.37.26a.83.83,0,0,1,.26.27.78.78,0,0,1,.09.39l0,.13-.09.17L10,43l-.19.22-.18.2-.25.21-.7.56L8,44.64,7.39,45l-.26.07-.3,0-.22,0s-.1,0-.19-.11l-.09-.19a.26.26,0,0,0,0-.14.35.35,0,0,1,.12-.24l.22-.12.29-.14L7.35,44l.73-.41.55-.44.3-.26a.51.51,0,0,0,.12-.24.28.28,0,0,0-.19-.28l-.43,0-.28,0-.2,0-.22.09-.17,0-.15,0L7,42.5l-.16-.08-.06-.05-.09-.07a1.15,1.15,0,0,1-.07-.25l0-.14a.51.51,0,0,1,.09-.16,1.87,1.87,0,0,1,.28-.2l.19-.09.19,0a2.71,2.71,0,0,1,.44-.13l.33,0Z"/><path class="cls-1" d="M168.25,0h.22l.17,0,.51.09.52.15.36.16a.85.85,0,0,1,.49.69l0,.25-.13.22-.15.2-.36.3-1.26.84-1.17.62-.49.22-.44.08a.5.5,0,0,1-.34-.14l-.09-.16,0-.21,0-.21a.59.59,0,0,1,.17-.2l.41-.19.77-.34,1-.5.41-.22.3-.22.06-.13c0-.19-.25-.28-.76-.28l-.52,0-.61.21c-.44,0-.65-.18-.65-.54a.45.45,0,0,1,.1-.31,1,1,0,0,1,.34-.21l.61-.2Zm4.35,0a3.13,3.13,0,0,1,.84.13.88.88,0,0,1,.26.08l.18.09.37.25a.86.86,0,0,1,.26.28.71.71,0,0,1,.09.38l-.06.14-.08.16-.19.22-.19.22-.19.21-.25.2L173,3l-.69.47-.62.35-.27.07-.29,0-.22,0a.32.32,0,0,1-.19-.1l-.09-.19a.28.28,0,0,0,0-.15.35.35,0,0,1,.12-.24l.22-.12.28-.14.43-.19.73-.4.55-.44.3-.26a.82.82,0,0,0,.12-.25.26.26,0,0,0-.19-.27l-.44,0-.27,0-.2,0-.22.09-.17.05-.15,0-.38,0-.16-.08-.06-.05L171,1.09a1.21,1.21,0,0,1-.07-.24V.7a.86.86,0,0,1,.1-.16,1.91,1.91,0,0,1,.28-.19l.19-.09.19-.05a2.71,2.71,0,0,1,.44-.13l.33,0Z"/><path class="cls-1" d="M173.06,5.94h.17a.32.32,0,0,1,.14,0,.65.65,0,0,1,.27.31l0,.3a.38.38,0,0,1-.14.34l-.57.24.28.28a.86.86,0,0,1,.27.62v.28a.29.29,0,0,0,0,.09.16.16,0,0,1,0,.1,1.4,1.4,0,0,1-.76,1l-.41.23-.29.09-.36,0h-.35l-.36-.05-.7-.16-.12-.08-.45.38-.22.2-.26.2-.59.43-.25.16-.45.29-.42.25-.85.47-.17.07-.2.1-.35.19-.34.05a.81.81,0,0,1-.72-.41l0-.11,0-.23a.39.39,0,0,1,.12-.31l.16-.13.12-.06h.73a1.29,1.29,0,0,0,.56-.14l.94-.51.33-.21.55-.36.35-.25.23-.24L169,9.3l.21-.22-.14-.27L169,8.64l0-.17a.68.68,0,0,1,.39-.44l.29-.06h.2l.26.12a.45.45,0,0,1,.26.27l0,.24.08.07.24.15.26.11h.33l.21,0,.19-.07a1.31,1.31,0,0,0,.45-.29l.12-.19.06-.16a.56.56,0,0,0-.08-.3l-.14-.16-.2-.12-.18-.12-.36-.18-.34-.24L171.08,7,171,6.79a.22.22,0,0,1,.11-.21l.32-.15h.59l.22-.1.2-.14.19-.11.19-.09Z"/><path class="cls-1" d="M180.86,13.26c.28,0,.42.22.42.67q0,.06-.18.21a1.2,1.2,0,0,1-.23.17,3.81,3.81,0,0,1-.32.21l-1.67,1-1.76,1a.34.34,0,0,1-.16,0c-.29,0-.43-.18-.43-.55,0-.19.16-.37.47-.54l.7-.39.66-.37,1.13-.71A5.89,5.89,0,0,1,180.86,13.26Zm.56,1.83.14-.05.21,0a.41.41,0,0,1,.42.33l.05.28a.31.31,0,0,1-.12.26l-2.45,1.44-1.15.66-.19.09-.21.07a.58.58,0,0,1-.4-.24l0-.18v-.17a.47.47,0,0,1,.16-.29,3,3,0,0,1,.57-.41l1-.51c.38-.2.76-.43,1.15-.67Z"/><path class="cls-1" d="M180.08,6.28h.22a.56.56,0,0,1,.19,0h.18l.17,0a.88.88,0,0,1,.39.07l.41.09c.5.12.74.34.74.66a1,1,0,0,1-.14.46,2.27,2.27,0,0,1-.18.25,2.12,2.12,0,0,1-.26.26l-.37.35-.45.36-.38.28-.58.39a16.2,16.2,0,0,1-1.73,1l-.71.34-.35.13-.43.14-.31,0-.22,0-.13-.07-.19-.14-.12-.24,0-.1c0-.3.1-.47.3-.5l.32,0,.28,0,.32,0,.2-.06.23-.05.27-.12.37-.19.59-.3.29-.12.47-.26.51-.28.3-.2.18-.14.26-.22a2,2,0,0,0,.33-.32l.09-.11,0,0a.13.13,0,0,0,0-.09l-.15-.07-.13,0-.33,0-.26,0-.16,0-.54.09-.08,0-.16.07-.17.06-.12.06h-.2l-.2,0-.24,0a.52.52,0,0,1-.34-.43.64.64,0,0,1,.08-.36,1,1,0,0,1,.34-.23l.28-.09.29-.1Z"/><path class="cls-1" d="M117.4,36.41h.23l.17,0,.5.08.52.15.37.16a.84.84,0,0,1,.48.69l0,.25-.14.23-.14.19-.36.31-1.27.84-1.17.61-.49.22-.44.09a.53.53,0,0,1-.33-.14l-.1-.17,0-.21,0-.2s.06-.12.16-.2l.41-.2.77-.33,1-.51.41-.22.3-.21.07-.14c0-.18-.26-.28-.77-.28l-.51,0-.62.21c-.43,0-.65-.18-.65-.53a.41.41,0,0,1,.1-.31,1,1,0,0,1,.34-.21l.61-.2Zm4.36.05a3.19,3.19,0,0,1,.84.13.82.82,0,0,1,.25.07l.18.09.37.25a.76.76,0,0,1,.26.28.74.74,0,0,1,.09.38l0,.14-.09.16-.19.23-.19.21-.18.21-.25.21-.7.55-.69.47-.61.36-.27.07-.3,0-.22,0a.33.33,0,0,1-.18-.1l-.1-.19a.61.61,0,0,0,0-.15.31.31,0,0,1,.12-.24l.21-.11.29-.14.42-.2.73-.4.55-.44.3-.26a.65.65,0,0,0,.12-.24.26.26,0,0,0-.19-.28l-.43,0-.28,0-.2,0-.22.09-.17.05-.15,0-.38,0-.15-.07-.07-.05-.09-.08a.89.89,0,0,1-.07-.24l0-.15a.38.38,0,0,1,.09-.15l.28-.2.2-.09.18-.05a1.93,1.93,0,0,1,.44-.12l.33,0Z"/><path class="cls-1" d="M122.22,42.35h.16a.29.29,0,0,1,.14,0,.64.64,0,0,1,.28.32l0,.3a.37.37,0,0,1-.14.33l-.57.24.28.28a.86.86,0,0,1,.27.63v.27a.38.38,0,0,0,0,.1.36.36,0,0,1,0,.09,1.44,1.44,0,0,1-.76,1l-.42.22-.29.1-.35,0h-.36l-.36,0-.69-.17-.13-.08-.45.39-.21.19-.27.21-.59.43-.25.16-.45.28-.42.25-.84.47-.18.08-.2.09-.34.19-.34.06a.8.8,0,0,1-.73-.42l0-.1,0-.23a.41.41,0,0,1,.12-.32l.16-.12.12-.07H115a1.25,1.25,0,0,0,.55-.14l.94-.51.33-.2.55-.36.35-.26.23-.24.19-.15.21-.22-.14-.26,0-.18,0-.17a.68.68,0,0,1,.39-.44l.3-.06h.2l.26.12a.5.5,0,0,1,.26.28l0,.23.08.07.24.16.26.1.33,0,.22,0,.18-.07a1.1,1.1,0,0,0,.45-.29l.12-.18.06-.17a.48.48,0,0,0-.08-.3l-.13-.16-.2-.12-.19-.12-.36-.17-.34-.24-.06-.13,0-.18a.2.2,0,0,1,.11-.2l.32-.15h.27l.32,0,.22-.1.2-.14.19-.11.2-.08Z"/><path class="cls-1" d="M130.84,50a.38.38,0,0,1,.39.25l.05.2,0,.14a.18.18,0,0,1-.06.14l-.16.19-.12.06-.23.11-.26.12-.45.43-.4.29-.72.46-.63.38-.37.21a4,4,0,0,1-.42.21l-.7.27-.26.07a.53.53,0,0,1-.38-.17A.64.64,0,0,1,126,53l0-.19a.37.37,0,0,1,.08-.14l.1-.06.34-.19.72-.32.61-.29.42-.19.38-.22.72-.46.42-.28.37-.3.41-.23A.5.5,0,0,1,130.84,50Z"/><path class="cls-1" d="M128.39,42.73l.17.06a.44.44,0,0,1,.37.46.56.56,0,0,1-.13.24l-.25.18-.32.13.61.14.24.07.28.08c.43.07.65.26.65.57l-.08.15-.26.21-.17.14-.26.19-.89.5-.19.14a.18.18,0,0,0,0,.14l1,.21.8.16.29,0c.3,0,.45.13.45.4s-.09.51-.27.53l-.44,0h-.18l-.27,0-.41-.08-.49-.09-.22,0-.23-.06-1.38-.37-.11,0-.08,0-.11-.06-.18-.1s-.08-.09-.11-.21a.35.35,0,0,1,.11-.24l.18-.2.5-.35.56-.33.51-.33.34-.26L128,44.6l-1.53-.22a.14.14,0,0,1-.12-.09l0-.25.26-.19.43-.33.53-.35.47-.27A1.61,1.61,0,0,1,128.39,42.73Z"/><path class="cls-1" d="M134.66,42.69l.31,0a.67.67,0,0,1,.45.27l.13.19a.42.42,0,0,0,.27.14.53.53,0,0,0,.23-.08l.21-.19.15-.13.16-.14a.35.35,0,0,1,.15-.07.9.9,0,0,1,.25,0h.12l.12.06.19.1.1.06.06.09.12.26.08.24.07,0,.11,0a1.24,1.24,0,0,0,.47-.13l.21-.17.21-.21.09-.09.13-.09.28-.15.23,0h.2a.15.15,0,0,1,.14.1l.13.15.05.14a.76.76,0,0,1-.18.51l-.24.28a.61.61,0,0,1-.28.21l-.31.16-.37.16-.37.11-.67.13a1.09,1.09,0,0,1-.56-.15l-.2-.17-.23-.23h-.41a1,1,0,0,0-.33.05.51.51,0,0,0-.22.11l-.45.42-.68.56-.7.52-.19.14a3,3,0,0,1-.26.16l-.3.19-1,.56-.75.41-.3.13a1.62,1.62,0,0,1-.35.12l-.31.07-.32,0-.21,0-.24-.09a.59.59,0,0,1-.3-.6.48.48,0,0,1,.29-.44l.21,0h.76a1.79,1.79,0,0,0,.66-.26l.67-.34.78-.42.71-.47.54-.42.13-.16a.25.25,0,0,0,0-.15l-.25-.48,0-.23v-.13a.21.21,0,0,1,0-.12L134,43A.93.93,0,0,1,134.66,42.69Z"/><path class="cls-1" d="M147.72,37.19a.51.51,0,0,1,.32-.12q.48,0,.48.63l0,.15a.41.41,0,0,1-.09.1,18,18,0,0,1-1.83,1.25,14.43,14.43,0,0,1-1.84.93l-.24.08-.19.06c-.16,0-.28-.1-.37-.3l0-.16,0-.23q0-.22.3-.33a11.17,11.17,0,0,0,1.45-.77l.47-.28c.25-.14.48-.28.71-.43Z"/><path class="cls-1" d="M147.18,45.19l-.47.45-.32.24-.35.21-.59.29-.58.18-.65.14-.66,0h-.95a.6.6,0,0,1-.24-.06,1.62,1.62,0,0,1-1.18-1,1.86,1.86,0,0,1-.08-.6,2,2,0,0,1,.2-.77l.26-.32.33-.31.16-.14.19-.1.41-.2.39-.13.37,0h.35a1,1,0,0,1,.26.06.66.66,0,0,1,.22.12l.35.34.33-.33.28-.19.17-.09.19-.08.4-.09.42,0a1.58,1.58,0,0,1,1.28.54l.14.21a.7.7,0,0,1,.07.26V44A2.15,2.15,0,0,1,147.18,45.19Zm-3.35-.9-.24-.13-.24,0-.17,0H143l-.24.11a1,1,0,0,0-.59.91.47.47,0,0,0,.24.39l.42.17.63-.91Zm3-.3c0-.21-.15-.31-.47-.31l-.19,0a1.32,1.32,0,0,0-.5.25l-.64.5-.38.35-.29.34-.17.23-.26.4.83-.14.11,0,.18-.06a1.2,1.2,0,0,0,.28-.16l.51-.34.41-.29C146.61,44.47,146.8,44.22,146.8,44Z"/><path class="cls-1" d="M126.22,232.54h.22l.18,0,.5.08.52.15.36.16a.83.83,0,0,1,.49.69l0,.25-.12.23-.15.2-.37.3-1.26.84-1.17.61-.48.22-.45.09a.51.51,0,0,1-.33-.14l-.1-.17,0-.21.05-.2c0-.05.06-.11.16-.2l.41-.2.77-.33,1-.51.41-.22.31-.21.05-.14c0-.18-.25-.28-.76-.28l-.52,0-.61.21c-.43,0-.65-.18-.65-.53a.41.41,0,0,1,.1-.31,1,1,0,0,1,.34-.21l.61-.2Zm4.36.05a3.25,3.25,0,0,1,.84.13.82.82,0,0,1,.25.07l.18.09.37.25a.85.85,0,0,1,.26.28.74.74,0,0,1,.09.38l0,.14-.09.16-.19.23-.19.21-.18.21-.25.21-.7.55-.69.47-.62.36-.26.07-.3,0-.22,0a.38.38,0,0,1-.19-.1l-.09-.19a.33.33,0,0,0,0-.15.35.35,0,0,1,.12-.24l.22-.11.29-.14.42-.2.73-.4.55-.44.3-.26a.57.57,0,0,0,.12-.24.27.27,0,0,0-.19-.28l-.43,0-.28,0-.2,0-.22.09-.17.05-.15,0-.38,0-.16-.07-.06,0-.09-.08a.89.89,0,0,1-.07-.24l0-.15a.46.46,0,0,1,.09-.15,1.87,1.87,0,0,1,.28-.2l.19-.09.19-.05a1.93,1.93,0,0,1,.44-.12l.33,0Z"/><path class="cls-1" d="M131,238.48h.17a.29.29,0,0,1,.14,0,.64.64,0,0,1,.28.32l0,.3a.35.35,0,0,1-.14.33l-.57.25.28.27a.86.86,0,0,1,.27.63v.27a.38.38,0,0,0,0,.1.36.36,0,0,1,0,.09,1.43,1.43,0,0,1-.77,1l-.41.22-.29.1-.35,0h-.36l-.36,0-.69-.17-.12-.08-.46.39-.21.19-.27.21-.59.43-.25.16-.45.28-.42.25-.85.47-.17.08-.2.09-.34.19-.34.06a.8.8,0,0,1-.73-.42l0-.1-.05-.23a.41.41,0,0,1,.12-.32l.16-.12.12-.07h.74a1.25,1.25,0,0,0,.55-.14l.95-.5.32-.21.55-.36.36-.26.22-.24.19-.15.21-.22-.14-.26,0-.18,0-.17a.7.7,0,0,1,.39-.44l.3-.06h.2l.26.12a.47.47,0,0,1,.26.28l0,.23.08.07.24.16.26.1.33,0,.22,0,.18-.07a1.17,1.17,0,0,0,.45-.29l.12-.18.06-.17a.48.48,0,0,0-.08-.3l-.13-.16-.21-.12-.18-.12-.36-.17-.34-.24-.06-.13-.05-.18a.2.2,0,0,1,.11-.2l.32-.15h.27l.32,0,.22-.1.2-.14.19-.11.2-.08Z"/><path class="cls-1" d="M135.17,232.54h.23l.17,0,.51.08.51.15.37.16a.84.84,0,0,1,.48.69l0,.25-.13.23-.15.2-.36.3-1.27.84-1.16.61-.49.22-.44.09a.53.53,0,0,1-.34-.14l-.1-.17,0-.21,0-.2c0-.05.06-.11.17-.2l.4-.2.78-.33,1-.51.41-.22.3-.21.06-.14c0-.18-.25-.28-.76-.28l-.52,0-.62.21c-.43,0-.65-.18-.65-.53a.46.46,0,0,1,.1-.31,1.06,1.06,0,0,1,.35-.21l.6-.2Zm4.36.05a3.13,3.13,0,0,1,.84.13.82.82,0,0,1,.25.07l.18.09.38.25a1,1,0,0,1,.26.28.86.86,0,0,1,.08.38l-.05.14-.08.16-.19.23-.19.21-.19.21-.25.21-.69.55-.69.47-.62.36-.27.07-.29,0-.23,0a.33.33,0,0,1-.18-.1l-.09-.19a.33.33,0,0,0,0-.15.35.35,0,0,1,.12-.24l.22-.11.28-.14.43-.2.73-.4.55-.44.29-.26a.7.7,0,0,0,.13-.24.27.27,0,0,0-.19-.28l-.44,0-.28,0-.2,0-.21.09-.17.05-.15,0-.38,0-.16-.07-.07,0-.09-.08a1.54,1.54,0,0,1-.07-.24l0-.15a.78.78,0,0,1,.1-.15,1.87,1.87,0,0,1,.28-.2l.19-.09.19-.05a1.93,1.93,0,0,1,.44-.12l.32,0Z"/><path class="cls-1" d="M139.31,241.32l-.47.45-.32.24-.36.21-.58.29-.58.19-.65.13-.66,0h-.95a.6.6,0,0,1-.24-.06,1.64,1.64,0,0,1-1.19-1,2.18,2.18,0,0,1-.08-.6,2.12,2.12,0,0,1,.21-.77l.26-.32.32-.31.17-.14.19-.1.41-.2.38-.13.38-.05h.35a.71.71,0,0,1,.26.07.65.65,0,0,1,.22.11l.35.34.33-.33.28-.19.17-.09.19-.08.39-.09.43,0a1.59,1.59,0,0,1,1.28.54l.14.21a.7.7,0,0,1,.07.26v.24A2.17,2.17,0,0,1,139.31,241.32Zm-3.36-.9-.23-.13-.24,0-.17,0h-.22l-.24.11a1,1,0,0,0-.59.91.47.47,0,0,0,.24.39l.41.17.64-.91Zm3-.3c0-.21-.16-.31-.47-.31l-.19,0a1.32,1.32,0,0,0-.5.25l-.64.5-.38.35-.29.34-.17.23-.26.4.82-.14.12,0a.74.74,0,0,0,.18-.06,1.2,1.2,0,0,0,.28-.16l.51-.34.4-.29C138.74,240.6,138.93,240.35,138.93,240.12Z"/><path class="cls-1" d="M143.71,238.82l.31,0a.67.67,0,0,1,.45.27l.12.19a.4.4,0,0,0,.28.14.42.42,0,0,0,.22-.08l.21-.19.16-.13.15-.14a.34.34,0,0,1,.16-.07.78.78,0,0,1,.24,0h.12l.12.06.19.1.1.06.07.09.11.26.09.24.07,0,.1,0a1.28,1.28,0,0,0,.48-.14l.2-.17.21-.21.1-.09.13-.09.27-.15.23,0h.21c.06,0,.1,0,.14.1l.13.15,0,.14a.76.76,0,0,1-.18.51l-.25.28a.57.57,0,0,1-.27.21l-.32.16-.37.16-.37.11-.67.13a1.06,1.06,0,0,1-.55-.15l-.21-.17-.22-.23h-.42a1,1,0,0,0-.32,0,.55.55,0,0,0-.23.11l-.45.42-.68.56-.69.52-.2.14-.25.17-.31.18-1,.56-.76.41-.3.13a2.19,2.19,0,0,1-.35.13l-.3.06-.33,0-.21,0-.24-.09c-.2-.09-.29-.29-.29-.6a.47.47,0,0,1,.28-.44l.22,0h.75a1.79,1.79,0,0,0,.66-.26l.67-.34.78-.42.71-.47.54-.42.13-.16a.34.34,0,0,0,.06-.15l-.26-.48,0-.23v-.12a.24.24,0,0,1,0-.13l.13-.18A1,1,0,0,1,143.71,238.82Z"/><path class="cls-1" d="M156.21,232.56l.28-.11.3,0a.63.63,0,0,1,.44.11.34.34,0,0,1,.17.3.38.38,0,0,1-.16.35l-.11.08-.2.09-.38.17-1.1.5c-.58.27-.86.61-.86,1a.45.45,0,0,0,.18.35l.12,0,.17.06.38,0,.34,0,.14,0,.14-.05a1,1,0,0,1,.18-.09l.18-.07a.42.42,0,0,1,.29.07l.17.21a.67.67,0,0,1,.05.28c-.05.29-.32.5-.82.64l-.31.08-.3,0-.45,0-.49-.14-.25-.08-.23-.15a1.25,1.25,0,0,1-.64-1.11,1.28,1.28,0,0,1,.25-.71l.24-.3.33-.32.27-.2.34-.22.61-.37Z"/><path class="cls-1" d="M155.84,239.06h.25l.17,0a.44.44,0,0,1,.16.09.82.82,0,0,1,.42.55l.07.31,0,.21a.65.65,0,0,1,0,.17l0,.24-.12.45-.15.42-.14.32-.19.36a1.78,1.78,0,0,1-.52.65l-.24.05-.13,0-.14,0-.13-.05-.21-.14-.05-.22a.68.68,0,0,1,0-.18.64.64,0,0,1,.1-.16l.2-.27.21-.31.36-.66.12-.36a.55.55,0,0,0,0-.09.2.2,0,0,0,0-.11l-.09,0a.59.59,0,0,0-.39.14l-.32.28-.71.59L153,242.42l-.51.35-.56.34-.43.24-.36.13-.28,0-.26,0-.16,0a.41.41,0,0,1-.17-.38v-.19a.49.49,0,0,1,0-.15l.08-.18c0-.05.11-.12.28-.2l.37,0h.3l.22-.05.44-.23.69-.46.33-.24.34-.28.43-.38.44-.37.43-.4.44-.38A1.16,1.16,0,0,1,155.84,239.06Z"/><path class="cls-1" d="M163.6,231.75l.17-.1a.48.48,0,0,1,.18,0c.31,0,.46.21.46.63a.3.3,0,0,1-.11.26,22.33,22.33,0,0,1-2,1.32c-.29.17-.59.33-.87.47a8.06,8.06,0,0,1-.86.38l-.41.14a.38.38,0,0,1-.22-.07.89.89,0,0,1-.16-.22l0-.12v-.18s0-.07,0-.09a.48.48,0,0,1,.09-.24c0-.05.06-.08.08-.09l.13-.07a4.76,4.76,0,0,0,1.47-.68A12.76,12.76,0,0,0,163.6,231.75Zm1,1.71a.56.56,0,0,1,.33-.12q.48,0,.48.63a.61.61,0,0,1,0,.15.31.31,0,0,1-.1.1,16.76,16.76,0,0,1-1.82,1.24,15.22,15.22,0,0,1-1.84.94l-.24.08-.19.06c-.16,0-.28-.1-.38-.29l0-.17,0-.22c0-.16.1-.27.29-.34a9.35,9.35,0,0,0,1.46-.77l.48-.28c.24-.14.48-.28.7-.43S164.33,233.64,164.57,233.46Z"/><path class="cls-1" d="M162.63,238.83h.23l.19,0h.17l.17,0a1,1,0,0,1,.39.07l.41.1c.5.11.74.33.74.66a.84.84,0,0,1-.14.45,1.44,1.44,0,0,1-.18.25,3,3,0,0,1-.25.27L164,241l-.45.36-.38.28-.58.39a14.49,14.49,0,0,1-1.72,1l-.72.35-.35.12-.42.14-.32,0-.22,0-.13-.07-.19-.14-.12-.24,0-.1c0-.3.1-.46.3-.5l.32,0h.29l.31,0,.21-.05.22-.06a1.23,1.23,0,0,0,.28-.12l.36-.18.6-.3.28-.13.47-.25.51-.29.31-.2.18-.14.26-.21a3.42,3.42,0,0,0,.33-.33l.08-.1,0,0a.16.16,0,0,0,0-.09l-.15-.06-.14,0-.33,0-.26,0-.16,0-.54.08-.08,0-.16.08-.17.06-.12.05h-.2l-.2,0-.24,0a.55.55,0,0,1-.34-.43.71.71,0,0,1,.08-.36.93.93,0,0,1,.34-.23l.28-.1.3-.1Z"/><path class="cls-1" d="M48.77,254.06,49,254h.09a.22.22,0,0,1,.13,0l.11.07.13.14,0,.22,0,.15a.46.46,0,0,1-.11.22l-.18.16-.52.4-.67.48-.65.44-1.1.66-.45.21a4,4,0,0,1-.69.31l-.24.09-.3.09-.35,0a.32.32,0,0,1-.22-.1.46.46,0,0,1-.22-.27v-.2a.72.72,0,0,1,.15-.36l.25-.27.17-.21.11-.16.08-.28,0-.19,0-.29,0-.5a1.25,1.25,0,0,1,.05-.36.36.36,0,0,1,.09-.08l.18-.1.29-.06.25,0a.41.41,0,0,1,.24.13.51.51,0,0,1,.21.46l0,.16,0,.16-.16.34-.14.51-.12.35.22-.08.25-.16.36-.21.47-.29.87-.57.19-.14.29-.27.51-.38Z"/><path class="cls-1" d="M48.26,247.72h.51a.48.48,0,0,1,.18,0,1.79,1.79,0,0,1,.94.22.71.71,0,0,1,.33.62,1.79,1.79,0,0,1-.6,1l-.38.4-.47.41a4.78,4.78,0,0,1-.47.33,3.81,3.81,0,0,1-.57.29l-.84.35-.43.2-.29,0c-.05,0-.13-.07-.24-.19l-.07-.13-.07-.16a.52.52,0,0,1,.1-.31.89.89,0,0,1,.35-.24l.37-.11.42-.13a2.07,2.07,0,0,0,.44-.19,2.17,2.17,0,0,0,1.41-1.3l-.08-.06-.1-.05-.31,0-.24,0-.24,0h-.26l-.14,0-.2.11-.15.08L47,249h-.23a.32.32,0,0,1-.22-.1l-.16-.22,0-.18a.39.39,0,0,1,.2-.37,4.07,4.07,0,0,1,.8-.33A3.47,3.47,0,0,1,48.26,247.72Z"/><path class="cls-1" d="M40.33,254.1l.17.05a.44.44,0,0,1,.37.46.56.56,0,0,1-.13.24l-.25.18-.32.13.61.14.24.08.28.08c.43.06.65.25.65.56l-.08.16-.26.2-.17.14-.26.2-.89.49-.19.14a.18.18,0,0,0,0,.14l1,.21.8.16.29,0c.3,0,.45.14.45.41s-.09.5-.27.53h-.62l-.27,0-.41-.07-.49-.09-.22,0-.23-.06-1.38-.37-.12,0-.07,0-.11-.06-.18-.11s-.08-.09-.11-.21a.33.33,0,0,1,.11-.24l.18-.2L39,257l.56-.34.51-.33.34-.26-.52,0-1.53-.22s-.09,0-.13-.09v-.25l.26-.19.43-.33.53-.36.46-.27A1.66,1.66,0,0,1,40.33,254.1Z"/><path class="cls-1" d="M43.9,248.55a.54.54,0,0,1,.33-.11c.31,0,.47.2.47.63l0,.14a.29.29,0,0,1-.09.11,16.76,16.76,0,0,1-1.82,1.24,15.13,15.13,0,0,1-1.84.93l-.25.08-.19.06a.43.43,0,0,1-.37-.29l0-.17,0-.23c0-.15.1-.26.3-.32a11.9,11.9,0,0,0,1.45-.77l.48-.28.7-.43C43.37,248.93,43.66,248.73,43.9,248.55Z"/><path class="cls-1" d="M35.4,254.17l.18-.13.18,0,.28.06a.23.23,0,0,1,.17.16l0,.21a.43.43,0,0,1,0,.25l-.24.21-.32.34-.21.16-.16.13-1.28.79-1.31.75-.64.33-.63.26-.65.25a1.82,1.82,0,0,1-.63.11,1,1,0,0,1-.55-.18l-.19-.15a.24.24,0,0,1-.06-.11.68.68,0,0,1,0-.14v-.15a.35.35,0,0,1,0-.12.57.57,0,0,1,.27-.3l.25-.1.24,0,.39,0h.14a2.41,2.41,0,0,0,1-.25l.7-.34,1.57-.91,1.12-.73Z"/><path class="cls-1" d="M35.6,247.72h.51a.4.4,0,0,1,.17,0,1.74,1.74,0,0,1,.94.22.72.72,0,0,1,.34.62,1.82,1.82,0,0,1-.61,1l-.38.4-.47.41a4.78,4.78,0,0,1-.47.33,3.71,3.71,0,0,1-.56.29l-.85.35-.42.2-.3,0s-.13-.07-.23-.19l-.07-.13-.07-.16a.46.46,0,0,1,.1-.31.76.76,0,0,1,.35-.24l.36-.11.43-.13a2.37,2.37,0,0,0,.44-.19,2.12,2.12,0,0,0,1.4-1.3l-.08-.06-.09-.05-.32,0-.24,0-.24,0H35l-.14,0-.2.11-.15.08-.15.07h-.23a.35.35,0,0,1-.22-.1l-.16-.22,0-.18a.4.4,0,0,1,.2-.37,4.16,4.16,0,0,1,.81-.33A3.41,3.41,0,0,1,35.6,247.72Z"/><path class="cls-1" d="M30.56,255.56c0,.45-.43,1-1.3,1.55l-1.59,1.07-.68.41a6.09,6.09,0,0,1-2.4,1.05c-.55,0-.83-.21-.83-.65a.59.59,0,0,1,.3-.51.77.77,0,0,1,.41-.08h.09l.12,0,.14.07.08,0h.21l.17,0,.27-.08.72-.38.29-.16.49-.3.28-.2c-.59-.27-.89-.6-.89-1a1.65,1.65,0,0,1,.64-1.31l.29-.2.31-.23a2.93,2.93,0,0,1,1.34-.34,1.88,1.88,0,0,1,1.22.46A1,1,0,0,1,30.56,255.56Zm-1.09-.12q-.12-.21-.66-.21a1.74,1.74,0,0,0-1,.47l-.14.16-.14.22-.06.19c0,.11.08.22.24.32s.09.05.19.06l.16,0,.27-.07.46-.23c.48-.31.71-.56.71-.76A.2.2,0,0,0,29.47,255.44Z"/><path class="cls-1" d="M31.3,248.55a.54.54,0,0,1,.33-.11c.32,0,.48.2.48.63l0,.14a.22.22,0,0,1-.09.11,16.76,16.76,0,0,1-1.82,1.24,15.13,15.13,0,0,1-1.84.93l-.24.08-.19.06a.42.42,0,0,1-.37-.29l0-.17,0-.23c0-.15.09-.26.29-.32a11.71,11.71,0,0,0,1.46-.77c.15-.1.31-.19.47-.28l.7-.43C30.78,248.93,31.06,248.73,31.3,248.55Z"/><path class="cls-1" d="M24.47,253.72h.16l.14,0a.63.63,0,0,1,.27.32l0,.3a.38.38,0,0,1-.14.34l-.57.24.28.28a.84.84,0,0,1,.27.62v.28a.28.28,0,0,0,0,.09l0,.1a1.45,1.45,0,0,1-.76,1l-.42.23-.29.09-.35,0h-.36l-.36-.05-.69-.16-.13-.08-.45.38-.21.19-.27.21-.59.43-.25.16-.45.28-.42.25-.84.47-.18.08-.2.1-.35.18-.33.06a.8.8,0,0,1-.73-.42l0-.1-.05-.23a.41.41,0,0,1,.12-.32l.16-.12.12-.07h.74a1.28,1.28,0,0,0,.55-.14l.94-.5.33-.21.55-.36.35-.25.23-.24.19-.15.21-.23-.14-.26,0-.17,0-.18a.7.7,0,0,1,.39-.44l.3-.05h.2l.26.12a.48.48,0,0,1,.25.28l0,.23.08.07.24.16.26.11h.33l.22,0,.18-.07a1.35,1.35,0,0,0,.45-.3l.12-.18.06-.16a.57.57,0,0,0-.08-.31l-.14-.15-.19-.12-.19-.12-.36-.18-.34-.24-.06-.13-.05-.17a.22.22,0,0,1,.11-.21l.32-.15h.27l.32,0,.22-.09.2-.14.19-.11.2-.09Z"/><path class="cls-1" d="M20.14,247.78h.22l.18,0,.5.09.52.14.36.17a.81.81,0,0,1,.49.68l0,.25-.12.23-.15.2-.37.3-1.26.84-1.17.62-.48.21-.45.09a.51.51,0,0,1-.33-.14l-.1-.16,0-.21.05-.21s.06-.11.16-.2l.41-.2.77-.33,1-.51.4-.22.31-.21.05-.13c0-.19-.25-.29-.76-.29l-.52.05-.61.2c-.43,0-.65-.17-.65-.53a.41.41,0,0,1,.1-.31A1,1,0,0,1,19,248l.61-.2Zm4.36,0a3.25,3.25,0,0,1,.84.13.61.61,0,0,1,.25.08l.18.08.37.26a.83.83,0,0,1,.26.27.76.76,0,0,1,.09.38l0,.14-.09.17-.19.22-.19.22-.18.2-.25.21-.7.56-.69.47-.62.35-.26.07-.3,0h-.22s-.1,0-.19-.11l-.09-.19a.26.26,0,0,0,0-.14.35.35,0,0,1,.12-.25l.22-.11.29-.14.42-.2.73-.4.55-.44.3-.26a.51.51,0,0,0,.12-.24.27.27,0,0,0-.19-.28l-.43,0-.28,0-.2,0-.22.09-.17,0-.15,0-.38,0L23,249l-.06-.05-.09-.07a1.15,1.15,0,0,1-.07-.25l0-.14a.51.51,0,0,1,.09-.16,1.87,1.87,0,0,1,.28-.2l.19-.09.19,0a2,2,0,0,1,.44-.13l.33,0Z"/><path class="cls-1" d="M29.64,107l.19-.13.18,0,.27,0a.24.24,0,0,1,.18.16l.05.21a.49.49,0,0,1-.05.25l-.25.21-.31.35-.21.15-.17.13-1.27.8-1.32.75-.64.32-.62.26-.65.25a1.93,1.93,0,0,1-.63.12,1,1,0,0,1-.56-.19l-.19-.15a.37.37,0,0,1-.05-.11l0-.13v-.16a.29.29,0,0,1,0-.12.5.5,0,0,1,.27-.3l.25-.09.23,0,.4,0h.14a2.26,2.26,0,0,0,1-.25l.7-.34,1.57-.91,1.11-.73Z"/><path class="cls-1" d="M29.84,100.51h.51l.18,0a1.64,1.64,0,0,1,.93.23.7.7,0,0,1,.34.61,1.72,1.72,0,0,1-.61,1.05l-.37.41-.47.4c-.14.11-.3.22-.47.33a3.06,3.06,0,0,1-.57.29l-.85.36-.42.2-.29,0c-.05,0-.13-.06-.24-.19l-.07-.13-.07-.15a.55.55,0,0,1,.1-.32.89.89,0,0,1,.35-.24l.37-.1.42-.14a1.76,1.76,0,0,0,.44-.18,2.19,2.19,0,0,0,1.41-1.3l-.08-.07-.1,0-.32,0-.23,0-.24,0h-.26l-.14,0-.2.1-.16.08-.14.07h-.23a.45.45,0,0,1-.22-.1l-.16-.22,0-.19a.4.4,0,0,1,.2-.37,4.46,4.46,0,0,1,.8-.33A4,4,0,0,1,29.84,100.51Z"/><path class="cls-1" d="M22.33,106.86A.91.91,0,0,1,23,107a.35.35,0,0,1,.13.26v.11l0,.09-.14.12-.12.07-.18.1a.49.49,0,0,0,.09.71l.22.16.11,0,.15,0,.25,0a.69.69,0,0,0,.21-.15l.18-.15.21-.15.36-.06h.16a.77.77,0,0,1,.23.22l.05.11,0,.16a.84.84,0,0,1-.16.29l-.23.17-.28.18-.34.24-1,.65-1.14.67-.63.35-.52.26-.49.24-.61.26-.44.13c-.49,0-.72-.2-.72-.6a.84.84,0,0,1,.13-.4.39.39,0,0,1,.13-.17.23.23,0,0,1,.14,0l.18,0,.25.06.26,0a3,3,0,0,0,.63-.27l1.16-.58.57-.32.73-.49q0-.12-.06-.15l-.16,0-.3-.09a.78.78,0,0,1-.41-.26l-.08-.13-.07-.2,0-.32V108a.21.21,0,0,1,0-.12l.15-.37a1.18,1.18,0,0,1,.34-.46A.61.61,0,0,1,22,107l.14-.07A.48.48,0,0,1,22.33,106.86Z"/><path class="cls-1" d="M24.28,100.51h.51l.17,0a1.65,1.65,0,0,1,.94.23.7.7,0,0,1,.34.61,1.77,1.77,0,0,1-.61,1.05l-.37.41-.48.4a3.82,3.82,0,0,1-.47.33,3,3,0,0,1-.56.29l-.85.36-.42.2-.3,0c-.05,0-.13-.06-.23-.19l-.07-.13-.07-.15a.49.49,0,0,1,.1-.32.82.82,0,0,1,.35-.24l.36-.1.43-.14a2,2,0,0,0,.44-.18,2.15,2.15,0,0,0,1.4-1.3l-.07-.07-.1,0-.32,0-.24,0-.24,0h-.26l-.14,0-.19.1-.16.08-.15.07H22.8a.54.54,0,0,1-.23-.1l-.15-.22-.05-.19a.42.42,0,0,1,.2-.37,4.9,4.9,0,0,1,.81-.33A4,4,0,0,1,24.28,100.51Z"/><path class="cls-1" d="M19.19,106.51h.17a.23.23,0,0,1,.13,0,.56.56,0,0,1,.28.32l0,.29a.38.38,0,0,1-.14.34l-.57.24.28.28a.89.89,0,0,1,.26.62v.28s0,.07,0,.09a.14.14,0,0,1,0,.1,1.43,1.43,0,0,1-.76,1l-.41.22-.29.09-.35,0H17.4l-.37,0-.69-.16-.12-.08-.45.38-.21.2-.27.2-.59.43-.25.16-.45.29-.42.25-.85.47-.17.07-.2.1-.35.19-.33,0a.79.79,0,0,1-.73-.41l0-.11-.05-.22a.39.39,0,0,1,.12-.32l.16-.12.12-.07H12a1.29,1.29,0,0,0,.56-.14l.94-.51.33-.21.55-.36.35-.25L15,110l.19-.15.2-.22-.13-.27-.05-.17,0-.17a.68.68,0,0,1,.39-.44l.29-.06h.2l.26.12a.45.45,0,0,1,.26.27l0,.24.08.07.24.16.26.1h.33l.22,0,.18-.07a1.31,1.31,0,0,0,.45-.29l.12-.19.06-.16a.56.56,0,0,0-.08-.3l-.14-.16-.2-.12-.18-.12-.36-.17-.34-.25-.06-.13-.05-.17a.21.21,0,0,1,.11-.21l.32-.15h.59l.22-.1.19-.14.19-.11.21-.09Z"/><path class="cls-1" d="M18.87,100.58l.28-.11.3,0a.69.69,0,0,1,.44.11.37.37,0,0,1,.17.31.36.36,0,0,1-.16.34l-.11.09-.2.09-.38.17-1.1.49c-.58.27-.86.62-.86,1a.45.45,0,0,0,.18.34l.12,0,.17.06.38,0,.34,0,.14,0a.35.35,0,0,0,.14-.06l.18-.08a.6.6,0,0,1,.18-.07.5.5,0,0,1,.29.06l.17.22a.67.67,0,0,1,.05.28c-.05.29-.32.5-.82.64l-.31.08-.3,0-.45,0-.49-.14-.25-.08-.23-.15a1.25,1.25,0,0,1-.64-1.12,1.3,1.3,0,0,1,.25-.71l.24-.29.33-.32.27-.2.34-.23.61-.37Z"/><path class="cls-1" d="M10.84,106.73H11l.12,0,.28.23a.34.34,0,0,1,.15.3,3.56,3.56,0,0,1-.62.67l2.22-.07a.14.14,0,0,0,0,.07l.05.07a.33.33,0,0,1,.14.2c0,.19-.24.43-.73.74l-1.11.65-.82.49-1.31.83-1.75.91-1,.44-.33.13-.33.08-.43.11a1.06,1.06,0,0,1-.36,0l-.19-.11a.64.64,0,0,1-.2-.55c0-.17.12-.3.37-.38l.37,0a3.26,3.26,0,0,0,.7-.07,3.3,3.3,0,0,0,.7-.25l.16-.06.25-.12.67-.29,3.31-1.9-3,0a.39.39,0,0,1-.1-.18,1,1,0,0,1,0-.33l.07-.17.21,0a1.12,1.12,0,0,0,.24-.1,1.93,1.93,0,0,0,.38-.19l.68-.31.47-.25a.43.43,0,0,0,.21-.21.62.62,0,0,1,.13-.19l.12,0Z"/><path class="cls-1" d="M12.66,114.16a.38.38,0,0,1,.39.25l0,.2v.14a.22.22,0,0,1-.06.14l-.16.19-.12.06-.24.11-.25.12-.45.42-.41.3-.71.46-.64.38-.36.21-.42.21-.71.27-.26.07a.57.57,0,0,1-.38-.17.72.72,0,0,1-.14-.4l0-.19a.38.38,0,0,1,.09-.14l.1-.07.33-.18.73-.32.61-.29.41-.19.38-.22.73-.47.42-.27.37-.3.4-.23A.53.53,0,0,1,12.66,114.16Z"/><path class="cls-1" d="M199.47,135.4h3.88l4.33,12.31h0L212,135.4h3.83v15.73h-2.62V139h0l-4.37,12.14h-2.27L202.13,139h0v12.14h-2.62Z"/><path class="cls-1" d="M218.59,138.26c2.11,0,4.12-.7,4.49-2.56h2v15.43h-2.75V140.24h-3.79Z"/></g></g></g></svg>