<svg xmlns="http://www.w3.org/2000/svg" viewBox="0 0 191.65 182.64"><defs><style>.cls-1,.cls-5{fill:none;}.cls-2{fill:#f1f2f2;}.cls-3{fill:#396287;fill-rule:evenodd;}.cls-4{fill:#383838;}.cls-5{stroke:#1a1a18;stroke-miterlimit:22.93;stroke-width:0.67px;stroke-dasharray:6.09 3.05;}</style></defs><title>F</title><g id="Layer_2" data-name="Layer 2"><g id="Layer_1-2" data-name="Layer 1"><g id="L1"><path class="cls-1" d="M71,1.24h1.76C71.91.79,71.36.88,71,1.24ZM44.62,6.18l.21.09c.43-.12.83-.21,1.22-.34A1.92,1.92,0,0,0,44.62,6.18Z"/><path class="cls-2" d="M154.57,73.34l-.51,4.81L17.79,52.75l-.67-1.92A4.71,4.71,0,0,0,19.68,50a65.18,65.18,0,0,1,8.55-5.18c2.56-1.16,2.56-3,0-5.7A140.47,140.47,0,0,1,17.57,27.47c-2-1.62-3.5-1.37-4.69.15l.8-4.84c2.34-4.21,4.14-6.82,8.71-9.5.45-.22.88-.4,1.34-.58a4.9,4.9,0,0,0,.73.58,6.6,6.6,0,0,0-2.23,2.86c-1.27,1.89-.76,3.56.4,5.18,1.52,1.49,3.53,1,5.54.57,2.9-1.06,5.79-2.19,8.68-3.53.1-.06.16-.12.22-.15,2.92-1.16,5.85-2.35,8.77-3.5a3.48,3.48,0,0,0,2-2.93,25.55,25.55,0,0,1-.4-4.17c-.36-1-.85-1.52-1.43-1.68a50.74,50.74,0,0,0,8.56-3L62,1.49a4.61,4.61,0,0,0-.79.36A61.44,61.44,0,0,0,55,2.92c-3.69,1.61-.15,4.84,2,5.91a11,11,0,0,0,4.87,2.53c1.46.88,2.93,1.12,4-3,.46-1.8.82-3.56-.45-5.33a2.65,2.65,0,0,0-2.35-1.74l.21-.06,7.65,0a2.84,2.84,0,0,0-.67,1.28C70.6,5.39,72.64,6,74.81,6.3c1.09.12,1.31-.12.82-.94a11.35,11.35,0,0,0-2.68-4l-.19-.1,5.06,0A3.22,3.22,0,0,0,79.1,4.38a7.83,7.83,0,0,0,3.35,1.46c3.9.76,7.74,1.34,11.64,2.07a38.48,38.48,0,0,1,11.78,4.91,12.31,12.31,0,0,1,4,3.29c.73,1,4.27-.46,2.83-3.17A6.57,6.57,0,0,0,111,10.5L118,15.22c1,1.31,1.88,2.59,2.8,3.81l-1-1a10.33,10.33,0,0,0-4.32-2.23,3.55,3.55,0,0,0-2.74.92c-1.43,1.12-.37,2.22,1.09,3.29.76.51,1.5,1,2.26,1.52a15.81,15.81,0,0,1,2.31,3.08c1.68,1.55,2.53,1.76,3,1.43.7-.49,1.4-1,2.1-1.49a1,1,0,0,0,.73-.92l2.34,3.11a4.52,4.52,0,0,0-1.43-.15,9.81,9.81,0,0,0-3.9.24c-1.12.73-.94,1.64-.12,2.68a32,32,0,0,1,5.15,3.53c.55.67.58.83.06,1-.73-.25-1.25-.19-1.61.24,0,1.31,1.43,1.74,3.86,2.5a5.1,5.1,0,0,0,4.27-.7,4.29,4.29,0,0,0,.46-.52l1.09,1.37c-.12,0-.24,0-.33,0a31.58,31.58,0,0,0-5.82,2.22,1.74,1.74,0,0,0,.12,3.26,35.73,35.73,0,0,1,5.42,2.08c1.5,2.13,1.16,3.25,2.41,3.65a8.6,8.6,0,0,0,5.39-1.25,1.75,1.75,0,0,0,.55-.36l2.34,3.68a2.87,2.87,0,0,0-2.37-.15c-2.62,1.19-4.17,2.74-6,4.08-1.46,1.37-1.31,2.56.46,3.41,2.4,1.13,4.38,2.35,8.83,1.31,1.25-.79,2.56-1.55,2.46-3.38l1.13,1.8c.92,4.78,4.45,7.92,5.18,12.58a1.42,1.42,0,0,0-.91-.8c-2.44-.79-3.87,1.1-3.81.4-.31.06-.64.09-1,.15-2,.64-1.88,1.31-.79,1.92a23.35,23.35,0,0,0,5.76,1,1.45,1.45,0,0,0,.88-1.46Q154.52,72.24,154.57,73.34Z"/><path class="cls-3" d="M130,31.19c.36.47.73,1,1.1,1.42a7.9,7.9,0,0,0-.85-.11c-.66,0-1-.15-.7-.68a2.7,2.7,0,0,0,.45-.63"/><path class="cls-3" d="M73,1.32c-1.68-1-2.24,0-2.63,1.2C70.6,5.4,72.65,6,74.81,6.31c1.1.1,1.29-.13.82-1a11.52,11.52,0,0,0-2.68-4"/><path class="cls-3" d="M57,8.83a11,11,0,0,0,4.86,2.52c1.49.88,2.93,1.12,4.06-3,.45-1.79.84-3.56-.46-5.32-.82-1.62-2.09-2.36-4.3-1.15A57.5,57.5,0,0,0,55,2.93c-3.67,1.6-.15,4.85,2,5.9"/><path class="cls-3" d="M44.35,6.31c1.4-.85,2.5-.5,3.13,1.3a25.67,25.67,0,0,0,.4,4.18,3.49,3.49,0,0,1-2,2.93L37.08,18.2l-.22.15C34,19.7,31.07,20.84,28.17,21.9c-2,.46-4,.89-5.54-.59-1.16-1.6-1.67-3.27-.4-5.18a6.18,6.18,0,0,1,4.57-3.87A69.33,69.33,0,0,1,41.29,7.41c1.2-.49,1.86-.61,3.06-1.1"/><path class="cls-3" d="M42.34,11.25c.58,0,.61.26.57.51-3.14,1.48-4.69.75-7.42,3.55-2,1.3-4,2.15-6,3.35-1.65.57-2.74,1-2.74-.23a5.21,5.21,0,0,1,2.82-3.26,80.48,80.48,0,0,1,8.15-2.6c1.61-.29,3.06-1,4.66-1.32"/><path class="cls-3" d="M12.47,28.21c1.27-2,2.91-2.52,5.1-.76a134.69,134.69,0,0,0,10.68,11.7c2.55,2.64,2.55,4.54,0,5.67A68.29,68.29,0,0,0,19.68,50a4,4,0,0,1-5.32-.37c-2.21-2.48-3.67-5.75-4.48-10.24.06-4.53-.18-7.44,2.59-11.18"/><path class="cls-3" d="M17.54,32.14c-.51-.77.11-1.72,2.05,0a20.29,20.29,0,0,1,5.73,7.22c1.68,2.51,2.24,3.87.77,4.64-.43.11-3.51,1.76-3.53,1.73-1.72.3-3,.42-3.43-2a10.46,10.46,0,0,0,.31-5.39,16.93,16.93,0,0,0-1.9-6.16"/><path class="cls-3" d="M58.24,44.7c-.58-1.58-.84-3,1.11-3.63,2.46-1,4.71-.38,6.82,1.29a6.79,6.79,0,0,1,1.6,3.33c.2,1.4-.38,1.61-1.06,1.64a21.28,21.28,0,0,1-5.61-.45,4.89,4.89,0,0,1-2.86-2.18"/><path class="cls-3" d="M83.34,32.77c-.3-1.33-.23-2.45,1.31-3a12,12,0,0,1,6,1.19c1.2,1.32,1.07,2.4,0,3.34-1.52.94-3.09.79-5,.56-1.5-.57-2.34-1.2-2.36-2.14"/><path class="cls-3" d="M79.09,4.38C77.27,3,77.05-.35,80.18,0A69.63,69.63,0,0,1,92.24,1.78a48.5,48.5,0,0,1,17.4,7.78,6.77,6.77,0,0,1,3,3.38c1.43,2.71-2.11,4.16-2.83,3.16a12.27,12.27,0,0,0-4-3.27A38.19,38.19,0,0,0,94.08,7.92c-3.89-.75-7.72-1.32-11.62-2.07a8.23,8.23,0,0,1-3.37-1.47"/><path class="cls-3" d="M84.45,4.24c-1.55-.22-1.81-1.62.11-1.6,3.6.57,7,.78,10.55,2.11,4.93,1.47,7.29,3.09,11.24,5.1,1.2.72,3,1.73,3.32,2.46-.09.23-.74.19-1.44-.19-2.42-1.3-4.33-2.14-6.75-3.44a39.47,39.47,0,0,0-11-3.57c-1.83-.25-3.79-.74-6-.87"/><path class="cls-3" d="M113.87,20.05c-1.44-1.08-2.52-2.19-1.08-3.31a3.47,3.47,0,0,1,2.74-.91,10.34,10.34,0,0,1,4.32,2.23c1.35,1.31,2.68,2.66,3.92,4.09.91,1.71.44,2.16-.22,2.43l-2.1,1.48c-.48.35-1.32.12-3-1.43a16.06,16.06,0,0,0-2.3-3.06l-2.28-1.52"/><path class="cls-3" d="M107,31.45c-.65-1.32-1.66-1.52-3-.62a3.25,3.25,0,0,0-1.52,2c-.49,1.71.31,2.45,1.72,2.74,1.94-.09,3.86-.1,5.59-.29.91,0,1.36-.45.55-1.47a7.84,7.84,0,0,0-2.67-.79c-.23-.53-.45-1.07-.67-1.61"/><path class="cls-3" d="M129.5,28.75a5.42,5.42,0,0,0-4.31-2.15,10.15,10.15,0,0,0-3.89.27c-1.15.71-1,1.64-.15,2.68a31.34,31.34,0,0,1,5.17,3.53c.53.66.56.81.05,1-.74-.25-1.24-.19-1.62.25,0,1.3,1.43,1.74,3.88,2.49a4.91,4.91,0,0,0,4.24-.7,1.78,1.78,0,0,0,.23-2.83,9.08,9.08,0,0,0-2.88-.75c-.66,0-1-.15-.7-.68a1.81,1.81,0,0,0,.56-1.06,2.8,2.8,0,0,0-.58-2"/><path class="cls-3" d="M138,38.47a3.94,3.94,0,0,0-3.89-1.5,31.3,31.3,0,0,0-5.81,2.24,1.72,1.72,0,0,0,.1,3.23,40.48,40.48,0,0,1,5.43,2.08c1.49,2.12,1.15,3.26,2.42,3.66a8.56,8.56,0,0,0,5.39-1.24c1.07-.54,1.35-1.48-.11-3.32-1.17-1.51-2.35-3.28-3.53-5.15"/><path class="cls-3" d="M133.52,51c1.08-.61,1.6.23,1.44,1.29a5.41,5.41,0,0,1-3.16,3,4,4,0,0,1-3.7-1.45c-.13-.81-.1-1.48.86-1.93.7.22.92.19,2.41.64,1.55-.23,1.55-.88,2.15-1.56"/><path class="cls-3" d="M142.15,50.09c-2.62,1.19-4.17,2.75-6,4.11-1.46,1.35-1.31,2.55.44,3.4,2.42,1.13,4.39,2.35,8.83,1.29,1.41-.85,2.84-1.69,2.41-4-2.24-4.29-3.34-5.52-5.72-4.81"/><path class="cls-3" d="M152,63.89a2,2,0,0,0-1.84-.78A2.8,2.8,0,0,0,148,64.66c-.79.82-.73,1.32.21,1.49a14.66,14.66,0,0,0,3.63.52,2.66,2.66,0,0,0,.12-2.78"/><path class="cls-3" d="M73,1.32c-1.68-1-2.24,0-2.63,1.2C70.6,5.4,72.65,6,74.8,6.31c1.11.1,1.3-.13.83-1a11.52,11.52,0,0,0-2.68-4"/><path class="cls-3" d="M90.8,13.1c.73.15.65.56.65,1.11s-.21.88-.63.88-.69-.28-1-1,.26-1.16,1-1"/><path class="cls-3" d="M93.19,17.33c1,.17.88.63.89,1.26s-.13.88-.87,1-1.44.05-1.37-1.13.35-1.32,1.35-1.15"/><path class="cls-3" d="M113.31,62.48c2.38.69,3.55,1.62,3.55,2.24s-1.84.79-4,.7-3.16-.72-3.38-2,1.4-1.63,3.78-.94"/><path class="cls-3" d="M109.05,65.93c2.07.29,3,1.27,2.77,2.07a11.2,11.2,0,0,1,1.75-.15c2.87,0,4.48.63,4.68,1.22s-1.83.88-4.21,1.41-3.66.63-4.34-.53a.86.86,0,0,1-.08-.8l-.85-.05c-1.53-.1-2.43-.81-2.44-2s.28-1.5,2.72-1.16"/><path class="cls-3" d="M106.45,49.8c.5-1,1.14,0,2.5.89s2.62,1.14,1.84,1.69-1.85.13-3-.18a1.71,1.71,0,0,1-1.31-2.4"/><path class="cls-3" d="M112.27,50.37c.29-1.09.81.11,2.64.34S118,51,117.06,52s-1.78.52-3,.47a1.73,1.73,0,0,1-1.8-2.08"/><path class="cls-3" d="M121.41,54.61c1.14-.3.81.66,2.11,1.61s2,1.48.64,1.88-1.37-.14-2.24-.8-1.66-2.39-.51-2.69"/><path class="cls-3" d="M28.21,50.66c-.36-.91-.76-1.11-2.09-.45-.49.62-1.25,1-1.74,1.66-1,.55-1,.93.12,1.17,1.66-.66,2.52-.41,3.19.08,1.27-.15,1-1.18.52-2.46"/><path class="cls-3" d="M99.54,44.22c.85,0,1.62.41,1.62,1.24A1.52,1.52,0,0,1,99.64,47a1.54,1.54,0,0,1-1.55-1.5c0-.84.61-1.25,1.45-1.27"/><path class="cls-3" d="M92,53.33c3.26,1.34,5.94,1.9,5.63,3.38s-3.82,2-6.37,1.44-3.68-1.37-4.09-3.66S88.69,52,92,53.33"/><path class="cls-3" d="M82.91,39.82a2.72,2.72,0,0,1,2.2,2c0,.79-1.3.85-2.18.86a1.54,1.54,0,0,1-1.6-1.42,1.52,1.52,0,0,1,1.58-1.44"/><path class="cls-3" d="M78.51,50.07a1.12,1.12,0,0,1,1.2,1,1.2,1.2,0,1,1-1.2-1"/><path class="cls-3" d="M48.14,38.14c1.8.13,3.12,1.46,3.13,2.59s-1.43,1.78-3.09,1.79S45,41.23,45,40s1.34-2,3.14-1.88"/><path class="cls-3" d="M56.05,54.32c1.8.13,3.54,1.4,3.56,2.54s-1.81,2-3.47,2-3.22-1.42-3.23-2.64,1.34-2,3.14-1.88"/><path class="cls-3" d="M29.9,28a1.24,1.24,0,1,1-1.14,1.25A1.2,1.2,0,0,1,29.9,28"/><path class="cls-3" d="M59.39,28.6a2.34,2.34,0,0,1,1.86,1.85c.1.95-.49,2.13-1.46,2.15a2.29,2.29,0,0,1-2.07-2.12c0-1.07.82-2.05,1.67-1.88"/><path class="cls-3" d="M76.26,32.4A2.36,2.36,0,0,1,78.87,32c.83.47,1.43,1.65.86,2.45a2.28,2.28,0,0,1-2.92.42c-.88-.62-1.17-1.87-.55-2.46"/><path class="cls-3" d="M148.56,69.64c-2,.67-1.9,1.32-.79,2a23.1,23.1,0,0,0,5.76,1A1.48,1.48,0,0,0,154.4,71c0-1-.33-1.63-1.06-1.87-2.45-.78-3.87,1.1-3.81.42l-1,.13"/></g><g id="L3"><path class="cls-2" d="M95.43,159c-8.17,2.77-3.29,4.81-11,6.09l-3.35,1.22a.28.28,0,0,1,.18-.1l.31-.18a.9.9,0,0,1,.24-.12l.67-.37s0,0,.06,0l.18-.12c.34-.18.67-.33,1-.55,0,0,.06,0,.06,0l.34-.15.27-.18a1.22,1.22,0,0,0,.27-.15,1,1,0,0,0,.31-.16c.09-.06.21-.09.3-.15a.8.8,0,0,1,.22-.12l.18-.09c.52-.31,1-.58,1.55-.85.15-1.1-.06-2.17-2.43-2.84A11.09,11.09,0,0,0,79,162.28a13.19,13.19,0,0,0-3.69,3.53,2.77,2.77,0,0,0-.15.49c0,.06,0,.12-.06.18a.11.11,0,0,1,0,.09v.06a.11.11,0,0,1,0,.09v0a.44.44,0,0,1,0,.19v.67a0,0,0,0,0,0,0c0,.06,0,.09,0,.12v0l.09.18s0,0,0,0a.3.3,0,0,0,.12.15v0c.06,0,.12.1.19.1l0,0L70.72,170l-3.13,0-3.72-.61c1.19-1.15,1.13-3.32-.52-6.73a14.63,14.63,0,0,0-4.57-4.63c-6.18-4-11.69-8.43-14.77-14.37-1.25-1.59-2.46-3.17-3.68-4.76s-3-2.22-5.27.13a48.51,48.51,0,0,0-5.67,5.48c-.09-3,.67-6.06,2.32-9.93l.09-.15,62.59,22.69C94,158.32,94.45,158.89,95.43,159Z"/><path class="cls-3" d="M84.79,159.28c2.39.69,2.59,1.72,2.46,2.81l-9,4.87c-2.71,1.16-4,.74-3-2A13,13,0,0,1,79,161.43a11.4,11.4,0,0,1,5.81-2.15"/><path class="cls-3" d="M84.79,160.12c2.39.68,2.59,1.72,2.46,2.81l-9,4.86c-2.71,1.17-4,.75-3-2A13,13,0,0,1,79,162.27a11.5,11.5,0,0,1,5.81-2.15"/><path class="cls-3" d="M44,143.68c3.1,6,8.6,10.38,14.79,14.38a14.79,14.79,0,0,1,4.57,4.65c2.43,5,1.39,7.35-2,7.79a48.92,48.92,0,0,1-12.66-3.29c-2.58-2-5.31-3.33-7.24-6-.51-3.46-.54-2.93-1.66-3.48A23.4,23.4,0,0,1,30,152.39c-1.37-1.31-2.27-3.13-1.52-6.78a52.23,52.23,0,0,1,6.58-6.55c2.29-2.33,3.92-1.86,5.27-.13s2.45,3.18,3.68,4.75"/><path class="cls-3" d="M39.49,143.83c-1.67-2.28-4.23-2-4.06.19-.27,1.88,2,4.58,4.68,7.41a68.32,68.32,0,0,0,16.63,12.21c1.36-.22,2.36-.25.79-2-1.79-1.41-4.1-3-5.89-4.46-3.14-1.81-4.33-4.26-6.44-5.86-2.21-3.22-4.54-4.72-5.71-7.49"/></g><g id="L2"><path class="cls-2" d="M154.06,78.15l-.52,5.09c-.61-.4-1.43-.19-2.53.55a25.38,25.38,0,0,0-3.35,5c-.85,2.93-2,5.7-2.86,8.62A103.54,103.54,0,0,0,141.14,111c-.09,1.12,0,2.16,1.5,2.49a14.92,14.92,0,0,0,4.2.34,3,3,0,0,0,1.16-.12c-.37,1.06-.74,2.16-1.07,3.22l-.3-.18A5.92,5.92,0,0,0,141,116c-4.05,3.08-5.88,7-8.62,11.7-2.41.85-3.41,2.89-1,5,1.18,2.23,1.91,2.35,2,5.33a2,2,0,0,0,2,1.34L129.84,145c.49-.86.37-1.71-.73-2.59-1.09-1.86-2.92-3-4.78-4.42-2.89-1.31-2.07.06-2.62.67a6.36,6.36,0,0,0,1.65,2.32c-.13,2.19-6,3.32-8.81,5.14-1.58.79-1.89.61-2.71-1.12-.18-1.71-.58-3.17-.76-4.88a2.94,2.94,0,0,0-.7-1.31,2.43,2.43,0,0,0,1-.61,1.8,1.8,0,0,0-.19-3.07c-2-.49-3.8-.52-5.75-1-1.68.06-2.23.4-1.28,1.92a25.54,25.54,0,0,0,4.38,2.62.09.09,0,0,0,.06,0,3.75,3.75,0,0,0-.91,1c-1,1.55,0,4.14,1.71,7.24.6,1.56-.25,2.44-1.62,2.65-1.58-.88-2.4-1.52-4-2.4a1.59,1.59,0,0,0-2.19,0c-.58.42-.37,1,.58,1.8,1,.27,1.18.57,1.37,1.64-.19.88-.12,1-1.16,1.58-1.55,0-1.58.77-2.8.49-.18.12-1.28-.73-.64-1.19a2,2,0,0,0,.06-3.07,1.78,1.78,0,0,0-2.1-.06,14,14,0,0,0-.67,3.47c-.15,3-1.59,2.59-1.68,4.81a2.89,2.89,0,0,0-.18.55L31.8,134.47c5.6-7.86,6.73-13.65,8.83-20.32,1,.64,2.47.61,4.24-1l1.64-2.47a66.64,66.64,0,0,1,5.57-11.24c.16-2-.76-3.62-2.34-3.87a16.33,16.33,0,0,1-5.82.13,25.45,25.45,0,0,0-4.54-3.32,7,7,0,0,1-.85-2.65,5.89,5.89,0,0,1,.3-4.06c1.37-1.55,1.83-3-.91-4.14a11.74,11.74,0,0,1-4.26-2A7.92,7.92,0,0,0,32,75.78a20.22,20.22,0,0,0-6-2.5,3.27,3.27,0,0,1-1.58-2.41,13.59,13.59,0,0,0-1.53-2.47,2.49,2.49,0,0,1,.25-3.29c1.89-.57,3.77-.88,5.66-2.49.4-1.07.67-2.07-1.06-1.53-.95.58-2,1.28-3,1.83-1.09,0-1.43-.27-1.67-1.76.15-1.41.12-2.53,1.7-3.39.58-.48.31-1.18-.09-1.94a8.82,8.82,0,0,0-3.59-.89,3.78,3.78,0,0,0-2.1.64l-.92-2-.3-.85Z"/><path class="cls-3" d="M37.92,81.56a11.45,11.45,0,0,1-4.26-2A7.83,7.83,0,0,0,32,75.8a19.88,19.88,0,0,0-6-2.53,3.38,3.38,0,0,1-1.59-2.39,11.17,11.17,0,0,0-1.51-2.47,2.48,2.48,0,0,1,.26-3.3c1.88-.57,3.77-.87,5.65-2.5.41-1,.66-2.06-1.06-1.51-.95.56-2,1.28-3,1.84-1.09,0-1.43-.31-1.67-1.77.15-1.4.12-2.56,1.7-3.4.6-.47.31-1.19-.09-1.94a8.52,8.52,0,0,0-3.6-.9c-1.91,0-3.06,1.38-4.36,2.47a12.88,12.88,0,0,0-2.45,6.7A35.81,35.81,0,0,0,17.8,79.37c2.52,5.37,3.78,9.22,6.48,11C29,93.46,32,95.14,37,100.85a37.89,37.89,0,0,1,2,11c.48,1.89,2.6,4.18,5.84,1.29l1.62-2.47c1.25-3.73,3.46-7.49,5.58-11.24.16-1.94-.77-3.61-2.33-3.86a16.11,16.11,0,0,1-5.82.13,26,26,0,0,0-4.55-3.32,7.19,7.19,0,0,1-.86-2.65,5.86,5.86,0,0,1,.3-4.05c1.37-1.56,1.84-3-.9-4.15"/><path class="cls-3" d="M19.37,62.73c.09-1.24,1.24-.52,1.6,1,.18,1.79-.1,1.74.09,3.55-.21,3.22,1.3,5,2.22,6.93,2.46,3.06,5.07,5.22,8.44,6a14.13,14.13,0,0,1,5,3.88,7.94,7.94,0,0,1-.25,4.38c-.39,1-1,1.23-2.69.38l-5.3-4.56a32.3,32.3,0,0,1-6.24-7.37A22,22,0,0,1,19.72,69c-.24-2.17-.12-4.11-.35-6.28"/><path class="cls-3" d="M79.05,63.91c2,0,3.22.25,3.57,1.79S81.33,68,79.08,67.53s-4-1.81-4-2.8,2.06-.8,4-.82"/><path class="cls-3" d="M64.3,60.93a1.39,1.39,0,1,1,0,2.74,1.39,1.39,0,1,1,0-2.74"/><path class="cls-3" d="M142.5,118.2c1.45-.5,2.57-.18,2.45,1.28-1.28,2.27-2.55,4.56-3.83,6.84A33.49,33.49,0,0,1,136,135c-1.63,1.08-2.14.57-2.24-1.27,1.12-2.19,1.88-2.88,3-3.51a5.81,5.81,0,0,1,0-4.46c1.29-2.84,2.63-5.64,5.68-7.51"/><path class="cls-3" d="M127.89,76.41c1.44.8,1.43,2.24,1,3.66-2.53.75-4.61,1.37-7.14,1.87s-3.29.11-2.44-1.52A15,15,0,0,1,124,76.85a6.8,6.8,0,0,1,3.89-.44"/><path class="cls-3" d="M131.63,88.58c-1.42.91-1.2,1.72.08,2.43a33,33,0,0,1,6.34.27c1.64.22,2.09-.51,1.37-2.21a3.36,3.36,0,0,0-3.26-.92c-1.38-.4-2.94,0-4.53.43"/><path class="cls-3" d="M151,83.78c1.88-1.25,2.95-.93,3.5,1.11-.19,4.14-.6,8.27-1.18,12.41q-1.6,7-3.2,14c-.76,2-1.94,2.72-3.3,2.61a15.79,15.79,0,0,1-4.21-.36c-1.46-.33-1.58-1.36-1.48-2.49a102.76,102.76,0,0,1,3.64-13.54c.86-2.93,2-5.7,2.89-8.63A25.21,25.21,0,0,1,151,83.78"/><path class="cls-3" d="M149.93,87.45c.58-.89,1.06-.7,1.46.55a70.79,70.79,0,0,1-.56,9.07,49.88,49.88,0,0,1-3.15,10.8,9.3,9.3,0,0,1-2.08,3.26q-2.25,1.17-1.95-.87c.6-1.87,1.21-3.74,1.81-5.61.86-3.81,2.31-7.35,3.16-11.16.63-1.91.68-4.13,1.31-6"/><path class="cls-3" d="M134.16,95.29c1.24-.23,2.1-.06,2,1.67-1.34,1.39-2.3,3.05-4.06,3.66-1.28.72-2.33.71-2.86-1.48-.11-1.27-.44-2.39,0-3.66.64-.48,1.75-.91,2.21.16,0,.55-.09,1.08,0,1.62,0,1.07-.12,1.15.46.67.82-1.19,1.45-1.45,2.27-2.64"/><path class="cls-3" d="M99,85.38A5,5,0,0,0,96.16,88c-1.27,1.13-.65,2.18.84,3.16a93.36,93.36,0,0,0,14.08,4.53c2.2-.2,4.38-.68,4.3-4.29a6.63,6.63,0,0,0-2.63-4.18A44.08,44.08,0,0,0,99,85.38"/><path class="cls-3" d="M100.51,104.15c.72-.78,1.37-1.27,2.77-.21.44.15,1,1.84,1.45,2,.74.27,1.57-1.25,2.32-1,1.8-.18,1.5,1.37.94,2.94-1.69,2.82-3.45,5.37-5.7,6-1.5.21-3.17.57-4.28-1.5.08-2.52.46-6.48,2.5-8.21"/><path class="cls-3" d="M141,116a6,6,0,0,1,5.68.74c1.34.79,1.51,1.87.35,3.66-2.81,5.75-5.72,11.44-8.93,17-1.05,2.64-4.22,2.45-4.68.69-.1-3-.82-3.11-2-5.34-2.43-2.17-1.44-4.19,1-5,2.72-4.68,4.54-8.64,8.6-11.72"/><path class="cls-3" d="M137.34,110.46c1.84,0,2.42.44,1.55,1.62-2.21,1.24-3.88,2.83-4.34,5.22-1.21,1.8-1.78,1.75-1.69-.15.63-1.55.18-2.87,1.26-4.22a8,8,0,0,1,3.22-2.47"/><path class="cls-3" d="M121,116.69c.14-1.41,1.16-2,3.07-1.64,1,.65.29,1.86,3,1.83.85.54.71,1.38-.38,2.52a16.2,16.2,0,0,1-4.28,1.17c-1.65-.44-2.46-1.48-1.41-3.88"/><path class="cls-3" d="M73.62,112.82a6.4,6.4,0,0,1,5.18-.37c1.44.52,1.47,1.36,1,3-.07,1.74-2,2.54-4.72,3-1.1-.38-2.25-.68-2.69-2.41-.42-1.25-.56-2.43,1.27-3.16"/><path class="cls-3" d="M65.05,96.45a2,2,0,0,1,2,2.49c-.61,1.68-2.32,2.65-4.35,3.44-1.87.19-2.91-.42-2.69-2.16,0-1,.23-1.93,1.79-2.86a9.49,9.49,0,0,1,3.2-.91"/><path class="cls-3" d="M49.47,113.11c1.91,1,3.53,2.16,3.33,4.35-1.74,2.43-4.23,4-7.27,5.56-2.5.77-3.25-.19-3.34-1.76a6.79,6.79,0,0,1,1.4-6.16c1.56-1.38,2.54-2.42,5.88-2"/><path class="cls-3" d="M41.3,99c.48-1.39,1.12-1.46,2.84-.82.72,1.19,1.9,2,2.31,3.46,0,1.52-.54,2.23-1,3.45-.95.84-1.77.81-2.47-.12a17.88,17.88,0,0,0-.23-2.82A23.73,23.73,0,0,1,41.3,99"/><path class="cls-3" d="M97.58,75.15c-.66-1.23-.68-2.35,1.19-2.69a8.8,8.8,0,0,1,7.09.62c1.42.7,1.57,1.83.87,3.25-.45,1.09-1.78,1.3-4.26,1.1a26.62,26.62,0,0,1-4.89-2.28"/><path class="cls-3" d="M92.79,73.54c.65-.66.86-1.35-.25-1.92a5.83,5.83,0,0,0-4.6-.93c-1,.18-1.33.86-1.16,1.89.09.78.88,1.15,2.49,1.48a17,17,0,0,0,3.52-.52"/><path class="cls-3" d="M74.59,100.56c-.91-1-1.54-2-.13-3.26.74-1.21,2.21-1.7,4.18-1.72a3,3,0,0,1,3.07,2.29,1.51,1.51,0,0,1-.93,1.79,4.73,4.73,0,0,1-4.19,1.3,4.48,4.48,0,0,1-2-.4"/><path class="cls-3" d="M90,99.79c.12-1.28.79-1.85,2-1.7a5.24,5.24,0,0,1,4.64,1.75c.56.87.56,1.84-1.11,2.09a2.88,2.88,0,0,1-2.45,1.1c-2.15-.33-3.5-1.37-3-3.24"/><path class="cls-3" d="M84.33,121.58c1.91-1,3.89-1.93,5.58-1.19a5.7,5.7,0,0,1,3.47,3c.73,1.68-.18,3-1.33,4.2a12.56,12.56,0,0,1-6.61.7c-1.15-1-2.38-1.87-2.24-4.39a2.69,2.69,0,0,1,1.13-2.33"/><path class="cls-3" d="M124.7,123.18a1.58,1.58,0,0,1,1.46,1.47,1.31,1.31,0,1,1-2.62,0c0-.74.43-1.5,1.16-1.5"/><path class="cls-3" d="M116.5,127.75a6.63,6.63,0,0,1,2.73-1.54c.86,0,1.35.74,1.62,1.86a.29.29,0,0,0,0-.09l.22.1c1.93.95,2.58,2.31,1.87,3s-1.36.16-3.45-.12-3.39-2.53-3-3.21"/><path class="cls-3" d="M116,131.65c1.07.17,2.08,1,2.09,1.83a.7.7,0,0,1-.13.42c2-.24,2.09-1.29,2.81-.63a1.79,1.79,0,0,1-.84,2.8c-1.25.31-2.55,1.06-3.12.64a1.8,1.8,0,0,1-.19-2.19,2.58,2.58,0,0,1-.38,0c-.7,0-1.08-.39-1.5-1.41s.2-1.67,1.26-1.5"/><path class="cls-3" d="M116.84,108.23c1.76-.57,3.47-.14,3.83,1s-.78,2.46-2.54,3-3.47.14-3.83-1,.79-2.45,2.54-3"/><path class="cls-3" d="M115.29,96.33c1.37-.43,1.95.35,1.54,1.54s-.67,1.54-1.51,1.55a1.53,1.53,0,0,1-1.53-1.53c0-.85.13-1.13,1.5-1.56"/><path class="cls-3" d="M89,107c1-.5,2.26-.39,2.53.12s-.31,1.32-1.28,1.83-2,.49-2.22,0A1.6,1.6,0,0,1,89,107"/><path class="cls-3" d="M74.85,91.42c1.34.21,2.37.81,2.38,1.83a2.16,2.16,0,0,1-2.34,1.87,2,2,0,0,1-2.35-2c-.07-1.39,1-1.92,2.31-1.71"/><path class="cls-3" d="M88.38,88.54c.91.19,1.57.65,1.58,1.47a1.53,1.53,0,0,1-1.56,1.48,1.81,1.81,0,0,1-1.92-1.56,1.48,1.48,0,0,1,1.9-1.39"/><path class="cls-3" d="M56.5,71.22c2,.57,3.28,1.27,3.29,2.37s-1.29,1.68-3.35,2-3.57-.23-3.55-2.08,1.6-2.91,3.61-2.33"/><path class="cls-3" d="M44.57,69.32a1.2,1.2,0,1,1-1.46,1.17,1.34,1.34,0,0,1,1.46-1.17"/><path class="cls-3" d="M124.93,147.94l-5.12,2.79-2.72.93c2.64-1.24,5.2-2.47,7.84-3.72"/><path class="cls-3" d="M124.34,138c-2.91-1.33-2.08.05-2.63.65a6.12,6.12,0,0,0,1.64,2.33c-.11,2.2-6,3.31-8.8,5.15-1.57.79-1.89.59-2.7-1.14-.18-1.7-.57-3.17-.75-4.88a3.13,3.13,0,0,0-.71-1.29,2.5,2.5,0,0,0,1-.62c1.05-1,1.1-2.06-.17-3.08-1.95-.47-3.82-.5-5.77-1-1.67.07-2.22.43-1.28,1.92a27.91,27.91,0,0,0,4.39,2.63l.07,0a3.06,3.06,0,0,0-.92.94c-1,1.55,0,4.14,1.72,7.24.59,1.57-.26,2.44-1.62,2.66-1.6-.88-2.4-1.54-4-2.42a1.59,1.59,0,0,0-2.19,0c-.57.4-.38,1,.59,1.78,1,.3,1.16.58,1.36,1.64-.18.89-.12,1-1.15,1.58-1.55,0-1.58.78-2.82.51-.16.11-1.27-.74-.63-1.2a2,2,0,0,0,.07-3.08,1.86,1.86,0,0,0-2.1-.06,14.59,14.59,0,0,0-.69,3.47c-.13,3.07-1.56,2.6-1.66,4.82-.88,1.88,0,2.59,1.79,2.32a117.11,117.11,0,0,0,17.2-5.65c5.27-2.39,9.89-4.71,15.16-7.11,1.46-1.16,2-2.47.38-3.8-1.09-1.82-2.92-2.94-4.77-4.39"/><path class="cls-3" d="M52.9,140.24c.6-.22,1.34.28,1.66,1.12s.11,1.72-.48,1.95-1.34-.28-1.66-1.12-.1-1.73.48-1.95"/></g><g id="Labels"><path class="cls-4" d="M141,37.83a.32.32,0,0,1,.33.22l0,.17v.12a.13.13,0,0,1-.06.11l-.13.17-.1.05-.2.1-.22.1-.39.37-.35.25-.61.39-.55.33-.31.18-.36.18-.6.23-.23.06a.49.49,0,0,1-.33-.14.62.62,0,0,1-.12-.35l0-.16a.21.21,0,0,1,.08-.12L137,40l.29-.16.62-.27.52-.25.36-.17.33-.18.62-.4.36-.24.32-.25.35-.21A.43.43,0,0,1,141,37.83Z"/><path class="cls-4" d="M140,31.45h.08l.11,0,.24.19a.29.29,0,0,1,.13.26,3.37,3.37,0,0,1-.53.58l1.9-.06a.14.14,0,0,0,0,.06l.05.06a.37.37,0,0,1,.11.17c0,.16-.2.37-.62.64l-1,.55-.7.42-1.12.72-1.5.78-.88.38-.28.11-.29.07-.37.09a.8.8,0,0,1-.31,0l-.16-.09a.53.53,0,0,1-.17-.47c0-.14.1-.25.32-.33l.31,0a2.91,2.91,0,0,0,.6-.06,2.7,2.7,0,0,0,.6-.21l.14,0,.22-.11.57-.25,2.84-1.63h-2.54a.48.48,0,0,1-.09-.16,1,1,0,0,1,0-.28l.06-.15.19,0,.2-.09a1.91,1.91,0,0,0,.32-.16l.58-.27.41-.21a.31.31,0,0,0,.18-.19.77.77,0,0,1,.11-.16l.11,0Z"/><path class="cls-4" d="M148.75,26.83a.46.46,0,0,1,.28-.1c.27,0,.41.18.41.54l0,.13a.22.22,0,0,1-.08.09,15.94,15.94,0,0,1-1.56,1.06,13,13,0,0,1-1.58.8l-.21.07-.16,0a.34.34,0,0,1-.32-.25l0-.14,0-.2c0-.13.08-.22.25-.28a8.37,8.37,0,0,0,1.25-.66l.41-.24.6-.37C148.3,27.15,148.54,27,148.75,26.83Z"/><path class="cls-4" d="M147.84,31.75h.22l.14,0a.45.45,0,0,1,.14.07.75.75,0,0,1,.36.48l.06.26,0,.18a.37.37,0,0,1,0,.14l0,.21-.11.39-.13.36-.12.28-.16.3a1.4,1.4,0,0,1-.45.56l-.2.05-.11,0-.12,0-.12-.05-.17-.12,0-.19a.49.49,0,0,1,0-.15.27.27,0,0,1,.08-.13l.18-.24.18-.27.3-.56.11-.31a.54.54,0,0,0,0-.08.12.12,0,0,0,0-.09l-.08,0a.59.59,0,0,0-.34.12l-.27.24-.61.51-1.18.92-.43.3-.49.29-.37.21-.31.11-.24,0-.22,0-.14,0a.35.35,0,0,1-.15-.33V35a.23.23,0,0,1,0-.13l.06-.16a.6.6,0,0,1,.24-.17l.31,0h.27l.18-.06.38-.19.59-.39.29-.21.29-.24.37-.33.38-.32.36-.34.38-.33A1,1,0,0,1,147.84,31.75Z"/><path class="cls-4" d="M154.58,37.55c.25,0,.37.19.37.57,0,0,0,.1-.16.19l-.19.14-.28.18-1.43.86-1.52.87-.13,0c-.25,0-.37-.16-.37-.47s.13-.32.41-.47l.6-.33.56-.32,1-.61A5,5,0,0,1,154.58,37.55Zm.49,1.57.12,0,.18,0a.37.37,0,0,1,.36.29l0,.23a.26.26,0,0,1-.1.23L153.57,41l-1,.57-.17.07-.17.06a.5.5,0,0,1-.35-.21l0-.15v-.15A.38.38,0,0,1,152,41a2.52,2.52,0,0,1,.49-.35l.84-.43c.33-.18.66-.37,1-.58Z"/><path class="cls-4" d="M154.94,30.87l.17-.05h.17a.32.32,0,0,1,.21.14.62.62,0,0,1,0,.14v.11a.69.69,0,0,1-.38.46l-.22.11.1.06.25.14a.92.92,0,0,1,.2.18.37.37,0,0,1,.06.21c0,.14-.1.29-.3.46l-.86.39.24.14.25.16a1.87,1.87,0,0,1,.05.27v.09a.28.28,0,0,1-.05.12l-.24.23-.49.37-.53.39-.43.31-1.13.76c-.17.12-.31.2-.41.26l-.36.19-.12,0-.18.09-.46.2A1.71,1.71,0,0,1,150,37a.46.46,0,0,1-.21,0l-.13-.06-.1-.09a.38.38,0,0,1-.09-.15,1,1,0,0,1,0-.23q0-.33.51-.45l.22,0,.16,0,.21-.06.18-.06a1,1,0,0,0,.22-.07l.3-.14.29-.16,1.07-.68.52-.35.73-.52-.41-.27a.46.46,0,0,1-.17-.35.3.3,0,0,1,.05-.15,1.17,1.17,0,0,1,.2-.21l.33-.17.51-.25-.23-.14-.28-.16-.15-.1-.06-.06-.08-.14,0-.06,0-.08a.17.17,0,0,0,.06-.06l.19-.15,0,0,.08,0a1.31,1.31,0,0,0,.28-.09l.22-.1a1,1,0,0,0,.21-.1l.19-.14Z"/><path class="cls-4" d="M153.39,118.29h.19l.15,0,.43.07.45.13.31.14a.74.74,0,0,1,.42.59l0,.21-.12.2-.12.17-.31.26-1.09.72-1,.53-.42.18-.38.08a.44.44,0,0,1-.29-.12l-.08-.14,0-.18,0-.18s.06-.09.14-.17l.35-.17.67-.28.86-.44.35-.19.26-.18.05-.12c0-.16-.22-.24-.65-.24l-.45,0-.53.18c-.37,0-.56-.16-.56-.47a.36.36,0,0,1,.09-.26.91.91,0,0,1,.29-.18l.52-.17Zm3.74,0a2.63,2.63,0,0,1,.72.11.65.65,0,0,1,.21.07l.16.07.32.22a.6.6,0,0,1,.22.23.67.67,0,0,1,.08.33l-.05.12-.07.14-.16.19-.17.19-.15.18-.22.18-.6.47-.59.4-.53.31-.23.06-.25,0-.19,0a.29.29,0,0,1-.16-.09l-.08-.16a.44.44,0,0,0,0-.13.28.28,0,0,1,.1-.2l.19-.1.24-.12.36-.17.63-.34.48-.38.25-.22a.5.5,0,0,0,.1-.21.22.22,0,0,0-.16-.24l-.37,0H157l-.17.05-.19.07-.15,0-.12,0-.33,0-.13-.07-.06,0-.08-.06a.93.93,0,0,1-.06-.21l0-.13a.35.35,0,0,1,.08-.13,1.24,1.24,0,0,1,.24-.17l.17-.08.15,0a2,2,0,0,1,.38-.11l.28,0Z"/><path class="cls-4" d="M157.52,123.39h.14l.12,0a.52.52,0,0,1,.24.28l0,.25a.32.32,0,0,1-.12.29l-.49.21.24.24a.74.74,0,0,1,.23.53v.24s0,.06,0,.08a.13.13,0,0,1,0,.08,1.23,1.23,0,0,1-.66.87l-.35.19-.25.08-.3,0H156l-.31,0-.59-.14-.11-.07-.39.33-.18.16-.23.18-.51.37-.21.14-.39.24-.36.22-.73.4-.14.07-.17.08-.3.16-.29.05a.69.69,0,0,1-.63-.36l0-.09,0-.19a.34.34,0,0,1,.1-.28l.13-.1.11-.06h.63a1.07,1.07,0,0,0,.48-.12l.81-.43.28-.18.47-.31.3-.22.2-.21.16-.12.18-.2-.12-.22,0-.15,0-.15a.61.61,0,0,1,.34-.38l.25-.05h.17l.23.1a.43.43,0,0,1,.22.24l0,.2.07.06.21.13.22.09.28,0,.19,0,.15-.06a1,1,0,0,0,.39-.25l.1-.16.06-.14a.53.53,0,0,0-.07-.26l-.12-.13-.17-.11-.16-.1-.31-.15-.29-.21-.05-.11,0-.15a.21.21,0,0,1,.1-.18l.28-.13h.5l.19-.08.17-.12.16-.1.17-.07Z"/><path class="cls-4" d="M165.41,119.56c0,.71-.46,1.3-1.37,1.79a2.11,2.11,0,0,1-.94.28c-.89,0-1.33-.38-1.33-1.14a1.86,1.86,0,0,1,.76-1.47,2.51,2.51,0,0,1,1.62-.63,1.25,1.25,0,0,1,.5.08.84.84,0,0,1,.4.23A1.07,1.07,0,0,1,165.41,119.56Zm-.83.14c0-.32-.22-.47-.66-.47a1.19,1.19,0,0,0-.83.39,1.16,1.16,0,0,0-.41.84c0,.2.14.3.4.3h.2a1.46,1.46,0,0,0,.82-.36A1,1,0,0,0,164.58,119.7Z"/><path class="cls-4" d="M165.22,125v.28l0,.09-.05.18a.2.2,0,0,1-.06.14l-.21.3-.1.13a1.28,1.28,0,0,1-1.06.39h-.22l-.15,0-.12,0-.13-.07-.26-.16-.25-.21-.24-.3-.05-.07a.62.62,0,0,0-.24.13l-.25.22-.31.33.31.12.21.11a.68.68,0,0,1,.4.54.64.64,0,0,1-.13.4,1.66,1.66,0,0,1-.4.42,3.27,3.27,0,0,1-.41.23l-.27.12-.53.19-.21.06-.52.11-.21,0-.16,0-.17,0-.2-.09a.23.23,0,0,1-.11-.11l-.06-.32a.63.63,0,0,1,.06-.34l.11-.09.19,0h.34l.49.13.35,0a.83.83,0,0,0,.62-.21l.13-.17,0-.18c0-.13-.13-.25-.39-.34l-.33-.11a.42.42,0,0,1-.28-.45,1,1,0,0,1,.22-.38l.71-.67.28-.23.41-.28.53-.3a3.32,3.32,0,0,1,1.65-.46l.27,0a.9.9,0,0,1,.48.38l.15.22a1,1,0,0,1,.09.26Zm-.87.21a.39.39,0,0,0-.37-.41h-.18a.9.9,0,0,0-.28,0,1.11,1.11,0,0,0-.3.16l-.12.1-.11.11.26.26a.86.86,0,0,0,.24.13l.11,0,.2,0a.58.58,0,0,0,.33-.08l.12,0,.07-.11Z"/><path class="cls-4" d="M171.69,118.3l.24-.09.26,0a.5.5,0,0,1,.37.1.29.29,0,0,1,.15.26.3.3,0,0,1-.13.29l-.1.08-.17.07-.33.15-.94.43c-.5.23-.74.52-.74.88a.4.4,0,0,0,.15.3l.11,0,.15,0,.32,0,.29,0,.13,0,.11,0,.15-.08.16,0c.13,0,.21,0,.25,0l.15.19a.49.49,0,0,1,0,.24c0,.24-.28.42-.7.54l-.27.07-.26,0-.38,0-.43-.12-.21-.07-.19-.12a1.08,1.08,0,0,1-.55-1,1.09,1.09,0,0,1,.21-.61l.2-.25.29-.28.23-.17.29-.19.52-.32Z"/><path class="cls-4" d="M170.79,123.58h.09l.11,0,.24.19a.29.29,0,0,1,.13.26,3.14,3.14,0,0,1-.53.57l1.9,0a.08.08,0,0,0,0,0l0,.06a.4.4,0,0,1,.12.18c0,.16-.2.37-.62.63l-1,.56-.7.42-1.12.72L168,128l-.88.38-.28.1-.29.08-.37.09a.8.8,0,0,1-.31,0l-.16-.09a.56.56,0,0,1-.18-.47q0-.23.33-.33l.31,0a2.91,2.91,0,0,0,.6-.06,2.7,2.7,0,0,0,.6-.21l.14-.06.22-.1.57-.25,2.84-1.63-2.54,0a.35.35,0,0,1-.09-.15,1.09,1.09,0,0,1,0-.28l.06-.15.19,0a.91.91,0,0,0,.2-.08,1.91,1.91,0,0,0,.32-.16l.58-.27.41-.22a.32.32,0,0,0,.18-.18.77.77,0,0,1,.11-.16l.11,0Z"/><path class="cls-4" d="M179.51,130a.32.32,0,0,1,.33.21l0,.17v.12a.14.14,0,0,1-.06.12l-.13.16-.1.06-.2.09-.22.11-.39.36-.35.25-.61.4-.55.33-.31.17-.36.18-.6.23-.23.06a.45.45,0,0,1-.33-.14.59.59,0,0,1-.12-.34l0-.16a.23.23,0,0,1,.08-.12l.08-.06.29-.16.62-.27.52-.26.36-.16.33-.19.62-.4.36-.24.32-.25.35-.2A.43.43,0,0,1,179.51,130Z"/><path class="cls-4" d="M179.56,125.83l-.4.39-.27.2-.31.18-.5.25-.5.15-.55.12-.58,0h-.81a.39.39,0,0,1-.2-.05,1.37,1.37,0,0,1-1-.85,1.64,1.64,0,0,1-.07-.52,1.82,1.82,0,0,1,.18-.66l.22-.27.28-.27.14-.12.16-.09.36-.17L176,124l.31-.05h.31l.22.06a.69.69,0,0,1,.19.1l.3.29.29-.28.23-.17.15-.07.17-.07.33-.08.37,0a1.37,1.37,0,0,1,1.1.46l.12.18a1,1,0,0,1,.06.23v.2A1.88,1.88,0,0,1,179.56,125.83Zm-2.88-.77-.2-.11-.2,0h-.22l-.12,0-.21.08a.86.86,0,0,0-.5.79.4.4,0,0,0,.21.33l.35.15.54-.78Zm2.56-.26c0-.18-.13-.27-.41-.27h-.16a1.36,1.36,0,0,0-.43.22l-.54.43-.33.3-.25.3L177,126l-.22.34.71-.12h.09l.16,0A1.75,1.75,0,0,0,178,126l.44-.29.35-.25C179.07,125.21,179.24,125,179.24,124.8Z"/><path class="cls-4" d="M128.58,152h.19l.15,0,.43.07.45.13.31.14a.74.74,0,0,1,.42.59l0,.22-.11.19-.13.17-.31.26-1.09.72-1,.53-.42.19-.38.07a.46.46,0,0,1-.29-.12l-.08-.14,0-.18,0-.18s.05-.09.14-.17l.35-.17.66-.28.86-.44.35-.19.26-.18,0-.11c0-.17-.22-.25-.65-.25l-.45,0-.53.18c-.37,0-.55-.16-.55-.46a.36.36,0,0,1,.08-.27,1,1,0,0,1,.3-.18l.52-.17Zm3.74,0a3.08,3.08,0,0,1,.72.11.63.63,0,0,1,.22.07l.15.07.32.22a.84.84,0,0,1,.23.23.81.81,0,0,1,.07.33l-.05.12-.07.14-.16.2-.17.18-.15.18-.22.18-.59.47-.6.41-.53.3-.23.06-.25,0-.19,0a.33.33,0,0,1-.16-.08l-.08-.17a.37.37,0,0,0,0-.12.29.29,0,0,1,.1-.21l.19-.1.24-.12.37-.17.62-.34.48-.38.25-.22a.5.5,0,0,0,.1-.21.22.22,0,0,0-.16-.24l-.37,0h-.24L132,153l-.19.07-.15.05-.12,0-.33,0-.13-.07-.06,0-.08-.06a.93.93,0,0,1-.06-.21l0-.13a.57.57,0,0,1,.08-.13,1.91,1.91,0,0,1,.24-.17l.17-.08.16,0a1.64,1.64,0,0,1,.38-.1l.27,0Z"/><path class="cls-4" d="M132.71,157.09h.14l.12,0a.52.52,0,0,1,.24.28l0,.25a.33.33,0,0,1-.11.29l-.5.21.24.24a.7.7,0,0,1,.23.53v.24a.19.19,0,0,1,0,.08.16.16,0,0,1,0,.09,1.22,1.22,0,0,1-.65.86l-.36.19-.25.08-.3,0h-.31l-.31,0-.59-.14-.11-.07-.38.33-.19.17-.23.17-.51.38-.21.13-.39.25-.36.21-.72.4-.15.07-.17.08-.3.16-.29,0a.71.71,0,0,1-.63-.36l0-.09,0-.19a.36.36,0,0,1,.1-.28l.14-.1.1-.06h.63a1.07,1.07,0,0,0,.48-.12l.81-.43.28-.18.47-.31.3-.22.2-.21.16-.12.18-.2-.12-.22,0-.15,0-.15a.56.56,0,0,1,.33-.38l.25,0H130l.23.1a.39.39,0,0,1,.22.24l0,.2.07.06.21.14.22.08.28,0,.19,0,.15-.06a1,1,0,0,0,.39-.25l.11-.16.05-.14a.44.44,0,0,0-.07-.26l-.12-.13-.17-.11-.15-.1-.32-.15-.29-.21L131,158l0-.15a.2.2,0,0,1,.09-.18l.28-.12h.23l.27,0,.19-.08.17-.12.16-.1.18-.07Z"/><path class="cls-4" d="M136.27,152h.19l.15,0,.43.07.45.13.31.14a.74.74,0,0,1,.42.59l0,.22-.12.19-.12.17-.31.26-1.09.72-1,.53-.42.19-.38.07a.44.44,0,0,1-.29-.12l-.08-.14,0-.18,0-.18s.06-.09.14-.17l.35-.17.67-.28.86-.44.35-.19.26-.18,0-.11c0-.17-.22-.25-.65-.25l-.45,0-.53.18c-.37,0-.56-.16-.56-.46a.37.37,0,0,1,.09-.27.91.91,0,0,1,.29-.18l.52-.17Zm3.74,0a3.08,3.08,0,0,1,.72.11.65.65,0,0,1,.21.07l.16.07.32.22a.79.79,0,0,1,.22.23.67.67,0,0,1,.08.33l-.05.12-.07.14-.16.2-.17.18-.15.18-.22.18-.6.47-.59.41-.53.3-.23.06-.25,0-.19,0a.33.33,0,0,1-.16-.08l-.08-.17a.37.37,0,0,0,0-.12.29.29,0,0,1,.1-.21l.19-.1.24-.12.36-.17.63-.34.48-.38.25-.22a.5.5,0,0,0,.1-.21.22.22,0,0,0-.16-.24l-.37,0h-.24l-.17.05-.19.07-.15.05-.12,0-.33,0-.13-.07-.06,0-.08-.06a.93.93,0,0,1-.06-.21l0-.13a.35.35,0,0,1,.08-.13,1.91,1.91,0,0,1,.24-.17l.16-.08.16,0a2,2,0,0,1,.38-.1l.28,0Z"/><path class="cls-4" d="M139.52,157.32h.35l.21.05c.12,0,.18.08.18.25l0,.19a.3.3,0,0,1-.1.24.72.72,0,0,1-.32.16l-.44,0-.13,0-.23.06-.41.12c-.13,0-.2.08-.22.16l.12.18,0,.07,0,.1.07.17a.85.85,0,0,1,0,.32v.37a.82.82,0,0,1-.07.21l-.11.22-.07.09-.07.09-.11.11-.13.08-.41.19-.25.06h-2a.81.81,0,0,1-.25,0,.46.46,0,0,1-.19-.09l-.08,0-.17-.12a.77.77,0,0,1-.19-.49.31.31,0,0,1,.07-.21l.15-.17.14-.11a1,1,0,0,1,.4-.12.31.31,0,0,1,.22.12l.12.15.2.14.22,0h.46l.24,0h.24c.32,0,.54-.09.63-.26v-.11l0-.11a.58.58,0,0,0-.11-.24l-.13-.14-.13-.18-.19-.24-.05-.3a.38.38,0,0,1,.07-.24l.18-.12.25-.14.25-.16a2.68,2.68,0,0,1,.36-.16l.43-.15A3.22,3.22,0,0,1,139.52,157.32Z"/><path class="cls-4" d="M147,152.66a.48.48,0,0,1,.29-.1c.27,0,.4.18.4.54l0,.13a.17.17,0,0,1-.07.08,13.64,13.64,0,0,1-1.57,1.07,12.34,12.34,0,0,1-1.58.8l-.21.07-.16.05a.36.36,0,0,1-.32-.25l0-.14,0-.2c0-.13.09-.23.26-.28a9.72,9.72,0,0,0,1.24-.66l.41-.24.6-.37C146.53,153,146.78,152.81,147,152.66Z"/><path class="cls-4" d="M144.89,157.39h.19a.32.32,0,0,1,.16,0h.3a.83.83,0,0,1,.34.06l.34.08c.43.1.64.29.64.57a.79.79,0,0,1-.12.39,1.77,1.77,0,0,1-.16.22,2.08,2.08,0,0,1-.21.22l-.32.3-.39.31-.33.24-.5.33a11.92,11.92,0,0,1-1.48.83l-.61.3-.3.1-.37.12-.26,0-.2,0-.11-.06-.16-.12-.11-.21,0-.08c0-.26.08-.4.25-.43l.27,0H142l.27,0,.17-.05a.84.84,0,0,0,.2,0,1.12,1.12,0,0,0,.24-.1l.31-.16.51-.25.24-.11.41-.22.44-.25.26-.17.15-.12.23-.18a2.47,2.47,0,0,0,.28-.28l.07-.09,0,0a.11.11,0,0,0,0-.08l-.13-.06-.12,0-.28,0-.23,0h-.13l-.47.08-.07,0-.13.06-.15,0-.1.05h-.17l-.17,0-.21,0a.44.44,0,0,1-.29-.37.68.68,0,0,1,.06-.31,1.08,1.08,0,0,1,.29-.2l.25-.08.25-.08Z"/><path class="cls-4" d="M27.63,167.94h.2l.15,0,.43.08.44.12.32.15a.7.7,0,0,1,.41.58l0,.22-.11.19-.13.17-.31.26-1.08.72-1,.53-.41.19-.38.07a.44.44,0,0,1-.29-.12l-.08-.14,0-.18,0-.17s0-.1.14-.18l.35-.17.66-.28.86-.44.35-.18.26-.19.06-.11c0-.16-.22-.25-.66-.25l-.44,0-.53.18c-.37,0-.56-.15-.56-.46a.38.38,0,0,1,.09-.27.8.8,0,0,1,.29-.18l.52-.17Zm3.74,0a2.94,2.94,0,0,1,.72.11,1,1,0,0,1,.22.07l.16.07.32.22a.71.71,0,0,1,.22.24.66.66,0,0,1,.07.32l0,.12-.08.15-.16.19-.16.18-.16.18-.21.18-.6.48-.59.4-.53.3-.23.06-.25,0h-.2a.31.31,0,0,1-.15-.09l-.09-.17a.22.22,0,0,0,0-.12.31.31,0,0,1,.11-.21l.18-.1.25-.12.36-.17.63-.34.47-.38.25-.22a.49.49,0,0,0,.11-.21.24.24,0,0,0-.17-.24l-.37,0-.23,0-.18,0-.18.07-.15.05-.13,0-.32,0L30.1,169l-.05-.05-.08-.06a.93.93,0,0,1-.06-.21v-.12a.42.42,0,0,1,.09-.14,1.72,1.72,0,0,1,.23-.17l.17-.07.16,0A2,2,0,0,1,31,168l.28,0Z"/><path class="cls-4" d="M31.77,173.05h.14a.22.22,0,0,1,.12,0,.54.54,0,0,1,.24.27l0,.26a.32.32,0,0,1-.12.29l-.49.2.24.24a.76.76,0,0,1,.23.54v.23a.28.28,0,0,0,0,.09.16.16,0,0,1,0,.08,1.24,1.24,0,0,1-.66.86l-.36.19-.24.09-.31,0h-.3l-.31,0-.6-.15-.1-.06-.39.33-.19.16-.23.18-.5.37-.22.13-.38.25-.36.21-.73.41-.15.06-.17.08-.3.17-.29,0a.69.69,0,0,1-.62-.35l0-.09-.05-.2a.34.34,0,0,1,.11-.27l.13-.11.1-.06h.64a1.06,1.06,0,0,0,.47-.12l.81-.43.29-.18.46-.31.31-.22.19-.2.17-.13.17-.19-.12-.23,0-.15,0-.14a.6.6,0,0,1,.33-.38l.26-.06h.17l.22.11a.41.41,0,0,1,.22.23l0,.21.06,0,.21.14.23.09h.28l.18,0,.16-.06a1.1,1.1,0,0,0,.39-.25l.1-.16.05-.14a.53.53,0,0,0-.06-.26l-.12-.13-.17-.1-.16-.11-.31-.15-.29-.21-.05-.11-.05-.15a.17.17,0,0,1,.1-.17l.27-.13h.23l.28,0,.18-.08.17-.12.17-.09.17-.08Z"/><path class="cls-4" d="M39.66,169.22c0,.7-.46,1.29-1.38,1.78a2,2,0,0,1-.94.28c-.88,0-1.33-.38-1.33-1.13a1.87,1.87,0,0,1,.77-1.48A2.51,2.51,0,0,1,38.4,168a1.5,1.5,0,0,1,.5.08,1,1,0,0,1,.4.23A1.1,1.1,0,0,1,39.66,169.22Zm-.84.13c0-.31-.22-.47-.66-.47a1.21,1.21,0,0,0-.83.39,1.15,1.15,0,0,0-.4.85c0,.19.13.29.4.29h.2a1.46,1.46,0,0,0,.81-.36C38.66,169.81,38.82,169.58,38.82,169.35Z"/><path class="cls-4" d="M36.28,173.34l.27,0a.61.61,0,0,1,.39.23l.1.17a.46.46,0,0,0,.24.12.41.41,0,0,0,.19-.08l.18-.16.13-.11.14-.12a.26.26,0,0,1,.13-.06.65.65,0,0,1,.21,0h.1l.11,0,.16.09.08.05.06.08.1.22.07.2.06,0,.09,0a1,1,0,0,0,.41-.12l.18-.14.18-.18a.27.27,0,0,1,.08-.07.35.35,0,0,1,.11-.08l.24-.13.19,0h.18a.12.12,0,0,1,.12.08l.11.13,0,.12a.63.63,0,0,1-.16.43l-.21.25a.43.43,0,0,1-.24.17l-.26.15-.32.13-.32.1-.58.11a.85.85,0,0,1-.47-.13l-.18-.15-.19-.19h-.36a.79.79,0,0,0-.28,0,.39.39,0,0,0-.19.1l-.39.35-.58.49-.6.44a.83.83,0,0,1-.17.12c-.06.05-.14.09-.21.14l-.27.17-.84.47-.65.36-.26.11-.3.11-.26,0-.28,0-.18,0L32,177.4a.52.52,0,0,1-.25-.52.41.41,0,0,1,.25-.38l.18,0h.14l.51,0a1.7,1.7,0,0,0,.56-.23L34,176l.67-.35.61-.4.46-.37.12-.13a.57.57,0,0,0,0-.14l-.22-.4,0-.21v-.1a.22.22,0,0,1,0-.1l.12-.16A.76.76,0,0,1,36.28,173.34Z"/><path class="cls-4" d="M47.49,168.61a.46.46,0,0,1,.28-.1c.27,0,.41.18.41.54l0,.13a.22.22,0,0,1-.08.09,14.34,14.34,0,0,1-1.56,1.06,13,13,0,0,1-1.58.8l-.21.07-.16.05a.34.34,0,0,1-.32-.25l0-.14,0-.19c0-.14.08-.23.25-.29a8.37,8.37,0,0,0,1.25-.66l.41-.24c.2-.12.41-.24.6-.37S47.28,168.77,47.49,168.61Z"/><path class="cls-4" d="M46,173.23h.09l.1,0,.24.19a.3.3,0,0,1,.14.26,2.87,2.87,0,0,1-.54.58l1.9,0,0,0,0,.06a.33.33,0,0,1,.12.17c0,.16-.21.37-.62.64l-1,.55-.7.42-1.13.72-1.5.78-.88.38-.28.11-.29.07-.36.09a.89.89,0,0,1-.32,0l-.16-.09a.59.59,0,0,1-.17-.48c0-.14.11-.25.32-.33l.32,0a2.88,2.88,0,0,0,.59-.07,2.6,2.6,0,0,0,.61-.21l.14-.05.21-.11.58-.25L46.36,175H43.81a.48.48,0,0,1-.08-.16,1,1,0,0,1,0-.28l0-.15.19,0,.2-.09a1.66,1.66,0,0,0,.33-.16l.58-.27.41-.21a.39.39,0,0,0,.18-.18c0-.1.08-.15.11-.16l.1,0Z"/><path class="cls-4" d="M54.72,179.61a.32.32,0,0,1,.33.22l0,.17,0,.12a.13.13,0,0,1,0,.12l-.13.16-.11,0-.2.1-.21.1L54,181l-.35.25-.62.39-.54.33-.31.18a2.36,2.36,0,0,1-.37.18l-.6.23-.22.06a.49.49,0,0,1-.33-.14.63.63,0,0,1-.13-.35l0-.16a.35.35,0,0,1,.07-.12l.08-.06.29-.15.63-.28.52-.25.36-.17.32-.18.63-.4.35-.24.32-.25.35-.2A.47.47,0,0,1,54.72,179.61Z"/><path class="cls-4" d="M52.18,173.34l.27,0a.57.57,0,0,1,.38.23l.11.17a.46.46,0,0,0,.24.12.41.41,0,0,0,.19-.08l.18-.16.13-.11.14-.12a.23.23,0,0,1,.13-.06.62.62,0,0,1,.21,0h.1l.11,0,.16.09.08.05.06.08.1.22.07.2.06,0,.09,0a1,1,0,0,0,.41-.12l.18-.14.18-.18.07-.07.12-.08.24-.13.19,0h.18a.12.12,0,0,1,.12.08l.11.13,0,.12a.63.63,0,0,1-.15.43l-.21.25a.43.43,0,0,1-.24.17l-.27.15-.32.13-.31.1-.58.11a.85.85,0,0,1-.47-.13l-.18-.15-.19-.19h-.36a.79.79,0,0,0-.28,0,.39.39,0,0,0-.19.1l-.39.35-.58.49-.6.44a.83.83,0,0,1-.17.12,2.11,2.11,0,0,1-.22.14l-.26.17-.84.47-.65.36-.26.11-.3.11-.26,0-.28,0-.18,0-.21-.08a.52.52,0,0,1-.25-.52.41.41,0,0,1,.24-.38l.19,0h.13l.52,0a1.7,1.7,0,0,0,.56-.23l.58-.3.67-.35.61-.4.46-.37.11-.13a.34.34,0,0,0,0-.14l-.22-.4,0-.21v-.1a.22.22,0,0,1,0-.1l.11-.16A.81.81,0,0,1,52.18,173.34Z"/><path class="cls-4" d="M80.73,170.09h.19l.15,0,.43.08.45.12.31.14a.74.74,0,0,1,.42.59l0,.22-.12.19-.12.17-.31.26-1.09.72-1,.53-.42.19-.38.07a.44.44,0,0,1-.29-.12l-.08-.14,0-.18,0-.18s.06-.09.14-.17l.35-.17.67-.28.86-.44.35-.19.26-.18,0-.11c0-.17-.22-.25-.65-.25l-.45,0-.53.18c-.37,0-.56-.16-.56-.46a.37.37,0,0,1,.09-.27.91.91,0,0,1,.29-.18l.52-.17Zm3.74,0a3.08,3.08,0,0,1,.72.11l.21.07.16.07.32.22a.71.71,0,0,1,.22.24.63.63,0,0,1,.08.32l-.05.12-.07.14-.16.2-.17.18-.15.18-.22.18-.6.48-.59.4-.53.3-.23.06-.25,0H83a.29.29,0,0,1-.16-.09l-.08-.17a.37.37,0,0,0,0-.12.29.29,0,0,1,.1-.21l.19-.1.24-.12.36-.17.63-.34.48-.38.25-.22a.5.5,0,0,0,.1-.21.23.23,0,0,0-.16-.24l-.37,0h-.24l-.17.05-.19.07-.15.05-.12,0-.33,0-.13-.07-.06,0-.08-.06a.93.93,0,0,1-.06-.21l0-.13a.46.46,0,0,1,.08-.13,1.91,1.91,0,0,1,.24-.17l.16-.07.16,0a2,2,0,0,1,.38-.1l.28,0Z"/><path class="cls-4" d="M84.86,175.19H85a.21.21,0,0,1,.12,0,.47.47,0,0,1,.24.27l0,.25a.31.31,0,0,1-.12.29l-.49.21.24.24a.74.74,0,0,1,.23.54v.23s0,.06,0,.09a.16.16,0,0,1,0,.08,1.24,1.24,0,0,1-.66.86l-.35.19-.25.08-.3,0h-.31l-.31,0-.59-.14-.11-.06-.39.32-.18.17-.23.18-.51.37-.21.13-.39.25L80,180l-.73.4-.14.07-.17.08-.3.17-.29,0a.69.69,0,0,1-.63-.36l0-.09,0-.19a.33.33,0,0,1,.1-.27l.13-.11.11-.06h.63a1.07,1.07,0,0,0,.48-.12l.81-.43.28-.18.47-.31.3-.22.2-.2.16-.13.18-.19-.12-.23,0-.15,0-.15a.57.57,0,0,1,.34-.37l.25-.06h.17l.23.11a.38.38,0,0,1,.22.23l0,.2.07.06.21.14.22.09h.28l.19,0,.15-.06a1,1,0,0,0,.39-.25l.1-.16.06-.14a.53.53,0,0,0-.07-.26l-.12-.13-.17-.11-.16-.1-.31-.15-.29-.21,0-.11,0-.15a.21.21,0,0,1,.1-.18l.28-.12h.23l.27,0,.19-.08.17-.12.16-.1.17-.07Z"/><path class="cls-4" d="M88.42,170.09h.19l.15,0,.43.08.44.12.32.14a.71.71,0,0,1,.41.59l0,.22-.11.19-.12.17-.32.26-1.08.72-1,.53-.41.19-.38.07a.44.44,0,0,1-.29-.12l-.08-.14,0-.18,0-.18s0-.09.14-.17l.35-.17.66-.28.87-.44.35-.19.26-.18,0-.11c0-.17-.22-.25-.66-.25l-.44,0-.53.18c-.37,0-.56-.16-.56-.46a.37.37,0,0,1,.09-.27.8.8,0,0,1,.29-.18l.52-.17Zm3.74,0a3.08,3.08,0,0,1,.72.11l.21.07.16.07.32.22a.71.71,0,0,1,.22.24.63.63,0,0,1,.08.32l-.05.12-.07.14-.17.2-.16.18-.16.18-.21.18-.6.48-.59.4-.53.3-.23.06-.25,0h-.2a.31.31,0,0,1-.15-.09l-.08-.17a.21.21,0,0,0,0-.12.31.31,0,0,1,.11-.21l.18-.1.25-.12.36-.17.63-.34.47-.38.26-.22a.5.5,0,0,0,.1-.21.23.23,0,0,0-.16-.24l-.37,0H92l-.17.05-.19.07-.15.05-.12,0-.33,0-.14-.07,0,0-.08-.06a.93.93,0,0,1-.06-.21l0-.13a.46.46,0,0,1,.08-.13,1.91,1.91,0,0,1,.24-.17l.16-.07.16,0a2,2,0,0,1,.38-.1l.28,0Z"/><path class="cls-4" d="M92,177.63l-.4.39-.27.2-.31.19-.5.24-.49.16-.56.12-.58,0H88a.41.41,0,0,1-.2-.06,1.35,1.35,0,0,1-1-.85,1.61,1.61,0,0,1-.07-.51,1.81,1.81,0,0,1,.18-.67l.22-.27.28-.27.14-.12.16-.09.36-.17.33-.11.32,0H89l.22.06.19.1.3.29L90,176l.23-.17.15-.07.17-.07.33-.07.37,0a1.37,1.37,0,0,1,1.1.46l.12.18a1,1,0,0,1,.06.23v.2A1.88,1.88,0,0,1,92,177.63Zm-2.88-.77-.2-.11-.2,0h-.22l-.12,0-.21.09a.85.85,0,0,0-.5.78.39.39,0,0,0,.21.33l.35.15.55-.78Zm2.56-.26c0-.18-.13-.27-.41-.27l-.16,0a1.24,1.24,0,0,0-.43.21l-.54.43-.33.3-.25.3-.14.19-.23.34.71-.12H90l.15-.05a1.75,1.75,0,0,0,.24-.14l.44-.29.35-.25C91.47,177,91.64,176.79,91.64,176.6Z"/><path class="cls-4" d="M95.74,175.48l.27,0a.56.56,0,0,1,.38.22l.11.17a.35.35,0,0,0,.24.12.37.37,0,0,0,.19-.07l.18-.16.13-.12.14-.11a.26.26,0,0,1,.13-.06.58.58,0,0,1,.21,0h.1l.11,0,.16.08.08.06.06.08.1.22.07.2.06,0,.09,0a1,1,0,0,0,.41-.12l.18-.14.18-.18a.27.27,0,0,1,.08-.07.35.35,0,0,1,.11-.08l.24-.13.19,0h.18a.14.14,0,0,1,.12.09l.11.13.05.12a.63.63,0,0,1-.16.43l-.21.24a.49.49,0,0,1-.24.18l-.26.14-.32.14-.32.1-.58.11a1,1,0,0,1-.47-.13l-.18-.15-.19-.19h-.36a1.14,1.14,0,0,0-.28,0,.67.67,0,0,0-.19.1l-.39.36-.58.49-.6.44a.83.83,0,0,1-.17.12l-.22.14-.26.16-.84.48-.65.36-.26.11a2.63,2.63,0,0,1-.3.1l-.26.06-.28,0-.18,0-.21-.09a.5.5,0,0,1-.25-.51.41.41,0,0,1,.24-.38l.19,0h.65a1.59,1.59,0,0,0,.56-.22l.58-.3.67-.35.61-.41.46-.36.11-.13a.34.34,0,0,0,0-.14l-.22-.41,0-.2V176a.27.27,0,0,1,0-.11l.12-.15A.8.8,0,0,1,95.74,175.48Z"/><path class="cls-4" d="M107,170.76a.44.44,0,0,1,.28-.1c.27,0,.41.18.41.54l0,.13a.22.22,0,0,1-.08.09,15.94,15.94,0,0,1-1.56,1.06,13,13,0,0,1-1.58.8l-.21.07a.67.67,0,0,1-.17.05.36.36,0,0,1-.32-.25l0-.14,0-.2c0-.13.09-.22.26-.28a8.37,8.37,0,0,0,1.25-.66l.41-.24.6-.37C106.5,171.08,106.74,170.92,107,170.76Z"/><path class="cls-4" d="M101.05,179.68a.8.8,0,0,1-.51-.13.51.51,0,0,1-.16-.42V179a.27.27,0,0,1,.14-.23.92.92,0,0,1,.33-.11,2.56,2.56,0,0,0,1-.24l.84-.46a1.51,1.51,0,0,0,.47-.26l.56-.38.23-.15.24-.2-.11-.1-.2-.23-.09-.19v-.2a.57.57,0,0,1,.07-.2l.14-.12a.57.57,0,0,1,.37-.15,1.4,1.4,0,0,1,.49.15l.16.09.19.12.57-.3.67-.37.35-.15a2.67,2.67,0,0,1,.71-.21.85.85,0,0,1,.33.1.43.43,0,0,1,.13.31v.11a.46.46,0,0,1-.13.2l-.24.15-.14.06-.38.18-.36.15-.56.16-.29.08.45.22.34.18.18.16,0,.06v.1a.27.27,0,0,1,0,.12l0,.12a.31.31,0,0,1-.16.16l-.18.08-.24,0a.26.26,0,0,1-.14,0l-.92-.47-.32.2-.32.24-.44.26-.62.4-1.13.65-.46.25-.43.21-.24.08Z"/><path class="cls-4" d="M114.59,170.76a.46.46,0,0,1,.28-.1c.28,0,.41.18.41.54l0,.13a.18.18,0,0,1-.07.09,16,16,0,0,1-1.57,1.06,12.34,12.34,0,0,1-1.58.8l-.21.07-.16.05c-.14,0-.24-.08-.32-.25l0-.14,0-.2c0-.13.08-.22.26-.28a8.48,8.48,0,0,0,1.24-.66l.41-.24.6-.37C114.14,171.08,114.38,170.92,114.59,170.76Z"/><path class="cls-4" d="M114.72,175.19h.14a.21.21,0,0,1,.12,0,.54.54,0,0,1,.24.27l0,.25a.31.31,0,0,1-.12.29l-.49.21.24.24a.74.74,0,0,1,.23.54v.23a.28.28,0,0,0,0,.09.2.2,0,0,1,0,.08,1.22,1.22,0,0,1-.65.86l-.36.19-.24.08-.31,0h-.3l-.31,0-.6-.14-.1-.06-.39.32-.19.17-.23.18-.5.37-.22.13-.38.25-.36.21-.73.4-.15.07-.17.08-.3.17-.29,0a.68.68,0,0,1-.62-.36l0-.09-.05-.19a.34.34,0,0,1,.11-.27l.13-.11.1-.06h.63a1.07,1.07,0,0,0,.48-.12l.81-.43.28-.18.47-.31.31-.22.19-.2.17-.13.17-.19-.12-.23,0-.15,0-.15a.55.55,0,0,1,.33-.37l.26-.06h.17l.22.11a.36.36,0,0,1,.22.23l0,.2.06.06.21.14.22.09h.29l.18,0,.16-.06a1.1,1.1,0,0,0,.39-.25l.1-.16.05-.14a.53.53,0,0,0-.06-.26l-.12-.13-.17-.11-.16-.1-.31-.15-.29-.21-.06-.11,0-.15a.19.19,0,0,1,.1-.18l.27-.12h.23l.28,0,.18-.08.17-.12.17-.1.17-.07Z"/><path class="cls-4" d="M166.77,44.44h2.37V55.9H176V58h-9.24Z"/><path class="cls-4" d="M177.19,46.9c1.82,0,3.54-.61,3.86-2.2h1.76V58h-2.36V48.6h-3.26Z"/><path class="cls-4" d="M162,94.53h2.36V106h6.87V108H162Z"/><path class="cls-4" d="M181.16,108h-9a6,6,0,0,1,2.92-5c1.72-1.24,3.95-2.29,4-4.35a2.09,2.09,0,0,0-2.23-2.34c-1.71,0-2.22,1.45-2.28,3.31h-2.15c0-2.94,1.61-5.11,4.56-5.11a3.93,3.93,0,0,1,4.25,4.07c0,2.1-1.43,3.4-2.95,4.46s-3.14,1.87-3.52,3h6.46Z"/><path class="cls-4" d="M0,157.38H2.37v11.47H9.23v2H0Z"/><path class="cls-4" d="M13.73,163.14c1.44.05,2.94-.46,2.94-2.09a1.9,1.9,0,0,0-2.07-1.87c-1.49,0-2.23,1.34-2.19,2.71H10.25c.12-2.58,1.72-4.51,4.39-4.51,2.06,0,4.18,1.2,4.18,3.54A2.78,2.78,0,0,1,17,163.76v0a3.12,3.12,0,0,1,2.4,3.31c0,2.5-2.15,4-4.69,4-3.07,0-4.6-1.86-4.65-4.62h2.15a2.45,2.45,0,0,0,2.5,2.82A2.31,2.31,0,0,0,17.2,167c0-2.07-1.76-2.33-3.47-2.26Z"/></g><g id="Lines"><line class="cls-5" x1="3.98" y1="49.82" x2="191.58" y2="86.08"/><line class="cls-5" x1="18.83" y1="129.49" x2="145.61" y2="175.75"/></g></g></g></svg>