<svg xmlns="http://www.w3.org/2000/svg" viewBox="0 0 477.59 371.54"><defs><style>.cls-1{fill:#f1f2f2;}.cls-2{fill:#396287;fill-rule:evenodd;}.cls-3,.cls-4{fill:none;}.cls-3{stroke:#1a1a18;stroke-miterlimit:22.93;stroke-width:0.63px;stroke-dasharray:5.72 2.86;}.cls-5{fill:#383838;}</style></defs><title>GA</title><g id="Layer_2" data-name="Layer 2"><g id="Layer_1-2" data-name="Layer 1"><g id="P6"><path class="cls-1" d="M377.25,273c-.37,2.89-1.15,5.78-1.55,8.67-2.63,6.66-5.46,13.15-7.57,19.87-1.15,3.49-4,6.58-5.32,9.78-.26,1.95.2,3,1.46,3a24.13,24.13,0,0,1-3.06,2.29L203.27,242.1l159.25-20.33c.83,3.34,1.72,6.77,2.17,8.2.09.26.18.55.26.83.23.63.77,1.29,1,1.92a4.69,4.69,0,0,0,1.09,1.46c.34.37.8,1.65,1.43,1.65.48.72,3.23.78,4.12.61s2.11-.32,2.63-1.15a.31.31,0,0,0,.05.12c.49,1.28.95,2.6,1.43,3.88,0,.29,0,.61.06.89a19.34,19.34,0,0,0-7.81-1c-3.86-.31-7.37.11-10.15,2.12-.74.54-.83,1.08-.34,1.6,8.46-2,12-.06,14.53,2.4a73.3,73.3,0,0,1,4,10.81C377.94,261.2,377.65,267.55,377.25,273Z"/><path class="cls-2" d="M376.55,243.23c-.13-.88-1.21-2.06-1.22-2.82l-.12-.06c0-.06-.12-.18-.12-.23s-.24-.18-.3-.24h-.12c0-.48-2.14-.21-2.43-.21,0,.12-.06,0-.06.12h-.12l-.06.06-.05.07c-.12,0-.29.12-.42.12s-.12.12-.17.12l-.06.06v.53c.06,0,.12.06.17.12a2.37,2.37,0,0,1,1.19.46,2.41,2.41,0,0,1,1.15.81c.05,0,.11.12.17.12s.25.28.25.28a.74.74,0,0,0,.3.41c0,.3.48.59.48.95.24.11.61,1.06.68,1.35a3,3,0,0,0,.54,1c.06,0,.3.12.36.06v-.06h.12l0-.06c0-.05.06-.17.12-.17a9.28,9.28,0,0,0-.52-3.14l.06-.06Z"/><path class="cls-2" d="M375.36,234.23c-.46-1.71-1.46-2.86-2.26-4.46-1-1.89-2.43-3.57-3.34-5.52a24.72,24.72,0,0,1-1.18-3.26l-6.06.78c.83,3.34,1.72,6.77,2.17,8.2.09.26.18.55.26.83.23.63.77,1.29,1,1.92a4.69,4.69,0,0,0,1.09,1.46c.37.37.8,1.65,1.43,1.65.48.72,3.23.78,4.09.61s2.57-.35,2.83-1.61C375.42,234.66,375.36,234.38,375.36,234.23ZM366,224h-.2c0-.06-.06-.12-.12-.17v-.12c-.17-.2-.37-.66-.48-.77s.06-.43.06-.54l.05-.06h.06v-.06l.06-.06a2.5,2.5,0,0,1,.28-.05c0,.05.2.17.26.17v.06l.11.11h.06l.32.31-.09,0,0,.43h-.06a1.32,1.32,0,0,0-.17.55Zm7.49,10.55h-.06c-.05.11-.11.51-.28.51,0,.15-.06,0-.06.15-.06,0-.2,0-.26,0s-.23.18-.28.23a2.17,2.17,0,0,1-1.83-.8,19.42,19.42,0,0,1-4.26-6.32,5,5,0,0,1-.26-1.6l.71-.66c.18,0,.46-.08.72-.08,0,.11.51.54.6.65h.06c.05.06.11.29.23.29a4.2,4.2,0,0,0,1.14,1.46c0,.17.37.43.37.66.29.17.49.63.66.88h.06l.14.23H371a14.28,14.28,0,0,1,2.46,3.92c-.12,0-.06.06,0,.06v.14h.08Z"/><path class="cls-2" d="M366.41,222.82l0,.43h-.06a1.32,1.32,0,0,0-.17.55L366,224h-.2c0-.06-.06-.12-.12-.17v-.12c-.17-.2-.37-.66-.48-.77s.06-.43.06-.54l.05-.06h.06v-.06l.06-.06a2.5,2.5,0,0,1,.28-.05c0,.05.2.17.26.17v.06l.11.11h.06l.32.31Z"/><path class="cls-2" d="M373.53,234.29v.23h-.06c-.05.11-.11.51-.28.51,0,.15-.06,0-.06.15-.06,0-.2,0-.26,0s-.23.18-.28.23a2.17,2.17,0,0,1-1.83-.8,19.42,19.42,0,0,1-4.26-6.32,5,5,0,0,1-.26-1.6l.71-.66c.18,0,.46-.08.72-.08,0,.11.51.54.6.65h.06c.05.06.11.29.23.29a4.2,4.2,0,0,0,1.14,1.46c0,.17.37.43.37.66.29.17.49.63.66.88h.06l.14.23H371a14.28,14.28,0,0,1,2.46,3.92c-.12,0-.06.06,0,.06v.14Z"/><path class="cls-2" d="M383.89,274.86c-1.35,5.92-3.38,10.9-4.72,16.81-1.78,4.58-3,10.09-5.1,14.67-2.13,3.3-4.5,6.18-7.74,7.53-2.81,1.21-3.88.24-3.52-2.54,1.35-3.21,4.17-6.29,5.32-9.77,2.1-6.74,4.95-13.21,7.59-19.88.37-2.9,1.15-5.79,1.53-8.68.4-5.44.69-11.79-.25-16.88a79.36,79.36,0,0,0-4-10.83c-2.57-2.44-6.08-4.34-14.53-2.38-.51-.53-.4-1.07.34-1.61,2.76-2,6.28-2.42,10.15-2.11a20.85,20.85,0,0,1,9.21,1.47l6.18,7.5q.12,7.86.23,15.71l-.72,11Z"/><path class="cls-2" d="M323.47,278.48a1.61,1.61,0,0,1,1.47,1.19c0,.48-.8.44-1.5.46s-1.3-.47-1.31-1,.65-.67,1.34-.69Z"/><path class="cls-2" d="M308,277.45c1-.24,1.39.58.85,1.42s-.58.63-1.06.64-.86-.67-.87-1.28.06-.54,1.08-.78Z"/><path class="cls-2" d="M335.47,283.09c.95.15,1.5.6,1.33,1.36s-.8.44-1.5.46-1.27-.21-1.32-1,.55-1,1.49-.87Z"/><path class="cls-2" d="M333.82,270.61a1.81,1.81,0,0,1,1.12.8c.28.55-.85,1-1.55,1a1.09,1.09,0,0,1-1.12-1.22c.08-.59,1.27-.67,1.55-.56Z"/><path class="cls-2" d="M337.31,258.06c.95.15,1.29.63,1.11,1.39s-.67.76-1.37.77a1.32,1.32,0,0,1-1.34-1.26c0-.74.67-1.06,1.6-.9Z"/><path class="cls-2" d="M362,255.52c1.08.11,1.88.21,1.71,1.07s-1.29,1.12-2.1,1.24-1.36-.16-1.44-1,.75-1.45,1.83-1.32Z"/><path class="cls-2" d="M339.65,294.87c.46,0,.86.13.86.59s-.26,1-.72,1a1.08,1.08,0,0,1-1-1c0-.45.35-.58.81-.59Z"/><path class="cls-2" d="M239,249.24c.58,0,.91.11,1.09.85a1.13,1.13,0,0,1-1.78,1c-.85-.71-.66-.81-.47-1.24a1.11,1.11,0,0,1,1.16-.64Z"/><path class="cls-2" d="M341.63,295.42a.39.39,0,0,1,.42.53c-.1.3-.08.47-.4.55s-.49-.11-.38-.5,0-.58.36-.58Z"/><path class="cls-2" d="M377.74,281.46c.24,0,.43.53.44,1.18s-.17,1.19-.4,1.19-.44-.52-.45-1.18.18-1.19.41-1.19Z"/><path class="cls-2" d="M375.81,285.13c.23,0,.36.49.29,1s-.33.91-.56.88-.35-.48-.28-1,.33-.91.55-.88Z"/><path class="cls-2" d="M374.87,289.22c.52-.37.56-.14.74.77.51.31-1.87,3-3.13,4.54-.2.07-.25,0-.15-.25a23.74,23.74,0,0,1,2.54-5.06Z"/><path class="cls-2" d="M374.24,293.86c-.08-.37.18-.77.94-.41a9.25,9.25,0,0,1,.09,3.19,6.86,6.86,0,0,1-1.09,2.66c-.46,0-.44-.93-.61-1.64.23-.72.52-.82.91-1.41-.13-.95-.18-1.45-.24-2.39Z"/><path class="cls-2" d="M372.39,295.71c.74.22.35,1.4-.31,3.23s-1.13,3.28-1.74,3.18-.23-1.49.27-3.34,1-3.3,1.78-3.07Z"/></g><g id="P5"><path class="cls-1" d="M362.52,221.77,203.27,242.1l-1.55-.72,115.5-75.87c1.89,1.12,4.52,2.21,5.89,2.92,2.44,1.29,5.32,3.43,6.3,6.06,1,2.86,7.37,4.61,8.37,1.55.63-.12.63-1,.32-2l.06.06c1,.8,7.57-1.06,8.6-.23,6.07.54,4.21,4.77,3.12,7a7,7,0,0,0-.77-.88,32.09,32.09,0,0,0-2.83-1.72,2.17,2.17,0,0,0-1.09-.06c-.63.09-1.14,1.46-1.49,1.8,0,1.55,3.55,6,4.78,6.44,2.72.89,3.43.46,3.4-2.52a4.45,4.45,0,0,1,.66,1.66c4.4,1.29,4,4.15,2.89,7.21.14.17.31.34.46.54a1.91,1.91,0,0,0-1.18.29,1.1,1.1,0,0,1-.28.34,3.6,3.6,0,0,0,.37,3.8c.11.15.06-.05.14.29.55.06,1.12.49,1.63.57s2.15.4,2.66.12c.15-.12.46-.26.57-.43.49,1,.95,1.94,1.43,2.91-1.23,0-2.34.52-2.6,1.32-1.14,3.6.23,5.86,2,11.21C360.75,214.39,361.61,218,362.52,221.77Z"/><path class="cls-1" d="M345.8,177.72a2.11,2.11,0,1,1-2.11-2.11,2.1,2.1,0,0,1,2.11,2.11Z"/><path class="cls-1" d="M351.52,183.44a2.11,2.11,0,1,1-2.11-2.11,2.11,2.11,0,0,1,2.11,2.11Z"/><path class="cls-3" d="M351.52,183.44a2.11,2.11,0,1,1-2.11-2.11A2.11,2.11,0,0,1,351.52,183.44Z"/><path class="cls-2" d="M354.62,193.3c.72-.75.53-1.62.51-2.55,0,0-.15-.13-.22-.13a4.88,4.88,0,0,0-3.46.67c-2.66,1.53.6,4.17,2.24,2.47.13,0,.18-.07.34-.07a1.25,1.25,0,0,1,.55-.46c0-.06,0,0,0,.07Z"/><path class="cls-2" d="M356.65,193.39a2.45,2.45,0,0,0-1.93.21s-.25.3-.28.33a3.66,3.66,0,0,0,.35,3.81c.11.14.07-.05.15.28.56.08,1.12.5,1.63.57s2.15.42,2.66.11c.19-.11.56-.26.62-.48a3.05,3.05,0,0,0,.12-2c-.2-.55-1-.51-1.16-1.06a3.62,3.62,0,0,0-1.68-1.75v0s-.59-.07-.47,0Z"/><path class="cls-2" d="M353.58,192.84c.11-.07.32-.33.17-.52h0a.93.93,0,0,0-.59-.39h-.07c-.05,0-.08,0-.12,0l0,.07c-.07,0-.11.11-.15.15h0c-.11.12-.18.33-.33.49v.22a2.46,2.46,0,0,1,.22.25c.26,0,1,.07,1-.42.07,0,0,0-.07.11Z"/><path class="cls-2" d="M357.64,196.36c-.07,0-.44-.43-.52-.43-.19-.63-1-1.06-1.39-1.46-.14,0-.36-.07-.54-.07l0,.08h-.08c0,.34-.05,1,.36,1.18,0,.4.81.83.82,1.17.11,0,.41.39.52.46s.53.41.6.48c.23,0,.56.07.82.07l0-.05,0,0h.07l0,0c0-.15.18-.38.18-.56-.05,0-.23-.33-.23-.36a.08.08,0,0,1-.07-.08c-.05,0-.12,0-.12-.06h-.07c0-.12-.19-.15-.19-.23l0,0s-.11,0-.14,0-.05,0-.05-.07h0Z"/><path class="cls-2" d="M361.24,204.69s-.22.11-.26.11l0,.11h0a7.92,7.92,0,0,0,.87,4.35c.08,0,.19.07.3.07.41-.44.41-4.62-.43-4.61v0h-.33l0,0Z"/><path class="cls-2" d="M336.16,173.58l-.13-.11a12.63,12.63,0,0,1-3.56-1.25l-.06.11h-.07c-.62.65,2,1.94,2.29,2.16v.07c.36.28,1.07.1,1.48.09l.05-.12c.29,0,.8-.13.79-.41.17-.26-.53-1-.79-.54Z"/><path class="cls-2" d="M337.78,176c-1,3.06-7.32,1.31-8.37-1.55-1-2.63-3.86-4.77-6.3-6.06-1.37-.71-4-1.8-5.89-2.92l2.78-1.8,1.2-.8,2.14-1.4a5.32,5.32,0,0,1,1.52,1.46c.89.34,1.46,1.83,2.4,2.09a10.86,10.86,0,0,0,3.83,3c1.63.77,3.26,1.54,4.89,2.29C337.07,170.92,339.3,175.72,337.78,176Z"/><path class="cls-2" d="M343.91,177.64c.12-.23,0-.32,0-.55-.12,0,0-.07-.12-.06,0-.31-.47-.59-.48-.83l-.06,0a2.89,2.89,0,0,0-2.41,1v.18h-.06a4,4,0,0,0-.1,1.19c.11.11.18.23.3.28,0,.3.3.42.48.53v.06c.81.65,2.27-1,2.4-1.73Z"/><path class="cls-4" d="M342.91,178.22a.85.85,0,0,0,.24-.59c-.07-.06-.12-.12-.19-.12l0-.06c0-.11-.36-.23-.48-.16v.05h-.12l-.12.18h-.05c-.06.12-.12.41-.18.53h0v.18H342v.11l0,.06.07.06h.48c0-.06.23-.19.29-.19l.05-.06c0-.06.06-.18,0,0"/><path class="cls-2" d="M350.6,185c-.07-.06-.42-.46-.49-.46,0-.19-.53-.47-.54-.77-.11,0-.12-.12-.18-.12v-.11c-.12-.12-.31-.48-.42-.59v-.12a2.22,2.22,0,0,1-.42-.64l-.06-.06-.06-.06c-.06,0-.18-.06-.18-.11h-.12l-.17.17a2,2,0,0,0,.19.89h.05a3.85,3.85,0,0,0,.67.76,4.29,4.29,0,0,0,.73,1.71v.12s.19.17.19.23.24.23.3.29.36.12.53.12l.24-.3v-.12h.06c.06-.13-.07-.54-.07-.66l-.06-.06s-.17-.11-.23-.11Z"/><path class="cls-2" d="M345.2,178.19c-.63.06-1.16,1.47-1.49,1.79,0,1.54,3.53,6,4.77,6.45,2.75.87,3.44.43,3.4-2.59-1.08-1.05-1.44-2.66-2.78-3.88-.33-.28-2.59-1.62-2.81-1.73a2.23,2.23,0,0,0-1.09,0Z"/><path class="cls-2" d="M363.56,213.57a4.15,4.15,0,0,0-.54-.82H363l-.06-.12h-.23a.13.13,0,0,1-.12.12v.13h-.06a1.39,1.39,0,0,0,1,1.87l.05-.06.06-.06c0-.18.05-.41.05-.6a1.92,1.92,0,0,1-.19-.65Z"/><path class="cls-2" d="M368.58,221l-6.06.78c-.91-3.75-1.77-7.38-1.89-8-1.77-5.35-3.14-7.61-2-11.21.26-.8,1.4-1.29,2.66-1.32a6,6,0,0,1,2.58,2.92,33.33,33.33,0,0,1,2,6.92c.71,2.32,1.46,4.66,1.94,6.75C368,218.82,368.27,219.91,368.58,221Z"/><path class="cls-2" d="M240.36,225c.65.06,1,.12,1.36.81s-1,1.81-1.78,1-.62-.62-.62-1.08.39-.83,1-.76Z"/><path class="cls-2" d="M255.64,207.25c.56-.12.77.19,1.1.85s-.93,1.73-1.77,1-.75-.86-.63-1.08a2.57,2.57,0,0,1,1.3-.8Z"/><path class="cls-2" d="M288.4,220.75c.89-.2,1.29.34,1.13,1s-.48,1.07-1.09,1.07a1.07,1.07,0,0,1-1.12-1c0-.58.2-.87,1.08-1.07Z"/><path class="cls-2" d="M305.7,185.36c.58,0,.95.54,1.08,1.25a1,1,0,0,1-1,1.22c-.69,0-1.08-.5-1.06-1.19a1.19,1.19,0,0,1,1-1.28Z"/><path class="cls-2" d="M321.22,211c1,.21,1.41.55,1.39,1.12s-.5,1.1-1.53,1.22a1.26,1.26,0,0,1-1.56-1.18,1.35,1.35,0,0,1,1.7-1.16Z"/><path class="cls-2" d="M336.74,219.05c.77.18,1.11.47,1.09,1s-.4,1-1.2,1.08a1,1,0,0,1-1.23-1,1.07,1.07,0,0,1,1.34-1Z"/></g><g id="P1"><path class="cls-1" d="M255.23,74.66,208.1,89.76c-.2-.17-.4-.34-.63-.51,1.89-2-2.95-4.64-3.06-5.32.69-1,1.17-1.92-.43-4a9.22,9.22,0,0,0-3.4-3.26c-.55-.28-1.06-.63-1.6-.91,0-.4,0-.8.05-1.17.15-.92-.37-1.35-1.54-1.29-2.12.43-2.58,1.57-3,3.32-.2.65.26,1.65,1.09,2.86-8.12-1.15-7.66-3.78-7.49-6a1,1,0,0,1,.08.14c.46,2,2.18,1.43,4.09.52a70,70,0,0,0,7.95-5.92c.83-.78.2-1.89-1.14-1.4-1.57.8-2.26,1.71-4,2.57-1.66.69-3.38,1.23-3.32.06.08-1.86-1.43-2.69-2.78-4s-2.77-2.74-4.14-4.23c-.26-.23-3.75-3.74-4.21-4.32-4.06-4.54-7.89-8.78-12-13.32a6.22,6.22,0,0,1-1.51-3.66c-.06,0-.09,0-.12,0-.08-.78-.57-4-.71-4.75-.49-.77-1.09-1-1.75-.6-.06-.06-.06-.12-.08-.14a27,27,0,0,1,14.55-9.33.31.31,0,0,0,.12-.05c-.09.17-.18.37-.26.54a6.82,6.82,0,0,0-.6,2.66c-.14.71-1.26,1.54-1.32,3a3.67,3.67,0,0,0,2.46,2.29,10.86,10.86,0,0,0,6.87.6A9.2,9.2,0,0,0,190,30.65c-.15-.43,0-1.09-1.35-.68-.48,1.45-2.43,2-3.92,2.28-1.71.2-3.57-1-3-2.37a3,3,0,0,1,1.38-3.37,11.79,11.79,0,0,1,4.46-1.12c.43.63,1.2.94,1.26,1.83.88,1.46,2.71.86,2.54-.29,0-1.37-.29-2-.34-3.34-.06-.29-.15-.52-.2-.75l65.91,51.82"/><path class="cls-2" d="M208.1,89.76l-5.18,1.66a12.29,12.29,0,0,1-1.06-4.72c-3.2-3.69-8-8.21-7.32-10.06.37-1.75.83-2.89,3-3.32,1.17-.06,1.69.37,1.54,1.29,0,.37-.05.77-.05,1.17.54.28,1.08.63,1.6.91A9.22,9.22,0,0,1,204,80c1.6,2.06,1.12,3,.43,4,.11.68,5,3.37,3.06,5.32C207.7,89.42,207.9,89.59,208.1,89.76Z"/><path class="cls-2" d="M184.88,61.21c1.37,1.5,2.76,2.76,4.13,4.26,1.35,1.33,2.88,2.16,2.78,4,0,1.17,1.68.63,3.32,0,1.71-.86,2.41-1.76,4-2.57,1.34-.49,2,.61,1.15,1.39a69.89,69.89,0,0,1-7.94,5.92c-1.92.92-3.66,1.47-4.09-.5-1.22-1.83-.36-3.32-1.05-4.47-.94-.93-1.66-1.34-2.61-2.36-.65-.6-5.62-6-6.74-7.09-4.49-5-10.34-9.91-13-14.42-1.17-2.3-2.72-5.59-2-8.18.38-1.35.83-2.53,1.79-2.55a1.26,1.26,0,0,1,1.8.58c.13.79.62,4,.7,4.75l.1,0a6.41,6.41,0,0,0,1.53,3.67c4.08,4.55,7.91,8.79,12,13.33.45.55,3.94,4.09,4.2,4.3Z"/><path class="cls-2" d="M191.35,26.93c.17,1.15-1.68,1.75-2.54.3-.07-.9-.85-1.22-1.27-1.83a11.5,11.5,0,0,0-4.47,1.12,3,3,0,0,0-1.37,3.37c-.55,1.39,1.32,2.57,3,2.38,1.51-.29,3.44-.86,3.94-2.3,1.35-.4,1.19.24,1.34.68a9.4,9.4,0,0,1-3.65,3.5,11,11,0,0,1-6.88-.61A3.66,3.66,0,0,1,177,31.25c.05-1.41,1.15-2.27,1.29-3a6.69,6.69,0,0,1,.61-2.66c1.16-2.92,4.67-2.18,5.31-3,1-.75,2.19-1,3.2-1.76,1.54-.55,2.73-.64,3.56,2.67.05,1.38.3,2,.35,3.35Z"/><path class="cls-2" d="M179.71,35.73a2.39,2.39,0,0,1,2,1.83c0,.63-.65.59-1.6.62s-1.72-.5-1.73-1.12a1.3,1.3,0,0,1,1.37-1.33Z"/><path class="cls-2" d="M198.14,36.47c1.55-.2,3.24,2.3,2.37,3.2S199.33,41,198.38,41s-1.57-1.43-1.58-2-.19-2.28,1.34-2.48Z"/><path class="cls-2" d="M180,40.06a1.44,1.44,0,0,1,.59,1.52c-.15.35-.51.16-1-.08s-.81-.72-.65-1.07a.78.78,0,0,1,1.1-.37Z"/><path class="cls-2" d="M174.9,36.53c.65.21.62.83.62,1.32s-.17.45-.6.45-.55-.17-.78-.88.11-1.11.76-.89Z"/><path class="cls-2" d="M176.21,39.05c.46-.25.62.84.62,1.33s-.17.44-.59.44-.67-.44-.79-.87.3-.65.76-.9Z"/><path class="cls-2" d="M221.59,71.66c1,0,1,.51,1,1.15a1,1,0,0,1-1,1,1.35,1.35,0,0,1-1.19-1c-.18-.63.17-1.16,1.15-1.11Z"/><path class="cls-2" d="M240.31,75.23c1.06.3,1.06.73,1.23,1.24s-.69.82-1.22.83a1.17,1.17,0,0,1-1.28-.78c-.42-.75.21-1.6,1.27-1.29Z"/><path class="cls-2" d="M175.37,38.32c.19.08.45.48.6.67s-.19.57-.46.58a1.18,1.18,0,0,1-.85-.85c0-.34.51-.48.71-.4Z"/><path class="cls-2" d="M180.76,41.26c.14.2.66.32.68.63s0,.55-.21.55-.92-.23-.92-.56.28-.81.45-.62Z"/><path class="cls-2" d="M181.67,36.89c.4,0,.79.3.67.69s.09.35-.31.5-.91-.09-.83-.51.09-.72.47-.68Z"/><path class="cls-2" d="M199.38,39.34c.18-.11.84.23,1.17.77a1,1,0,0,1,0,1.17c-.16.1-.57-.08-1.06-.56a1.08,1.08,0,0,1-.11-1.38Z"/><path class="cls-2" d="M206.79,66.52a1.16,1.16,0,0,1,1.7.53,4,4,0,0,1-1.66,1.83c-.79.34-1.87.18-1.88-.35s.89-1.5,1.84-2Z"/><path class="cls-4" d="M203.31,52a.46.46,0,0,1,.38.47.43.43,0,0,1-.3.48c-.19.07-.42-.1-.38-.47s.13-.48.3-.48"/><path class="cls-2" d="M204.6,50.9a.72.72,0,0,1,.55.65c0,.32,0,.5-.21.58a.57.57,0,0,1-.68-.6c0-.46.13-.63.34-.63Z"/><path class="cls-2" d="M165,35.63a.48.48,0,0,1,.51.45c0,.27-.1.56-.36.57a.67.67,0,0,1-.59-.56.43.43,0,0,1,.44-.46Z"/><path class="cls-2" d="M164.73,40.56c.44,0,.75.17.76.44s-.42.46-.86.47-.73-.17-.73-.45.4-.46.83-.46Z"/><path class="cls-2" d="M169.14,48.36c.21-.39.45-.54.69-.41s.21.33.06.94-.51.75-.78.49-.18-.64,0-1Z"/><path class="cls-2" d="M165.64,43.57c.42-.12,1-.3,1,0s-.65.8-1.08.92-.79,0-.86-.22.48-.54.9-.66Z"/><path class="cls-2" d="M165.08,42.15c.55.11.87.15.87.44s-.37.51-.86.61-.77-.07-.79-.51.23-.65.78-.54Z"/><path class="cls-2" d="M167.34,44.72c.93.09,1,.93,1,1.62s-.34,1.22-1,1.23-.85-.41-1.32-1.26.34-1.67,1.27-1.59Z"/><path class="cls-2" d="M176.54,54.48c.2-.16.36.22,1.26.86s1.06,1.38.61,1.54-.89-.33-1.37-1-.69-1.28-.5-1.42Z"/><path class="cls-4" d="M180.53,59.32c.32.09.35,0,.43.48s-.16.54-.41.47-.34-.11-.44-.46.1-.57.42-.49"/><path class="cls-2" d="M187,66.08c.46,0,.28.11.47.49s0,.56-.45.43-.21-.16-.44-.45,0-.5.42-.47Z"/><path class="cls-2" d="M190,68.92c.31,0,.34.13.46.46s-.26.59-.54.48-.27-.25-.4-.48.16-.5.48-.46Z"/></g><g id="P2"><path class="cls-1" d="M189.28,20.7c4.58-1.69,7.89-3.8,9.32-7.32l.26-.12a4.11,4.11,0,0,0,1.55,5.55c2.57,1.2,5.29-.28,7.32-1.23,1.77-1.43,3.4-1.54,4.26-.45a5.3,5.3,0,0,0,1.68,2.57c.69.54,2.41.11,2.06-.6-1.11-1.32-2.6-2.09-3.8-3.86-.86-1.43-2.52-1.46-4.12-.55-.34.46-.68.92-1,1.35-1.74.46-1.51-.63-1-1.92a18.34,18.34,0,0,1,9.81-7.86c2.92.23,4.2,1.4,4.49,3-.83,1.12-1.32,1.92-2.17,3a16.06,16.06,0,0,0,.74,7.21c-.26.89-.8.92-1.4.83L216.19,20c-.69.11-.57.31-.63,1.14,3,2.95,3.89,4.15,5.26,3.72.78-.12,1.35-.29,1-1.15a12.16,12.16,0,0,0-1.09-1.74,28.08,28.08,0,0,1-1.09-7q2.28-5,4.52-9.95a5.25,5.25,0,0,0-.46-3.37c1.09-.12,2.61-.89,4.18,2.17-1,.23-1.52,1-1.17,2.38.57,2.23,1.25,2.45,3.37,3.74,5.66,2.63,11.1,5.41,13,5.35a5.59,5.59,0,0,0,3.46-4.32c.29-1.4-.74-2.37-2.2-3,1.86-2.69,4.43-4.81,9.52-1.2h.35c-1,.74-1.15,1.94-1,3.28-.12,2.35,2.34,4,5.74,5.38,1.12.54,2.46-.6,1.63-1.74-2.08-2.23-1.11-4.81-2.05-6.75a1.31,1.31,0,0,1-.2-.23h.45c.29-.17,1.75.54,4,1,.31,2.4,2.46,4.06,4.43,5.75l.32,0a60.37,60.37,0,0,1,16.5,20c.6,1.14,1.68,2.63,2.4,4.32,2.14,5.23,3.66,11.21,5.55,16.5,1.25,3.63,3.94,7.29,4.86,11,1.6,6.46.48,12.89,3.31,18.18,1.32,2.46,3,4.07,3.75,6.92.17.92,1.26,3.35,1.26,4.09l.17.15a.34.34,0,0,1,.29.31l.17.14c.91,0,2.11-.34,3-.34a.33.33,0,0,1,.31-.31c.15-.6.58-1.52.72-2.15a3,3,0,0,0,.14-.71c2.2,1.06,3.09,3.54.8,8.6l-54-25.42L190.8,22.84v0C190.37,21.5,189.85,20.9,189.28,20.7Z"/><path class="cls-2" d="M295,83.49c-1-1-2-.35-2.72.45l-.06,2a2.24,2.24,0,0,0,1.86.67l.86-.75a6.47,6.47,0,0,1,.13-.79c0-.14.16-1.53-.07-1.62Z"/><path class="cls-2" d="M284,33.36a48.94,48.94,0,0,1,2.39,4.33c2.15,5.23,3.65,11.2,5.55,16.49,1.28,3.63,3.95,7.29,4.88,11,1.6,6.47.46,12.91,3.3,18.19,1.32,2.46,3,4.06,3.74,6.94.17.9,1.27,3.32,1.28,4.08l.16.15a.32.32,0,0,1,.3.3l.16.15c.92,0,2.12-.34,3-.35a.33.33,0,0,1,.3-.31c.14-.61.59-1.53.73-2.14.3-.76,0-2,.11-2.74s1.16-3.81.54-4.71h-.15v-.31l-.15-.14H310v-.15l-.15.45a10,10,0,0,0-1.59-4.38c-3.24-4.33-2.44-11.91-3.43-18.15-3.05-3-8.58-13.28-9.66-17.67s-.76-5.68-2.91-9.83c-4.68-10.17-14.53-19.82-18.36-21.73a66.83,66.83,0,0,1-7.65-5.16c-1.21-1.51-3.31-2.47-3.55-.62,0,2.73,2.33,4.52,4.48,6.31h.31a60.16,60.16,0,0,1,16.5,20Z"/><path class="cls-2" d="M285.44,29.16c-.45-1.47-1.39-2.95-2-4.38-.09-.32-1.08-1.1-1.08-1.28h-.09l-.05,0,0,.06v.08h-.05v.42c.34.8.94,1.47,1.29,2.31l.09.08c0,.8.77,1.86.77,2.64.06,0,.25.23.29.28s.38.13.47.08v0h.28a.25.25,0,0,1,.09-.14V29c-.08,0,0-.05,0,.18Z"/><path class="cls-2" d="M287.29,32.29c0-.32-.28-.69-.29-1l0,0h-.09a1.9,1.9,0,0,1-.24.47h0a1.19,1.19,0,0,0-.12,1.11l.09,0,.23,0s.1-.05.14-.05.36-.65.36-.93Z"/><path class="cls-2" d="M288.32,35.72c0-.38-.89-.88-1.22-.87-.35.9,1.29,3,1.45,1.15,0-.06-.18-.24-.28-.24s-.09-.14.05,0Z"/><path class="cls-2" d="M290,38.8l-.14.14A12.09,12.09,0,0,0,291,43.1c1,.77,1.8-4.43-1.08-4.3Z"/><path class="cls-2" d="M260.56,13.62c-2.1-2.2-1.13-4.79-2.09-6.73-.86-1.1-2.08-.87-3.32-.63-1.92.6-2.18,2.06-2,3.76-.12,2.33,2.34,4,5.74,5.35a1.23,1.23,0,0,0,1.65-1.75Z"/><path class="cls-2" d="M229.63,3.8c-2.11-.38-3.43.24-2.95,2.3.58,2.24,1.26,2.46,3.38,3.75,5.66,2.66,11.11,5.4,13,5.36a5.61,5.61,0,0,0,3.44-4.31c.42-2.14-2.11-3.2-4.56-3.69-4.81-1-7.57-2.2-12.31-3.41Z"/><path class="cls-2" d="M220.7,21.92a28.39,28.39,0,0,1-1.07-7c1.5-3.31,3-6.62,4.52-9.94.41-3.49-1.08-4.92-3.86-4.95-6.83.26-14.5,5.52-21,12.35-1.32,2.29-1.54,4.58,1.09,6.45,2.56,1.21,5.29-.27,7.31-1.22,1.77-1.41,3.42-1.54,4.28-.46a5.3,5.3,0,0,0,1.68,2.59c.68.52,2.4.1,2-.62-1.12-1.31-2.59-2.09-3.81-3.86-.84-1.41-2.51-1.46-4.1-.53l-1,1.35c-1.74.45-1.51-.62-1-1.93a18.21,18.21,0,0,1,9.8-7.87c2.91.24,4.21,1.41,4.48,3-.83,1.09-1.32,1.9-2.16,3a16,16,0,0,0,.73,7.21c-.24.88-.8.9-1.39.82L216.18,20c-.68.12-.55.31-.63,1.14,3,2.95,3.9,4.16,5.27,3.72.78-.12,1.34-.28,1-1.15a11,11,0,0,0-1.08-1.75Z"/><path class="cls-2" d="M273.89,50.8c-1.25-.1-1.45.26-1.35,1.2.8.92,1.48,1.65,2.28,2.58a18.65,18.65,0,0,0-.85,1.91c-.14,1.06.43,1.58,1.69,1.1.78-.87,1.26-1.74,2-2.7a1.33,1.33,0,0,0-.69-1.64c-1-.89-2.08-1.56-3.12-2.45Z"/><path class="cls-2" d="M249.58,55.65a4.65,4.65,0,0,1-3-.78c-1.51-.83-1.5-.11-1.72.83a4.12,4.12,0,0,0,2.34,2,15.63,15.63,0,0,0,2.43.29,3.32,3.32,0,0,0,1.86,1.45,2,2,0,0,0,1.11-2.14,2.32,2.32,0,0,0-1.52-1.73c-.37,0-1.1-.26-1.47.08Z"/><path class="cls-2" d="M244.79,42.36c-1.79-.33-1.91.59-1.57,1.87.26.89.11,1.5,3.06,2.49.76.05,2,.16,1.81-1.33a9.11,9.11,0,0,0-3.3-3Z"/><path class="cls-2" d="M247.81,14.65c.26-1.12,1.47-1.31,2.68.07.88,1.56,1.65,2.72,2.14,3.83.66,1.83-.39,1.85-1.46,1.53-1.36-.56-2.6-.8-3.29-1.89-.8-1.59-.33-2.27-.07-3.54Z"/><path class="cls-2" d="M265.29,22.77c.12-1,.55-1.63,1.65-1.26.78.64.74.53,3.38,2.72.27,1.3.05,2.23-1,2.35a9,9,0,0,1-3.51-1.79,3.78,3.78,0,0,1-.51-2Z"/><path class="cls-2" d="M229.53,11.21c-1.24-.1-1.67.38-1.07,1.26a21.93,21.93,0,0,1,1.78,5.26A3.92,3.92,0,0,0,232,19.79c1.35.8,2.57-.31,2.07-1.3a7.86,7.86,0,0,0-1.36-2.44A17.2,17.2,0,0,0,231,14.29c-.41-.73.21-.59,1.08-.55a6,6,0,0,1,3,2.48,17.66,17.66,0,0,1,.29,3.55c.24,1.06,1.17,1.23,1.46-.29C236.7,18,237.1,16.36,235,14a23.08,23.08,0,0,0-3.75-2.32,1.82,1.82,0,0,0-1.68-.43Z"/><path class="cls-2" d="M224.44,24.51c-1.59.19-2.37.82-1.58,1.85,1.27,1.87,2.56,3.18,3.73,4.84a1.63,1.63,0,0,0,2.87-.78,9.84,9.84,0,0,0-1.7-3.62,5.83,5.83,0,0,0-3.32-2.29Z"/><path class="cls-2" d="M222.59,19c-.92,0-1.07.92-1.12,2a4.6,4.6,0,0,0,1.09,1.83c.74.44,1.21.86,1.95.27.24-.32.63-.61.15-1.33-.61-.95-.72-2.25-2.07-2.72Z"/><path class="cls-2" d="M226,10c-.47-1.17-.79-1.13-1.5-1-1.3.23-1.49,2.05-2.07,3.46s.16,1.65,1.17,1.66A7.2,7.2,0,0,0,225.66,12,4.38,4.38,0,0,0,226,10Z"/><path class="cls-2" d="M227.54,13.19c-.92-.6-1.5-.35-1.85.46a7.81,7.81,0,0,0,.56,2.64c.37.79.48.7,1,1.33.8.19,1.82.57,1.58-.58a16.3,16.3,0,0,0-1.28-3.85Z"/><path class="cls-2" d="M230.72,20.55c-.17.22-.28.52-.45.76-.44.49-1.05.23-1.65-.3a1.66,1.66,0,0,1-.47-1.49,1.11,1.11,0,0,1,1.58-.64,2.61,2.61,0,0,1,1,1.67Z"/><path class="cls-2" d="M233.79,10c-.7-.23-1.11-1.17-.23-1.18,3.64.9,5.87,2.33,8.58,3.14,1.36.57.38,1.44-.5,1.29A46.4,46.4,0,0,0,233.79,10Z"/><path class="cls-2" d="M199.13,24c1-.14,2.34.41,2.05,1.65s-.14,1.81-.94,1.82a2.05,2.05,0,0,1-2-1.77c0-1-.11-1.56.88-1.7Z"/><path class="cls-2" d="M205,24c1-.14,2.4.35,2.11,1.6s-.2.93-1,.94-2.16-.19-2.18-1.22S204,24.16,205,24Z"/><path class="cls-2" d="M203.47,28.14c.64-.09,1.55.22,1.36,1s-.13.61-.66.61-1.39-.12-1.39-.78.05-.76.69-.85Z"/><path class="cls-2" d="M237.18,44.13c1.08-.15,2.62.39,2.3,1.73s-.23,1-1.1,1S236,46.7,236,45.58s.08-1.3,1.17-1.45Z"/><path class="cls-2" d="M241.13,34c.71-.11,1.65.24,1.43,1.13s-.42.78-1,.91a1.15,1.15,0,0,1-1.31-1.1c0-.73.13-.84.84-.94Z"/><path class="cls-2" d="M255.35,31c.72-.1,1.65.24,1.44,1.13s-.43.78-1,.91a1.15,1.15,0,0,1-1.3-1.1c0-.74.12-.84.83-.94Z"/><path class="cls-2" d="M274.24,42.12c.7-.1,1.64.25,1.43,1.13s-.42.78-1,.91a1.15,1.15,0,0,1-1.31-1.1c0-.73.13-.84.84-.94Z"/><path class="cls-2" d="M279.42,33.17c.59-.12,1.85.45,1.63,1.34s-.49.89-1.07,1a1.36,1.36,0,0,1-1.44-1.21.94.94,0,0,1,.88-1.13Z"/><path class="cls-2" d="M265.33,39.18c1.13.21,2.15.74,2,1.6S266.6,42,266.13,42a2.07,2.07,0,0,1-1.83-1.45c-.29-1-.11-1.54,1-1.33Z"/><path class="cls-2" d="M269.44,68.33c.83.28,1.2.4,1.21.92a1.1,1.1,0,0,1-1.19,1c-.66,0-.9.08-1.2-.92s.34-1.22,1.18-1Z"/><path class="cls-2" d="M278.39,78.11c.83.28,1,.41,1,.93a.9.9,0,0,1-1,.95c-.66,0-.9.08-1.2-.92s.34-1.23,1.18-1Z"/><path class="cls-2" d="M270.65,77.24c-.79-.12-1.06-.7-1.08-1.56s1-1,1.56-1a1.31,1.31,0,0,1,1.53,1.08c.28,1-1.23,1.62-2,1.49Z"/><path class="cls-2" d="M200.88,26.34c.27,0,.71.63.85,1.26s0,.91-.42.86-.6-.44-.61-1-.09-1.09.18-1.1Z"/><path class="cls-2" d="M207.26,25.84c.52.16.69.28.69.57s-.31.51-.7.52-.69-.17-.73-.5a.53.53,0,0,1,.74-.59Z"/><path class="cls-2" d="M253.09,22.69c.86.29,1.12.39,1.13.88a1,1,0,0,1-1.11.9c-.61,0-.87-.09-1.12-.87s.25-1.19,1.1-.91Z"/><path class="cls-2" d="M263.44,14.18c.87.29.88.61.9,1.21a.87.87,0,0,1-.86,1c-.5,0-.56-.18-.93-1.07s0-1.4.89-1.11Z"/><path class="cls-2" d="M289.34,67.77A1.79,1.79,0,0,1,291,69.36c.19,1-.38,1.66-1.16,1.51a1.39,1.39,0,0,1-1.22-1.48c0-.83.07-1.62.72-1.62Z"/><path class="cls-2" d="M267.59,60.05c1-.22,1.7.42,1.65,1.13a1,1,0,0,1-1.17,1.09,1.1,1.1,0,0,1-1.21-1.05c0-.6-.29-.95.73-1.17Z"/><path class="cls-2" d="M299.79,58.93c.26,0,1.19,1,1.4,2.19s1,2.71.41,2.67-1-1.34-1.19-2.58-.87-2.23-.62-2.28Z"/></g><g id="P3"><path class="cls-1" d="M310.59,112a3.67,3.67,0,0,0-4-3.23,1.85,1.85,0,0,0-.66,1.23h-.17c-1,1.57.6,6.92.8,8.29.77,5.38.17,12.13-.43,17.16-.17,1.06.14,2.46-.32,3.46a.18.18,0,0,0,0,.12l-132.86-5.9a3.16,3.16,0,0,0,.38-.34c2.91.12,5.14.8,7.46-1.26,0,.49.31.86.91,1.12.81.43,1.32.23,1.52-.66a4.8,4.8,0,0,0-.94-2c-.23-1.32-.66-2.92-1.69-3.43-.83-.15-1.63-.23-2.46-.38-.4.09-.8.12-1.23.18l.23-.23c.8-4.46,4.89-6.72,7.69-2.49.72-.2,1.43-.43,2.15-.63a28.7,28.7,0,0,1,7.95-5.26,8.64,8.64,0,0,1,4.57-6,5.78,5.78,0,0,0,1.49,4,14.85,14.85,0,0,0,5.58,5.32c.77,0,1-.2.82-.72a22.24,22.24,0,0,1-3.06-4.14,12.49,12.49,0,0,1,0-7c1.86-1.14,3.83-2,5.29-3.54.94-.46.48-1.38-1.09-2.18a7.35,7.35,0,0,0-2.37-.34,10.64,10.64,0,0,0,1.51-7s-.08-.11-.11-.17a.74.74,0,0,0,.26,0c1.17-.2,2.2-.4,2.57-2.32.09-1.23-.77-2.6-2.2-3.83l47.13-15.1,55.42,25.63a31.14,31.14,0,0,1-1.55,3C314,105,314.48,109.26,310.59,112Z"/><path class="cls-2" d="M311.9,132.8c-.14.8-.85.94-.85,1.92-1.26.85-1.32,2.57-1.09,4.46l-4.18-.17a.18.18,0,0,1,0-.12c.46-1,.15-2.4.32-3.46.6-5,1.2-11.78.43-17.16-.2-1.37-1.83-6.72-.8-8.29h.17a1.85,1.85,0,0,1,.66-1.23,3.67,3.67,0,0,1,4,3.86C313,118.87,313,126.37,311.9,132.8Z"/><path class="cls-2" d="M307.39,105c-.15.46-.89,1.23-1,1.69-.15,0-.78.17-.92.17V107c-.74.45-2.29-.58-2.89-.58-2.31-2.26-1.88-4.09-1.91-6.49.23-.14,1.94-1.91,2.91-2.94l3.78,1.74C307.44,100.74,308.22,103,307.39,105Z"/><path class="cls-2" d="M305.75,99.05a1.23,1.23,0,0,0-1.54-.21v0l-.76.79c0,1.48-.42,3.32,0,4.79a3.69,3.69,0,0,1,.25.83s1,.88,1,.93c1.23,0,2.42.17,2.4-1.45-.31,0-.41-.24-.65-.24-.63-.9-.27-5.38-1-5.36v-.13a.11.11,0,0,1-.11-.11Z"/><path class="cls-2" d="M308.59,115c1.18-2-.46-3.39-.48-4.79-.45-.43-1.94,1-1.94,1.27a3.14,3.14,0,0,0,.07.78,15,15,0,0,1,.48,4c.64.63,1.81-1,1.81-1.45Z"/><path class="cls-2" d="M308.78,119.68c.25-.72.22-2.61-.86-2.59-.55.56,0,1.81,0,2.48.18.09.21.23.47.22v.07l.42.06c.22-.23.12-.43.11-.66Z"/><path class="cls-2" d="M309.62,124.7a9.1,9.1,0,0,0-.1-2.55c-.06-.29-.72-.87-.73-1.11-1.33,0-.35,2.89-.12,3.55.69,2-.31,2.89-.29,4.57a1.27,1.27,0,0,0,.84.16c0-.12.35-.18.34-.35.8,0,.46-3.94.3-4.39,0-.27-.24-.36-.24.12Z"/><path class="cls-2" d="M308.91,133.12c0-.06.22-1.13.11-1.13v-.3H309v-.12h-.29v.06h-.12c0,.06-.18.24-.18.24l-.06.13,0,1a6.38,6.38,0,0,0,.54.53h.06l.06-.07c0-.17.05-.24,0-.35Z"/><path class="cls-1" d="M297.74,123.28a1,1,0,0,1-1.42,0l-6.62-6.62a1,1,0,0,1,0-1.42l6.62-6.62a1,1,0,0,1,1.42,0l6.61,6.62a1,1,0,0,1,0,1.42Z"/><path class="cls-2" d="M183.19,132c-.2.89-.71,1.09-1.52.66-.6-.26-.91-.63-.91-1.12-2.32,2.06-4.55,1.38-7.46,1.26a3.16,3.16,0,0,1-.38.34l-5.09-.22a5.72,5.72,0,0,1,2.78-2.92c1.2-.09,1.94-.46,3.14-.54,1-.58-.05-1.06.15-1.69-.09-1.29,2.34-1.23,4.2-1.55.83.15,1.63.23,2.46.38,1,.51,1.46,2.11,1.69,3.43A4.8,4.8,0,0,1,183.19,132Z"/><path class="cls-2" d="M184.47,124.34c1-1.62,2.5-1.82,4.15-1.37a4.54,4.54,0,0,1,3.55,2.17c1.06,1,1.06,1.69,0,2.13-1.47.64-4.78,0-4.81.85-.34,1.15,1,3.36-.15,4.31a1.4,1.4,0,0,1-2.26,0,10,10,0,0,1-1.9-5.56,5.54,5.54,0,0,1,1.39-2.55Z"/><path class="cls-2" d="M196.05,117.79a11.38,11.38,0,0,1,5,2.82c.78,1.5-.12,1.79-.8,1.85a4.4,4.4,0,0,0-3.39-.6c-.28,1.15-.88,1-2,1.36-2-.71-2.72-1-2.9-2.06a6.61,6.61,0,0,1,.39-2.46,3.92,3.92,0,0,1,3.71-.91Z"/><path class="cls-2" d="M203.64,104c1.59-1.28,3.19-1.06,4.81-.64,1.56.81,2,1.73,1.08,2.18-1.47,1.51-3.44,2.4-5.3,3.54a12.64,12.64,0,0,0,.06,7,21.43,21.43,0,0,0,3.06,4.18c.2.5-.07.74-.82.7a15,15,0,0,1-5.59-5.31c-1.05-1.25-1.9-2.84-1.27-6.8a8.06,8.06,0,0,1,4-4.88Z"/><path class="cls-2" d="M210.23,97.81c.11-1.19,1.29-1.68,3.2-1.7a3.92,3.92,0,0,1,2.24,1.4c.21,1.32,1.33,2.24,2.39,3.18.2.83-.42,1.19-1.42,1.32a9.1,9.1,0,0,1-5.59-2,2.61,2.61,0,0,1-.82-2.21Z"/><path class="cls-2" d="M210.3,93.59c-.37,1.92-1.4,2.12-2.57,2.32-1.58,0-2.95-1.52-4-3a9.47,9.47,0,0,1-.8-1.49l5.18-1.66C209.53,91,210.39,92.36,210.3,93.59Z"/><path class="cls-2" d="M282.47,86.4c.9,0,1.13.32,1,.92s-.29.93-.95,1-1,0-1.21-.92.3-.95,1.18-.95Z"/><path class="cls-2" d="M264.51,106.47c.89,0,1.13.33,1,.92s-.3.94-.95,1-1,0-1.21-.91.28-1,1.18-1Z"/><path class="cls-2" d="M279.65,93.41c.89,0,1,.76.83,1.35s.09,1.58-.57,1.58-1.13-.79-1.37-1.67.22-1.26,1.11-1.26Z"/><path class="cls-2" d="M284.34,112.43c.9,0,1.14,1.06,1,1.65s.08,1-.95,1.37-1.4-.53-1.35-1.68.42-1.35,1.31-1.34Z"/><path class="cls-2" d="M246.9,116c1.59.11.83.18,1.4,2.12s.62,1.88-1.46,1.14-1.4-.54-1.35-1.68-.18-1.68,1.41-1.58Z"/><path class="cls-2" d="M259,82.89c2.19.66,2.73.84,2.74,1.77s-1.2,1.59-2.68,1.62-1.84.13-2.74-1.66.5-2.38,2.68-1.73Z"/><path class="cls-2" d="M220.28,91.24c1.78-.1,3.21,1.29,2.83,2s-1.55,0-2.91,0-2.45,0-2.45-.6.75-1.22,2.53-1.32Z"/><path class="cls-2" d="M214.87,107.2a1.3,1.3,0,0,1,1.23,1.17c0,.57-.61,1.18-1.1,1a1.78,1.78,0,0,1-1.12-1,1.11,1.11,0,0,1,1-1.2Z"/><path class="cls-2" d="M221.66,104.83a1.14,1.14,0,0,1,1,1c0,.42-.54.93-.9.83a1.59,1.59,0,0,1-.85-.91.84.84,0,0,1,.74-.9Z"/><path class="cls-2" d="M222.9,105.7a.71.71,0,0,1,.69.6c0,.31-.41.44-.67.37s-.64-.27-.72-.5.38-.47.7-.47Z"/><path class="cls-2" d="M223.16,112.78c.49.16,1,.42.92.76a.81.81,0,0,1-.82.56,1.39,1.39,0,0,1-.82-.79c-.14-.39.23-.67.72-.53Z"/><path class="cls-2" d="M212.74,125.9a2.89,2.89,0,0,1,2.13,1.94c0,.62-.73.47-1.59.48s-1.55-.47-1.55-1.09.17-1.32,1-1.33Z"/><path class="cls-2" d="M208.77,130.61a2.63,2.63,0,0,1,2.12,1.94c.07.82-1,.94-1.59.49a14.43,14.43,0,0,1-1.55-1.1c-.44-.46.16-1.32,1-1.33Z"/><path class="cls-2" d="M207.12,122.09c.91,0,3.56,1.44,3.41,2.6a3.89,3.89,0,0,1-2.32,2.65c-.8.16-1.65-1.13-1.68-2.54s-.31-2.69.59-2.71Z"/><path class="cls-2" d="M181.59,133.29c.49,0,.68.56.69,1.12a1.36,1.36,0,0,1-1.15,1.19c-.5,0-.55-.69-.56-1.26a1.11,1.11,0,0,1,1-1.05Z"/><path class="cls-2" d="M247.52,117.38a.72.72,0,0,1,.7.66c0,.29-.31.45-.72.45s-.72-.13-.73-.43a.8.8,0,0,1,.75-.68Z"/></g><g id="P4"><path class="cls-1" d="M323.17,161.4c-.83-.55-1.74-1-2.29-1.35-1.11-.74-3.77.26-4.57.86s-1.83,2.15-1.09,3.09a8.49,8.49,0,0,0,2,1.51l-115.5,75.87L93.11,190.11a3.59,3.59,0,0,0,1-.43c1.06-.89,1.89-1.52,2-2.77-.31-.95-1.29-1.21-2.34-1.35.14-.23.31-.43.48-.66a14.26,14.26,0,0,0,2.29.46A2.44,2.44,0,0,0,98,183.27c2.06-2.14,3.23-1.94,4.92-2.11a34.82,34.82,0,0,0,4.83-.29c1.77-.89,1.75-2.4-.11-4.57-1.4-1-2.86-.92-5.15-.26a1,1,0,0,1,.37-.26c1.89-2.63,4-5.69,8.78-5a8.65,8.65,0,0,0-.57,4.08,4.93,4.93,0,0,0,2.37,4.09c1.29.38,2.4.4,2.32-1.71a8.56,8.56,0,0,1-.32-4.35c.55.4,1.26.4,1.58.72a1.86,1.86,0,0,0,1.2-1.63c.31-.58-.32-1-1.89-1.4.34-1.12,1.23-3.44,2.37-3.18,1.32.6,2,.17,2.12-.77a2.59,2.59,0,0,0-1.12-2.4,5.3,5.3,0,0,0-2.83-.46c.92-.57,1.83-1.12,2.78-1.72a5.26,5.26,0,0,0,.66,2.23,5.59,5.59,0,0,0,3,2.69c1,0,1.4-.34,1.4-1.49.14-.77-.14-1,.14-2a2.69,2.69,0,0,1,1.66-2.32c4-1.72,3.38-5.52,5.44-7.61,1-.77,2-.68,3.14-.88a5.43,5.43,0,0,0,1.92,2.11c.88.06,1.66-.08,1.94-1.54a6.84,6.84,0,0,0-1.17-3.86c-.43-.4-1-.77-1.43-1.15a6,6,0,0,0-2.46,0l.06,0c2.46-2.92,6.52-3.95,11.41-4.72a2,2,0,0,1,.28-.12.79.79,0,0,1-.11.23,4.41,4.41,0,0,0-.77,3.38,2.05,2.05,0,0,0,3,.94c.31-.54.83-.34,1.14-.89,1.06-1,1.09-2.8,2.78-3.4.77.32,1.51.66,2.28,1,1.15-.4,1.49-1.4,1.09-2.91a2.13,2.13,0,0,0-1.43-1.35l3.23-.6h0a6.53,6.53,0,0,0-.86,2.6c-.25,1.49.23,2,1.4,1.69a19,19,0,0,0,2.15-1.6,9.2,9.2,0,0,1,1.14,1.09c1,.43,1.69-.2,1.15-1.55a5.65,5.65,0,0,0-1.26-2.4.06.06,0,0,0-.06-.06c2.09-.05,4.09-1.6,6.38-3.69l.28-.25c-.08.54-.14,1.11-.28,1.68.26,1.89.4,3.21.63,5.12,0,1.72,2.51,3.21,3.74-1.11.26-1.8.83-1.4-.94-5.55.54-1.69,1.74-1.92,2.57-2.55L305.78,139c-.91,2.14,0,4,.81,5.43.2.11.74,1.46,1.25,1.54s1.21.66,1.89.66a2.83,2.83,0,0,0,.74-1.72c4.9,2.49.69,5.32,2.09,5.78C321.43,153.62,324,154.65,323.17,161.4Z"/><path class="cls-2" d="M309.73,146.64c-.68,0-1.37-.69-1.89-.66s-1-1.43-1.25-1.54c-.81-1.46-1.72-3.29-.81-5.43l4.18.17C310.25,142,311.16,145.18,309.73,146.64Z"/><path class="cls-2" d="M308.73,142.91c-.53-.16-.54-.58-.84-.92h-.06c-.1-.29-.1-.24-.42-.23,0,.11-.12.05-.11.23h-.06c-.24.39.77,3.41,1.57,3v-.06c.69,0,.21-1.47.1-1.78h-.06Z"/><path class="cls-2" d="M315.15,154.41c-.24-.77-.91-.68-2.2-3.7-.93-1-3.26-.88-4.5-1-2.57-.25-7.28-1.42-7.06,2.4.24.22.79,1.16,1.2,1.24,1,.19,1.75.08,2.7.3,1.24.28,1.63,1.35,2.7,1.8.94,2.23,1.64,6.64,5.23,5.26,1.07-.4,1-.79,2.18-.74,3,.11,1.51-4.49-.25-5.56Z"/><path class="cls-2" d="M314.52,156.13c-.47-.11-1.09-1.22-1.44-1.22,0-.6-1.81-2-2.34-2.21a2.51,2.51,0,0,0-.95,0c-.06.1-1.62.87-.29,1.52a4.71,4.71,0,0,1,2.51,2.59,2.54,2.54,0,0,0,2.31,1.8c0-.34,1.91-1.1.2-2.49Z"/><path class="cls-2" d="M323.34,161.51l-2.14,1.4-1.2.8-2.78,1.8a8.49,8.49,0,0,1-2-1.51c-.74-.94.26-2.46,1.09-3.09s3.46-1.6,4.57-.86C321.46,160.42,322.46,160.91,323.34,161.51Z"/><path class="cls-1" d="M281.78,166.89a1,1,0,0,1-1.42,0l-6.61-6.62a1,1,0,0,1,0-1.41l6.61-6.62a1,1,0,0,1,1.42,0l6.62,6.62a1,1,0,0,1,0,1.41Z"/><path class="cls-2" d="M107.75,180.86q2.67-1.32-.12-4.55c-1.6-1.16-3.34-.87-6.33.07a29.93,29.93,0,0,0-10.17,6c-1.27,1.18-2.63,3.1-2.38,5,.9,3.61,4,3.14,5.39,2.26,1.07-.88,1.88-1.52,2-2.76-.31-.94-1.29-1.19-2.36-1.36.17-.21.33-.43.5-.63a17.38,17.38,0,0,0,2.3.45A2.5,2.5,0,0,0,98,183.26c2.06-2.14,3.21-1.92,4.91-2.09a36.3,36.3,0,0,0,4.83-.31"/><path class="cls-2" d="M115.93,164.17c1.15-.7,2.42-.4,3.79.07a2.69,2.69,0,0,1,1.1,2.43c-.08.93-.81,1.36-2.11.76-1.14-.25-2,2-2.39,3.18,1.58.36,2.21.82,1.89,1.4a1.84,1.84,0,0,1-1.19,1.63c-.33-.32-1-.33-1.58-.72a8.3,8.3,0,0,0,.32,4.34c.09,2.11-1,2.08-2.32,1.74a5,5,0,0,1-2.36-4.1c-.57-3.28,2.36-8.76,4.85-10.73Z"/><path class="cls-2" d="M138.92,153.21c-.28,1.46-1.07,1.6-1.94,1.55a5.52,5.52,0,0,1-1.93-2.11c-1.09.2-2.12.12-3.14.89-2,2.08-1.39,5.87-5.44,7.59a2.72,2.72,0,0,0-1.64,2.31c-.3,1,0,1.3-.15,2.08,0,1.13-.43,1.48-1.4,1.48a5.71,5.71,0,0,1-3-2.68c-.43-1.06-1.15-2.09-.27-3.28a8.12,8.12,0,0,0,1.89-1.07,38.86,38.86,0,0,0,2.31-5.95c.59-3.13,1.71-6.17,5-5.88a4.5,4.5,0,0,1,2.78.42,9.61,9.61,0,0,1,4.26-.36c.39.39,1,.77,1.41,1.16a6.8,6.8,0,0,1,1.18,3.85Z"/><path class="cls-2" d="M140.35,149.92c.28-1.11,1.22-1.1,2.68.05,1.22,1.26,2.5,5.67,3.48,8.68.65,3.25-1.51,1.12-1.51,1.09-1.06-1.73-2.68-1-3.28-1.69a3.78,3.78,0,0,1-.72-2.75c-.13-1.79-.34-3.58-.65-5.38Z"/><polygon class="cls-2" points="141.66 159.68 142.96 159.14 145.51 161.36 145.53 163.28 143.43 165.04 142.01 162.8 141.66 159.68"/><path class="cls-2" d="M147.68,152.24c1.12-.93,2.09-.54,3,.06,1.52.95,1.57,3.75,1.41,6.84.14,1,.93,1.13,1.11,1.85a1.66,1.66,0,0,1-1.2,1.49c-.63.35-1.48-.29-2.13-1.18a29.61,29.61,0,0,1-1.52-5.19c-.91-1.66-1.14-2.94-.71-3.87Z"/><path class="cls-2" d="M147.26,141.35a19.79,19.79,0,0,1,5.4-1.18,2.29,2.29,0,0,1,2.38,1.46c.41,1.54.07,2.52-1.09,2.92l-2.27-1c-1.69.6-1.72,2.38-2.77,3.4-.33.54-.83.33-1.16.88a2.05,2.05,0,0,1-3-1,4.47,4.47,0,0,1,.8-3.36,6.53,6.53,0,0,1,1.75-2.2Z"/><path class="cls-2" d="M157,139.56a6.61,6.61,0,0,0-1,2.75c-.24,1.47.23,2,1.41,1.67a21.34,21.34,0,0,0,2.16-1.6,10.81,10.81,0,0,1,1.14,1.08c1,.45,1.69-.19,1.13-1.54a5.74,5.74,0,0,0-1.24-2.41c-2-1.3-2.93-1-3.65.05Z"/><path class="cls-2" d="M170.35,135.66c1.77,4.15,1.2,3.75.94,5.55-1.23,4.32-3.69,2.83-3.74,1.11-.23-1.91-.37-3.23-.63-5.12a27.29,27.29,0,0,1,.91-4.31l5.09.22C172.09,133.74,170.89,134,170.35,135.66Z"/><path class="cls-2" d="M170.36,190.76c.74,0,2.92,2.1,2.73,3s-1.43.54-2.21.25-1.95-.61-2-1.58a1.6,1.6,0,0,1,1.44-1.7Z"/><path class="cls-2" d="M169.14,210.88c.74,0,3.7,2.08,3.44,3.33s-2,.77-2.69.27-1.73-1.16-1.75-2.13.26-1.46,1-1.47Z"/><path class="cls-2" d="M133.45,208c.82-.47,2,1,1.52,1.89s-1.63.4-1.89.38-.66-1-.67-1.46.2-.35,1-.81Z"/><path class="cls-2" d="M119.22,188.15c1.16.06,1.53.79,1.16,1.45s-1.25.29-1.44.28-.43-.67-.51-1.11-.38-.68.79-.62Z"/><path class="cls-2" d="M116.74,182.65c1.71.8,1.4,1.38,1,2a.91.91,0,0,1-1.47.08,4.68,4.68,0,0,1-.51-1.11c-.16-.55-.74-1.79,1-1Z"/><path class="cls-2" d="M114.76,190.7c.78,0,1.37.77,1,1.21s-1,.24-1.2.24-.42-.62-.43-.94-.12-.54.66-.51Z"/><path class="cls-2" d="M116.62,192.06c.79-.16,1.64.83,1,1.21a1,1,0,0,1-1.06.1,1,1,0,0,1-.56-.79c0-.32-.16-.35.65-.52Z"/><path class="cls-2" d="M125.68,181.67c.67-.39,1.66.84,1.26,1.55s-1.35.32-1.56.31-.54-.78-.54-1.2.17-.28.84-.66Z"/><path class="cls-2" d="M116,179.84c1-.21,2.16,1.38,1.29,1.81a1.88,1.88,0,0,1-1.5.17c-.21,0-.61-.75-.62-1.16s-.12-.61.83-.82Z"/><path class="cls-2" d="M108.82,181.5c-.1-.95.28-1.3,1.2-1,1.23.77,2.66,2.19,2.47,2.91.42,1.88-1.27,2-1.94,1.47a5.72,5.72,0,0,1-1.73-3.37Z"/><path class="cls-2" d="M206.75,136a2.43,2.43,0,0,1-.55,2.6c-.61.43-1.22-.38-1.12-1a13.29,13.29,0,0,1,.13-1.75c.16-.56,1.12-.48,1.54.19Z"/><path class="cls-2" d="M221.41,135.64c1.21.45,1.07.46,1.24,1.55s-.4,1.75-1.19,1.59-.68-.22-1.24-1.55,0-2,1.19-1.59Z"/><path class="cls-2" d="M189.87,136.71a1.87,1.87,0,0,1,1.45,1.58c0,.67-.87,1.12-1.45,1.13s-1.19-.79-1.2-1.47a1.28,1.28,0,0,1,1.2-1.24Z"/><path class="cls-2" d="M183.27,134.67c.56-.48,1.72.32,3.06,1.51s1.78,2.33,1,2.74-1.56-.25-2.57-1.38-2-2.41-1.45-2.87Z"/><path class="cls-2" d="M163.47,147a5.37,5.37,0,0,1,1.46,2.3c.16.83.07,1.91-.58,1.91s-2.11-.81-2.12-2,.78-2.64,1.24-2.24Z"/><path class="cls-2" d="M157.3,154.78c.68,0,1,.38,1.17,1.37s-.33,1.3-1.14,1-1.11-.51-1.12-1.15a1.1,1.1,0,0,1,1.09-1.18Z"/><path class="cls-2" d="M173.32,165c.67,0,1.12.65,1.25,1.65s-.41,1.71-1.22,1.36a2,2,0,0,1-1.12-1.83,1.09,1.09,0,0,1,1.09-1.18Z"/><path class="cls-2" d="M165.19,153c.67,0,1.29.32,1.52,1.68s-.62,1.79-1.58.84-1.29-.64-1.3-1.28a1.37,1.37,0,0,1,1.36-1.24Z"/><path class="cls-2" d="M236.45,212c.65.07,1,.13,1.36.91s-1,2-1.79,1.16-.89-.62-.9-1.13.68-1,1.33-.94Z"/><path class="cls-2" d="M198.86,196.8a1.72,1.72,0,0,1,1.62,1.84,1.93,1.93,0,0,1-1.83,1.88,1.64,1.64,0,0,1-1.66-1.7,2.1,2.1,0,0,1,1.87-2Z"/><path class="cls-2" d="M309.59,168.45c1.78.08,1.38.94.66,1.61s-.9,1.19-1.93,1.54-1.56-.39-1.33-1.49.84-1.74,2.6-1.66Z"/><path class="cls-2" d="M255.24,158.94c1.36.35,1.45.65,1.46,1.43a1.13,1.13,0,0,1-1.17,1.28c-.76,0-1.1-.33-1.58-1.39s-.07-1.67,1.29-1.32Z"/><path class="cls-2" d="M236.35,173.09c.64,1.77.77,1,.92,1.61a.73.73,0,0,1-.67.94c-.26-.07-.79.27-1.46-1.34s.59-3,1.21-1.21Z"/><path class="cls-2" d="M118,182.94c1.07.21,1.37.57,1,1.12s-.58,1.05-1,1.13-.68-.26-1-1.1-.1-1.35,1-1.15Z"/><path class="cls-2" d="M285.73,176.37c.37-.16,1.18.38,1.8,1.2a1.56,1.56,0,0,1-.25,2.16c-.46.26-1.27-.29-1.8-1.21a1.73,1.73,0,0,1,.25-2.15Z"/><path class="cls-2" d="M316.51,226.29c.61.49.78.91.55,1.34a1.18,1.18,0,0,1-1.54.44,1,1,0,0,1-.64-1.47,1.06,1.06,0,0,1,1.63-.31Z"/><path class="cls-2" d="M316.73,226.84c.48,0,.55,0,1,.91s-.25,1.05-.87.95a1.11,1.11,0,0,1-1.05-1,.85.85,0,0,1,.9-.84Z"/><path class="cls-2" d="M170.1,211.58c.21-.16.42-.05,1.24.52a1.12,1.12,0,0,1,.45,1.56c-.2.16-1.12-.14-1.51-.66a1.27,1.27,0,0,1-.18-1.42Z"/><path class="cls-2" d="M185.26,220.48a.63.63,0,0,1,.83.27.62.62,0,0,1,0,.87c-.23.17-.6,0-.83-.28a.62.62,0,0,1,0-.86Z"/><path class="cls-2" d="M171.78,191.32c.46.22.4.34.52.78s0,.79-.49.8-.39-.12-.52-.78,0-1,.49-.8Z"/><path class="cls-2" d="M266.87,136.44c1.05,0,1.72,1.3,1.73,2.18s0,1.26-1.08,1.28a2.55,2.55,0,0,1-2.27-2c0-.88.57-1.4,1.62-1.42Z"/><path class="cls-2" d="M295.48,139.13c.75,0,1.41,1,1.9,2s.2,1.78-.59,2-2.22-1-2.18-2.36.12-1.7.87-1.71Z"/><path class="cls-2" d="M299.4,144.69c.68.15,1,.42,1.05,1a1,1,0,0,1-1,1c-.57,0-.84-.16-1.05-1s.33-1.14,1-1Z"/><path class="cls-2" d="M297.12,148.93c.69.15,1,.43,1.05,1a1,1,0,0,1-1,1c-.57,0-.84-.17-1-1s.34-1.13,1-1Z"/></g><g id="Labels"><path class="cls-5" d="M320.28,95.29a.31.31,0,0,1,.31.21l0,.16v.11a.14.14,0,0,1-.05.11l-.12.15-.1,0-.19.09-.2.1-.37.34-.32.24-.58.37-.51.31-.3.17a1.6,1.6,0,0,1-.34.16l-.56.22-.21.06a.43.43,0,0,1-.31-.14.51.51,0,0,1-.12-.32l0-.15a.23.23,0,0,1,.07-.11l.08-.06.27-.14.59-.26.49-.24.33-.16.31-.17.58-.38.34-.22.3-.24.33-.19A.48.48,0,0,1,320.28,95.29Z"/><path class="cls-5" d="M319.36,89.3h.08l.1,0,.22.18a.28.28,0,0,1,.13.25,3.22,3.22,0,0,1-.5.54l1.78-.06,0,.06,0,0a.37.37,0,0,1,.11.17c0,.15-.2.34-.59.59l-.9.53-.65.39-1.06.67-1.41.74-.82.35-.27.1-.27.07L315,94a.71.71,0,0,1-.29,0l-.16-.08a.52.52,0,0,1-.16-.45c0-.13.1-.24.3-.3l.3,0a2.6,2.6,0,0,0,.56-.06,2.7,2.7,0,0,0,.56-.2l.14-.05.2-.1.54-.23L319.69,91l-2.38,0a.27.27,0,0,1-.08-.14,1,1,0,0,1,0-.27l.05-.14.18,0a.67.67,0,0,0,.18-.08,1.77,1.77,0,0,0,.31-.15l.55-.25.38-.2a.35.35,0,0,0,.17-.17.5.5,0,0,1,.1-.15l.1,0Z"/><path class="cls-5" d="M327.54,95.29a.3.3,0,0,1,.31.21l0,.16v.11a.14.14,0,0,1-.05.11l-.13.15-.1,0-.18.09-.21.1-.36.34-.33.24-.58.37-.51.31-.29.17a1.87,1.87,0,0,1-.34.16l-.57.22-.21.06a.42.42,0,0,1-.3-.14.51.51,0,0,1-.12-.32l0-.15a.23.23,0,0,1,.07-.11l.08-.06.27-.14.58-.26.49-.24.34-.16.3-.17.59-.38.34-.22.3-.24.32-.19A.48.48,0,0,1,327.54,95.29Z"/><path class="cls-5" d="M327.31,89.35l.34,0,.19,0c.12,0,.17.08.17.23l0,.18a.32.32,0,0,1-.09.23.8.8,0,0,1-.31.15l-.41,0-.12,0a.91.91,0,0,0-.22,0l-.38.11c-.12,0-.19.08-.21.16l.12.16,0,.07.05.1.07.16a.9.9,0,0,1,0,.29v.13l0,.22a.58.58,0,0,1-.06.2l-.11.21-.06.08-.07.09-.1.1-.12.07-.39.18-.23.06h-1.86a.72.72,0,0,1-.23,0,.38.38,0,0,1-.18-.09l-.08,0-.15-.11a.63.63,0,0,1-.19-.45.31.31,0,0,1,.07-.21l.14-.15.13-.11a1.09,1.09,0,0,1,.38-.11.26.26,0,0,1,.2.11l.12.15.18.13.21,0,.43,0h.45a.64.64,0,0,0,.6-.24v-.1l0-.11a.48.48,0,0,0-.1-.22l-.12-.13-.13-.17-.18-.23,0-.28a.35.35,0,0,1,.07-.23l.16-.11.24-.13.23-.15a2.37,2.37,0,0,1,.34-.15l.41-.14A2.76,2.76,0,0,1,327.31,89.35Z"/><path class="cls-5" d="M331,89.4l.25,0a.54.54,0,0,1,.36.22l.1.16a.42.42,0,0,0,.22.11.32.32,0,0,0,.18-.07l.17-.16.13-.1.12-.11a.31.31,0,0,1,.13-.06l.19,0h.1l.1,0,.15.08.08,0,.06.08.09.21.07.19.05,0,.09,0A.89.89,0,0,0,334,90l.17-.13.17-.18.07-.06a.52.52,0,0,1,.11-.07l.22-.13.18,0h.17a.12.12,0,0,1,.11.08l.11.12,0,.11a.58.58,0,0,1-.15.41l-.19.23a.57.57,0,0,1-.23.17l-.25.13-.3.13-.3.09-.54.1a.83.83,0,0,1-.44-.12l-.17-.14-.18-.18h-.34a1,1,0,0,0-.26,0,.51.51,0,0,0-.18.09l-.36.34-.55.45-.56.42-.16.11-.2.13-.25.16-.79.44-.61.34-.25.1a1.19,1.19,0,0,1-.28.1l-.24.06h-.26l-.17,0-.2-.08a.47.47,0,0,1-.24-.48.36.36,0,0,1,.24-.35l.17,0h.61a1.57,1.57,0,0,0,.53-.21l.54-.28.63-.33.57-.38.44-.34.1-.13a.28.28,0,0,0,0-.13l-.2-.38,0-.19v-.1s0-.07,0-.09l.11-.15A.76.76,0,0,1,331,89.4Z"/><path class="cls-5" d="M341.49,95.29a.32.32,0,0,1,.32.21l0,.16v.11a.14.14,0,0,1-.05.11l-.12.15-.1,0-.19.09-.21.1-.36.34-.33.24-.57.37-.51.31-.3.17a1.87,1.87,0,0,1-.34.16l-.57.22-.2.06a.43.43,0,0,1-.31-.14.51.51,0,0,1-.12-.32l0-.15a.23.23,0,0,1,.07-.11l.08-.06.27-.14.59-.26.48-.24.34-.16.31-.17.58-.38.34-.22.3-.24.33-.19A.45.45,0,0,1,341.49,95.29Z"/><path class="cls-5" d="M340.58,89.3h.08l.1,0,.22.18a.28.28,0,0,1,.13.25,3.22,3.22,0,0,1-.5.54l1.78-.06s0,0,0,.06,0,0,0,0a.33.33,0,0,1,.12.17c0,.15-.2.34-.59.59l-.9.53-.66.39-1.05.67-1.41.74-.82.35-.27.1-.27.07-.34.08a.8.8,0,0,1-.3,0l-.15-.08a.52.52,0,0,1-.16-.45c0-.13.1-.24.3-.3l.3,0a2.6,2.6,0,0,0,.56-.06,2.7,2.7,0,0,0,.56-.2l.14-.05.2-.1.54-.23L340.91,91l-2.38,0a.38.38,0,0,1-.09-.14,1.7,1.7,0,0,1,0-.27l.06-.14.18,0a.67.67,0,0,0,.18-.08,1.77,1.77,0,0,0,.31-.15l.54-.25.39-.2a.35.35,0,0,0,.17-.17.36.36,0,0,1,.1-.15l.1,0Z"/><path class="cls-5" d="M348.76,95.29a.3.3,0,0,1,.31.21l0,.16v.11a.14.14,0,0,1-.05.11l-.13.15-.1,0-.18.09-.21.1-.36.34-.33.24-.58.37-.51.31-.29.17a1.87,1.87,0,0,1-.34.16l-.57.22-.21.06a.46.46,0,0,1-.31-.14.56.56,0,0,1-.11-.32l0-.15a.23.23,0,0,1,.07-.11l.07-.06.28-.14.58-.26.49-.24.34-.16.3-.17.59-.38.33-.22.31-.24.32-.19A.48.48,0,0,1,348.76,95.29Z"/><path class="cls-5" d="M349.06,90.62c0,.35-.35.77-1.05,1.24l-1.28.86-.55.33a4.89,4.89,0,0,1-1.93.85c-.45,0-.67-.17-.67-.52a.47.47,0,0,1,.24-.41.62.62,0,0,1,.33-.06h.07l.1,0,.11.06.06,0h.18l.13,0,.22-.07.58-.3.23-.13.4-.25.22-.16c-.47-.21-.71-.48-.71-.81a1.37,1.37,0,0,1,.51-1.06l.24-.16.25-.18a2.29,2.29,0,0,1,1.08-.28,1.51,1.51,0,0,1,1,.38A.77.77,0,0,1,349.06,90.62Zm-.88-.1c-.06-.11-.24-.17-.53-.17a1.42,1.42,0,0,0-.81.38l-.11.12-.11.19-.05.14c0,.1.06.18.19.27a.41.41,0,0,0,.16,0l.12,0,.22,0,.38-.19c.38-.25.57-.46.57-.61A.12.12,0,0,0,348.18,90.52Z"/><path class="cls-5" d="M158.69,38.26l.19,0H159l.11,0,.08.06.1.11,0,.18,0,.12a.26.26,0,0,1-.09.18L159,39l-.42.32-.53.39-.53.35-.89.53-.37.17a3.36,3.36,0,0,1-.55.26l-.19.07-.24.06H155a.28.28,0,0,1-.19-.08.37.37,0,0,1-.17-.21V40.7a.56.56,0,0,1,.12-.28l.2-.23.14-.16.09-.13.07-.22v-.8a1.19,1.19,0,0,1,0-.29.18.18,0,0,1,.08-.06l.14-.08.24-.05H156a.37.37,0,0,1,.2.11.41.41,0,0,1,.16.37V39l0,.12-.13.28-.11.41-.1.28.18-.06.2-.13.29-.17.38-.23.7-.46.15-.11.24-.22.41-.31Z"/><path class="cls-5" d="M160.26,33.08h.11l.11,0a.27.27,0,0,1,.1.14l.07.19,0,.15q0,.33-.3.33a4,4,0,0,0-.55.11l-.23.08-.17.09-.18.08-.14.11-.17.17-.15.2a.3.3,0,0,0,.14.21l.23.1.23,0H160l.22,0,.13,0a.33.33,0,0,1,.13.31.31.31,0,0,1-.22.31l-.31.07-.4,0h-.34l-.14,0-.44-.09a.79.79,0,0,1-.55-.31,1.5,1.5,0,0,1-.2-.7l-.08.11a.24.24,0,0,1-.14.11l-.12.11-.34.24-.52.34-.36.21-.31.19-.32.14-.29.11-.22,0-.1,0H155c-.2,0-.29-.12-.29-.35l0-.22a.28.28,0,0,1,.16-.14l.23-.07.28-.1a3.37,3.37,0,0,0,1.15-.62l.23-.2.24-.22-.89,0-.23,0-.13,0-.13-.06c-.15,0-.22-.17-.22-.37a.35.35,0,0,1,.31-.38l.34,0h.85a1.2,1.2,0,0,1,.65.15.54.54,0,0,1,.14.2l.11.2.12.3.16-.15.09-.07.06,0,.13-.08.23-.21.37-.25.66-.43A1.21,1.21,0,0,1,160.26,33.08Z"/><path class="cls-5" d="M152.61,38.17h.08l.1,0,.22.18a.25.25,0,0,1,.13.24,2.83,2.83,0,0,1-.5.54l1.78,0,0,0,0,.05a.43.43,0,0,1,.11.17c0,.15-.2.35-.59.59l-.9.53-.65.39-1.06.68L150,42.3l-.82.35-.27.11-.27.06-.34.09a.8.8,0,0,1-.3,0l-.15-.09a.51.51,0,0,1-.16-.44c0-.14.1-.24.3-.31l.3,0a2.6,2.6,0,0,0,.56-.06,1.89,1.89,0,0,0,.56-.2l.14,0,.2-.1.54-.24,2.66-1.53h-2.38a.27.27,0,0,1-.08-.15.83.83,0,0,1,0-.26l.06-.14.18,0a.6.6,0,0,0,.18-.07,3,3,0,0,0,.31-.15l.55-.26.38-.2a.31.31,0,0,0,.17-.17.5.5,0,0,1,.1-.15l.1,0Z"/><path class="cls-5" d="M154.42,33.83a.48.48,0,0,1,.27-.09c.25,0,.38.16.38.5l0,.12a.13.13,0,0,1-.07.08,14.3,14.3,0,0,1-1.47,1,12.11,12.11,0,0,1-1.48.75l-.2.07-.15,0a.33.33,0,0,1-.3-.24l0-.13,0-.18q0-.19.24-.27a9,9,0,0,0,1.17-.62l.38-.22.57-.35C154,34.13,154.23,34,154.42,33.83Z"/><path class="cls-5" d="M147.4,38.27h.18l.16,0H148a.68.68,0,0,1,.31.06l.33.07c.4.1.6.27.6.54a.7.7,0,0,1-.12.36c0,.07-.09.14-.14.21l-.21.21-.3.28-.36.29-.31.22-.47.32a13.35,13.35,0,0,1-1.39.77l-.58.28-.27.1-.35.11-.25,0-.18,0-.1,0-.16-.12-.1-.19,0-.08c0-.24.07-.38.23-.41h.49l.26,0,.16,0,.18,0a1.07,1.07,0,0,0,.23-.1l.29-.15.48-.24.23-.1.38-.21.41-.22.24-.17.15-.11.21-.17a1.33,1.33,0,0,0,.26-.27l.07-.08,0,0a.09.09,0,0,0,0-.07l-.12-.05-.11,0-.27,0-.21,0h-.12l-.44.07-.07,0-.12.06-.14,0-.1,0h-.16l-.16,0-.2,0a.44.44,0,0,1-.27-.34.48.48,0,0,1,.07-.29.7.7,0,0,1,.27-.19l.23-.08.24-.08Z"/><path class="cls-5" d="M148.71,32.56l.13-.08a.34.34,0,0,1,.15,0c.25,0,.38.17.38.5a.25.25,0,0,1-.1.22,18,18,0,0,1-1.57,1.06l-.7.38c-.24.12-.46.22-.69.31L146,35a.32.32,0,0,1-.17-.06.5.5,0,0,1-.13-.17l0-.1v-.15a.14.14,0,0,1,0-.07.3.3,0,0,1,.08-.19.18.18,0,0,1,.06-.08l.1,0a3.71,3.71,0,0,0,1.19-.55A10.11,10.11,0,0,0,148.71,32.56Zm.78,1.38a.48.48,0,0,1,.27-.09c.25,0,.38.16.38.51a.31.31,0,0,1,0,.11.18.18,0,0,1-.07.09,14.17,14.17,0,0,1-1.47,1,12.87,12.87,0,0,1-1.48.75l-.2.07-.15,0a.33.33,0,0,1-.3-.23l0-.14,0-.17c0-.13.07-.22.23-.27a8.81,8.81,0,0,0,1.18-.63l.38-.22.57-.35C149.07,34.24,149.29,34.09,149.49,33.94Z"/><path class="cls-5" d="M143.29,37.62l.16,0h.16a.35.35,0,0,1,.2.13.77.77,0,0,1,0,.12v.12a.63.63,0,0,1-.36.42l-.21.11.09.05.24.14a.65.65,0,0,1,.19.17.29.29,0,0,1,.06.19c0,.13-.1.27-.28.43l-.81.37L143,40l.23.15a1.24,1.24,0,0,1,.06.25v.09a.21.21,0,0,1-.05.11l-.22.21-.46.36-.5.36-.4.29-1.07.72a2.76,2.76,0,0,1-.38.24,3.27,3.27,0,0,1-.33.18l-.12,0-.16.08-.44.19a1.49,1.49,0,0,1-.54.16.42.42,0,0,1-.2-.05l-.13-.06-.09-.08a.29.29,0,0,1-.08-.14.81.81,0,0,1-.05-.21c0-.21.16-.35.48-.43l.21,0,.15,0,.19-.06a.64.64,0,0,0,.18-.06.73.73,0,0,0,.21-.07l.27-.12.28-.16,1-.63.49-.33.68-.49-.38-.25a.41.41,0,0,1-.16-.33.43.43,0,0,1,0-.14,1.08,1.08,0,0,1,.19-.2l.31-.16.48-.23-.21-.13-.27-.16-.14-.09-.06-.06-.07-.13,0,0,0-.08a.34.34,0,0,0,.06-.06l.17-.14h0l.08,0a1.14,1.14,0,0,0,.26-.09l.21-.09a.84.84,0,0,0,.19-.09l.19-.13Z"/><path class="cls-5" d="M143.34,33.15h.41l.14,0a1.36,1.36,0,0,1,.76.18.57.57,0,0,1,.27.5,1.39,1.39,0,0,1-.49.84l-.3.33-.38.32a2.88,2.88,0,0,1-.38.28,3.17,3.17,0,0,1-.45.23l-.69.28-.34.16-.24,0s-.1,0-.19-.15l-.05-.11-.06-.12a.41.41,0,0,1,.08-.25.81.81,0,0,1,.28-.2l.3-.08.34-.11a2.23,2.23,0,0,0,.36-.15,1.75,1.75,0,0,0,1.13-1l-.06-.05-.08,0-.26,0-.19,0-.19,0h-.21l-.12,0-.15.09-.13.07-.12,0h-.18a.33.33,0,0,1-.18-.08l-.13-.18,0-.15a.33.33,0,0,1,.16-.3,3.84,3.84,0,0,1,.65-.27A3.55,3.55,0,0,1,143.34,33.15Z"/><path class="cls-5" d="M139,38.19c.37,0,.55.1.55.31a.81.81,0,0,1-.21.52l-.19.19-.26.17-.25.1-.33.09-.47,0h-.28l-.44,0h-.25l-.08.12-.17.18-.35.36-.24.19-.27.2-.82.56-.47.29-.32.17-.23.13-.45.21-.22.08a1.57,1.57,0,0,1-.39.08l-.1,0-.13-.07-.11-.05L132.4,42a.4.4,0,0,1-.14-.19l0-.14v-.16a.56.56,0,0,1,.15-.32s.06,0,.15-.07l.16,0h.1l.2,0,.2,0,.18,0,.21-.07.59-.27.31-.16.28-.16a5.62,5.62,0,0,0,.8-.59l.14-.15.07-.16-.09-.11a.35.35,0,0,1-.1-.21.82.82,0,0,1,.26-.6.86.86,0,0,1,.6-.26.75.75,0,0,1,.38.17c.16.1.24.21.24.31l.45,0a1.2,1.2,0,0,0,.47-.11,2.94,2.94,0,0,0,.57-.34.55.55,0,0,1,.13-.08l.12-.08A.76.76,0,0,1,139,38.19Z"/><path class="cls-5" d="M139.29,44.16a.3.3,0,0,1,.31.2l0,.16v.11a.13.13,0,0,1-.05.11l-.12.16-.1,0-.19.1-.2.09-.36.35-.33.24-.58.36-.51.31-.3.17a2.64,2.64,0,0,1-.34.17l-.56.21-.21.06a.42.42,0,0,1-.31-.13.56.56,0,0,1-.12-.32l0-.16a.23.23,0,0,1,.07-.11l.08-.06.27-.14.59-.26.49-.24.33-.15.31-.18.58-.37.34-.23.3-.24.33-.18A.4.4,0,0,1,139.29,44.16Z"/><path class="cls-5" d="M180.75,182.92h.19l.13,0,.41.07.42.12.29.13a.66.66,0,0,1,.39.55l0,.2-.1.19-.12.16-.29.24-1,.68-.94.49-.4.18-.35.07a.45.45,0,0,1-.27-.11l-.08-.14,0-.17,0-.16s0-.09.14-.16l.33-.16.62-.27.8-.41.33-.18.25-.17,0-.11c0-.15-.21-.22-.62-.22l-.42,0L180,184c-.35,0-.52-.15-.52-.43a.33.33,0,0,1,.08-.25.66.66,0,0,1,.27-.17l.49-.16Zm3.51,0a2.6,2.6,0,0,1,.68.1,1.05,1.05,0,0,1,.21.06l.14.07.3.21a.55.55,0,0,1,.21.22.57.57,0,0,1,.07.31l0,.11-.07.13-.16.18-.15.18-.14.16-.21.17-.56.45-.56.38-.49.28-.21.06-.24,0-.18,0a.28.28,0,0,1-.15-.08l-.08-.16a.31.31,0,0,0,0-.11.28.28,0,0,1,.1-.2l.17-.09.23-.11.34-.16.59-.33.45-.35.24-.21a.47.47,0,0,0,.09-.19.22.22,0,0,0-.15-.23l-.35,0-.22,0-.16,0-.18.07-.14,0-.12,0-.3,0-.13-.06,0,0-.07-.06a.81.81,0,0,1-.06-.2v-.11a.57.57,0,0,1,.08-.13l.22-.16.16-.07.15,0a1.61,1.61,0,0,1,.36-.1l.26,0Z"/><path class="cls-5" d="M184.64,187.71h.13l.11,0a.49.49,0,0,1,.22.26l0,.24a.31.31,0,0,1-.11.27l-.47.19.23.23a.69.69,0,0,1,.21.5v.22a.25.25,0,0,0,0,.08.59.59,0,0,1,0,.08,1.13,1.13,0,0,1-.61.81l-.34.18-.23.07-.28,0h-.29l-.29,0-.56-.13-.1-.06-.36.31-.18.15-.21.17-.48.35-.2.13-.36.22-.34.21-.68.38-.14.06-.16.07-.28.16-.27,0a.65.65,0,0,1-.59-.33l0-.09,0-.18a.31.31,0,0,1,.1-.26l.12-.1.1-.05h.59a.93.93,0,0,0,.45-.11l.76-.4.27-.17.43-.29.29-.21.18-.19.16-.12.16-.18-.11-.21,0-.14,0-.14c0-.14.13-.25.31-.36l.24,0h.16l.21.1a.38.38,0,0,1,.21.22l0,.19.06.06.2.12.21.09h.26l.18,0,.14-.06a.89.89,0,0,0,.37-.23l.1-.15,0-.13a.43.43,0,0,0-.06-.24l-.11-.13-.16-.1-.15-.1-.29-.14-.27-.19-.05-.1,0-.14a.18.18,0,0,1,.09-.17l.26-.12h.21l.26,0L184,188l.17-.12.15-.08.16-.07Z"/><path class="cls-5" d="M191.62,183.55a.43.43,0,0,1,.27-.1c.26,0,.38.17.38.51l0,.12a.17.17,0,0,1-.07.08,13.17,13.17,0,0,1-1.47,1,10.92,10.92,0,0,1-1.48.76l-.2.06-.15.05a.33.33,0,0,1-.3-.24l0-.13,0-.19c0-.12.08-.21.24-.26a9,9,0,0,0,1.17-.62c.12-.08.25-.15.38-.22l.57-.35Z"/><path class="cls-5" d="M191.44,189.2c0,.35-.35.77-1.05,1.25l-1.28.86-.55.33a5,5,0,0,1-1.93.84c-.45,0-.67-.17-.67-.52a.47.47,0,0,1,.24-.41.64.64,0,0,1,.33-.06h.07l.1,0,.11.06.07,0h.17l.13,0,.22-.07.59-.3.22-.13.4-.24.23-.16q-.72-.33-.72-.81a1.39,1.39,0,0,1,.51-1.07l.24-.16.25-.18a2.29,2.29,0,0,1,1.08-.28,1.51,1.51,0,0,1,1,.38A.77.77,0,0,1,191.44,189.2Zm-.88-.1c-.06-.11-.24-.17-.53-.17a1.45,1.45,0,0,0-.81.38l-.11.12-.11.19-.05.14c0,.1.06.18.19.27a.49.49,0,0,0,.16.05l.12,0,.22,0,.38-.19c.38-.25.57-.45.57-.61A.12.12,0,0,0,190.56,189.1Z"/><path class="cls-5" d="M198.35,184.11q0,1-1.29,1.68a1.84,1.84,0,0,1-.88.27c-.83,0-1.25-.36-1.25-1.07a1.77,1.77,0,0,1,.72-1.39,2.39,2.39,0,0,1,1.52-.59,1.28,1.28,0,0,1,.47.08.89.89,0,0,1,.38.21A1,1,0,0,1,198.35,184.11Zm-.78.13c0-.29-.21-.44-.62-.44a1.13,1.13,0,0,0-.78.37,1.1,1.1,0,0,0-.38.79c0,.19.13.28.38.28h.19a1.33,1.33,0,0,0,.76-.34C197.42,184.67,197.57,184.46,197.57,184.24Z"/><path class="cls-5" d="M197.19,188.17h.21l.13,0a.56.56,0,0,1,.13.07.66.66,0,0,1,.34.45l.05.24,0,.18a.45.45,0,0,1,0,.13l0,.2-.09.36-.13.34-.11.26-.15.29a1.44,1.44,0,0,1-.42.52l-.19,0-.11,0-.11,0-.11,0-.16-.11,0-.18a.58.58,0,0,1,0-.15.49.49,0,0,1,.08-.12l.17-.22.16-.26.29-.53.1-.28a.38.38,0,0,0,0-.08.11.11,0,0,0,0-.08l-.07,0a.52.52,0,0,0-.32.11l-.26.23L196,190l-1.11.86-.4.29-.46.27-.34.2-.3.1-.22,0-.21,0-.13,0a.32.32,0,0,1-.14-.31v-.15a.29.29,0,0,1,0-.12l.07-.15s.08-.09.22-.16l.29,0h.25l.17,0,.36-.18.56-.37.26-.2.28-.22.34-.31.36-.3.34-.32.36-.31A1,1,0,0,1,197.19,188.17Z"/><path class="cls-5" d="M203.79,182.93l.23-.09.23,0a.52.52,0,0,1,.36.09.29.29,0,0,1,.14.25.32.32,0,0,1-.13.28l-.09.06-.16.07-.31.14-.88.4c-.47.22-.7.5-.7.83a.36.36,0,0,0,.15.28l.09,0,.14.05.31,0h.27l.12,0,.11-.05.14-.07a.37.37,0,0,1,.15,0c.12,0,.19,0,.23,0l.14.17a.47.47,0,0,1,0,.23q-.06.34-.66.51l-.25.06-.24,0-.36,0-.4-.11-.2-.06-.18-.12a1,1,0,0,1-.32-1.47l.19-.24.27-.26.22-.16.27-.18.49-.3Z"/><path class="cls-5" d="M204.46,187.71h.14l.11,0a.49.49,0,0,1,.22.26l0,.24a.29.29,0,0,1-.11.27l-.46.19.22.23a.66.66,0,0,1,.22.5v.22s0,.06,0,.08a.16.16,0,0,1,0,.08,1.16,1.16,0,0,1-.61.81l-.34.18-.23.07-.28,0H203l-.29,0-.56-.13-.1-.06-.36.31-.18.15-.21.17-.48.35-.2.13-.37.22-.33.21-.68.38-.14.06-.16.07-.28.16-.28,0a.64.64,0,0,1-.58-.33l0-.09,0-.18a.34.34,0,0,1,.09-.26l.13-.1.1-.05h.59a.93.93,0,0,0,.45-.11l.76-.4.26-.17.44-.29.29-.21.18-.19.15-.12.17-.18-.11-.21,0-.14,0-.14c0-.14.12-.25.31-.36l.24,0H202l.21.1a.38.38,0,0,1,.21.22l0,.19.06.06.2.12.21.09h.26l.18,0,.14-.06a.89.89,0,0,0,.37-.23l.09-.15.05-.13a.43.43,0,0,0-.06-.24l-.11-.13-.16-.1-.15-.1-.29-.14-.27-.19,0-.1-.05-.14a.17.17,0,0,1,.1-.17l.25-.12h.22l.26,0,.17-.07.16-.12.16-.08.16-.07Z"/><path class="cls-5" d="M269.34,101.11h.18l.14,0,.41.06.42.12.29.13a.69.69,0,0,1,.39.56l0,.2-.1.18-.12.16-.29.25-1,.67-.95.5-.39.17-.35.07a.38.38,0,0,1-.27-.11l-.08-.13,0-.17,0-.17a.46.46,0,0,1,.13-.16l.33-.16.62-.26.81-.41.33-.18.25-.17.05-.11c0-.15-.21-.23-.62-.23l-.42,0-.49.16c-.35,0-.53-.14-.53-.43a.33.33,0,0,1,.09-.25,1,1,0,0,1,.27-.17l.49-.16Zm3.51,0a2.65,2.65,0,0,1,.68.11.65.65,0,0,1,.21.06l.14.07.3.2a.76.76,0,0,1,.21.23.56.56,0,0,1,.07.3l0,.12-.07.13-.16.18-.15.17-.15.17-.2.17-.56.44-.56.38-.49.29-.22,0-.24,0h-.17a.25.25,0,0,1-.15-.09l-.08-.15a.37.37,0,0,0,0-.12.26.26,0,0,1,.1-.19l.17-.09.23-.12.34-.16.59-.32.45-.35.24-.21a.54.54,0,0,0,.09-.2.2.2,0,0,0-.15-.22l-.35,0h-.22l-.16,0-.18.07-.14,0-.12,0-.3,0-.13-.06-.05,0a.21.21,0,0,0-.08-.06l0-.2v-.12a.36.36,0,0,1,.08-.12,1,1,0,0,1,.22-.16,1.11,1.11,0,0,0,.16-.08l.15,0a1.21,1.21,0,0,1,.36-.1l.26,0Z"/><path class="cls-5" d="M273.22,105.89h.14a.2.2,0,0,1,.11,0,.5.5,0,0,1,.22.25l0,.24a.32.32,0,0,1-.11.28l-.46.19.22.22a.7.7,0,0,1,.22.51v.22a.22.22,0,0,1,0,.08.11.11,0,0,1,0,.07,1.11,1.11,0,0,1-.62.81l-.33.19-.23.07-.28,0h-.29l-.3,0-.55-.13-.1-.06-.36.3-.18.16-.22.17-.47.34-.2.13-.37.23-.33.2-.68.38-.14.06-.17.08-.27.15-.28,0a.65.65,0,0,1-.58-.34l0-.08-.05-.19a.32.32,0,0,1,.1-.25l.13-.1.09-.06h.6a1.06,1.06,0,0,0,.45-.11l.76-.41.26-.17.44-.29.29-.2.18-.2.15-.12.17-.17-.11-.22,0-.14,0-.14a.56.56,0,0,1,.32-.35l.24,0h.16l.21.09a.42.42,0,0,1,.21.23l0,.19.06,0,.19.13.21.08h.27l.18,0,.14-.06a.91.91,0,0,0,.36-.23l.1-.15.05-.13a.49.49,0,0,0-.06-.25l-.11-.12-.17-.1-.14-.1L272,107l-.28-.2-.05-.1,0-.14a.19.19,0,0,1,.09-.17l.26-.12h.48l.17-.08.16-.11.16-.09.15-.07Z"/><path class="cls-5" d="M280.63,102.3q0,1-1.29,1.68a2,2,0,0,1-.88.26c-.83,0-1.25-.36-1.25-1.07a1.76,1.76,0,0,1,.72-1.38,2.39,2.39,0,0,1,1.52-.59,1.13,1.13,0,0,1,.47.08.84.84,0,0,1,.38.21A1,1,0,0,1,280.63,102.3Zm-.78.13c0-.3-.21-.44-.62-.44a1.28,1.28,0,0,0-1.16,1.16c0,.18.13.28.38.28h.19a1.44,1.44,0,0,0,.76-.34Q279.85,102.75,279.85,102.43Z"/><path class="cls-5" d="M277.46,106.17l.26,0a.56.56,0,0,1,.36.21l.1.16a.34.34,0,0,0,.22.12.41.41,0,0,0,.18-.07l.17-.16.12-.1.13-.11a.26.26,0,0,1,.13-.06.53.53,0,0,1,.19,0h.1l.1,0,.15.08.08,0,.05.08.09.21.07.18.06,0,.08,0a1.11,1.11,0,0,0,.39-.11l.17-.13.16-.18.08-.07.1-.07.23-.12.18,0h.17a.12.12,0,0,1,.11.08l.1.12,0,.11a.62.62,0,0,1-.14.41l-.2.23a.61.61,0,0,1-.22.17l-.25.13-.3.12-.3.09-.54.11a.89.89,0,0,1-.45-.12l-.16-.14-.19-.18h-.33a1,1,0,0,0-.26,0,.39.39,0,0,0-.18.1l-.36.33-.56.46-.55.42-.16.11-.21.13-.24.15-.8.45-.61.33-.24.11-.28.1-.24,0-.27,0-.17,0-.19-.08a.47.47,0,0,1-.24-.48.39.39,0,0,1,.23-.36l.18,0h.6a1.49,1.49,0,0,0,.54-.2l.54-.28.63-.34.57-.38.43-.34.11-.12a.5.5,0,0,0,0-.13l-.2-.38,0-.19v-.1s0-.08,0-.1l.1-.14A.76.76,0,0,1,277.46,106.17Z"/><path class="cls-5" d="M287.55,101.12l.22-.09.24,0c.17,0,.29,0,.35.09a.26.26,0,0,1,.14.24.3.3,0,0,1-.13.28l-.08.07-.17.07-.3.14-.89.4c-.47.21-.7.49-.7.83a.38.38,0,0,0,.15.28l.1,0,.14,0,.3,0,.28,0,.11,0,.11,0a.46.46,0,0,1,.14-.07l.15-.06a.37.37,0,0,1,.23,0l.14.18a.43.43,0,0,1,0,.22c0,.23-.26.4-.66.52l-.25.06-.24,0-.36,0-.4-.11-.2-.07-.18-.12a1,1,0,0,1-.52-.9,1,1,0,0,1,.21-.57l.18-.24.27-.25.22-.16.27-.19.49-.29Z"/><path class="cls-5" d="M286.13,106.17h.18l.15,0h.28a.73.73,0,0,1,.32.06l.32.08c.4.09.6.27.6.53a.82.82,0,0,1-.11.37l-.15.2a1,1,0,0,1-.21.21l-.29.28-.37.29-.3.22-.47.32a11.12,11.12,0,0,1-1.39.77l-.58.28-.28.1-.34.11-.25,0-.19,0L283,110l-.15-.11-.1-.2,0-.08c0-.24.08-.37.24-.4l.26,0h.23l.26,0,.16,0,.18,0,.22-.09.3-.15.48-.24.22-.11.38-.2L286,108l.25-.16.15-.11.21-.18a1.6,1.6,0,0,0,.26-.26l.07-.09,0,0a.09.09,0,0,0,0-.07l-.12-.06-.11,0-.26,0-.21,0h-.13l-.44.07-.06,0-.13.06-.14,0-.09,0h-.32l-.2,0a.44.44,0,0,1-.27-.35.6.6,0,0,1,.06-.29.83.83,0,0,1,.27-.19l.23-.07.24-.08Z"/><path class="cls-5" d="M293.61,100.47a.41.41,0,0,1,.14-.08.26.26,0,0,1,.14,0c.25,0,.38.17.38.51a.26.26,0,0,1-.09.21,18.17,18.17,0,0,1-1.58,1.06l-.7.39c-.24.11-.46.21-.69.3l-.34.11a.41.41,0,0,1-.17,0,.7.7,0,0,1-.13-.18l0-.09v-.15a.15.15,0,0,1,0-.08.32.32,0,0,1,.08-.19.28.28,0,0,1,.06-.08l.1-.05a3.82,3.82,0,0,0,1.19-.54A11.69,11.69,0,0,0,293.61,100.47Zm.78,1.38a.43.43,0,0,1,.27-.1c.25,0,.38.17.38.51a.22.22,0,0,1,0,.12.23.23,0,0,1-.07.08,14.17,14.17,0,0,1-1.47,1,12.87,12.87,0,0,1-1.48.75l-.2.07-.15,0a.33.33,0,0,1-.3-.23l0-.14,0-.18c0-.12.07-.21.23-.27a8.26,8.26,0,0,0,1.18-.62l.38-.23c.2-.11.38-.23.57-.35S294.19,102,294.39,101.85Z"/><path class="cls-5" d="M292.83,106.17H293a.4.4,0,0,1,.15,0h.28a.73.73,0,0,1,.32.06l.33.08c.4.09.6.27.6.53a.73.73,0,0,1-.12.37c-.05.07-.09.13-.15.2a1.29,1.29,0,0,1-.2.21l-.3.28-.36.29-.31.22-.47.32a11.12,11.12,0,0,1-1.39.77l-.58.28-.28.1-.34.11-.25,0-.18,0-.11-.05-.15-.11-.1-.2,0-.08c0-.24.08-.37.24-.4l.26,0h.23l.26,0,.16,0,.18,0,.22-.09.3-.15.48-.24.22-.11.39-.2.41-.23.24-.16.15-.11.21-.18a1.6,1.6,0,0,0,.26-.26l.07-.09,0,0a.15.15,0,0,0,0-.07l-.12-.06-.11,0-.27,0-.21,0h-.12l-.45.07-.06,0-.12.06-.14,0-.1,0h-.32l-.2,0a.44.44,0,0,1-.27-.35.6.6,0,0,1,.06-.29,1,1,0,0,1,.28-.19l.23-.07.23-.08Z"/><path class="cls-5" d="M272.84,156.72H273l.14,0,.41.07.42.12.29.13a.67.67,0,0,1,.39.56l0,.2-.1.18-.12.16-.29.24-1,.68-.95.5-.39.17-.35.07a.38.38,0,0,1-.27-.11l-.08-.13,0-.17,0-.17a.38.38,0,0,1,.13-.16l.33-.16.62-.27.81-.41.33-.17.25-.18.05-.1c0-.15-.21-.23-.62-.23l-.42,0-.49.17c-.35,0-.53-.14-.53-.43a.37.37,0,0,1,.08-.25,1,1,0,0,1,.28-.17l.49-.16Zm3.51,0a2.28,2.28,0,0,1,.68.11.52.52,0,0,1,.2.06l.15.07.3.2a.73.73,0,0,1,.21.22.62.62,0,0,1,.07.31l0,.11-.07.13-.16.19-.15.17-.15.17-.2.16-.56.45-.56.38-.49.29-.22,0-.24,0h-.18a.26.26,0,0,1-.14-.09l-.08-.15a.37.37,0,0,0,0-.12.24.24,0,0,1,.1-.19l.17-.1.23-.11.34-.16.59-.32.45-.36.24-.21a.41.41,0,0,0,.09-.19.2.2,0,0,0-.15-.22l-.35,0-.23,0-.15,0-.18.07-.14,0-.12,0-.3,0-.13-.06-.05,0-.08-.06a.8.8,0,0,1,0-.19v-.12a.57.57,0,0,1,.08-.13,1,1,0,0,1,.22-.15l.16-.08.15,0a2.42,2.42,0,0,1,.36-.1l.26,0Z"/><path class="cls-5" d="M276.72,161.5h.14l.11,0a.53.53,0,0,1,.22.26l0,.24a.29.29,0,0,1-.11.27l-.46.2.22.22a.68.68,0,0,1,.22.5v.23s0,.05,0,.07a.13.13,0,0,1,0,.08,1.15,1.15,0,0,1-.62.81l-.33.18-.23.08-.29,0h-.28l-.3,0-.55-.13-.1-.07-.37.31-.17.16-.22.16-.47.35-.2.13-.37.23-.33.2-.68.38-.14.06-.17.08-.28.15-.27,0a.67.67,0,0,1-.59-.33l0-.09,0-.18a.36.36,0,0,1,.1-.26l.13-.09.09-.06h.6a1.06,1.06,0,0,0,.45-.11l.76-.41.26-.17.44-.29.29-.2.18-.2.15-.12.17-.18-.11-.21,0-.14,0-.14a.56.56,0,0,1,.32-.35l.24-.05h.16l.21.1a.35.35,0,0,1,.2.23l0,.18.07.06.19.13.21.08h.27l.17,0,.15-.05a.94.94,0,0,0,.36-.24l.1-.14.05-.14a.43.43,0,0,0-.06-.24l-.11-.13-.17-.09-.14-.1-.3-.14-.27-.2-.05-.1,0-.14a.18.18,0,0,1,.09-.17l.26-.12h.48l.17-.08.16-.11.15-.09.16-.07Z"/><path class="cls-5" d="M284.13,157.91c0,.66-.43,1.22-1.29,1.67a1.87,1.87,0,0,1-.88.27c-.83,0-1.25-.36-1.25-1.07a1.74,1.74,0,0,1,.72-1.38,2.34,2.34,0,0,1,1.52-.59,1.33,1.33,0,0,1,.47.07.87.87,0,0,1,.37.22A1,1,0,0,1,284.13,157.91Zm-.78.12c0-.29-.21-.44-.62-.44a1.14,1.14,0,0,0-.78.37,1.06,1.06,0,0,0-.38.79c0,.19.12.28.38.28h.19a1.36,1.36,0,0,0,.76-.34A.89.89,0,0,0,283.35,158Z"/><path class="cls-5" d="M281,161.78l.25,0a.56.56,0,0,1,.37.21l.1.16a.33.33,0,0,0,.22.11.34.34,0,0,0,.18-.07l.17-.15.12-.1.13-.12a.33.33,0,0,1,.12,0,.59.59,0,0,1,.2,0h.1l.1.05.15.08.07.05.06.07.09.22.07.18.06,0,.08,0a1.17,1.17,0,0,0,.39-.11l.17-.13.16-.18.08-.07.1-.07.22-.12.19,0h.17a.13.13,0,0,1,.11.07l.1.13,0,.11a.64.64,0,0,1-.14.41l-.2.23a.52.52,0,0,1-.22.16l-.25.14-.3.12-.31.09-.53.11a.89.89,0,0,1-.45-.12l-.17-.14-.18-.18h-.33a.93.93,0,0,0-.26,0,.32.32,0,0,0-.18.1l-.36.33-.56.45-.56.42-.15.12-.21.13-.24.15-.8.45-.61.33-.24.11-.28.1-.24,0-.27,0-.17,0-.19-.07a.48.48,0,0,1-.24-.48.39.39,0,0,1,.23-.36l.18,0h.6a1.41,1.41,0,0,0,.53-.2l.55-.28.63-.34.57-.38.43-.34.11-.13a.34.34,0,0,0,0-.12l-.2-.39,0-.18v-.1a.13.13,0,0,1,0-.1l.1-.15A.76.76,0,0,1,281,161.78Z"/><path class="cls-5" d="M291.48,157.34a.48.48,0,0,1,.27-.09c.26,0,.38.16.38.5l0,.12a.18.18,0,0,1-.07.09,13.17,13.17,0,0,1-1.47,1,12.11,12.11,0,0,1-1.48.75l-.2.07-.15,0a.33.33,0,0,1-.3-.24l0-.13,0-.18c0-.12.08-.21.24-.26a9.7,9.7,0,0,0,1.17-.63l.38-.22.57-.35C291.06,157.64,291.29,157.49,291.48,157.34Z"/><path class="cls-5" d="M290.09,161.68h.08l.1,0,.22.18a.25.25,0,0,1,.13.24,2.71,2.71,0,0,1-.51.54l1.79,0s0,0,0,0a.15.15,0,0,1,0,.06.32.32,0,0,1,.12.16c0,.15-.2.35-.59.6l-.9.52-.66.39-1.05.68-1.41.73-.82.36-.27.1-.27.06-.35.09a.78.78,0,0,1-.29,0l-.15-.09a.51.51,0,0,1-.16-.44c0-.14.1-.24.3-.31l.3,0a3.43,3.43,0,0,0,.56-.05,2.27,2.27,0,0,0,.56-.21l.13,0,.21-.1.53-.24,2.67-1.53H288a.5.5,0,0,1-.08-.15.88.88,0,0,1,0-.26l.06-.14.17,0a1.32,1.32,0,0,0,.19-.08,1.77,1.77,0,0,0,.31-.15l.54-.25.39-.21a.35.35,0,0,0,.17-.17.36.36,0,0,1,.1-.15l.1,0Z"/><path class="cls-5" d="M298.27,167.67a.31.31,0,0,1,.31.2l0,.16,0,.11a.13.13,0,0,1-.05.12l-.12.15-.1.05-.19.09-.2.1-.36.34-.33.24-.58.37-.51.3-.29.17a3.49,3.49,0,0,1-.34.17l-.57.22-.21,0a.45.45,0,0,1-.31-.13.62.62,0,0,1-.11-.32l0-.16a.23.23,0,0,1,.07-.11l.07,0,.27-.15.59-.26.49-.24.33-.15.31-.18.59-.37.33-.22.31-.24.32-.19A.4.4,0,0,1,298.27,167.67Z"/><path class="cls-5" d="M295.89,161.78l.25,0a.56.56,0,0,1,.36.21l.1.16a.36.36,0,0,0,.22.11.32.32,0,0,0,.18-.07l.17-.15.13-.1.12-.12.13,0a.55.55,0,0,1,.19,0h.1l.1.05.15.08.08.05a.18.18,0,0,1,.05.07l.1.22.07.18.05,0,.09,0a1.07,1.07,0,0,0,.38-.11l.17-.13.17-.18.07-.07.11-.07.22-.12.18,0H300a.12.12,0,0,1,.11.07l.11.13,0,.11a.59.59,0,0,1-.15.41l-.19.23a.56.56,0,0,1-.23.16l-.25.14-.3.12-.3.09-.54.11a.83.83,0,0,1-.44-.12l-.17-.14-.18-.18h-.34a1,1,0,0,0-.26,0,.4.4,0,0,0-.18.1l-.36.33-.55.45-.56.42s-.1.07-.16.12l-.2.13-.25.15-.79.45-.61.33-.25.11-.28.1-.24,0-.27,0-.16,0-.2-.07a.48.48,0,0,1-.24-.48.38.38,0,0,1,.24-.36l.17,0h.61a1.54,1.54,0,0,0,.53-.2l.54-.28.63-.34.57-.38.44-.34.1-.13a.21.21,0,0,0,0-.12l-.2-.39,0-.18v-.1c0-.05,0-.08,0-.1l.1-.15A.81.81,0,0,1,295.89,161.78Z"/><path class="cls-5" d="M335.88,157.69h.18l.14,0,.41.07.42.12.29.13a.66.66,0,0,1,.39.55l0,.2-.1.19-.12.16-.29.24-1,.68-.95.49-.39.18-.35.07a.4.4,0,0,1-.27-.11l-.08-.14,0-.16,0-.17a.38.38,0,0,1,.13-.16l.33-.16.62-.27.81-.41.33-.17.25-.18,0-.1c0-.16-.2-.23-.61-.23l-.42,0-.49.17c-.35,0-.53-.14-.53-.43a.37.37,0,0,1,.08-.25.79.79,0,0,1,.28-.17l.49-.16Zm3.51,0a2.66,2.66,0,0,1,.68.1.8.8,0,0,1,.2.06l.15.07.3.21a.73.73,0,0,1,.21.22.74.74,0,0,1,.07.31l0,.11-.07.13-.16.18-.15.18-.15.16-.2.17-.56.45-.56.38-.49.28-.22.06-.24,0-.18,0a.29.29,0,0,1-.14-.08l-.08-.15a.37.37,0,0,0,0-.12.28.28,0,0,1,.1-.2l.17-.09.23-.11.34-.16.59-.32.44-.36.24-.21a.36.36,0,0,0,.1-.19.22.22,0,0,0-.15-.23l-.35,0-.23,0-.16,0-.17.07-.14,0-.12,0-.31,0-.12-.06-.05,0-.08-.06a.93.93,0,0,1-.05-.2v-.11a.57.57,0,0,1,.08-.13,1.58,1.58,0,0,1,.22-.16l.16-.07.15,0a1.69,1.69,0,0,1,.35-.1l.27,0Z"/><path class="cls-5" d="M339.76,162.48h.13l.12,0a.49.49,0,0,1,.22.26l0,.24a.31.31,0,0,1-.11.27l-.46.2.22.22a.7.7,0,0,1,.22.5v.23s0,.05,0,.07a.13.13,0,0,1,0,.08,1.17,1.17,0,0,1-.62.81l-.33.18-.23.08-.29,0h-.28l-.3,0-.56-.14-.09-.06-.37.31-.17.15-.22.17-.47.35-.21.13-.36.23-.33.2-.69.38-.14.06-.16.08-.28.15-.27,0a.67.67,0,0,1-.59-.33l0-.09,0-.18a.35.35,0,0,1,.1-.26l.13-.1.09,0h.6a.91.91,0,0,0,.44-.12l.76-.4.27-.17.44-.29.29-.21.18-.19.15-.12.17-.18-.11-.21,0-.14,0-.14a.57.57,0,0,1,.32-.36l.24,0h.15l.21.1a.34.34,0,0,1,.21.22l0,.19.07.06.19.12.21.09h.27l.17,0,.15,0a.94.94,0,0,0,.36-.24l.1-.15.05-.13a.43.43,0,0,0-.06-.24l-.12-.13-.16-.1-.14-.09-.3-.14-.27-.2,0-.1,0-.14a.18.18,0,0,1,.09-.17l.26-.12h.47l.18-.08.16-.11.15-.09.16-.07Z"/><path class="cls-5" d="M347.17,158.89c0,.66-.43,1.22-1.29,1.67a1.87,1.87,0,0,1-.88.27c-.83,0-1.25-.36-1.25-1.07a1.77,1.77,0,0,1,.72-1.39,2.37,2.37,0,0,1,1.52-.59,1.32,1.32,0,0,1,.47.08.78.78,0,0,1,.37.22A1,1,0,0,1,347.17,158.89Zm-.78.12c0-.29-.21-.44-.62-.44a1.1,1.1,0,0,0-.78.37,1.06,1.06,0,0,0-.38.79c0,.19.12.28.37.28h.19a1.36,1.36,0,0,0,.77-.34C346.24,159.44,346.39,159.23,346.39,159Z"/><path class="cls-5" d="M344,162.75l.25,0a.56.56,0,0,1,.37.21l.09.16a.38.38,0,0,0,.23.11.38.38,0,0,0,.18-.07l.17-.15.12-.11.13-.11a.33.33,0,0,1,.12-.05.56.56,0,0,1,.2,0h.1l.09.05.16.08.07.05.06.07.09.21.07.19.06,0,.08,0a1,1,0,0,0,.39-.12l.16-.13.17-.17a.46.46,0,0,1,.07-.07l.11-.07.22-.12.19,0h.17a.14.14,0,0,1,.11.08l.1.12,0,.12a.59.59,0,0,1-.14.4l-.2.23a.52.52,0,0,1-.22.17l-.25.13-.3.13-.31.09-.53.1a1,1,0,0,1-.45-.11l-.17-.14-.18-.19h-.33a1.06,1.06,0,0,0-.27,0,.39.39,0,0,0-.17.09l-.36.34-.56.45-.56.42-.15.11-.21.14-.25.15-.79.44-.61.34-.24.11-.28.09-.25.06h-.26l-.17,0-.19-.07a.49.49,0,0,1-.24-.49.37.37,0,0,1,.23-.35l.17,0h.61a1.5,1.5,0,0,0,.53-.21l.55-.28.63-.33.57-.38.43-.34.11-.13a.42.42,0,0,0,0-.12l-.2-.39,0-.19v-.09a.13.13,0,0,1,0-.1l.1-.15A.76.76,0,0,1,344,162.75Z"/><path class="cls-5" d="M353.74,157.05a.7.7,0,0,1,.14-.08.29.29,0,0,1,.14,0c.25,0,.38.18.38.51a.27.27,0,0,1-.09.22c-.53.39-1.05.74-1.58,1.06-.24.14-.47.27-.7.38a7,7,0,0,1-.69.31l-.34.11a.32.32,0,0,1-.17-.06.67.67,0,0,1-.13-.17l0-.1v-.15s0-.06,0-.07a.34.34,0,0,1,.08-.19l.06-.08.11-.06a3.66,3.66,0,0,0,1.18-.54A9.67,9.67,0,0,0,353.74,157.05Zm.78,1.38a.48.48,0,0,1,.27-.09c.25,0,.38.16.38.5a.41.41,0,0,1,0,.12.32.32,0,0,1-.08.09,15.94,15.94,0,0,1-1.47,1,12.11,12.11,0,0,1-1.48.75l-.2.07-.15,0a.33.33,0,0,1-.3-.23l0-.14,0-.17a.28.28,0,0,1,.23-.27,8.81,8.81,0,0,0,1.18-.63l.38-.22.57-.35C354.1,158.73,354.33,158.58,354.52,158.43Z"/><path class="cls-5" d="M355,162.48h.14l.11,0a.49.49,0,0,1,.22.26l0,.24a.29.29,0,0,1-.12.27l-.46.2.22.22a.66.66,0,0,1,.22.5v.23s0,.05,0,.07a.13.13,0,0,1,0,.08,1.16,1.16,0,0,1-.61.81l-.34.18-.23.08-.28,0h-.29l-.29,0-.56-.14-.1-.06-.36.31-.18.15-.21.17-.48.35-.2.13-.36.23-.34.2-.68.38-.14.06-.16.08-.28.15-.28,0a.64.64,0,0,1-.58-.33l0-.09,0-.18a.34.34,0,0,1,.09-.26l.13-.1.1,0h.59a1,1,0,0,0,.45-.12l.76-.4.26-.17.44-.29.29-.21.18-.19.16-.12L352,165l-.11-.21,0-.14,0-.14c0-.14.13-.25.31-.36l.24,0h.16l.21.1a.4.4,0,0,1,.21.22l0,.19.06.06.2.12.21.09h.26l.18,0,.14,0a1.05,1.05,0,0,0,.37-.24l.09-.15.05-.13a.43.43,0,0,0-.06-.24l-.11-.13-.16-.1-.15-.09-.29-.14-.27-.2-.05-.1-.05-.14a.18.18,0,0,1,.1-.17l.25-.12h.48l.17-.08.16-.11.16-.09.16-.07Z"/><path class="cls-5" d="M387.55,225.63a.44.44,0,0,1,.24-.07c.15,0,.25.1.29.32V226c-.29.23-.56.43-.83.61a2.94,2.94,0,0,0-.59.47.58.58,0,0,0-.2.35.34.34,0,0,0,.39.3H387a.78.78,0,0,0,.66-.25.34.34,0,0,1,.29-.13c.2,0,.32.17.38.5s-.2.48-.59.55l-.25,0h-.38c-1.07,0-1.6-.31-1.6-.94a1.32,1.32,0,0,1,.54-.85l.35-.29.34-.24Zm3.43,0,.15,0,.15,0c.18,0,.29.1.34.33V226a.32.32,0,0,1-.12.26l-.87.48c-.58.33-.88.55-.88.67v.14c0,.18.22.28.64.28a.85.85,0,0,0,.59-.18l.18-.13.13-.06a.48.48,0,0,1,.29.14.35.35,0,0,1,.14.28.5.5,0,0,1-.22.38l-.2.1-.24.09-.38,0h-.49q-1.38,0-1.38-.81l0-.23a2.77,2.77,0,0,1,1-1.12A11,11,0,0,1,391,225.63Z"/><path class="cls-5" d="M388.13,230.37l.14,0a.35.35,0,0,1,.29.37.47.47,0,0,1-.1.19l-.2.15-.26.1.49.11.19.07.23.06c.35.05.53.2.53.46l-.07.12-.21.17-.13.11-.21.15-.72.41-.16.11a.16.16,0,0,0,0,.11l.82.17.64.13.23,0c.25,0,.37.1.37.32s-.07.41-.22.43h-.49l-.22,0-.34-.07-.39-.07-.18,0-.18,0-1.12-.3-.09,0-.06,0-.08,0-.15-.09s-.06-.07-.09-.17a.28.28,0,0,1,.09-.19l.15-.16.4-.28.45-.27.41-.27.27-.2-.42-.05-1.23-.18s-.07,0-.1-.07v-.2l.21-.16L387,231l.43-.29.38-.21A1.12,1.12,0,0,1,388.13,230.37Z"/><path class="cls-5" d="M393.19,230.34l.25,0a.52.52,0,0,1,.36.21l.1.16a.37.37,0,0,0,.22.12.5.5,0,0,0,.19-.07l.16-.16.13-.1.13-.11a.23.23,0,0,1,.12-.06.59.59,0,0,1,.2,0h.09l.1,0,.16.08.07.05.06.08.09.21.07.19.05,0,.09,0a1.07,1.07,0,0,0,.38-.11l.17-.13.17-.18.07-.06.11-.08.22-.12.19,0h.16a.11.11,0,0,1,.11.08l.11.12,0,.11a.58.58,0,0,1-.15.41l-.19.23a.61.61,0,0,1-.22.17l-.26.13-.3.12-.3.1-.54.1a.83.83,0,0,1-.44-.12l-.17-.14-.18-.18h-.34a.68.68,0,0,0-.26,0,.31.31,0,0,0-.17.09l-.37.34-.55.45-.56.42-.16.11-.2.13-.25.15-.79.45-.61.34-.25.1-.27.1-.25,0-.26,0-.17,0-.2-.08c-.16-.07-.23-.23-.23-.48a.38.38,0,0,1,.23-.36l.17,0h.61a1.47,1.47,0,0,0,.53-.2l.54-.28.63-.34.57-.38.44-.34.1-.12a.28.28,0,0,0,0-.13l-.2-.38,0-.19v-.1a.22.22,0,0,1,0-.1l.11-.14A.76.76,0,0,1,393.19,230.34Z"/><path class="cls-5" d="M404.44,225.15l.12,0,.11,0a.22.22,0,0,1,.09.15l.07.18,0,.15c0,.22-.09.34-.29.34a3.38,3.38,0,0,0-.55.1l-.23.09-.17.08-.18.09a.57.57,0,0,0-.14.11l-.17.17-.16.19a.37.37,0,0,0,.15.22l.23.09.22,0h.58l.23,0,.13,0a.34.34,0,0,1,.13.31.29.29,0,0,1-.22.31l-.31.07-.4,0h-.34l-.15,0-.43-.09a.79.79,0,0,1-.55-.31,1.46,1.46,0,0,1-.2-.7l-.09.12a.19.19,0,0,1-.14.11l-.11.11-.34.24-.52.33-.36.21-.31.19-.32.14-.29.11-.22.06h-.17c-.2,0-.29-.11-.29-.34l0-.22a.26.26,0,0,1,.17-.14l.23-.07.28-.1a3.56,3.56,0,0,0,1.15-.63l.23-.19.24-.23-.89,0-.23,0h-.14l-.12-.06a.4.4,0,0,1,.09-.75l.34,0h.85a1.07,1.07,0,0,1,.64.15.32.32,0,0,1,.14.19l.12.21.12.29.16-.14.09-.08.06,0a.41.41,0,0,0,.12-.07l.24-.21.37-.26.66-.43A1.21,1.21,0,0,1,404.44,225.15Z"/><path class="cls-5" d="M403.28,230.34l.18-.05h.07a.19.19,0,0,1,.11,0l.08.05.11.11,0,.19,0,.12a.3.3,0,0,1-.09.18l-.14.12-.42.32-.53.4-.53.34-.89.53-.36.18a4.18,4.18,0,0,1-.55.25l-.2.07-.24.07h-.28a.3.3,0,0,1-.19-.09.41.41,0,0,1-.17-.21v-.17a.56.56,0,0,1,.11-.28l.2-.22.14-.17.1-.13.06-.22V231a.78.78,0,0,1,.05-.28.12.12,0,0,1,.07-.07l.14-.08.24-.05h.19a.34.34,0,0,1,.2.12.4.4,0,0,1,.17.37l0,.12,0,.13-.12.28-.12.41-.09.28.17-.07.2-.13.3-.17.37-.22.7-.46.15-.12.24-.22.41-.31Z"/><path class="cls-5" d="M414.2,249.86h.34l.19,0c.11,0,.17.08.17.24l0,.18a.29.29,0,0,1-.1.23.59.59,0,0,1-.3.14l-.41,0H414l-.22.06-.38.11q-.18,0-.21.15l.11.17,0,.07.05.09.07.16a1.05,1.05,0,0,1,0,.3v.34a.69.69,0,0,1-.06.21l-.11.2-.06.09-.07.08-.1.1-.13.08-.38.18-.23.05h-1.86l-.23,0-.19-.09-.07,0-.15-.11a.65.65,0,0,1-.19-.46.31.31,0,0,1,.07-.2l.13-.15L410,252a1,1,0,0,1,.38-.11.29.29,0,0,1,.2.11l.11.15.19.13.21,0,.43,0H412a.68.68,0,0,0,.6-.23V252l0-.11a.62.62,0,0,0-.1-.22l-.13-.13-.12-.17-.18-.23,0-.28a.44.44,0,0,1,.06-.23l.17-.11.24-.13.23-.15.34-.15.41-.13A2.43,2.43,0,0,1,414.2,249.86Z"/><path class="cls-5" d="M414.78,244.87l.22-.09.24,0a.51.51,0,0,1,.35.09.28.28,0,0,1,.14.25.32.32,0,0,1-.12.28l-.09.07-.17.07-.3.14-.89.39c-.46.22-.7.5-.7.84a.38.38,0,0,0,.15.28l.1,0,.14,0,.3,0,.28,0,.11,0,.11-.05.14-.07.15-.05a.43.43,0,0,1,.24.05l.14.17a.67.67,0,0,1,0,.23c0,.23-.26.4-.66.51l-.25.07-.24,0-.36,0-.4-.11-.2-.07-.18-.12a1,1,0,0,1-.52-.9,1,1,0,0,1,.21-.57l.18-.24.27-.26.22-.16.28-.18.48-.3Z"/><path class="cls-5" d="M408.19,249.92h.19l.15,0h.28a.68.68,0,0,1,.31.06l.33.08c.4.09.6.26.6.53a.7.7,0,0,1-.12.36l-.14.21a2.06,2.06,0,0,1-.21.21l-.3.28-.36.29-.31.22-.46.32a14.45,14.45,0,0,1-1.39.77l-.58.28-.28.1-.34.11-.26,0-.18,0-.1,0-.16-.12-.09-.19,0-.08c0-.24.08-.38.23-.4l.26,0h.24l.25,0,.16-.05a.58.58,0,0,0,.18,0,1.07,1.07,0,0,0,.23-.1l.29-.15.48-.24a2,2,0,0,0,.23-.1l.38-.2.41-.23.25-.17.14-.11.21-.17a1.38,1.38,0,0,0,.27-.27L409,251l0,0a.11.11,0,0,0,0-.07l-.12,0-.11,0h-.26l-.21,0h-.13l-.44.07-.06,0-.13.06-.14,0-.1,0h-.16l-.16,0-.19,0a.4.4,0,0,1-.27-.34.57.57,0,0,1,.06-.29.7.7,0,0,1,.27-.19l.23-.08.24-.07Z"/><path class="cls-5" d="M410.58,245.48a.48.48,0,0,1,.27-.09c.25,0,.38.16.38.5l0,.12a.18.18,0,0,1-.07.09,14.17,14.17,0,0,1-1.47,1,12.87,12.87,0,0,1-1.48.75l-.2.07-.15,0a.33.33,0,0,1-.3-.24l0-.13,0-.18c0-.12.08-.21.24-.26a9.7,9.7,0,0,0,1.17-.63l.38-.22.57-.35C410.16,245.78,410.38,245.63,410.58,245.48Z"/><path class="cls-5" d="M400.78,249.92l.25,0a.52.52,0,0,1,.36.21l.1.16a.36.36,0,0,0,.23.11.38.38,0,0,0,.18-.07l.16-.15.13-.1.13-.12a.33.33,0,0,1,.12-.05.59.59,0,0,1,.2,0h.09l.1.05.16.08.07,0,.06.07.09.21.07.19.06,0,.08,0a1.07,1.07,0,0,0,.38-.11l.17-.14.17-.17.07-.07.11-.07.22-.12.19,0h.16a.13.13,0,0,1,.12.07l.1.13,0,.11a.64.64,0,0,1-.14.41l-.2.23a.52.52,0,0,1-.22.16l-.26.14-.3.12-.3.09-.53.11a.84.84,0,0,1-.45-.12l-.17-.14-.18-.18h-.34a1,1,0,0,0-.26,0,.32.32,0,0,0-.17.1l-.37.33-.55.45-.56.42a.74.74,0,0,1-.16.11l-.2.14-.25.15-.79.45-.61.33-.25.11-.27.1-.25.05-.26,0-.17,0-.2-.07a.5.5,0,0,1-.23-.49.37.37,0,0,1,.23-.35l.17,0h.61a1.57,1.57,0,0,0,.53-.21l.54-.27.63-.34.57-.38.44-.34.1-.13a.16.16,0,0,0,0-.12l-.2-.39,0-.18v-.1a.22.22,0,0,1,0-.1l.11-.15A.76.76,0,0,1,400.78,249.92Z"/><path class="cls-5" d="M404.06,245.48a.48.48,0,0,1,.27-.09c.25,0,.38.16.38.5l0,.12a.18.18,0,0,1-.07.09,14.17,14.17,0,0,1-1.47,1,12.87,12.87,0,0,1-1.48.75l-.2.07-.15,0c-.13,0-.23-.08-.31-.24l0-.13,0-.18c0-.12.09-.21.25-.26a9.7,9.7,0,0,0,1.17-.63l.38-.22.57-.35C403.64,245.78,403.86,245.63,404.06,245.48Z"/><path class="cls-5" d="M397.86,249.27l.15,0h.16a.37.37,0,0,1,.21.13s0,.06,0,.12v.12a.63.63,0,0,1-.36.42l-.2.11.09,0,.24.14a.74.74,0,0,1,.18.17.29.29,0,0,1,.06.19c0,.13-.09.27-.28.43l-.81.37.23.14.23.14a2,2,0,0,1,.05.25v.09a.24.24,0,0,1,0,.12l-.22.21-.46.35-.5.36-.4.29-1.07.72-.38.24-.34.18-.11,0-.17.09-.44.18a1.44,1.44,0,0,1-.54.16.46.46,0,0,1-.2-.05.33.33,0,0,1-.12-.06l-.09-.08a.34.34,0,0,1-.09-.14.87.87,0,0,1,0-.21c0-.21.16-.35.48-.43l.2,0,.16,0,.19-.06.17-.05a1.17,1.17,0,0,0,.21-.08l.28-.12.27-.16,1-.63.49-.33.68-.49-.39-.25a.44.44,0,0,1-.16-.33.3.3,0,0,1,0-.14.82.82,0,0,1,.19-.2l.31-.16.47-.23-.21-.13-.26-.16-.14-.09-.06-.06-.07-.13,0-.05,0-.08.05-.05.18-.14,0,0,.08,0a.92.92,0,0,0,.25-.09l.21-.09.2-.09.18-.13Z"/><path class="cls-5" d="M397.91,244.81h.41l.14,0a1.36,1.36,0,0,1,.76.18.59.59,0,0,1,.26.5,1.46,1.46,0,0,1-.48.85l-.3.32-.39.33a2.92,2.92,0,0,1-.83.5l-.68.28-.34.17h-.24s-.11-.05-.19-.15l-.06-.1-.05-.13a.41.41,0,0,1,.08-.25.62.62,0,0,1,.28-.19l.29-.09.34-.11a1.37,1.37,0,0,0,.36-.15,1.7,1.7,0,0,0,1.13-1.05l-.06-.05-.08,0-.26,0-.18,0-.2,0h-.21l-.11,0-.16.08-.12.07-.12.05h-.19a.37.37,0,0,1-.18-.08l-.12-.18,0-.15a.35.35,0,0,1,.16-.3,4.22,4.22,0,0,1,.65-.27A3.63,3.63,0,0,1,397.91,244.81Z"/><path class="cls-5" d="M393.57,249.84c.36,0,.54.1.54.31a.81.81,0,0,1-.21.52l-.19.2-.26.16-.25.1-.33.09-.46.05h-.29l-.43,0h-.25l-.09.12-.17.19-.34.35-.25.2-.27.19-.81.56-.47.3-.32.16-.24.13-.44.21-.23.08a1.41,1.41,0,0,1-.39.08l-.09,0-.14-.07-.1-.05-.13-.11a.38.38,0,0,1-.13-.19l0-.14,0-.16a.65.65,0,0,1,.16-.32s.06,0,.15-.07l.16,0h.1l.19,0,.21,0,.18,0,.21-.07.58-.26.31-.17.29-.16a5.64,5.64,0,0,0,.79-.58l.15-.16.06-.16-.08-.11a.36.36,0,0,1-.11-.21.86.86,0,0,1,.26-.6A.9.9,0,0,1,391,250a.79.79,0,0,1,.38.17c.16.1.24.21.24.31l.45,0a1.16,1.16,0,0,0,.46-.11,3.33,3.33,0,0,0,.58-.34l.13-.08.12-.08A.63.63,0,0,1,393.57,249.84Z"/><path class="cls-5" d="M393.85,255.81a.31.31,0,0,1,.31.2l0,.16v.11a.13.13,0,0,1-.05.11l-.13.16-.1.05-.18.09-.21.1-.36.34-.33.24-.58.37-.51.3-.29.17a3.49,3.49,0,0,1-.34.17l-.57.22-.21,0a.41.41,0,0,1-.3-.13.56.56,0,0,1-.12-.32l0-.16a.23.23,0,0,1,.07-.11l.08-.06.27-.14.58-.26.49-.24.34-.15.3-.18.59-.37.34-.22.3-.24.32-.19A.4.4,0,0,1,393.85,255.81Z"/><path class="cls-5" d="M404.44,309.67l.18-.05h.07a.3.3,0,0,1,.11,0l.08.05.11.12,0,.18,0,.12a.3.3,0,0,1-.09.18l-.14.12-.42.33-.53.39-.53.35-.89.53-.36.17a4.18,4.18,0,0,1-.55.25l-.2.07-.24.07h-.28a.34.34,0,0,1-.19-.08.43.43,0,0,1-.17-.22v-.16a.59.59,0,0,1,.12-.29l.2-.22.14-.16.09-.14.07-.22v-.8a1.11,1.11,0,0,1,0-.28.19.19,0,0,1,.08-.07l.14-.08.24-.05.19,0a.31.31,0,0,1,.2.11.4.4,0,0,1,.17.37l0,.12,0,.13-.13.28-.11.41-.1.28.18-.07.2-.13.29-.16.38-.23.7-.46.15-.12.24-.22.41-.31Z"/><path class="cls-5" d="M405.39,305.24a.43.43,0,0,1,.27-.1c.26,0,.38.17.38.51l0,.12a.23.23,0,0,1-.07.08,13.17,13.17,0,0,1-1.47,1,12.11,12.11,0,0,1-1.48.75l-.2.07-.15.05a.34.34,0,0,1-.3-.24l0-.13,0-.19c0-.12.08-.21.24-.26a9,9,0,0,0,1.17-.62l.38-.23c.2-.11.39-.23.57-.35S405.2,305.38,405.39,305.24Z"/><path class="cls-5" d="M395.59,309.67l.26,0a.54.54,0,0,1,.36.22l.1.16a.38.38,0,0,0,.22.11.41.41,0,0,0,.18-.07l.17-.16.12-.1.13-.11a.26.26,0,0,1,.13-.06l.19,0h.1l.1.05.15.07.08.05.05.08.09.21.07.19.06,0,.08,0a1,1,0,0,0,.39-.11l.17-.13L399,310l.08-.06.1-.08.23-.12.18,0h.17a.14.14,0,0,1,.11.08l.1.12,0,.11a.62.62,0,0,1-.14.41l-.2.23a.52.52,0,0,1-.22.17l-.25.13-.3.12-.3.1-.54.1a.89.89,0,0,1-.45-.12l-.16-.14-.19-.18h-.33a.68.68,0,0,0-.26,0,.38.38,0,0,0-.18.09l-.36.34-.56.45-.55.42-.16.11-.21.13-.24.15-.8.45-.61.34-.24.1-.28.1-.24.06h-.27l-.17,0-.19-.08a.47.47,0,0,1-.24-.48.39.39,0,0,1,.23-.36h.78a1.59,1.59,0,0,0,.54-.21l.54-.28.63-.33.57-.38.43-.35.11-.12a.5.5,0,0,0,0-.13l-.2-.38,0-.19v-.1s0-.08,0-.09l.1-.15A.76.76,0,0,1,395.59,309.67Z"/><path class="cls-5" d="M391.9,309.7l.13.05a.35.35,0,0,1,.3.37.57.57,0,0,1-.1.19l-.21.15-.26.1.5.12.19.06.23.06c.35.05.52.21.52.46l-.06.12-.22.17-.13.11-.21.16-.72.4-.15.11a.16.16,0,0,0,0,.11l.83.17.64.13.23,0c.25,0,.37.11.37.32s-.08.41-.22.43h-.5l-.22,0-.33-.07-.4-.07-.17,0-.19,0-1.11-.3-.09,0-.07,0-.08-.05-.15-.09s-.06-.07-.09-.16a.28.28,0,0,1,.09-.2l.15-.16.41-.28.44-.27.42-.27.27-.2-.42-.05-1.23-.18a.1.1,0,0,1-.1-.07v-.2l.2-.15.35-.27.42-.28.38-.22A1.52,1.52,0,0,1,391.9,309.7Z"/><path class="cls-5" d="M393.4,304.56h.41a.3.3,0,0,1,.14,0,1.36,1.36,0,0,1,.76.18.58.58,0,0,1,.26.49,1.43,1.43,0,0,1-.48.85l-.3.33-.39.32a4,4,0,0,1-.37.27,2.82,2.82,0,0,1-.46.23l-.68.29-.34.16-.24,0s-.11-.05-.19-.15l-.06-.11,0-.12a.39.39,0,0,1,.08-.25.63.63,0,0,1,.28-.2l.29-.08.34-.12a1.5,1.5,0,0,0,.36-.14,1.72,1.72,0,0,0,1.13-1.05l-.06-.05-.08,0-.26,0h-.59l-.11,0-.16.08-.12.07-.13.06h-.18a.3.3,0,0,1-.18-.08l-.12-.18,0-.14a.33.33,0,0,1,.16-.3,3.42,3.42,0,0,1,.65-.27A3,3,0,0,1,393.4,304.56Z"/><path class="cls-5" d="M388.32,309.76l.15-.1.15,0,.22,0a.2.2,0,0,1,.14.13l0,.17a.35.35,0,0,1,0,.2l-.19.17-.26.28-.17.13-.13.1-1,.64-1.06.6-.52.27-.5.21-.52.2a1.72,1.72,0,0,1-.51.09.81.81,0,0,1-.45-.15l-.15-.12a.19.19,0,0,1-.05-.09s0-.07,0-.11v-.12a.25.25,0,0,1,0-.1.47.47,0,0,1,.22-.24l.2-.08.19,0,.32,0h.11a1.92,1.92,0,0,0,.8-.2l.56-.28,1.27-.73.9-.58Z"/><path class="cls-5" d="M388.49,304.56h.41a.32.32,0,0,1,.14,0,1.34,1.34,0,0,1,.75.18.57.57,0,0,1,.27.49,1.43,1.43,0,0,1-.48.85l-.31.33-.38.32a3.12,3.12,0,0,1-.38.27,2.38,2.38,0,0,1-.45.23l-.69.29-.34.16-.24,0s-.1-.05-.18-.15l-.06-.11-.05-.12a.34.34,0,0,1,.08-.25.58.58,0,0,1,.28-.2l.29-.08.34-.12a1.5,1.5,0,0,0,.36-.14,1.72,1.72,0,0,0,1.13-1.05l-.06-.05-.08,0-.26,0H388l-.11,0-.16.08-.13.07-.12.06h-.18a.3.3,0,0,1-.18-.08l-.13-.18,0-.14a.31.31,0,0,1,.16-.3,3.42,3.42,0,0,1,.65-.27A3,3,0,0,1,388.49,304.56Z"/><path class="cls-5" d="M382.43,309.68a.71.71,0,0,1,.51.14.3.3,0,0,1,.1.21v.08l0,.08-.12.09-.09.06-.15.08a.41.41,0,0,0-.08.23.39.39,0,0,0,.16.35l.18.12.08,0,.13,0,.19,0a.38.38,0,0,0,.17-.12l.15-.12.17-.11.29-.06.12,0a.42.42,0,0,1,.19.17l0,.09,0,.13a.61.61,0,0,1-.13.23l-.19.14-.22.14-.27.2-.83.52-.92.55-.5.27-.42.22-.4.18-.49.21-.36.11c-.39,0-.58-.16-.58-.48a.68.68,0,0,1,.11-.32.32.32,0,0,1,.1-.14.19.19,0,0,1,.12,0l.15,0,.19,0,.21,0a3.19,3.19,0,0,0,.51-.22l.94-.47L382,312l.58-.39c0-.07,0-.11,0-.12h-.13l-.24-.07a.66.66,0,0,1-.32-.21l-.07-.1-.06-.16,0-.27v-.11a.17.17,0,0,1,0-.1l.12-.29a.94.94,0,0,1,.27-.37l.09-.08.12,0A.45.45,0,0,1,382.43,309.68Z"/><path class="cls-5" d="M384,304.56h.41a.28.28,0,0,1,.14,0,1.36,1.36,0,0,1,.76.18.57.57,0,0,1,.27.49,1.46,1.46,0,0,1-.49.85l-.3.33-.39.32a3,3,0,0,1-.37.27,2.82,2.82,0,0,1-.46.23l-.68.29-.34.16-.24,0s-.1-.05-.19-.15l-.05-.11-.06-.12a.39.39,0,0,1,.08-.25.63.63,0,0,1,.28-.2l.3-.08.34-.12a1.55,1.55,0,0,0,.35-.14,1.77,1.77,0,0,0,1.14-1.05l-.07-.05-.07,0-.26,0h-.6l-.11,0-.16.08-.12.07-.12.06h-.18a.3.3,0,0,1-.19-.08l-.12-.18,0-.14a.32.32,0,0,1,.15-.3,3.51,3.51,0,0,1,.66-.27A3,3,0,0,1,384,304.56Z"/><path class="cls-5" d="M379.9,309.4H380l.11,0a.5.5,0,0,1,.23.26l0,.24a.31.31,0,0,1-.11.27l-.46.19.22.23a.7.7,0,0,1,.22.5v.22s0,.06,0,.08a.16.16,0,0,1,0,.08,1.17,1.17,0,0,1-.62.81l-.33.18-.23.07-.29,0h-.28l-.3,0-.56-.13-.09-.06-.37.3-.17.16-.22.17-.47.34-.21.13-.36.23-.34.2-.68.38-.14.06-.16.08-.28.15-.27.05a.64.64,0,0,1-.59-.34l0-.08,0-.19a.29.29,0,0,1,.1-.25l.12-.1.1-.06h.6a1.06,1.06,0,0,0,.44-.11l.76-.41.27-.16.44-.29.28-.21.19-.19.15-.12.17-.18-.11-.22,0-.13,0-.14a.53.53,0,0,1,.31-.36l.24-.05h.16l.21.1a.35.35,0,0,1,.21.22l0,.19.07.05.19.13.21.09h.27l.17,0,.15-.06a.81.81,0,0,0,.36-.23l.1-.15,0-.13a.41.41,0,0,0-.07-.25l-.11-.12-.16-.1-.14-.1-.3-.14-.27-.19-.05-.11,0-.14a.16.16,0,0,1,.09-.16l.26-.12h.22l.25,0,.18-.08.16-.11.15-.09.16-.07Z"/><path class="cls-5" d="M376.41,304.61h.19l.13,0,.41.07.42.12.29.13a.66.66,0,0,1,.39.55l0,.2-.1.18-.12.16-.29.25-1,.68-.94.49-.4.18-.35.07a.41.41,0,0,1-.27-.12l-.08-.13,0-.17,0-.17a.41.41,0,0,1,.14-.15l.33-.16.62-.27.8-.41.33-.18.25-.17.05-.11c0-.15-.21-.23-.62-.23l-.42,0-.49.16c-.35,0-.52-.14-.52-.43a.31.31,0,0,1,.08-.24.66.66,0,0,1,.27-.17l.49-.17Zm3.51,0a2.65,2.65,0,0,1,.68.11.65.65,0,0,1,.21.06l.14.07.3.2a.61.61,0,0,1,.28.54l0,.11-.07.13-.16.18-.15.17-.14.17-.21.17-.56.45-.56.37-.49.29-.21.06-.24,0h-.18a.28.28,0,0,1-.15-.08l-.08-.16a.37.37,0,0,0,0-.12.26.26,0,0,1,.1-.19l.17-.09.23-.11.34-.16.59-.33.45-.35.24-.21a.46.46,0,0,0,.09-.2.21.21,0,0,0-.15-.22l-.35,0h-.22l-.16,0-.18.08-.14,0-.12,0-.3,0-.13-.06-.05,0-.07-.06a.81.81,0,0,1-.06-.2v-.12a.5.5,0,0,1,.08-.12l.22-.16.16-.07.15,0a1.61,1.61,0,0,1,.36-.1l.26,0Z"/><path class="cls-5" d="M325.87,40.59h5.59c3.62,0,4.32,2.35,4.32,3.93s-.7,3.9-4.32,3.89h-3.37v4.86h-2.22Zm2.22,6h3.25a2,2,0,0,0,2.22-2.1c0-1.67-1-2.1-2.19-2.1h-3.28Z"/><path class="cls-5" d="M345.54,53.27h-8.49a5.56,5.56,0,0,1,2.74-4.7c1.61-1.18,3.71-2.15,3.75-4.09a2,2,0,0,0-2.1-2.2c-1.6,0-2.08,1.37-2.13,3.11h-2c0-2.75,1.5-4.8,4.27-4.8a3.7,3.7,0,0,1,4,3.82c0,2-1.35,3.2-2.77,4.19s-3,1.76-3.3,2.86h6.05Z"/><path class="cls-5" d="M259.57,114.18h5.6c3.62,0,4.32,2.34,4.32,3.92s-.7,3.91-4.32,3.89h-3.38v4.87h-2.22Zm2.22,6H265a2,2,0,0,0,2.23-2.1c0-1.67-1-2.09-2.19-2.09h-3.29Z"/><path class="cls-5" d="M274.12,119.58c1.35,0,2.75-.43,2.75-2a1.78,1.78,0,0,0-1.94-1.76,2.21,2.21,0,0,0-2.05,2.54h-2c.11-2.41,1.62-4.22,4.12-4.22,1.94,0,3.93,1.12,3.93,3.32a2.62,2.62,0,0,1-1.76,2.66v0a2.92,2.92,0,0,1,2.25,3.1c0,2.35-2,3.81-4.4,3.81-2.88,0-4.32-1.74-4.37-4.34h2a2.3,2.3,0,0,0,2.35,2.65,2.17,2.17,0,0,0,2.38-2.22c0-1.94-1.65-2.19-3.25-2.12Z"/><path class="cls-5" d="M255.58,170.19h5.59c3.63,0,4.32,2.34,4.32,3.92s-.69,3.91-4.32,3.89H257.8v4.87h-2.22Zm2.22,6h3.25a2,2,0,0,0,2.22-2.1c0-1.66-1-2.09-2.19-2.09H257.8Z"/><path class="cls-5" d="M275.34,179.92h-1.6v3h-1.91v-3H266.5v-2l5.33-7.48h1.91v7.88h1.6Zm-7.28-1.6h3.77v-5.47h0Z"/><path class="cls-5" d="M377.49,183.23h5.6c3.62,0,4.31,2.35,4.31,3.93s-.69,3.91-4.31,3.89h-3.38v4.86h-2.22Zm2.22,6H383a2,2,0,0,0,2.22-2.1c0-1.67-1-2.1-2.18-2.1h-3.29Z"/><path class="cls-5" d="M390.17,183.48h6.43v1.81h-4.92l-.64,3.16,0,0a3.19,3.19,0,0,1,2.29-.94c2.47,0,3.89,1.78,3.89,4.16a4.23,4.23,0,0,1-4.3,4.45c-2.4,0-4.26-1.29-4.35-3.78h2a2.14,2.14,0,0,0,2.29,2.1c1.73,0,2.31-1.23,2.31-2.74a2.32,2.32,0,0,0-2.36-2.59,1.93,1.93,0,0,0-2,1.13h-2Z"/><path class="cls-5" d="M405.85,271.22h5.6c3.62,0,4.32,2.34,4.32,3.92s-.7,3.91-4.32,3.89h-3.38v4.87h-2.22Zm2.22,6h3.25a2,2,0,0,0,2.23-2.09c0-1.67-1-2.1-2.19-2.1h-3.29Z"/><path class="cls-5" d="M423.36,274.61a1.74,1.74,0,0,0-1.81-1.7c-2.2,0-2.45,2.63-2.57,4.26l0,0a3,3,0,0,1,2.68-1.48,3.83,3.83,0,0,1,3.93,4.17,4,4,0,0,1-4.14,4.25c-3.66,0-4.53-2.88-4.53-6.5,0-3,1.17-6.43,4.69-6.43a3.62,3.62,0,0,1,3.75,3.39Zm.24,5.26a2.24,2.24,0,1,0-4.43,0,2.24,2.24,0,1,0,4.43,0Z"/><path class="cls-5" d="M148.17,64.18h5.59c3.62,0,4.31,2.35,4.31,3.93S157.38,72,153.76,72h-3.37v4.87h-2.22Zm2.22,6h3.24a2,2,0,0,0,2.22-2.1c0-1.67-1-2.09-2.18-2.09h-3.28Z"/><path class="cls-5" d="M159.6,66.49c1.71,0,3.32-.56,3.62-2.06h1.66V76.87h-2.22V68.09H159.6Z"/></g><g id="Lines"><line class="cls-3" x1="0.13" y1="148.13" x2="477.45" y2="371.26"/><polyline class="cls-3" points="174.26 9.85 256.3 74.72 132.97 113.87"/><line class="cls-3" x1="256.3" y1="74.72" x2="361.39" y2="124.59"/><line class="cls-3" x1="100.81" y1="129.9" x2="357.1" y2="141.21"/><line class="cls-3" x1="348.53" y1="144.97" x2="198.24" y2="243.66"/><line class="cls-3" x1="199.96" y1="242.53" x2="427.35" y2="213.06"/></g></g></g></svg>