<svg xmlns="http://www.w3.org/2000/svg" viewBox="0 0 300.92 186.12"><defs><style>.cls-1{fill:#383838;}.cls-2{fill:#f1f2f2;}.cls-3{fill:#396287;fill-rule:evenodd;}.cls-4{fill:none;stroke:#1a1a18;stroke-miterlimit:22.93;stroke-width:0.4px;stroke-dasharray:3.6 1.8;}</style></defs><title>GDH</title><g id="Layer_2" data-name="Layer 2"><g id="Layer_1-2" data-name="Layer 1"><g id="Q1"><path class="cls-1" d="M95.32,50a1.33,1.33,0,0,1-2.65,0,1.33,1.33,0,1,1,2.65,0"/><path class="cls-2" d="M63.63,62.44c0-.36.07-.72.13-1.08-.56-1.24-1.37-1.79-2.46-1.59a2.2,2.2,0,0,0-1.38,1.08c-.06.09-.13.18-.18.27a5.36,5.36,0,0,1,.14-.54c-.79-1.4-1-3.19,0-5.8a1.18,1.18,0,0,0,1.23.92,4.4,4.4,0,0,0,2.74-.56c1-1.51,1.93-2.72,2.68-3.87.38-.81-.3-1.37-.68-.89-.38.74-.8,1.16-1.17,1.92-.54.19-.53,0-.49-.38A30.09,30.09,0,0,1,66.85,47c.82-.92,1.54-1.7,2.35-2.62a35.36,35.36,0,0,1,3-3.56h0l.16-.24.11-.13h0c.45-.63.61-.7,1.07-1.33.64-.47.93-.07,1.09-.21.64-.15.92-.46.53-1.25a2.17,2.17,0,0,0-.69-1.1A2.14,2.14,0,0,0,74,36.4a7,7,0,0,1,1.33-1.6l1.05.49A2,2,0,0,0,79,36.51L130.5,60.84Z"/><path class="cls-3" d="M63.76,61.36c-.06.36-.09.72-.13,1.08l-4.7.11a8.64,8.64,0,0,1,1-1.7,2.2,2.2,0,0,1,1.38-1.08C62.39,59.57,63.2,60.12,63.76,61.36Z"/><path class="cls-3" d="M61.29,56.7A3,3,0,0,1,62.52,56c1.08-.28,1.4.19,1.52.77a2.85,2.85,0,0,1-1.4,2.06c-.7.4-1.85-.08-1.84-.44a2.44,2.44,0,0,1,.49-1.65"/><path class="cls-3" d="M61.63,48a11.11,11.11,0,0,0-1.85,5.92c0,1.34.5,1.78,1.3,1.81a4.53,4.53,0,0,0,2.74-.55c1-1.53,1.94-2.72,2.68-3.89.39-.8-.29-1.36-.68-.88-.37.74-.79,1.16-1.16,1.91-.55.21-.52,0-.49-.37A30.6,30.6,0,0,1,66.85,47l2.34-2.61a35.45,35.45,0,0,1,3-3.57h0l.17-.24.1-.13h0c.45-.63.6-.7,1-1.32.66-.47.94-.08,1.11-.22.62-.15.91-.46.52-1.24a2.26,2.26,0,0,0-.69-1.11,1.72,1.72,0,0,0-1.76.07c-1.18.58-2.33,2.08-3.51,3.68.17.14-6.52,6.38-7.61,7.64"/><path class="cls-3" d="M113,58.2c.73-.4,1.84,1,1.12,1.56a1.14,1.14,0,0,1-1.3.25c-.23,0-.72-.65-.73-1.09s.19-.31.91-.72"/><path class="cls-3" d="M92.8,57.51c.52-.3,1.36.56,1,1.1s-1,.38-1.28.33-.41-.6-.42-.92.13-.22.65-.51"/><path class="cls-3" d="M88.83,54.27c.28-.16.32.68.15,1s-.45.23-.65.22-.31-.49-.25-.68.46-.36.75-.52"/><path class="cls-3" d="M94.57,50.29c-.76.48-.72-1.93-.15-2.6s.75-.65,1.21-.63.75.53.14,1.36-.44,1.39-1.2,1.87"/><path class="cls-3" d="M76.42,54.12c.39-.23,1.32.44,1.15,1s-1.15.24-1.33.06a.71.71,0,0,1-.27-.56c0-.24,0-.3.45-.51"/><path class="cls-3" d="M60.76,61.2c.09-.23,0-.36-.29-.51a.7.7,0,0,0-.9.37c-.13.29,0,.48.19.75s.6.33.68,0-.1-.31-.23-.45,0-.24.16-.18a.28.28,0,0,0,.39,0"/><path class="cls-3" d="M61.67,50.3c.7.12.83.2.84.45s-.37.47-.83.48-.69-.13-.83-.45.12-.58.82-.48"/><path class="cls-3" d="M60.72,52.27c-.1-.56.13-.78.7-.68l.65.52c.7-.1,1.3-.09,1.25.58.35,1.27-1.14.87-.68,2.6a3.57,3.57,0,0,1-2,.06c-.12-.46-.35-.75-.19-1.31a2.5,2.5,0,0,1,.8-.9c.08-.56-.16-.79-.55-.87"/><path class="cls-3" d="M61,56.45c.33,0,.5.37.51.79s.13.65-.38.73-.93-.18-.65-.79.18-.76.52-.73"/></g><g id="Q5"><path class="cls-2" d="M208.14,129.46a1.33,1.33,0,1,1-1.33-1.32,1.33,1.33,0,0,1,1.33,1.32"/><path class="cls-4" d="M208.14,129.46a1.33,1.33,0,1,1-1.33-1.32A1.33,1.33,0,0,1,208.14,129.46Z"/><path class="cls-2" d="M197.13,143a1.33,1.33,0,1,1-1.32-1.32,1.32,1.32,0,0,1,1.32,1.32"/><path class="cls-4" d="M197.13,143a1.33,1.33,0,1,1-1.32-1.32A1.32,1.32,0,0,1,197.13,143Z"/><path class="cls-2" d="M216.05,119.57a1.33,1.33,0,1,1-1.32-1.33,1.32,1.32,0,0,1,1.32,1.33"/><path class="cls-4" d="M216.05,119.57a1.33,1.33,0,1,1-1.32-1.33A1.32,1.32,0,0,1,216.05,119.57Z"/><path class="cls-2" d="M247.91,116.24a9.92,9.92,0,0,1-3.72,1.35,5.84,5.84,0,0,1-.5.4c.54-.92.38-1.22-1.19-1.19s-3.21-.45-6,1.17c-1.37.44-1.53,1.21-3.73.81-2.72,0-4.47,3.27-6,6.87a25.78,25.78,0,0,1-4.81,6.45c-1.12.92-1.8,2.18-2.92,3.1a1.08,1.08,0,0,0,0,1.57h-.69l-1.12.82a4.22,4.22,0,0,1,.62-.47c.32-.38.32-1-1-1l-5.44,3.14c-.65,0-1.1.43-1.77.43-1.1.14-1.33,2.5-.31,3.77h0a38.59,38.59,0,0,1-10.2-.91.13.13,0,0,0-.09,0,53.54,53.54,0,0,1,1.06-5.44,7.48,7.48,0,0,0-2-4.07c-.83-.54-1.67-.11-1.67,1.1.18,1.29.38,2.9.47,4.54-.91,1.24-1.73,2.32-3.55,2.39a3.78,3.78,0,0,0-1.64-.21l-8.26-55.09Z"/><path class="cls-3" d="M200,137.11c-.68,1.87-1,6.68-1.57,6.54-.23.07-.29.38-1.31,0-.56-.11-1.46,1.64-2.38,2.28a6.78,6.78,0,0,1-2.45-.36l-.7-4.75a3.66,3.66,0,0,1,1.62.21c1.84-.07,2.66-1.15,3.57-2.39-.09-1.64-.29-3.25-.47-4.54,0-1.21.84-1.64,1.67-1.1A7.42,7.42,0,0,1,200,137.11Z"/><path class="cls-3" d="M207.33,129c.91-.31,1.44-.27,1.66.22-.08,2-1.33,3.79-2.72,6-.66.34-1.58.3-1.56-.92.07-.88,1-4.09,2.62-5.27"/><path class="cls-3" d="M216.79,136.09c1.34,0,1.33.66,1,1-2.78,1.89-5.27,7.11-5.72,7.25-.49.82,0-1.4-2.46-.62-1.41-1.08-1.25-3.94,0-4.11.65,0,1.1-.44,1.76-.43Z"/><path class="cls-3" d="M243.48,118.31c.77-1.17.76-1.54-1-1.52s-3.21-.44-6,1.18c-1.36.43-1.52,1.2-3.72.81-2.72,0-4.47,3.26-6,6.88a26.26,26.26,0,0,1-4.82,6.44c-1.12.92-1.8,2.19-2.91,3.11-.81.74-.31,2.29,1.83,1.94a9.19,9.19,0,0,0,4.86-2.32c2.17-4,4.69-7.58,8.12-10,1.91-1.46,7-3.22,9.64-6.56"/><path class="cls-3" d="M193.75,108.4a.89.89,0,0,0,0-1c-.26-.27-.59-.27-1.06-.19a1.91,1.91,0,0,0-.71.76c-.15.66.25.85.51,1a1.15,1.15,0,0,0,1.26-.61"/><path class="cls-3" d="M190.62,98c0-.34.44-.64.25-1-.33-.73-.83-.78-1.27-.44-.6.2-.35.67-.49,1,.11.37.35.59.46,1,.36.45.44.33,1.05-.55"/><path class="cls-3" d="M198.26,108.38a.69.69,0,0,0,0-1,1.32,1.32,0,0,0-1-.38,3.34,3.34,0,0,0-.85,1,.58.58,0,0,0,.52.92,1.91,1.91,0,0,0,1.37-.51"/><path class="cls-3" d="M203.61,117.12c.26-.25.32-.45-.09-.74a1.13,1.13,0,0,1-1-.53c0-.49.84-.62,1.19-.75s.1-.68-.09-.76a6.1,6.1,0,0,0-2.3-.71c-.86-.09-1.05.36-1.29.75-.27.64-.42,1.28-.08,1.7a3.37,3.37,0,0,0,1.76,1,5.14,5.14,0,0,0,1.88,0"/><path class="cls-3" d="M196.31,122c-.24-1.5,1.19-2.6.56-2.94a8.46,8.46,0,0,0-.67-1.14.6.6,0,0,0-.88.18,10.44,10.44,0,0,0-.72,2.32,1.92,1.92,0,0,0,.68,1.44c.39.6.74.65,1,.14"/><path class="cls-3" d="M195,122.83a2,2,0,0,0-.24-.71c-.31-.08-.58-.18-.8.08a.7.7,0,0,0,.06.72c.2.31.53.28,1-.09"/><path class="cls-3" d="M195.07,125.19c-.12-.72-.17-1.07-1-1.35-.5-.12-.8.15-1,.87-.58.58-.58,1-.39,1.39a1.6,1.6,0,0,0,1.07.75,1.58,1.58,0,0,0,1.33-1.66"/><path class="cls-3" d="M193.16,133.8a6.31,6.31,0,0,0,2.12-.77c.15-.28.24-.54,0-.82a2.52,2.52,0,0,0-1.53-.12,4.3,4.3,0,0,0-1.75,1c-.3.32-.29.83.5.84l.7-.11"/><path class="cls-3" d="M211.57,120.13c.41,0,.93.31.94.71s-.4.55-.81.56a.76.76,0,0,1-.8-.68c0-.39.27-.58.67-.59"/><path class="cls-3" d="M221.27,125.45c.28,0,.62.21.62.48s-.24.4-.51.41a.46.46,0,0,1-.48-.47c0-.26.1-.42.37-.42"/><path class="cls-3" d="M224.92,118.85c.34,0,.82.26.83.61s-.58.63-.94.64-.55-.37-.56-.72.32-.52.67-.53"/><path class="cls-3" d="M218.46,126.25c.19,0,.1.28.1.47s-.32.51-.51.52-.18-.32-.18-.5.4-.49.59-.49"/><path class="cls-3" d="M214.63,118.44c.3,0,.43.45.34.74a1.65,1.65,0,0,1-1.11.74c-.33,0-.24-.45-.15-.71a1.7,1.7,0,0,1,.92-.77"/><path class="cls-3" d="M203,131.08c.35,0,.48.41.49.77a.63.63,0,0,1-.57.68c-.35,0-.65-.51-.66-.87s.38-.58.74-.58"/><path class="cls-3" d="M205.55,128.13a.81.81,0,0,1,.8.78.92.92,0,0,1-.78.94c-.43,0-1-.34-1-.78a1.06,1.06,0,0,1,.94-.94"/><path class="cls-3" d="M206.66,130.07c0-.24.28-.45.43-.33a1.11,1.11,0,0,1,.15,1c-.11.49-.39.55-.42.27s-.17-.73-.16-1"/><path class="cls-3" d="M203.37,101.85c.34,0,.55,0,.68.54a.63.63,0,0,1-1.08.55c-.51-.47-.39-.55-.29-.8s.36-.3.69-.29"/><path class="cls-3" d="M209.84,109.85c.33,0,.55-.07.68.45a.69.69,0,0,1-1.13.63c-.51-.48-.34-.63-.24-.88s.35-.21.69-.2"/><path class="cls-3" d="M190.23,97c.24,0,.67.22.67.48s.06.47-.17.47-.7-.32-.71-.58,0-.37.21-.37"/><path class="cls-3" d="M196.84,143c.53-.27.69,0,.56.43s-.24.51-.54.52a.55.55,0,0,1-.56-.5c0-.24,0-.19.54-.45"/><path class="cls-3" d="M205.53,113.73c.61.18.78.4.78.63a.82.82,0,0,1-.76.65c-.45,0-.58-.11-.79-.63s.15-.84.77-.65"/><path class="cls-3" d="M217.3,136.68c.57-.28.68-.82-.34-.66a5.83,5.83,0,0,1-3.23.2c-3.37.35-3.58,2.76-3.92,4.84.09.74.2,1.32.28,2.06.17.47.43.83.86.73a37,37,0,0,1,4.09-5.37,6.32,6.32,0,0,1,2.26-1.8"/><path class="cls-3" d="M242.43,116.51c.7-.11,1,.19.57.62-1.31,1.31-3.34,2-4.43,3-.34.46-.66.93-1,1.39-.44.7-.88-.37-.71-1,.47-.5.66-.59,1.13-1.09,0-.2-.06-.41-.3-.36a.79.79,0,0,1-.47.33c-.23,0-.37-.09-.26-.44a41.83,41.83,0,0,1,5.47-2.5"/><path class="cls-3" d="M236.19,119.35c.44,0,.62.09.4.33-.06.44-.09.64-.7.95-.29,0-1,0-1.09-.54.31-.45.56-.56,1.39-.74"/><path class="cls-3" d="M236.16,121.45a1.65,1.65,0,0,0-1.35-.5c-.49.11-.37.69-.17,1a7.61,7.61,0,0,1,1.15.42.83.83,0,0,0,.37-1"/><path class="cls-3" d="M233.51,120.42c.33-.14.61-.22.59.08a3.23,3.23,0,0,0,.1,1.71c0,.27-.07.32-.22.15a1.69,1.69,0,0,1-.45-1,1.59,1.59,0,0,1,0-1"/><path class="cls-3" d="M227.44,126.7c.28,0,.42.09.38.33a24.18,24.18,0,0,0-1.79,2.72c-.32.05-.64,0-.47-.54a15.65,15.65,0,0,1,1.88-2.51"/><path class="cls-3" d="M229.88,125.34c.32-.33.51-.19.55.32s-.22.7-.7,1c-.45.09-.61.07-.48-.33s.36-.59.63-1"/><path class="cls-3" d="M233.34,122.22c.25,0,.47.1.54.36a.64.64,0,0,1-.31.75,1.5,1.5,0,0,1-.89,0c-.13-.15-.29-.25-.14-.5a2.37,2.37,0,0,1,.8-.6"/><path class="cls-3" d="M231.3,125.63a.4.4,0,0,1,.33.38.34.34,0,0,1-.34.3.28.28,0,0,1-.3-.28c0-.16.13-.39.31-.4"/><path class="cls-3" d="M231.64,123.43c.6.07.71.3.74.79a.72.72,0,0,1-.73.86c-.51,0-.76-.23-.74-.79s.13-.93.73-.86"/><path class="cls-3" d="M222.08,134.11c.26-.37-.14-.75-.35-.52s-.31.64-.87.74c-.57-.32-1.43.87-1.35,1.38s.27.44.47.51a8.75,8.75,0,0,0,2.1-2.11"/><path class="cls-3" d="M223.09,132.85c.26,0,.48,0,.48.13s-.21.3-.48.41-.48,0-.48-.22.21-.32.48-.32"/><path class="cls-3" d="M226.64,130.64c.08.07,0,.25-.11.46s-.3.43-.36.4,0-.18.15-.51.25-.42.32-.35"/></g><g id="Q4"><path class="cls-2" d="M166.92,147.72a1.33,1.33,0,1,1-1.33-1.32,1.32,1.32,0,0,1,1.33,1.32"/><path class="cls-4" d="M166.92,147.72a1.33,1.33,0,1,1-1.33-1.32A1.32,1.32,0,0,1,166.92,147.72Z"/><path class="cls-1" d="M187.22,138a1.33,1.33,0,1,1-1.32-1.32,1.32,1.32,0,0,1,1.32,1.32"/><path class="cls-2" d="M191.71,145.38l-5.59,1.35-.29.06a4.49,4.49,0,0,0,.33-1.72,3.73,3.73,0,0,0-1.28-2.74c-1.34-.93-2.36-1.47-3.91-.91-2.54,1.44-3.25,1.31-4.58-.27a1.63,1.63,0,0,0-2.74.61c-.14.7.67,1.12.29,1.75s-.63,1.28-.32,3.2a9.39,9.39,0,0,0,1.15,1.82l.07.08c-2.14,5.87-5.24,10.52-13.17,7.27.16-1.36-.2-2.19-1.6-2-1.61-.27-3.3.38-5,1.32a29.72,29.72,0,0,1-9.71,9.08c-.74.23-1.34.83-1.34,1.21a3.05,3.05,0,0,0,1.68,2.72.55.55,0,0,0,.18,0,10.56,10.56,0,0,1-5.35,2.48,3,3,0,0,0,.14-.9,15.55,15.55,0,0,0,1.95-.25c1-.9,1.24-1.79,0-2.65-1.06-.86-2.65-.77-4.45-.27-2-.09-2.36-.07-3.66-1-.16-.81-.9-1.47-2.39-2-1.26-.5-2.43-1.1-3.7-1.6a9,9,0,0,1-2.66-2.2c-.11-.79-1-1.08-2-1.12-2.51-.07-4.56.15-4.78-.18-.29-.7-.75-.63-1.58-1.21s-1.43,0-2.08.65a2.69,2.69,0,0,0,.13,3.77,1.87,1.87,0,0,1,.27.31,4.32,4.32,0,0,0-.63-.24l-2.61-1.26h0c.29-2.34,1.44-3.8.49-4.87-.6-.3-.94-1.08-1.54-1.38-1.42-1.37-2.59-2.45-3.94-3.71l75.1-65.25.88.41,8.26,55.09-.85.11c-1.48.91-1.21,2.34-.58,3.49A9.78,9.78,0,0,0,191.71,145.38Z"/><path class="cls-3" d="M118.9,158.54c-.3-.69-.77-.62-1.59-1.2s-1.43,0-2.07.65a2.69,2.69,0,0,0,.12,3.77c2,2-.09,1.8.59,2.8,0,1.15,1.08.89,2.09.81s1.29-.92,2.75-.88a8.55,8.55,0,0,1,2.83,1.47,66.08,66.08,0,0,0,9,6.35c1.33.83,2.13.68,5.92.75a3.91,3.91,0,0,0,2-3.23,13,13,0,0,0,2-.26c1-.9,1.24-1.78,0-2.65-1.08-.85-2.65-.77-4.45-.26-2-.09-2.37-.08-3.67-1-.16-.82-.89-1.49-2.39-2-1.27-.51-2.43-1.1-3.69-1.61a8.82,8.82,0,0,1-2.67-2.18c-.12-.81-1-1.1-2-1.13-2.52-.07-4.56.14-4.77-.19"/><path class="cls-3" d="M124,159.88c-3.53-.18-5.73-.36-6.59-.52-1.17-.4-1.41-.07-1.51.36a6.13,6.13,0,0,0,.27,2.81c.4,0,.54-.05,1,0,.58-.51,1.43-.92,2-1.43.34-.31.68-.2,1-.19,1.65.94,4.73,1.21,8.86,4.3,1,.65,1.93.5,1.13-.73-1.15-.79-2.18-1.58-3.33-2.36a11.14,11.14,0,0,0-2.79-2.22"/><path class="cls-3" d="M161.57,156.47c.34-1.73.08-2.82-1.5-2.57-1.6-.28-3.31.38-5,1.31a29.65,29.65,0,0,1-9.71,9.09c-.74.24-1.34.83-1.33,1.2-.1,1.29.72,2.05,1.67,2.73a7.92,7.92,0,0,0,4-1c3.84-2.13,9.53-5,11.19-8.54.23-.76.47-1.51.7-2.26"/><path class="cls-3" d="M169,137.4c1-1.14,2.41-.62,2.37.3-1.72,3.33-3.49,6.76-4.16,8.39-.79,3.79-1.64,3-2.49,2.51-1.89-.9-3.9-1.69-5.94-2.44-.66-1.14-.48-1.83.53-2.09,2.05.27,5.73.87,6,.25A41.44,41.44,0,0,0,169,137.4"/><path class="cls-3" d="M174.78,148.54a9.16,9.16,0,0,1-1.16-1.83c-.31-1.93-.05-2.51.32-3.2s-.43-1-.29-1.75a1.64,1.64,0,0,1,2.74-.62c1.34,1.58,2,1.72,4.58.28,1.55-.57,2.57,0,3.91.91a3.69,3.69,0,0,1,1.27,2.75,6.4,6.4,0,0,1-1.79,4.08,4.11,4.11,0,0,1-2.24.71c-.83-.27-1.59-.32-2.42-.59a4.33,4.33,0,0,0-2.38.45c-.73.07-1.29.09-2.54-1.19"/><path class="cls-3" d="M192.32,145.61a8,8,0,0,1-2.13-1.15c-.63-1.15-.9-2.58.58-3.49l.85-.11Z"/><path class="cls-3" d="M174.5,127.35c.65-.16,1.08.2.9.82-.76.86-1.86,1.64-2.29,2.74a1.09,1.09,0,0,1-.43,1.22c-.59.19-1.12-.5-1.64-1,0-.29-.14-.43.41-.74.39,0,.78-.37,1.18-.17.42-.63,1-1,1.37-1.65-.24-1.1.23-1,.5-1.22"/><path class="cls-3" d="M175.59,132.69c.94-.48,1.66-.37,1.51.78a9.68,9.68,0,0,1-.92,2.11c-.57.47-.83-.1-1.16-.74,0-.43-.09-.38-.05-.8a1.91,1.91,0,0,1,.62-1.35"/><path class="cls-3" d="M168.4,133.88c.45,0,.87.35.87.67s-.44.66-.87.67a.57.57,0,0,1-.65-.58.72.72,0,0,1,.65-.76"/><path class="cls-3" d="M151.91,121.34a.85.85,0,0,1,.87.67c0,.32-.44.66-.88.66a.55.55,0,0,1-.64-.58.69.69,0,0,1,.65-.75"/><path class="cls-3" d="M177.12,128.3a1,1,0,0,1,.84.84c0,.32-.35.4-.79.4s-.7-.15-.7-.48a.71.71,0,0,1,.65-.76"/><path class="cls-3" d="M177.08,125.56a1,1,0,0,1,.84.84c0,.32-.35.4-.79.4s-.7-.15-.7-.49a.71.71,0,0,1,.65-.75"/><path class="cls-3" d="M175.32,138.27a1.37,1.37,0,0,1,1.75-.41c.79.15.6,1.46.36,2.49-.32.37-.37.71-.7.65-1-1-1.58-1.88-1.41-2.73"/><path class="cls-3" d="M178.49,139.22c.57.25.49.24.49.5a.44.44,0,0,1-.47.45c-.3,0-.39,0-.55-.47s0-.74.53-.48"/><path class="cls-3" d="M179.34,135.18c.42.17.36.15.36.32s-.13.28-.35.29-.28,0-.41-.3,0-.47.4-.31"/><path class="cls-3" d="M184.62,138.24c0-1.18,1-1.3,1.62-1,1.23.47,1.19,3.12,1,4.77.13,1.23-.25,1.34-.83.46-1.08-1.46-1.81-2.48-1.79-4.21"/><path class="cls-3" d="M130.28,141.53a.9.9,0,0,1,.47.89c0,.36-.4.48-.78.48s-.47,0-.78-.56.65-1.09,1.09-.81"/><path class="cls-3" d="M132.42,134.87c.56.79.37.6.38,1.12s-.34.73-.89.73-.84-.58-1.29-1.42,1.23-1.23,1.8-.43"/><path class="cls-3" d="M139.38,135.48a.76.76,0,0,1,.41.79c0,.3-.35.41-.69.42s-.42,0-.69-.5.58-1,1-.71"/><path class="cls-3" d="M145.86,137.57a.65.65,0,0,1,.35.67c0,.26-.3.35-.59.35s-.35,0-.58-.42.49-.82.82-.6"/><path class="cls-3" d="M130.62,152a.78.78,0,0,1,.41.77c0,.31-.35.41-.68.41s-.41,0-.68-.48.56-.95,1-.7"/><path class="cls-3" d="M132.87,158.34c.51.37.4.41.4.65s-.27.31-.53.32-.44-.18-.76-.56.38-.79.89-.41"/><path class="cls-3" d="M137.77,142.74c1.1.2,2.09,1,2.1,1.71s-1.64,1.18-2.06,1-1.86-.22-2.74-1,1.6-1.92,2.7-1.72"/><path class="cls-3" d="M140.17,150.46c-.89-.87-.81-1.69.24-2.45a5.37,5.37,0,0,1,4.79.88c1,1.29-.08,1.51-.75,1.79-1.72-.2-2.55,0-4.28-.22"/><path class="cls-3" d="M150.19,135.92c1.31-.23,1.77.42,1.46,1.59s-.65,1.17-1.48,1.19a1.56,1.56,0,0,1-1.58-1.32c0-.64.28-1.23,1.6-1.46"/><path class="cls-3" d="M149.75,142.21c0-.38.87.34.93,1s.34,1.1,0,1.11S149,143.64,149,143s.77-.42.74-.79"/><path class="cls-3" d="M154.64,142.08c.51,0,1.29,1.18,1.91,3.25s.17,3.32-.93,3-.77-1.44-.8-3.16-.69-3-.18-3"/><path class="cls-3" d="M174.49,102.12a.55.55,0,0,1,.63.5.66.66,0,0,1-1,.6c-.5-.41-.38-.48-.28-.72a.66.66,0,0,1,.68-.38"/><path class="cls-3" d="M167.06,110.3c.23,0,.26.15.39.4s-.34.56-.73.38-.27-.35-.19-.52a.55.55,0,0,1,.53-.26"/><path class="cls-3" d="M172.5,111.38c.65.28,1.37.6,1.38,1.07s-.79.66-1.36.62-1-.22-1.13-.83a.77.77,0,0,1,1.11-.86"/><path class="cls-3" d="M163.23,142.22c.5-.09.8,1.64.13,3s-.73,2.12-1,2.12-.55-1.18-.12-2.41.51-2.64,1-2.74"/><path class="cls-3" d="M166.13,147.28c-.52-.43-.49-1.06-1-1.19a1,1,0,0,0-.88.61c.34.5.85.61,1.38,1.2.28.07.8-.14.48-.62"/><path class="cls-3" d="M185.63,138.26c.29-.09.51.3.67.81s.39,1.05.18,1.12-.78-.38-.94-.89-.2-1,.09-1"/><path class="cls-3" d="M175.54,146.89c.15-.25.29-.29.44-.13a3.69,3.69,0,0,1,.64.67,4.28,4.28,0,0,1,2-.87c.54-.13.68.12.28.39-1.11.63-2.71,2.15-3.23,1.84-.37.07-.68-.78-.11-1.9"/><path class="cls-3" d="M182.85,146c.27-.31.5-.26.67.15a7,7,0,0,1-.27,2.24c-.07.23-.29.15-.52,0a7.66,7.66,0,0,0-1.1-.52c-.15-.28-.24-.54.13-.67a2.12,2.12,0,0,0,.7.25,3.89,3.89,0,0,0,.39-1.47"/><path class="cls-3" d="M180.74,146.05c.21,0,.21.36.45.8a.4.4,0,0,1-.35.64c-.21,0-.46-.31-.47-.7s.17-.73.37-.74"/><path class="cls-3" d="M182.05,144.93c.26,0,.44.12.36.35s-.15.36-.35.36a.35.35,0,0,1-.35-.34.33.33,0,0,1,.34-.37"/><path class="cls-3" d="M181.82,143.22c.16,0,.32.21.53.66s.06.8-.25.74-.42-.33-.43-.7,0-.69.15-.7"/><path class="cls-3" d="M183.76,142.07c.23.1,0,.49-.11,1.56s-.42,1.75-.63,1.48-.07-.72.11-1.58.39-1.57.63-1.46"/><path class="cls-3" d="M159.28,154.55c.68.07,1.08.3,1.19.94-1.27,2.68-2.8,3.1-4.28,4-.81.09-1.62.26-2.28-.79-.25-.27-.38-.58.25-1.12.82-1.38,2-2.48,5.12-3"/><path class="cls-3" d="M137.45,156.4c1.1.2,1.48.41,1.47.84s-.62.9-1.42.91a1.35,1.35,0,0,1-1.5-.87c-.23-.6.35-1.09,1.45-.88"/><path class="cls-3" d="M137.43,157.53c.36-.05.61.08.53.31s-.2.31-.49.31-.45-.06-.45-.24.06-.34.41-.38"/><path class="cls-3" d="M116.23,160c.21.1.49.19.71.28.39-.05.57-.91,0-1a1,1,0,0,0-1.13.12,6.17,6.17,0,0,0,.07,3.22,2.73,2.73,0,0,0,1.5,1.9c.31.15.53.2.68-.27.15-.72,1.1-1.2,1.61-1.82,0-.35-.2-.46-.5-.31-.66.4-1,1.18-1.56,1.58a2.2,2.2,0,0,1-1.34-1.56,6.72,6.72,0,0,1-.08-2.19"/><path class="cls-3" d="M121.83,163c.26,0,.47.11.3.35s-.13.36-.29.36a.33.33,0,0,1-.3-.35c0-.2,0-.33.29-.36"/><path class="cls-3" d="M124.62,164.74c.26,0,.47.11.29.35s0,.3-.33.41-.42-.1-.24-.4,0-.33.28-.36"/><path class="cls-3" d="M123.22,163.31c.39-.15.58.09.41.54s0,.35-.53.6-.58,0-.29-.59,0-.4.41-.55"/><path class="cls-3" d="M125.16,163.8c.17.09.26.31,0,.39a1.08,1.08,0,0,1-.86,0c-.3-.15.08-.41.35-.41s.35,0,.52.05"/><path class="cls-3" d="M181,148.08c.18,0,.08.21-.08.41s-.23.34-.31.3-.08-.23,0-.44.19-.33.38-.27"/><path class="cls-3" d="M178.75,148.19c.33.09.61.21.62.37s-.32.19-.62.2-.51-.11-.54-.34.2-.32.54-.23"/><path class="cls-3" d="M111.06,161.16c.27.15.45.13.53.23s-.18.35-.48.32-.31-.11-.49-.3.17-.42.44-.25"/><path class="cls-3" d="M109,157c.54,0,1.16.42,1.75,1.72s-.57,2.53-1.1,1.66-1.11-1.27-1.33-1.82.15-1.58.68-1.56"/><path class="cls-3" d="M107.58,156.81c.25-.5.78-.65.91-.27s-.25.84-.5,1.08a.42.42,0,0,1-.68-.15c-.12-.23,0-.17.27-.66"/><path class="cls-3" d="M126.38,165.38a.63.63,0,0,1,.67.6c0,.35,0,.49-.63.59s-1-.11-.79-.54.37-.65.75-.65"/><path class="cls-3" d="M125.32,165.23c.18,0,.29.1.24.29s-.11.3-.23.3a.28.28,0,0,1-.25-.29c0-.17,0-.27.24-.3"/><path class="cls-3" d="M128.7,167.94c.19,0,.25.19.14.36s-.19.25-.31.21a.26.26,0,0,1-.14-.35c.05-.16.12-.24.31-.22"/><path class="cls-3" d="M128.1,165.87c1,.5,1.06.68.82,1.07s-.07.85-1,1.19-.63-.11-.43-1-.33-1.81.61-1.3"/><path class="cls-3" d="M140.81,167.5a.68.68,0,0,1,.31.32.26.26,0,0,1-.23.27.24.24,0,0,1-.23-.26c0-.15.05-.37.15-.33"/><path class="cls-3" d="M135.5,170.59c.26,0,.34.08.28.24a.3.3,0,0,1-.27.25c-.16,0-.15,0-.28-.24s0-.28.27-.25"/><path class="cls-3" d="M136.34,171.35c.28-.35.64-.44.71-.21s0,.46-.4.64a.92.92,0,0,1-.92,0c0-.09.33-.1.61-.43"/><path class="cls-3" d="M133.48,170.5c-.43.1-.59.43-.42.59s.32.18.76-.06.36-.76.19-.85-.1.22-.53.32"/><path class="cls-3" d="M134.8,169.33c0-.08.27,0,.51.08s.41.28.37.36-.27,0-.51-.07-.4-.29-.37-.37"/><path class="cls-3" d="M139.71,169.27c.06,0,0,.14-.07.33s-.26.31-.32.28a.36.36,0,0,1,0-.43.38.38,0,0,1,.42-.18"/><path class="cls-3" d="M138.56,169.25c-.08-.06-.41.12-.8.23s-.7.41-.63.53.44.07.84-.14.65-.57.59-.62"/><path class="cls-3" d="M138.64,170.69s-.22.08-.37.21-.35.33-.3.4.27,0,.47-.2.25-.39.2-.41"/><path class="cls-3" d="M130.77,168.63c.4.1.53.24.47.49a1.32,1.32,0,0,1-.66.64c-.17,0-.13-.25-.27-.62s.06-.61.46-.51"/><path class="cls-3" d="M129.75,168.13c.21,0,.44,0,.44.16s-.22.25-.44.25-.34-.12-.34-.24.12-.17.34-.17"/><path class="cls-3" d="M129.11,168.78c-.05.16-.13.32-.22.29s-.14-.22-.09-.38.16-.22.26-.2.09.13.05.29"/><path class="cls-3" d="M131.07,169.8c.26-.2.6-.28.59-.61,0-1.15.54-.48.69-.2s.65,0,.85.23c.48.13.17.54,0,.6a1.43,1.43,0,0,0-1.73.42c-.26.11-.47-.13-.38-.44"/><path class="cls-3" d="M112.86,155.7c-.6-.3-.94-1.08-1.54-1.38-1.71-1.64-3-2.87-4.77-4.49l-4.34,3.75c.83.7,1.73,1.48,2.77,2.39a66.72,66.72,0,0,0,4.09,5.66,2.3,2.3,0,0,0,3.25-.38,5.23,5.23,0,0,1,.07-.68h0C112.66,158.23,113.81,156.77,112.86,155.7Z"/></g><g id="Q2"><path class="cls-2" d="M131.09,61.12,70.51,103.94a.16.16,0,0,1,0-.09c.33-1.14,0-1.91-.09-3.19a15.49,15.49,0,0,0-1.89-4c-.5-.38-.65-1.76-.79-3.08s-1.89-1.06-2.07-2.25c-.24-1.55,3.06.43,1.69-4.87-.13-1.91-.22-3.85-.41-5.76a24.29,24.29,0,0,0-2.33-5.24c-.57-.82-2.14-.55-2.66-.13s-.8,1-.82,2.07a14.87,14.87,0,0,1-3-9.6,9.54,9.54,0,0,0,.72,1.93c.88,1.13,2,1.56,2.83,1.11.47,0,.56.51,1,.49,1.28.23,2.05,0,1.3-1.93a7.46,7.46,0,0,1-.51-3.24,34.46,34.46,0,0,1,.22-3.75l66.87-1.6Z"/><path class="cls-3" d="M62.62,71.36c-.41,0-.5-.47-1-.49-.87.45-1.95,0-2.83-1.11a7.14,7.14,0,0,1-.85-3,8.66,8.66,0,0,0,.49-2.83,6.7,6.7,0,0,1,.47-1.37l4.7-.11a34.46,34.46,0,0,0-.22,3.75,7.46,7.46,0,0,0,.51,3.24C64.69,71.38,63.9,71.59,62.62,71.36Z"/><path class="cls-3" d="M95.92,68.67c.63-.12,1.19.48.76.79a.9.9,0,0,1-.91.08c-.16,0-.26-.38-.27-.58s-.21-.16.42-.29"/><path class="cls-3" d="M81.88,77.86c.4-.23,1,.43.8.85s-.78.28-1,.24-.32-.45-.32-.7.09-.16.49-.39"/><path class="cls-3" d="M77.68,87.27c.45-.14,1.22.59.94,1s-.87.25-1.08.21-.41-.51-.42-.78.1-.31.56-.44"/><path class="cls-3" d="M91.37,80.19a.6.6,0,0,1,.7.54c.11.47-.31.63-.71.54s-.52-.2-.52-.47a.57.57,0,0,1,.53-.61"/><path class="cls-3" d="M61.38,64.05c1.1-.94.81,1.81,1.45,3.44s-.48,3-1.31,3-2-1.42-2-3.06.79-2.41,1.9-3.36"/><path class="cls-3" d="M63.14,79.49c.3-.1.41.07.33.29s-.15.29-.33.29a.3.3,0,0,1-.33-.28c0-.17,0-.21.33-.3"/><path class="cls-3" d="M64.31,86.1c.19-.09.25.07.21.29s-.09.29-.2.29-.21-.12-.21-.28,0-.21.2-.3"/><path class="cls-3" d="M63.07,80.33c.31-.09.31.13.24.34s-.3.51-.48.51-.09-.36-.09-.52,0-.23.33-.33"/><path class="cls-3" d="M61.89,76.48c0-.43.36-.51,1.07-.14a2.42,2.42,0,0,1,1.16,2c-.21.2-.29.5-.74.29a3.11,3.11,0,0,0-.34-.38c-.34.45-.54.42-.89.32a5.26,5.26,0,0,1-.26-2.1"/><path class="cls-3" d="M64.53,79.93a2.71,2.71,0,0,0-.89.37c-.19.36.14,1.16,0,1.79-.24.15-.62.23-.81.58a6.48,6.48,0,0,0,.66,2c.29.33.7.32,1.18.1a1.53,1.53,0,0,1,0-1,5.64,5.64,0,0,0,.74-1.9c-.25-.73-.64-1-.89-1.93"/><path class="cls-3" d="M64.58,87.45c.29,0,.27.17.34.46s0,.55-.3.51-.26-.22-.37-.5,0-.5.33-.47"/><path class="cls-3" d="M65.74,99.15c.47-.28,1-.23,1-.1s-.23.5-.71.77-.82.23-.9.11.09-.51.57-.78"/><path class="cls-3" d="M65.31,97.23c.28-.08.42.08.34.31a.47.47,0,0,1-.41.37c-.21,0-.43.07-.43-.1a.75.75,0,0,1,.5-.58"/><path class="cls-3" d="M66.84,100.15c.27-.35-.06-.31-.32-.22s-.23,0-.26.28.14.26.32.21,0,.07.26-.27"/><path class="cls-3" d="M66,101.39c-.31.44-.28.61.09.5a4,4,0,0,0,1.19-.15,2.14,2.14,0,0,1,.68-.5c.48-.08.72.12,1-.07a1.3,1.3,0,0,0-.42-1.25c-.85-.16-1.19.46-1.64.92-.07-.09,0-.17-.36,0s-.41.41-.56.57"/><path class="cls-3" d="M121.88,64c.16,0,.28.11.29.27a.26.26,0,0,1-.28.26c-.16,0-.23-.07-.3-.26s.13-.29.29-.27"/><path class="cls-3" d="M64.85,96c.12,0,.22,0,.22.1a.28.28,0,0,1-.21.25c-.11,0-.22,0-.22-.14a.23.23,0,0,1,.21-.21"/><path class="cls-3" d="M64.76,100.63c.11,0,.21,0,.21.09a.27.27,0,0,1-.21.25c-.11,0-.22,0-.22-.14a.23.23,0,0,1,.22-.2"/><path class="cls-3" d="M70.4,100.66a15.49,15.49,0,0,0-1.89-4c-.5-.38-.65-1.76-.79-3.08s-1.89-1.06-2.07-2.25c-.24-1.55,3.06.43,1.69-4.87-.13-1.91-.22-3.85-.41-5.76a24.29,24.29,0,0,0-2.33-5.24c-.57-.82-2.14-.55-2.66-.13-.89.4-.82,1.53-.82,3.19-.25,2.32,2.4,7.48,2.38,9.19-.48,3.53.15,5.94.62,8.7l-.06,0c.11,1.76.22,3.55.33,5.33a.06.06,0,0,0,0,0h0a12,12,0,0,0,3.66,3.54,8.11,8.11,0,0,1,.79.68l1.86-1.31a2.87,2.87,0,0,1-.22-.92C70.82,102.71,70.48,101.94,70.4,100.66Z"/></g><g id="Q3"><path class="cls-1" d="M129.4,87.24a1.33,1.33,0,1,1-1.33-1.33,1.32,1.32,0,0,1,1.33,1.33"/><path class="cls-2" d="M182.48,85.36l-75.1,65.25-.83-.78,0-.05c-.53-.17-.91-.45-1.43-.06-.72,0-1.89-1.39-2.68-2.41a22.39,22.39,0,0,0-2.72-3.41,3.3,3.3,0,0,0-2.4-.2c-1.12.17-.86-.95-1.57-1.2-.93.27-1.71-2.45-2.23-3.16A3.17,3.17,0,0,0,91,138c-1.74-.31-2.54,1.66-3.64,1.23-1.44.63-2.46-1.23-2.45-3,.22-.28.27-.61.65-1.08.06-.75.38-1.47-1-1.4a12.74,12.74,0,0,0-3,.93c-.72-.36-.92-1-.2-2,.58-.27.74.36,1.13.49.8.05,1.21-.22.18-1.23a10,10,0,0,0-3.2-2.25c-1.95-1.6-2.63-4.36-3.46-4-.27.41-.43.29-.7.7-1,.88-1.43.2-1.63-.77-.12-2.44-.16-4.31-.28-6.74a.28.28,0,0,0-.08-.06h-.11c.06-3.22.1-6.45.15-9.67-.24-1.45-2-2.9-2.56-4.45a2.79,2.79,0,0,1-.2-.83l60.58-42.82,1,.47L181.72,85Z"/><path class="cls-3" d="M115.4,73.79c.73-.41,2.06,2,1.34,2.55s-1.38-.11-1.64-.47a2.63,2.63,0,0,1-.63-1.27c0-.44.21-.41.93-.81"/><path class="cls-3" d="M108.52,79.86c.42-.22,1.1.46.84.9s-.83.3-1,.26-.33-.49-.33-.74.1-.18.52-.42"/><path class="cls-3" d="M133.27,109.66a.54.54,0,0,1,.54.42c0,.2-.28.41-.55.41a.35.35,0,0,1-.4-.36.44.44,0,0,1,.41-.47"/><path class="cls-3" d="M114.51,113.09a.56.56,0,0,1,.55.42c0,.2-.28.41-.55.42a.36.36,0,0,1-.41-.36.46.46,0,0,1,.41-.48"/><path class="cls-3" d="M110.9,119a.52.52,0,0,1,.54.41c0,.21-.28.42-.55.42a.35.35,0,0,1-.4-.36.45.45,0,0,1,.41-.47"/><path class="cls-3" d="M96.74,116.38a.54.54,0,0,1,.54.42c0,.2-.28.4-.55.41a.35.35,0,0,1-.4-.36.44.44,0,0,1,.41-.47"/><path class="cls-3" d="M92.37,95.28a.67.67,0,0,1,.67.53c0,.25-.34.51-.68.51a.45.45,0,0,1-.51-.45.58.58,0,0,1,.52-.59"/><path class="cls-3" d="M85.07,101.73a.6.6,0,0,1,.71.54c.11.46-.31.62-.71.54s-.52-.21-.53-.47a.59.59,0,0,1,.53-.61"/><path class="cls-3" d="M84.81,109.06c.44,0,1,.27.93.72a.78.78,0,0,1-.89.67.58.58,0,0,1-.6-.61c0-.33.11-.78.56-.78"/><path class="cls-3" d="M75.18,119.1c.44,0,.95.28.94.74a.81.81,0,0,1-.9.67.6.6,0,0,1-.6-.63c0-.32.11-.77.56-.78"/><path class="cls-3" d="M88.32,118.48c.41,0,.9.26.89.69a.76.76,0,0,1-.85.63.56.56,0,0,1-.57-.59c0-.31.11-.72.53-.73"/><path class="cls-3" d="M116.65,129.73c.68.22.7.28.71.63a.67.67,0,0,1-.69.65c-.38,0-.4-.06-.7-.63s0-.86.68-.65"/><path class="cls-3" d="M109.41,130.4c.79.25.81.32.82.73a.79.79,0,0,1-.8.75c-.44,0-.46-.07-.81-.73s0-1,.79-.75"/><path class="cls-3" d="M106.43,145c.63.19.59.29.6.61a.59.59,0,0,1-.58.61c-.36,0-.56,0-.83-.52s.18-.9.81-.7"/><path class="cls-3" d="M87.21,135.6c.49.24.84.44.84.77s-.57.61-.93.61-.62-.19-.66-.79.27-.83.75-.59"/><path class="cls-3" d="M131.81,125.32a.5.5,0,0,1,.27.51c0,.2-.23.27-.45.28s-.27,0-.44-.33.37-.62.62-.46"/><path class="cls-3" d="M127,126.64c.69.21.7.27.71.63a.67.67,0,0,1-.69.65.89.89,0,0,1-1-.57c-.3-.57.28-.93,1-.71"/><path class="cls-3" d="M93.4,135.94c.28,0,.51.18.67.54s-.09.54-.49.47-.51-.2-.51-.46.06-.55.33-.55"/><path class="cls-3" d="M143.1,77.77c.34,0,.53.07.63.5a.65.65,0,0,1-1,.6c-.49-.41-.38-.47-.28-.72a.67.67,0,0,1,.68-.38"/><path class="cls-3" d="M128,88.29A1.64,1.64,0,0,1,129,89c.14.35-.61,1.16-1.19.67s-.49-.67-.37-1,.24-.6.62-.44"/><path class="cls-3" d="M129.82,70.74a.42.42,0,0,1,.49.37.51.51,0,0,1-.8.46c-.37-.32-.29-.36-.21-.56a.5.5,0,0,1,.52-.27"/><path class="cls-3" d="M113.21,97.4c.33,0,.51.07.61.47a.63.63,0,0,1-1,.58c-.47-.39-.36-.46-.26-.69a.62.62,0,0,1,.64-.36"/><path class="cls-3" d="M158.18,100.32c.29,0,.46.06.55.44a.57.57,0,0,1-.9.52c-.44-.36-.33-.42-.25-.64a.59.59,0,0,1,.6-.32"/><path class="cls-3" d="M149.77,99.12c.3,0,.47.06.56.43a.57.57,0,0,1-.9.53c-.43-.36-.33-.41-.24-.63a.55.55,0,0,1,.58-.33"/><path class="cls-3" d="M130.25,101.94c.19,0,.29,0,.35.27a.35.35,0,0,1-.56.32c-.27-.22-.21-.26-.15-.39a.35.35,0,0,1,.36-.2"/><path class="cls-3" d="M71.59,111.39c.49.06.52.12.52.29s-.18.27-.51.31-.52,0-.58-.29.09-.37.57-.31"/><path class="cls-3" d="M71.56,117.11c.32,0,.43.14.46.25s-.12.13-.32.21-.32.06-.4-.1-.06-.32.26-.36"/><path class="cls-3" d="M71.35,121.62c.31-.26.47,0,.62.09s-.07.43-.23.55a.35.35,0,0,1-.49,0c-.19-.12-.22-.4.1-.66"/><path class="cls-3" d="M71.44,123.22a.51.51,0,0,1,.62.25c.11.14-.21.28-.41.33a.55.55,0,0,1-.52-.13c-.17-.15-.1-.36.31-.45"/><path class="cls-3" d="M71.56,117.94c.29,0,.31,0,.33.12s-.07.17-.26.23-.31,0-.38-.11,0-.22.31-.24"/><path class="cls-3" d="M71.8,129.49c.24-.09.56-.12.66,0s-.12.4-.42.52-.57.13-.64,0,.16-.42.4-.5"/><path class="cls-3" d="M71.4,128.36c.23,0,.51.09.56.25s-.22.34-.52.35-.52-.08-.53-.25.26-.36.49-.35"/><path class="cls-3" d="M76.26,131.87c.19,0,.33,0,.35.2s-.14.26-.33.27-.3,0-.33-.2.11-.25.31-.27"/><path class="cls-3" d="M81.37,136.18c.21,0,.34.06.35.2s-.14.26-.31.27-.31,0-.34-.2.11-.25.3-.27"/><path class="cls-3" d="M80.94,135.85c.16,0,.26,0,.27.15s-.11.2-.25.21-.24,0-.26-.16.09-.19.24-.2"/><path class="cls-3" d="M78.92,135a.22.22,0,0,1,.25.2.23.23,0,0,1-.23.23c-.14,0-.24,0-.26-.16a.24.24,0,0,1,.24-.27"/><path class="cls-3" d="M80.08,135.05c.28.11.48.25.51.36s-.21.44-.47.5-.44,0-.49-.37.16-.6.45-.49"/><path class="cls-3" d="M82.34,136.66c.2,0,.34.05.36.2s-.15.25-.33.27-.3,0-.33-.2.11-.25.3-.27"/><path class="cls-3" d="M83,137.58a.41.41,0,0,1,.62.11c.11.2,0,.47-.31.58s-.64.11-.61-.05a1.24,1.24,0,0,1,.3-.64"/><path class="cls-3" d="M86.21,142.3a.79.79,0,0,1-1-.63c0-.39.27-1.23,1-.81s1.71.32,1.64.67-1.12.59-1.58.77"/><path class="cls-3" d="M84.58,139.29a.43.43,0,0,1-.51.37.46.46,0,0,1-.2-.63c.12-.27.43-.63.59-.52a.89.89,0,0,1,.12.78"/><path class="cls-3" d="M84.22,140.34a.47.47,0,0,1,.39-.57c.24,0,.29.24.37.64s-.17.88-.4.7a1.29,1.29,0,0,1-.36-.77"/><path class="cls-3" d="M74.08,132.48c.52-.71.38.47.74.76s-.17.74-.5.75a.85.85,0,0,1-.81-.74c0-.4,0-.06.57-.77"/><path class="cls-3" d="M71.66,130.35c.2-.06.45-.1.54,0s-.1.31-.34.41-.46.11-.51,0,.13-.34.31-.41"/><path class="cls-3" d="M71.28,127.21c-.16,0-.37.05-.41.16s.16.24.37.25.39-.05.4-.16-.19-.26-.36-.25"/><path class="cls-3" d="M72.73,131.53c.27-.11.53-.34.67-.3s0,.34-.25.56-.47.43-.66.29,0-.44.24-.55"/><path class="cls-3" d="M73.54,131.74c.26-.31.47-.52.73-.39s0,.47-.37.79-.64.6-.9.39.29-.49.54-.79"/><path class="cls-3" d="M72,131.15c.16-.12.3-.43.56-.21s0,.54-.28.58-.36.2-.44.12,0-.36.16-.49"/><path class="cls-3" d="M92.84,143.18c.31,0,.32.24.32.54s-.2.55-.37.55-.18-.24-.27-.54,0-.55.32-.55"/><path class="cls-3" d="M92.11,142.65c.13.19,0,.34-.24.63s-.65.33-.73.16.12-.4.29-.62.55-.35.68-.17"/><path class="cls-3" d="M93.74,143.51c.27,0,.27.2.27.44a.48.48,0,0,1-.34.48c-.15,0-.28-.2-.24-.47s0-.45.31-.45"/><path class="cls-3" d="M90.76,142.37c.23,0,.23.17.24.39s-.15.4-.28.4-.26-.16-.23-.39,0-.4.27-.4"/><path class="cls-3" d="M94.55,144.14a.39.39,0,0,1,.41.39c0,.22-.42.49-.55.49s-.3-.26-.28-.5a.4.4,0,0,1,.42-.38"/><path class="cls-3" d="M96.81,145.91c.24.07.77.21.91.56s-.8.74-1.09.46-.22-.39-.19-.64.13-.45.37-.38"/><path class="cls-3" d="M95.06,144.85a.36.36,0,0,1,.5-.06c.2.12.09.3-.13.5s-.39.2-.5.07-.05-.35.13-.51"/><path class="cls-3" d="M95.66,145.34a.43.43,0,0,1,.55-.07c.19.12.07.26-.15.45s-.41.18-.53.05,0-.27.13-.43"/><path class="cls-3" d="M97.71,147c.08.05.05.25-.08.44s-.3.3-.39.24,0-.26.08-.45.3-.3.39-.23"/><path class="cls-3" d="M98,147.55c.28-.33.58-.31.92,0a1.09,1.09,0,0,0,.2.55,4,4,0,0,0,.75.14c.34.14.33.33.16.6-.29.43-.73.48-1.25.63-.4-.21-.83-.48-.89-.86a1.26,1.26,0,0,1,.11-1.09"/><path class="cls-3" d="M100,149.44a.27.27,0,0,1,.26.27c0,.16,0,.22-.25.29s-.35-.07-.27-.28.12-.28.26-.28"/><path class="cls-3" d="M100.59,150a.23.23,0,0,1,.24.34c-.09.23-.1.34-.31.4s-.34-.2-.19-.45.11-.27.26-.29"/><path class="cls-3" d="M115.81,75c.22.17.21,0,.43.45s0,.55-.3.43-.29.08-.55-.42.2-.62.42-.46"/><path class="cls-3" d="M76.39,133.08c1,.38,1.37.74,1.39,1.47s-.54,1.06-1.29.73-1.3-.23-1.37-1.17.27-1.4,1.27-1"/><path class="cls-3" d="M88.7,142c.62-.2,1.34-.5,1.41-.22s-.44.18-1.21.82-1.44.53-1.36,0,.55-.37,1.16-.57"/><path class="cls-3" d="M106.55,149.83l-4.34,3.75c-.89-.78-1.71-1.46-2.62-2.18a19.38,19.38,0,0,1-3.69-4.11,10.85,10.85,0,0,0-1.15-1.1l.41.31a7.72,7.72,0,0,0-1.21-.92c.26.2.53.39.8.61A12.05,12.05,0,0,0,90.12,144s.07,0,.09,0c-2.69-.25-4.4-.66-4.67-1.37-.78-.37-1.6-2.3-2.16-4.52a2.28,2.28,0,0,0-2-1.21,6.14,6.14,0,0,1-2.92-.23,9.4,9.4,0,0,1-1-.38c-.45-.38-1-.7-1.43-1a6.39,6.39,0,0,0-1.28-.38,10.75,10.75,0,0,1-3-1.8,7.36,7.36,0,0,1-1.39-5.37.64.64,0,0,0,0-.07c.13-2.91.25-5.82.38-8.73,0-3.47-.11-6.93-.16-10.41-.09-.18-.2-.36-.31-.54a8,8,0,0,0-1.39-1.84l1.86-1.31c.61,1.55,2.32,3,2.56,4.45,0,3.22-.09,6.45-.15,9.67h.11a.28.28,0,0,1,.08.06c.12,2.43.16,4.3.28,6.74.2,1,.58,1.65,1.63.77.27-.41.43-.29.7-.7.83-.4,1.51,2.36,3.46,4a10,10,0,0,1,3.2,2.25c1,1,.62,1.28-.18,1.23-.39-.13-.55-.76-1.13-.49-.72,1-.52,1.62.2,2a12.74,12.74,0,0,1,3-.93c1.41-.07,1.09.65,1,1.4-.38.47-.43.8-.65,1.08,0,1.77,1,3.63,2.45,3,1.1.41,1.9-1.54,3.64-1.23a3.17,3.17,0,0,1,2.51,1.33c.52.71,1.3,3.43,2.23,3.16.71.25.45,1.37,1.57,1.19a3.29,3.29,0,0,1,2.4.21,22.39,22.39,0,0,1,2.72,3.41c.79,1,2,2.43,2.68,2.41.52-.39.9-.11,1.43.06Z"/></g><g id="Labels"><path class="cls-1" d="M43.77,47h.12L44,47l.26,0,.26.08.19.08a.4.4,0,0,1,.24.35v.13l-.07.11-.07.1-.19.15-.64.43-.6.31-.24.11-.23,0a.34.34,0,0,1-.17-.07l-.05-.09v-.1l0-.11a.32.32,0,0,1,.09-.1l.2-.1.39-.17.51-.26.21-.11.16-.11,0-.06q0-.15-.39-.15l-.27,0-.31.1q-.33,0-.33-.27a.25.25,0,0,1,0-.16.56.56,0,0,1,.18-.11l.31-.1ZM46,47a1.47,1.47,0,0,1,.43.07l.13,0,.09,0,.19.13a.43.43,0,0,1,.13.14.38.38,0,0,1,0,.19l0,.07,0,.09-.09.11-.1.11-.09.11-.13.1-.35.29-.35.23-.31.18-.14,0-.15,0H45.1s-.06,0-.1-.06l0-.09a.17.17,0,0,0,0-.08.17.17,0,0,1,.06-.12l.11-.06.15-.07.21-.1.37-.2.29-.23.14-.13a.22.22,0,0,0,.07-.12.14.14,0,0,0-.1-.14h-.36l-.1,0-.11,0-.09,0h-.27l-.08,0,0,0-.05,0a.86.86,0,0,1,0-.13v-.07a.2.2,0,0,1,0-.08,1,1,0,0,1,.15-.1l.09-.05.1,0,.22-.07.17,0Z"/><path class="cls-1" d="M46.22,50h.15a.32.32,0,0,1,.14.16l0,.15a.18.18,0,0,1-.07.17l-.3.13.14.14a.41.41,0,0,1,.14.32v.14a.06.06,0,0,0,0,0,.08.08,0,0,1,0,.05.68.68,0,0,1-.39.51l-.21.12-.14.05h-.36l-.19,0-.35-.09-.06,0-.23.2-.11.09-.14.11-.3.22-.12.08-.23.14-.21.13-.43.24-.09,0-.1.05-.18.09-.17,0a.4.4,0,0,1-.37-.21v0l0-.12a.2.2,0,0,1,.06-.16l.08-.06.06,0h.38a.77.77,0,0,0,.28-.07l.48-.26.16-.11.28-.18.18-.13.12-.12.09-.08.11-.11-.07-.13,0-.09v-.09a.32.32,0,0,1,.2-.22l.15,0h.1l.13.06a.29.29,0,0,1,.13.14l0,.12,0,0,.13.08.13.05h.17l.11,0,.09,0a.9.9,0,0,0,.23-.15l.06-.1,0-.08a.24.24,0,0,0,0-.15L45.79,51l-.1-.06-.09-.07-.19-.08-.17-.13,0-.06,0-.09a.11.11,0,0,1,.06-.11l.16-.07h.3l.11-.05.1-.07.1-.06.1,0Z"/><path class="cls-1" d="M50.62,47.42a.25.25,0,0,1,.17-.07q.24,0,.24.33v.07a.08.08,0,0,1-.05,0,7.52,7.52,0,0,1-.92.63,6.41,6.41,0,0,1-.94.48L49,49l-.1,0c-.08,0-.14,0-.19-.15v-.2c0-.08,0-.13.15-.17a4.57,4.57,0,0,0,.74-.39l.24-.14.36-.22Z"/><path class="cls-1" d="M48.82,50.21l.16,0a.34.34,0,0,1,.22.13l.07.1a.17.17,0,0,0,.14.07.21.21,0,0,0,.11,0l.11-.1.08-.06.08-.07.07,0h.19l.06,0,.1,0,0,0,0,0,.06.13,0,.12,0,0,0,0a.75.75,0,0,0,.24-.07l.11-.09.1-.11,0,0,.07,0,.14-.08.11,0h.11s.05,0,.07,0l.07.08,0,.07a.35.35,0,0,1-.09.25l-.12.15a.32.32,0,0,1-.15.1l-.15.09-.19.08-.19.05-.34.07a.54.54,0,0,1-.28-.08L50,51l-.11-.12h-.21a.44.44,0,0,0-.17,0,.24.24,0,0,0-.11.06l-.23.21-.35.28-.35.27-.1.07-.13.08L48,52l-.5.28-.39.21-.15.07-.18.06-.15,0H46.4l-.13,0a.3.3,0,0,1-.14-.3.24.24,0,0,1,.14-.23h.49A1.16,1.16,0,0,0,47.1,52l.34-.18.4-.21.36-.24.27-.21.07-.08a.24.24,0,0,0,0-.08l-.13-.24v-.18s0-.05,0-.07l.07-.09A.5.5,0,0,1,48.82,50.21Z"/><path class="cls-1" d="M55.42,53.92a.19.19,0,0,1,.2.13l0,.1v.07s0,.05,0,.07l-.07.1-.07,0-.12.06-.12.06-.23.21-.21.15-.36.24-.32.19-.19.11-.21.1-.36.14-.13,0a.27.27,0,0,1-.2-.08.35.35,0,0,1-.07-.2v-.1a.13.13,0,0,1,0-.07l0,0,.18-.09.37-.16.3-.15.21-.1.2-.11.37-.23.21-.14.19-.16.2-.11A.3.3,0,0,1,55.42,53.92Z"/><path class="cls-1" d="M55.81,51v.21l0,.11a.11.11,0,0,1,0,.08l-.13.18-.06.07a.73.73,0,0,1-.62.23H54.8l-.09,0-.07,0-.08,0-.15-.09-.15-.13-.14-.17,0,0a.54.54,0,0,0-.15.08l-.14.13-.19.19.19.08.12.07a.38.38,0,0,1,.24.31.41.41,0,0,1-.08.24,1,1,0,0,1-.23.25l-.25.13-.16.07-.31.12L53,53l-.31.07h-.13l-.09,0-.1,0-.12,0L52.19,53l0-.18a.48.48,0,0,1,0-.21l.07-.05.11,0h.2l.29.07.21,0a.54.54,0,0,0,.37-.13l.07-.1,0-.1c0-.09-.07-.15-.23-.21L53.12,52a.26.26,0,0,1-.17-.27.7.7,0,0,1,.13-.22l.42-.4.17-.14.24-.16.31-.18a2,2,0,0,1,1-.27l.16,0a.53.53,0,0,1,.28.23l.09.13a.52.52,0,0,1,.06.15Zm-.52.12a.23.23,0,0,0-.22-.25H55l-.17,0a.62.62,0,0,0-.17.1l-.08.06-.06.06.15.15a.37.37,0,0,0,.14.08l.07,0H55a.35.35,0,0,0,.2-.05l.07,0,0-.06Z"/><path class="cls-1" d="M44.89,80.14a.19.19,0,0,1,.2.13l0,.1v.07a.09.09,0,0,1,0,.07l-.07.1-.07,0-.12,0-.12.07-.23.21-.21.15-.36.23-.32.2-.19.1a1.47,1.47,0,0,1-.21.11l-.36.14-.13,0a.32.32,0,0,1-.2-.08.35.35,0,0,1-.07-.21v-.09a.21.21,0,0,1,0-.07l0,0,.18-.09.36-.16.31-.15.21-.1.2-.11.37-.24.21-.14.19-.15.2-.12A.42.42,0,0,1,44.89,80.14Z"/><path class="cls-1" d="M44.32,76.37h.11l.14.12a.15.15,0,0,1,.08.15s-.1.14-.31.34l1.12,0s0,0,0,0l0,0a.15.15,0,0,1,.07.1c0,.1-.12.22-.37.37l-.57.33-.41.25-.66.43-.89.46-.52.22-.17.07-.17,0-.22,0-.18,0-.1-.06a.35.35,0,0,1-.1-.28c0-.08.06-.15.19-.19l.19,0a1.58,1.58,0,0,0,.71-.17l.08,0,.13-.06.34-.15,1.68-1H43a.36.36,0,0,1-.05-.09.72.72,0,0,1,0-.17l0-.09.11,0,.12,0,.19-.1.34-.16.25-.13a.16.16,0,0,0,.1-.1c0-.06,0-.09.07-.1l.06,0Z"/><path class="cls-1" d="M49.22,73.25l.14-.06.15,0a.37.37,0,0,1,.22,0,.18.18,0,0,1,.09.16.19.19,0,0,1-.08.17l-.06,0-.1,0-.19.09-.56.25c-.29.14-.44.31-.44.52a.23.23,0,0,0,.09.18l.07,0,.08,0,.2,0H49l.07,0,.07,0,.09,0,.09,0c.08,0,.12,0,.15,0l.09.11a.46.46,0,0,1,0,.14c0,.14-.16.25-.41.32l-.16,0-.15,0-.23,0-.25-.07-.13,0-.11-.07a.65.65,0,0,1-.33-.57.59.59,0,0,1,.13-.36l.12-.15.17-.16.13-.1.18-.12.3-.19Z"/><path class="cls-1" d="M49.45,77.19c0,.23-.22.49-.66.79l-.81.54-.34.21a3,3,0,0,1-1.22.53c-.28,0-.42-.1-.42-.33a.29.29,0,0,1,.15-.25s.1,0,.21,0h0l.06,0,.07,0,0,0h.2l.13,0,.37-.2.15-.07.25-.16.14-.1c-.3-.14-.45-.3-.45-.51a.85.85,0,0,1,.32-.67l.15-.1.16-.11a1.44,1.44,0,0,1,.68-.18,1,1,0,0,1,.62.24A.47.47,0,0,1,49.45,77.19Zm-.55-.06c0-.07-.16-.1-.34-.1a.93.93,0,0,0-.51.23l-.07.08-.07.12,0,.09c0,.06,0,.11.12.17l.1,0,.08,0,.14,0,.23-.12c.24-.16.36-.29.36-.38A.11.11,0,0,0,48.9,77.13Z"/><path class="cls-1" d="M53.54,73.63a.29.29,0,0,1,.17-.06c.16,0,.24.11.24.32V74a.12.12,0,0,1,0,0,7.52,7.52,0,0,1-.92.63,6.34,6.34,0,0,1-.94.47l-.12,0-.1,0q-.12,0-.18-.15l0-.09,0-.11c0-.08,0-.14.15-.17a5.18,5.18,0,0,0,.73-.39l.25-.14.35-.22Z"/><path class="cls-1" d="M52,76.45l.09,0a.23.23,0,0,1,.19.23.41.41,0,0,1-.07.12l-.13.09-.16.07.31.07.12,0,.15,0c.22,0,.33.13.33.29l0,.07-.14.11-.08.07-.14.1L52,78l-.1.07s0,.06,0,.07l.52.11.4.08H53c.15,0,.23.07.23.21s-.05.25-.14.27h-.45l-.21,0-.25,0H52l-.12,0-.7-.19-.06,0,0,0,0,0-.09,0s0,0-.06-.1a.18.18,0,0,1,.06-.13l.09-.1.25-.17.29-.17.26-.17.17-.13-.27,0L51,77.28a.08.08,0,0,1-.07,0v-.13l.13-.09.22-.17.27-.18.23-.14A.63.63,0,0,1,52,76.45Z"/><path class="cls-1" d="M57.27,73.63a.27.27,0,0,1,.17-.06c.16,0,.24.11.24.32l0,.08s0,0,0,0a8.47,8.47,0,0,1-.93.63,6.77,6.77,0,0,1-.93.47l-.12,0-.1,0c-.08,0-.14,0-.19-.15v-.2a.18.18,0,0,1,.15-.17,5,5,0,0,0,.74-.39l.24-.14.36-.22Z"/><path class="cls-1" d="M56,76.43h.39a.36.36,0,0,1,.19,0l.21,0c.25.06.38.17.38.33a.46.46,0,0,1-.08.23.38.38,0,0,1-.09.13.53.53,0,0,1-.13.13l-.19.18-.22.18-.2.14-.29.2a7.58,7.58,0,0,1-.88.49l-.36.18-.18.06-.21.07-.16,0-.12,0-.06,0-.1-.07-.06-.12,0,0c0-.15,0-.24.15-.25l.16,0h.15l.16,0,.1,0,.12,0,.14-.06.18-.1.31-.14.14-.07.24-.13.26-.14.15-.11.09-.07.14-.1a1.25,1.25,0,0,0,.16-.17l0,0v0s0,0,0,0l-.07,0-.07,0h-.17l-.13,0H56l-.28,0h0l-.08,0-.08,0-.07,0h-.32a.27.27,0,0,1-.17-.22.3.3,0,0,1,0-.18.66.66,0,0,1,.17-.12l.14,0,.15,0Z"/><path class="cls-1" d="M70.94,79.14h.11l.09,0,.26,0,.26.08.19.08a.42.42,0,0,1,.24.35l0,.13L72,80l-.08.1-.18.16-.64.42-.6.32-.24.11-.23,0a.25.25,0,0,1-.17-.07L69.82,81v-.11l0-.1s0-.06.08-.11l.21-.1.39-.16.51-.26.21-.11.15-.11,0-.07c0-.1-.12-.15-.38-.15l-.27,0-.31.1q-.33,0-.33-.27a.25.25,0,0,1,0-.16.63.63,0,0,1,.17-.1l.31-.11Zm2.21,0a2,2,0,0,1,.43.07l.13,0,.09,0,.19.13a.43.43,0,0,1,.13.14.4.4,0,0,1,0,.2l0,.07,0,.08L74,80l-.1.11-.09.11-.13.11-.35.28-.35.23-.32.18-.13,0-.15,0h-.12a.21.21,0,0,1-.09,0l0-.1a.19.19,0,0,0,0-.08.17.17,0,0,1,.06-.12l.11-.06.15-.07.21-.1.37-.2.28-.22.15-.14s0-.06.06-.12a.13.13,0,0,0-.09-.14h-.36l-.1,0-.11,0-.09,0-.08,0-.19,0-.08,0s0,0,0,0l-.05,0a.86.86,0,0,1,0-.13V79.5a.56.56,0,0,1,0-.08.85.85,0,0,1,.14-.1l.1,0,.1,0a.9.9,0,0,1,.22-.06.59.59,0,0,1,.17,0Z"/><path class="cls-1" d="M73.38,82.16h.16a.35.35,0,0,1,.14.17v.15a.18.18,0,0,1-.07.17l-.29.12.14.14a.45.45,0,0,1,.14.32v.14a.09.09,0,0,0,0,.05l0,0a.71.71,0,0,1-.39.51L73,84.1l-.14.05-.18,0h-.19l-.18,0-.35-.08-.06,0-.23.19-.11.1-.14.1-.3.22-.13.08-.22.15-.22.12-.43.24-.08,0-.11,0-.17.1-.17,0a.4.4,0,0,1-.37-.21l0,0,0-.12a.21.21,0,0,1,.06-.16l.08-.06.06,0h.37a.77.77,0,0,0,.29-.07l.48-.26.16-.1.28-.19.18-.12.11-.13.1-.07.11-.12-.07-.13,0-.09,0-.09a.33.33,0,0,1,.19-.22l.16,0h.1l.13.07a.22.22,0,0,1,.13.14v.12l0,0,.13.08.13.05h.17l.11,0,.09,0a.56.56,0,0,0,.23-.15L73,83.4l0-.09a.33.33,0,0,0,0-.15L73,83.08l-.1-.06-.1-.06-.18-.09-.17-.13,0-.06,0-.09a.1.1,0,0,1,.06-.1l.16-.08h.3l.11-.05.1-.07.1,0,.1,0Z"/><path class="cls-1" d="M78.05,79.89c0,.42-.27.77-.81,1.06a1.23,1.23,0,0,1-.56.17c-.52,0-.78-.23-.78-.68a1.11,1.11,0,0,1,.45-.87,1.47,1.47,0,0,1,1-.37.84.84,0,0,1,.29,0,.56.56,0,0,1,.24.13A.66.66,0,0,1,78.05,79.89Zm-.49.08q0-.27-.39-.27a.82.82,0,0,0-.73.73c0,.11.08.17.24.17h.12a.88.88,0,0,0,.48-.21A.58.58,0,0,0,77.56,80Z"/><path class="cls-1" d="M77.32,82.45h.21a.2.2,0,0,1,.09.05.46.46,0,0,1,.21.28l0,.15,0,.11a.22.22,0,0,1,0,.09l0,.12-.07.23-.07.21-.08.17-.09.18a.87.87,0,0,1-.27.33l-.11,0-.07,0-.07,0-.07,0-.1-.07,0-.12a.22.22,0,0,1,0-.09.23.23,0,0,1,0-.07l.1-.15.11-.15.18-.34.06-.18a.12.12,0,0,0,0,0,.08.08,0,0,0,0,0h0a.3.3,0,0,0-.19.07l-.17.14-.36.3-.7.55-.25.18-.29.17-.22.12-.18.07h-.14l-.14,0-.07,0a.2.2,0,0,1-.09-.19v-.1s0-.06,0-.07l0-.1a.37.37,0,0,1,.14-.1H75l.11,0,.22-.12.36-.23.16-.12.17-.14.23-.2.22-.18.21-.21.23-.19A.58.58,0,0,1,77.32,82.45Z"/><path class="cls-1" d="M81.48,79.15l.14-.06.15,0a.29.29,0,0,1,.22.06.18.18,0,0,1,.09.15.19.19,0,0,1-.08.18l0,0-.11,0-.19.08-.56.26c-.29.13-.44.31-.44.52a.22.22,0,0,0,.09.17l.07,0,.08,0,.2,0h.17l.07,0,.07,0,.09,0,.1,0a.22.22,0,0,1,.14,0l.09.11a.3.3,0,0,1,0,.15c0,.14-.16.25-.41.32l-.16,0-.15,0-.23,0-.25-.07-.13,0L80.4,81a.65.65,0,0,1-.33-.57.64.64,0,0,1,.13-.36l.12-.15.17-.16.14-.1.17-.11.31-.19Z"/><path class="cls-1" d="M80.28,82.35l.08,0a.22.22,0,0,1,.19.23.4.4,0,0,1-.06.13l-.13.09-.16.06.31.07.12,0,.14,0c.22,0,.33.13.33.29l0,.08-.14.11-.08.07-.13.09-.45.26-.1.07a.14.14,0,0,0,0,.07l.52.1.41.08.14,0c.16,0,.23.06.23.2s0,.26-.14.27H81l-.14,0-.21,0-.25,0-.11,0-.11,0-.71-.19,0,0h0l-.06,0-.09,0a.19.19,0,0,1-.05-.11.16.16,0,0,1,.05-.12l.09-.1.26-.18.28-.17.26-.17.17-.13-.26,0-.78-.11s0,0-.06,0V83l.13-.1.22-.17.27-.18.24-.13A.81.81,0,0,1,80.28,82.35Z"/><path class="cls-1" d="M85.54,78.18a1.13,1.13,0,0,1,.66.21.65.65,0,0,1,.29.57,1.3,1.3,0,0,1-.47.84.57.57,0,0,1-.08.08l-.09.07-.3.23a.48.48,0,0,1-.22-.11.17.17,0,0,1-.08-.16,3.23,3.23,0,0,0,.46-.39A.73.73,0,0,0,86,79a.29.29,0,0,0-.11-.27l-.12,0h-.19a1.78,1.78,0,0,0-1.07.52,2.09,2.09,0,0,0-.73.94l0,.14c0,.21.15.32.47.32h.07l.09-.07.19-.17a.21.21,0,0,1,.13,0c.13,0,.21.1.23.28s-.11.28-.34.39l-.13.06-.17.06a.85.85,0,0,1-.23,0,.8.8,0,0,1-.58-.26,1.06,1.06,0,0,1-.18-.27,1.07,1.07,0,0,1,0-.32c0-.38.29-.82.87-1.34A2.4,2.4,0,0,1,85.54,78.18Z"/><path class="cls-1" d="M84.92,82.39l.09-.07h.09l.14,0a.12.12,0,0,1,.09.08l0,.11a.23.23,0,0,1,0,.13l-.12.1-.16.18-.11.08-.08.07-.65.4-.67.38-.32.17-.32.13-.33.12a1,1,0,0,1-.32.06.51.51,0,0,1-.28-.09l-.1-.08,0,0s0-.05,0-.07v-.14a.29.29,0,0,1,.14-.15l.13-.05.12,0,.2,0h.07a1.22,1.22,0,0,0,.5-.12l.36-.18.79-.46.57-.37Z"/><path class="cls-1" d="M55.26,130.74l.08-.05h.09c.16,0,.24.1.24.32a.15.15,0,0,1-.06.13,11.51,11.51,0,0,1-1,.67l-.44.24a4.17,4.17,0,0,1-.44.19l-.21.07-.11,0-.08-.11V132a.21.21,0,0,1,.05-.12l0-.05.07,0a2.36,2.36,0,0,0,.75-.34A6.67,6.67,0,0,0,55.26,130.74Zm.49.87a.29.29,0,0,1,.17-.06c.16,0,.24.11.24.32a.17.17,0,0,1,0,.08.12.12,0,0,1,0,.05,8.38,8.38,0,0,1-.92.63,6.87,6.87,0,0,1-.94.47l-.12.05-.1,0c-.08,0-.14-.05-.19-.15v-.2c0-.08.05-.13.15-.17a5,5,0,0,0,.74-.39l.24-.14.36-.22Z"/><path class="cls-1" d="M55.13,134.28h.11l.14.12a.16.16,0,0,1,.08.15,2,2,0,0,1-.32.34l1.13,0s0,0,0,0l0,0a.28.28,0,0,1,.07.11c0,.09-.12.22-.37.37l-.57.33L55,136l-.67.43-.88.46-.52.22-.17.06-.17.05-.22,0-.18,0-.1-.06a.32.32,0,0,1-.1-.28c0-.08.06-.15.19-.19l.19,0a2.09,2.09,0,0,0,.35,0,2.28,2.28,0,0,0,.36-.13l.08,0,.13-.06.34-.15,1.68-1H53.83a.19.19,0,0,1,0-.09.72.72,0,0,1,0-.17l0-.09.11,0,.12,0,.19-.1.34-.16.24-.13c.05,0,.08-.05.11-.1s.05-.09.07-.1l.06,0Z"/><path class="cls-1" d="M60.57,131.9c0,.42-.27.77-.82,1a1.08,1.08,0,0,1-.55.17c-.53,0-.79-.22-.79-.67a1.11,1.11,0,0,1,.45-.87,1.52,1.52,0,0,1,1-.38.85.85,0,0,1,.3.05.72.72,0,0,1,.24.14A.64.64,0,0,1,60.57,131.9Zm-.5.08c0-.19-.13-.28-.39-.28a.72.72,0,0,0-.49.23.7.7,0,0,0-.24.5q0,.18.24.18h.12a.83.83,0,0,0,.48-.22A.56.56,0,0,0,60.07,132Z"/><path class="cls-1" d="M59.84,134.45H60l.09,0,.08,0a.42.42,0,0,1,.21.28l0,.16v.19l0,.12-.06.23-.08.22-.07.16-.09.18a.89.89,0,0,1-.27.33l-.12,0-.07,0-.07,0-.07,0-.1-.07,0-.11v-.09l0-.08.11-.14.1-.16.18-.33.06-.18a.13.13,0,0,0,0-.1l-.05,0a.37.37,0,0,0-.2.07l-.16.15-.36.3-.7.54-.26.18-.28.17-.22.13-.19.06h-.14l-.13,0-.08,0a.22.22,0,0,1-.09-.2v-.09s0-.06,0-.08l0-.09s.06-.06.14-.1l.19,0h.15l.11,0,.23-.11.35-.23.17-.13.17-.14.22-.19L59,135l.22-.2.22-.2A.66.66,0,0,1,59.84,134.45Z"/><path class="cls-1" d="M64.27,131.54a.29.29,0,0,1,.17-.06c.16,0,.24.11.24.32v.08l0,.05a7.92,7.92,0,0,1-1.86,1.1l-.12.05-.1,0c-.08,0-.14,0-.19-.15v-.19c0-.08,0-.14.16-.17a5.18,5.18,0,0,0,.73-.39l.24-.14.36-.22Z"/><path class="cls-1" d="M62.72,134.36l.09,0a.23.23,0,0,1,.18.24.31.31,0,0,1-.06.12l-.13.09-.16.07L63,135l.12,0,.14,0c.22,0,.33.13.33.28l0,.08-.14.11-.08.07-.14.1-.45.25-.1.07a.08.08,0,0,0,0,.07l.51.11.41.08h.14q.24,0,.24.21c0,.17,0,.25-.14.27h-.45l-.21,0-.25-.05h-.11l-.12,0-.7-.19-.06,0,0,0-.05,0-.09-.05s0-.05-.06-.1a.18.18,0,0,1,.06-.13l.09-.1.25-.17.29-.18.25-.16.18-.14-.27,0-.77-.12a.08.08,0,0,1-.07,0V135l.13-.09.22-.17.26-.18.24-.14A.51.51,0,0,1,62.72,134.36Z"/><path class="cls-1" d="M68,131.54a.27.27,0,0,1,.16-.06c.17,0,.25.11.25.32l0,.08s0,0,0,.05a8.47,8.47,0,0,1-.93.63,8.12,8.12,0,0,1-.93.47l-.13.05-.09,0c-.08,0-.14,0-.19-.15v-.19a.18.18,0,0,1,.15-.17,5,5,0,0,0,.74-.39l.24-.14.36-.22Z"/><path class="cls-1" d="M66.19,134.34l.16,0a.32.32,0,0,1,.23.13l.06.1a.23.23,0,0,0,.14.07.24.24,0,0,0,.12,0l.1-.1.08-.07.08-.07.08,0h.18l.07,0,.09,0,0,0,0,.05,0,.13,0,.12,0,0h.06a.56.56,0,0,0,.24-.07l.1-.08.11-.11,0,0,.06,0,.14-.07.12,0h.1a.07.07,0,0,1,.07,0l.07.08,0,.07a.34.34,0,0,1-.1.26l-.12.14a.27.27,0,0,1-.14.11l-.16.08-.19.08-.19.06-.34.07a.57.57,0,0,1-.28-.08l-.1-.09-.12-.11H67l-.16,0-.11.06-.23.21-.35.29-.35.26-.1.08-.13.08-.15.1-.51.28-.38.21-.15.06-.18.07-.15,0h-.28l-.12,0a.3.3,0,0,1-.15-.3.24.24,0,0,1,.15-.23h.49a1,1,0,0,0,.33-.14l.35-.17.39-.21.36-.24.28-.22.06-.07a.13.13,0,0,0,0-.08l-.13-.25v-.18s0-.05,0-.06l.07-.09A.46.46,0,0,1,66.19,134.34Z"/><path class="cls-1" d="M76.69,148.19h.2l.25.05.27.07.18.09a.41.41,0,0,1,.25.34l0,.13-.07.12-.07.1-.19.15-.64.43-.59.31-.25.11-.22,0a.23.23,0,0,1-.17-.07l-.05-.08,0-.1,0-.11s0-.06.08-.1l.21-.1.39-.17.51-.26L77,149l.15-.11,0-.06q0-.15-.39-.15l-.26,0-.31.11c-.22,0-.33-.09-.33-.28a.18.18,0,0,1,0-.15.5.5,0,0,1,.17-.11l.31-.1Zm2.21,0a1.41,1.41,0,0,1,.42.07.25.25,0,0,1,.13,0l.1,0,.18.13a.38.38,0,0,1,.14.14.49.49,0,0,1,0,.19l0,.07,0,.08-.1.12-.09.11-.1.1-.12.11-.36.28-.35.24-.31.18-.14,0-.15,0H78a.14.14,0,0,1-.09-.05l0-.1s0-.05,0-.07a.17.17,0,0,1,.06-.12l.11-.06.14-.07.22-.1.37-.21.28-.22.15-.13a.33.33,0,0,0,.06-.12.14.14,0,0,0-.1-.15h-.36l-.1,0-.11,0-.09,0h-.07l-.2,0-.07,0,0,0,0,0a.24.24,0,0,1,0-.12v-.08a.35.35,0,0,1,0-.08l.14-.1.1,0,.09,0a1,1,0,0,1,.23-.06l.16,0Z"/><path class="cls-1" d="M79.13,151.2h.08l.08,0a.32.32,0,0,1,.14.16v.15c0,.09,0,.14-.07.17l-.29.13.14.14a.43.43,0,0,1,.14.31v.14a.07.07,0,0,1,0,.05.09.09,0,0,1,0,.05.77.77,0,0,1-.39.51l-.21.12-.15,0-.18,0h-.18l-.18,0-.36-.08-.06,0-.23.19-.11.1-.13.11-.3.22-.13.08-.23.14-.21.13-.43.24-.09,0-.1,0-.18.1-.17,0a.42.42,0,0,1-.37-.21v-.06l0-.11A.18.18,0,0,1,75,154l.08-.07.07,0h.37a.58.58,0,0,0,.28-.07l.48-.25.17-.11.28-.18.18-.13L77,153l.1-.08.1-.11-.07-.13,0-.09v-.09a.33.33,0,0,1,.2-.22l.15,0h.1l.13.06a.27.27,0,0,1,.14.14v.12l0,0,.12.07.13.06h.17l.11,0,.09,0a.51.51,0,0,0,.23-.15l.06-.09,0-.08a.27.27,0,0,0,0-.16l-.07-.08-.1-.06-.09-.06-.18-.09-.18-.12,0-.07,0-.08a.13.13,0,0,1,.05-.11l.17-.07h.3l.11,0,.1-.07.09-.06.11,0Z"/><path class="cls-1" d="M83.8,148.94c0,.42-.27.77-.82,1.05a1.08,1.08,0,0,1-.55.17c-.52,0-.79-.22-.79-.67a1.09,1.09,0,0,1,.46-.87,1.48,1.48,0,0,1,1-.38.84.84,0,0,1,.29,0,.72.72,0,0,1,.24.14A.64.64,0,0,1,83.8,148.94Zm-.49.08c0-.19-.13-.28-.4-.28a.74.74,0,0,0-.49.23.7.7,0,0,0-.24.5q0,.18.24.18h.12a.83.83,0,0,0,.48-.22C83.21,149.29,83.31,149.15,83.31,149Z"/><path class="cls-1" d="M81.8,151.38l.16,0a.32.32,0,0,1,.23.13l.06.1a.23.23,0,0,0,.14.07.24.24,0,0,0,.12,0l.1-.1.08-.07.08-.07.08,0H83l.06,0,.1.05,0,0,0,0,0,.13,0,.12,0,0,0,0a.69.69,0,0,0,.25-.08l.1-.08.11-.11,0,0,.07-.05.14-.07.12,0h.1a.07.07,0,0,1,.07,0l.07.08,0,.08a.37.37,0,0,1-.1.25l-.12.14a.27.27,0,0,1-.14.11l-.16.08-.19.08-.19.06-.34.07a.57.57,0,0,1-.28-.08l-.1-.09-.12-.11h-.21l-.16,0-.12.06-.22.21-.35.29-.35.26-.1.08-.13.08-.16.1-.5.28-.38.21-.16.06-.17.07-.15,0h-.28l-.12-.05a.3.3,0,0,1-.15-.3.24.24,0,0,1,.15-.23h.49a1.09,1.09,0,0,0,.33-.14l.34-.17.4-.21.36-.24.27-.22.07-.07a.26.26,0,0,0,0-.08l-.13-.25v-.18s0-.05,0-.06l.07-.09A.44.44,0,0,1,81.8,151.38Z"/><path class="cls-1" d="M88.43,148.58a.29.29,0,0,1,.17-.06c.16,0,.24.11.24.32v.08l0,.05a7.92,7.92,0,0,1-1.86,1.1l-.12.05-.1,0c-.08,0-.14,0-.19-.15v-.19c0-.08,0-.14.16-.17a5.18,5.18,0,0,0,.73-.39l.24-.14.36-.22Z"/><path class="cls-1" d="M87.8,151l.09,0H88a.21.21,0,0,1,.12.08.22.22,0,0,1,0,.08v.07a.38.38,0,0,1-.23.27l-.12.06,0,0,.15.08a.44.44,0,0,1,.12.11.16.16,0,0,1,0,.12.38.38,0,0,1-.18.27l-.51.24.14.08.15.09a.62.62,0,0,1,0,.16v.05a.13.13,0,0,1,0,.08l-.14.13-.29.23-.32.22-.25.18-.67.46-.24.15-.21.11-.07,0-.11,0-.28.12a1.08,1.08,0,0,1-.34.1.27.27,0,0,1-.12,0l-.08,0-.06-.05a.26.26,0,0,1,0-.09,1.3,1.3,0,0,1,0-.13q0-.19.3-.27l.13,0,.1,0,.12,0,.11,0,.13,0,.18-.08.17-.1.63-.4.31-.21.43-.3-.24-.16a.26.26,0,0,1-.1-.21.16.16,0,0,1,0-.09.54.54,0,0,1,.11-.12l.2-.11.3-.14-.13-.08-.17-.1-.09-.06,0,0,0-.08v-.08l0,0,.11-.08,0,0,0,0a.44.44,0,0,0,.16-.06l.13-.05.13-.06.11-.08Z"/><path class="cls-1" d="M92.37,148.58a.29.29,0,0,1,.17-.06c.16,0,.24.11.24.32v.08a.12.12,0,0,1,0,.05,7.92,7.92,0,0,1-1.86,1.1l-.12.05-.1,0q-.12,0-.18-.15l0-.08,0-.11a.18.18,0,0,1,.15-.17,5.18,5.18,0,0,0,.73-.39,2,2,0,0,1,.25-.14l.35-.22Z"/><path class="cls-1" d="M92.45,152.14v.22l0,.1a.15.15,0,0,1,0,.09l-.12.18-.06.07a.79.79,0,0,1-.63.23h-.13l-.09,0-.07,0-.08,0-.15-.1-.15-.12-.14-.17,0-.05a.42.42,0,0,0-.14.08l-.15.13-.18.19.18.08.12.06a.37.37,0,0,1,.17.56.89.89,0,0,1-.24.24,1.45,1.45,0,0,1-.25.14l-.16.07-.31.11-.12,0-.31.07h-.22l-.1,0-.12-.05s-.05,0-.06-.07l0-.19a.31.31,0,0,1,0-.2l.07,0,.11,0h.2l.28.07h.21a.5.5,0,0,0,.37-.12l.07-.1,0-.11c0-.08-.08-.15-.23-.2l-.2-.06a.25.25,0,0,1-.16-.27.53.53,0,0,1,.12-.22l.43-.4.16-.14.24-.16.32-.18a1.92,1.92,0,0,1,1-.27l.16,0a.53.53,0,0,1,.29.22l.09.14a.53.53,0,0,1,.05.15Zm-.51.13a.23.23,0,0,0-.22-.25h-.1a.47.47,0,0,0-.17,0,.75.75,0,0,0-.18.09l-.07.07-.06.06.15.15a.34.34,0,0,0,.14.08l.06,0h.12a.42.42,0,0,0,.2-.05l.07,0,0-.07Z"/><path class="cls-1" d="M96.56,148.58a.29.29,0,0,1,.17-.06c.16,0,.24.11.24.32v.08a.12.12,0,0,1,0,.05,8.38,8.38,0,0,1-.92.63,7.49,7.49,0,0,1-.94.47l-.12.05-.1,0c-.08,0-.14,0-.19-.15v-.19a.18.18,0,0,1,.15-.17,4.57,4.57,0,0,0,.74-.39l.24-.14.36-.22Z"/><path class="cls-1" d="M93.07,153.86a.45.45,0,0,1-.3-.08.3.3,0,0,1-.09-.24v-.09a.16.16,0,0,1,.09-.14.53.53,0,0,1,.19-.06,1.62,1.62,0,0,0,.6-.14l.49-.28a.64.64,0,0,0,.28-.15l.33-.23.14-.08.14-.12-.06-.06-.12-.14-.06-.11v-.11a.27.27,0,0,1,0-.12l.08-.07a.35.35,0,0,1,.22-.1.91.91,0,0,1,.29.1l.1.05.11.07.33-.18.4-.22.21-.08a1.52,1.52,0,0,1,.42-.13.59.59,0,0,1,.19.06s.07.09.08.18v.07a.21.21,0,0,1-.08.12l-.14.09-.08,0-.23.11-.21.09-.33.09-.17,0,.27.13.2.1.1.1,0,0v.05a.15.15,0,0,1,0,.07l0,.07a.18.18,0,0,1-.09.1l-.11.05-.14,0-.09,0-.54-.27-.19.12-.19.14-.26.15-.37.23-.66.39-.27.15-.26.12-.14.05Z"/><path class="cls-1" d="M100.28,168.76c.14,0,.21.12.21.34,0,0,0,.06-.09.11l-.11.09-.17.11-.84.5-.9.52H98.3c-.15,0-.22-.09-.22-.27s.08-.19.24-.28l.36-.19.33-.19.57-.36A2.94,2.94,0,0,1,100.28,168.76Zm.28.94.07,0,.11,0a.22.22,0,0,1,.22.17l0,.14a.15.15,0,0,1-.06.13l-1.25.74-.58.33-.1,0-.1,0a.27.27,0,0,1-.2-.12l0-.09v-.09a.25.25,0,0,1,.09-.15,1.51,1.51,0,0,1,.29-.2l.49-.26.59-.34Z"/><path class="cls-1" d="M97.63,167.7a.4.4,0,0,1-.29-.08.27.27,0,0,1-.1-.24v-.09a.14.14,0,0,1,.09-.13.44.44,0,0,1,.19-.07,1.62,1.62,0,0,0,.6-.14l.5-.28a.7.7,0,0,0,.28-.15l.33-.23.13-.08.14-.12-.06-.06-.12-.13,0-.12v-.11a.79.79,0,0,1,0-.12l.08-.07a.35.35,0,0,1,.23-.1,1.11,1.11,0,0,1,.29.1l.09.05.11.07.34-.18.39-.22.21-.08a1.52,1.52,0,0,1,.42-.13.68.68,0,0,1,.2.06.22.22,0,0,1,.07.18v.07a.19.19,0,0,1-.07.12l-.15.09-.07,0-.23.11-.21.09-.34.09-.17,0,.27.13.2.11.11.09,0,0v.05a.14.14,0,0,1,0,.07l0,.08a.2.2,0,0,1-.09.09l-.11.05-.14,0-.08,0-.54-.27-.19.12-.19.14-.26.15-.37.23-.67.39-.27.15-.26.12-.14,0Z"/><path class="cls-1" d="M105.63,161.07a1.19,1.19,0,0,1,.66.2.68.68,0,0,1,.29.57,1.34,1.34,0,0,1-.47.85.3.3,0,0,1-.08.07l-.09.08-.29.22a.43.43,0,0,1-.23-.1.23.23,0,0,1-.08-.17,4.33,4.33,0,0,0,.46-.38.75.75,0,0,0,.25-.53.29.29,0,0,0-.11-.27.16.16,0,0,0-.11,0h-.2a1.84,1.84,0,0,0-1.07.51,2.11,2.11,0,0,0-.73.95l0,.13c0,.22.16.33.47.33h.07l.09-.07.19-.18a.2.2,0,0,1,.13,0c.13,0,.21.09.23.28s-.11.27-.33.39l-.13.06-.18.05a.85.85,0,0,1-.23,0,.79.79,0,0,1-.58-.25,1,1,0,0,1-.18-.28,1,1,0,0,1,0-.32,2.06,2.06,0,0,1,.87-1.33A2.43,2.43,0,0,1,105.63,161.07Z"/><path class="cls-1" d="M104,165.31a.44.44,0,0,1,.33.16.19.19,0,0,1,0,.09l0,.09.33,0,.45-.09.18-.09.09,0,.12,0a.33.33,0,0,1,.3.16l.07.16v.18l-.08.23-.06.12-.11.25a1.6,1.6,0,0,1-.37.53.37.37,0,0,1-.22.09.28.28,0,0,1-.18-.06l-.08-.08,0-.08v-.08l0,0,0,0,.11-.11.1-.12.11-.17.08-.17.07-.16h-.11l-.3,0-.48.06,0,.07-.17.18-.33.32-.29.23-.27.2-.28.18-.19.11-.43.27-.18.08-.09,0-.12,0h-.18a.39.39,0,0,1-.17-.07s0,0-.07-.12l0-.13.05-.09c0-.05,0-.08.11-.1l.17,0H102l0,0,.14-.05.16-.07.31-.17.06,0,.07-.05.13-.08.18-.12.18-.11.24-.18q.21-.18.21-.3h0a.28.28,0,0,1-.22-.22v-.12a.4.4,0,0,1,.07-.2l.06-.09.08,0,.11,0,.09,0Z"/><path class="cls-1" d="M109.63,168.93a.19.19,0,0,1,.2.13l0,.1v.07a.09.09,0,0,1,0,.07l-.08.1-.07,0-.11,0-.13.07-.23.21-.21.15-.36.23-.32.2-.19.1a1.08,1.08,0,0,1-.21.11l-.36.14-.13,0a.32.32,0,0,1-.2-.08.35.35,0,0,1-.07-.21v-.09a.13.13,0,0,1,0-.07l.05,0,.17-.09.37-.16.3-.15.22-.1.19-.11.37-.24.21-.14.19-.15.21-.12A.33.33,0,0,1,109.63,168.93Z"/><path class="cls-1" d="M109.3,164.81l.1,0h.1a.2.2,0,0,1,.13.08s0,0,0,.08V165a.4.4,0,0,1-.23.27l-.13.06.06,0,.15.08.12.11a.28.28,0,0,1,0,.12.41.41,0,0,1-.18.28l-.51.23.14.08.15.09s0,.08,0,.16v.06a.13.13,0,0,1,0,.07l-.14.13-.29.23-.32.22-.25.19-.67.45-.24.15-.22.11-.07,0-.1.05-.28.12a.86.86,0,0,1-.34.1.24.24,0,0,1-.12,0l-.08,0-.06-.05a.19.19,0,0,1,0-.09.42.42,0,0,1,0-.13q0-.19.3-.27l.13,0,.1,0,.12,0,.11,0,.13,0,.17-.08.18-.1.63-.4.31-.21.43-.3-.24-.16a.26.26,0,0,1-.1-.21.29.29,0,0,1,0-.09.66.66,0,0,1,.12-.12l.2-.1.3-.15-.13-.08-.17-.1-.09-.06,0,0,0-.08,0,0,0-.05,0,0,.11-.08,0,0,0,0a.44.44,0,0,0,.16-.06L109,165l.13-.06.11-.08Z"/><path class="cls-1" d="M121.05,173.91l.09,0h.09c.15,0,.23.11.23.32a.14.14,0,0,1,0,.13,11.51,11.51,0,0,1-1,.67l-.45.24a4.14,4.14,0,0,1-.43.2l-.21.07a.25.25,0,0,1-.11,0,.24.24,0,0,1-.08-.11l0-.06v-.09a.07.07,0,0,1,0-.05.19.19,0,0,1,.05-.12.11.11,0,0,1,0,0l.06,0a2.51,2.51,0,0,0,.75-.35A5.8,5.8,0,0,0,121.05,173.91Zm.49.87a.32.32,0,0,1,.17-.06c.16,0,.24.11.24.32a.17.17,0,0,1,0,.08.1.1,0,0,1,0,0,8.47,8.47,0,0,1-.93.63,7.57,7.57,0,0,1-.94.48l-.12,0-.1,0a.21.21,0,0,1-.18-.15l0-.09,0-.11c0-.08,0-.13.14-.17a4.57,4.57,0,0,0,.74-.39l.25-.14.35-.22A4.47,4.47,0,0,0,121.54,174.78Z"/><path class="cls-1" d="M120.25,177.53l.08,0a.22.22,0,0,1,.19.23.31.31,0,0,1-.06.12l-.13.1-.16.06.31.07.12,0,.14,0c.22,0,.33.13.33.29l0,.08-.13.1-.09.07-.13.1-.45.25-.1.07a.1.1,0,0,0,0,.07l.52.11.41.08h.14q.24,0,.24.21t-.15.27h-.44l-.21,0-.26,0-.11,0-.11,0-.7-.19-.06,0h0l0,0-.1-.06s0,0,0-.1a.21.21,0,0,1,0-.13l.1-.1.25-.17.28-.17.26-.17.17-.13-.26,0-.77-.11s-.05,0-.07-.05v-.12l.12-.1.22-.17.27-.18.24-.14A.71.71,0,0,1,120.25,177.53Z"/><path class="cls-1" d="M126,174.24h.07l.07,0a.23.23,0,0,1,.06.09l0,.12,0,.09c0,.14-.07.21-.19.21l-.35.07-.14.05-.11.06-.11,0-.09.07-.1.11-.11.12a.2.2,0,0,0,.1.14l.14.06h.65l.08,0a.2.2,0,0,1,.09.19.2.2,0,0,1-.15.2l-.19,0-.25,0h-.22l-.09,0-.27-.05a.5.5,0,0,1-.35-.2,1,1,0,0,1-.13-.44l0,.07a.11.11,0,0,1-.09.07l-.07.07-.21.15-.33.22-.23.13-.19.12-.21.08-.18.07-.13,0h-.11c-.13,0-.19-.07-.19-.22l0-.14a.22.22,0,0,1,.1-.09l.15,0,.18-.06a2.22,2.22,0,0,0,.72-.4l.15-.12.15-.14h-.79l-.08,0a.21.21,0,0,1-.15-.23.22.22,0,0,1,.2-.24l.22,0h.54a.76.76,0,0,1,.4.09s.06.07.09.12l.07.13.08.19.09-.09.06,0,0,0,.08-.05.15-.14.23-.15.42-.28A.8.8,0,0,1,126,174.24Z"/><path class="cls-1" d="M125.67,178.27v.22l0,.1a.1.1,0,0,1,0,.09l-.12.18-.06.07a.73.73,0,0,1-.62.23h-.13l-.09,0-.07,0-.08,0-.15-.09-.15-.13-.14-.17,0-.05s-.07,0-.15.08l-.15.13-.18.19.18.08.13.06a.42.42,0,0,1,.24.32.41.41,0,0,1-.08.24,1.06,1.06,0,0,1-.24.25,1.82,1.82,0,0,1-.24.13l-.16.07-.31.12-.13,0-.31.07h-.12l-.1,0-.09,0-.12-.05a.23.23,0,0,1-.07-.07l0-.19a.43.43,0,0,1,0-.2l.07-.05.11,0h.2l.29.07h.21a.49.49,0,0,0,.36-.12l.08-.1,0-.11c0-.08-.08-.14-.23-.2l-.19-.06a.26.26,0,0,1-.17-.27.53.53,0,0,1,.13-.22l.42-.4.17-.14.23-.16.32-.18a1.93,1.93,0,0,1,1-.27l.16,0a.53.53,0,0,1,.28.23l.09.13a.53.53,0,0,1,.05.15Zm-.51.13a.23.23,0,0,0-.22-.25h-.1a.47.47,0,0,0-.17,0,.62.62,0,0,0-.17.1l-.08.06-.06.06.15.15a.58.58,0,0,0,.14.08l.07,0h.11a.31.31,0,0,0,.2-.05l.07,0,0-.06Z"/><path class="cls-1" d="M129.29,173.91l.09,0h.09c.15,0,.23.11.23.32a.17.17,0,0,1,0,.13,11.51,11.51,0,0,1-1,.67l-.45.24c-.15.08-.29.14-.43.2l-.21.07a.21.21,0,0,1-.11,0,.24.24,0,0,1-.08-.11l0-.06v-.09a.07.07,0,0,1,0-.05.19.19,0,0,1,0-.12.11.11,0,0,1,0,0l.06,0a2.51,2.51,0,0,0,.75-.35A5.8,5.8,0,0,0,129.29,173.91Zm.49.87a.29.29,0,0,1,.17-.06c.16,0,.24.11.24.32a.17.17,0,0,1,0,.08.08.08,0,0,1-.05,0,8.46,8.46,0,0,1-1.86,1.11l-.12,0-.1,0q-.12,0-.18-.15l0-.09,0-.11c0-.08,0-.13.14-.17a4.57,4.57,0,0,0,.74-.39l.25-.14.35-.22A4.47,4.47,0,0,0,129.78,174.78Z"/><path class="cls-1" d="M128.8,177.51h.38a.5.5,0,0,1,.2,0l.21,0c.25.06.38.17.38.33a.52.52,0,0,1-.08.24.47.47,0,0,1-.09.12.53.53,0,0,1-.13.13l-.19.18-.22.19-.2.14-.29.19a6.34,6.34,0,0,1-.88.49l-.36.18-.18.06-.22.07-.15,0-.12,0-.06,0-.1-.07-.06-.12,0-.05c0-.15,0-.23.15-.25l.16,0h.15l.16,0,.1,0,.12,0,.14-.06.18-.09.31-.15.14-.07.24-.13.26-.14.15-.1.09-.07.14-.11a1.25,1.25,0,0,0,.16-.17l0-.05v0s0,0,0,0l-.07,0h-.07l-.17,0-.13,0h-.08l-.28,0h0l-.08,0-.09,0-.06,0H128l-.12,0a.25.25,0,0,1-.17-.22.34.34,0,0,1,0-.18.66.66,0,0,1,.17-.12l.14,0,.15,0Z"/><path class="cls-1" d="M134.27,175.07c0,.42-.27.77-.81,1.06a1.2,1.2,0,0,1-.56.16c-.52,0-.78-.22-.78-.67a1.11,1.11,0,0,1,.45-.87,1.47,1.47,0,0,1,1-.37.85.85,0,0,1,.29,0,.72.72,0,0,1,.24.14A.64.64,0,0,1,134.27,175.07Zm-.49.08c0-.18-.13-.28-.39-.28a.72.72,0,0,0-.49.23.7.7,0,0,0-.24.5c0,.12.08.18.23.18H133a.88.88,0,0,0,.48-.21C133.68,175.42,133.78,175.28,133.78,175.15Z"/><path class="cls-1" d="M136.53,177.87l.1-.11.2-.14a.55.55,0,0,1,.23-.07h.06a.22.22,0,0,1,.12.06.12.12,0,0,1,.06.08.17.17,0,0,1,0,.1.36.36,0,0,1,0,.1l-.05.08-.07.09-.12.11-.12.08-.17.11-.15.08-.14.07-.15,0-.16.05-.15,0H132l-.08.09-.15.15-.2.16-.12.1-.21.11-.09,0-.13,0-.18,0a.29.29,0,0,1-.19-.25v-.1s0-.06.11-.08a.81.81,0,0,0,.22-.09.48.48,0,0,0,.23-.13l.06-.07,0-.09h-.1a.37.37,0,0,1-.16,0l-.07-.08-.06-.11v-.17c0-.16.11-.27.32-.34h.32a.2.2,0,0,1,.11,0,.49.49,0,0,1,.28.21l.12.21H136l.22,0a.59.59,0,0,0,.23-.11l.07-.08Z"/><path class="cls-1" d="M141,174.33l.14-.06.15,0a.3.3,0,0,1,.22.06.16.16,0,0,1,.09.15.22.22,0,0,1-.08.18l-.06,0-.1,0-.19.09-.56.25c-.29.14-.44.31-.44.53a.22.22,0,0,0,.09.17l.07,0,.08,0h.37l.07,0a.09.09,0,0,0,.07,0l.09,0,.09,0a.26.26,0,0,1,.15,0l.09.11a.46.46,0,0,1,0,.14c0,.15-.16.25-.41.32l-.16,0-.15,0-.23,0-.25-.07-.13,0-.11-.07a.65.65,0,0,1-.33-.57.59.59,0,0,1,.13-.36l.12-.15.17-.16.13-.1.18-.12.3-.19Z"/><path class="cls-1" d="M137.81,180a.42.42,0,0,1-.3-.08.27.27,0,0,1-.1-.24v-.09a.14.14,0,0,1,.08-.13.44.44,0,0,1,.19-.07,1.62,1.62,0,0,0,.6-.14l.5-.28a.79.79,0,0,0,.28-.14l.33-.23.14-.09.14-.12-.07-.06-.12-.13-.05-.12V178a.79.79,0,0,1,0-.12l.09-.07a.32.32,0,0,1,.22-.09.75.75,0,0,1,.29.09l.09,0,.12.07.33-.17.4-.23.21-.08a1.4,1.4,0,0,1,.41-.13.68.68,0,0,1,.2.06.25.25,0,0,1,.08.18v.07a.28.28,0,0,1-.08.12l-.14.09-.08,0-.23.11-.21.09-.34.09-.17,0,.27.13.2.11.11.09,0,0v.05a.24.24,0,0,1,0,.08l0,.07a.18.18,0,0,1-.1.09l-.11,0-.14,0h-.08l-.54-.28-.19.12-.19.14-.26.15-.37.23-.67.39-.27.15-.26.12-.14.05Z"/><path class="cls-1" d="M145.82,174.71a.27.27,0,0,1,.17-.06c.16,0,.24.11.24.32l0,.08s0,0,0,0a8.47,8.47,0,0,1-.93.63,8.22,8.22,0,0,1-.93.48l-.12,0-.1,0c-.08,0-.14-.05-.19-.15v-.2a.18.18,0,0,1,.15-.17,5,5,0,0,0,.74-.39l.24-.14.36-.22Z"/><path class="cls-1" d="M145.18,177.1l.1,0h.1a.26.26,0,0,1,.13.08s0,0,0,.08v.07a.4.4,0,0,1-.23.27l-.13.07.06,0,.15.08.12.11a.28.28,0,0,1,0,.12.39.39,0,0,1-.18.28l-.51.23.14.08.15.1s0,.07,0,.15v.06a.13.13,0,0,1,0,.07l-.14.13-.29.23-.32.23-.25.18-.67.45-.24.15a.9.9,0,0,1-.22.11l-.07,0-.1,0-.28.12a.86.86,0,0,1-.34.1.24.24,0,0,1-.12,0l-.08,0-.06,0a.19.19,0,0,1-.05-.09.35.35,0,0,1,0-.13q0-.19.3-.27l.13,0,.1,0,.12,0,.11,0,.13,0,.17-.08.18-.1.63-.4.31-.2.43-.31-.24-.16a.26.26,0,0,1-.1-.21.29.29,0,0,1,0-.09.66.66,0,0,1,.12-.12l.2-.1.3-.15-.13-.08-.17-.1-.09-.06,0,0,0-.08,0,0,0-.05,0,0,.11-.09,0,0,.05,0,.16-.05.13-.06.12-.06.12-.08Z"/><path class="cls-1" d="M166.47,155.7h.11l.09,0,.25,0,.27.07.18.09a.43.43,0,0,1,.25.35l0,.12-.06.12-.08.1-.18.15-.65.43-.59.31-.25.11-.22,0a.25.25,0,0,1-.17-.08l-.05-.08v-.1l0-.11s0-.06.08-.1l.21-.1.39-.17.51-.26.21-.11.15-.11,0-.06q0-.15-.39-.15l-.26,0-.31.11c-.22,0-.33-.09-.33-.28a.25.25,0,0,1,0-.15.5.5,0,0,1,.17-.11l.31-.1Zm2.21,0a1.52,1.52,0,0,1,.43.07.21.21,0,0,1,.12,0l.1,0,.18.13a.38.38,0,0,1,.14.14.38.38,0,0,1,0,.19l0,.07,0,.09-.1.11-.09.11-.09.11-.13.1-.35.28-.36.24-.31.18-.14,0h-.26a.14.14,0,0,1-.09,0l0-.1a.15.15,0,0,0,0-.07.17.17,0,0,1,.06-.12l.11-.06.14-.07.22-.1.37-.2.28-.23.15-.13a.33.33,0,0,0,.06-.12.12.12,0,0,0-.1-.14l-.22,0h-.14l-.1,0-.11,0-.09,0h-.07l-.19,0-.08,0,0,0,0,0a.4.4,0,0,1,0-.12v-.08l.05-.07.14-.11.1,0,.09,0,.23-.06.16,0Z"/><path class="cls-1" d="M168.91,158.72h.16a.38.38,0,0,1,.14.16V159c0,.09,0,.14-.07.17l-.29.13.14.14a.43.43,0,0,1,.14.31V160l0,.05a.77.77,0,0,1-.39.51l-.21.12-.15,0-.18,0H168l-.18,0-.36-.08-.06,0-.23.19-.11.1-.13.11-.3.22-.13.08-.23.14-.21.13-.43.24-.09,0-.1,0-.17.1-.18,0a.42.42,0,0,1-.37-.21v-.06l0-.11a.2.2,0,0,1,.07-.16l.08-.07.06,0h.37a.55.55,0,0,0,.28-.07L166,161l.17-.11.28-.18.18-.13.11-.12.1-.08.1-.11-.07-.13,0-.09V160a.33.33,0,0,1,.2-.22l.15,0h.1l.13.06a.24.24,0,0,1,.14.14v.12l0,0,.12.08.14.05h.16l.11,0,.09,0a.51.51,0,0,0,.23-.15l.06-.09,0-.08a.42.42,0,0,0,0-.16l-.07-.07-.11-.07-.09-.06-.18-.09-.17-.12,0-.06,0-.09a.11.11,0,0,1,.06-.11l.16-.07h.3l.11-.05.1-.07.1-.06.1,0Z"/><path class="cls-1" d="M172.82,155.29l.09,0H173c.16,0,.24.1.24.32a.15.15,0,0,1-.06.13,11.51,11.51,0,0,1-1,.67l-.45.24a4,4,0,0,1-.43.19l-.21.08a.25.25,0,0,1-.11,0,.35.35,0,0,1-.08-.11v-.15s0,0,0-.05a.28.28,0,0,1,0-.12l0,0,.06,0a2.51,2.51,0,0,0,.75-.35A5.8,5.8,0,0,0,172.82,155.29Zm.5.87a.27.27,0,0,1,.16-.06c.16,0,.25.11.25.32a.15.15,0,0,1,0,.08s0,0,0,.05a8.47,8.47,0,0,1-.93.63,8.22,8.22,0,0,1-.93.48l-.13,0-.09,0c-.08,0-.14,0-.19-.15l0-.09,0-.11c0-.08,0-.13.14-.17a4.5,4.5,0,0,0,.75-.39l.24-.14.35-.22C173.05,156.35,173.19,156.26,173.32,156.16Z"/><path class="cls-1" d="M173.46,159.65c0,.23-.22.49-.66.79L172,161l-.35.21a3,3,0,0,1-1.21.53c-.29,0-.43-.1-.43-.33a.29.29,0,0,1,.15-.25.37.37,0,0,1,.21,0h0l.06,0,.07,0,0,0h.19l.14,0,.37-.2.14-.07.25-.16.15-.1c-.31-.14-.46-.31-.46-.51a.86.86,0,0,1,.33-.67l.15-.1.16-.11a1.4,1.4,0,0,1,.67-.18.93.93,0,0,1,.62.24A.48.48,0,0,1,173.46,159.65Zm-.56-.06c0-.07-.15-.1-.33-.1a.93.93,0,0,0-.51.23l-.07.08-.07.12,0,.09c0,.06,0,.11.12.17l.1,0,.08,0,.13,0,.24-.12c.24-.16.36-.29.36-.38A.11.11,0,0,0,172.9,159.59Z"/><path class="cls-1" d="M219.29,138.81h.2l.26.05.26.07.18.09a.41.41,0,0,1,.25.34l0,.13-.06.12-.08.1-.18.15-.64.43-.6.31-.25.11-.22,0a.23.23,0,0,1-.17-.07l-.05-.08v-.11l0-.1s0-.06.08-.1l.21-.1.39-.17.51-.26.21-.11.15-.11,0-.07c0-.09-.13-.14-.38-.14l-.27,0-.31.11c-.22,0-.33-.09-.33-.28a.23.23,0,0,1,.05-.15.38.38,0,0,1,.17-.11l.31-.1Zm2.21,0a1.91,1.91,0,0,1,.43.06l.12,0,.1,0,.19.13a.44.44,0,0,1,.13.14.36.36,0,0,1,0,.19l0,.07-.05.08-.1.12-.09.11-.09.1L222,140l-.35.28-.36.24-.31.18-.13,0-.15,0h-.12a.21.21,0,0,1-.09-.05l-.05-.1a.15.15,0,0,0,0-.07.17.17,0,0,1,.06-.12l.11-.06.14-.07.22-.1.37-.21.28-.22.15-.13a.31.31,0,0,0,.06-.13.13.13,0,0,0-.09-.14h-.37l-.1,0-.11,0-.08,0H221l-.19,0-.08,0,0,0,0,0,0-.12v-.08a.35.35,0,0,1,.05-.08l.14-.1.1,0,.1,0a.9.9,0,0,1,.22-.06l.17,0Z"/><path class="cls-1" d="M221.73,141.82h.09l.07,0a.32.32,0,0,1,.14.16v.15c0,.09,0,.14-.07.17l-.29.12.14.14a.47.47,0,0,1,.14.32v.19s0,0,0,0a.77.77,0,0,1-.39.51l-.21.11-.15.05-.18,0h-.18l-.18,0-.35-.08-.07,0-.22.19-.11.1-.14.11-.3.22-.13.07-.23.15-.21.13-.43.23-.09,0-.1,0-.17.1-.17,0a.39.39,0,0,1-.37-.22l0,0,0-.11a.18.18,0,0,1,.06-.16l.08-.07.06,0h.37a.55.55,0,0,0,.28-.07l.48-.25L219,144l.28-.18.18-.13.11-.12.1-.08.11-.11-.08-.14,0-.08,0-.09c0-.09.08-.16.19-.23l.15,0h.1l.14.06a.22.22,0,0,1,.13.14v.12l0,0,.12.08.14.06h.16l.11,0,.1,0a.48.48,0,0,0,.22-.15l.07-.09,0-.08a.34.34,0,0,0,0-.16l-.07-.08-.1-.06-.1-.06-.18-.09-.17-.12,0-.07,0-.08a.11.11,0,0,1,.06-.11l.16-.07h.3l.11,0,.1-.07.1-.06.1,0Z"/><path class="cls-1" d="M226.4,139.56q0,.63-.81,1.05a1.12,1.12,0,0,1-.56.17c-.52,0-.78-.22-.78-.67a1.11,1.11,0,0,1,.45-.87,1.48,1.48,0,0,1,1-.38.84.84,0,0,1,.29,0,.58.58,0,0,1,.24.14A.64.64,0,0,1,226.4,139.56Zm-.49.08c0-.19-.13-.28-.39-.28a.72.72,0,0,0-.49.23.7.7,0,0,0-.24.5c0,.12.08.18.23.18h.12a.83.83,0,0,0,.49-.22A.59.59,0,0,0,225.91,139.64Z"/><path class="cls-1" d="M225.67,142.11h.13l.08,0s.05,0,.09,0a.49.49,0,0,1,.21.28l0,.16,0,.11a.17.17,0,0,1,0,.08l0,.12-.06.23-.08.22-.07.16-.09.18a.89.89,0,0,1-.27.33l-.12,0-.06,0-.07,0-.07,0-.1-.07,0-.11a.22.22,0,0,1,0-.09.15.15,0,0,1,0-.08l.1-.14.11-.16.18-.33.06-.18a.43.43,0,0,0,0,0,.14.14,0,0,0,0-.06h0a.35.35,0,0,0-.2.07l-.16.15-.36.3-.7.54L224,144l-.29.17-.22.13-.18.06h-.14l-.14,0-.08,0a.23.23,0,0,1-.08-.2V144s0-.06,0-.07l0-.09s0-.06.14-.1l.18,0h.16l.11,0,.22-.11.35-.23.17-.13.17-.14.22-.19.23-.19.21-.2.23-.2A.62.62,0,0,1,225.67,142.11Z"/><path class="cls-1" d="M230.11,139.2a.27.27,0,0,1,.16-.06c.16,0,.24.11.24.32v.08s0,0,0,.05a8.47,8.47,0,0,1-.93.63,8.12,8.12,0,0,1-.93.47l-.13.05-.09,0a.21.21,0,0,1-.19-.15l0-.08,0-.11a.18.18,0,0,1,.15-.17,5,5,0,0,0,.74-.39l.24-.14.35-.22Z"/><path class="cls-1" d="M229.66,142h.21l.12,0c.07,0,.11.05.11.15v.11a.2.2,0,0,1-.06.15.47.47,0,0,1-.19.09l-.26,0h-.08l-.14,0-.23.07c-.08,0-.13,0-.14.1l.08.1,0,.05,0,0,0,.11a.42.42,0,0,1,0,.18v.22a.45.45,0,0,1,0,.13l-.07.13,0,.05,0,0-.07.07-.08,0-.24.11-.14,0H227.3l-.14,0-.12,0,0,0-.1-.07a.39.39,0,0,1-.12-.28.28.28,0,0,1,0-.13l.09-.1.09-.07a.62.62,0,0,1,.23-.07.16.16,0,0,1,.13.07l.07.09.12.09.13,0h.56c.19,0,.32-.05.37-.15v-.06l0-.07a.3.3,0,0,0-.06-.14l-.08-.08-.08-.11-.11-.15,0-.17a.24.24,0,0,1,0-.15l.11-.07.15-.08.14-.09.22-.1.25-.08A1.59,1.59,0,0,1,229.66,142Z"/><path class="cls-1" d="M32.34,47.57l-.68.76-1.17-1a3.77,3.77,0,0,1-1.88.49c-2.39,0-3.82-1.91-3.82-4.19s1.43-4.18,3.82-4.18,3.83,1.9,3.83,4.18a4.31,4.31,0,0,1-1.13,3.07ZM28.7,45.76l.68-.77,1,.85A3.48,3.48,0,0,0,31,43.61c0-1.53-.71-3-2.43-3s-2.42,1.51-2.42,3,.71,3,2.42,3a2,2,0,0,0,.9-.19Z"/><path class="cls-1" d="M33.46,41.07c1.08,0,2.09-.35,2.28-1.29h1v7.83h-1.4V42.08H33.46Z"/><path class="cls-1" d="M46.38,107.15l-.68.76-1.17-1a3.76,3.76,0,0,1-1.88.48c-2.39,0-3.82-1.9-3.82-4.18S40.26,99,42.65,99s3.83,1.9,3.83,4.18a4.31,4.31,0,0,1-1.13,3.06Zm-3.64-1.81.67-.78,1,.85a3.46,3.46,0,0,0,.69-2.22c0-1.53-.71-3-2.43-3s-2.42,1.51-2.42,3,.71,3,2.42,3a2.21,2.21,0,0,0,.9-.19Z"/><path class="cls-1" d="M52.69,107.18H47.34a3.49,3.49,0,0,1,1.73-3c1-.74,2.33-1.36,2.36-2.57a1.24,1.24,0,0,0-1.32-1.39c-1,0-1.31.86-1.35,2H47.49c0-1.74.95-3,2.69-3a2.32,2.32,0,0,1,2.52,2.4A3.29,3.29,0,0,1,51,104.24c-.91.63-1.86,1.11-2.08,1.8h3.81Z"/><path class="cls-1" d="M65.93,160.61l-.68.76-1.16-1a3.76,3.76,0,0,1-1.88.48c-2.39,0-3.83-1.9-3.83-4.18s1.44-4.19,3.83-4.19S66,154.37,66,156.65a4.26,4.26,0,0,1-1.13,3.06Zm-3.63-1.82L63,158l1,.85a3.41,3.41,0,0,0,.7-2.22c0-1.53-.72-3-2.43-3s-2.43,1.51-2.43,3,.72,3,2.43,3a2.16,2.16,0,0,0,.89-.19Z"/><path class="cls-1" d="M69,156.05c.85,0,1.74-.26,1.74-1.23a1.12,1.12,0,0,0-1.22-1.1,1.39,1.39,0,0,0-1.3,1.6H67a2.55,2.55,0,0,1,2.59-2.67,2.24,2.24,0,0,1,2.47,2.1,1.64,1.64,0,0,1-1.11,1.67v0a1.84,1.84,0,0,1,1.43,2,2.78,2.78,0,0,1-5.53-.33h1.28a1.43,1.43,0,0,0,1.47,1.66,1.36,1.36,0,0,0,1.5-1.39c0-1.22-1-1.38-2-1.33Z"/><path class="cls-1" d="M156.53,185.36l-.69.76-1.16-1a3.87,3.87,0,0,1-1.88.48c-2.39,0-3.82-1.9-3.82-4.19s1.43-4.18,3.82-4.18,3.83,1.9,3.83,4.18a4.31,4.31,0,0,1-1.13,3.07Zm-3.64-1.81.67-.77,1,.85a3.47,3.47,0,0,0,.69-2.23c0-1.53-.72-3-2.43-3s-2.42,1.51-2.42,3,.71,3,2.42,3a2.21,2.21,0,0,0,.9-.19Z"/><path class="cls-1" d="M162.89,183.54h-1v1.86h-1.21v-1.86h-3.36v-1.26l3.36-4.71h1.21v5h1Zm-4.58-1h2.37v-3.44h0Z"/><path class="cls-1" d="M223,161.43l-.69.76-1.16-1a3.76,3.76,0,0,1-1.88.48c-2.39,0-3.82-1.9-3.82-4.18s1.43-4.19,3.82-4.19,3.83,1.91,3.83,4.19a4.31,4.31,0,0,1-1.13,3.06Zm-3.64-1.81.67-.78,1,.85a3.41,3.41,0,0,0,.7-2.22c0-1.53-.72-3-2.43-3s-2.43,1.51-2.43,3,.72,3,2.43,3a2.21,2.21,0,0,0,.9-.19Z"/><path class="cls-1" d="M224.85,153.63h4.05v1.14h-3.1l-.4,2,0,0a2,2,0,0,1,1.44-.6,2.39,2.39,0,0,1,2.45,2.62,2.66,2.66,0,0,1-2.7,2.81,2.46,2.46,0,0,1-2.74-2.38h1.27a1.34,1.34,0,0,0,1.44,1.31c1.09,0,1.46-.77,1.46-1.72a1.46,1.46,0,0,0-1.49-1.63,1.21,1.21,0,0,0-1.26.71H224Z"/></g><g id="lines"><line class="cls-4" x1="0.08" y1="0.18" x2="300.84" y2="140.77"/><polyline class="cls-4" points="12.65 64.83 130.5 61.53 22.11 138.15"/><polyline class="cls-4" points="74.5 178.7 182.46 85.5 196.46 178.03"/></g></g></g></svg>