<svg xmlns="http://www.w3.org/2000/svg" viewBox="0 0 64.92 106.42"><defs><style>.cls-1{fill:#f1f2f2;}.cls-1,.cls-2{fill-rule:evenodd;}.cls-2{fill:#396287;}.cls-3{fill:#383838;}</style></defs><title>GN</title><g id="Layer_2" data-name="Layer 2"><g id="Layer_1-2" data-name="Layer 1"><g id="R1"><path class="cls-1" d="M63.43,47.72a24.63,24.63,0,0,0-3.69-7.23c-6-7.87-13.39-18.93-17.88-28.25S37.13,0,32.62,0,25.39,4,20.8,7.38,9.38,11.1,8.45,19.13,14.93,30.2,21.73,39s7.52,15.79,3.64,24.62-9.31,17.83-1.2,27.32,11.35,13.11,15.33,15,10.12-1.08,11.26-9.47S61.42,69.54,63.58,64l.1-.23c1.51-3.75,1.9-10-.25-16.07"/><path class="cls-2" d="M37.51,28.94a1.78,1.78,0,0,0-1.67-.8,3.68,3.68,0,0,0-3.32,2.67,4.54,4.54,0,0,0,1,3.45,9,9,0,0,0,2.75,1.85c2.26,1.72,3.84,4.72,5.41,7.28C42.86,45,44.21,45.71,47,45.86c2.27-.68,2.66-2.21,1.45-4.22-1.34-1.83-2.8-2.27-3.83-4.13-.59-1.09-1.85-1.06-3.72-3.27-.68-1.91-3.89-3.46-3.36-5.3"/><path class="cls-2" d="M38,28.09A3,3,0,0,0,35.41,27a5.81,5.81,0,0,0-4.17,3.58c-.61,2.6.74,4.16,3,5.88a54.29,54.29,0,0,1,8,9.19c2.47,1.79,2.32,1.18,5.19,1.51,3.08-.93,3.89-2.76,2.89-5.27C46.76,37.1,40.86,33.45,38,28.09"/></g><g id="Labels"><path class="cls-3" d="M28.41,40.5l.15,0,.16,0a.41.41,0,0,1,.2.13,1.11,1.11,0,0,1,0,.13v.11a.68.68,0,0,1-.36.42l-.2.1.09.06.23.13a.65.65,0,0,1,.19.17.36.36,0,0,1,0,.19.62.62,0,0,1-.27.42l-.8.37.22.13.23.14a1.65,1.65,0,0,1,0,.25v.08a.19.19,0,0,1,0,.12l-.22.21-.45.35-.5.36-.39.28-1.06.71a3.6,3.6,0,0,1-.37.24l-.33.17-.11,0-.17.08-.43.18a1.44,1.44,0,0,1-.54.16.46.46,0,0,1-.2,0,.44.44,0,0,1-.12-.06L23.37,46a.57.57,0,0,1-.08-.13,1.12,1.12,0,0,1,0-.21c0-.21.15-.35.47-.43a.56.56,0,0,0,.2,0l.15,0,.19,0,.17-.06a1.27,1.27,0,0,0,.21-.07l.28-.12.26-.16,1-.62.48-.33.67-.48L27,43a.4.4,0,0,1-.16-.32.25.25,0,0,1,0-.14,1,1,0,0,1,.18-.2l.31-.16L27.8,42l-.2-.14-.27-.15-.13-.09-.07-.06-.07-.12,0-.06,0-.07.06-.06.17-.14,0,0,.08,0a1.45,1.45,0,0,0,.25-.09l.21-.09a.84.84,0,0,0,.19-.09l.18-.13Z"/><path class="cls-3" d="M28.46,36.09h.4l.14,0a1.34,1.34,0,0,1,.75.18.56.56,0,0,1,.26.49,1.41,1.41,0,0,1-.48.84l-.29.32-.38.32a3.12,3.12,0,0,1-.38.27,3.61,3.61,0,0,1-.44.22l-.68.29-.34.15-.23,0s-.1,0-.19-.16l-.05-.1-.06-.12a.41.41,0,0,1,.08-.25.8.8,0,0,1,.28-.19l.29-.09.34-.11a1.55,1.55,0,0,0,.35-.14A1.72,1.72,0,0,0,29,37l-.07,0-.07,0-.26,0-.18,0-.2,0H28l-.11,0L27.7,37l-.12.07-.12,0h-.18a.29.29,0,0,1-.18-.07L27,36.88l0-.15a.31.31,0,0,1,.16-.29,3.3,3.3,0,0,1,.64-.26A3,3,0,0,1,28.46,36.09Z"/><path class="cls-3" d="M24.45,42.33c0,.35-.34.77-1,1.23l-1.27.85-.54.33a4.88,4.88,0,0,1-1.91.84c-.44,0-.66-.18-.66-.52a.48.48,0,0,1,.23-.41.66.66,0,0,1,.34-.06h.06l.1,0,.11,0,.06,0h.18l.13,0,.21-.06.58-.31.22-.12.4-.24.22-.16c-.47-.21-.71-.48-.71-.8a1.35,1.35,0,0,1,.51-1l.23-.16.25-.18a2.35,2.35,0,0,1,1.06-.27,1.5,1.5,0,0,1,1,.37A.76.76,0,0,1,24.45,42.33Zm-.87-.1c-.06-.11-.24-.16-.52-.16a1.37,1.37,0,0,0-.8.37l-.11.12-.11.18-.05.15a.33.33,0,0,0,.19.26.28.28,0,0,0,.15.05l.13,0,.21,0,.37-.19c.38-.25.57-.44.57-.6A.16.16,0,0,0,23.58,42.23Z"/><path class="cls-3" d="M25,36.76a.41.41,0,0,1,.26-.1c.25,0,.38.17.38.5l0,.12a.17.17,0,0,1-.07.08,15.56,15.56,0,0,1-1.45,1,11.9,11.9,0,0,1-1.47.74l-.19.07-.15,0A.36.36,0,0,1,22,39l0-.13,0-.18c0-.13.08-.21.24-.26a10.91,10.91,0,0,0,1.16-.62l.37-.22c.2-.11.38-.23.56-.34S24.85,36.9,25,36.76Z"/><path class="cls-3" d="M19.14,41.32h.2l.13,0a.33.33,0,0,1,.13.07.65.65,0,0,1,.33.44l.06.24,0,.17a.45.45,0,0,1,0,.13l0,.2-.1.35-.12.34-.11.26-.15.28a1.28,1.28,0,0,1-.42.52l-.18,0-.11,0a.28.28,0,0,1-.11,0l-.11,0-.16-.11,0-.18a.41.41,0,0,1,0-.14.57.57,0,0,1,.07-.13l.17-.22.16-.24.29-.53.09-.28s0,0,0-.08a.11.11,0,0,0,0-.08l-.08,0a.56.56,0,0,0-.31.11l-.25.23-.57.47L16.84,44l-.4.28-.45.27-.35.2-.29.1-.22,0-.2,0-.13,0a.31.31,0,0,1-.13-.3v-.16s0-.09,0-.11l.06-.15s.09-.09.22-.16l.29,0h.24l.17-.05.35-.18.55-.36.27-.2.27-.22.34-.3.35-.3.34-.31.35-.31A1,1,0,0,1,19.14,41.32Z"/><path class="cls-3" d="M20.36,37.31c0,.66-.42,1.21-1.27,1.66a1.9,1.9,0,0,1-.87.26c-.82,0-1.23-.35-1.23-1.06a1.72,1.72,0,0,1,.71-1.36,2.32,2.32,0,0,1,1.5-.59,1.26,1.26,0,0,1,.46.08.85.85,0,0,1,.37.21A1,1,0,0,1,20.36,37.31Zm-.77.13c0-.29-.2-.44-.61-.44a1.09,1.09,0,0,0-.77.37,1.08,1.08,0,0,0-.38.78c0,.18.13.27.38.27h.18a1.38,1.38,0,0,0,.76-.33A.9.9,0,0,0,19.59,37.44Z"/><path class="cls-3" d="M13,41.14h.18a.3.3,0,0,1,.15,0h.14l.13,0a.67.67,0,0,1,.31.05l.33.08c.39.09.59.26.59.52a.7.7,0,0,1-.12.37,1.21,1.21,0,0,1-.14.2l-.2.2-.3.28-.36.29-.3.22-.46.31a12.22,12.22,0,0,1-1.37.76l-.57.28-.28.1-.34.11-.24,0L10,45l-.11-.06-.15-.11-.1-.19,0-.08c0-.24.08-.37.23-.4l.26,0,.22,0,.26,0,.16,0,.18,0,.22-.1.29-.15.47-.23.23-.1.37-.2.41-.23.24-.16.14-.11.21-.17a2.12,2.12,0,0,0,.26-.26l.07-.09,0,0a.08.08,0,0,0,0-.07L13.71,42l-.11,0-.26,0-.21,0L13,42l-.43.06-.06,0-.13.06-.13,0-.1,0h-.32l-.19,0a.44.44,0,0,1-.27-.35.55.55,0,0,1,.06-.28,1.11,1.11,0,0,1,.27-.19l.23-.07.23-.08Z"/><path class="cls-3" d="M14,36.09h.4l.14,0a1.34,1.34,0,0,1,.75.18.57.57,0,0,1,.27.49,1.44,1.44,0,0,1-.49.84l-.29.32-.38.32a3.12,3.12,0,0,1-.38.27,3.61,3.61,0,0,1-.44.22l-.68.29-.34.15-.23,0s-.1,0-.19-.16l-.05-.1-.06-.12a.41.41,0,0,1,.08-.25.8.8,0,0,1,.28-.19l.29-.09L13,38.2a1.55,1.55,0,0,0,.35-.14,1.72,1.72,0,0,0,1.12-1l-.07,0-.07,0-.26,0-.18,0-.2,0h-.2l-.11,0-.16.09-.12.07-.12,0h-.18a.29.29,0,0,1-.18-.07l-.12-.18,0-.15a.31.31,0,0,1,.16-.29,3.3,3.3,0,0,1,.64-.26A3,3,0,0,1,14,36.09Z"/><path class="cls-3" d="M8.59,41h.08l.1,0,.22.18a.29.29,0,0,1,.12.24,2.39,2.39,0,0,1-.49.53l1.76,0s0,0,0,0l0,.06a.29.29,0,0,1,.11.16c0,.15-.19.35-.58.59l-.88.52-.65.38-1,.67L6,45.11l-.81.36-.26.09-.27.07-.34.08a.75.75,0,0,1-.29,0l-.15-.08a.54.54,0,0,1-.16-.44c0-.13.1-.24.3-.3l.3,0a2.57,2.57,0,0,0,.55-.06,2.85,2.85,0,0,0,.56-.19l.13-.05.2-.1.53-.23,2.63-1.51-2.36,0a.37.37,0,0,1-.08-.14.88.88,0,0,1,0-.26l.06-.14.17,0L6.87,42l.3-.15.54-.25.38-.2a.27.27,0,0,0,.16-.17.55.55,0,0,1,.1-.14l.1,0Z"/><path class="cls-3" d="M10.38,36.76a.39.39,0,0,1,.26-.1c.25,0,.38.17.38.5l0,.12s0,0-.07.08a15.56,15.56,0,0,1-1.45,1A12.64,12.64,0,0,1,8,39.09l-.19.07-.15,0c-.13,0-.22-.08-.3-.23l0-.13,0-.18c0-.13.08-.21.24-.26a10.2,10.2,0,0,0,1.15-.62l.38-.22c.2-.11.38-.23.56-.34Z"/><path class="cls-3" d="M4.47,41.32h.2l.13,0a.33.33,0,0,1,.13.07.64.64,0,0,1,.34.44l.05.24,0,.17a.39.39,0,0,1,0,.13l0,.2-.09.35-.13.34L5,43.54l-.14.28a1.46,1.46,0,0,1-.42.52l-.19,0-.1,0a.23.23,0,0,1-.11,0l-.11,0-.16-.11,0-.18a.49.49,0,0,1,0-.14.41.41,0,0,1,.08-.13l.16-.22.17-.24.28-.53.1-.28a.38.38,0,0,0,0-.08.11.11,0,0,0,0-.08l-.07,0a.53.53,0,0,0-.31.11l-.26.23-.56.47L2.17,44l-.4.28-.45.27-.34.2-.29.1-.22,0-.21,0-.12,0a.31.31,0,0,1-.14-.3v-.16a.27.27,0,0,1,0-.11L.08,44a.57.57,0,0,1,.22-.16l.29,0H.83L1,43.79l.35-.18.55-.36.26-.2.27-.22.34-.3.36-.3.33-.31.35-.31A1,1,0,0,1,4.47,41.32Z"/><path class="cls-3" d="M5.7,37.31c0,.66-.42,1.21-1.27,1.66a1.9,1.9,0,0,1-.87.26c-.82,0-1.23-.35-1.23-1.06A1.72,1.72,0,0,1,3,36.81a2.32,2.32,0,0,1,1.5-.59A1.26,1.26,0,0,1,5,36.3a.85.85,0,0,1,.37.21A1,1,0,0,1,5.7,37.31Zm-.77.13c0-.29-.2-.44-.61-.44a1.08,1.08,0,0,0-.77.37,1.08,1.08,0,0,0-.38.78c0,.18.13.27.37.27h.19a1.38,1.38,0,0,0,.76-.33A.9.9,0,0,0,4.93,37.44Z"/><path class="cls-3" d="M42.42,56.24h6c2.74,0,4.14,1.26,4.14,3.38a3,3,0,0,1-2.07,3.16v0c.76.11,1.86.67,1.86,2.65a5.73,5.73,0,0,0,.68,3.3H50.66a3.45,3.45,0,0,1-.34-1.84c0-2.3-.47-3.32-2.49-3.32H44.61v5.16H42.42Zm2.19,5.7H48.2c1.39,0,2.14-.69,2.14-2,0-1.6-1-1.91-2.17-1.91H44.61Z"/><path class="cls-3" d="M54.35,58.52c1.69,0,3.28-.56,3.58-2h1.63V68.76H57.37V60.1h-3Z"/></g></g></g></svg>