<svg xmlns="http://www.w3.org/2000/svg" viewBox="0 0 279.77 159.55"><defs><style>.cls-1{fill:#f1f2f2;}.cls-2{fill:#396287;fill-rule:evenodd;}.cls-3{fill:none;stroke:#1a1a18;stroke-miterlimit:22.93;stroke-width:0.54px;stroke-dasharray:4.88 2.44;}.cls-4{fill:#383838;}</style></defs><title>HA</title><g id="Layer_2" data-name="Layer 2"><g id="Layer_1-2" data-name="Layer 1"><g id="A3"><path class="cls-1" d="M139.25,138.36l-4.88,20.93H87.15c-1.46-7.15-1.87-13.1,4.3-15.59,1.82-.73.61-3,2.29-4.34,1.61-2.61,3.22-5.22,4.88-7.83.85-4.63,4.31-6.29,8.65-3.39,3.69,2.44,6.34.66,8.34,2.73,4.13,3.57,9,5.32,16.32,1.08a12.09,12.09,0,0,1,2.24.24,21.63,21.63,0,0,0,3,.66c-.61,0-1,.39-.9,1.34A7.68,7.68,0,0,0,139.25,138.36Z"/><path class="cls-2" d="M105.27,132.83a2.58,2.58,0,0,0-3.47-1.15l-.21.12a11.75,11.75,0,0,0-5.17,3.46,44.06,44.06,0,0,0-1.34,9.05A5.81,5.81,0,0,0,98.37,150a10,10,0,0,0,7.32-.58,3.83,3.83,0,0,0,2.44-4.51c-.66-1.69-.73-3.76-1.3-5.42a16.36,16.36,0,0,1-1.56-6.7"/><path class="cls-2" d="M140.61,132.83v.24l-1.36,5.29a7.66,7.66,0,0,1-3-4.17c0-.95.29-1.27.9-1.34A33.61,33.61,0,0,0,140.61,132.83Z"/><path class="cls-1" d="M119.54,67.39a17.07,17.07,0,0,0-4.68,13.29A20.1,20.1,0,0,1,107,99.49c-12.41,6.87-14.63,4.29-21,1.61,0-3.15-3.8-11-13.51-15.47-1-.46-2.71-4.87-4.76-9.46l43.9-36.8a21.09,21.09,0,0,1,4,9.76l3.27,3.75C123.52,56.54,126.64,60.56,119.54,67.39Z"/><path class="cls-2" d="M74,85.63c-2.27-.58-3-3.12-3.24-5.92a8.15,8.15,0,0,0-1.78-3.15,5.82,5.82,0,0,1-.71-.78L73,71.86a40,40,0,0,0,4.49,10.46C78.47,85.12,77.15,86.71,74,85.63Z"/><path class="cls-2" d="M106.61,96.63a.88.88,0,0,1,.62,1.08,1.08,1.08,0,0,1-.08.19c.49.66,1.29.83,1.68-.39.27-2.27-1-2.73-2.43-2.78a100.49,100.49,0,0,1-11.64.44,20.76,20.76,0,0,1-8.63-5.61c-2.64-2.22-5.66-.83-5.71,1.42,0,3.14,2.17,4.7,4.49,7.92A20.69,20.69,0,0,0,91.25,104a10.37,10.37,0,0,0,9-1.12,18,18,0,0,1,4.12-3.36c1-1.2.34-1.25-.64-1.25a19.21,19.21,0,0,1-6.7.76,13.23,13.23,0,0,1-5.88-1.54c-1.46-1.29-1.34-1.58.29-.83a18.21,18.21,0,0,0,8.2.56,27.47,27.47,0,0,1,6.95-.61Z"/><path class="cls-2" d="M86.28,79.9a2,2,0,0,0-3.69.27,17.82,17.82,0,0,0-.88,4.39,1.8,1.8,0,0,0,1.54,2,1.72,1.72,0,0,0,.9-.12,5.34,5.34,0,0,0,3.44-1,2.44,2.44,0,0,0,.2-2.12c-.51-1.29-1-2.17-1.49-3.44Z"/><path class="cls-2" d="M89.62,78.1A1.48,1.48,0,0,1,91,79.39c0,.64-.41,1-1.19,1s-1.56-.34-1.37-1.12S89,78.1,89.62,78.1Z"/><path class="cls-2" d="M97.64,89.9a1.07,1.07,0,0,1,1.17.91c0,.51-.51.8-1.15.92a.94.94,0,0,1-1.14-.7,1.38,1.38,0,0,1,0-.2C96.49,90.22,97,89.9,97.64,89.9Z"/><path class="cls-2" d="M91.25,59.66c1.76.51,2.07,1.25,2.22,2.29a2,2,0,0,1-1.77,2.21h-.11c-1,0-1.41-.56-2.27-2.12s.17-2.88,1.93-2.44Z"/><path class="cls-2" d="M122.71,55.91a2.43,2.43,0,0,1-4.19,1.7,32.79,32.79,0,0,1-1.71-4.48c-.73-1.54-1.93-2.74-2.76-4.2a21.77,21.77,0,0,1-4.7-7.56l2.09-1.78.44.22a36.09,36.09,0,0,0,3.69,3.41c2,1.13,2.43,4.27,3.73,6.2A17,17,0,0,1,122.71,55.91Z"/><path class="cls-2" d="M113.88,87.39a26,26,0,0,1-1.75-2.1c0-.41.51-.68.63-1.09a1.54,1.54,0,0,0-.78-.47c-.8,0-.76,1-.8,1.49a4.22,4.22,0,0,0,2,2.73C113.66,88,114,88,113.88,87.39Z"/></g><g id="A1"><path class="cls-1" d="M111.71,39.37l-43.9,36.8c-1.78-3.9-3.8-7.78-5.9-9C46.79,59.86,34.74,55.44,28.18,46.88A32.38,32.38,0,0,1,22,36.74c.78-4.88,0-8.88,2.08-12.2s7.17-5.26,10.8-6.17A51.56,51.56,0,0,1,48.6,12.06c2.92-.93,5.95-.35,9-1,8.61-1.71,15-3,19.52-1.08,3.41,1.56,7,6.1,9.58,9.22a45,45,0,0,0,9.76,9.07A33,33,0,0,1,111.71,39.37Z"/><path class="cls-2" d="M82.59,15.76a14.14,14.14,0,0,0-1-1.12c-1.07-1.14-2-1.46-2.44.44a10,10,0,0,0,1.56,6,8.49,8.49,0,0,0,4.88,3.61,2.87,2.87,0,0,0,2.93-2.58c0-1.22-1.32-2-2.44-3.1Z"/><path class="cls-2" d="M73,71.86l-4.73,4c-1.68-2.1-2.44-5.1-3.56-5.69-1.34-1.24-3.29-1.29-4.88-2.43a34.79,34.79,0,0,0-4.63-3.08c-3.88-2.73-6.3-4-9.76-6.7a21.69,21.69,0,0,0-10.49-4.56h.15a12.49,12.49,0,0,1-4.88-3.15c-2.44-4-6.9-6.85-8.8-11.17a20.87,20.87,0,0,1-.93-4.27,10,10,0,0,1,.32-6.53A20.15,20.15,0,0,1,27,20.91,22.54,22.54,0,0,1,34.5,18.2a22.63,22.63,0,0,0,5.27-2.92,15.44,15.44,0,0,1,6-2,6.16,6.16,0,0,1,3.19,0c.49.37.27.61-.19.78a10.82,10.82,0,0,1-2,.37A26.37,26.37,0,0,0,37,18.62a17.79,17.79,0,0,1-3.59,1.46l-.8.24a12.69,12.69,0,0,0-6.42,3.56,9.84,9.84,0,0,0-2.71,4.3c-.24,1.39,0,2.92-.17,4.36a8,8,0,0,0,.37,4.22,13,13,0,0,0,2.17,3.54,21.68,21.68,0,0,0,7.71,5.58c1.44.34,2.44.27,1.68-1.19-.41-.69-1.22-1.3-1.63-2-.56-1.29.36-1.83,1.53-1.22a25.08,25.08,0,0,1,3,2.64,11.06,11.06,0,0,0,4,.87,3.93,3.93,0,0,1,3.83,2.64,51.27,51.27,0,0,0,5.39,4.24c1.41,1.2,2.73.68,3.95,1.27a17.9,17.9,0,0,1,4.88,6.27,7.3,7.3,0,0,0,3.27,1.73c2.73.41,3.61,2.44,5.56,3.76a3.89,3.89,0,0,1,2.75,3.46C72.33,69.54,72.62,70.71,73,71.86Z"/><path class="cls-2" d="M88.28,51.15c.9,0,1.46,1.05,1.8,2.44A1.9,1.9,0,0,1,88.79,56a2,2,0,0,1-.54.08,2.45,2.45,0,0,1-2.1-2.44C86.15,52.22,87.35,51,88.28,51.15Z"/><path class="cls-2" d="M88.28,46.81c.7.19.8.37,1,1.15s-.24,1.29-1,1.14-.88-.29-1-1.14S87.57,46.59,88.28,46.81Z"/><path class="cls-2" d="M81.59,52.35c.54,0,.86,1.17.86,2.21a1.83,1.83,0,0,1-1,1.91c-.64.22-1.42-.56-1.37-1.83S81,52.35,81.59,52.35Z"/><path class="cls-2" d="M75.18,61.08c.68,0,.61.7.61,2s.58.59-.42,1.24c-.58.39-1.41-.63-1.41-1.46S74.5,61.08,75.18,61.08Z"/><path class="cls-2" d="M111.44,39.59l-2.09,1.78V41.2C109,39.64,109.79,38.86,111.44,39.59Z"/><path class="cls-2" d="M104.83,35.27c1.71-.24,1.93,0,2.59,1.1s.54,2.44-.34,2.64-.78,0-2.29-1.35-1.66-2.17,0-2.44Z"/><path class="cls-2" d="M95.35,31.23c.29-.27.46.26,1,.8a4.81,4.81,0,0,0,1.29.85c1.44.83,2.44,1.47,1.37,2s-1.34,0-2.44-.8-1.59-2.44-1.1-2.9Z"/><path class="cls-2" d="M33.16,19.76a.26.26,0,0,0-.22.15,11.13,11.13,0,0,0-.85,1,2.1,2.1,0,0,0-.52,1.83.81.81,0,0,0,.56.66c.37,0,.54-.44.69-.78a3.64,3.64,0,0,0,.46-1.44,5.61,5.61,0,0,1,0-.58v-.32a1.46,1.46,0,0,0-.12-.51Z"/><path class="cls-2" d="M61.2,19.08c-1.46-.34-1.58-1.46-.26-3,.7-.85,4.34-2.17,3.75.15-1.1.56-.73.95-1.19,1.85s-.34.54-1.52,1Z"/><path class="cls-2" d="M68.79,14.45c-.64,0-1-.95-.9-1.71a4.19,4.19,0,0,1,.22-.59,3.92,3.92,0,0,0,.29-.29c2-.12,3.75-.51,3.58,1.93a8.25,8.25,0,0,0-2.22,0l-.36.44Z"/></g><g id="A2"><path class="cls-1" d="M140.56,133.12a16.29,16.29,0,0,0,2.61-.29,12.72,12.72,0,0,0,8.81-5.3c10.29-4.87,9.36-15.46,12.19-17l4.59-1.75c1.14-3.27,2.26-6.56,3.41-9.76,5.49-4.68,11.78-9.75,19.66-11.26a72.79,72.79,0,0,0,18.85-8.3h.44l13.78,1.22h1c1.54,5.56,5.17,9.76,7.1,14.64a19.05,19.05,0,0,1,1.14,4.53c-.56,6.17-1,12.2-1.61,18.49v.24c5.15.34,5.81,5.49,8.91,13.51,2.29,4.44,2,7.51-1.83,9.25-8.25,1.85-14.64,4.41-16.68,8.46-2.44,3.17-5.2,6.07-7.32,9.17H134.37l4.88-20.93"/><path class="cls-2" d="M223.85,84.56a4.13,4.13,0,0,0-3.73-3.68c-5.64,1.32-11.17,5.41-16.78,9.19-.93,1.93,0,3,1.31,4.1A21.29,21.29,0,0,0,218,93a16,16,0,0,0,3.56-4A10.68,10.68,0,0,0,224,84.61Z"/><path class="cls-2" d="M222.68,74.76a5.41,5.41,0,0,1,2.09.56,1,1,0,0,0-.21.41c0,.78-2.61,2-1.76,2.22.15.83,1.49,2.08,2.44,3.27a12.6,12.6,0,0,1-.22,5.63c-.78.32-1.73,2.1-2.66,2-.56.34-.46.68.24,1,1.08-.32,1.81-2,2.71-2,.34-1.19-.22-2,.15-3.19a3,3,0,0,0,.73-1,20,20,0,0,1-2.44,6A17.79,17.79,0,0,1,208.9,97c-6.73-.63-8.42-3-9.51-5.8-.81-1.1-.83-2.64,1.22-4.39,7.12-5.27,15.95-11.59,21.95-12Z"/><path class="cls-2" d="M180.14,97.12c-1.78,2.17-2,4.17-.34,5.83a38.23,38.23,0,0,0,16.2,8.32c8.19,1,10.29-4.25,7-6.88a25,25,0,0,1-5.75-8.83,7.33,7.33,0,0,0-8.46-2.78A17,17,0,0,0,180.14,97.12Z"/><path class="cls-2" d="M228.94,96.68c-1.82,1.17-1.7,2.1.37,2.61a4.89,4.89,0,0,1,3.24,1.15,61.77,61.77,0,0,1-1.36,11.17c-1.15,2.07-2.44,3-3.78,1.12s-3.73-2.8-4.2-6.37a54.85,54.85,0,0,1,1.81-5.43c.24-2.17-.93-2.44-1.46-1.13a8.13,8.13,0,0,0-1.39,7,23.79,23.79,0,0,0,6.68,13.66,5.64,5.64,0,0,0,1.46,1,4.22,4.22,0,0,1-1.61-3.75c0-1.39,1-.22,2.24,0,.47.51.74.46,1.1,1.07,1.05.22,1.1-.42,1.71-1s.17-.68-.32-1.29c0-.49.37-.73.66-1.07.88-1,.71-2.69,1.1-4.13.24-.56.46-.66.71-.29A83.15,83.15,0,0,0,235,96.54c-1.34-1.22-3.31-1.17-5.92.22Zm2.15,25.07a4.48,4.48,0,0,0,1.15.15A6.35,6.35,0,0,1,231.09,121.75Z"/><path class="cls-2" d="M176.46,111.41c-1.34-2-2.9-2.44-4.7-1.41a8.77,8.77,0,0,0-3,3.32,2.11,2.11,0,0,0,.77,2.89,2.3,2.3,0,0,0,.32.15,16.22,16.22,0,0,0,6.81,3.15c.8,0,2.92-1.34,2.12-3.07s-1.32-3-2.27-4.88Z"/><path class="cls-2" d="M168.51,120.41a3.91,3.91,0,0,0-4.49.44c-.58,1-1.63,2.05-2.22,3.07s0,2.1,1.25,2.71c1.71,1.85,5.95,2.76,10.39,1.76,2.12-.47,2.27-2,.88-3.47A19.77,19.77,0,0,0,168.51,120.41Z"/><path class="cls-2" d="M144.68,140c-.43.87-1.29.7-2.19.39a12.14,12.14,0,0,1-3.17-2l1.24-5.24v-.25h.54a3.65,3.65,0,0,1,2,0c1.42.57,1.93,2.13.81,4C143.49,137.7,145.15,139.07,144.68,140Z"/><path class="cls-2" d="M221,143.78a6.14,6.14,0,0,1,2.22.29c-1.22.44-1.85.9-2,2,.56.56,1.46.83,2,1.42,0,1.34-.88,1.8-1.73,2.7a3.36,3.36,0,0,1-2.61.3c-.54-.54-.54-1,0-1l1.24.25c.64-1,.32-1.44-.14-1.76s-1-.15-1.27.8c0,.27-.54.25-.71.47-.66-.47-.73.31-.66,1.78a4.08,4.08,0,0,0,1.56,1.58,5.33,5.33,0,0,1-3.58-4.12c-.47-2.44,2.07-4.61,5.58-4.75Z"/><path class="cls-2" d="M195.19,139.19c1-.19,4.51-.19,3,0a1.75,1.75,0,0,1,.56,0c.95.2,1,.83,1.12,2.44a3.14,3.14,0,0,1,.22.58,1.57,1.57,0,0,1,0,.61,3,3,0,0,1-1.71,2.44l-.63.27a31.58,31.58,0,0,1-3.25-1.32l-.46-.21c-1.39-5.13-1.39-5.13,1-4.88Z"/><path class="cls-2" d="M148.83,133a7,7,0,0,1,1.88-.17H151c.27,2.61.27,2.61-1,6.8l-.19.15-1.32.8h-.24a4.44,4.44,0,0,1-1.36-6.13,4.52,4.52,0,0,1,1.36-1.36h.49Z"/></g><g id="Lines"><line class="cls-3" x1="279.77" y1="159.29" x2="0.23" y2="159.29"/><line class="cls-3" x1="135.71" y1="19.23" x2="42.57" y2="96.93"/><line class="cls-3" x1="162.15" y1="42.76" x2="134.27" y2="159.29"/></g><g id="Labels"><path class="cls-4" d="M67.86,6v.29l0,.14a.17.17,0,0,1,0,.12l-.17.24-.08.1a1,1,0,0,1-.84.31h-.18l-.12,0-.1,0-.1,0L66,7l-.2-.16-.19-.24,0-.06a.68.68,0,0,0-.2.11l-.19.17L64.89,7l.25.1.16.09a.48.48,0,0,1,.22.75,1.2,1.2,0,0,1-.32.34,2,2,0,0,1-.33.18l-.22.1-.42.15-.17,0-.41.09h-.18l-.12,0-.13,0-.17-.07L63,8.67l0-.26a.68.68,0,0,1,0-.27l.1-.07.15,0h.27l.39.1.28,0a.65.65,0,0,0,.5-.18l.1-.13,0-.14c0-.11-.1-.2-.31-.27l-.26-.09A.34.34,0,0,1,64,7a.79.79,0,0,1,.18-.29l.57-.55L65,6l.33-.22.42-.24A2.7,2.7,0,0,1,67,5.13l.21,0a.69.69,0,0,1,.39.31l.12.17a1,1,0,0,1,.07.21Zm-.7.17a.32.32,0,0,0-.3-.34h-.13a.85.85,0,0,0-.23,0,.72.72,0,0,0-.24.13l-.1.08-.08.08.2.21a.63.63,0,0,0,.19.11l.09,0,.16,0A.6.6,0,0,0,67,6.44l.09-.05.06-.08Z"/><path class="cls-4" d="M66.93.6h.36l.11,0a1.18,1.18,0,0,1,.65.15.51.51,0,0,1,.23.43,1.25,1.25,0,0,1-.42.72l-.25.28-.33.27A2,2,0,0,1,67,2.7a2.87,2.87,0,0,1-.39.2L66,3.14l-.29.14-.21,0s-.09,0-.16-.13l0-.09L65.24,3a.31.31,0,0,1,.07-.21.53.53,0,0,1,.24-.17l.25-.07.29-.1a.94.94,0,0,0,.3-.12,1.5,1.5,0,0,0,1-.89l-.06,0-.06,0L67,1.3h-.51l-.09,0-.14.07-.11.06-.1.05h-.15a.34.34,0,0,1-.16-.06l-.11-.16,0-.13A.27.27,0,0,1,65.76.9a3.13,3.13,0,0,1,.56-.23A2.54,2.54,0,0,1,66.93.6Z"/><path class="cls-4" d="M58.53,8.32a.65.65,0,0,1-.41-.11A.39.39,0,0,1,58,7.88V7.76a.18.18,0,0,1,.11-.18.62.62,0,0,1,.26-.09,2.14,2.14,0,0,0,.81-.19l.67-.38a1.08,1.08,0,0,0,.38-.2l.45-.31.19-.11.19-.17L61,6.06l-.16-.19-.08-.15V5.56a.64.64,0,0,1,.05-.16l.12-.09a.41.41,0,0,1,.29-.13,1.17,1.17,0,0,1,.4.13l.12.07.16.09.45-.24.53-.29.29-.12a2,2,0,0,1,.57-.18.82.82,0,0,1,.26.09c.06,0,.09.11.1.24v.1a.26.26,0,0,1-.1.15l-.19.13-.11,0-.31.15-.29.12-.45.13-.23.06.36.18.28.14.14.13,0,0v.07a.3.3,0,0,1,0,.1l0,.09a.28.28,0,0,1-.12.14l-.15.06-.19,0-.12,0-.73-.38-.25.16-.26.19L61,7l-.5.32-.91.52-.36.2-.35.17-.19.07Z"/><path class="cls-4" d="M62.68.09,62.8,0l.12,0c.22,0,.32.15.32.43a.21.21,0,0,1-.07.18c-.45.34-.9.64-1.34.91l-.61.33c-.2.1-.39.18-.59.26l-.28.09a.28.28,0,0,1-.15,0A1,1,0,0,1,60.09,2V1.8a.15.15,0,0,1,0-.07.3.3,0,0,1,.07-.16s0-.06.05-.06l.09-.05a3.41,3.41,0,0,0,1-.47A8.26,8.26,0,0,0,62.68.09Zm.67,1.18a.35.35,0,0,1,.23-.09c.21,0,.32.15.32.44a.28.28,0,0,1,0,.1.19.19,0,0,1-.06.07,13.42,13.42,0,0,1-1.26.86,12.45,12.45,0,0,1-1.26.64l-.17,0-.13,0a.29.29,0,0,1-.26-.19V2.92a.24.24,0,0,1,.2-.23,9.81,9.81,0,0,0,1-.53l.32-.2c.17-.09.33-.19.49-.29Z"/><path class="cls-4" d="M58.32,5l.16,0h.06a.16.16,0,0,1,.09,0l.07,0,.09.1,0,.15,0,.1a.34.34,0,0,1-.08.16l-.12.11-.36.27-.45.33-.46.3L56.58,7l-.31.15a3.81,3.81,0,0,1-.47.22l-.17.06-.21.06-.24,0A.23.23,0,0,1,55,7.35a.28.28,0,0,1-.15-.18V7A.49.49,0,0,1,55,6.79l.17-.19.12-.14.07-.11.06-.19V5.48a.62.62,0,0,1,0-.25.1.1,0,0,1,.06-.05l.12-.07.2,0H56a.31.31,0,0,1,.17.09.36.36,0,0,1,.14.32V5.6l0,.1-.11.24-.09.35L56,6.53l.14-.06.18-.11.25-.14L56.87,6l.59-.4.13-.09.21-.19.35-.27Z"/><path class="cls-4" d="M58,.6h.35l.12,0a1.2,1.2,0,0,1,.65.15.51.51,0,0,1,.23.43,1.25,1.25,0,0,1-.42.72l-.26.28-.32.27A2.13,2.13,0,0,1,58,2.7a2.75,2.75,0,0,1-.38.2L57,3.14l-.29.14-.2,0s-.09,0-.16-.13l0-.09,0-.11a.38.38,0,0,1,.07-.21.67.67,0,0,1,.24-.17l.25-.07.29-.1a1.2,1.2,0,0,0,.31-.12,1.48,1.48,0,0,0,1-.89l0,0-.07,0-.22,0h-.5l-.1,0-.14.07-.1.06-.1.05H57a.34.34,0,0,1-.15-.06l-.11-.16,0-.13A.27.27,0,0,1,56.8.9a3,3,0,0,1,.55-.23A2.62,2.62,0,0,1,58,.6Z"/><path class="cls-4" d="M50.81,5,51,5a.52.52,0,0,1,.31.18l.08.14a.31.31,0,0,0,.19.09.35.35,0,0,0,.16-.06l.14-.13L52,5.11l.1-.09.11,0,.17,0h.08l.08,0,.14.07.06,0,.05.06.08.18.06.16,0,0,.07,0a.91.91,0,0,0,.33-.09l.15-.12.14-.15.06,0,.09-.07L54,5l.16,0h.14s.07,0,.1.07l.09.11,0,.09a.51.51,0,0,1-.12.35l-.17.19a.45.45,0,0,1-.19.15L53.84,6l-.25.11-.26.07-.46.09a.75.75,0,0,1-.38-.1l-.14-.12-.15-.15h-.29a.69.69,0,0,0-.22,0,.4.4,0,0,0-.16.08l-.3.29-.48.38-.47.36-.14.1L50,7.26l-.21.13-.68.38-.52.29-.21.09-.23.08-.21,0h-.23l-.14,0-.17-.07a.41.41,0,0,1-.2-.41.33.33,0,0,1,.2-.3l.15,0H48a1.46,1.46,0,0,0,.46-.17L49,7.07l.54-.29L50,6.46l.37-.29.09-.11a.36.36,0,0,0,0-.11l-.17-.32,0-.16V5.38s0-.07,0-.08l.09-.13A.69.69,0,0,1,50.81,5Z"/><path class="cls-4" d="M52.44.6h.35l.12,0a1.2,1.2,0,0,1,.65.15.51.51,0,0,1,.23.43,1.25,1.25,0,0,1-.42.72l-.26.28-.32.27a2.13,2.13,0,0,1-.33.23,2.75,2.75,0,0,1-.38.2l-.59.24-.29.14-.2,0s-.09,0-.16-.13l-.05-.09,0-.11a.38.38,0,0,1,.07-.21.67.67,0,0,1,.24-.17l.25-.07.29-.1a1.2,1.2,0,0,0,.31-.12,1.48,1.48,0,0,0,1-.89l0,0-.07,0-.22,0H52l-.1,0-.14.07-.1.06-.1.05h-.16a.34.34,0,0,1-.15-.06l-.11-.16,0-.13A.27.27,0,0,1,51.27.9a3,3,0,0,1,.55-.23A2.62,2.62,0,0,1,52.44.6Z"/><path class="cls-4" d="M107,21.93h.17l.11,0,.11.06a.54.54,0,0,1,.29.38l.05.21,0,.15a.31.31,0,0,1,0,.11l0,.17-.08.31-.11.29-.09.22-.13.24a1.16,1.16,0,0,1-.36.45l-.16,0-.09,0-.1,0-.09,0-.14-.1,0-.15a.35.35,0,0,1,0-.12.64.64,0,0,1,.06-.11l.15-.19.14-.21.24-.45L107,23a.18.18,0,0,1,0-.06.19.19,0,0,0,0-.08h-.07a.48.48,0,0,0-.27.09l-.22.2-.49.4-.94.74-.35.25-.39.23-.29.16-.25.09h-.19l-.18,0-.11,0a.28.28,0,0,1-.12-.27V24.5a.25.25,0,0,1,0-.1l.05-.12s.08-.08.19-.14l.25,0h.21l.15,0,.3-.16.48-.31.23-.17.23-.19.3-.26.3-.26.29-.27.31-.26A.81.81,0,0,1,107,21.93Z"/><path class="cls-4" d="M106.86,17.41h.35a.25.25,0,0,1,.12,0,1.17,1.17,0,0,1,.64.15.46.46,0,0,1,.23.42,1.22,1.22,0,0,1-.41.72l-.26.28-.33.28a3,3,0,0,1-.32.23,3.55,3.55,0,0,1-.39.2l-.58.24-.29.14h-.2s-.09,0-.17-.13l0-.09,0-.1a.32.32,0,0,1,.07-.22.52.52,0,0,1,.24-.16l.25-.08.29-.09a1.14,1.14,0,0,0,.3-.13,1.45,1.45,0,0,0,1-.89l0,0-.07,0-.22,0h-.51l-.09,0-.14.08-.11.05-.1.05h-.15a.26.26,0,0,1-.16-.07l-.1-.15,0-.13a.27.27,0,0,1,.13-.25,2.53,2.53,0,0,1,.56-.23A2.57,2.57,0,0,1,106.86,17.41Z"/><path class="cls-4" d="M102.17,21.69h.07l.08,0,.19.16a.22.22,0,0,1,.11.2s-.14.19-.43.46l1.52,0s0,0,0,0l0,0a.33.33,0,0,1,.09.14c0,.13-.16.3-.5.51l-.77.45L102,24l-.89.58-1.21.62-.7.31L99,25.6l-.23.06-.29.07a.57.57,0,0,1-.25,0l-.13-.07a.46.46,0,0,1-.14-.38c0-.11.09-.2.26-.26l.25,0A2.44,2.44,0,0,0,99,24.9a1.84,1.84,0,0,0,.48-.17l.12,0,.17-.09.46-.2,2.27-1.3h-2a.23.23,0,0,1-.07-.13.67.67,0,0,1,0-.23l.05-.11.15,0,.16-.07a.91.91,0,0,0,.26-.13l.46-.21.33-.17a.36.36,0,0,0,.15-.15.32.32,0,0,1,.08-.13l.09,0Z"/><path class="cls-4" d="M103.41,26.8a.26.26,0,0,1,.27.17l0,.13v.1a.13.13,0,0,1,0,.1l-.11.13-.08,0-.16.08-.18.08-.31.29-.28.2-.49.32-.43.26-.25.14a2,2,0,0,1-.3.15l-.48.18-.18,0a.4.4,0,0,1-.26-.11.48.48,0,0,1-.1-.28l0-.13a.15.15,0,0,1,.06-.09l.06-.05.23-.13.5-.22.42-.2.29-.13.26-.15.5-.32.29-.19.25-.2.28-.17A.46.46,0,0,1,103.41,26.8Z"/><path class="cls-4" d="M98.42,21.72h.29l.17,0c.09,0,.14.07.14.2l0,.15a.25.25,0,0,1-.09.2.62.62,0,0,1-.25.13l-.35,0h-.11l-.19.05-.32.1c-.1,0-.16.06-.18.13l.1.14,0,.06,0,.08.06.13a.79.79,0,0,1,0,.26v.29a.58.58,0,0,1,0,.17l-.09.18-.06.07-.06.08-.08.08-.11.06-.33.16-.19,0H95.24a.59.59,0,0,1-.2,0,.51.51,0,0,1-.15-.07l-.07,0-.13-.09a.6.6,0,0,1-.15-.39.26.26,0,0,1,0-.17l.12-.13.11-.1a1,1,0,0,1,.32-.09.26.26,0,0,1,.18.09l.1.13.15.11.18,0,.37,0h.39a.55.55,0,0,0,.5-.2v-.09l0-.09a.45.45,0,0,0-.08-.19l-.11-.12L96.73,23l-.15-.2,0-.23a.32.32,0,0,1,.06-.2l.15-.1.2-.1.19-.13a1.51,1.51,0,0,1,.3-.13l.34-.12A2.41,2.41,0,0,1,98.42,21.72Z"/><path class="cls-4" d="M99.38,18a.38.38,0,0,1,.23-.08c.22,0,.33.14.33.43l0,.1a.13.13,0,0,1-.06.07,13.31,13.31,0,0,1-1.25.86,10.07,10.07,0,0,1-1.27.64l-.17,0-.13,0a.28.28,0,0,1-.25-.2l0-.11,0-.16c0-.1.07-.18.2-.22a8.21,8.21,0,0,0,1-.53l.33-.19.48-.3C99,18.25,99.22,18.11,99.38,18Z"/><path class="cls-4" d="M91,21.77l.21,0a.47.47,0,0,1,.31.18l.09.14a.29.29,0,0,0,.19.09.29.29,0,0,0,.15-.06l.14-.13.11-.09.11-.09a.28.28,0,0,1,.11-.05l.16,0h.09l.08,0,.13.06.07,0s0,0,0,.07l.08.18.06.16,0,0,.07,0a.79.79,0,0,0,.33-.1l.14-.11.14-.15L94,22l.09-.06.19-.1.15,0h.15a.09.09,0,0,1,.09.07l.09.1,0,.1a.49.49,0,0,1-.13.34l-.17.2a.33.33,0,0,1-.19.14l-.21.12-.26.1-.25.08-.46.09a.7.7,0,0,1-.38-.1l-.15-.12-.15-.16h-.29a.73.73,0,0,0-.22,0,.28.28,0,0,0-.15.08l-.31.28-.47.39-.48.36-.13.09-.18.11-.21.14-.67.38-.52.28-.21.09a1.68,1.68,0,0,1-.24.08l-.21.05h-.37L87.59,25a.4.4,0,0,1-.21-.41.32.32,0,0,1,.2-.3l.15,0h.52a1.38,1.38,0,0,0,.45-.18l.47-.24.53-.28.49-.32.37-.3.09-.1a.2.2,0,0,0,0-.11l-.17-.33,0-.16V22.2a.13.13,0,0,1,0-.08L90.6,22A.65.65,0,0,1,91,21.77Z"/><path class="cls-4" d="M93.8,18.47c0,.57-.37,1-1.1,1.43a1.64,1.64,0,0,1-.75.23c-.71,0-1.07-.31-1.07-.91A1.49,1.49,0,0,1,91.5,18a2,2,0,0,1,1.29-.51,1,1,0,0,1,.4.07.64.64,0,0,1,.32.18A.85.85,0,0,1,93.8,18.47Zm-.67.11c0-.25-.17-.38-.53-.38a1,1,0,0,0-.66.32.89.89,0,0,0-.32.67c0,.16.1.24.32.24h.16a1.2,1.2,0,0,0,.65-.29A.78.78,0,0,0,93.13,18.58Z"/><path class="cls-4" d="M128.06,50.41h.15l.12,0,.34.06.36.1.25.11a.59.59,0,0,1,.34.47l0,.17-.09.16-.1.14-.25.21-.87.57-.8.43-.34.14-.3.06a.35.35,0,0,1-.23-.09l-.07-.11v-.15l0-.14a.41.41,0,0,1,.12-.14l.28-.13.53-.23.69-.35.28-.15.21-.15,0-.09c0-.13-.18-.2-.53-.2l-.35,0-.43.15c-.29,0-.44-.13-.44-.37a.28.28,0,0,1,.07-.21.65.65,0,0,1,.23-.15l.42-.14Zm3,0a2.28,2.28,0,0,1,.58.09.67.67,0,0,1,.17.06l.13.06.25.17a.64.64,0,0,1,.18.19.53.53,0,0,1,.06.26l0,.1-.06.11-.13.15-.13.15-.12.15-.18.14-.47.38-.48.32-.42.25-.18,0-.21,0h-.15s-.07,0-.13-.08l-.06-.13a.3.3,0,0,0,0-.1.24.24,0,0,1,.08-.16l.15-.08.2-.1.29-.13.5-.28.38-.3.2-.18a.36.36,0,0,0,.09-.17.19.19,0,0,0-.13-.19l-.3,0-.19,0-.14,0-.15.06-.12,0-.1,0-.26,0-.11,0,0,0-.07-.06a.71.71,0,0,1,0-.16v-.1l.06-.11.2-.14.13-.06.13,0,.3-.09.22,0Z"/><path class="cls-4" d="M131.37,54.5h.11s.07,0,.09,0a.39.39,0,0,1,.19.22l0,.2a.26.26,0,0,1-.09.23l-.4.17.2.19a.58.58,0,0,1,.18.43v.19a.13.13,0,0,1,0,.06.19.19,0,0,1,0,.07,1,1,0,0,1-.53.69l-.28.15-.2.07-.24,0h-.25l-.25,0-.47-.11-.09-.06-.31.27-.14.13-.19.14-.4.3-.18.1-.31.2-.28.17-.59.32-.12.06-.13.06-.24.13-.23,0a.53.53,0,0,1-.5-.29l0-.07,0-.15a.27.27,0,0,1,.09-.22l.1-.08.09-.05h.5a.85.85,0,0,0,.38-.09l.65-.35.23-.14.38-.25.24-.17.15-.17.13-.1.15-.16-.1-.17,0-.12,0-.12a.47.47,0,0,1,.27-.31l.2,0h.14l.18.08a.37.37,0,0,1,.18.19v.16l.06.05.16.11.18.07h.23l.15,0,.12,0a.78.78,0,0,0,.31-.2l.09-.13,0-.11a.37.37,0,0,0-.06-.21l-.09-.11-.14-.08-.12-.08-.25-.12-.24-.17,0-.09,0-.12a.15.15,0,0,1,.07-.14l.22-.1h.41l.15-.07.14-.09.13-.08.13-.06Z"/><path class="cls-4" d="M137.33,51a.33.33,0,0,1,.22-.08c.22,0,.33.14.33.43l0,.1a.13.13,0,0,1-.06.07,11.65,11.65,0,0,1-1.25.86,10.07,10.07,0,0,1-1.27.64l-.16.06-.13,0a.28.28,0,0,1-.26-.2l0-.11,0-.16c0-.1.07-.18.2-.22a8.21,8.21,0,0,0,1-.53l.33-.19.48-.3Z"/><path class="cls-4" d="M135.17,54.74a.66.66,0,0,1,.44.12.25.25,0,0,1,.08.17v.08l0,.06-.09.08-.09,0-.12.07a.3.3,0,0,0-.07.19.33.33,0,0,0,.13.3l.16.11.07,0,.11,0,.16,0a.65.65,0,0,0,.15-.1l.12-.1.15-.11.24,0h.11a.37.37,0,0,1,.16.15l0,.07V56a.68.68,0,0,1-.11.2l-.16.12-.19.12-.23.17-.7.45-.79.46-.43.24-.36.18-.34.16-.42.18-.3.09c-.33,0-.5-.14-.5-.42a.6.6,0,0,1,.09-.27.35.35,0,0,1,.09-.11.14.14,0,0,1,.1,0l.13,0,.17,0,.17,0a1.7,1.7,0,0,0,.44-.19l.8-.4.39-.22.5-.33c0-.06,0-.09,0-.11l-.11,0-.21-.06a.62.62,0,0,1-.28-.19l-.06-.08,0-.14,0-.22v-.1a.19.19,0,0,1,0-.08l.11-.25a.77.77,0,0,1,.23-.32l.08-.06.1,0A.27.27,0,0,1,135.17,54.74Z"/><path class="cls-4" d="M142.9,50.31h.1l.1,0a.23.23,0,0,1,.08.12l.06.16,0,.13c0,.19-.09.29-.26.29a4.32,4.32,0,0,0-.47.08l-.19.08-.15.07-.15.07-.12.09-.14.15-.14.17a.28.28,0,0,0,.13.18L142,52l.19,0h.69l.11,0a.28.28,0,0,1,.12.27.27.27,0,0,1-.19.26l-.27.06-.34,0H142l-.12,0-.37-.07a.68.68,0,0,1-.47-.26,1.21,1.21,0,0,1-.18-.6l-.07.1a.18.18,0,0,1-.12.09l-.09.1-.29.2-.44.28-.31.18-.27.16L139,53l-.24.1-.18,0h-.15c-.17,0-.25-.1-.25-.29l0-.19a.24.24,0,0,1,.14-.12l.19-.06.25-.09a3.12,3.12,0,0,0,1-.53l.2-.17.2-.19-.76,0-.2,0h-.11l-.11-.06c-.13,0-.19-.14-.19-.31a.29.29,0,0,1,.27-.32l.29,0h.73a1,1,0,0,1,.54.12.43.43,0,0,1,.12.17l.1.18.11.25.13-.13.07-.06.06,0,.11-.07.2-.17.31-.22.56-.37A1,1,0,0,1,142.9,50.31Z"/><path class="cls-4" d="M140.7,54.74h.15l.13,0h.24a.54.54,0,0,1,.27,0l.28.06q.51.12.51.45a.6.6,0,0,1-.1.32l-.12.17-.18.18-.25.24-.31.25-.27.19-.4.27a12.31,12.31,0,0,1-1.18.66l-.49.24-.24.08-.29.1-.22,0-.15,0L138,58l-.13-.1-.09-.16,0-.07c0-.21.07-.32.2-.35h.42l.22,0,.14,0,.15,0,.19-.08.25-.13.41-.2.19-.09.33-.18.35-.19.21-.14.12-.1.18-.14a1.66,1.66,0,0,0,.23-.23l.06-.07,0,0a.09.09,0,0,0,0-.06l-.1,0-.09,0-.23,0-.18,0h-.11l-.37.06h-.06l-.1.05-.12,0-.08,0h-.28l-.17,0a.36.36,0,0,1-.23-.3.43.43,0,0,1,.06-.24.87.87,0,0,1,.23-.16l.19-.07.21-.06Z"/><path class="cls-4" d="M230.39,70.37l.12-.07.12,0c.21,0,.32.15.32.44a.22.22,0,0,1-.08.18,15,15,0,0,1-1.34.9,4.46,4.46,0,0,1-.6.33,5.05,5.05,0,0,1-.59.26l-.28.1a.3.3,0,0,1-.15,0,.48.48,0,0,1-.11-.15l0-.08v-.13s0,0,0-.06a.29.29,0,0,1,.06-.16l.06-.07.09-.05a3.27,3.27,0,0,0,1-.46A8.89,8.89,0,0,0,230.39,70.37Zm.67,1.18a.4.4,0,0,1,.22-.08c.22,0,.33.14.33.43a.25.25,0,0,1,0,.1.17.17,0,0,1-.07.08,12,12,0,0,1-1.25.85,10.68,10.68,0,0,1-1.26.64l-.17.06-.13,0c-.11,0-.19-.07-.26-.2l0-.12,0-.15c0-.11.07-.18.2-.23a6.79,6.79,0,0,0,1-.53l.32-.19.48-.3A6.65,6.65,0,0,0,231.06,71.55Z"/><path class="cls-4" d="M230.21,75.15h.07l.09,0,.19.15a.25.25,0,0,1,.11.21,2.64,2.64,0,0,1-.43.46l1.52,0a.08.08,0,0,0,0,0l0,0a.28.28,0,0,1,.1.14c0,.13-.17.3-.5.51l-.77.44-.56.34-.9.57-1.2.63-.7.3-.23.09-.23.06-.29.07a.54.54,0,0,1-.25,0l-.13-.07a.43.43,0,0,1-.14-.38c0-.12.08-.2.25-.26l.26,0a2.61,2.61,0,0,0,.48,0,2.79,2.79,0,0,0,.48-.17l.11,0,.18-.09.45-.2,2.28-1.3-2,0a.27.27,0,0,1-.07-.12,1.3,1.3,0,0,1,0-.23l0-.12.15,0a.71.71,0,0,0,.16-.07,1.34,1.34,0,0,0,.27-.13l.46-.21.33-.18a.24.24,0,0,0,.14-.14.44.44,0,0,1,.09-.13l.08,0Z"/><path class="cls-4" d="M236.84,70.93l.2-.07.2,0a.44.44,0,0,1,.3.07.25.25,0,0,1,.12.21.26.26,0,0,1-.11.24l-.07.06-.14.06-.26.12-.76.34c-.4.18-.59.42-.59.71a.31.31,0,0,0,.12.23l.08,0,.12,0,.27,0h.23l.1,0,.09,0,.12-.06.13,0a.27.27,0,0,1,.19,0l.12.15a.32.32,0,0,1,0,.19c0,.2-.22.34-.57.44l-.21,0-.2,0-.31,0-.34-.1-.17,0-.16-.1a.88.88,0,0,1-.44-.77.91.91,0,0,1,.17-.49l.16-.2.23-.22.19-.14.23-.15.42-.26Z"/><path class="cls-4" d="M236.85,75.24l.16,0h.06a.16.16,0,0,1,.09,0l.07,0,.09.09,0,.16,0,.1a.28.28,0,0,1-.08.15l-.12.11-.36.27-.45.34-.46.3-.75.45-.31.15a3.63,3.63,0,0,1-.47.21l-.17.06-.21.06h-.24a.23.23,0,0,1-.15-.07.34.34,0,0,1-.15-.18v-.14a.58.58,0,0,1,.1-.25l.18-.19.12-.14.07-.11.06-.19v-.68a.61.61,0,0,1,0-.24l.06-.06.12-.07.2,0h.17a.28.28,0,0,1,.17.1.34.34,0,0,1,.14.31v.11l0,.11-.11.24-.09.35-.09.24.15-.06.18-.11.25-.14.32-.2.59-.39.14-.1.2-.19.35-.26Z"/><path class="cls-4" d="M216.21,116.91c0,.31-.29.66-.89,1.07l-1.1.73-.46.28a4.3,4.3,0,0,1-1.65.73q-.57,0-.57-.45a.41.41,0,0,1,.2-.35.5.5,0,0,1,.29,0h.06l.08,0,.09,0,.06,0h.26l.18-.06.5-.27a1.85,1.85,0,0,0,.2-.1l.34-.21.19-.14c-.41-.18-.61-.41-.61-.69a1.19,1.19,0,0,1,.44-.91l.2-.13.22-.16a1.92,1.92,0,0,1,.91-.23,1.27,1.27,0,0,1,.84.32A.64.64,0,0,1,216.21,116.91Zm-.75-.08c-.05-.1-.2-.14-.45-.14a1.16,1.16,0,0,0-.69.32l-.1.11-.09.15,0,.13a.29.29,0,0,0,.16.22.24.24,0,0,0,.13,0l.11,0,.19,0,.32-.17c.32-.21.49-.38.49-.51A.11.11,0,0,0,215.46,116.83Z"/><path class="cls-4" d="M216.72,112.1A.37.37,0,0,1,217,112c.22,0,.33.15.33.44l0,.1a.19.19,0,0,1-.06.07,12.59,12.59,0,0,1-1.25.85,9.45,9.45,0,0,1-1.27.64l-.17.06-.13,0c-.11,0-.19-.07-.25-.2l0-.12,0-.15c0-.11.06-.18.2-.23a6.9,6.9,0,0,0,1-.53l.33-.19.48-.3C216.36,112.35,216.56,112.22,216.72,112.1Z"/><path class="cls-4" d="M211.82,115.81c.31,0,.46.09.46.27a.68.68,0,0,1-.18.44l-.16.17-.22.14-.21.08-.29.08-.39,0h-.25l-.37,0H210l-.07.1-.15.16-.29.3-.21.17-.23.16-.7.48-.4.25-.27.14-.2.11-.38.18-.19.07a1.4,1.4,0,0,1-.33.07l-.09,0-.11,0-.09-.05-.11-.09a.34.34,0,0,1-.11-.17l0-.11v-.14a.49.49,0,0,1,.13-.27s.06,0,.13-.06l.14,0h.08l.17,0,.17,0,.16,0,.17-.06.5-.23.27-.14.24-.14a4.36,4.36,0,0,0,.68-.49l.12-.14.06-.13-.07-.1a.23.23,0,0,1-.09-.18.7.7,0,0,1,.22-.51.78.78,0,0,1,.52-.22.68.68,0,0,1,.32.14q.21.15.21.27l.38,0a1.05,1.05,0,0,0,.4-.1,2.55,2.55,0,0,0,.48-.29.4.4,0,0,1,.12-.07l.1-.06A.49.49,0,0,1,211.82,115.81Z"/><path class="cls-4" d="M212.35,112.1a.37.37,0,0,1,.23-.09c.22,0,.33.15.33.44l0,.1a.19.19,0,0,1-.06.07,11.52,11.52,0,0,1-1.25.85,8.89,8.89,0,0,1-1.27.64l-.17.06-.13,0a.29.29,0,0,1-.25-.2l0-.12,0-.15c0-.11.07-.18.2-.23a6.9,6.9,0,0,0,1-.53l.33-.19.48-.3C212,112.35,212.19,112.22,212.35,112.1Z"/><path class="cls-4" d="M207.07,115.33l.13,0h.14a.3.3,0,0,1,.17.11.39.39,0,0,1,0,.11v.1a.56.56,0,0,1-.31.36l-.17.09.08,0,.2.11a.78.78,0,0,1,.16.15.28.28,0,0,1,.05.16c0,.11-.08.23-.24.37l-.69.31.19.12.19.12a.78.78,0,0,1,.05.22v.07a.19.19,0,0,1-.05.1l-.18.18-.39.3-.43.31-.34.25-.91.61-.33.21-.29.15-.09,0-.14.07-.38.16a1.25,1.25,0,0,1-.46.13.47.47,0,0,1-.17,0l-.1,0-.08-.07-.08-.12s0-.11,0-.18.13-.3.4-.37l.18,0,.13,0,.17,0,.14,0,.18-.06.24-.1.23-.13.86-.55.42-.28.58-.41-.33-.22a.37.37,0,0,1-.14-.28.28.28,0,0,1,0-.12,1.11,1.11,0,0,1,.16-.17l.27-.14.4-.19-.17-.12-.23-.13-.12-.07-.05-.06-.06-.11,0,0,0-.07.05,0,.14-.12h0l.07,0,.22-.08.17-.07.17-.08.16-.12Z"/><path class="cls-4" d="M208.28,112.1a.37.37,0,0,1,.23-.09c.21,0,.32.15.32.44v.1a.19.19,0,0,1-.06.07,11.62,11.62,0,0,1-1.26.85,9.34,9.34,0,0,1-1.26.64l-.17.06-.13,0c-.11,0-.19-.07-.26-.2v-.27c0-.11.07-.18.21-.23a6.9,6.9,0,0,0,1-.53l.32-.19.49-.3Z"/><path class="cls-4" d="M198.67,119.24a.61.61,0,0,1-.41-.11.42.42,0,0,1-.13-.33v-.12a.21.21,0,0,1,.11-.18.62.62,0,0,1,.26-.09,2,2,0,0,0,.81-.19l.68-.37a1.57,1.57,0,0,0,.38-.2l.44-.31.19-.12.19-.16-.09-.08-.16-.19-.07-.15v-.16a.54.54,0,0,1,.06-.16l.11-.09a.46.46,0,0,1,.3-.13,1.06,1.06,0,0,1,.39.13l.12.07.16.09.45-.23.54-.3.28-.12a1.89,1.89,0,0,1,.57-.17.66.66,0,0,1,.26.08.3.3,0,0,1,.11.24v.1a.29.29,0,0,1-.11.15l-.19.13-.11,0-.31.14-.28.12-.45.13-.24.06.37.18.27.14.14.13,0,0v.08a.15.15,0,0,1,0,.09l0,.1a.2.2,0,0,1-.12.13l-.15.06-.19,0-.11,0-.73-.37-.26.16-.26.19-.35.2-.5.32-.9.52-.37.2-.35.17-.19.07Z"/><path class="cls-4" d="M202.58,111.52h.35l.11,0a1.1,1.1,0,0,1,.65.16.48.48,0,0,1,.23.42,1.2,1.2,0,0,1-.42.72l-.25.28-.33.27a3,3,0,0,1-.32.24,2.35,2.35,0,0,1-.39.19l-.58.25-.29.13-.21,0s-.09,0-.16-.13l0-.09-.05-.11a.31.31,0,0,1,.07-.21.53.53,0,0,1,.24-.17l.25-.07.29-.09a1.14,1.14,0,0,0,.3-.13,1.47,1.47,0,0,0,1-.89l-.06,0-.06,0-.22,0-.16,0-.17,0h-.18l-.09,0-.14.07-.11.06-.1.05h-.15a.26.26,0,0,1-.16-.06l-.11-.16,0-.12a.29.29,0,0,1,.14-.26,3.11,3.11,0,0,1,.56-.22A2.15,2.15,0,0,1,202.58,111.52Z"/><path class="cls-4" d="M153.07,101.76h.16l.12,0,.34.06.36.1.25.11a.55.55,0,0,1,.33.47l0,.17-.09.16-.1.14-.25.2-.87.58-.8.42-.34.15-.3.06a.35.35,0,0,1-.23-.09l-.07-.12,0-.14,0-.14a.41.41,0,0,1,.12-.14l.28-.14.53-.22.69-.35.28-.15.2-.15.05-.09c0-.13-.18-.2-.53-.2l-.35,0-.43.15c-.29,0-.44-.13-.44-.37a.28.28,0,0,1,.07-.21.65.65,0,0,1,.23-.15l.42-.14Zm3,0a2.35,2.35,0,0,1,.58.09.49.49,0,0,1,.17.06l.12.06.26.17a.54.54,0,0,1,.18.19.53.53,0,0,1,.06.26l0,.1-.06.11-.13.15-.13.15-.12.15-.18.14-.47.38-.48.32-.42.24-.19,0-.2,0-.15,0a.23.23,0,0,1-.13-.07l-.06-.13a.25.25,0,0,0,0-.1.29.29,0,0,1,.08-.17l.15-.07.2-.1.29-.14.5-.27.38-.3.2-.18a.33.33,0,0,0,.08-.17.18.18,0,0,0-.13-.19l-.29,0h-.19l-.14,0-.15.06-.12,0h-.1l-.26,0-.11-.05,0,0a.18.18,0,0,1-.07,0,.71.71,0,0,1,0-.16v-.1a.39.39,0,0,1,.06-.11,1,1,0,0,1,.19-.14l.14-.06.13,0,.3-.09.22,0Z"/><path class="cls-4" d="M156.38,105.85h.12s.07,0,.09,0a.36.36,0,0,1,.19.22l0,.2a.26.26,0,0,1-.09.23l-.4.17.19.19a.56.56,0,0,1,.19.43v.19s0,0,0,.06a.25.25,0,0,1,0,.07,1,1,0,0,1-.53.69l-.28.15-.2.07-.24,0h-.25l-.25,0-.47-.11-.09-.06-.31.26-.15.14-.18.14-.41.3-.17.1-.31.2-.28.17-.59.32-.12.06-.13.06-.24.13-.23,0a.55.55,0,0,1-.5-.29l0-.07,0-.15a.25.25,0,0,1,.09-.22l.1-.09.09,0h.5a.85.85,0,0,0,.38-.09l.65-.35.23-.14.37-.25.25-.17.15-.17.13-.1.15-.16-.1-.18,0-.11,0-.12a.47.47,0,0,1,.27-.31l.2,0h.14l.18.08a.31.31,0,0,1,.17.19l0,.16.06,0,.16.11.18.07h.23l.15,0,.12-.05a.85.85,0,0,0,.31-.2l.08-.13.05-.11a.33.33,0,0,0-.06-.21l-.09-.11-.14-.08-.13-.08-.25-.12-.23-.17,0-.09,0-.12a.14.14,0,0,1,.07-.14l.22-.1h.19l.22,0,.15-.06.13-.1.13-.07.14-.06Z"/><path class="cls-4" d="M162.7,102.78c0,.56-.37,1-1.1,1.43a1.64,1.64,0,0,1-.75.23c-.71,0-1.07-.31-1.07-.91a1.49,1.49,0,0,1,.62-1.18,2,2,0,0,1,1.3-.51.94.94,0,0,1,.39.07.72.72,0,0,1,.33.18A.88.88,0,0,1,162.7,102.78Zm-.67.11c0-.25-.17-.38-.53-.38a1,1,0,0,0-.66.32.89.89,0,0,0-.32.67c0,.16.1.24.32.24H161a1.2,1.2,0,0,0,.65-.29A.75.75,0,0,0,162,102.89Z"/><path class="cls-4" d="M161.71,106.24h.18l.11,0,.11.06a.56.56,0,0,1,.29.38l0,.21,0,.15s0,.09,0,.11l0,.17-.08.31-.11.29-.09.22-.13.24a1.16,1.16,0,0,1-.36.45l-.16,0-.09,0-.1,0-.09,0-.14-.1,0-.15a.29.29,0,0,1,0-.12s0-.06.06-.11l.14-.19.15-.21.24-.46.08-.24s0,0,0-.06a.11.11,0,0,0,0-.08h-.06a.48.48,0,0,0-.27.09l-.22.2-.49.4-.95.74-.34.24L159,109l-.3.16-.25.09h-.19l-.17,0-.11,0a.29.29,0,0,1-.12-.27v-.13a.15.15,0,0,1,0-.1l0-.12s.08-.09.19-.14l.25,0h.21l.15,0,.3-.16.48-.31.22-.17.24-.19.29-.26.31-.26.29-.27.3-.26A.85.85,0,0,1,161.71,106.24Z"/><path class="cls-4" d="M167.69,111.1a.25.25,0,0,1,.26.18l0,.13v.1a.1.1,0,0,1,0,.09l-.11.14-.08,0-.16.07-.17.09-.31.29-.28.2-.5.32-.43.26-.25.14-.29.15-.49.18-.18,0a.4.4,0,0,1-.26-.11.48.48,0,0,1-.1-.28l0-.13a.16.16,0,0,1,.06-.09l.06,0,.24-.13.5-.22.41-.2.29-.13.26-.15.5-.32.29-.19.25-.2.28-.17A.47.47,0,0,1,167.69,111.1Z"/><path class="cls-4" d="M168.2,105.85h.11a.16.16,0,0,1,.1,0,.43.43,0,0,1,.19.22v.2a.26.26,0,0,1-.09.23l-.39.17.19.19a.58.58,0,0,1,.18.43v.25l0,.07a1,1,0,0,1-.53.69l-.28.15-.2.07-.24,0H167l-.25,0-.47-.11-.09-.06-.31.26-.14.14-.19.14-.4.3-.18.1-.31.2-.28.17-.59.32-.11.06-.14.06-.24.13-.23,0a.55.55,0,0,1-.5-.29l0-.07,0-.15a.25.25,0,0,1,.09-.22l.11-.09.08,0h.5a.92.92,0,0,0,.39-.09l.65-.35.22-.14.38-.25.24-.17.16-.17.13-.1.14-.16-.1-.18,0-.11,0-.12a.47.47,0,0,1,.27-.31l.2,0h.14l.18.08a.37.37,0,0,1,.18.19v.16l.06,0,.17.11.17.07h.23l.15,0,.12-.05a.78.78,0,0,0,.31-.2l.09-.13,0-.11a.33.33,0,0,0-.06-.21l-.09-.11-.14-.08-.12-.08-.25-.12-.23-.17,0-.09,0-.12a.13.13,0,0,1,.08-.14l.22-.1h.18l.22,0,.15-.06.14-.1.13-.07.13-.06Z"/><path class="cls-4" d="M171,133.4h.28l.11.06a.56.56,0,0,1,.29.38l.05.21,0,.15a.31.31,0,0,1,0,.11l0,.17-.08.31-.11.29-.09.22-.13.25a1.2,1.2,0,0,1-.36.44l-.16,0-.09,0-.1,0-.09,0-.14-.09,0-.16a.41.41,0,0,1,0-.12l.06-.1.15-.19.14-.22.24-.45.09-.24a.26.26,0,0,1,0-.07.14.14,0,0,0,0-.07l-.07,0a.43.43,0,0,0-.27.1l-.22.19L170,135l-.94.74-.35.24-.39.23-.29.17-.25.09-.19,0-.18,0-.11,0a.27.27,0,0,1-.12-.26V136a.22.22,0,0,1,0-.1l.05-.13s.08-.08.19-.14l.25,0h.21l.15-.05.3-.15.48-.32.23-.16.23-.19.3-.27.3-.25.29-.28.31-.26A.8.8,0,0,1,171,133.4Z"/><path class="cls-4" d="M171,128.88h.35l.12,0a1.08,1.08,0,0,1,.64.16.48.48,0,0,1,.23.42,1.25,1.25,0,0,1-.41.72l-.26.28-.33.27a2,2,0,0,1-.32.23,1.79,1.79,0,0,1-.39.2l-.58.24-.29.14-.21,0s-.08,0-.16-.13l0-.09-.05-.11a.31.31,0,0,1,.07-.21.53.53,0,0,1,.24-.17l.25-.07.29-.1a.94.94,0,0,0,.3-.12,1.5,1.5,0,0,0,1-.89l-.05-.05-.07,0-.22,0h-.51l-.09,0-.14.07-.11.06-.1,0h-.15a.34.34,0,0,1-.16-.06l-.1-.16,0-.12a.28.28,0,0,1,.13-.26,3.13,3.13,0,0,1,.56-.23A2.56,2.56,0,0,1,171,128.88Z"/><path class="cls-4" d="M167.41,134.27v.29l0,.15a.16.16,0,0,1-.05.11l-.17.24-.08.1a1,1,0,0,1-.85.31h-.17l-.13,0-.09,0-.11,0-.2-.13-.2-.17-.19-.24,0-.06a.57.57,0,0,0-.2.11l-.2.17-.25.26.25.1.17.09a.53.53,0,0,1,.32.43.51.51,0,0,1-.1.32,1.37,1.37,0,0,1-.32.34,1.81,1.81,0,0,1-.34.18l-.21.1-.42.15-.17,0-.42.09H163l-.12,0-.13,0-.17-.07a.2.2,0,0,1-.09-.09l0-.26a.56.56,0,0,1,0-.27l.1-.07.14,0H163l.38.1.29,0a.66.66,0,0,0,.49-.17l.11-.14,0-.14c0-.11-.11-.2-.31-.27l-.26-.09a.34.34,0,0,1-.23-.36.78.78,0,0,1,.17-.3l.57-.54.23-.19.32-.22.43-.24a2.69,2.69,0,0,1,1.32-.37l.22,0a.72.72,0,0,1,.38.31l.12.18a.59.59,0,0,1,.07.2Zm-.69.17a.32.32,0,0,0-.3-.34h-.14a.78.78,0,0,0-.22,0,.82.82,0,0,0-.24.13l-.1.08-.09.09.21.2a.48.48,0,0,0,.19.11l.09,0h.16a.53.53,0,0,0,.26-.06l.1,0,.05-.09Z"/><path class="cls-4" d="M167,138c.19,0,.29.16.29.46,0,0,0,.08-.13.15a.56.56,0,0,1-.15.11l-.23.15-1.14.69-1.22.69-.1,0c-.2,0-.3-.13-.3-.38s.11-.25.33-.37l.48-.26.44-.26.78-.49A4.29,4.29,0,0,1,167,138Zm.38,1.27.1-.05.14,0a.3.3,0,0,1,.29.23l0,.19a.21.21,0,0,1-.07.18l-1.69,1-.79.46-.13.06-.15,0a.39.39,0,0,1-.27-.16l0-.12V141a.31.31,0,0,1,.11-.2,2.55,2.55,0,0,1,.4-.28l.67-.35c.26-.14.53-.3.79-.46Z"/><path class="cls-4" d="M161.56,133.24h.52a.62.62,0,0,1,.27.05l.28.07q.51.12.51.45a.57.57,0,0,1-.1.31.94.94,0,0,1-.12.18l-.17.17-.26.24-.31.25-.26.19-.4.27a9.22,9.22,0,0,1-1.19.66l-.49.24-.24.08-.29.1-.21,0-.16,0-.09,0-.13-.09-.08-.17,0-.07c0-.2.07-.32.21-.34l.22,0h.19l.22,0,.14,0,.16,0a.87.87,0,0,0,.19-.08l.25-.13.41-.2.19-.09.32-.17.36-.2.2-.14.13-.09.18-.15a1.19,1.19,0,0,0,.22-.23l.06-.07,0,0a.08.08,0,0,0,0-.06l-.1,0-.1,0h-.23l-.17,0h-.11l-.38.06,0,0-.11,0-.12,0-.08,0h-.14l-.13,0h-.17a.38.38,0,0,1-.23-.3.58.58,0,0,1,.05-.25.87.87,0,0,1,.23-.16l.2-.06.2-.07Z"/><path class="cls-4" d="M162.42,128.88h.36l.11,0a1.1,1.1,0,0,1,.65.16.48.48,0,0,1,.23.42,1.22,1.22,0,0,1-.42.72l-.25.28-.33.27a2,2,0,0,1-.32.23,1.79,1.79,0,0,1-.39.2l-.58.24-.29.14-.21,0s-.09,0-.16-.13l0-.09-.05-.11a.31.31,0,0,1,.07-.21.53.53,0,0,1,.24-.17l.25-.07.29-.1a.94.94,0,0,0,.3-.12,1.5,1.5,0,0,0,1-.89l-.06-.05-.06,0-.22,0H162l-.09,0-.14.07-.11.06-.1,0h-.15a.34.34,0,0,1-.16-.06l-.11-.16,0-.12a.29.29,0,0,1,.14-.26,3.13,3.13,0,0,1,.56-.23A2.54,2.54,0,0,1,162.42,128.88Z"/><path class="cls-4" d="M240.78,101.23h.16l.12,0,.34.06.36.1.25.12a.55.55,0,0,1,.33.47l0,.17-.09.15-.1.14-.25.21-.87.58-.8.42-.34.15-.3.06a.32.32,0,0,1-.23-.1l-.07-.11,0-.14,0-.15a.41.41,0,0,1,.12-.13l.28-.14.53-.23.69-.35.28-.15.2-.15.05-.08c0-.14-.18-.2-.53-.2l-.35,0-.43.14c-.29,0-.44-.12-.44-.37a.28.28,0,0,1,.07-.21.53.53,0,0,1,.23-.14l.42-.14Zm3,0a2.35,2.35,0,0,1,.58.09l.17.05.12.06.26.17a.64.64,0,0,1,.18.19.57.57,0,0,1,.06.27l0,.09-.06.11-.13.16-.13.15-.12.14-.18.14-.47.39-.48.32-.42.24-.19,0-.2,0h-.15a.23.23,0,0,1-.13-.07l-.06-.13a.22.22,0,0,0,0-.1.27.27,0,0,1,.08-.17l.15-.08.2-.09.29-.14.5-.27.38-.31.2-.18a.29.29,0,0,0,.08-.16.17.17,0,0,0-.13-.19l-.29,0h-.19l-.14,0-.15.06-.12,0-.1,0-.26,0-.11-.06,0,0-.07,0a.85.85,0,0,1,0-.17v-.1a.6.6,0,0,1,.06-.11,1,1,0,0,1,.19-.13l.14-.06.13,0a1.11,1.11,0,0,1,.3-.08l.22,0Z"/><path class="cls-4" d="M244.09,105.31h.12l.09,0a.42.42,0,0,1,.19.22l0,.2a.27.27,0,0,1-.09.24l-.4.16.19.19a.59.59,0,0,1,.19.43V107s0,.05,0,.07a.14.14,0,0,1,0,.06,1,1,0,0,1-.53.69l-.28.16-.2.06-.24,0h-.25l-.25,0-.47-.11-.09,0-.31.26-.15.13-.18.14-.41.3-.17.11-.31.2-.28.17-.59.32-.12,0-.13.07-.24.13-.23,0a.54.54,0,0,1-.5-.28l0-.07,0-.16a.27.27,0,0,1,.09-.22l.1-.08.09,0h.5a.75.75,0,0,0,.38-.1l.65-.34.23-.15.37-.25.25-.17.15-.17.13-.1.15-.15-.1-.18,0-.12,0-.12a.48.48,0,0,1,.27-.3l.2,0H242l.18.09a.29.29,0,0,1,.17.19l0,.16.06,0,.16.11.18.07.23,0,.15,0,.12,0a.85.85,0,0,0,.31-.2l.08-.12,0-.12a.32.32,0,0,0-.06-.2l-.09-.11-.14-.09-.13-.08-.25-.12-.23-.17,0-.08,0-.12a.16.16,0,0,1,.07-.15l.22-.1h.41l.15-.06.13-.1.13-.08.14-.06Z"/><path class="cls-4" d="M250.05,101.76a.46.46,0,0,1,.23-.08c.22,0,.33.15.33.44l0,.1-.06.07a11.52,11.52,0,0,1-1.25.85,10.07,10.07,0,0,1-1.27.64l-.17.06-.13,0a.29.29,0,0,1-.25-.2l0-.12,0-.15c0-.11.07-.18.2-.23a6.9,6.9,0,0,0,1-.53l.33-.19.48-.3A6.39,6.39,0,0,0,250.05,101.76Z"/><path class="cls-4" d="M248.86,105.46h.08l.08,0,.19.15a.25.25,0,0,1,.11.21,3.14,3.14,0,0,1-.43.46l1.52,0s0,0,0,0l0,0a.28.28,0,0,1,.09.14c0,.13-.17.29-.5.5l-.77.45-.56.33-.9.58-1.2.63-.7.3-.23.08-.23.06-.29.07a.77.77,0,0,1-.25,0l-.13-.07a.46.46,0,0,1-.14-.38c0-.12.09-.21.26-.27l.25,0a2,2,0,0,0,.48-.06,2.14,2.14,0,0,0,.48-.17l.11,0,.18-.08.46-.2,2.27-1.31h-2a.63.63,0,0,1-.07-.12,1.3,1.3,0,0,1,0-.23l0-.12.14,0,.17-.07.26-.13.46-.22.33-.17a.29.29,0,0,0,.15-.14.25.25,0,0,1,.08-.13l.09,0Z"/><path class="cls-4" d="M256.23,102.25c0,.56-.37,1-1.1,1.43a1.61,1.61,0,0,1-.75.22c-.71,0-1.07-.3-1.07-.91a1.52,1.52,0,0,1,.61-1.18,2.06,2.06,0,0,1,1.3-.5,1.16,1.16,0,0,1,.4.06.8.8,0,0,1,.32.19A.85.85,0,0,1,256.23,102.25Zm-.67.1c0-.25-.18-.37-.53-.37a1.11,1.11,0,0,0-1,1q0,.24.33.24h.16a1.23,1.23,0,0,0,.65-.29C255.43,102.72,255.56,102.54,255.56,102.35Z"/><path class="cls-4" d="M255.24,105.71h.29l.11.06a.55.55,0,0,1,.28.38l.05.21,0,.15a.37.37,0,0,1,0,.12l0,.16-.08.31-.11.29-.1.22-.12.25a1.14,1.14,0,0,1-.37.44l-.16,0-.09,0a.18.18,0,0,1-.09,0l-.1,0-.13-.09,0-.16s0-.09,0-.12a.37.37,0,0,1,.07-.1l.14-.19.14-.22.25-.45.08-.24s0,0,0-.07a.08.08,0,0,0,0-.07l-.07,0a.39.39,0,0,0-.26.1l-.22.19-.49.41-.95.74-.34.24-.39.23-.3.17-.25.09-.19,0-.18,0-.1,0a.27.27,0,0,1-.12-.26v-.13a.25.25,0,0,1,0-.1l.06-.13s.07-.08.19-.13l.25,0h.21l.15,0,.3-.15.48-.32.22-.16.23-.19.3-.27.3-.25.3-.28.3-.26A.81.81,0,0,1,255.24,105.71Z"/><path class="cls-4" d="M261.21,110.57a.28.28,0,0,1,.27.17l0,.14v.1a.13.13,0,0,1,0,.09l-.11.13-.08,0-.17.08-.17.08-.31.3-.28.2-.49.31-.44.27-.25.14a1.45,1.45,0,0,1-.29.14l-.48.19-.18,0a.36.36,0,0,1-.26-.11.43.43,0,0,1-.1-.27l0-.13a.19.19,0,0,1,.05-.1l.07,0,.23-.12.5-.22.42-.2.29-.14.26-.14.5-.33.28-.19.26-.2.28-.16A.36.36,0,0,1,261.21,110.57Z"/><path class="cls-4" d="M260.77,105l.13,0H261a.32.32,0,0,1,.18.11s0,0,0,.11v.1a.56.56,0,0,1-.31.36l-.17.09.07,0,.21.11a.69.69,0,0,1,.15.14.26.26,0,0,1,.05.17.57.57,0,0,1-.23.37l-.69.31.19.12.19.12a1.52,1.52,0,0,1,.05.22v.07a.16.16,0,0,1,0,.1l-.18.18-.4.3-.42.31-.34.24-.91.62-.33.21-.29.14-.09,0-.15.07-.37.16a1.3,1.3,0,0,1-.46.13.47.47,0,0,1-.17,0l-.11-.06-.07-.06a.42.42,0,0,1-.08-.12.84.84,0,0,1,0-.18c0-.18.13-.3.4-.37l.18,0,.13,0,.16,0,.15,0,.18-.06.24-.11.23-.13.86-.54.41-.28.59-.41-.33-.22a.37.37,0,0,1-.14-.28.19.19,0,0,1,0-.12,1.11,1.11,0,0,1,.16-.17l.27-.14.4-.19-.18-.12-.22-.13-.12-.08-.06,0-.06-.11v-.11l0,0,.15-.12h0l.06,0,.22-.08.18-.08a.68.68,0,0,0,.17-.08l.15-.11Z"/><path class="cls-4" d="M115,122.37h.15l.12,0,.35.06.35.1.25.11a.59.59,0,0,1,.34.47l0,.18-.09.15-.1.14-.25.21-.87.57-.8.43-.34.15-.3.06a.37.37,0,0,1-.23-.1l-.07-.11v-.15l0-.14s0-.08.11-.14l.28-.13.53-.23.69-.35.28-.15.21-.15,0-.09c0-.13-.18-.19-.53-.19l-.35,0-.43.14c-.29,0-.44-.12-.44-.37a.28.28,0,0,1,.07-.21.65.65,0,0,1,.23-.15l.42-.13Zm3,0a2.75,2.75,0,0,1,.58.08.67.67,0,0,1,.17.06l.13.06.25.17a.64.64,0,0,1,.18.19.53.53,0,0,1,.06.26l0,.1-.06.11-.13.16-.13.14-.12.15-.17.14-.48.38-.48.32-.42.25-.18,0-.21,0h-.15s-.07,0-.13-.07l-.06-.14a.3.3,0,0,0,0-.1.24.24,0,0,1,.08-.16l.15-.08.2-.1.29-.13.5-.28.38-.3.2-.18a.36.36,0,0,0,.09-.17.2.2,0,0,0-.13-.19h-.49l-.14,0-.15.06-.12,0-.1,0-.26,0-.11,0,0,0-.06,0a.49.49,0,0,1-.05-.17v-.1l.06-.11.2-.14.13-.06.13,0a1.11,1.11,0,0,1,.3-.08l.22,0Z"/><path class="cls-4" d="M118.31,126.45h.11l.09,0a.44.44,0,0,1,.2.22v.2a.25.25,0,0,1-.09.23l-.4.17.2.19a.6.6,0,0,1,.18.43v.19a.2.2,0,0,1,0,.07.21.21,0,0,1,0,.06,1,1,0,0,1-.53.69l-.28.16-.2.06-.24,0h-.25l-.25,0-.47-.11-.09-.06-.31.27-.14.13-.19.14-.4.3-.18.11-.31.19-.28.17-.59.33-.11,0-.14.06-.24.14-.23,0a.54.54,0,0,1-.5-.28l0-.08,0-.15a.27.27,0,0,1,.09-.22l.11-.08.08-.05h.5a.92.92,0,0,0,.39-.09l.64-.35.23-.14.38-.25.24-.17.15-.17.14-.1.14-.15-.1-.18,0-.12,0-.12a.47.47,0,0,1,.27-.31l.2,0h.14l.18.08a.37.37,0,0,1,.18.19v.16l.06.05.16.11.18.07h.23l.15,0,.12-.05a.78.78,0,0,0,.31-.2l.09-.13,0-.11a.37.37,0,0,0-.06-.21l-.09-.11-.14-.08-.12-.08-.25-.12-.24-.17,0-.09,0-.12a.15.15,0,0,1,.07-.14l.23-.1h.4l.15-.07.14-.09.13-.08.13-.06Z"/><path class="cls-4" d="M124.62,123.38c0,.57-.36,1-1.1,1.43a1.64,1.64,0,0,1-.75.23c-.71,0-1.06-.3-1.06-.91a1.49,1.49,0,0,1,.61-1.18,2,2,0,0,1,1.3-.51,1,1,0,0,1,.4.07.78.78,0,0,1,.32.18A.88.88,0,0,1,124.62,123.38Zm-.66.11c0-.25-.18-.37-.53-.37a1,1,0,0,0-.67.31.94.94,0,0,0-.32.67c0,.16.1.24.32.24h.16a1.1,1.1,0,0,0,.65-.29C123.83,123.86,124,123.67,124,123.49Z"/><path class="cls-4" d="M121.92,126.68l.21,0a.47.47,0,0,1,.31.18l.09.14a.31.31,0,0,0,.19.09.29.29,0,0,0,.15-.06l.15-.13.1-.09.11-.09a.28.28,0,0,1,.11,0l.16,0h.09l.08,0,.13.07.07,0,0,.06.07.18.06.16,0,0,.07,0a.79.79,0,0,0,.33-.1l.14-.11.14-.15a.18.18,0,0,1,.07-.05l.09-.07.19-.1.15,0h.15a.09.09,0,0,1,.09.07l.09.1,0,.1a.49.49,0,0,1-.13.35l-.16.19a.43.43,0,0,1-.19.14l-.22.12-.26.11-.25.07L124,128a.7.7,0,0,1-.38-.1l-.14-.12-.16-.15H123a.75.75,0,0,0-.23,0,.36.36,0,0,0-.15.08l-.31.28-.47.39-.48.36-.13.09-.18.12-.2.13-.68.38-.52.28-.21.09-.24.09-.21,0-.22,0-.14,0-.17-.07c-.14-.06-.2-.2-.2-.41a.32.32,0,0,1,.19-.3l.15,0h.52a1.3,1.3,0,0,0,.45-.18l.47-.23.53-.29.49-.32.37-.29.09-.11a.36.36,0,0,0,0-.11l-.18-.33,0-.16v-.08a.13.13,0,0,1,0-.08l.09-.13A.72.72,0,0,1,121.92,126.68Z"/><path class="cls-4" d="M130.89,122.9a.43.43,0,0,1,.23-.08c.22,0,.33.14.33.43l0,.1a.21.21,0,0,1-.06.08,14.58,14.58,0,0,1-1.25.85,10.07,10.07,0,0,1-1.27.64l-.17.06-.13,0c-.1,0-.19-.07-.25-.21l0-.11,0-.16c0-.1.07-.18.2-.22a8.21,8.21,0,0,0,1-.53l.33-.19.48-.3C130.53,123.16,130.73,123,130.89,122.9Z"/><path class="cls-4" d="M126.17,130.05a.62.62,0,0,1-.4-.11.39.39,0,0,1-.13-.33v-.12a.22.22,0,0,1,.12-.19.72.72,0,0,1,.26-.08,2.49,2.49,0,0,0,.81-.19l.67-.38a1.27,1.27,0,0,0,.38-.2l.45-.31.18-.11.19-.17-.09-.08-.16-.18-.07-.16v-.15a.38.38,0,0,1,.05-.16l.11-.1a.51.51,0,0,1,.3-.12,1,1,0,0,1,.39.12l.13.07.15.1L130,127l.54-.3.29-.11a2,2,0,0,1,.56-.18.57.57,0,0,1,.26.09c.06,0,.1.11.11.24v.1a.29.29,0,0,1-.11.15l-.19.13-.1,0-.31.15-.29.11-.45.14-.23.06.36.17.27.15.15.13,0,.05v.07a.19.19,0,0,1,0,.1l0,.09a.21.21,0,0,1-.13.13l-.15.07-.19,0h-.11l-.73-.38-.26.16-.25.19-.35.21-.5.32-.91.52-.36.2-.36.17-.19.06Z"/><path class="cls-4" d="M136.35,121.82l.11-.07.12,0c.22,0,.33.14.33.43a.22.22,0,0,1-.08.18c-.45.34-.9.64-1.34.91l-.6.33-.59.26-.29.09a.26.26,0,0,1-.15-.05.48.48,0,0,1-.1-.15l0-.08v-.12a.14.14,0,0,1,0-.07.32.32,0,0,1,.06-.16.25.25,0,0,1,.05-.07l.09,0a3.31,3.31,0,0,0,1-.47A8.26,8.26,0,0,0,136.35,121.82ZM137,123a.4.4,0,0,1,.23-.09c.22,0,.33.15.33.44a.25.25,0,0,1,0,.1.19.19,0,0,1-.06.07,13.31,13.31,0,0,1-1.25.86A11.62,11.62,0,0,1,135,125l-.17,0-.13,0a.29.29,0,0,1-.25-.2l0-.12,0-.14a.25.25,0,0,1,.19-.24,6.31,6.31,0,0,0,1-.53l.33-.19.48-.29Z"/><path class="cls-4" d="M135.68,126.69h.15l.14,0h.23a.65.65,0,0,1,.27,0l.28.06c.34.08.51.23.51.46a.59.59,0,0,1-.1.31.66.66,0,0,1-.12.17.94.94,0,0,1-.17.18l-.26.24-.31.25-.26.19-.4.27a9.22,9.22,0,0,1-1.19.66l-.49.24-.24.08-.29.1-.22,0-.15,0-.09-.05-.13-.1-.08-.16,0-.07c0-.2.07-.32.21-.34l.22,0h.19l.22,0,.14,0,.15,0a1,1,0,0,0,.19-.08l.25-.13.42-.2.19-.09.32-.18.35-.19.21-.14.13-.09.18-.15a1.58,1.58,0,0,0,.22-.23l.06-.07,0,0a.08.08,0,0,0,0-.06l-.1,0-.1,0-.23,0-.17,0h-.11l-.38.06,0,0-.11,0-.12,0-.08,0h-.27l-.17,0a.35.35,0,0,1-.23-.29.55.55,0,0,1,.05-.25.87.87,0,0,1,.23-.16l.2-.06.2-.07Z"/><path class="cls-4" d="M71.91,131.36h.15l.12,0,.35.06.35.1.25.11a.59.59,0,0,1,.34.47l0,.18-.09.15-.1.14-.25.21-.87.57-.8.43L71,134l-.31.05a.37.37,0,0,1-.23-.09l-.06-.11,0-.15,0-.14s0-.08.11-.14l.28-.13.53-.23.69-.35.28-.15.21-.15,0-.09c0-.13-.17-.19-.52-.19l-.36,0-.42.14c-.3,0-.45-.12-.45-.37a.28.28,0,0,1,.07-.21.65.65,0,0,1,.23-.15l.42-.13Zm3,0a2.67,2.67,0,0,1,.58.08.56.56,0,0,1,.17.06l.13.06.25.17a.64.64,0,0,1,.18.19.53.53,0,0,1,.06.26l0,.1-.06.11-.13.16-.13.15-.13.14-.17.14-.48.38-.48.32-.42.25-.18,0-.21,0H73.7a.26.26,0,0,1-.12-.07l-.07-.14a.3.3,0,0,0,0-.1.22.22,0,0,1,.09-.16l.14-.08.2-.1.29-.13.5-.28.38-.3.21-.18a.53.53,0,0,0,.08-.17.19.19,0,0,0-.13-.19h-.49l-.14,0-.15.06-.12,0-.1,0-.26,0-.11-.05,0,0-.06,0a.91.91,0,0,1,0-.17v-.1a.41.41,0,0,1,.07-.11,1.17,1.17,0,0,1,.19-.14l.13-.06.13,0a1.11,1.11,0,0,1,.3-.08l.23,0Z"/><path class="cls-4" d="M75.22,135.44h.11l.1,0a.42.42,0,0,1,.19.22v.2a.25.25,0,0,1-.09.23l-.39.17.19.19a.6.6,0,0,1,.18.43v.19a.15.15,0,0,0,0,.07s0,0,0,.06a1,1,0,0,1-.52.69l-.29.16-.2.06-.24,0H74l-.25,0-.48-.11-.08-.06-.31.27-.15.13-.19.14-.4.3-.17.11-.31.19-.29.17-.58.33-.12.05-.14.06-.24.14-.23,0a.55.55,0,0,1-.5-.28l0-.08,0-.15a.26.26,0,0,1,.08-.22l.11-.08.08,0h.51a.92.92,0,0,0,.38-.09l.65-.35.22-.14.38-.25.24-.17.16-.17.13-.1.14-.15-.09-.18,0-.12v-.12a.43.43,0,0,1,.27-.3l.2,0h.14l.18.08a.37.37,0,0,1,.18.19l0,.16.05,0,.17.11.17.07h.23l.15,0,.13-.05a.94.94,0,0,0,.31-.2l.08-.13,0-.11a.46.46,0,0,0-.05-.21l-.1-.11-.14-.08-.12-.08-.25-.12-.23-.17-.05-.09,0-.12a.14.14,0,0,1,.08-.14l.22-.1h.4l.15-.07.14-.09.13-.08.14-.06Z"/><path class="cls-4" d="M81.54,132.37c0,.57-.37,1-1.11,1.43a1.57,1.57,0,0,1-.75.23c-.71,0-1.06-.3-1.06-.91a1.49,1.49,0,0,1,.61-1.18,2,2,0,0,1,1.3-.51,1.19,1.19,0,0,1,.4.07.78.78,0,0,1,.32.18A.88.88,0,0,1,81.54,132.37Zm-.67.11c0-.25-.18-.37-.53-.37a1,1,0,0,0-.67.31.94.94,0,0,0-.32.67c0,.16.11.24.32.24h.16a1.1,1.1,0,0,0,.65-.29C80.74,132.85,80.87,132.66,80.87,132.48Z"/><path class="cls-4" d="M78.83,135.67l.22,0a.52.52,0,0,1,.31.18l.08.14a.31.31,0,0,0,.19.09.35.35,0,0,0,.16-.06l.14-.13.11-.09.1-.09.11-.05.17,0h.08l.08,0,.13.07.07,0,0,.06.07.18.06.16.05,0,.07,0a.79.79,0,0,0,.33-.1l.14-.11.15-.15.06,0,.09-.07.19-.1.16,0h.14a.09.09,0,0,1,.09.07l.09.1,0,.1a.49.49,0,0,1-.13.35l-.16.19a.45.45,0,0,1-.19.15l-.22.11-.25.11-.26.07-.46.09a.72.72,0,0,1-.38-.1l-.14-.12-.16-.15h-.28a.8.8,0,0,0-.23,0,.36.36,0,0,0-.15.08l-.31.28-.47.39-.47.36-.14.09L78,138l-.21.13-.68.38-.52.28-.21.09a1.17,1.17,0,0,1-.24.09l-.2.05H75.7l-.14,0-.17-.07a.41.41,0,0,1-.2-.41.32.32,0,0,1,.19-.3l.15,0h.52a1.23,1.23,0,0,0,.45-.18l.47-.23.53-.29.49-.32.37-.29.09-.11a.36.36,0,0,0,0-.11l-.18-.32v-.25s0-.07,0-.08l.09-.13A.72.72,0,0,1,78.83,135.67Z"/><path class="cls-4" d="M87.8,131.89a.46.46,0,0,1,.23-.08c.22,0,.33.14.33.43l0,.1a.21.21,0,0,1-.06.08,13.16,13.16,0,0,1-1.25.85,10.07,10.07,0,0,1-1.27.64l-.16.06-.14,0a.28.28,0,0,1-.25-.2l0-.11,0-.15a.24.24,0,0,1,.2-.23,8.21,8.21,0,0,0,1-.53l.33-.19.48-.3C87.44,132.15,87.64,132,87.8,131.89Z"/><path class="cls-4" d="M87.34,135.67l.16,0h.06a.15.15,0,0,1,.09,0l.07,0,.09.1,0,.15,0,.1a.34.34,0,0,1-.08.16l-.12.11-.36.27-.45.33-.46.3-.75.45-.31.15c-.17.09-.33.16-.47.22l-.17.06-.21.06-.24,0a.23.23,0,0,1-.15-.07.28.28,0,0,1-.15-.18v-.14a.49.49,0,0,1,.11-.24l.17-.19.12-.14.07-.11.06-.19v-.68a.62.62,0,0,1,0-.25.1.1,0,0,1,.06,0l.12-.07.2,0H85a.31.31,0,0,1,.17.09.36.36,0,0,1,.14.32v.11l0,.1-.11.24-.09.35-.08.24.14-.06.18-.11.25-.14.32-.2.59-.39.14-.09.2-.19.35-.27Z"/><path class="cls-4" d="M92.94,131.89a.4.4,0,0,1,.22-.08c.22,0,.33.14.33.43l0,.1s0,0-.06.08a12,12,0,0,1-1.25.85,10.68,10.68,0,0,1-1.26.64l-.17.06-.13,0c-.11,0-.19-.06-.26-.2l0-.11,0-.15c0-.11.07-.19.21-.23a8.42,8.42,0,0,0,1-.53l.33-.19.48-.3C92.58,132.15,92.77,132,92.94,131.89Z"/><path class="cls-4" d="M93,136.71V137l0,.14a.18.18,0,0,1,0,.12l-.17.24-.08.1a1,1,0,0,1-.85.31h-.17l-.12,0-.1,0-.11,0-.2-.13-.2-.16-.19-.24,0-.06a.43.43,0,0,0-.2.11l-.2.17-.25.26.25.1.17.09a.53.53,0,0,1,.32.43.51.51,0,0,1-.1.32,1.07,1.07,0,0,1-.32.33,1.81,1.81,0,0,1-.33.19l-.22.09-.42.16-.17,0-.42.09h-.17l-.12,0-.13,0-.17-.07-.09-.09,0-.26a.53.53,0,0,1,0-.27l.1-.07.14,0h.28l.39.1.28,0a.63.63,0,0,0,.49-.18l.11-.13,0-.14c0-.11-.1-.2-.31-.27l-.26-.09a.34.34,0,0,1-.23-.37.86.86,0,0,1,.17-.29l.57-.55.23-.18.32-.22.43-.24a2.59,2.59,0,0,1,1.32-.37l.22,0a.66.66,0,0,1,.38.3l.12.18a.48.48,0,0,1,.07.21Zm-.69.17a.31.31,0,0,0-.3-.34h-.14a.78.78,0,0,0-.22,0,.72.72,0,0,0-.24.13l-.1.08-.09.08.21.21a.63.63,0,0,0,.19.11l.09,0,.16,0a.6.6,0,0,0,.27-.06l.09,0,0-.09Z"/><path class="cls-4" d="M233.37,146.48c0,.56-.37,1-1.1,1.43a1.61,1.61,0,0,1-.75.22c-.71,0-1.07-.3-1.07-.91a1.5,1.5,0,0,1,.62-1.18,2,2,0,0,1,1.29-.5,1.16,1.16,0,0,1,.4.06.8.8,0,0,1,.32.19A.85.85,0,0,1,233.37,146.48Zm-.67.11c0-.25-.17-.38-.53-.38a1.11,1.11,0,0,0-1,1q0,.24.33.24h.16a1.23,1.23,0,0,0,.65-.29A.78.78,0,0,0,232.7,146.59Z"/><path class="cls-4" d="M232.92,149.71c.31,0,.47.09.47.27a.68.68,0,0,1-.18.44l-.16.17-.22.14-.22.08-.28.08-.4,0h-.24l-.37,0h-.21l-.07.1-.15.16-.3.3-.2.17-.24.16-.69.48-.4.25-.27.14-.2.11-.38.18-.19.07a1.13,1.13,0,0,1-.34.07l-.08,0-.11,0-.09-.05-.11-.09a.34.34,0,0,1-.11-.17l0-.11v-.14a.49.49,0,0,1,.13-.27s0,0,.13-.06l.13,0,.09,0,.16,0,.18,0,.15,0,.18-.06.5-.23.26-.14.25-.14a4.89,4.89,0,0,0,.68-.49l.12-.14.05-.13-.07-.1a.32.32,0,0,1-.09-.17.74.74,0,0,1,.22-.52.78.78,0,0,1,.52-.22.71.71,0,0,1,.33.14c.13.1.2.19.2.27l.38,0a1,1,0,0,0,.4-.1,2.6,2.6,0,0,0,.49-.29l.11-.07.1-.06A.62.62,0,0,1,232.92,149.71Z"/><path class="cls-4" d="M238.78,146a.37.37,0,0,1,.23-.09c.22,0,.32.15.32.44v.1a.19.19,0,0,1-.06.07,11.62,11.62,0,0,1-1.26.85,8.79,8.79,0,0,1-1.26.64l-.17.06-.13,0c-.11,0-.19-.07-.25-.2l0-.12,0-.15c0-.11.06-.18.2-.23a6.9,6.9,0,0,0,1-.53l.33-.19.48-.29Z"/><path class="cls-4" d="M234.06,153.14a.61.61,0,0,1-.41-.11.42.42,0,0,1-.13-.33v-.12a.21.21,0,0,1,.12-.18.67.67,0,0,1,.26-.09,2,2,0,0,0,.8-.19l.68-.37a1.36,1.36,0,0,0,.38-.21l.44-.3.19-.12.19-.16-.09-.08-.16-.19-.07-.15v-.16a.54.54,0,0,1,.06-.16l.11-.09a.46.46,0,0,1,.3-.13,1.06,1.06,0,0,1,.39.13l.13.07.15.09.45-.23.54-.3.28-.12a2.26,2.26,0,0,1,.57-.17.6.6,0,0,1,.26.08.3.3,0,0,1,.11.24v.1a.29.29,0,0,1-.11.15l-.19.13-.11.05-.31.14-.28.12-.45.13-.24.06.37.18.27.14.14.13,0,0v.08a.16.16,0,0,1,0,.09l0,.1a.27.27,0,0,1-.13.13l-.15.06-.19,0-.11,0-.73-.37-.26.16-.26.19-.35.21-.5.31-.9.53-.37.19-.35.17-.19.07Z"/><path class="cls-4" d="M244.24,144.91l.11-.07.12,0c.22,0,.33.15.33.44a.22.22,0,0,1-.08.18c-.45.33-.9.64-1.34.9l-.61.33a4.92,4.92,0,0,1-.58.26l-.29.1a.3.3,0,0,1-.15-.05.48.48,0,0,1-.1-.15l0-.08v-.13a.35.35,0,0,1,0-.06.31.31,0,0,1,.07-.16.25.25,0,0,1,.05-.07l.09-.05a3.17,3.17,0,0,0,1-.46A8.58,8.58,0,0,0,244.24,144.91Zm.66,1.18a.43.43,0,0,1,.23-.08c.22,0,.33.14.33.43a.22.22,0,0,1,0,.1.21.21,0,0,1-.06.08,14.58,14.58,0,0,1-1.25.85,10.07,10.07,0,0,1-1.27.64l-.17.06-.13,0a.29.29,0,0,1-.25-.2l0-.12,0-.15c0-.11.06-.18.19-.23a7.36,7.36,0,0,0,1-.53l.33-.19.48-.3C244.54,146.35,244.74,146.21,244.9,146.09Z"/><path class="cls-4" d="M244.88,151.5l-.32.31-.22.16-.25.15-.4.19-.4.13-.44.09-.46,0h-.65a.59.59,0,0,1-.17,0,1.13,1.13,0,0,1-.81-.69,1.28,1.28,0,0,1,0-.41,1.34,1.34,0,0,1,.14-.53l.18-.22.22-.21.11-.1.13-.07.29-.14.26-.09.25,0h.25l.18.05.15.08.23.23.24-.22.19-.14.11-.06.14-.05.26-.06.3,0a1.09,1.09,0,0,1,.88.37l.09.14a.56.56,0,0,1,.05.19v.16C245.36,150.88,245.2,151.14,244.88,151.5Zm-2.31-.62-.16-.09-.16,0H242l-.17.07a.67.67,0,0,0-.4.63.3.3,0,0,0,.16.26l.29.12.43-.62Zm2.05-.21q0-.21-.33-.21h-.13a1.08,1.08,0,0,0-.34.17l-.44.35-.26.23-.2.24-.11.16-.18.27.56-.1h.08l.12,0a1.16,1.16,0,0,0,.2-.12l.35-.23.28-.2C244.49,151,244.62,150.83,244.62,150.67Z"/><path class="cls-4" d="M189.73,144.41h.15l.14,0h.23a.52.52,0,0,1,.27.05l.28.06q.51.12.51.45a.6.6,0,0,1-.1.32.66.66,0,0,1-.12.17,1.41,1.41,0,0,1-.17.18l-.26.24-.31.25-.26.19-.4.27a12.47,12.47,0,0,1-1.19.66l-.49.24-.24.08-.29.09-.22,0-.15,0-.09,0-.13-.1-.08-.17,0-.06c0-.21.07-.32.21-.35h.41l.22,0,.14,0,.15,0,.19-.08.25-.13.42-.21.19-.08.32-.18.35-.19.21-.14.13-.1.18-.15a1.52,1.52,0,0,0,.22-.22l.06-.07,0,0a.14.14,0,0,0,0-.06l-.1,0-.1,0-.23,0-.17,0h-.11l-.38.06h-.05l-.11,0-.12,0-.08,0h-.27l-.17,0a.36.36,0,0,1-.23-.3.54.54,0,0,1,.05-.24.69.69,0,0,1,.23-.16l.2-.07.2-.06Z"/><path class="cls-4" d="M190.59,140h.35a.22.22,0,0,1,.12,0,1.18,1.18,0,0,1,.65.15.48.48,0,0,1,.23.42,1.2,1.2,0,0,1-.42.72l-.25.28-.33.28a3,3,0,0,1-.32.23c-.13.07-.25.14-.39.2l-.58.24-.29.14-.21,0s-.09-.05-.16-.14l-.05-.09,0-.1a.38.38,0,0,1,.06-.22.63.63,0,0,1,.25-.16l.25-.08.29-.09a1.14,1.14,0,0,0,.3-.13,1.45,1.45,0,0,0,1-.89l-.06,0-.06,0-.22,0h-.51l-.09,0-.14.08-.11.06-.1,0h-.15a.26.26,0,0,1-.16-.07l-.11-.15,0-.13a.27.27,0,0,1,.14-.25,2.66,2.66,0,0,1,.55-.23A2.7,2.7,0,0,1,190.59,140Z"/><path class="cls-4" d="M182.18,147.76a.64.64,0,0,1-.4-.1.42.42,0,0,1-.13-.34v-.12a.21.21,0,0,1,.12-.18.72.72,0,0,1,.26-.08,2.49,2.49,0,0,0,.81-.19l.67-.38a1.17,1.17,0,0,0,.38-.2l.45-.31.18-.11.19-.17-.08-.08-.17-.18-.07-.16V145a.38.38,0,0,1,.05-.16l.11-.1a.51.51,0,0,1,.3-.12.89.89,0,0,1,.39.12l.13.07.15.1.46-.24.53-.3.29-.12a2.36,2.36,0,0,1,.56-.17.66.66,0,0,1,.27.08c.06,0,.09.12.1.25v.09a.28.28,0,0,1-.1.16l-.19.12-.11.05L187,145l-.29.12-.45.13-.23.06.36.18.27.14.15.14,0,0v.08a.44.44,0,0,1,0,.1l0,.09a.21.21,0,0,1-.13.13l-.14.07-.19,0a.2.2,0,0,1-.12,0l-.73-.37-.26.16-.25.19-.35.21-.5.31-.91.53-.36.19-.35.18-.19.06Z"/><path class="cls-4" d="M187.26,140.62a.36.36,0,0,1,.23-.08c.22,0,.32.14.32.43v.1a.13.13,0,0,1-.06.07,13.42,13.42,0,0,1-1.26.86,10,10,0,0,1-1.26.64l-.17.05-.13,0c-.11,0-.19-.06-.25-.2l0-.11,0-.16c0-.1.06-.18.2-.22a8.21,8.21,0,0,0,1-.53,2.59,2.59,0,0,1,.33-.19l.48-.3C186.9,140.88,187.09,140.74,187.26,140.62Z"/><path class="cls-4" d="M182.16,144.56h.18l.11,0,.11.06a.59.59,0,0,1,.29.38l.05.21,0,.15a.31.31,0,0,1,0,.11l0,.17-.08.31-.11.29-.09.22-.13.24a1.16,1.16,0,0,1-.36.45l-.16,0-.09,0-.1,0-.09,0-.14-.1,0-.15a.29.29,0,0,1,0-.12s0-.06.06-.11l.15-.19.14-.21.24-.46.08-.24s0,0,0-.06a.11.11,0,0,0,0-.08h-.06a.48.48,0,0,0-.27.09l-.22.2-.49.4-1,.74-.34.25-.39.23-.3.16-.25.09-.19,0-.17,0-.11,0a.29.29,0,0,1-.12-.27v-.13s0-.08,0-.1l.05-.12s.08-.08.19-.14l.25,0H179l.15,0,.3-.16.48-.31.22-.17.24-.19.29-.26.31-.26.29-.27.3-.26A.85.85,0,0,1,182.16,144.56Z"/><path class="cls-4" d="M183,149.42a.25.25,0,0,1,.26.18l0,.14v.09a.13.13,0,0,1,0,.1l-.11.13-.08,0-.16.08-.17.08-.31.29-.28.2-.5.32-.43.26-.25.14-.29.15-.49.18-.18,0a.4.4,0,0,1-.26-.11.48.48,0,0,1-.1-.28l0-.13s0-.08.06-.09l.06-.05.24-.13.5-.22.41-.2.29-.13.26-.15.5-.32.29-.19.25-.2.28-.17A.47.47,0,0,1,183,149.42Z"/><path class="cls-4" d="M178.28,144.17h.11a.16.16,0,0,1,.1,0,.43.43,0,0,1,.19.22v.2a.26.26,0,0,1-.09.23l-.39.17.19.19a.58.58,0,0,1,.18.43v.25l0,.07a1,1,0,0,1-.53.69l-.28.15-.2.07-.24,0H177l-.25,0-.47-.11-.09-.06-.31.26-.14.13-.19.15-.4.3-.18.1-.31.2-.28.17-.59.32-.11.06-.14.06-.24.13-.23,0a.55.55,0,0,1-.5-.29l0-.07,0-.15a.25.25,0,0,1,.09-.22l.11-.09.08,0h.5a.92.92,0,0,0,.39-.09l.65-.35.22-.14.38-.25.24-.17.16-.17.13-.1.14-.16-.1-.18,0-.11,0-.12a.47.47,0,0,1,.27-.31l.2,0h.14l.18.08a.37.37,0,0,1,.18.19V146l.06.05.17.11.17.07h.23l.15,0,.12-.05a.78.78,0,0,0,.31-.2l.09-.13,0-.11a.35.35,0,0,0-.06-.21l-.09-.11-.14-.08-.12-.08-.25-.12L177,145l-.05-.09,0-.12a.13.13,0,0,1,.08-.14l.22-.1h.4l.15-.07.14-.1.13-.07.13-.06Z"/><path class="cls-4" d="M175.3,140.08h.16l.12,0,.34.06.36.1.25.11a.55.55,0,0,1,.33.47l0,.17-.09.16-.1.14-.25.2-.87.58-.81.42-.33.15-.3.06a.35.35,0,0,1-.23-.09l-.07-.12,0-.14,0-.14a.32.32,0,0,1,.12-.14l.28-.14.52-.22.7-.35.28-.15.2-.15,0-.09c0-.13-.18-.2-.53-.2l-.36,0-.42.15c-.3,0-.44-.13-.44-.37a.33.33,0,0,1,.06-.21.83.83,0,0,1,.24-.15l.42-.14Zm3,0a2.35,2.35,0,0,1,.58.09.49.49,0,0,1,.17.06l.12.06.26.17a.54.54,0,0,1,.18.19.53.53,0,0,1,.06.26l0,.1-.06.11-.13.15-.13.15-.13.15-.17.14-.47.38-.48.32-.42.25-.19,0-.2,0h-.16s-.06,0-.12-.08l-.07-.13a.28.28,0,0,0,0-.1.24.24,0,0,1,.08-.17l.15-.07.19-.1.3-.14.5-.27.38-.3.2-.18a.33.33,0,0,0,.08-.17.18.18,0,0,0-.13-.19l-.3,0-.19,0-.13,0-.15.06-.12,0h-.1l-.26,0-.11-.05-.05,0-.06,0a1.66,1.66,0,0,1,0-.16l0-.1a.24.24,0,0,1,.06-.11l.19-.14.14-.06.12,0,.31-.09.22,0Z"/><path class="cls-4" d="M55.19,73.92l.13-.09.12,0,.19,0a.19.19,0,0,1,.12.11l0,.15a.27.27,0,0,1,0,.17l-.16.14-.22.24-.15.11-.11.09-.88.55-.9.51-.44.22-.43.18-.45.17a1.16,1.16,0,0,1-.43.08.68.68,0,0,1-.38-.12l-.13-.11a.16.16,0,0,1,0-.07s0-.06,0-.1v-.1A.22.22,0,0,1,51,76a.39.39,0,0,1,.18-.2l.18-.06.16,0,.27,0h.1a1.57,1.57,0,0,0,.68-.18l.48-.23,1.08-.62.76-.5Z"/><path class="cls-4" d="M56.28,68.23a1.51,1.51,0,0,1,.89.27.87.87,0,0,1,.4.77,1.78,1.78,0,0,1-.63,1.15l-.11.1-.13.1-.39.3a.49.49,0,0,1-.3-.14.25.25,0,0,1-.12-.22,6.12,6.12,0,0,0,.63-.52,1,1,0,0,0,.34-.72.43.43,0,0,0-.15-.37.71.71,0,0,0-.16,0h-.27a2.43,2.43,0,0,0-1.44.7,2.9,2.9,0,0,0-1,1.28l0,.18c0,.29.21.44.63.44a.16.16,0,0,0,.1,0,.5.5,0,0,0,.13-.09l.26-.23a.25.25,0,0,1,.17-.06c.17,0,.28.12.31.38s-.15.37-.45.52a1,1,0,0,1-.18.08l-.24.08a1.06,1.06,0,0,1-.31,0,1.1,1.1,0,0,1-.79-.35,1.33,1.33,0,0,1-.23-.37,1.18,1.18,0,0,1-.08-.43c0-.51.4-1.11,1.18-1.81A3.25,3.25,0,0,1,56.28,68.23Z"/><path class="cls-4" d="M46.44,77.21A.65.65,0,0,1,46,77.1a.4.4,0,0,1-.13-.34v-.11a.21.21,0,0,1,.11-.19.79.79,0,0,1,.26-.08,2.35,2.35,0,0,0,.81-.19l.67-.38a1.08,1.08,0,0,0,.38-.2l.45-.31.18-.11L49,75l-.09-.08-.16-.18-.08-.16v-.15a.64.64,0,0,1,0-.16l.11-.1a.51.51,0,0,1,.3-.12,1.15,1.15,0,0,1,.4.12l.12.07.16.1.45-.24.53-.3.29-.12a2.26,2.26,0,0,1,.57-.17.62.62,0,0,1,.26.09c.06,0,.09.11.1.24V74a.26.26,0,0,1-.1.16l-.19.12-.11,0-.31.14-.29.12-.45.13-.23.06.36.18.28.15.14.13,0,0v.08a.36.36,0,0,1,0,.1l0,.09a.22.22,0,0,1-.12.13l-.15.07-.19,0h-.12l-.73-.38-.25.16-.26.19-.35.21-.5.32-.91.52-.36.2-.35.17-.19.06Z"/><path class="cls-4" d="M51.51,70.06a.34.34,0,0,1,.23-.08c.21,0,.32.14.32.43v.1a.13.13,0,0,1-.06.07,11.75,11.75,0,0,1-1.26.86,10.68,10.68,0,0,1-1.26.64l-.17.06-.13,0c-.11,0-.19-.06-.26-.2V71.7c0-.1.07-.18.21-.22a8.21,8.21,0,0,0,1-.53,3.37,3.37,0,0,1,.32-.19l.49-.3C51.15,70.32,51.34,70.18,51.51,70.06Z"/><path class="cls-4" d="M46.22,73.29l.13,0h.14a.27.27,0,0,1,.17.11.53.53,0,0,1,0,.11v.09a.54.54,0,0,1-.31.36l-.18.09.08,0,.2.11a.59.59,0,0,1,.16.15.24.24,0,0,1,.05.16.52.52,0,0,1-.24.37l-.69.32.19.11.2.13a1,1,0,0,1,0,.21v.07a.16.16,0,0,1,0,.1L46,76l-.4.31-.43.31-.34.24-.91.61-.32.21-.29.15-.09,0-.15.07-.37.16a1.3,1.3,0,0,1-.46.13.33.33,0,0,1-.17,0l-.11,0L41.87,78a.35.35,0,0,1-.07-.12.6.6,0,0,1,0-.18c0-.18.14-.3.41-.36l.18,0,.13,0,.16,0,.15,0,.18-.06.24-.11.23-.13.85-.54.42-.28.59-.42L45,75.47a.38.38,0,0,1-.14-.28.24.24,0,0,1,0-.13A1.17,1.17,0,0,1,45,74.9l.27-.14.4-.2-.18-.11-.22-.13-.12-.08-.06,0-.06-.11V74l0,0,.15-.12,0,0,.06,0a.83.83,0,0,0,.22-.08l.18-.07.17-.08.15-.11Z"/><path class="cls-4" d="M46.27,69.48h.35l.12,0a1.17,1.17,0,0,1,.64.15.48.48,0,0,1,.23.42,1.2,1.2,0,0,1-.42.72l-.25.28-.33.28a2,2,0,0,1-.32.23,2.38,2.38,0,0,1-.39.2l-.58.24-.29.14-.21,0s-.08,0-.16-.13l0-.09,0-.11a.34.34,0,0,1,.07-.22.52.52,0,0,1,.24-.16l.25-.07.29-.1a1.29,1.29,0,0,0,.3-.12,1.48,1.48,0,0,0,1-.9l-.06,0-.06,0-.22,0h-.51l-.09,0-.14.07-.11.06-.1,0h-.15a.26.26,0,0,1-.16-.07l-.1-.15L45,70a.27.27,0,0,1,.13-.25,3.13,3.13,0,0,1,.56-.23A2.57,2.57,0,0,1,46.27,69.48Z"/><path class="cls-4" d="M42.56,73.78c.31,0,.47.09.47.26a.68.68,0,0,1-.18.44l-.16.17-.22.14-.21.09L42,75l-.39,0h-.25L41,75h-.21l-.07.1-.15.16-.29.31-.21.16-.23.17-.7.48-.4.25-.27.14-.2.11-.38.17-.19.08a1.36,1.36,0,0,1-.33.06l-.09,0-.11,0-.09,0L36.93,77a.31.31,0,0,1-.11-.16l0-.12v-.13a.49.49,0,0,1,.13-.28l.13-.06.14,0h.08l.17,0,.17,0,.15,0,.18-.06.5-.22.26-.14.25-.14a5.13,5.13,0,0,0,.68-.5l.12-.14.06-.13-.08-.09a.25.25,0,0,1-.08-.18.7.7,0,0,1,.22-.51.71.71,0,0,1,.51-.22.61.61,0,0,1,.33.14c.14.09.2.18.2.27l.38,0a1.17,1.17,0,0,0,.4-.09,2.7,2.7,0,0,0,.49-.3l.12-.07.1-.06A.45.45,0,0,1,42.56,73.78Z"/><path class="cls-4" d="M42.81,78.87a.24.24,0,0,1,.26.17l0,.14v.09a.13.13,0,0,1,0,.1l-.11.13-.08,0-.16.08-.18.08-.3.29-.28.2-.5.32-.43.26-.25.15-.3.14-.48.18-.18.05a.4.4,0,0,1-.26-.11.46.46,0,0,1-.1-.28l0-.13a.15.15,0,0,1,.06-.09l.06-.05.24-.13.5-.22.41-.2L41,80l.26-.15.5-.32.29-.19.25-.2.28-.16A.37.37,0,0,1,42.81,78.87Z"/><path class="cls-4" d="M91.41,78.64h.15l.12,0,.35.06.35.1.25.11a.59.59,0,0,1,.34.47l0,.18-.09.15-.1.14-.25.21-.87.57-.8.43-.33.15-.31.06a.37.37,0,0,1-.23-.1l-.07-.11v-.15l0-.14s0-.08.11-.14l.28-.13.53-.23.69-.35.28-.15.21-.15,0-.09c0-.13-.18-.19-.53-.19l-.35,0-.42.14c-.3,0-.45-.12-.45-.37a.28.28,0,0,1,.07-.21.65.65,0,0,1,.23-.15l.42-.13Zm3,0a2.75,2.75,0,0,1,.58.08.67.67,0,0,1,.17.06l.13.06.25.17a.64.64,0,0,1,.18.19.53.53,0,0,1,.06.26l0,.1-.06.11-.13.16-.13.15-.12.14-.17.14-.48.38-.48.32-.42.25-.18.05-.21,0H93.2s-.07,0-.13-.07L93,81.1A.31.31,0,0,0,93,81a.24.24,0,0,1,.08-.16l.15-.08.2-.1.29-.13.5-.28.38-.3.2-.18a.36.36,0,0,0,.09-.17.2.2,0,0,0-.13-.19h-.49l-.14,0-.15.06-.12,0-.1,0-.26,0-.11,0,0,0-.06,0a.49.49,0,0,1,0-.17v-.1L93.3,79l.2-.14.13-.06.13,0a1.11,1.11,0,0,1,.3-.08l.22,0Z"/><path class="cls-4" d="M94.72,82.72h.11l.09,0a.44.44,0,0,1,.2.22v.2a.25.25,0,0,1-.09.23l-.4.17.2.19a.6.6,0,0,1,.18.43v.19a.17.17,0,0,1,0,.07.14.14,0,0,1,0,.06,1,1,0,0,1-.53.69l-.28.16-.2.06-.24,0h-.25l-.25,0-.47-.11-.09,0-.31.26-.14.13-.19.14-.4.3-.18.11-.31.19-.28.18-.59.32-.11.05L90,87l-.24.13-.23,0a.54.54,0,0,1-.5-.28l0-.07,0-.16a.27.27,0,0,1,.09-.22l.11-.08.08,0h.5a.92.92,0,0,0,.39-.09l.64-.35.23-.14.38-.25.24-.17.15-.17.14-.1.14-.15L92,84.7l0-.12,0-.12a.43.43,0,0,1,.27-.3l.2,0h.14l.18.08a.37.37,0,0,1,.18.19v.16l.06,0,.16.11.18.07h.23l.15,0,.12,0a.78.78,0,0,0,.31-.2l.09-.13,0-.11a.37.37,0,0,0-.06-.21L94.14,84,94,83.88l-.12-.08-.25-.12-.24-.17,0-.09,0-.12a.15.15,0,0,1,.07-.14l.23-.1H94l.15-.07.14-.09.13-.08.13-.06Z"/><path class="cls-4" d="M101,79.65c0,.57-.36,1-1.1,1.43a1.64,1.64,0,0,1-.75.23c-.71,0-1.06-.3-1.06-.91a1.49,1.49,0,0,1,.61-1.18,2,2,0,0,1,1.3-.51,1.24,1.24,0,0,1,.4.07.78.78,0,0,1,.32.18A.88.88,0,0,1,101,79.65Zm-.66.11c0-.25-.18-.37-.53-.37a1,1,0,0,0-.67.31.94.94,0,0,0-.32.67c0,.16.11.24.32.24h.16a1.1,1.1,0,0,0,.65-.29C100.24,80.13,100.37,79.94,100.37,79.76Z"/><path class="cls-4" d="M98.33,83l.21,0a.47.47,0,0,1,.31.18l.09.14a.31.31,0,0,0,.19.09.29.29,0,0,0,.15-.06l.15-.13.1-.09.11-.09a.28.28,0,0,1,.11,0l.16,0H100l.08,0,.13.07.07,0,0,.06.07.18.06.16.05,0,.07,0a.79.79,0,0,0,.33-.1l.14-.11.14-.15a.18.18,0,0,1,.07,0l.09-.07.19-.1.15,0h.15a.09.09,0,0,1,.09.07l.09.11,0,.09a.49.49,0,0,1-.13.35l-.16.19a.52.52,0,0,1-.19.15l-.22.11-.26.11-.25.07-.46.09a.7.7,0,0,1-.38-.1l-.14-.12-.16-.15h-.28a.75.75,0,0,0-.23,0,.36.36,0,0,0-.15.08l-.31.28-.47.39-.48.36-.13.09-.18.12-.2.13-.68.38-.52.28-.21.09-.24.09-.21,0-.22,0-.14,0-.17-.07c-.14-.06-.2-.2-.2-.41a.32.32,0,0,1,.19-.3l.15,0h.52A1.23,1.23,0,0,0,96,85.3l.47-.23.53-.29.49-.32.37-.29.09-.11A.36.36,0,0,0,98,84l-.18-.32,0-.17v-.08a.13.13,0,0,1,0-.08l.09-.13A.72.72,0,0,1,98.33,83Z"/><path class="cls-4" d="M107.3,79.17a.43.43,0,0,1,.23-.08c.22,0,.33.14.33.43l0,.1a.21.21,0,0,1-.06.08,14.58,14.58,0,0,1-1.25.85,10.07,10.07,0,0,1-1.27.64l-.17.06-.13,0c-.1,0-.19-.07-.25-.21l0-.11,0-.15a.24.24,0,0,1,.2-.23,6.9,6.9,0,0,0,1-.53l.33-.19.48-.3C106.94,79.43,107.14,79.29,107.3,79.17Z"/><path class="cls-4" d="M107.15,84c0,.3-.3.66-.89,1.06l-1.1.74-.46.28a4.35,4.35,0,0,1-1.65.72c-.38,0-.58-.15-.58-.44a.38.38,0,0,1,.21-.35.44.44,0,0,1,.28-.06H103l.09,0,.09,0,0,0h.15l.12,0,.18-.06.5-.26.2-.1.34-.22.19-.13c-.41-.19-.62-.42-.62-.69a1.19,1.19,0,0,1,.44-.91l.21-.14.21-.15a2,2,0,0,1,.92-.24,1.32,1.32,0,0,1,.84.32A.66.66,0,0,1,107.15,84Zm-.75-.08q-.09-.15-.45-.15a1.23,1.23,0,0,0-.69.32l-.1.11-.09.16,0,.12a.3.3,0,0,0,.17.23.39.39,0,0,0,.13,0l.11,0,.18,0,.32-.16c.33-.21.49-.39.49-.52A.14.14,0,0,0,106.4,83.91Z"/><path class="cls-4" d="M112.69,79.17a.4.4,0,0,1,.22-.08c.22,0,.33.14.33.43l0,.1a.21.21,0,0,1-.06.08,12,12,0,0,1-1.25.85,10.07,10.07,0,0,1-1.27.64l-.16.06-.13,0a.29.29,0,0,1-.26-.21l0-.11,0-.15a.24.24,0,0,1,.2-.23,6.9,6.9,0,0,0,1-.53l.33-.19.48-.3Z"/><path class="cls-4" d="M111.73,83l.13-.09.12,0,.19,0a.18.18,0,0,1,.12.12l0,.14a.25.25,0,0,1,0,.17l-.16.14-.22.24-.15.11-.11.09-.88.55-.9.51-.44.23-.43.17-.45.18a1.38,1.38,0,0,1-.43.07.71.71,0,0,1-.38-.12l-.13-.11a.16.16,0,0,1,0-.07s0-.06,0-.1v-.1a.22.22,0,0,1,0-.09.37.37,0,0,1,.19-.2l.17-.06.16,0,.27,0h.1a1.7,1.7,0,0,0,.68-.17l.48-.24,1.08-.62.76-.5Z"/><path class="cls-4" d="M117.79,88a.27.27,0,0,1,.27.17l0,.14v.09a.13.13,0,0,1,0,.1l-.11.13-.08,0-.16.08-.18.08-.3.29-.28.21-.5.31-.43.26-.25.15-.29.14-.49.18-.18.05a.4.4,0,0,1-.26-.11.44.44,0,0,1-.1-.28l0-.13a.15.15,0,0,1,.06-.09l.06-.05.24-.12.5-.22.41-.21.29-.13.26-.15.5-.32.29-.19.25-.2.28-.16A.36.36,0,0,1,117.79,88Z"/><path class="cls-4" d="M117.48,83.11h.17l.11,0,.12.06a.58.58,0,0,1,.28.38l0,.21,0,.15a.31.31,0,0,1,0,.11l0,.17-.09.31-.1.29-.1.22-.12.24a1.28,1.28,0,0,1-.37.45l-.16,0-.09,0-.09,0-.1,0-.13-.09,0-.16a.41.41,0,0,1,0-.12.26.26,0,0,1,.07-.1l.14-.2.14-.21.25-.45.08-.25a.22.22,0,0,0,0-.06.14.14,0,0,0,0-.07l-.07,0a.43.43,0,0,0-.26.09l-.23.2-.48.41-1,.73-.35.25-.38.23-.3.17-.25.09-.19,0-.18,0-.11,0a.27.27,0,0,1-.12-.26v-.13a.27.27,0,0,1,0-.11l.06-.12s.07-.08.19-.14l.25,0h.2l.15,0,.31-.15.47-.32.23-.17.23-.19.3-.26.3-.25.3-.28.3-.26A.83.83,0,0,1,117.48,83.11Z"/><path class="cls-4" d="M4.15,49.43h2l4.16,10.81h-2l-1-2.86H3L2,60.24H0Zm-.67,6.51h3.3L5.16,51.3h0Z"/><path class="cls-4" d="M11,51.4c1.46,0,2.83-.48,3.09-1.75H15.5V60.24H13.61V52.76H11Z"/><path class="cls-4" d="M62.42,106.38h2l4.16,10.81h-2l-1-2.86H61.24l-1,2.86H58.27Zm-.67,6.51h3.3l-1.62-4.64h0Z"/><path class="cls-4" d="M71.92,111c1.15,0,2.35-.37,2.35-1.67a1.52,1.52,0,0,0-1.65-1.5A1.89,1.89,0,0,0,70.86,110H69.14a3.46,3.46,0,0,1,3.51-3.61c1.65,0,3.35,1,3.35,2.83a2.24,2.24,0,0,1-1.5,2.27v0a2.49,2.49,0,0,1,1.92,2.64c0,2-1.73,3.24-3.75,3.24a3.42,3.42,0,0,1-3.73-3.69h1.73a2,2,0,0,0,2,2.26,1.85,1.85,0,0,0,2-1.9c0-1.65-1.4-1.86-2.77-1.8Z"/><path class="cls-4" d="M186.16,61.05h2l4.16,10.8h-2l-1-2.86H185l-1,2.86h-2Zm-.67,6.51h3.3l-1.62-4.65h0Z"/><path class="cls-4" d="M200,71.85H192.8a4.76,4.76,0,0,1,2.34-4c1.37-1,3.16-1.83,3.19-3.48a1.68,1.68,0,0,0-1.79-1.88c-1.36,0-1.77,1.17-1.81,2.65H193c0-2.34,1.29-4.08,3.65-4.08a3.14,3.14,0,0,1,3.4,3.25c0,1.68-1.15,2.73-2.36,3.57s-2.51,1.5-2.81,2.44H200Z"/></g></g></g></svg>