<svg xmlns="http://www.w3.org/2000/svg" viewBox="0 0 525.4 461.57"><defs><style>.cls-1{fill:#f1f2f2;}.cls-2{fill:#396287;fill-rule:evenodd;}.cls-3{fill:none;stroke:#1a1a18;stroke-miterlimit:22.93;stroke-width:0.77px;stroke-dasharray:7.02 3.51;}.cls-4{isolation:isolate;}.cls-5{fill:#383838;}</style></defs><title>HDH</title><g id="Layer_2" data-name="Layer 2"><g id="Layer_1-2" data-name="Layer 1"><g id="B1"><path class="cls-1" d="M452.09.39a32.75,32.75,0,0,0-1.76,2.8c-2.1,3.86-3.15,9.47-7.36,10.52L421.92,47.39c-2.1,3.51-6,5.61-7,9.12-3.16,8.42-8.42,14-13,15.43L387.55,82.81c-6.67,5.27-12.28,10.88-11.23,21.75v2.11H224.79c2.11-9.83,5.62-19.3,15.79-26.31a31.37,31.37,0,0,1,3.16-11.58c2.45-7.71,4.91-15.08,7.36-22.8,4.91-7.36,12.63-11.92,20-17.53,1.06-9.12-1.75-19.3-3.5-28.06Z"/><path class="cls-2" d="M402.63,5c4.56,1.75,4.21,2.45,6,7s-1,8.07-5.26,7-4.56-1.76-6-6.32.7-9.47,5.26-7.71"/><path class="cls-2" d="M443.67,13.71c-.7-1.05-1.76-1.05-3.51,0-3.16,3.16-4.91,6.67-8.42,10.53a102.09,102.09,0,0,0-9.47,14.38c-1,2.1-3.51,3.86-4.56,6-1,4.91,1.05,6,7.37,4.91l.35-.35c-1.4.35-1.05-.7.35-1.4A33.71,33.71,0,0,0,435.6,30.2c.35-5.26,1.4-11.22,7-14,.7-.35.7-1.4.7-1.75a1.12,1.12,0,0,1,.35-.71"/><path class="cls-2" d="M401.93,62.12h0c-.35-.35-.35-.7-.7-.7a7.78,7.78,0,0,0-6.67,2.1h0c-.35,2.11-5.26,7-6,8.42v.35c-1.75,3.51-2.81,6.67-1.75,7.37s6-2.81,9.12-8.07a21.31,21.31,0,0,1,2.45-3.51l.35.35a6,6,0,0,1-.35-2.45c1.75-2.46,2.81-3.86,3.51-3.86m-2.46,7a28.11,28.11,0,0,1-6.66,11.23l-3.86,1c-1.75,1-.35,2.46,1.05,3.16a10.7,10.7,0,0,0,8.07-.7,43.32,43.32,0,0,0,2.81-5.62c-.71,0-1.06,0-.71-2.1a7,7,0,0,0,0-3.86,10.22,10.22,0,0,1-.7-3.16Z"/><path class="cls-2" d="M337,34.76c1-.35,2.8,1.05,4.91,4.21s2.1,6.31-.35,6.31-3.16-1.4-4.56-4.21-1.05-5.61,0-6.31"/><path class="cls-2" d="M332.13,47.74c1.05,0,1.75,1,2.1,2.45-.7-.7-1.4-1.4-2.1-1s-.7,2.11-.35,3.51a3.49,3.49,0,0,0,1.4,1.75,1.29,1.29,0,0,1-1.05.35c-1.06,0-2.11-1.4-2.11-3.5s.7-3.51,2.11-3.51"/><path class="cls-2" d="M265.83,60.37c.7,1.05,1.41,1.75,2.11,1.75s1.4-1.75,1.4-3.51a2.39,2.39,0,0,0-2.45-2.45c0,2.8,0,3.85-1.06,4.21"/><path class="cls-2" d="M264.78,59.31a10,10,0,0,0-2.1-7.71l-.35-.35V50.9c-2.46-4.92-2.46-4.92-9.12-6.67h0A4.18,4.18,0,0,0,251.45,46c-2.1,3.51-5.26,6.32-6,10.18A11.4,11.4,0,0,0,249,68.43a74.59,74.59,0,0,0,11.22,7c2.81,1,6-1.76,6.31-6v-.36a11.81,11.81,0,0,1-1.75-6V59.31"/><path class="cls-2" d="M244.09,66.33c.7-.35,2.45.35,3.15,1.75a3.2,3.2,0,0,1,0,3.51c-.7.35-2.1-.35-3.15-1.75s-.71-3.16,0-3.51"/><path class="cls-2" d="M257.77,85.62l-8.42-6.31a7.42,7.42,0,0,0-9.47.7,25.58,25.58,0,0,0-.7,15.43c.7,6,4.56,4.91,6.66,3.86a117.55,117.55,0,0,1,11.22-6.66c3.51-2.11,3.86-4.21.71-7"/><path class="cls-2" d="M268.64,39.67c-1.05,0-1.05-.35-1.75-1.05a9.76,9.76,0,0,1,0-4.56c.35-1.4,1.05-1.76,2.45-2.81s2.46-4.56,5.26-3.86c.7,2.46-1.4,4.21-2.1,6.32s0,6.31-3.16,6Z"/></g><g id="B2"><path class="cls-1" d="M376.32,106.67a72.19,72.19,0,0,1-4.21,21,48.57,48.57,0,0,0-7,20.7c.35,4.56-2.81,7-5.61,9.47s-2.46,7.36-4.56,10.87A70.66,70.66,0,0,0,359.84,188c1.75,3.86,3.86,8.77,2.45,13a40.69,40.69,0,0,0-2.8,11.22H229a24,24,0,0,1,4.56-15.08,23.35,23.35,0,0,0,1.41-13c-3.51-2.45-6.32-6.66-9.47-8.77-10.88-6.66-13.33-14.73-1.06-18.94l4.21-11.22c-8.77-18.24-6.31-26.31-3.86-38.58v-.35Z"/><path class="cls-2" d="M250.75,106.32c-3.16,2.1-3.16,4.2-.35,6a42.5,42.5,0,0,0,13.33,2.1c1.75-1,2.1-2.1,1.4-3.86a15.61,15.61,0,0,0-14.38-4.2"/><path class="cls-2" d="M244.79,114.38c-4.56-2.8-7.72-3.15-8.42,1.76v12.27c-.7,2.11,2.1,4.91,7,5.62a7.78,7.78,0,0,0,5.62-.36,23,23,0,0,0,6-4.2c1.4-1.41,1-2.81-1.05-4.56A6.92,6.92,0,0,1,251.8,120a13.66,13.66,0,0,0-7-5.61"/><path class="cls-2" d="M245.84,146.65a39.34,39.34,0,0,0-12.28-4.21,7,7,0,0,0-6.66,2.81,19.94,19.94,0,0,0-3.16,14c0,4.56,2.81,6.31,7,7,8.42-1.06,16.13-1.06,24.55-1.41,3.86,0,4.91-1.75,1.75-4.91a22.17,22.17,0,0,1-7.71-4.91c-.35-4.56-1-7.37-3.51-8.42"/><path class="cls-2" d="M252.86,152.26a1.13,1.13,0,0,1,1,1.06c0,.7-.35,1.4-.7,1.4a1.13,1.13,0,0,1-1.06-1.05c0-.7,0-1.41.71-1.41"/><path class="cls-2" d="M243.74,176.12a7.85,7.85,0,0,1,8.06,7.71,10.46,10.46,0,0,1-1.4,6.32,8.36,8.36,0,0,1-6.31,1.75,7.59,7.59,0,0,1-6-1.75c-1.4-1.41-1.4-2.46-2.45-6.32a7.35,7.35,0,0,1,6-8.06,6.17,6.17,0,0,0,2.11.35"/><path class="cls-2" d="M284.07,175.41a9.71,9.71,0,0,1,4.56,1.06,8.7,8.7,0,0,0-2.8.35c-3.16,0-6,.7-6,1.75s2.81,2.11,6,2.11a11.12,11.12,0,0,0,4.91-1.06c-.7,1.41-3.16,2.81-6.67,2.81s-6.66-1.4-6.66-3.51,3.16-3.51,6.66-3.51"/><path class="cls-2" d="M303,180c3.86-1.75,7,.36,6.32,3.86s-3.86,3.51-6.67,3.51a4,4,0,0,1-3.86-4.21v-.35c-.35-1.75.36-1.4,4.21-2.81"/><path class="cls-2" d="M351.77,153a6.63,6.63,0,0,1,6.31,7v.35c-.35,4.21.35,8.07-2.1,8.07s-5.61-3.86-7-8.07-.35-7.36,2.81-7.36"/><path class="cls-2" d="M362.64,117.54l-.7-.7c-1.05-1-2.1-.35-2.1,1a79.56,79.56,0,0,0,.35,8.77c0,.35,1.05,2.1,1.05,1,0-4.21,6-3.51,2.46,4.21-.71,1.75,2.1,2.11,3.85,1.75,0-.35.35-1,.35-1.4-1,.7-3.85-.7-3.5-2.1,1.4-1.76,1.05-3.86-1.06-5.26a26.62,26.62,0,0,1-2.45-4.21c-.7-1.76,0-2.46,1.4-2.46Z"/><path class="cls-2" d="M255.66,122.1c.35-1,1.4,0,.35.35v.35a.34.34,0,0,0-.35.35V122.1h0"/><path class="cls-2" d="M246.19,159.28c-3.16.7-4.91-4.56-6.66-6.66h1.05a19.24,19.24,0,0,0,5.61,6.31Z"/></g><g id="B3"><path class="cls-1" d="M115,267.31c-4.21,1.76-9.82-.35-14,1.41-2.11,1-2.46,2.1-4.91,2.45s-4.91-.35-7.37,0a35.5,35.5,0,0,0-5.26,2.46,19.94,19.94,0,0,1-6.32,1.05,47.52,47.52,0,0,0-14,1.05c-3.85,6,.71,15.08-2.45,21.75a149.43,149.43,0,0,1-8.77,13.68c-1.75,2.8-4.91,8.07-8.07,9.47,0,.7-.35,1.4-.35,2.1-3.51,0-8.77,7.37-10.87,9.47a31.71,31.71,0,0,0-8.77,11.58,37.75,37.75,0,0,1-2.46,8.42,11.55,11.55,0,0,0-2.1,6.66c0,5.26,1.4,11.93-2.11,15.44-2.1,2.1-3.85,4.2-6.31,6.31s-5.26,2.45-7.36,4.21c-4.92,3.51-3.86,10.52-1.41,15.43a32.77,32.77,0,0,0,10.53,15.08l6.31,4.21c2.1,2.11,3.16,4.56,6.66,3.51,5.26-1.4,8.07-8.42,13-9.82a15.26,15.26,0,0,0,4.91-12.63h-1.4c2.1-.7,1.05-4.56,1.4-6.66a21.25,21.25,0,0,1,4.91-10.17c3.86-6,3.16-12.28,6-18.59,1.05-2.46,2.1-5.27,3.15-7.72a54.72,54.72,0,0,1,1.76-7.37c1.4-2.45,3.85-4.56,5.26-7S66.6,337.82,68,335s2.1-6.31,3.5-9.12a90.3,90.3,0,0,0,4.91-7.72,39.34,39.34,0,0,1,8.77-14.73,82.24,82.24,0,0,1,13-11.57c4.91-3.16,10.52-5.62,14.38-10.18,1.76-2.1,5.61-12.27,3.16-13.67Z"/><path class="cls-1" d="M297.4,212.6l-63.84,59.27v-.7h0a61.8,61.8,0,0,0-3.5-10.52v-.35l-.35-.7h.35c-.35-13-1.06-25.61-1.41-38.59a70.54,70.54,0,0,0,.35-8.77Z"/><path class="cls-2" d="M238.82,221.72c-1.4-4.92-3.5-4.21-7-1.76a28.18,28.18,0,0,1-8.42,6c-3.16,1.76-2.45,4.21-1,6.32A94.72,94.72,0,0,1,229,245.57c0,3.5,0,7-1.05,10.17,1.4,6,4.21,7.72,9.47,4.56a41.44,41.44,0,0,0,10.88-18.94c1.4-2.11,1.4-4.91-1.41-8.42-.7-2.46-3.51-3.86-5.26-6a15,15,0,0,1-2.81-5.26"/><path class="cls-2" d="M113.6,270.12a4.86,4.86,0,0,0-3.85-.7c-4.56,1.05-11.23,3.86-13,3.51-7.37-1.41-11.58,4.56-17.89,3.85-2.81-.35-15.43-3.5-15.43,2.46-.36,5.26,1.4,12.28-2.46,16.13L44.15,312.91c-3.5,3.86-3.15,7.72-6,11.93-8.42,12.63-15.43,21-17.54,35.78-.7,3.85,0,13.32-3.51,16.13-3.85,3.16-14,8.77-16.13,13.33-2.81,6.31,4.21,11.57,8.07,15.08A78,78,0,0,1,21.35,421.3c3.51,5.61,10.53-4.56,20.35-8.07,6.31-2.1,6-21.4,6.31-25.26.35-4.55,4.91-18.94.35-15.08a159.06,159.06,0,0,0-7,25.26c-2.11,8.77-15.09-4.91-13,8.42a8.57,8.57,0,0,1-4.21,0,10.51,10.51,0,0,1-5.26-8.07L16.79,388a11.87,11.87,0,0,1,1.76-6c3.86-8.77,3.86-6,9.47-21.75a17.58,17.58,0,0,0,1.75-4.55c1.41-4.21,1.05-9.48,2.81-11.93,2.45-3.86,4.91-10.52,8.77-13.33,5.61-4.21,7.36-5.61,9.82-12.28,3.51-10.17,11.92-16.83,17.54-25.95,3.5-6,4.21-9.82,11.22-10.88,5.26-.7,9.47-3.85,14.73-4.91,18.59-3.15,1.76,12.28-4.56,16.14-4.56,2.8-8.77,4.21-11.22,9.12-.7,1.4-9.47,16.13-2.81,15.08,4.91-.7,6.32-10.52,8.42-14s11.23-7,14.73-9.82c6-4.56,20-14,14.73-22.45"/><path class="cls-2" d="M68.71,336.76c-4.21-2.8-3.86-1.4-7.72,2.11a17,17,0,0,0-4.91,7c-1.4,3.86-4.21,8.07-6,11.93-1.06,2.45.35,5.61.35,8.42,1.05.7,3.15-.7,3.15-4.91a12,12,0,0,1,1.76-7.72c4.56-5.61,9.12-11.22,13.33-16.84"/><path class="cls-2" d="M38.19,352.55c1.05,0,1.05,2.1,0,2.1s-1-2.1,0-2.1"/><path class="cls-2" d="M34.33,356.76a1.05,1.05,0,1,1-1,1.05.93.93,0,0,1,1-1.05"/><path class="cls-2" d="M35.38,360.26a1.06,1.06,0,1,1,0,2.11.93.93,0,0,1-1.05-1.05,1.13,1.13,0,0,1,1.05-1.06h0"/><path class="cls-2" d="M43.45,356.06a1.05,1.05,0,1,1-1.05,1.05.93.93,0,0,1,1.05-1.05h0"/><path class="cls-2" d="M44.85,348.34a1.05,1.05,0,1,1-1.05,1.05.93.93,0,0,1,1.05-1.05"/><path class="cls-2" d="M51.52,343.08a1.05,1.05,0,1,1-1.05,1.05.93.93,0,0,1,1.05-1.05"/><path class="cls-2" d="M64.5,328.7a1.05,1.05,0,1,1-1,1.05.93.93,0,0,1,1-1.05h0"/><path class="cls-2" d="M47.31,353.25a1.05,1.05,0,1,1-1.05,1.05,1.12,1.12,0,0,1,1.05-1.05h0"/><path class="cls-2" d="M46.61,362a1.05,1.05,0,1,1-1,1.05.93.93,0,0,1,1-1.05"/><path class="cls-2" d="M43.1,362.72a1,1,0,1,1-1.05,1,1.12,1.12,0,0,1,1.05-1"/><path class="cls-2" d="M40.3,366.58a1.05,1.05,0,1,1-1.06,1.05,1.12,1.12,0,0,1,1.06-1.05"/><path class="cls-2" d="M44.15,366.23a1,1,0,1,1-1,1,.94.94,0,0,1,1-1"/><path class="cls-2" d="M34,364.47a1.06,1.06,0,1,1-1,1.06.93.93,0,0,1,1-1.06"/><path class="cls-2" d="M30.47,375.7c.71,0,1.06.35,1.06.7,0,.7-.35,1.05-.71,1.05h-.35c-.7,0-1-.35-1-.7,0-.7.35-1.05.7-1.05h.35"/><path class="cls-2" d="M28,379.91A1.05,1.05,0,1,1,27,381a.93.93,0,0,1,1.05-1"/><path class="cls-2" d="M30.12,382.71c.7,0,1.06.35,1.06.71,0,.7-.36,1.05-.71,1.05h-.35c-.7,0-1.05-.35-1.05-.7,0-.71.35-1.06.7-1.06h.35"/><path class="cls-2" d="M30.82,378.15c.36,0,.71,0,.71.71s0,.7-.71.7h-.35c-.35,0-.7,0-.7-.7s.35-.36,1.05-.71h0"/><path class="cls-2" d="M35.74,393.94c.35,0,.7.35.7,1.05a.75.75,0,0,1-.7.7c-.36,0-.71-.35-.71-1.05a.75.75,0,0,1,.71-.7"/><path class="cls-2" d="M25.56,386.57c.35,0,.7,0,.7.7,0,.35,0,.7-.7.7h-.35c-.35,0-.7,0-.7-.7,0-.35.35-.7,1-.7-.35-.35,0-.35,0,0"/><path class="cls-2" d="M34.33,386.92c.7,0,1.05.35,1.05.7,0,.71-.35,1.06-.7,1.06h-.35c-.7,0-1-.35-1-.7,0-.71.35-1.06.7-1.06h.35"/><path class="cls-2" d="M38.89,383.42a1.05,1.05,0,1,1-1,1.05,1.12,1.12,0,0,1,1-1.05h0"/><path class="cls-2" d="M42.05,373.24c.7,0,1.05.35,1.05.7,0,.71-.35,1.06-.7,1.06h-.35c-.7,0-1-.35-1-.7,0-.71.35-1.06.7-1.06h.35"/><path class="cls-2" d="M70.46,320.63A16.69,16.69,0,0,0,68,328.7a3.72,3.72,0,0,0,2.8.35,54.19,54.19,0,0,0,2.81-6.67c.35-1.05,1-2.1-.35-2.45s-2.46-.35-2.81.7Z"/></g><g id="Lines"><polyline class="cls-3" points="525.39 212.59 297.4 212.59 28.02 461.28"/><line class="cls-3" x1="525.4" y1="0.39" x2="76.77" y2="0.39"/><line class="cls-3" x1="157.8" y1="106.32" x2="474.89" y2="107.02"/><line class="cls-3" x1="90.1" y1="212.6" x2="293.54" y2="213.3"/></g><g id="Labels"><g class="cls-4"><g class="cls-4"><path class="cls-5" d="M478.3,43.34h7.56c2.78,0,4.61,1.26,4.61,3.86a3.42,3.42,0,0,1-2.22,3.31v0c1.9.41,2.92,1.9,2.92,4,0,2.44-1.7,4.33-5.73,4.33H478.3ZM481,49.85h4.44a2.08,2.08,0,0,0,2.29-2.15c0-1.57-.81-2.14-2.29-2.14H481Zm0,6.82h4.81a2.31,2.31,0,0,0,2.62-2.46c0-1.52-1-2.4-2.62-2.4H481Z"/></g><g class="cls-4"><path class="cls-5" d="M493.23,46.17c2.09,0,4.07-.69,4.44-2.53h2V58.89H497V48.13h-3.74Z"/></g></g><g class="cls-4"><g class="cls-4"><path class="cls-5" d="M419.19,144.46h7.56c2.79,0,4.62,1.27,4.62,3.86a3.42,3.42,0,0,1-2.22,3.31v0a3.72,3.72,0,0,1,2.92,4c0,2.44-1.7,4.34-5.73,4.34h-7.15Zm2.72,6.52h4.45a2.09,2.09,0,0,0,2.29-2.16c0-1.57-.81-2.14-2.29-2.14h-4.45Zm0,6.81h4.82a2.31,2.31,0,0,0,2.61-2.46c0-1.52-1-2.39-2.61-2.39h-4.82Z"/></g><g class="cls-4"><path class="cls-5" d="M444.23,160H433.82a6.85,6.85,0,0,1,3.35-5.78c2-1.43,4.56-2.63,4.6-5a2.41,2.41,0,0,0-2.57-2.7c-2,0-2.55,1.68-2.62,3.81H434.1c0-3.37,1.85-5.88,5.25-5.88a4.53,4.53,0,0,1,4.9,4.69c0,2.42-1.65,3.92-3.39,5.14s-3.62,2.15-4.06,3.5h7.43Z"/></g></g><g class="cls-4"><g class="cls-4"><path class="cls-5" d="M109.23,238.43h7.56c2.78,0,4.61,1.27,4.61,3.86a3.41,3.41,0,0,1-2.22,3.31v0c1.9.42,2.92,1.9,2.92,4,0,2.44-1.7,4.34-5.73,4.34h-7.14ZM112,245h4.44a2.09,2.09,0,0,0,2.29-2.16c0-1.57-.81-2.14-2.29-2.14H112Zm0,6.81h4.81a2.31,2.31,0,0,0,2.62-2.46c0-1.52-1-2.39-2.62-2.39H112Z"/></g><g class="cls-4"><path class="cls-5" d="M128,245.06c1.66.06,3.38-.53,3.38-2.4A2.18,2.18,0,0,0,129,240.5c-1.72,0-2.57,1.55-2.52,3.12H124c.13-3,2-5.19,5.06-5.19,2.37,0,4.81,1.38,4.81,4.08a3.23,3.23,0,0,1-2.16,3.27v0a3.59,3.59,0,0,1,2.77,3.81c0,2.88-2.48,4.66-5.4,4.66-3.53,0-5.3-2.13-5.36-5.32h2.48c-.06,1.86.94,3.25,2.88,3.25A2.66,2.66,0,0,0,132,249.5c0-2.37-2-2.68-4-2.59Z"/></g></g><g class="cls-4"><path class="cls-5" d="M351.16,30.62a.6.6,0,0,1,.29-.08q.29,0,.36.39v.19c-.35.28-.69.52-1,.74a4.12,4.12,0,0,0-.72.59.68.68,0,0,0-.24.43c0,.24.19.36.47.36h.21a.94.94,0,0,0,.81-.3.41.41,0,0,1,.36-.16c.24,0,.39.2.46.6s-.24.59-.72.68l-.31,0h-.47c-1.3,0-2-.38-2-1.15,0-.3.22-.64.66-1l.44-.35.41-.3Zm4.2,0,.18-.05.18-.06c.22,0,.36.14.42.41V31a.39.39,0,0,1-.15.32l-1.07.6q-1.08.6-1.08.81v.17c0,.23.27.34.79.34a1.05,1.05,0,0,0,.72-.22l.22-.16.16-.06a.58.58,0,0,1,.36.17.45.45,0,0,1,.17.34.65.65,0,0,1-.27.47l-.24.12-.3.11-.47,0h-.6c-1.13,0-1.69-.33-1.69-1l0-.29A3.44,3.44,0,0,1,354,31.44,15.28,15.28,0,0,1,355.36,30.62Z"/><path class="cls-5" d="M351.37,36.41l.31,0a.64.64,0,0,1,.44.26l.12.19a.44.44,0,0,0,.28.14.46.46,0,0,0,.22-.09l.21-.18.15-.13.16-.14a.35.35,0,0,1,.15-.07.82.82,0,0,1,.24,0h.12l.12.06.19.1.09.06.07.09.11.26.09.23.07,0,.1,0a1.3,1.3,0,0,0,.47-.14l.2-.16.21-.21.09-.09.13-.09.28-.14.22,0h.2a.15.15,0,0,1,.14.09l.13.15.05.14a.71.71,0,0,1-.18.5l-.24.28a.63.63,0,0,1-.27.21l-.31.16-.37.15-.37.11-.66.13a1.09,1.09,0,0,1-.54-.14l-.21-.17-.22-.23H353a1.32,1.32,0,0,0-.32,0,.57.57,0,0,0-.22.12l-.45.41-.67.56-.69.51-.19.14-.25.16-.31.19-1,.54-.75.42-.3.13-.34.12-.3.06-.32,0-.21,0-.24-.09a.59.59,0,0,1-.29-.59.47.47,0,0,1,.28-.44l.22,0h.74a1.81,1.81,0,0,0,.65-.25l.67-.34.77-.41.7-.47.53-.42.13-.15a.3.3,0,0,0,.05-.16l-.25-.47,0-.23V37a.33.33,0,0,1,0-.12l.13-.18A1,1,0,0,1,351.37,36.41Z"/><path class="cls-5" d="M364.23,43.63a.4.4,0,0,1,.39.25l0,.2,0,.14a.16.16,0,0,1-.06.13l-.15.19-.12.06-.23.11-.25.12-.45.42-.4.29-.71.46-.62.37-.36.21a2.85,2.85,0,0,1-.42.2l-.7.27-.25.07a.52.52,0,0,1-.38-.16.66.66,0,0,1-.15-.4l0-.19a.22.22,0,0,1,.09-.13l.09-.07.33-.18.72-.32.6-.29.41-.19L362,45l.72-.46.41-.28.37-.29.4-.23A.5.5,0,0,1,364.23,43.63Z"/><path class="cls-5" d="M363.59,35.62l.19,0,.2,0a.35.35,0,0,1,.29.31l0,.14a.84.84,0,0,1-.45.53l-.25.12.11.07.29.17a1,1,0,0,1,.23.2.4.4,0,0,1,.07.24.76.76,0,0,1-.34.53l-1,.46.27.16.28.18a1.43,1.43,0,0,1,.07.31v.1a.24.24,0,0,1-.06.14l-.26.26-.57.44-.61.44-.49.35-1.31.88a5.23,5.23,0,0,1-.47.31l-.41.21-.14,0-.21.11-.54.23a1.94,1.94,0,0,1-.65.18.49.49,0,0,1-.25-.05.76.76,0,0,1-.16-.08l-.11-.09a.59.59,0,0,1-.1-.17.92.92,0,0,1-.05-.26c0-.26.19-.44.58-.53l.26,0,.19-.05.23-.07.21-.07.26-.09.34-.15.33-.19,1.24-.78.59-.4.84-.6-.47-.31a.5.5,0,0,1-.19-.4.34.34,0,0,1,.05-.17,1,1,0,0,1,.23-.25l.38-.2.59-.28-.26-.16-.33-.19-.17-.11L362,36.9l-.09-.15,0-.07,0-.1.07-.06.21-.18.05,0,.1,0,.31-.11.26-.11a.83.83,0,0,0,.24-.12l.22-.16Z"/></g><g class="cls-4"><path class="cls-5" d="M441.71,25.43h.22l.17,0,.5.08.51.15.36.16a.82.82,0,0,1,.48.68l0,.24-.13.23-.15.2-.36.29-1.25.84-1.15.6-.48.22-.44.08a.5.5,0,0,1-.33-.13l-.1-.17,0-.2,0-.21s.06-.11.16-.19l.4-.2.77-.33,1-.5.4-.22.3-.21.06-.13c0-.19-.25-.28-.75-.28l-.52,0-.6.21c-.43,0-.65-.18-.65-.53a.46.46,0,0,1,.1-.31,1.11,1.11,0,0,1,.34-.21l.6-.19Zm4.3.05a3,3,0,0,1,.83.13.75.75,0,0,1,.25.07l.18.09.37.25a1,1,0,0,1,.26.27.86.86,0,0,1,.08.38l-.05.13-.08.17-.19.22-.19.21-.18.21-.25.2-.68.55-.69.47-.61.34-.26.07-.29,0-.23,0s-.09,0-.18-.1L444,29a.26.26,0,0,0,0-.14.31.31,0,0,1,.12-.24l.22-.12.28-.13.42-.2.72-.4.55-.43.29-.26a.51.51,0,0,0,.12-.24.26.26,0,0,0-.19-.27l-.43,0-.27,0-.2,0-.21.09-.17,0-.15,0-.38,0-.15-.08-.07,0a.34.34,0,0,0-.09-.08,1,1,0,0,1-.06-.24v-.14a.86.86,0,0,1,.1-.16,2.43,2.43,0,0,1,.27-.19l.19-.09.19-.05a1.86,1.86,0,0,1,.43-.12l.33,0Z"/><path class="cls-5" d="M446.47,31.31h.16l.14,0a.63.63,0,0,1,.27.32l0,.29a.35.35,0,0,1-.14.33l-.57.24.28.28a.84.84,0,0,1,.27.62v.27a.29.29,0,0,0,0,.09.16.16,0,0,1,0,.1,1.39,1.39,0,0,1-.75,1l-.41.22-.28.1-.35,0h-.35l-.36,0-.69-.16-.12-.08-.44.37-.22.19-.26.21-.59.43-.25.15-.44.28-.41.25-.84.47-.17.07-.2.1-.34.18-.34.06a.81.81,0,0,1-.72-.41l0-.11-.05-.22a.41.41,0,0,1,.12-.32l.15-.12.12-.07h.73a1.23,1.23,0,0,0,.55-.13l.93-.5.33-.21.54-.35.35-.25.22-.24.19-.15.21-.22-.14-.26-.05-.17,0-.17a.69.69,0,0,1,.38-.44l.3-.06h.19l.26.12a.49.49,0,0,1,.26.27l0,.23L444,34l.24.16.26.1.32,0,.22,0,.18-.07a1.15,1.15,0,0,0,.44-.28l.12-.19.06-.16a.56.56,0,0,0-.07-.3l-.14-.15-.2-.12-.18-.12-.36-.17-.33-.24-.06-.13-.05-.17a.21.21,0,0,1,.11-.21l.31-.14h.27l.32,0,.21-.1.2-.13.19-.11.19-.09Z"/><path class="cls-5" d="M454.08,24.65a.62.62,0,0,1,.17-.1.47.47,0,0,1,.17,0c.31,0,.47.21.47.62a.3.3,0,0,1-.12.26,21.65,21.65,0,0,1-1.92,1.3c-.3.18-.59.33-.87.47s-.57.27-.84.38l-.42.13a.45.45,0,0,1-.21-.06,1.14,1.14,0,0,1-.16-.22l0-.12V27.1a.2.2,0,0,1,0-.09.42.42,0,0,1,.09-.23c0-.05.06-.09.08-.1l.13-.07a4.73,4.73,0,0,0,1.45-.66A13.22,13.22,0,0,0,454.08,24.65Zm1,1.69a.56.56,0,0,1,.33-.12c.31,0,.47.21.47.63a.26.26,0,0,1,0,.14.24.24,0,0,1-.08.1,16.09,16.09,0,0,1-1.81,1.23,13.52,13.52,0,0,1-1.82.92l-.24.09-.19.05a.42.42,0,0,1-.36-.28l0-.17,0-.22c0-.15.09-.26.28-.33a10.57,10.57,0,0,0,1.45-.76c.15-.1.31-.19.47-.28s.47-.28.69-.43S454.8,26.52,455,26.34Z"/><path class="cls-5" d="M453.12,31.65h.23l.18,0h.17l.18,0a.86.86,0,0,1,.38.07l.4.09c.49.12.74.33.74.65a.86.86,0,0,1-.15.46l-.17.24a1.59,1.59,0,0,1-.26.26l-.36.35-.45.35-.37.28-.58.38a13.58,13.58,0,0,1-1.7.95l-.71.35-.35.12-.41.14-.31,0-.23,0-.13-.07-.18-.14-.12-.24,0-.1c0-.29.1-.46.29-.49l.32,0,.28,0,.32-.05.2-.06a1.12,1.12,0,0,0,.22-.05,1,1,0,0,0,.27-.12l.36-.18.6-.3.27-.12.47-.25.51-.28.29-.2.18-.14.26-.21a2.06,2.06,0,0,0,.33-.33l.08-.1,0,0a.1.1,0,0,0,0-.09l-.14-.07-.14,0-.32,0-.26,0h-.15l-.55.09-.07,0-.16.07-.17.06L452,33h-.39l-.24,0a.53.53,0,0,1-.34-.43.7.7,0,0,1,.08-.35,1.2,1.2,0,0,1,.34-.23l.28-.09.29-.1Z"/><path class="cls-5" d="M463.22,38.87a.36.36,0,0,1,.38.25l0,.19,0,.14a.18.18,0,0,1-.06.14l-.15.19-.12,0-.24.12-.24.12-.45.42-.4.29-.71.45-.63.38-.36.2a2,2,0,0,1-.42.21l-.69.27-.26.07a.55.55,0,0,1-.38-.17.69.69,0,0,1-.14-.39l0-.19a.56.56,0,0,1,.09-.14l.1-.07.33-.17.72-.32.6-.29.41-.19.37-.22.72-.46.42-.27.37-.3.4-.23A.55.55,0,0,1,463.22,38.87Z"/><path class="cls-5" d="M460.3,31.64l.31,0a.7.7,0,0,1,.44.26l.12.2a.43.43,0,0,0,.28.13.42.42,0,0,0,.22-.08l.2-.19.16-.13.15-.13a.34.34,0,0,1,.16-.07.78.78,0,0,1,.24,0h.12l.12.06.18.1.1.05.07.1.11.26.08.23.07,0,.11,0a1.16,1.16,0,0,0,.46-.13l.21-.16.21-.22.09-.08a.48.48,0,0,1,.13-.09l.27-.15.23,0h.2c.06,0,.1,0,.14.1l.13.15.05.13a.7.7,0,0,1-.18.5l-.24.29a.69.69,0,0,1-.28.2l-.3.17-.37.15-.37.11-.66.13a1.06,1.06,0,0,1-.55-.15l-.2-.17-.22-.22h-.42a1,1,0,0,0-.32,0,.43.43,0,0,0-.22.12l-.44.41-.68.55-.68.52-.19.13-.26.17-.3.18-1,.55-.74.41-.3.13-.34.12-.3.07-.33,0-.2,0-.24-.09a.59.59,0,0,1-.29-.6.46.46,0,0,1,.28-.43l.21,0h.75A1.88,1.88,0,0,0,457,35l.67-.35.77-.41.7-.46.53-.42.13-.16a.25.25,0,0,0,.05-.15l-.25-.47,0-.23v-.12c0-.06,0-.1,0-.12l.13-.18A.93.93,0,0,1,460.3,31.64Z"/><path class="cls-5" d="M473.2,26.2a.54.54,0,0,1,.33-.11c.31,0,.47.2.47.62l0,.14a.19.19,0,0,1-.08.11,17.32,17.32,0,0,1-1.8,1.22,15.65,15.65,0,0,1-1.82.93l-.24.08-.19,0c-.16,0-.28-.09-.37-.29l0-.16,0-.22q0-.24.3-.33a11.58,11.58,0,0,0,1.43-.76l.47-.27.69-.43C472.68,26.57,473,26.38,473.2,26.2Z"/><path class="cls-5" d="M471.83,31.75l.18-.13.18,0,.28.05a.29.29,0,0,1,.17.17l.05.2a.52.52,0,0,1-.05.25l-.24.2-.32.35-.2.15-.17.13-1.26.78-1.3.74-.63.33-.62.26-.64.24a1.81,1.81,0,0,1-.62.11,1,1,0,0,1-.55-.18l-.19-.15a.28.28,0,0,1,0-.11.5.5,0,0,1,0-.13v-.15c0-.06,0-.1,0-.12a.47.47,0,0,1,.26-.29l.25-.1.23,0,.39,0h.14a2.22,2.22,0,0,0,1-.25l.69-.33,1.55-.9,1.11-.72Z"/></g><g class="cls-4"><path class="cls-5" d="M448.05,63.7l.3,0a.66.66,0,0,1,.45.26l.12.19a.44.44,0,0,0,.27.14.53.53,0,0,0,.23-.08l.2-.19.16-.13.15-.14a.52.52,0,0,1,.15-.07.9.9,0,0,1,.24,0h.12l.12.07.19.09.1.06.07.09.11.26.08.23.07,0,.1,0a1.16,1.16,0,0,0,.48-.14l.2-.16.21-.21a.34.34,0,0,1,.09-.08.48.48,0,0,1,.13-.09l.27-.15.23,0h.2a.16.16,0,0,1,.14.09l.13.15.05.14a.71.71,0,0,1-.18.5l-.24.28a.61.61,0,0,1-.28.21l-.3.16-.37.15-.37.12-.66.12a1.15,1.15,0,0,1-.55-.14l-.2-.17-.23-.23h-.41a1,1,0,0,0-.32.05.51.51,0,0,0-.22.11l-.44.41-.68.56-.68.51-.2.14-.25.16-.3.19-1,.55-.75.41-.3.13-.34.12-.3.07h-.33l-.2,0-.24-.1c-.2-.09-.29-.28-.29-.59a.45.45,0,0,1,.28-.43l.21,0h.16l.59,0a2.07,2.07,0,0,0,.65-.26l.67-.34.77-.41.7-.47.53-.42.13-.15a.27.27,0,0,0,.05-.15l-.25-.48,0-.23v-.12a.37.37,0,0,1,0-.12l.13-.18A1,1,0,0,1,448.05,63.7Z"/></g><g class="cls-4"><path class="cls-5" d="M452.8,57.33l.14,0,.14,0a.32.32,0,0,1,.12.18l.08.23,0,.18c0,.28-.12.42-.37.42a4.18,4.18,0,0,0-.67.13l-.28.1-.21.1-.22.11-.17.13-.2.21-.2.24a.39.39,0,0,0,.18.26l.27.12.28,0h.72l.27,0,.16,0a.41.41,0,0,1,.17.38.38.38,0,0,1-.28.38l-.37.08-.5,0h-.41l-.18,0-.53-.11a1,1,0,0,1-.68-.38,1.72,1.72,0,0,1-.25-.86l-.1.14a.28.28,0,0,1-.17.14l-.14.13-.42.3-.63.41-.45.25-.38.24-.4.17-.35.13-.26.07-.13,0h-.09q-.36,0-.36-.42l0-.28a.38.38,0,0,1,.2-.17l.28-.08.35-.12a4.47,4.47,0,0,0,1.41-.77l.28-.24.29-.27-1.08,0-.29,0-.17,0-.15-.08a.42.42,0,0,1-.28-.45.44.44,0,0,1,.39-.47l.42,0h1a1.47,1.47,0,0,1,.79.18.5.5,0,0,1,.17.24l.14.25.15.37.19-.19.12-.09.07,0,.15-.09.3-.26.44-.31.82-.53A1.44,1.44,0,0,1,452.8,57.33Z"/></g><g class="cls-4"><path class="cls-5" d="M442.75,63.7a.87.87,0,0,1,.62.18.35.35,0,0,1,.13.26v.1l0,.09-.14.12-.12.07-.18.1a.53.53,0,0,0-.1.28.47.47,0,0,0,.19.42l.23.16.1,0,.15,0,.24,0a.51.51,0,0,0,.21-.15l.18-.15.21-.14.36-.07.15,0a.61.61,0,0,1,.23.21l.05.11,0,.16a.75.75,0,0,1-.16.28l-.23.17-.27.18-.34.24-1,.64-1.13.67-.61.34-.52.26-.48.23-.61.26-.44.13c-.47,0-.71-.2-.71-.6a.81.81,0,0,1,.13-.39.43.43,0,0,1,.13-.16.19.19,0,0,1,.14,0l.18,0,.24,0,.26,0a3.77,3.77,0,0,0,.63-.27l1.14-.58.57-.32.72-.48c0-.08,0-.13-.06-.14h-.17l-.29-.08a.87.87,0,0,1-.4-.27l-.09-.12-.07-.2,0-.32v-.14a.27.27,0,0,1,0-.12l.15-.36a1.22,1.22,0,0,1,.33-.45.51.51,0,0,1,.12-.09l.14-.07A.74.74,0,0,1,442.75,63.7Z"/></g><g class="cls-4"><path class="cls-5" d="M445.93,70.93a.39.39,0,0,1,.39.24l0,.2,0,.14a.17.17,0,0,1,0,.13l-.16.19-.12.06-.23.11-.25.12-.44.42-.41.3-.71.45-.62.38-.36.2-.42.21-.7.26-.25.07a.54.54,0,0,1-.38-.16.65.65,0,0,1-.14-.4l0-.18a.24.24,0,0,1,.09-.14l.09-.07.33-.18.72-.32.6-.29.41-.19.38-.21.72-.46.41-.28.37-.29.4-.23A.51.51,0,0,1,445.93,70.93Z"/></g><g class="cls-4"><path class="cls-5" d="M439.26,65.19c0,.44-.42,1-1.28,1.53l-1.58,1-.66.41a6.2,6.2,0,0,1-2.38,1c-.54,0-.82-.21-.82-.64a.57.57,0,0,1,.29-.5.68.68,0,0,1,.41-.08h.09l.12,0,.14.07.07,0h.22l.16,0,.27-.08.72-.38.27-.15.5-.3.27-.2c-.59-.26-.88-.59-.88-1a1.67,1.67,0,0,1,.63-1.3l.29-.2.31-.22a2.83,2.83,0,0,1,1.32-.35,1.88,1.88,0,0,1,1.21.47A1,1,0,0,1,439.26,65.19Zm-1.08-.12c-.07-.14-.29-.21-.65-.21a1.79,1.79,0,0,0-1,.46l-.14.16-.13.22-.06.18c0,.12.08.22.24.32s.08,0,.19.07l.15,0,.26-.07.47-.24c.47-.3.7-.55.7-.74A.14.14,0,0,0,438.18,65.07Z"/></g><g class="cls-4"><path class="cls-5" d="M440,58.26a.56.56,0,0,1,.33-.12c.31,0,.46.21.46.63l0,.14a.2.2,0,0,1-.09.1,15.14,15.14,0,0,1-1.8,1.23,13.52,13.52,0,0,1-1.82.92l-.24.08-.19.06c-.15,0-.27-.1-.36-.29l0-.16,0-.23c0-.15.09-.26.29-.32a12.17,12.17,0,0,0,1.44-.76c.15-.1.31-.19.47-.28s.47-.28.69-.43S439.76,58.44,440,58.26Z"/></g><g class="cls-4"><path class="cls-5" d="M426.17,68.53a.87.87,0,0,1-.58-.15.59.59,0,0,1-.19-.48v-.17a.29.29,0,0,1,.17-.26.81.81,0,0,1,.37-.12,3.37,3.37,0,0,0,1.17-.28l1-.54a1.73,1.73,0,0,0,.55-.29l.64-.45.27-.16.27-.24-.12-.11-.24-.26-.1-.23v-.22a.77.77,0,0,1,.08-.23l.16-.14A.74.74,0,0,1,430,64a1.9,1.9,0,0,1,.57.18l.17.11.23.13.65-.34.77-.43.41-.17a2.9,2.9,0,0,1,.82-.25,1.19,1.19,0,0,1,.37.12c.09.05.14.17.16.35v.14a.44.44,0,0,1-.16.22l-.27.18-.16.07-.44.21-.41.17-.65.19-.34.08.53.26.39.2.2.19.06.07v.11a.35.35,0,0,1,0,.14l-.05.14a.32.32,0,0,1-.18.18l-.22.1-.27,0a.34.34,0,0,1-.16,0l-1.06-.54-.36.23-.37.27-.51.3-.72.46-1.3.75-.52.28-.51.25-.27.1Z"/></g><g class="cls-4"><path class="cls-5" d="M433.47,58.26a.56.56,0,0,1,.33-.12c.31,0,.47.21.47.63l0,.14a.41.41,0,0,1-.09.1,15.24,15.24,0,0,1-1.81,1.23,13.41,13.41,0,0,1-1.81.92l-.24.08-.19.06a.42.42,0,0,1-.37-.29l0-.16,0-.23c0-.15.1-.26.3-.32a13.32,13.32,0,0,0,1.43-.76c.15-.1.31-.19.47-.28l.7-.43C433,58.63,433.23,58.44,433.47,58.26Z"/></g><g class="cls-4"><path class="cls-5" d="M421.45,63.7l.31,0a.66.66,0,0,1,.45.26l.12.19a.44.44,0,0,0,.27.14.46.46,0,0,0,.22-.08l.21-.19.15-.13.16-.14a.52.52,0,0,1,.15-.07.9.9,0,0,1,.24,0h.12l.12.07.19.09.1.06.07.09.1.26.09.23.07,0,.1,0a1.08,1.08,0,0,0,.47-.14l.21-.16.21-.21a.3.3,0,0,1,.08-.08l.14-.09.27-.15.22,0h.21a.16.16,0,0,1,.14.09l.12.15.06.14a.71.71,0,0,1-.18.5l-.24.28a.67.67,0,0,1-.28.21l-.3.16-.37.15-.37.12-.66.12a1.15,1.15,0,0,1-.55-.14l-.21-.17-.22-.23H423a1,1,0,0,0-.32.05.51.51,0,0,0-.22.11l-.44.41-.68.56-.69.51-.19.14-.25.16-.3.19-1,.55-.74.41-.3.13-.34.12-.3.07H417l-.21,0-.23-.1a.57.57,0,0,1-.3-.59.46.46,0,0,1,.29-.43l.21,0h.15l.6,0a2.07,2.07,0,0,0,.65-.26l.67-.34.77-.41.7-.47.53-.42.13-.15a.38.38,0,0,0,0-.15l-.25-.48,0-.23v-.12a.21.21,0,0,1,0-.12l.13-.18A1,1,0,0,1,421.45,63.7Z"/></g><g class="cls-4"><path class="cls-5" d="M425.44,59c0,.82-.53,1.5-1.58,2.06a2.38,2.38,0,0,1-1.08.32c-1,0-1.53-.43-1.53-1.3a2.14,2.14,0,0,1,.88-1.7A2.87,2.87,0,0,1,424,57.6a1.42,1.42,0,0,1,.57.1A.92.92,0,0,1,425,58,1.26,1.26,0,0,1,425.44,59Zm-1,.16c0-.36-.25-.54-.76-.54a1.38,1.38,0,0,0-1,.45,1.3,1.3,0,0,0-.47,1c0,.23.15.34.46.34H423a1.72,1.72,0,0,0,.94-.41A1.11,1.11,0,0,0,424.48,59.11Z"/></g><g class="cls-4"><path class="cls-5" d="M417.32,62.91l.19,0,.2,0A.41.41,0,0,1,418,63a.46.46,0,0,1,.05.15v.13a.81.81,0,0,1-.45.53l-.25.12.12.07.29.17a.74.74,0,0,1,.22.21.36.36,0,0,1,.08.23.78.78,0,0,1-.35.53l-1,.46.27.16.29.18a1.62,1.62,0,0,1,.07.31v.1a.29.29,0,0,1-.06.15l-.27.25-.56.44-.62.44-.49.36-1.31.88-.46.3-.42.21-.14.06-.2.1-.54.23a2.14,2.14,0,0,1-.66.19.51.51,0,0,1-.25-.06l-.15-.07-.11-.1a.45.45,0,0,1-.11-.17,1.5,1.5,0,0,1,0-.26c0-.26.19-.43.58-.53l.26,0,.19-.06.23-.06.21-.08a1.37,1.37,0,0,0,.26-.08l.34-.16.34-.19,1.23-.77.6-.41.84-.6-.47-.31a.48.48,0,0,1-.2-.4.37.37,0,0,1,.05-.17,1.53,1.53,0,0,1,.23-.25L416,65l.58-.29-.26-.16-.32-.19-.17-.11-.08-.08-.08-.15,0-.07,0-.09.06-.07.22-.17.05,0,.09,0a2.39,2.39,0,0,0,.32-.11l.25-.11.25-.11.22-.17Z"/></g><g class="cls-4"><path class="cls-5" d="M419.07,58.26a.51.51,0,0,1,.32-.12c.31,0,.47.21.47.63l0,.14a.27.27,0,0,1-.09.1,16,16,0,0,1-1.8,1.23,13.52,13.52,0,0,1-1.82.92l-.24.08-.19.06a.43.43,0,0,1-.37-.29l0-.16,0-.23c0-.15.1-.26.3-.32a13.32,13.32,0,0,0,1.43-.76l.47-.28c.24-.14.48-.28.7-.43S418.83,58.44,419.07,58.26Z"/></g><g class="cls-4"><path class="cls-5" d="M405.25,68.53a.89.89,0,0,1-.59-.15.59.59,0,0,1-.18-.48v-.17a.29.29,0,0,1,.17-.26.81.81,0,0,1,.37-.12,3.31,3.31,0,0,0,1.17-.28l1-.54a1.63,1.63,0,0,0,.55-.29l.65-.45.26-.16.27-.24-.12-.11-.24-.26-.1-.23v-.22a.77.77,0,0,1,.08-.23l.16-.14a.74.74,0,0,1,.43-.18,1.9,1.9,0,0,1,.57.18l.18.11.22.13.65-.34.77-.43.41-.17a2.9,2.9,0,0,1,.82-.25,1.19,1.19,0,0,1,.37.12c.09.05.14.17.16.35v.14a.44.44,0,0,1-.16.22l-.27.18-.16.07-.44.21-.41.17-.65.19-.34.08.53.26.39.2.21.19.05.07v.11a.35.35,0,0,1,0,.14l-.05.14a.32.32,0,0,1-.18.18l-.22.1-.27,0a.34.34,0,0,1-.16,0L410,65.84l-.36.23-.37.27-.51.3-.72.46-1.3.75-.52.28-.5.25-.28.1Z"/></g><g class="cls-4"><path class="cls-5" d="M410.86,57.43h.51l.17,0a1.64,1.64,0,0,1,.93.23.68.68,0,0,1,.33.6,1.75,1.75,0,0,1-.6,1l-.37.4-.47.4a4.58,4.58,0,0,1-.46.33,4.18,4.18,0,0,1-.56.28l-.84.35-.42.2-.29,0c-.05,0-.13-.06-.23-.19l-.07-.13-.07-.15a.5.5,0,0,1,.1-.31.82.82,0,0,1,.35-.24l.36-.1.42-.14a1.81,1.81,0,0,0,.43-.18,2.14,2.14,0,0,0,1.39-1.29l-.08-.06-.09-.05-.32,0-.23,0-.24,0h-.26l-.13,0-.2.11-.15.08-.15.07h-.22a.37.37,0,0,1-.23-.1l-.15-.21,0-.19a.39.39,0,0,1,.19-.36,4.34,4.34,0,0,1,.8-.33A3.94,3.94,0,0,1,410.86,57.43Z"/></g><g class="cls-4"><path class="cls-5" d="M390.44,86.83c0,.82-.52,1.5-1.58,2.06a2.26,2.26,0,0,1-1.08.32c-1,0-1.53-.43-1.53-1.3a2.14,2.14,0,0,1,.88-1.7,2.87,2.87,0,0,1,1.87-.73,1.42,1.42,0,0,1,.57.1,1,1,0,0,1,.46.26A1.23,1.23,0,0,1,390.44,86.83Zm-.95.16c0-.36-.26-.54-.77-.54a1.38,1.38,0,0,0-1,.45,1.34,1.34,0,0,0-.47,1c0,.23.15.34.46.34H388a1.73,1.73,0,0,0,.93-.41C389.3,87.52,389.49,87.25,389.49,87Z"/><path class="cls-5" d="M386.56,91.58l.31,0a.66.66,0,0,1,.44.26l.12.2a.43.43,0,0,0,.27.13.57.57,0,0,0,.23-.08l.2-.19.16-.13.15-.14a.34.34,0,0,1,.16-.06.75.75,0,0,1,.23,0H389l.12.06.19.09.1.06.06.09.12.26.08.23.07,0,.1,0a1.08,1.08,0,0,0,.47-.14l.21-.16.2-.21a.7.7,0,0,1,.1-.08.48.48,0,0,1,.13-.09l.27-.15.22,0h.21a.16.16,0,0,1,.14.09l.13.16.05.13a.71.71,0,0,1-.18.5l-.24.28a.61.61,0,0,1-.28.21l-.31.16-.36.15-.37.12-.66.12a1,1,0,0,1-.55-.14l-.2-.17-.23-.22h-.41a1,1,0,0,0-.32,0,.51.51,0,0,0-.22.11l-.44.41-.68.56-.68.51-.2.14-.25.16-.3.19-1,.55-.74.41-.3.13-.34.12-.3.07h-.33l-.2,0-.24-.1c-.2-.09-.29-.28-.29-.59a.45.45,0,0,1,.28-.43l.21,0H382l.59,0a2,2,0,0,0,.65-.26l.66-.34.78-.41.7-.47.53-.41.13-.16a.33.33,0,0,0,.05-.15l-.25-.48,0-.23V92.2c0-.06,0-.1,0-.12l.13-.19A1,1,0,0,1,386.56,91.58Z"/><path class="cls-5" d="M399.46,86.14a.56.56,0,0,1,.33-.12c.31,0,.47.21.47.63l0,.14a.24.24,0,0,1-.08.1,15.24,15.24,0,0,1-1.81,1.23,13.52,13.52,0,0,1-1.82.92l-.23.09-.19.05a.42.42,0,0,1-.37-.29l0-.16,0-.23c0-.15.1-.26.29-.32a10.71,10.71,0,0,0,1.44-.76c.15-.1.31-.18.47-.28s.47-.28.69-.43S399.22,86.32,399.46,86.14Z"/><path class="cls-5" d="M392.67,96.42a.86.86,0,0,1-.58-.16.57.57,0,0,1-.19-.48v-.17a.27.27,0,0,1,.17-.26.74.74,0,0,1,.37-.12,3.24,3.24,0,0,0,1.16-.28l1-.54a1.73,1.73,0,0,0,.55-.29l.64-.45.26-.16.28-.24-.13-.11L396,92.9l-.1-.23v-.22a.6.6,0,0,1,.08-.23l.16-.13a.69.69,0,0,1,.43-.19,1.62,1.62,0,0,1,.56.19l.18.1.22.14.65-.35.78-.43.41-.17a3.16,3.16,0,0,1,.81-.25,1.29,1.29,0,0,1,.38.12.44.44,0,0,1,.15.36v.13a.41.41,0,0,1-.15.22l-.28.18-.15.07-.45.21-.41.17-.65.19-.33.08.52.26.4.21.2.18,0,.07v.12a.24.24,0,0,1,0,.13l-.05.14a.3.3,0,0,1-.17.18l-.22.1-.27,0a.39.39,0,0,1-.17,0l-1.05-.54-.37.23-.37.27-.5.3-.72.46-1.3.75-.53.28-.5.25-.27.1Z"/><path class="cls-5" d="M408.26,86.14a.56.56,0,0,1,.33-.12c.31,0,.47.21.47.63l0,.14a.18.18,0,0,1-.08.1,16,16,0,0,1-1.8,1.23,14.13,14.13,0,0,1-1.82.92l-.24.09-.19.05a.43.43,0,0,1-.37-.29l0-.16,0-.23c0-.15.1-.26.3-.32a11.58,11.58,0,0,0,1.43-.76c.15-.1.31-.18.47-.28s.47-.28.69-.43A10.07,10.07,0,0,0,408.26,86.14Z"/><path class="cls-5" d="M408,93.07c0,.44-.43,1-1.28,1.53l-1.58,1.05-.67.41a6.11,6.11,0,0,1-2.37,1c-.55,0-.82-.21-.82-.64a.57.57,0,0,1,.29-.5.68.68,0,0,1,.41-.08h.09l.12,0,.14.06.07,0h.22l.16,0,.26-.08.72-.37.28-.16.49-.3.28-.2c-.59-.26-.89-.59-.89-1a1.68,1.68,0,0,1,.64-1.3l.29-.2.31-.22a2.82,2.82,0,0,1,1.32-.34,1.87,1.87,0,0,1,1.21.46A1,1,0,0,1,408,93.07ZM407,93c-.08-.14-.29-.21-.65-.21a1.75,1.75,0,0,0-1,.47l-.14.15-.14.22-.05.18c0,.12.07.22.24.33a.44.44,0,0,0,.18.06l.16,0,.26-.07.46-.24c.47-.3.71-.55.71-.74A.14.14,0,0,0,407,93Z"/><path class="cls-5" d="M416,98.81a.39.39,0,0,1,.39.24l0,.2,0,.14a.18.18,0,0,1-.06.14l-.15.18-.12.06-.23.12-.25.11-.45.42-.4.3-.71.45-.62.38-.36.2-.42.21-.7.26-.25.07a.52.52,0,0,1-.38-.16.66.66,0,0,1-.15-.4l0-.18a.24.24,0,0,1,.09-.14l.09-.07.34-.18.71-.32.6-.29.41-.19.38-.21.72-.46.41-.27.37-.3.4-.23A.49.49,0,0,1,416,98.81Z"/><path class="cls-5" d="M413.45,91.59a.91.91,0,0,1,.63.17.38.38,0,0,1,.13.26v.1l0,.09-.13.12-.12.07-.18.1a.53.53,0,0,0-.11.28.51.51,0,0,0,.2.43l.22.15.11,0,.15,0,.24,0a.55.55,0,0,0,.2-.15l.19-.15.21-.14.35-.07.16,0a.61.61,0,0,1,.23.21l.05.11v.16a.83.83,0,0,1-.15.28l-.23.17-.27.18-.34.24-1,.64-1.13.67-.62.34-.52.26-.48.23-.61.26-.43.13c-.48,0-.71-.2-.71-.59a.84.84,0,0,1,.13-.4.42.42,0,0,1,.12-.16.23.23,0,0,1,.15,0l.18,0,.24.05.25,0a3.44,3.44,0,0,0,.63-.27l1.15-.58.56-.32.72-.48c0-.08,0-.13-.06-.14h-.16l-.29-.08a.87.87,0,0,1-.4-.27l-.09-.12-.07-.19,0-.33v-.14a.5.5,0,0,1,0-.12l.16-.36a1.12,1.12,0,0,1,.33-.45l.11-.09.15-.07A.49.49,0,0,1,413.45,91.59Z"/><path class="cls-5" d="M424.58,85.21l.14,0,.13,0a.26.26,0,0,1,.12.17l.09.23,0,.18q0,.42-.36.42a4,4,0,0,0-.68.13l-.28.1-.21.1-.21.11-.18.13-.2.21-.2.24a.37.37,0,0,0,.18.26l.28.12.28,0h.71l.27,0,.17,0a.43.43,0,0,1,.16.38.37.37,0,0,1-.28.38l-.37.09-.5,0h-.41l-.18,0-.53-.11a1,1,0,0,1-.68-.38,1.78,1.78,0,0,1-.24-.86l-.11.14a.26.26,0,0,1-.17.14l-.14.13-.42.3-.63.41-.45.25-.38.24-.39.17-.36.13-.26.07-.13,0h-.09q-.36,0-.36-.42l0-.27a.39.39,0,0,1,.2-.18l.28-.08.35-.12a4.47,4.47,0,0,0,1.41-.77l.29-.24.29-.27-1.09,0-.29,0-.16,0-.16-.08a.42.42,0,0,1-.27-.45.44.44,0,0,1,.38-.47l.42,0h1.05a1.49,1.49,0,0,1,.79.18.67.67,0,0,1,.17.24l.13.25.16.37.19-.18.11-.1.08,0,.15-.09.29-.26L423,86l.81-.53A1.45,1.45,0,0,1,424.58,85.21Z"/><path class="cls-5" d="M420.3,91.58l.31,0a.66.66,0,0,1,.45.26l.12.2a.43.43,0,0,0,.27.13.49.49,0,0,0,.22-.08l.21-.19.15-.13.16-.14a.34.34,0,0,1,.15-.06.88.88,0,0,1,.24,0h.12l.12.06.19.09.1.06.06.09.11.26.09.23.07,0,.1,0a1.08,1.08,0,0,0,.47-.14l.21-.16.2-.21.09-.08a.56.56,0,0,1,.14-.09l.27-.15.22,0h.21a.17.17,0,0,1,.14.09l.12.16.05.13a.71.71,0,0,1-.17.5l-.24.28A.67.67,0,0,1,425,93l-.31.16-.37.15-.36.12-.66.12a1,1,0,0,1-.55-.14l-.21-.17-.22-.22h-.41a1,1,0,0,0-.32,0,.51.51,0,0,0-.22.11l-.44.41-.68.56-.69.51-.19.14-.25.16-.3.19-1,.55-.74.41-.3.13-.34.12-.31.07h-.32l-.21,0-.24-.1a.58.58,0,0,1-.29-.59.46.46,0,0,1,.29-.43l.21,0h.15l.6,0A2.07,2.07,0,0,0,417,95l.67-.34.77-.41.7-.47.53-.41.13-.16a.33.33,0,0,0,.05-.15l-.25-.48,0-.23V92.2a.17.17,0,0,1,0-.12l.13-.19A1,1,0,0,1,420.3,91.58Z"/></g><g class="cls-4"><path class="cls-5" d="M405.24,121.57l.23-.06h.08a.25.25,0,0,1,.14,0l.1.07.13.13,0,.23,0,.14a.44.44,0,0,1-.11.23l-.17.15-.52.39-.66.48-.65.43-1.08.65-.45.21a3.94,3.94,0,0,1-.68.31l-.24.09a1.35,1.35,0,0,1-.3.08h-.34a.33.33,0,0,1-.22-.1.52.52,0,0,1-.22-.26v-.21a.69.69,0,0,1,.14-.35l.25-.27.17-.2.11-.16.08-.28,0-.18,0-.3,0-.49a.89.89,0,0,1,.05-.35.18.18,0,0,1,.09-.08l.17-.1.29-.06h.24a.38.38,0,0,1,.24.14.5.5,0,0,1,.21.46l0,.15-.05.15-.15.35-.14.5-.12.34.21-.08.25-.16.36-.2.46-.28.86-.57.19-.14.29-.27.51-.38Z"/></g><g class="cls-4"><path class="cls-5" d="M404.74,115.31h.5a.4.4,0,0,1,.17,0,1.73,1.73,0,0,1,.93.22.71.71,0,0,1,.33.61,1.75,1.75,0,0,1-.6,1l-.37.4-.46.4a4.78,4.78,0,0,1-.47.33,3.25,3.25,0,0,1-.56.28l-.83.35-.42.2-.29,0q-.07,0-.24-.18l-.06-.13-.07-.16a.44.44,0,0,1,.1-.3.78.78,0,0,1,.34-.24l.36-.11.42-.13a2.66,2.66,0,0,0,.44-.18,2.16,2.16,0,0,0,1.39-1.29l-.08-.06-.1,0-.31,0-.23,0-.24,0h-.26l-.14,0-.19.1-.16.09-.14.06h-.23a.35.35,0,0,1-.22-.1l-.15-.22,0-.18a.42.42,0,0,1,.2-.37,4,4,0,0,1,.8-.32A3.34,3.34,0,0,1,404.74,115.31Z"/></g><g class="cls-4"><path class="cls-5" d="M397.31,121.58a1,1,0,0,1,.63.17.41.41,0,0,1,.13.26v.11l0,.09-.14.12-.11.07-.19.1a.49.49,0,0,0-.1.27.49.49,0,0,0,.2.43l.22.16.1,0,.16,0,.24-.05a.66.66,0,0,0,.2-.14l.18-.15.22-.15.35-.06h.15a.67.67,0,0,1,.23.22l.06.11v.15a.84.84,0,0,1-.15.29l-.23.17-.28.18-.33.24-1,.64-1.13.66-.62.35-.52.26-.48.23-.61.25-.44.13c-.47,0-.71-.19-.71-.59a.89.89,0,0,1,.13-.39.48.48,0,0,1,.13-.17.26.26,0,0,1,.15,0l.18,0,.24.06.25,0a3.14,3.14,0,0,0,.63-.26l1.14-.59.57-.31.72-.48q0-.12-.06-.15l-.16,0-.29-.09a.78.78,0,0,1-.41-.26l-.08-.12-.07-.2,0-.32v-.14a.22.22,0,0,1,0-.12l.15-.36a1.16,1.16,0,0,1,.34-.45l.11-.09.15-.08Z"/></g><g class="cls-4"><path class="cls-5" d="M399.24,115.31h.5a.48.48,0,0,1,.18,0,1.69,1.69,0,0,1,.92.22.71.71,0,0,1,.33.61,1.75,1.75,0,0,1-.6,1l-.36.4-.48.4a3.66,3.66,0,0,1-.46.33,3.55,3.55,0,0,1-.55.28l-.84.35-.42.2-.29,0c-.06,0-.13-.06-.23-.18l-.07-.13-.07-.16a.44.44,0,0,1,.1-.3.78.78,0,0,1,.34-.24l.36-.11.42-.13a2.66,2.66,0,0,0,.44-.18,2.16,2.16,0,0,0,1.39-1.29l-.08-.06-.09,0-.32,0-.23,0-.24,0h-.26l-.14,0-.19.1-.16.09-.14.06h-.22a.35.35,0,0,1-.23-.1l-.15-.22,0-.18a.42.42,0,0,1,.2-.37,4,4,0,0,1,.8-.32A3.39,3.39,0,0,1,399.24,115.31Z"/></g><g class="cls-4"><path class="cls-5" d="M394.21,121.24h.16a.29.29,0,0,1,.14,0,.56.56,0,0,1,.27.31l0,.3a.37.37,0,0,1-.14.33l-.56.24.27.27a.85.85,0,0,1,.26.62v.27s0,.07,0,.1a.16.16,0,0,1,0,.09,1.41,1.41,0,0,1-.76,1l-.41.23-.28.09-.35,0h-.36l-.35,0-.69-.16-.12-.08-.45.38-.21.19-.26.2-.59.43-.24.16-.45.28-.41.24-.84.47-.17.07-.2.1-.34.19-.33,0a.79.79,0,0,1-.72-.41l0-.1,0-.23a.37.37,0,0,1,.12-.31l.15-.12.12-.07h.73a1.28,1.28,0,0,0,.55-.14l.93-.5.33-.21.54-.35.35-.25.22-.24.19-.15.2-.22-.13-.26,0-.17,0-.17a.7.7,0,0,1,.39-.44l.29,0h.19l.26.12a.47.47,0,0,1,.26.28l0,.23.08.06.24.16.26.11h.32l.22,0,.18-.06a1.19,1.19,0,0,0,.44-.29l.12-.18.06-.16a.49.49,0,0,0-.08-.31l-.13-.15-.2-.12-.18-.12-.36-.17-.33-.24-.06-.13-.05-.17c0-.1,0-.17.11-.2l.31-.15h.27l.32,0,.21-.09.2-.14.19-.11.19-.09Z"/></g><g class="cls-4"><path class="cls-5" d="M392.89,115.31h.5a.48.48,0,0,1,.18,0,1.69,1.69,0,0,1,.92.22.7.7,0,0,1,.34.61,1.81,1.81,0,0,1-.6,1l-.37.4-.47.4a4.78,4.78,0,0,1-.47.33,3.55,3.55,0,0,1-.55.28l-.84.35-.42.2-.29,0c-.05,0-.13-.06-.23-.18l-.07-.13-.07-.16a.44.44,0,0,1,.1-.3.78.78,0,0,1,.34-.24l.36-.11.42-.13a2.66,2.66,0,0,0,.44-.18,2.16,2.16,0,0,0,1.39-1.29l-.08-.06-.09,0-.32,0-.23,0-.24,0h-.26l-.14,0-.19.1-.16.09-.14.06h-.23a.37.37,0,0,1-.22-.1l-.15-.22,0-.18a.41.41,0,0,1,.19-.37,4,4,0,0,1,.8-.32A3.34,3.34,0,0,1,392.89,115.31Z"/></g><g class="cls-4"><path class="cls-5" d="M387.28,121.81h.25l.16,0a.47.47,0,0,1,.17.09.79.79,0,0,1,.41.55l.07.3,0,.21a.67.67,0,0,1,0,.16l-.06.24-.12.45-.15.42-.14.31-.18.35a1.58,1.58,0,0,1-.52.64l-.23.06-.13,0-.14,0-.13-.06-.2-.13-.05-.22a.87.87,0,0,1,0-.18.77.77,0,0,1,.1-.15l.21-.27.2-.31.35-.65.12-.35s0,0,0-.1a.13.13,0,0,0,0-.1l-.09,0a.69.69,0,0,0-.39.14l-.31.29-.7.58-1.37,1.06-.49.35-.56.34-.43.23-.36.13-.27,0-.26,0-.15-.05c-.12-.06-.17-.19-.17-.38v-.18a.3.3,0,0,1,0-.15l.08-.18c0-.05.11-.12.27-.2l.36,0h.3l.22-.06.43-.22.69-.45.32-.24.34-.28.43-.38.43-.37.42-.39.44-.38A1.19,1.19,0,0,1,387.28,121.81Z"/></g><g class="cls-4"><path class="cls-5" d="M388.81,116.83c0,.81-.53,1.5-1.59,2.06a2.38,2.38,0,0,1-1.08.32c-1,0-1.53-.44-1.53-1.31a2.2,2.2,0,0,1,.88-1.7,2.91,2.91,0,0,1,1.87-.72,1.62,1.62,0,0,1,.57.09,1.11,1.11,0,0,1,.47.27A1.26,1.26,0,0,1,388.81,116.83Zm-1,.15c0-.36-.26-.54-.77-.54a1.35,1.35,0,0,0-.95.46,1.32,1.32,0,0,0-.47,1c0,.22.16.34.47.34h.23a1.63,1.63,0,0,0,.93-.42A1.09,1.09,0,0,0,387.85,117Z"/></g><g class="cls-4"><path class="cls-5" d="M380.69,120.79l.19-.05.2,0a.35.35,0,0,1,.29.31v.14a.76.76,0,0,1-.44.52l-.25.13.11.07.29.16a1.24,1.24,0,0,1,.23.21.4.4,0,0,1,.07.24.76.76,0,0,1-.34.53l-1,.46.27.16.28.18a1.43,1.43,0,0,1,.07.31v.1a.24.24,0,0,1-.06.14l-.26.26-.57.44-.62.44-.48.35-1.31.88-.47.31-.41.21-.14,0-.21.11-.54.22a1.78,1.78,0,0,1-.66.19.53.53,0,0,1-.25,0l-.15-.08-.11-.09a.59.59,0,0,1-.1-.17.92.92,0,0,1-.05-.26c0-.26.19-.44.58-.53l.26,0,.18-.05.24-.07.21-.07.26-.09.34-.15.33-.19,1.23-.78.6-.4.84-.6-.47-.31a.51.51,0,0,1-.19-.4.34.34,0,0,1,.05-.17,1,1,0,0,1,.23-.25l.38-.2.59-.28-.26-.16-.33-.19-.17-.11-.07-.08-.09-.15,0-.07,0-.1a.46.46,0,0,0,.07-.07l.21-.17.05,0,.1,0a1,1,0,0,0,.31-.11l.26-.1a1.67,1.67,0,0,0,.24-.12l.22-.16Z"/></g><g class="cls-4"><path class="cls-5" d="M380.75,115.31h.5a.48.48,0,0,1,.18,0,1.69,1.69,0,0,1,.92.22.7.7,0,0,1,.34.61,1.81,1.81,0,0,1-.6,1l-.37.4-.47.4c-.14.11-.29.22-.46.33a4.18,4.18,0,0,1-.56.28l-.84.35-.42.2-.29,0c-.05,0-.13-.06-.23-.18l-.07-.13-.07-.16a.44.44,0,0,1,.1-.3.78.78,0,0,1,.34-.24l.36-.11.42-.13a2.66,2.66,0,0,0,.44-.18,2.16,2.16,0,0,0,1.39-1.29l-.08-.06-.09,0-.32,0-.23,0-.24,0h-.26l-.14,0-.19.1-.16.09-.14.06h-.23a.37.37,0,0,1-.22-.1l-.15-.22,0-.18a.41.41,0,0,1,.19-.37,4,4,0,0,1,.8-.32A3.34,3.34,0,0,1,380.75,115.31Z"/></g><g class="cls-4"><path class="cls-5" d="M375.42,121.48c.45,0,.67.13.67.39a1,1,0,0,1-.25.63l-.24.24-.31.2-.31.12-.41.12-.57.06h-.35l-.53,0h-.31l-.1.15-.21.23-.43.43-.29.24-.34.24-1,.69-.57.36-.4.21-.28.15-.55.26-.27.1a1.91,1.91,0,0,1-.48.09l-.12,0-.17-.08-.12-.07-.16-.13a.43.43,0,0,1-.16-.24l0-.16,0-.2a.72.72,0,0,1,.19-.39.65.65,0,0,1,.19-.09l.19,0,.12,0a.67.67,0,0,1,.24,0l.25,0,.23,0,.25-.09.72-.32.38-.2.35-.21a6.7,6.7,0,0,0,1-.71l.19-.2.07-.18-.1-.14a.46.46,0,0,1-.13-.26,1,1,0,0,1,.32-.73,1,1,0,0,1,.74-.32,1,1,0,0,1,.47.2c.19.13.29.26.29.39l.55,0a1.62,1.62,0,0,0,.58-.13,4.61,4.61,0,0,0,.7-.42.53.53,0,0,1,.16-.1l.15-.09A.6.6,0,0,1,375.42,121.48Z"/></g><g class="cls-4"><path class="cls-5" d="M375.77,128.8a.38.38,0,0,1,.39.25l0,.2,0,.13a.2.2,0,0,1-.05.14l-.16.19-.12.06-.23.11-.25.12-.44.42-.41.29-.71.46-.62.37-.36.21a2.44,2.44,0,0,1-.42.2l-.7.27-.25.07a.55.55,0,0,1-.38-.17.69.69,0,0,1-.14-.39l0-.19c0-.06.05-.11.09-.13l.09-.07.33-.18.72-.32.6-.29.41-.19.38-.22.72-.45.41-.28.37-.29.4-.23A.52.52,0,0,1,375.77,128.8Z"/></g><g class="cls-4"><path class="cls-5" d="M389.27,153.49l.23-.07h.08a.25.25,0,0,1,.14,0l.1.07.13.13,0,.23,0,.14a.44.44,0,0,1-.11.23l-.17.15-.52.39-.66.48-.65.43-1.08.65-.45.22a4.74,4.74,0,0,1-.68.3l-.24.09a1.35,1.35,0,0,1-.3.08h-.34a.33.33,0,0,1-.22-.1.52.52,0,0,1-.22-.26v-.21a.69.69,0,0,1,.14-.35l.25-.27.17-.2.11-.16.08-.27,0-.19,0-.29,0-.5a.92.92,0,0,1,.05-.35.18.18,0,0,1,.09-.08l.17-.1.29-.06h.24a.38.38,0,0,1,.24.14.5.5,0,0,1,.21.46l0,.15-.05.15-.15.35-.14.5-.12.34.22-.08.24-.16.36-.2.46-.28.86-.57.19-.14.29-.27.51-.38Z"/></g><g class="cls-4"><path class="cls-5" d="M388.77,147.22h.5a.4.4,0,0,1,.17,0,1.7,1.7,0,0,1,.93.22.7.7,0,0,1,.34.61,1.81,1.81,0,0,1-.6,1l-.37.4-.47.4a4.78,4.78,0,0,1-.47.33,3.55,3.55,0,0,1-.55.28l-.84.35-.42.2-.29,0q-.07,0-.24-.18l-.06-.13-.07-.15a.45.45,0,0,1,.1-.31.78.78,0,0,1,.34-.24l.36-.11.42-.13a2,2,0,0,0,.44-.18,2.16,2.16,0,0,0,1.39-1.29l-.08-.06-.1,0-.31,0-.23,0-.24,0h-.26l-.14,0-.19.1-.16.09-.14.07h-.23a.35.35,0,0,1-.22-.1l-.15-.22,0-.18a.38.38,0,0,1,.19-.36,4.07,4.07,0,0,1,.8-.33A3.34,3.34,0,0,1,388.77,147.22Z"/></g><g class="cls-4"><path class="cls-5" d="M381.89,153.49h.22a.44.44,0,0,1,.19,0h.34a1,1,0,0,1,.39.07l.4.1c.49.11.74.33.74.65a.86.86,0,0,1-.15.45,1.44,1.44,0,0,1-.18.25,1.48,1.48,0,0,1-.25.26l-.37.34-.44.36-.38.27-.57.39a15.84,15.84,0,0,1-1.71.95l-.7.34-.35.12-.42.14-.31,0-.22,0-.13-.07-.18-.14-.12-.24,0-.09c0-.3.1-.46.29-.5l.32,0h.28l.32-.05.2,0,.22-.06a1.4,1.4,0,0,0,.27-.11l.36-.19.59-.29.28-.13.47-.25.5-.28.3-.2.18-.14.26-.21a2.42,2.42,0,0,0,.32-.32l.09-.11,0,0a.18.18,0,0,0,0-.09l-.15-.06-.13,0-.33,0-.25,0-.16,0-.54.08a.15.15,0,0,1-.08,0l-.15.08-.17.06-.12.05h-.2l-.19,0-.24,0a.52.52,0,0,1-.34-.42.67.67,0,0,1,.08-.35.79.79,0,0,1,.33-.23l.29-.1.29-.09Z"/></g><g class="cls-4"><path class="cls-5" d="M383.13,147.22h.51a.47.47,0,0,1,.17,0,1.66,1.66,0,0,1,.92.22.7.7,0,0,1,.34.61,1.81,1.81,0,0,1-.6,1l-.37.4-.47.4c-.14.11-.29.22-.46.33a4.18,4.18,0,0,1-.56.28l-.84.35-.42.2-.29,0c-.05,0-.13-.06-.23-.18l-.07-.13-.07-.15a.45.45,0,0,1,.1-.31.78.78,0,0,1,.34-.24l.36-.11.43-.13a1.81,1.81,0,0,0,.43-.18,2.16,2.16,0,0,0,1.39-1.29l-.08-.06-.09,0-.32,0-.23,0-.24,0h-.26l-.14,0-.19.1-.15.09-.15.07h-.22a.37.37,0,0,1-.23-.1l-.15-.22,0-.18a.38.38,0,0,1,.19-.36,4.07,4.07,0,0,1,.8-.33A3.39,3.39,0,0,1,383.13,147.22Z"/></g><g class="cls-4"><path class="cls-5" d="M372.84,153.49l.31,0a.66.66,0,0,1,.44.26l.12.19a.44.44,0,0,0,.28.14.46.46,0,0,0,.22-.09l.2-.18.16-.13.15-.14a.48.48,0,0,1,.16-.07.82.82,0,0,1,.24,0h.12l.12.06.18.1.1.06.07.09.11.26.08.23.07,0,.11,0a1.3,1.3,0,0,0,.47-.14l.2-.16.21-.21.09-.09.13-.09.28-.14.22,0h.2a.15.15,0,0,1,.14.09l.13.15.05.14a.71.71,0,0,1-.18.5l-.24.28a.63.63,0,0,1-.27.21l-.31.16-.37.15-.37.11-.66.13a1.15,1.15,0,0,1-.55-.14l-.2-.17-.22-.23h-.42a1.47,1.47,0,0,0-.32,0,.61.61,0,0,0-.21.12l-.45.41-.68.56-.68.51-.19.14-.26.16-.3.19-1,.54-.75.42-.3.13-.34.12-.3.06-.33,0-.2,0-.24-.09a.59.59,0,0,1-.29-.59.47.47,0,0,1,.28-.44l.21,0h.75a1.81,1.81,0,0,0,.65-.25l.67-.34.77-.41.7-.47.53-.42.13-.15a.3.3,0,0,0,0-.16l-.25-.47,0-.23v-.12a.33.33,0,0,1,0-.12l.13-.18A.93.93,0,0,1,372.84,153.49Z"/></g><g class="cls-4"><path class="cls-5" d="M376.83,148.74c0,.81-.53,1.5-1.59,2.06a2.32,2.32,0,0,1-1.08.32c-1,0-1.53-.44-1.53-1.31a2.2,2.2,0,0,1,.88-1.7,2.93,2.93,0,0,1,1.87-.72,1.72,1.72,0,0,1,.58.09,1.14,1.14,0,0,1,.46.27A1.26,1.26,0,0,1,376.83,148.74Zm-1,.16c0-.36-.25-.55-.76-.55a1.36,1.36,0,0,0-1,.46,1.32,1.32,0,0,0-.47,1c0,.23.16.34.47.34h.23a1.63,1.63,0,0,0,.93-.42C375.68,149.43,375.87,149.16,375.87,148.9Z"/></g><g class="cls-4"><path class="cls-5" d="M369.56,153.15h.16a.23.23,0,0,1,.13,0,.58.58,0,0,1,.28.31l0,.3a.37.37,0,0,1-.14.33l-.57.24.28.27a.89.89,0,0,1,.26.62v.27s0,.07,0,.1a.18.18,0,0,1,0,.09,1.41,1.41,0,0,1-.75,1l-.41.22-.29.09-.34,0h-.36l-.36,0-.68-.16-.12-.08-.45.38-.21.19-.27.2-.58.43-.25.16-.44.28-.41.24-.84.47-.17.08-.2.09-.34.19-.34,0a.81.81,0,0,1-.72-.41l0-.1-.05-.23a.39.39,0,0,1,.12-.31l.15-.12.12-.07h.73a1.28,1.28,0,0,0,.55-.14l.93-.5.32-.2.55-.36.34-.25.23-.24.19-.15.2-.22-.14-.26,0-.17,0-.17a.65.65,0,0,1,.38-.43l.3-.06h.19l.26.12a.45.45,0,0,1,.25.28l0,.23.08.07.24.15.25.11h.33l.22,0,.17-.07a1.22,1.22,0,0,0,.45-.29l.12-.18.06-.16a.51.51,0,0,0-.08-.3l-.14-.16-.19-.12-.18-.12-.36-.17-.33-.24-.07-.13,0-.17a.19.19,0,0,1,.12-.2l.31-.15h.27l.31,0,.22-.09.19-.14.19-.11.2-.09Z"/></g><g class="cls-4"><path class="cls-5" d="M365.28,147.28h.22l.17,0,.5.09.51.14.36.16a.84.84,0,0,1,.48.68l0,.25-.13.22-.15.2-.36.3-1.25.83-1.15.61L364,151l-.44.09a.53.53,0,0,1-.33-.14l-.1-.16,0-.21,0-.2s.06-.11.16-.2l.41-.2.76-.32,1-.51.4-.21.3-.22.06-.13c0-.18-.25-.28-.75-.28l-.51,0-.61.21c-.43,0-.64-.17-.64-.53a.45.45,0,0,1,.09-.3,1.11,1.11,0,0,1,.34-.21l.6-.2Zm4.3,0a3.19,3.19,0,0,1,.84.13.62.62,0,0,1,.24.08l.18.08.37.25a.77.77,0,0,1,.26.28.7.7,0,0,1,.08.37l-.05.14-.08.16-.19.22-.19.21-.18.21-.25.21-.68.54-.69.47-.6.35-.27.07-.29,0-.23,0a.35.35,0,0,1-.17-.1l-.1-.19a.46.46,0,0,0,0-.14.31.31,0,0,1,.12-.24l.21-.11.28-.14.42-.2.72-.39.55-.44.29-.25a.65.65,0,0,0,.12-.24.26.26,0,0,0-.19-.28l-.43,0-.27,0-.2,0-.21.09-.17.05-.15,0-.37,0-.16-.07-.06,0a.73.73,0,0,1-.09-.08.63.63,0,0,1-.07-.24l0-.14a.38.38,0,0,1,.09-.15,1.58,1.58,0,0,1,.27-.2l.2-.09.18-.05a2.4,2.4,0,0,1,.44-.12l.32,0Z"/></g><g class="cls-4"><path class="cls-5" d="M351.22,179.94l.31,0a.66.66,0,0,1,.45.26l.12.2a.43.43,0,0,0,.27.13.37.37,0,0,0,.22-.08l.21-.19.15-.13.16-.13a.26.26,0,0,1,.15-.07.88.88,0,0,1,.24,0h.12l.12.06.19.09.1.06.06.09.11.27.09.22.07,0,.1,0a1.2,1.2,0,0,0,.47-.13l.21-.16.2-.22.09-.08a.56.56,0,0,1,.14-.09l.27-.15.22,0h.21a.17.17,0,0,1,.14.1l.12.15.05.13a.69.69,0,0,1-.17.5l-.24.28a.67.67,0,0,1-.28.21l-.31.16-.37.16-.36.11-.66.12a1,1,0,0,1-.55-.14l-.21-.17-.22-.22h-.41a1,1,0,0,0-.32,0,.51.51,0,0,0-.22.11l-.44.42-.68.55-.69.51a1,1,0,0,1-.19.14l-.25.17-.3.18-1,.55-.74.41-.3.13-.34.12-.3.07-.33,0-.21,0-.24-.09a.61.61,0,0,1-.29-.6.46.46,0,0,1,.29-.43l.21,0h.15l.6,0a1.84,1.84,0,0,0,.65-.26l.67-.34.77-.41.7-.47.53-.41.13-.16a.33.33,0,0,0,.05-.15l-.25-.47,0-.23v-.12a.17.17,0,0,1,0-.12l.13-.19A1,1,0,0,1,351.22,179.94Z"/></g><g class="cls-4"><path class="cls-5" d="M351.37,174.16a.51.51,0,0,1,.29-.08q.29,0,.36.39v.19c-.35.27-.69.52-1,.74a4.15,4.15,0,0,0-.72.58.7.7,0,0,0-.24.43.41.41,0,0,0,.47.36h.22a.94.94,0,0,0,.8-.3.41.41,0,0,1,.36-.15c.24,0,.4.2.46.6s-.24.59-.73.67l-.29,0h-.48c-1.3,0-2-.39-2-1.16a1.62,1.62,0,0,1,.66-1l.44-.35.41-.31Zm4.2,0,.18-.06.18,0c.22,0,.36.13.42.4v.11a.39.39,0,0,1-.16.32l-1.06.59q-1.08.6-1.08.81v.17c0,.23.27.35.79.35a1.07,1.07,0,0,0,.72-.22l.22-.16.16-.07a.59.59,0,0,1,.36.17.45.45,0,0,1,.17.34.62.62,0,0,1-.28.47l-.24.13-.29.1-.47.05h-.61c-1.12,0-1.68-.33-1.68-1l0-.29a3.55,3.55,0,0,1,1.3-1.37A13.76,13.76,0,0,1,355.57,174.16Z"/></g><g class="cls-4"><path class="cls-5" d="M347.72,179.94l.22-.06H348a.27.27,0,0,1,.14,0l.1.07.12.14.05.22,0,.15a.44.44,0,0,1-.12.22l-.17.15-.51.4-.66.48-.65.43-1.09.65-.45.21a4.81,4.81,0,0,1-.67.31l-.24.09c-.12,0-.22.07-.3.08h-.34a.37.37,0,0,1-.23-.11.43.43,0,0,1-.21-.26v-.2a.66.66,0,0,1,.15-.35l.24-.28.18-.2.11-.16.07-.27,0-.19,0-.29,0-.5a1.23,1.23,0,0,1,.05-.35.36.36,0,0,1,.09-.08l.18-.1.29-.06.24,0a.47.47,0,0,1,.24.13.5.5,0,0,1,.21.46l0,.15-.05.16-.16.34-.13.5-.12.35.21-.08.25-.16.36-.21.46-.28.86-.56.19-.14.29-.28.5-.37Z"/></g><g class="cls-4"><path class="cls-5" d="M347.21,173.67h.51a.43.43,0,0,1,.17,0,1.64,1.64,0,0,1,.93.22.69.69,0,0,1,.33.6,1.72,1.72,0,0,1-.6,1l-.37.4-.47.4a3.66,3.66,0,0,1-.46.33,5.93,5.93,0,0,1-.56.29l-.84.35-.42.2-.29,0c-.05,0-.13-.06-.23-.19l-.07-.13-.07-.15a.46.46,0,0,1,.1-.31.82.82,0,0,1,.35-.24l.36-.1.42-.14a2.23,2.23,0,0,0,.44-.18,2.09,2.09,0,0,0,1.38-1.28l-.08-.07-.09,0-.32,0-.23,0-.24,0h-.25l-.14,0-.2.1-.15.08L346,175h-.22a.37.37,0,0,1-.22-.09l-.16-.22,0-.18a.39.39,0,0,1,.2-.37,4.68,4.68,0,0,1,.79-.33A3.94,3.94,0,0,1,347.21,173.67Z"/></g><g class="cls-4"><path class="cls-5" d="M335.12,184.78a.92.92,0,0,1-.58-.15.59.59,0,0,1-.19-.48V184a.29.29,0,0,1,.17-.26.85.85,0,0,1,.37-.12,3,3,0,0,0,1.16-.28l1-.53a2.06,2.06,0,0,0,.55-.3l.64-.44.27-.16.27-.24-.13-.12-.23-.26-.1-.22v-.23a.6.6,0,0,1,.08-.23l.16-.13a.63.63,0,0,1,.43-.18,1.42,1.42,0,0,1,.56.18l.18.1.22.14.65-.35.78-.43.41-.17a3.16,3.16,0,0,1,.81-.25,1.29,1.29,0,0,1,.38.12.45.45,0,0,1,.15.36v.13a.38.38,0,0,1-.15.22l-.28.18-.15.07-.45.21-.41.17-.65.19-.33.08.52.26.4.21.2.19.05.06v.12a.22.22,0,0,1,0,.13l-.05.14a.35.35,0,0,1-.17.19l-.22.09-.27,0a.37.37,0,0,1-.17,0l-1.05-.54-.37.23-.37.27-.5.31-.72.45-1.3.75-.53.29-.5.25-.27.09Z"/></g><g class="cls-4"><path class="cls-5" d="M341.74,173.75l.27-.11.29,0a.6.6,0,0,1,.44.11.32.32,0,0,1,.17.3.39.39,0,0,1-.15.34l-.11.08-.2.09-.38.17-1.08.49c-.57.27-.86.61-.86,1a.45.45,0,0,0,.18.34l.12.05.17,0,.38,0,.33,0,.14,0a.35.35,0,0,0,.14-.06.91.91,0,0,1,.17-.08l.18-.07a.48.48,0,0,1,.29.06l.17.22a.63.63,0,0,1,.05.28c-.05.28-.32.49-.81.62l-.31.08-.29,0-.45,0-.48-.13-.25-.08-.23-.15a1.24,1.24,0,0,1-.63-1.1,1.23,1.23,0,0,1,.25-.71l.23-.29.33-.31.27-.2.33-.22.6-.37Z"/></g><g class="cls-4"><path class="cls-5" d="M330.26,179.94l.31,0a.66.66,0,0,1,.44.26l.12.2a.43.43,0,0,0,.27.13.42.42,0,0,0,.23-.08l.2-.19.16-.13.15-.13a.26.26,0,0,1,.16-.07.78.78,0,0,1,.24,0h.12l.11.06.19.09.1.06.07.09.11.27.08.22.07,0,.1,0a1.28,1.28,0,0,0,.48-.13l.2-.16.21-.22.09-.08a.48.48,0,0,1,.13-.09l.27-.15.23,0h.2a.15.15,0,0,1,.14.1l.13.15.05.13a.7.7,0,0,1-.18.5l-.24.28a.63.63,0,0,1-.27.21l-.31.16-.37.16-.37.11-.66.12a1,1,0,0,1-.55-.14l-.2-.17-.23-.22h-.41a1,1,0,0,0-.32,0,.47.47,0,0,0-.21.11l-.45.42-.68.55-.68.51a1.15,1.15,0,0,1-.2.14l-.25.17-.3.18-1,.55-.75.41-.3.13-.34.12-.3.07-.33,0-.2,0-.24-.09a.61.61,0,0,1-.29-.6.45.45,0,0,1,.28-.43l.21,0h.16l.59,0a1.71,1.71,0,0,0,.65-.26l.67-.34.77-.41.7-.47.53-.41.13-.16a.25.25,0,0,0,.05-.15l-.25-.47,0-.23v-.12a.29.29,0,0,1,0-.12l.13-.19A1,1,0,0,1,330.26,179.94Z"/></g><g class="cls-4"><path class="cls-5" d="M334.25,175.2c0,.81-.53,1.49-1.58,2.05a2.35,2.35,0,0,1-1.08.33c-1,0-1.54-.44-1.54-1.31a2.16,2.16,0,0,1,.89-1.7,2.88,2.88,0,0,1,1.86-.73,1.35,1.35,0,0,1,.57.1,1.14,1.14,0,0,1,.47.26A1.27,1.27,0,0,1,334.25,175.2Zm-1,.15c0-.36-.25-.54-.76-.54a1.38,1.38,0,0,0-1,.45,1.33,1.33,0,0,0-.46,1c0,.23.15.35.46.35h.23a1.68,1.68,0,0,0,.94-.42A1.11,1.11,0,0,0,333.29,175.35Z"/></g><g class="cls-4"><path class="cls-5" d="M327,179.6h.16a.23.23,0,0,1,.13,0,.6.6,0,0,1,.28.32l0,.29a.35.35,0,0,1-.14.33l-.57.24.28.28a.87.87,0,0,1,.26.61V182s0,.06,0,.09a.26.26,0,0,1,0,.1,1.41,1.41,0,0,1-.75,1l-.41.22-.29.09-.35,0h-.35l-.36-.05-.68-.16-.12-.08-.45.38-.21.19-.27.21-.58.42-.25.16-.44.28-.41.25-.84.46-.17.08-.2.1-.35.18-.33.06a.8.8,0,0,1-.72-.42l0-.1-.06-.22a.45.45,0,0,1,.12-.32l.16-.12.12-.07h.73a1.42,1.42,0,0,0,.55-.13l.93-.5.32-.21.54-.36.35-.25.23-.24.18-.14.21-.22-.14-.26,0-.17,0-.18a.67.67,0,0,1,.38-.43l.29-.06h.2l.26.12a.47.47,0,0,1,.25.27l0,.23.08.07.24.16.25.1h.33l.21,0,.18-.07a1.1,1.1,0,0,0,.45-.29l.12-.18.06-.16a.56.56,0,0,0-.08-.3l-.14-.15-.19-.12-.18-.12-.36-.18-.34-.24-.06-.12-.05-.17a.22.22,0,0,1,.11-.21l.32-.15H326l.22-.1.19-.14.19-.11.2-.08Z"/></g><g class="cls-4"><path class="cls-5" d="M322.7,173.73h.22l.17,0,.5.08.51.15.36.16a.81.81,0,0,1,.48.68l0,.24-.13.23-.15.19-.36.3-1.25.83-1.15.61-.48.22-.44.08a.46.46,0,0,1-.33-.14l-.1-.16,0-.21,0-.2c0-.05.06-.11.16-.2l.4-.19.77-.33,1-.5.4-.22.3-.21.06-.13c0-.19-.25-.28-.75-.28l-.52,0-.6.2c-.43,0-.65-.17-.65-.52a.46.46,0,0,1,.1-.31,1.11,1.11,0,0,1,.34-.21l.6-.2Zm4.31,0a3.6,3.6,0,0,1,.83.13l.25.08.17.09.37.25a.73.73,0,0,1,.35.65l-.06.13-.08.16-.19.23-.19.21-.18.2-.25.21-.68.55-.69.46-.61.35-.26.07-.29,0-.22,0a.41.41,0,0,1-.18-.1l-.1-.19a.61.61,0,0,0,0-.15.35.35,0,0,1,.12-.24l.21-.11.28-.14.42-.19.72-.4.55-.43.29-.26a.51.51,0,0,0,.12-.24.25.25,0,0,0-.19-.27l-.42,0-.28,0-.2,0-.21.09-.17,0-.15,0-.38,0-.15-.08-.06-.05a.71.71,0,0,1-.09-.07,1,1,0,0,1-.07-.24l0-.15a.6.6,0,0,1,.09-.15,1.57,1.57,0,0,1,.27-.19l.2-.09.18-.05a1.93,1.93,0,0,1,.44-.12,1.6,1.6,0,0,1,.32,0Z"/></g><g class="cls-4"><path class="cls-5" d="M264.29,159.29h.22l.17,0,.5.08.51.15.36.16a.81.81,0,0,1,.48.67l0,.25-.13.23-.15.19-.36.3-1.25.83-1.15.61L263,163l-.44.09a.46.46,0,0,1-.33-.14l-.1-.16,0-.21,0-.2s.06-.11.16-.2l.41-.19.76-.33,1-.5.4-.22.3-.21.06-.13c0-.19-.25-.28-.75-.28l-.51,0-.61.2c-.43,0-.64-.17-.64-.52a.46.46,0,0,1,.09-.31,1.11,1.11,0,0,1,.34-.21l.6-.2Zm4.31,0a3.13,3.13,0,0,1,.83.13.82.82,0,0,1,.25.08l.17.08.37.25a.85.85,0,0,1,.26.28.7.7,0,0,1,.09.37l-.05.14-.09.16-.19.23-.19.21-.18.2-.25.21-.68.55-.69.46-.61.35-.26.07-.29,0h-.22s-.1,0-.18-.11l-.1-.18a.54.54,0,0,0,0-.15.35.35,0,0,1,.12-.24l.21-.11.28-.14.42-.19.72-.4.55-.43.29-.26a.57.57,0,0,0,.12-.24.26.26,0,0,0-.19-.28l-.42,0-.28,0-.2.05-.21.08-.17,0-.15,0-.37,0-.16-.08-.06-.05a.71.71,0,0,1-.09-.07,1.21,1.21,0,0,1-.07-.24l0-.15a.46.46,0,0,1,.09-.15,1.87,1.87,0,0,1,.28-.2l.19-.09.18,0a2.71,2.71,0,0,1,.44-.13l.32,0Z"/><path class="cls-5" d="M269.05,165.16h.16a.26.26,0,0,1,.14,0,.59.59,0,0,1,.27.32l0,.29a.37.37,0,0,1-.14.33l-.56.24.27.28a.82.82,0,0,1,.27.61v.28a.28.28,0,0,0,0,.09.36.36,0,0,1,0,.09,1.42,1.42,0,0,1-.76,1l-.41.22L268,169l-.35,0h-.35l-.36-.05-.69-.16-.12-.08-.44.38-.22.19-.26.21-.59.42-.24.16-.45.28-.41.25-.84.46-.17.08-.2.09-.34.19-.33.05a.77.77,0,0,1-.72-.41l0-.1-.05-.23a.39.39,0,0,1,.12-.31l.15-.12.12-.07h.73a1.25,1.25,0,0,0,.55-.14l.93-.5.33-.2.54-.36.35-.25.22-.24.19-.14.21-.22-.14-.26,0-.18,0-.17a.66.66,0,0,1,.39-.43l.29-.06H266l.26.12a.49.49,0,0,1,.26.27l0,.23.08.07.24.16.26.1h.33l.21,0,.18-.07a1.08,1.08,0,0,0,.44-.29l.12-.18.06-.16a.56.56,0,0,0-.07-.3l-.14-.16-.2-.12-.18-.12-.36-.17-.33-.24-.06-.12,0-.17a.22.22,0,0,1,.11-.21l.32-.15h.58l.21-.1.2-.14.19-.11.19-.08Z"/><path class="cls-5" d="M277.62,160.06a.56.56,0,0,1,.33-.12c.31,0,.47.21.47.63l0,.14a.24.24,0,0,1-.08.1A15.24,15.24,0,0,1,276.5,162a13,13,0,0,1-1.82.92l-.24.09-.18,0a.42.42,0,0,1-.37-.29l0-.16,0-.23c0-.15.1-.26.29-.32a10.71,10.71,0,0,0,1.44-.76c.15-.1.31-.19.47-.28s.47-.28.69-.43S277.38,160.24,277.62,160.06Z"/><path class="cls-5" d="M270.83,170.33a.86.86,0,0,1-.58-.15.57.57,0,0,1-.19-.48v-.17a.27.27,0,0,1,.17-.26.77.77,0,0,1,.37-.12,3.24,3.24,0,0,0,1.16-.28l1-.54a1.73,1.73,0,0,0,.55-.29l.64-.45.27-.16.27-.24-.13-.11-.23-.26-.1-.23v-.22a.87.87,0,0,1,.08-.23l.16-.13a.69.69,0,0,1,.43-.19,1.55,1.55,0,0,1,.56.19l.18.1.23.14.65-.35.77-.43.41-.17a3.28,3.28,0,0,1,.81-.25,1.19,1.19,0,0,1,.38.12q.12.08.15.36v.13a.48.48,0,0,1-.15.22l-.28.18-.15.07-.45.21-.41.17-.65.19-.33.08.52.26.39.21.21.18.05.07v.12a.35.35,0,0,1,0,.13l-.05.14a.33.33,0,0,1-.19.18l-.21.1-.27,0a.39.39,0,0,1-.17,0l-1-.54-.37.23-.36.27-.51.3-.72.46-1.3.75-.52.28-.51.25-.27.1Z"/><path class="cls-5" d="M286.43,160.06a.51.51,0,0,1,.32-.12c.31,0,.47.21.47.63l0,.14a.27.27,0,0,1-.09.1,16,16,0,0,1-1.8,1.23,13.52,13.52,0,0,1-1.82.92l-.24.09-.19,0a.42.42,0,0,1-.37-.29l0-.16,0-.23c0-.15.1-.26.3-.32a11.58,11.58,0,0,0,1.43-.76l.47-.28.7-.43Q286.07,160.33,286.43,160.06Z"/><path class="cls-5" d="M285.76,165.5l.22-.06h.09a.22.22,0,0,1,.13,0l.11.07.12.14.05.22,0,.15a.38.38,0,0,1-.11.22l-.17.15-.51.4-.66.48-.65.42-1.09.66-.45.21a6.34,6.34,0,0,1-.67.31l-.24.09-.3.08-.35,0a.33.33,0,0,1-.22-.1.43.43,0,0,1-.21-.26v-.2a.66.66,0,0,1,.15-.35l.24-.28.17-.2.12-.16.07-.27,0-.19,0-.29,0-.5a1.18,1.18,0,0,1,.05-.35.24.24,0,0,1,.09-.08l.18-.1.29-.06.24,0a.41.41,0,0,1,.24.13.5.5,0,0,1,.2.46v.15l-.05.16-.16.34-.14.5-.12.35.22-.09.25-.15.36-.21.46-.28.86-.57.18-.13.29-.28.51-.37Z"/><path class="cls-5" d="M293.76,172.73a.39.39,0,0,1,.39.24l0,.2,0,.14a.22.22,0,0,1-.05.14l-.16.18-.12.06-.23.11-.25.12-.44.42-.41.3-.71.45-.62.38-.36.2a4,4,0,0,1-.42.21l-.7.26-.25.07a.54.54,0,0,1-.38-.16.65.65,0,0,1-.14-.4l0-.18a.24.24,0,0,1,.09-.14l.09-.07.33-.18.72-.32.6-.29.41-.19.38-.21.72-.46.41-.27.37-.3.4-.23A.51.51,0,0,1,293.76,172.73Z"/><path class="cls-5" d="M293.31,165.73h.25l.16,0a.48.48,0,0,1,.16.08.81.81,0,0,1,.41.55l.07.3,0,.21a.65.65,0,0,1,0,.17l-.05.24-.12.44-.16.42-.13.32-.18.35a1.75,1.75,0,0,1-.52.64l-.23.05-.13,0a.51.51,0,0,1-.14,0l-.14-.05-.19-.14-.06-.22a.74.74,0,0,1,0-.18.71.71,0,0,1,.09-.15l.21-.27.21-.31.35-.65.12-.35s0,0,0-.09a.21.21,0,0,0,0-.11l-.09,0a.6.6,0,0,0-.39.14l-.32.28-.7.58-1.36,1.06-.5.35-.55.34L289,170l-.36.13-.28,0-.25,0-.16-.06a.38.38,0,0,1-.17-.37v-.19a.28.28,0,0,1,0-.15l.07-.18s.11-.11.28-.19l.36,0h.3l.21-.06.44-.22.69-.45.32-.24.33-.27.43-.38.44-.37.42-.4.44-.37A1.16,1.16,0,0,1,293.31,165.73Z"/><path class="cls-5" d="M301.94,160.06a.56.56,0,0,1,.33-.12c.31,0,.47.21.47.63l0,.14a.24.24,0,0,1-.08.1,15.24,15.24,0,0,1-1.81,1.23A13,13,0,0,1,299,163l-.24.09-.18,0a.42.42,0,0,1-.37-.29l0-.16,0-.23c0-.15.1-.26.29-.32a10.71,10.71,0,0,0,1.44-.76c.15-.1.31-.19.47-.28s.47-.28.69-.43S301.7,160.24,301.94,160.06Z"/><path class="cls-5" d="M301.72,167c0,.44-.43.95-1.28,1.53l-1.58,1-.67.41a6.11,6.11,0,0,1-2.37,1c-.55,0-.82-.21-.82-.64a.57.57,0,0,1,.29-.5.66.66,0,0,1,.41-.08h.08l.12.05.14.06.08,0h.21l.17,0,.26-.08.72-.38.28-.15.49-.3.27-.2c-.58-.26-.88-.59-.88-1a1.65,1.65,0,0,1,.64-1.3l.29-.2.31-.22a2.79,2.79,0,0,1,1.32-.34,1.83,1.83,0,0,1,1.2.46A1,1,0,0,1,301.72,167Zm-1.08-.12c-.08-.14-.3-.21-.65-.21a1.72,1.72,0,0,0-1,.47l-.14.15-.14.22-.06.18c0,.12.08.22.24.33a.59.59,0,0,0,.19.06l.15,0,.27-.07.46-.24c.47-.3.71-.55.71-.74A.18.18,0,0,0,300.64,166.87Z"/></g><g class="cls-4"><path class="cls-5" d="M127.28,261.06h.22l.17,0,.5.09.52.14.36.16a.85.85,0,0,1,.47.68l0,.25-.13.23-.14.19-.36.3-1.25.83-1.16.61-.48.21-.44.09a.53.53,0,0,1-.33-.14l-.09-.16,0-.21,0-.2c0-.05.06-.11.17-.2l.4-.19.76-.33,1-.51.41-.21.3-.21.06-.13c0-.19-.26-.29-.76-.29l-.51.05-.61.2c-.43,0-.64-.17-.64-.53a.4.4,0,0,1,.1-.3,1,1,0,0,1,.33-.21l.6-.2Zm4.31,0a3.13,3.13,0,0,1,.83.13.61.61,0,0,1,.25.08l.18.08.37.25a.74.74,0,0,1,.25.28.7.7,0,0,1,.09.37l-.05.14-.09.16-.19.22L133,263l-.18.2-.24.21-.69.54-.68.47-.61.35-.27.07-.29,0h-.22s-.1,0-.18-.11l-.1-.19a.3.3,0,0,0,0-.14.35.35,0,0,1,.12-.24l.21-.11.29-.14.42-.19.71-.4.55-.44.29-.25a.65.65,0,0,0,.12-.24.26.26,0,0,0-.18-.28l-.43,0-.28,0-.19,0-.22.09-.17,0-.14,0-.38,0-.16-.07-.06-.05-.09-.07a1.21,1.21,0,0,1-.07-.24l0-.15a.38.38,0,0,1,.09-.15,1.87,1.87,0,0,1,.28-.2l.19-.09.18,0a2.71,2.71,0,0,1,.44-.13l.32,0Z"/><path class="cls-5" d="M132,266.93h.16a.26.26,0,0,1,.14,0,.66.66,0,0,1,.28.31l0,.3a.35.35,0,0,1-.14.33l-.56.24.27.27a.86.86,0,0,1,.27.62v.27s0,.07,0,.1a.18.18,0,0,1,0,.09,1.43,1.43,0,0,1-.75,1l-.42.22-.28.09-.35,0h-.35l-.36-.05-.69-.16-.11-.08-.45.38-.21.19-.27.21-.58.42-.25.16-.45.28-.41.25-.84.46-.17.08-.19.09-.35.19-.33.05a.79.79,0,0,1-.72-.41l0-.1,0-.23a.39.39,0,0,1,.12-.31l.16-.12.12-.07h.72a1.21,1.21,0,0,0,.55-.14l.94-.5.32-.2.54-.36.35-.25.22-.24.19-.15.21-.22-.14-.26,0-.17,0-.17a.66.66,0,0,1,.39-.43l.29-.06h.2l.25.12a.47.47,0,0,1,.26.28l0,.23.07.07.24.15.26.11h.33l.21,0,.18-.07a1.31,1.31,0,0,0,.45-.29l.12-.18.06-.16a.53.53,0,0,0-.08-.3l-.14-.16-.2-.12-.18-.12-.35-.17-.34-.24-.06-.13-.05-.17a.21.21,0,0,1,.11-.2l.32-.15h.26l.32,0,.21-.09.2-.14.19-.11.2-.08Z"/><path class="cls-5" d="M138.88,261h.51a.74.74,0,0,1,.17,0,1.73,1.73,0,0,1,.93.22.71.71,0,0,1,.33.61,1.75,1.75,0,0,1-.6,1l-.37.4-.47.4a3.76,3.76,0,0,1-1,.61l-.84.35-.42.2-.29,0c-.05,0-.13-.07-.23-.19l-.07-.13-.07-.15a.5.5,0,0,1,.1-.31.82.82,0,0,1,.35-.24l.36-.1.42-.14a2.23,2.23,0,0,0,.44-.18,2.12,2.12,0,0,0,1.38-1.29l-.07-.06-.1-.05-.32,0-.23,0-.24,0h-.25l-.14,0-.2.11-.15.08-.15.07h-.22a.32.32,0,0,1-.22-.1L137,262l0-.18a.4.4,0,0,1,.2-.36,4,4,0,0,1,.79-.33A3.94,3.94,0,0,1,138.88,261Z"/><path class="cls-5" d="M137.22,267.27l.31,0a.66.66,0,0,1,.45.26l.12.19a.44.44,0,0,0,.27.14.42.42,0,0,0,.22-.09l.21-.18.15-.13.16-.14a.52.52,0,0,1,.15-.07.82.82,0,0,1,.24,0h.12l.12.06.19.1.09.06a.36.36,0,0,1,.07.09l.11.26.09.23.07,0,.1,0a1.12,1.12,0,0,0,.47-.14l.21-.16.2-.21.09-.09.13-.09.28-.14.22,0h.21a.15.15,0,0,1,.13.09l.13.15.05.14a.71.71,0,0,1-.18.5l-.24.28a.63.63,0,0,1-.27.21l-.31.16-.37.15-.36.11-.66.13a1.12,1.12,0,0,1-.55-.14l-.21-.17-.22-.23h-.41a1.39,1.39,0,0,0-.32,0,.66.66,0,0,0-.22.12l-.45.41-.67.56-.69.51-.19.14-.25.16-.3.19-1,.55-.74.41-.3.13-.35.12-.3.06-.32,0-.21,0-.24-.09a.59.59,0,0,1-.29-.59.49.49,0,0,1,.28-.44l.22,0h.74a1.81,1.81,0,0,0,.65-.25l.67-.34.77-.41.71-.47.53-.42.13-.15a.88.88,0,0,0,0-.15l-.25-.48,0-.23v-.12a.19.19,0,0,1,0-.12l.13-.18A.9.9,0,0,1,137.22,267.27Z"/><path class="cls-5" d="M148.4,261h.5a.84.84,0,0,1,.18,0,1.71,1.71,0,0,1,.92.22.71.71,0,0,1,.33.61,1.75,1.75,0,0,1-.6,1l-.36.4-.47.4a4.78,4.78,0,0,1-.47.33,3.55,3.55,0,0,1-.55.28l-.84.35-.42.2-.29,0c-.06,0-.13-.07-.24-.19l-.06-.13-.07-.15a.45.45,0,0,1,.1-.31.78.78,0,0,1,.34-.24l.36-.1.42-.14a2,2,0,0,0,.44-.18,2.16,2.16,0,0,0,1.39-1.29l-.08-.06-.09-.05-.32,0-.23,0-.24,0h-.26l-.14,0-.19.11-.16.08-.14.07h-.23a.35.35,0,0,1-.22-.1l-.15-.22-.05-.18a.4.4,0,0,1,.2-.36,4.07,4.07,0,0,1,.8-.33A3.8,3.8,0,0,1,148.4,261Z"/><path class="cls-5" d="M149.58,267.27l.22-.07h.09a.27.27,0,0,1,.14,0l.1.07.13.13,0,.23,0,.14a.47.47,0,0,1-.12.23l-.17.15-.51.4-.66.47-.65.43-1.09.65-.44.22a5.28,5.28,0,0,1-.68.3,1.82,1.82,0,0,1-.24.09l-.3.09-.34,0a.38.38,0,0,1-.23-.1.55.55,0,0,1-.21-.26v-.21a.73.73,0,0,1,.15-.35l.25-.27.17-.2.11-.16.08-.27v-1a1.18,1.18,0,0,1,.05-.35.24.24,0,0,1,.09-.08l.18-.1.29-.06h.24a.44.44,0,0,1,.24.14.5.5,0,0,1,.21.46l0,.15,0,.16-.16.34-.13.5-.12.34.21-.08.25-.16.36-.2.46-.28.86-.57.19-.13.29-.28.5-.38Z"/><path class="cls-5" d="M157.63,261.83a.56.56,0,0,1,.33-.12c.31,0,.47.21.47.62l0,.15a.2.2,0,0,1-.09.1,16.44,16.44,0,0,1-1.8,1.23,14.8,14.8,0,0,1-1.82.92l-.24.08-.19.06c-.15,0-.27-.1-.36-.29l0-.16,0-.23c0-.15.09-.26.29-.32a11.33,11.33,0,0,0,1.44-.77l.47-.27c.24-.14.47-.28.69-.43S157.39,262,157.63,261.83Z"/><path class="cls-5" d="M155.22,267.27h.22a.44.44,0,0,1,.19,0H156a1,1,0,0,1,.38.07l.41.1c.49.11.73.33.73.65a.94.94,0,0,1-.14.45,1.44,1.44,0,0,1-.18.25,2,2,0,0,1-.25.26l-.37.34-.44.36-.38.27-.57.39a15.84,15.84,0,0,1-1.71.95l-.71.34-.34.12L152,272l-.31,0-.22,0-.13-.07-.19-.13-.12-.24,0-.1c0-.3.09-.46.29-.5l.31,0h.29l.31-.05.2-.05.22-.05.28-.12.36-.19.59-.29.28-.13c.1,0,.26-.13.46-.25l.51-.28.3-.2.18-.13.25-.22a2,2,0,0,0,.33-.32l.09-.1,0,0a.11.11,0,0,0,0-.08l-.15-.07-.14,0-.32,0-.26,0-.15,0-.54.08-.08,0-.15.08-.17.06-.12.05h-.2l-.2,0-.24,0a.51.51,0,0,1-.33-.42.59.59,0,0,1,.08-.35.9.9,0,0,1,.33-.23l.28-.1.29-.09Z"/></g><g class="cls-4"><path class="cls-5" d="M294.84,89l.22-.07h.09a.2.2,0,0,1,.13,0l.11.07.13.13,0,.23,0,.14a.37.37,0,0,1-.11.23l-.17.15-.51.4-.66.47-.65.43-1.09.65-.44.22a5.28,5.28,0,0,1-.68.3l-.24.09-.3.09-.34,0a.36.36,0,0,1-.23-.1.55.55,0,0,1-.21-.26V92a.73.73,0,0,1,.15-.35l.25-.27.17-.2.11-.16.08-.27v-1a1.18,1.18,0,0,1,.05-.35.24.24,0,0,1,.09-.08l.18-.1.29-.06h.24a.44.44,0,0,1,.24.14.5.5,0,0,1,.2.46v.15l-.05.16-.16.34-.14.5-.12.34.22-.08.25-.16.36-.2.46-.28.86-.57.18-.13.3-.28.5-.38Z"/></g><g class="cls-4"><path class="cls-5" d="M294.34,82.75h.5a.4.4,0,0,1,.17,0,1.73,1.73,0,0,1,.93.22.71.71,0,0,1,.33.61,1.75,1.75,0,0,1-.6,1l-.37.4-.47.4a4.58,4.58,0,0,1-.46.33,3.66,3.66,0,0,1-.56.28l-.84.35-.42.2-.29,0c-.05,0-.13-.07-.23-.19l-.07-.13-.07-.15a.5.5,0,0,1,.1-.31.82.82,0,0,1,.35-.24l.36-.1.42-.14a1.81,1.81,0,0,0,.43-.18,2.12,2.12,0,0,0,1.39-1.29l-.07-.06-.1,0-.31,0-.24,0-.24,0h-.25l-.14,0-.2.11-.15.08-.15.07h-.22a.32.32,0,0,1-.22-.1l-.16-.22,0-.18a.4.4,0,0,1,.2-.36,3.23,3.23,0,0,1,1.69-.44Z"/></g><g class="cls-4"><path class="cls-5" d="M282.24,93.85a.92.92,0,0,1-.58-.15.57.57,0,0,1-.19-.48v-.17a.28.28,0,0,1,.16-.26,1,1,0,0,1,.38-.13,3.08,3.08,0,0,0,1.16-.27l1-.54a1.73,1.73,0,0,0,.55-.29l.64-.45.26-.16.28-.24-.13-.11-.23-.26-.1-.23v-.22a.66.66,0,0,1,.07-.23l.17-.14a.71.71,0,0,1,.43-.18,1.6,1.6,0,0,1,.56.18l.18.11.22.13.65-.34.77-.43.42-.17a2.78,2.78,0,0,1,.81-.25,1.29,1.29,0,0,1,.38.12.46.46,0,0,1,.15.35v.14a.48.48,0,0,1-.15.22l-.28.18-.15.07-.45.21-.41.17-.65.19-.33.08.52.26.39.2.21.19L289,91v.11a.25.25,0,0,1,0,.14l-.05.14a.32.32,0,0,1-.18.18l-.21.1-.28,0a.26.26,0,0,1-.16,0L287,91.16l-.37.23-.37.27-.5.3-.72.45-1.3.76-.53.28-.5.25-.27.09Z"/></g><g class="cls-4"><path class="cls-5" d="M289.12,96.24a.39.39,0,0,1,.38.25l0,.2v.14a.15.15,0,0,1-.07.13l-.15.19-.12.06-.23.11-.25.12-.44.42-.41.3-.71.45-.62.37-.36.21c-.19.1-.32.17-.42.21l-.69.26-.26.07a.54.54,0,0,1-.38-.16.66.66,0,0,1-.15-.4l0-.19a.22.22,0,0,1,.09-.13l.09-.07.34-.18.72-.32.59-.29.42-.19.37-.21.72-.46.41-.28.37-.29.4-.23A.53.53,0,0,1,289.12,96.24Z"/></g><g class="cls-4"><path class="cls-5" d="M277.14,89l.3,0a.66.66,0,0,1,.45.26l.12.19a.44.44,0,0,0,.27.14.48.48,0,0,0,.23-.09l.2-.18.16-.13.15-.14a.52.52,0,0,1,.15-.07.9.9,0,0,1,.24,0h.12l.12.06.19.1.09.06a.36.36,0,0,1,.07.09l.12.26.08.23.07,0,.1,0a1.08,1.08,0,0,0,.47-.14l.21-.16.2-.21.1-.09.13-.09.27-.14.22,0h.21a.16.16,0,0,1,.14.09l.13.15.05.14a.71.71,0,0,1-.18.5l-.24.28a.61.61,0,0,1-.28.21l-.31.16-.36.15-.37.11-.66.13a1.15,1.15,0,0,1-.55-.14l-.2-.17-.23-.23h-.41a1.47,1.47,0,0,0-.32,0,.66.66,0,0,0-.22.12l-.44.41-.68.56-.68.51-.2.14-.25.16-.3.19-1,.55-.74.41-.3.13-.34.12-.3.06-.33,0-.2,0-.24-.09a.57.57,0,0,1-.29-.59.47.47,0,0,1,.28-.44l.21,0h.75a1.88,1.88,0,0,0,.65-.25l.66-.34.78-.41.7-.47.53-.42.13-.15a.43.43,0,0,0,.05-.16l-.25-.47,0-.23v-.12a.2.2,0,0,1,0-.12l.13-.18A.93.93,0,0,1,277.14,89Z"/></g><g class="cls-4"><path class="cls-5" d="M273.21,91.49l-.46.44-.32.24-.35.21-.59.28-.56.19-.64.13-.66,0h-.93a.53.53,0,0,1-.24-.06,1.59,1.59,0,0,1-1.18-1,2.12,2.12,0,0,1-.07-.59,2,2,0,0,1,.2-.76l.26-.32L268,90l.17-.13.19-.11.41-.19.37-.13.37-.05h.35a1.1,1.1,0,0,1,.26.06,1,1,0,0,1,.21.11l.35.34.33-.32.28-.19.16-.09.2-.08.38-.08.42,0a1.58,1.58,0,0,1,1.27.54l.13.2a.64.64,0,0,1,.07.27v.22A2.1,2.1,0,0,1,273.21,91.49Zm-3.31-.89-.24-.13-.24,0h-.24l-.14,0-.24.1a1,1,0,0,0-.58.91.47.47,0,0,0,.24.38l.41.17.62-.9Zm2.94-.3c0-.2-.16-.31-.47-.31l-.19,0a1.4,1.4,0,0,0-.5.25l-.62.5-.38.34-.29.34-.16.22-.26.4.82-.14.11,0a.58.58,0,0,0,.17-.05l.28-.16.5-.34.41-.29C272.65,90.78,272.84,90.52,272.84,90.3Z"/></g><g class="cls-4"><path class="cls-5" d="M273.82,96.24a.4.4,0,0,1,.39.25l0,.2v.14a.2.2,0,0,1-.06.13l-.16.19-.12.06-.23.11-.25.12-.44.42-.41.3-.71.45-.62.37-.36.21a4,4,0,0,1-.42.21l-.69.26-.26.07a.54.54,0,0,1-.38-.16.72.72,0,0,1-.14-.4l0-.19c0-.06.05-.11.09-.13l.09-.07.34-.18.71-.32.6-.29.42-.19.37-.21.72-.46.41-.28.37-.29.4-.23A.52.52,0,0,1,273.82,96.24Z"/></g><g class="cls-4"><path class="cls-5" d="M194.68,52h.22l.17,0,.5.08.51.15.36.16a.82.82,0,0,1,.48.68l0,.24-.13.23-.14.2-.36.29L195,55l-1.16.6-.48.22-.44.08a.51.51,0,0,1-.33-.13l-.09-.17,0-.2,0-.21a.43.43,0,0,1,.17-.19l.4-.2.76-.33,1-.5.41-.22.3-.21.06-.13c0-.19-.26-.28-.76-.28l-.51,0-.61.21c-.43,0-.64-.18-.64-.53a.43.43,0,0,1,.1-.31,1,1,0,0,1,.33-.21l.6-.19Zm4.31.05a3.13,3.13,0,0,1,.83.13.82.82,0,0,1,.25.07l.18.09.37.25a.79.79,0,0,1,.25.27.74.74,0,0,1,.09.38l-.05.13-.09.17-.19.22-.19.21-.18.21-.24.2-.69.55-.68.47-.61.34-.27.07-.29,0-.22,0a.33.33,0,0,1-.18-.1l-.1-.19a.28.28,0,0,0,0-.14.31.31,0,0,1,.12-.24l.21-.12.29-.13.41-.2.72-.4.55-.43.29-.26a.51.51,0,0,0,.12-.24.25.25,0,0,0-.19-.27l-.42,0-.28,0-.19,0-.22.09-.17,0-.15,0-.37,0-.16-.08-.06,0-.09-.08a.89.89,0,0,1-.07-.24l0-.14a.51.51,0,0,1,.09-.16,1.91,1.91,0,0,1,.28-.19l.19-.09.18,0a1.93,1.93,0,0,1,.44-.12l.32,0Z"/><path class="cls-5" d="M199.44,57.92h.16l.14,0a.64.64,0,0,1,.28.32l0,.29c0,.17,0,.28-.14.33l-.56.24.27.28a.84.84,0,0,1,.27.62v.27a.28.28,0,0,0,0,.09l0,.1a1.44,1.44,0,0,1-.75,1l-.42.22-.28.1-.35,0h-.35l-.36,0-.69-.16-.12-.08-.44.37-.21.2-.27.2-.58.43-.25.15-.45.28-.41.25-.84.47-.17.07-.19.1-.35.18-.33.06a.81.81,0,0,1-.72-.41l0-.11,0-.22a.41.41,0,0,1,.12-.32l.16-.12.12-.07h.72a1.2,1.2,0,0,0,.55-.13l.94-.5.32-.21.54-.35.35-.25.22-.24.19-.15.21-.22-.14-.26,0-.17,0-.17a.68.68,0,0,1,.39-.44l.29-.06h.2l.25.12a.45.45,0,0,1,.26.27l0,.23.07.07.24.16.26.1.33,0,.21,0,.18-.07a1.26,1.26,0,0,0,.45-.28l.12-.19.06-.16a.56.56,0,0,0-.08-.3l-.14-.15-.2-.12-.18-.12-.36-.17-.33-.24-.06-.13,0-.17a.22.22,0,0,1,.11-.21l.32-.14h.26l.32,0,.21-.1.2-.13.19-.11.2-.09Z"/><path class="cls-5" d="M208,65.48a.38.38,0,0,1,.39.25l0,.19,0,.14a.18.18,0,0,1-.06.14l-.15.19-.12,0-.23.12-.25.12-.45.42-.4.29-.71.45-.63.38-.35.2a2.64,2.64,0,0,1-.42.21l-.7.27-.25.07a.53.53,0,0,1-.38-.17.64.64,0,0,1-.15-.39l0-.19a.37.37,0,0,1,.08-.14l.1-.07.33-.17.72-.32.6-.29.41-.19.38-.22.72-.46.41-.27.37-.3.4-.23A.57.57,0,0,1,208,65.48Z"/><path class="cls-5" d="M207.52,58.48h.25l.16,0a.59.59,0,0,1,.16.08.81.81,0,0,1,.41.55l.07.3,0,.22a.67.67,0,0,1,0,.16l-.05.24-.12.45-.16.41-.13.32-.18.35a1.77,1.77,0,0,1-.53.64l-.23.06-.13,0-.13,0-.14-.06-.2-.14-.05-.21a.62.62,0,0,1,0-.18.42.42,0,0,1,.09-.15l.21-.28.2-.31.35-.65.12-.35a.14.14,0,0,0,0-.09.17.17,0,0,0,0-.1l-.1,0a.64.64,0,0,0-.38.14l-.32.28-.7.58-1.36,1.07-.5.35-.56.33-.42.24-.36.13-.28,0-.26,0-.15,0a.41.41,0,0,1-.17-.38v-.19a.24.24,0,0,1,0-.14l.07-.19a.68.68,0,0,1,.28-.19l.36,0,.3,0,.21,0,.44-.23.68-.45.33-.24.33-.27.43-.38.44-.37.42-.39.43-.38A1.16,1.16,0,0,1,207.52,58.48Z"/><path class="cls-5" d="M216.15,52.81a.54.54,0,0,1,.32-.11c.32,0,.48.2.48.62l0,.14a.22.22,0,0,1-.09.11,17.32,17.32,0,0,1-1.8,1.22,14.89,14.89,0,0,1-1.82.93l-.24.08a.71.71,0,0,1-.19.05c-.15,0-.27-.09-.36-.29l0-.16,0-.22c0-.16.09-.27.29-.33a10.71,10.71,0,0,0,1.44-.76l.47-.27.69-.43C215.63,53.18,215.91,53,216.15,52.81Z"/><path class="cls-5" d="M214.44,58.13h.1l.12,0,.27.22a.33.33,0,0,1,.16.3,4.18,4.18,0,0,1-.62.66l2.19-.06,0,.06.05.07a.39.39,0,0,1,.14.2c0,.18-.24.43-.72.73l-1.11.64-.8.48L213,62.3l-1.73.9-1,.44-.32.12-.33.08-.42.1a1.11,1.11,0,0,1-.36,0l-.19-.11a.65.65,0,0,1-.2-.54c0-.17.12-.3.37-.38l.37,0a3.08,3.08,0,0,0,.68-.07,3.63,3.63,0,0,0,.7-.24l.16-.06.25-.12.66-.29,3.27-1.88-2.93,0a.5.5,0,0,1-.1-.18,1.19,1.19,0,0,1,0-.32l.07-.17.21,0,.24-.1a1.85,1.85,0,0,0,.37-.19l.67-.3.47-.25a.43.43,0,0,0,.21-.21.62.62,0,0,1,.13-.19l.12,0Z"/><path class="cls-5" d="M225,53.51c0,.81-.53,1.49-1.58,2.05a2.29,2.29,0,0,1-1.08.33c-1,0-1.54-.44-1.54-1.31a2.16,2.16,0,0,1,.89-1.7,2.9,2.9,0,0,1,1.86-.73,1.47,1.47,0,0,1,.58.1,1.17,1.17,0,0,1,.46.26A1.28,1.28,0,0,1,225,53.51Zm-1,.15c0-.36-.25-.54-.76-.54a1.38,1.38,0,0,0-1,.45,1.34,1.34,0,0,0-.46,1c0,.23.15.35.46.35h.23a1.68,1.68,0,0,0,.94-.42A1.11,1.11,0,0,0,224.07,53.66Z"/><path class="cls-5" d="M223.61,58.48h.25l.16,0a.48.48,0,0,1,.16.08.81.81,0,0,1,.41.55l.07.3,0,.22a.57.57,0,0,1,0,.16l-.05.24-.12.45-.16.41-.13.32-.18.35a1.77,1.77,0,0,1-.53.64l-.23.06-.13,0-.13,0-.14-.06-.2-.14-.05-.21a.62.62,0,0,1,0-.18.42.42,0,0,1,.09-.15l.21-.28.2-.31.36-.65.12-.35a.55.55,0,0,0,0-.09.17.17,0,0,0,0-.1l-.1,0a.64.64,0,0,0-.38.14l-.32.28-.7.58-1.36,1.07-.5.35-.56.33-.42.24-.36.13-.28,0-.25,0-.16,0a.41.41,0,0,1-.17-.38v-.19a.24.24,0,0,1,0-.14l.07-.19a.68.68,0,0,1,.28-.19l.36,0,.3,0,.21,0,.44-.23.68-.45.33-.24.33-.27.43-.38.44-.37.42-.39.43-.38A1.18,1.18,0,0,1,223.61,58.48Z"/><path class="cls-5" d="M231.7,52.06,232,52l.3,0a.59.59,0,0,1,.43.11.32.32,0,0,1,.17.3.38.38,0,0,1-.15.34l-.11.08-.2.09L232,53l-1.08.49c-.57.27-.86.61-.86,1a.45.45,0,0,0,.18.34l.12,0,.17.06.38,0,.33,0,.14,0a.35.35,0,0,0,.14-.06l.17-.08a.89.89,0,0,1,.19-.07.46.46,0,0,1,.28.06l.17.22a.63.63,0,0,1,0,.28c0,.28-.32.49-.81.62l-.31.08L231,56l-.45,0-.49-.13-.24-.08-.23-.15a1.24,1.24,0,0,1-.63-1.1,1.2,1.2,0,0,1,.25-.7l.23-.3.33-.31L230,53l.33-.22.6-.37Z"/><path class="cls-5" d="M228.87,58.25l.3,0a.7.7,0,0,1,.45.26l.12.2a.43.43,0,0,0,.27.13.42.42,0,0,0,.23-.08l.2-.19.16-.13.15-.13a.35.35,0,0,1,.15-.07.88.88,0,0,1,.24,0h.12l.12.06.19.1.1,0,.06.1.12.26.08.23.07,0,.1,0a1.2,1.2,0,0,0,.47-.13l.21-.16.2-.22.1-.08a.48.48,0,0,1,.13-.09l.27-.15.22,0h.21c.06,0,.1,0,.14.1l.13.15,0,.13a.7.7,0,0,1-.18.5l-.24.29a.69.69,0,0,1-.28.2l-.31.17-.36.15-.37.11-.66.13a1.06,1.06,0,0,1-.55-.15l-.2-.17-.23-.22h-.41a1,1,0,0,0-.32,0,.43.43,0,0,0-.22.12l-.44.41-.68.55-.68.52-.2.13-.25.17-.3.18-1,.55-.74.41-.3.13L225,63l-.3.07-.33,0-.2,0-.24-.09a.59.59,0,0,1-.29-.6.46.46,0,0,1,.28-.43l.21,0h.75a2,2,0,0,0,.65-.25l.67-.35.77-.41.7-.46.53-.42.13-.16a.33.33,0,0,0,.05-.15l-.25-.47,0-.23v-.12c0-.06,0-.1,0-.12l.13-.18A.93.93,0,0,1,228.87,58.25Z"/></g><g class="cls-4"><path class="cls-5" d="M298.79,41.71H299l.18,0,.49.08.52.15.36.16a.84.84,0,0,1,.48.68l0,.25-.13.22-.14.2-.36.3-1.25.83-1.16.6-.48.22-.44.09a.53.53,0,0,1-.33-.14l-.09-.17,0-.2,0-.21a.51.51,0,0,1,.17-.19l.4-.2.76-.33,1-.5.4-.22.3-.21.06-.13c0-.18-.25-.28-.76-.28l-.51,0-.61.21c-.43,0-.64-.18-.64-.53a.4.4,0,0,1,.1-.3.76.76,0,0,1,.34-.21l.6-.2Zm4.31,0a3.13,3.13,0,0,1,.83.13.82.82,0,0,1,.25.07l.18.09.37.25a.79.79,0,0,1,.25.27.76.76,0,0,1,.09.38l-.05.14-.09.16-.18.22-.19.21-.18.21-.25.2-.69.55-.68.47-.61.35-.27.07-.29,0-.22,0a.33.33,0,0,1-.18-.1l-.09-.19a.26.26,0,0,0,0-.14.35.35,0,0,1,.12-.24l.22-.12.28-.13.42-.2.72-.39.54-.44.3-.26a.83.83,0,0,0,.12-.24.26.26,0,0,0-.19-.27l-.43,0-.27,0-.2.05-.22.09-.17.05-.14,0-.38,0-.16-.07-.06,0-.09-.08a1.54,1.54,0,0,1-.07-.24l0-.14a.39.39,0,0,1,.1-.16,1.36,1.36,0,0,1,.27-.19L302,42l.19-.05a1.73,1.73,0,0,1,.43-.12l.32,0Z"/><path class="cls-5" d="M303.55,47.58h.17a.25.25,0,0,1,.13,0,.62.62,0,0,1,.28.31l0,.29a.37.37,0,0,1-.13.34l-.57.24.27.27a.84.84,0,0,1,.27.62V50s0,.07,0,.09a.21.21,0,0,1,0,.1,1.44,1.44,0,0,1-.75,1l-.41.23-.29.09-.35,0h-.35l-.36,0-.68-.16-.12-.08-.45.38-.21.19-.27.2-.58.43-.25.16-.45.28-.41.24-.84.47-.17.07-.19.1-.34.18-.34.06a.81.81,0,0,1-.72-.41l0-.1-.05-.23a.38.38,0,0,1,.12-.32l.15-.12.12-.06h.73a1.21,1.21,0,0,0,.54-.14l.94-.5.32-.21.54-.35.35-.25.23-.24.19-.15.2-.22-.14-.26,0-.17,0-.17c0-.17.15-.31.38-.44l.29-.06h.2l.26.12A.45.45,0,0,1,301,50l0,.23.08.06.24.16.25.1.33,0,.21,0,.18-.06a1.47,1.47,0,0,0,.45-.29l.12-.18.06-.17a.56.56,0,0,0-.08-.3l-.14-.15-.19-.12-.18-.12L302,49l-.34-.24-.06-.13,0-.17a.22.22,0,0,1,.11-.21l.32-.14h.26l.32,0,.22-.1.19-.13.19-.11.2-.09Z"/><path class="cls-5" d="M312.13,42.47a.56.56,0,0,1,.32-.11c.31,0,.47.2.47.62l0,.14a.29.29,0,0,1-.09.11,19.2,19.2,0,0,1-1.8,1.23,16.35,16.35,0,0,1-1.82.92l-.24.08-.19.06a.42.42,0,0,1-.37-.3l0-.16,0-.22c0-.15.1-.26.3-.32a12.32,12.32,0,0,0,1.43-.77l.47-.27.7-.43C311.61,42.84,311.89,42.65,312.13,42.47Z"/><path class="cls-5" d="M305.33,52.75a.94.94,0,0,1-.58-.15.59.59,0,0,1-.19-.48V52a.32.32,0,0,1,.17-.27,1.07,1.07,0,0,1,.37-.12,3.2,3.2,0,0,0,1.17-.27l1-.54a1.81,1.81,0,0,0,.54-.29l.64-.45.27-.16.28-.24-.13-.11-.23-.27-.11-.22v-.22a.77.77,0,0,1,.08-.23l.16-.14a.76.76,0,0,1,.43-.18,1.46,1.46,0,0,1,.57.18l.18.1.22.14.65-.34.77-.43.41-.18a3.2,3.2,0,0,1,.81-.24.78.78,0,0,1,.38.12c.09,0,.14.17.16.35v.14a.44.44,0,0,1-.16.22l-.27.18-.16.07-.44.2-.41.17-.65.19-.34.09.52.25.4.21.2.19.06.07V50a.43.43,0,0,1,0,.14l-.05.13a.34.34,0,0,1-.18.19l-.21.1-.28,0a.32.32,0,0,1-.16,0l-1.05-.54-.37.23-.37.28-.51.3-.72.45-1.3.75-.52.29-.51.25-.27.09Z"/><path class="cls-5" d="M320.93,42.47a.62.62,0,0,1,.33-.11c.31,0,.46.2.46.62l0,.14a.26.26,0,0,1-.08.11,19.31,19.31,0,0,1-1.81,1.23,16.35,16.35,0,0,1-1.82.92l-.24.08-.19.06q-.22,0-.36-.3l0-.16,0-.22c0-.15.09-.26.29-.32a11.33,11.33,0,0,0,1.44-.77l.47-.27.69-.43C320.41,42.84,320.69,42.65,320.93,42.47Z"/><path class="cls-5" d="M318.52,47.92h.22l.19,0h.17l.17,0a1,1,0,0,1,.38.07l.41.1c.49.11.73.33.73.65a.84.84,0,0,1-.14.45c-.06.08-.11.17-.18.25a2.88,2.88,0,0,1-.25.26l-.37.34-.44.36-.38.27-.58.39a13.37,13.37,0,0,1-1.7.94l-.71.35-.34.12-.42.14-.31,0-.22,0-.13-.07-.19-.14-.12-.24,0-.09c0-.3.1-.47.3-.5l.31,0h.29l.31,0,.2,0,.22-.06a1.77,1.77,0,0,0,.28-.11l.36-.19.59-.29.28-.13c.1-.05.26-.13.46-.25l.51-.28.3-.2.18-.14.25-.21a1.72,1.72,0,0,0,.33-.33l.09-.1,0,0a.14.14,0,0,0,0-.09l-.15-.07-.14,0-.32,0-.26,0-.15,0-.54.08-.08,0-.15.07-.17.07-.12.05h-.2l-.2,0-.24,0a.49.49,0,0,1-.33-.42.64.64,0,0,1,.08-.36,1,1,0,0,1,.33-.23l.28-.09.29-.1Z"/><path class="cls-5" d="M328.61,55.14a.38.38,0,0,1,.39.25l0,.2,0,.13a.17.17,0,0,1-.06.14l-.15.19-.12.06-.23.11-.25.12-.45.42-.4.29-.71.45-.63.38-.36.21a2.86,2.86,0,0,1-.41.2l-.7.27-.26.07a.53.53,0,0,1-.37-.17.64.64,0,0,1-.15-.39l0-.19a.37.37,0,0,1,.08-.14l.1-.06.33-.18.72-.32.6-.29.41-.19.38-.22.72-.46.41-.27.37-.29.4-.23A.48.48,0,0,1,328.61,55.14Z"/><path class="cls-5" d="M322.41,52.75a.92.92,0,0,1-.58-.15.57.57,0,0,1-.19-.48V52a.3.3,0,0,1,.17-.27,1.07,1.07,0,0,1,.37-.12,3.08,3.08,0,0,0,1.16-.27l1-.54a1.73,1.73,0,0,0,.55-.29l.64-.45.27-.16.27-.24-.13-.11-.23-.27-.1-.22v-.22a.77.77,0,0,1,.08-.23l.16-.14a.74.74,0,0,1,.43-.18,1.37,1.37,0,0,1,.56.18l.18.1.23.14.65-.34.77-.43.41-.18a3.09,3.09,0,0,1,.81-.24.83.83,0,0,1,.38.12.46.46,0,0,1,.15.35v.14a.48.48,0,0,1-.15.22l-.28.18-.15.07-.45.2-.41.17-.65.19-.33.09.52.25.39.21.21.19.05.07V50a.39.39,0,0,1,0,.14l-.05.13a.35.35,0,0,1-.19.19l-.21.1-.27,0a.37.37,0,0,1-.17,0l-1.05-.54-.37.23-.37.28-.5.3-.72.45-1.3.75-.52.29-.51.25-.27.09Z"/><path class="cls-5" d="M338,55.14a.38.38,0,0,1,.39.25l0,.2,0,.13a.17.17,0,0,1-.06.14l-.15.19-.12.06-.23.11-.25.12-.45.42-.4.29-.71.45-.63.38-.35.21a3.44,3.44,0,0,1-.42.2l-.7.27-.25.07a.53.53,0,0,1-.38-.17.64.64,0,0,1-.15-.39l0-.19a.37.37,0,0,1,.08-.14l.1-.06.33-.18.72-.32.6-.29.41-.19.38-.22.72-.46.41-.27.37-.29.4-.23A.5.5,0,0,1,338,55.14Z"/><path class="cls-5" d="M337.18,48l.18-.12.18,0,.28,0a.29.29,0,0,1,.17.17l.05.2a.49.49,0,0,1-.05.25l-.24.21-.32.34-.21.15-.16.13-1.26.79-1.3.74-.63.32-.62.26-.64.25a2.09,2.09,0,0,1-.63.11,1,1,0,0,1-.54-.18l-.19-.16a.23.23,0,0,1-.05-.1l0-.14V51.1a.29.29,0,0,1,0-.12.5.5,0,0,1,.26-.29l.25-.1.23,0,.4,0h.13a2.38,2.38,0,0,0,1-.24l.69-.34,1.55-.9,1.11-.72Z"/></g><g class="cls-4"><path class="cls-5" d="M231.12,22.63h.23l.17,0,.49.08.52.15.36.16a.81.81,0,0,1,.48.68l0,.24-.13.23-.14.19-.36.3-1.25.84-1.16.6-.48.22-.43.08a.52.52,0,0,1-.34-.13l-.09-.17,0-.2.05-.21s.06-.11.16-.19l.4-.2.76-.33,1-.5.4-.22.3-.21.06-.13c0-.19-.25-.28-.76-.28l-.51,0-.61.21c-.43,0-.64-.18-.64-.53a.41.41,0,0,1,.1-.31,1,1,0,0,1,.34-.21l.6-.19Zm4.31.05a3.07,3.07,0,0,1,.83.13.82.82,0,0,1,.25.07l.18.09.37.25a.79.79,0,0,1,.25.27.74.74,0,0,1,.09.38l-.05.13-.09.17-.19.22-.18.21-.18.21-.25.2-.69.55-.68.47-.61.34-.27.07-.29,0-.22,0a.33.33,0,0,1-.18-.1l-.09-.19a.26.26,0,0,0,0-.14.31.31,0,0,1,.12-.24l.22-.12.28-.13.42-.2.72-.4.54-.43.3-.26a.51.51,0,0,0,.12-.24.26.26,0,0,0-.19-.27l-.43,0-.27,0-.2.05-.22.09-.17.05-.14,0-.38,0-.15-.08s0,0-.07,0l-.09-.07a1.54,1.54,0,0,1-.07-.24l0-.14a.54.54,0,0,1,.1-.16,1.36,1.36,0,0,1,.27-.19l.19-.09.19-.05a1.73,1.73,0,0,1,.43-.12l.32,0Z"/><path class="cls-5" d="M235.88,28.51h.17l.13,0a.64.64,0,0,1,.28.32l0,.29c0,.17,0,.28-.13.33l-.57.24.28.28a.87.87,0,0,1,.26.61v.28s0,.06,0,.09a.26.26,0,0,1,0,.1,1.41,1.41,0,0,1-.75,1l-.41.22-.29.1-.35,0h-.35l-.36,0-.68-.17-.12-.07-.45.37-.21.19-.27.21-.58.42-.25.16-.44.28-.41.25-.84.47-.18.07-.19.1-.34.18-.34.06a.81.81,0,0,1-.72-.41l0-.11-.05-.22a.4.4,0,0,1,.11-.32l.16-.12.12-.07h.73a1.19,1.19,0,0,0,.54-.13l.94-.5.32-.21.54-.36.35-.25.23-.23.19-.15.2-.22-.14-.26,0-.17,0-.17a.66.66,0,0,1,.38-.44l.29-.06h.2l.26.12a.47.47,0,0,1,.25.27l0,.23.08.07.24.16.25.1.33,0,.21,0,.18-.07a1.17,1.17,0,0,0,.45-.29l.12-.18.06-.16a.56.56,0,0,0-.08-.3l-.14-.15-.19-.12-.18-.12-.36-.17-.34-.24-.06-.13,0-.17a.22.22,0,0,1,.11-.21l.32-.15h.58l.22-.1.19-.14.19-.1.2-.09Z"/><path class="cls-5" d="M244.41,36.07a.38.38,0,0,1,.39.25l0,.19,0,.14a.18.18,0,0,1-.06.14l-.15.19-.12.05-.23.12-.25.12-.44.42-.41.29-.71.45-.62.38-.36.2a2.27,2.27,0,0,1-.42.21l-.7.27-.25.07a.55.55,0,0,1-.38-.17.62.62,0,0,1-.14-.39l0-.19a.28.28,0,0,1,.09-.14l.09-.07.33-.17.72-.32.6-.29.41-.19.38-.22.72-.46.41-.27.37-.3.4-.23A.6.6,0,0,1,244.41,36.07Z"/><path class="cls-5" d="M244,29.07h.25l.16,0a.48.48,0,0,1,.16.08.81.81,0,0,1,.41.55l.07.3,0,.22a.57.57,0,0,1,0,.16l-.05.24-.12.44-.16.42-.13.32-.18.35a1.75,1.75,0,0,1-.52.64l-.24.06-.12,0-.14,0-.14-.06-.19-.14-.06-.22a.59.59,0,0,1,0-.17.42.42,0,0,1,.09-.15l.21-.28.21-.31.35-.65.12-.35a.55.55,0,0,0,0-.09.23.23,0,0,0,0-.11l-.09,0a.67.67,0,0,0-.39.14l-.32.28-.7.58L241.1,32.4l-.5.35-.55.33-.43.24-.36.13-.28,0-.25,0-.16-.06a.38.38,0,0,1-.17-.37v-.19a.22.22,0,0,1,0-.14l.07-.19a.68.68,0,0,1,.28-.19l.36,0h.3l.21-.05.44-.23.68-.45.33-.24.33-.27.43-.38.44-.37.42-.39.43-.38A1.2,1.2,0,0,1,244,29.07Z"/><path class="cls-5" d="M252.59,23.4a.56.56,0,0,1,.33-.12c.31,0,.47.21.47.63l0,.14a.19.19,0,0,1-.08.1,15.24,15.24,0,0,1-1.81,1.23,14.2,14.2,0,0,1-1.82.93l-.24.08-.18.05c-.16,0-.28-.09-.37-.29l0-.16,0-.23c0-.15.1-.26.29-.32a10.71,10.71,0,0,0,1.44-.76l.47-.28.69-.42C252.07,23.77,252.35,23.58,252.59,23.4Z"/><path class="cls-5" d="M252.37,30.33q0,.66-1.29,1.53l-1.57,1.06-.67.4a6,6,0,0,1-2.37,1c-.55,0-.82-.21-.82-.64a.55.55,0,0,1,.29-.5.66.66,0,0,1,.41-.08h.08l.12.05.14.07.08,0H247l.17,0,.26-.09.72-.37.28-.15c.1-.06.27-.16.49-.31l.28-.19c-.59-.27-.89-.6-.89-1a1.65,1.65,0,0,1,.64-1.3l.29-.2.31-.22a2.78,2.78,0,0,1,1.31-.34,1.83,1.83,0,0,1,1.21.46A1,1,0,0,1,252.37,30.33Zm-1.08-.12c-.08-.14-.3-.2-.65-.2a1.7,1.7,0,0,0-1,.46l-.14.15-.14.22-.06.19c0,.11.08.22.24.32a.51.51,0,0,0,.19.06l.15,0,.27-.07.46-.23c.47-.31.7-.56.7-.75A.2.2,0,0,0,251.29,30.21Z"/><path class="cls-5" d="M259.37,21.85l.17-.1a.48.48,0,0,1,.18,0c.3,0,.46.2.46.62a.32.32,0,0,1-.11.26c-.65.48-1.29.92-1.93,1.3-.3.18-.59.33-.87.47s-.56.27-.84.38l-.41.13a.49.49,0,0,1-.22-.06.83.83,0,0,1-.15-.22l0-.12V24.3a.2.2,0,0,1,0-.09.38.38,0,0,1,.1-.23l.07-.1.13-.07a4.74,4.74,0,0,0,1.46-.66A13.05,13.05,0,0,0,259.37,21.85Zm1,1.69a.56.56,0,0,1,.33-.12c.31,0,.47.21.47.63a.52.52,0,0,1,0,.14.41.41,0,0,1-.09.1,15.24,15.24,0,0,1-1.81,1.23,13.41,13.41,0,0,1-1.81.92l-.24.09-.19,0a.42.42,0,0,1-.37-.28l0-.17,0-.22c0-.15.09-.26.28-.33a11.23,11.23,0,0,0,1.45-.76c.15-.1.31-.19.47-.28s.47-.28.69-.43S260.09,23.72,260.33,23.54Z"/><path class="cls-5" d="M257.32,28.84l.31,0a.7.7,0,0,1,.44.26l.12.2a.43.43,0,0,0,.28.13.42.42,0,0,0,.22-.08l.2-.19.16-.13.15-.13a.34.34,0,0,1,.16-.07.78.78,0,0,1,.24,0h.12l.12.06.18.1.1,0,.07.1.11.26.08.23.07,0,.11,0a1.24,1.24,0,0,0,.47-.13l.2-.16.21-.22.09-.08a.48.48,0,0,1,.13-.09l.27-.15.23,0h.2a.15.15,0,0,1,.14.1l.13.15.05.13a.7.7,0,0,1-.18.5l-.24.29a.71.71,0,0,1-.27.2l-.31.17-.37.15-.37.11-.66.13a1.06,1.06,0,0,1-.55-.15l-.2-.17-.22-.22h-.42a1,1,0,0,0-.32,0,.4.4,0,0,0-.21.12l-.45.41-.68.55-.68.52-.19.13-.26.17-.3.18-1,.55-.75.41-.3.13-.34.12-.3.07-.33,0-.2,0-.24-.09a.61.61,0,0,1-.29-.6.45.45,0,0,1,.28-.43l.21,0h.16l.59,0a1.81,1.81,0,0,0,.65-.25l.67-.35.77-.41.7-.46.53-.42.13-.16a.25.25,0,0,0,.05-.15l-.25-.47,0-.23v-.12a.29.29,0,0,1,0-.12l.13-.18A1,1,0,0,1,257.32,28.84Z"/></g></g></g></g></svg>