<svg xmlns="http://www.w3.org/2000/svg" viewBox="0 0 257.59 234.5"><defs><style>.cls-1{fill:#383838;}.cls-2{fill:#f1f2f2;}.cls-3,.cls-5,.cls-6{fill:none;}.cls-3{stroke:#6f2081;stroke-width:1.4px;}.cls-4{fill:#396287;fill-rule:evenodd;}.cls-6{stroke:#1a1a18;stroke-miterlimit:22.93;stroke-width:0.62px;stroke-dasharray:5.62 2.81;}</style></defs><title>L</title><g id="Layer_2" data-name="Layer 2"><g id="Layer_1-2" data-name="Layer 1"><g id="O2"><path class="cls-1" d="M180.84,68.9a3.73,3.73,0,0,0,.55,2.25,1.64,1.64,0,0,0,1.36.73,1.57,1.57,0,0,0,1.31-.74,4.9,4.9,0,0,0,0-4.47,1.66,1.66,0,0,0-1.37-.73,1.57,1.57,0,0,0-1.3.73,3.72,3.72,0,0,0-.55,2.23Zm-1.1,0a4.7,4.7,0,0,1,.84-3,2.66,2.66,0,0,1,2.14-1,2.68,2.68,0,0,1,2.14,1,4.55,4.55,0,0,1,.85,2.95,4.84,4.84,0,0,1-.84,3.12,2.65,2.65,0,0,1-2.15,1,2.68,2.68,0,0,1-2.13-1A4.67,4.67,0,0,1,179.74,68.9Zm-6.48,0a3.73,3.73,0,0,0,.55,2.25,1.64,1.64,0,0,0,1.36.73,1.59,1.59,0,0,0,1.31-.74A3.79,3.79,0,0,0,177,68.9a3.7,3.7,0,0,0-.55-2.23,1.64,1.64,0,0,0-1.36-.73,1.59,1.59,0,0,0-1.31.73A3.8,3.8,0,0,0,173.26,68.9Zm-1.11,0a4.64,4.64,0,0,1,.85-3,2.73,2.73,0,0,1,4.27,0,4.49,4.49,0,0,1,.86,2.95,4.78,4.78,0,0,1-.85,3.12,2.63,2.63,0,0,1-2.14,1,2.68,2.68,0,0,1-2.13-1A4.67,4.67,0,0,1,172.15,68.9Zm-6.46,0a3.94,3.94,0,0,0,.52,2.24,1.49,1.49,0,0,0,1.22.73,1.46,1.46,0,0,0,1.2-.7,3.68,3.68,0,0,0,.5-2.12,4.48,4.48,0,0,0-.5-2.39,1.51,1.51,0,0,0-1.28-.74,1.41,1.41,0,0,0-1.17.72A4.14,4.14,0,0,0,165.69,68.91Zm3.42,3.88v-1a2.21,2.21,0,0,1-.76.86,1.79,1.79,0,0,1-1,.3,2.42,2.42,0,0,1-2-1.07,4.8,4.8,0,0,1-.82-3,6.19,6.19,0,0,1,.36-2.24,3,3,0,0,1,1-1.37,2.24,2.24,0,0,1,1.35-.45,2,2,0,0,1,1,.28,2.47,2.47,0,0,1,.75.79V62.07h1.09V72.79Zm-11.72,0V65h1v1.11a2.51,2.51,0,0,1,.87-1,2.12,2.12,0,0,1,1.16-.32,2.31,2.31,0,0,1,1,.2,2,2,0,0,1,.7.53,2.17,2.17,0,0,1,.4.85,6.9,6.9,0,0,1,.13,1.59v4.78h-1.08V68.06a3.83,3.83,0,0,0-.15-1.25,1.18,1.18,0,0,0-1.18-.82,1.5,1.5,0,0,0-1.23.57,3.25,3.25,0,0,0-.47,2v4.24Zm-3.4,0V71.65a2.74,2.74,0,0,1-.88,1A2.07,2.07,0,0,1,152,73a2,2,0,0,1-1.28-.41,1.92,1.92,0,0,1-.72-1,6.4,6.4,0,0,1-.17-1.7V65h1.07v4.31a6.72,6.72,0,0,0,.12,1.6,1.25,1.25,0,0,0,1.19.9,1.52,1.52,0,0,0,1.27-.64,3.36,3.36,0,0,0,.43-2V65H155v7.77Zm-15.05,0V62.07h1.75l2.09,7.59.42,1.59c.1-.4.26-1,.46-1.72l2.11-7.46h1.57V72.79h-1.12v-9l-2.56,9h-1l-2.54-9.13v9.13Z"/><path class="cls-2" d="M196.57,104.33a2.07,2.07,0,1,1-2.06-2.06,2.07,2.07,0,0,1,2.06,2.06Z"/><path class="cls-3" d="M196.57,104.33a2.07,2.07,0,1,1-2.06-2.06A2.07,2.07,0,0,1,196.57,104.33Z"/><path class="cls-2" d="M195.87,97.31a2.07,2.07,0,1,1-2.07-2.07,2.07,2.07,0,0,1,2.07,2.07Z"/><path class="cls-3" d="M195.87,97.31a2.07,2.07,0,1,1-2.07-2.07A2.07,2.07,0,0,1,195.87,97.31Z"/><path class="cls-2" d="M197.56,117.88c-1.21,1.66-2.31,3.29-3.32,4.89v0h0c-.19.28-.36.56-.53.84a113.72,113.72,0,0,0-8.88,17.62L144.26,109h0l-.7-.57-.25-.22h0l-.59-.48h0l-.81-.67-1.41-1.1-1.09-.9-1.66-1.32-3.32-2.64L98.69,72.67l-1.77-1.4-1.77-1.43L94.08,69q1.35-.88,2.61-1.77l.59-.42.88-.64c.22-.17.47-.34.7-.54A8.21,8.21,0,0,0,99.7,65a2.89,2.89,0,0,0,.62-.48c.2-.14.39-.28.59-.45l4.41-3.71,4.92-3.23,9.07-6.41a84.45,84.45,0,0,1,10.42-7.05l5,1.72,51.56,17.53c-.28,1.71-.51,3.4-.67,5.06v0c-.12,1-.2,2-.29,3l0,.06,1.94,4c2.11,7.62,3.26,13.91,4.64,21.47.05.28.11.59.17.9l.16.56.4,1.18,1.07,3.37,1.23,3.93.17.51.06.2.19.92Z"/><path class="cls-4" d="M95.71,69.86a5,5,0,0,0-.56,0c-.73,0-1.57,0-2.39,0L94.08,69l-2.81-2.24a8.11,8.11,0,0,0,1.35-1.94,3.74,3.74,0,0,1,2.84-.76.87.87,0,0,1,.28,0h0a8.52,8.52,0,0,1,1,.31,4.16,4.16,0,0,1,1.35,1.8C98.69,67.59,97.59,68.8,95.71,69.86Z"/><path class="cls-4" d="M129.73,43.62l5,1.72A7.44,7.44,0,0,1,130,46c-5.14,3.54-9.6,4-12.95,7.19-7.7,3-13.2,10.43-14,10.68-2.16,2.75-2,5-3,7.36a5.5,5.5,0,0,1-1.35,1.4l-1.77-1.4a3.24,3.24,0,0,1,.11-.45c1.63-2.47,1.91-4,1.83-5.2-.14-1.88-1.29-2.61.7-4.21,2.42-.42,4.8-2,7.64-4.67A114.36,114.36,0,0,1,127.74,43Z"/><path class="cls-4" d="M189.14,67.19c1.47-2.63,2.92-3,4.33-.19a83.42,83.42,0,0,1,2.28,14.5,46.08,46.08,0,0,1,2.12,17.14c-.06,1.26.76,2.23.78,3.5.11,4.88-4.86,6.08-5.72,4-.71-4-.45-5.71-.75-11.54-.66-5.12-1.46-10.36-1.78-15.72,0-3.91-1.75-8.78-1.26-11.72Z"/><path class="cls-4" d="M194.7,116.41c1.39-2.52-2.41-6.94,1.77-9.22v-.14c1.86,0,3.31,3.31,3.95,3.3a1.11,1.11,0,0,0,.28.69c.56,0,.72,2.23.87,2.64,1,3-2.85,6-2.82,8.82-.56,0-1.78,2.67-1.77,2.94-.36,0-2,4-2,4.31-.92,1.73-1.14,6.14-2.61,7.64-.22,1.63-1.89,3.85-3.19,3.86-.7-.09-1,.05-1.06-.78,0-.34,1.2-1.66,1.52-2.11h.13a22.83,22.83,0,0,1,1.44-2.87c.9-3.39,2.21-8.05,3-12.1.33-1.76-.57-4.65.53-7Z"/><path class="cls-4" d="M192.54,79.47c.42.13.4.27.45.89s-.14,1-.43.91-.27-.27-.46-.9,0-1,.44-.9Z"/><path class="cls-4" d="M193.35,86c.39-.18.71.28.69.94s-.19,1.2-.52,1.2-.59-.62-.6-1.18,0-.8.43-1Z"/><path class="cls-4" d="M192.44,82.27c.62-.35.75-.58,1.64-.48a4.93,4.93,0,0,1,1,1.4c-.18.28-.56.26-1.27.33a1.82,1.82,0,0,1-.53.89c-.68.23-.79-.07-.93-.47-.39-.56-.16-1.11.07-1.67Z"/><path class="cls-4" d="M194.14,94a32.15,32.15,0,0,0-.68-4c0-.6.26-.68.8-.22a3.6,3.6,0,0,0,2.5,2.14c.06,1.07-.84,1.64-1,2.91-.12.66,0,1,.44,1,.67.55.66,1,0,1.41a1.73,1.73,0,0,1-1.84-.45,6.22,6.22,0,0,1-.21-2.85Z"/><path class="cls-4" d="M194.92,98.7a7.22,7.22,0,0,0,1.27-.52c.24-.23.21-.42-.08-.56a3.81,3.81,0,0,0-1.49.28c-.46.44-.13.64.3.8Z"/><path class="cls-4" d="M196.65,99.11c.39.17.45.29.46.66s-.2.56-.44.57-.22.07-.45-.56.05-.83.43-.67Z"/><path class="cls-4" d="M195.21,101.26c.36.18.43.38.43.84s-.17.83-.41.83-.28-.09-.43-.81.06-1.05.41-.86Z"/><path class="cls-4" d="M195.36,104.41c.24,0,.45.45.46,1s-.19,1-.44,1-.45-.45-.46-1,.19-1,.44-1Z"/><polygon class="cls-4" points="102.72 61.18 106.44 58.57 106.69 58.99 103.14 61.66 102.72 61.18"/><polygon class="cls-4" points="99.66 64.62 100.31 64.43 100.52 66.04 99.8 66.35 99.66 64.62"/><polygon class="cls-4" points="95.58 66.34 96.58 66.03 97.37 66.67 97.01 67.28 95.7 66.99 95.58 66.34"/><path class="cls-4" d="M159.62,71.79c.47,0,.49.4.74.59s1.22.05.72.72-.23.77-1,.78-1.36-.18-1.23-.84-.24-1.24.78-1.25Z"/><path class="cls-4" d="M157.49,84.37c.47,0,1.1-.53,1.36-.36a1.28,1.28,0,0,1,.1,1.68c-.55.71-.58.75-1,.78s-.78-.14-1.22-.84-.23-1.24.78-1.26Z"/><path class="cls-4" d="M156.87,95.28c.53-.09.89-.24,1.07-.12s.65.76.31,1.22-.67.74-1,.76-.84-.44-1-.85a.76.76,0,0,1,.57-1Z"/><path class="cls-4" d="M179.24,83.84a1,1,0,1,1,0,2,1,1,0,1,1,0-2Z"/><path class="cls-4" d="M182.48,83.65a1.13,1.13,0,0,1,1.2,1,1.21,1.21,0,0,1-2.39,0,1.13,1.13,0,0,1,1.19-1Z"/><polygon class="cls-4" points="95.6 63.56 95.82 64.28 96.46 64.29 95.96 64.76 96.15 65.48 95.61 65.06 95.09 65.49 95.26 64.77 94.75 64.32 95.39 64.28 95.6 63.56"/><path class="cls-4" d="M130.85,80.15c.77.06,1,.51,1,1.14a1.07,1.07,0,0,1-1,1.16c-.53,0-.73-.44-1-1.13s.18-1.22,1-1.17Z"/><path class="cls-4" d="M140.36,81.41c.36-.69.85-.69,1.44-.44a1.06,1.06,0,0,1,.68,1.33c-.2.5-.7.5-1.43.46s-1-.65-.69-1.35Z"/><path class="cls-4" d="M131.07,88.52c.35-.7.85-.7,1.43-.45s.8.58.59,1.07a1.19,1.19,0,0,1-1.34.72c-.73,0-1-.65-.68-1.34Z"/><path class="cls-4" d="M150.73,109.49a1,1,0,0,1,.88.92c0,.44-.58.8-1,.81a.82.82,0,0,1-.83-.79,1.1,1.1,0,0,1,1-.94Z"/></g><g id="O3"><path class="cls-2" d="M184.8,141.26c-2.3,5.64-4.3,11.23-6.63,17.05l-14.61,15.54-4.72,2.72-1.26.4L141,108l.79-1Z"/><path class="cls-4" d="M189.8,149c-.81-.08-1.57,0-2.16-1a2.37,2.37,0,0,0-.48-1.21,1.06,1.06,0,0,1-.64-.56,22.77,22.77,0,0,1,1-2.81l2.42,1.94a4.44,4.44,0,0,0-.34,2.14,3.27,3.27,0,0,0,.87.87C190.84,149.12,190.39,149.09,189.8,149Z"/><path class="cls-4" d="M185.09,147.65c.16-.94.66-.74,1.34,0a2.32,2.32,0,0,1,.49,2.24,11.67,11.67,0,0,0-.79,2c.1.48.48,1.05.26,1.6l-.93,2.39c.38,1.21-.17,1.08-.85.76-1.27-.81-2.38.21-2.52-.83a25.18,25.18,0,0,0,2.23-4.54,22.82,22.82,0,0,0,.77-3.62Z"/><path class="cls-4" d="M178.48,158.15c.41-.52.64-.45.7.21a12.38,12.38,0,0,0-.36,3.06c-.13,1.61-2.77,4.13-4.39,6a64.69,64.69,0,0,1-5.77,4.93,3.63,3.63,0,0,1-2.77-.08c-.67-.48-.86-.93,0-1.33l3.67-1.92a34,34,0,0,0,7-7.45c.66-1.11,1.23-2.29,1.89-3.41Z"/><path class="cls-4" d="M155.77,148.14c.87.08-.1-.31.9,0,.34.11,1.13-.3,1.15.54s-.13,1.3-.24,1.24-.25.35-1.52,0-1.17-1.86-.29-1.78Z"/><path class="cls-5" d="M183.88,157.38a.46.46,0,0,1,0,.92.46.46,0,0,1,0-.92"/><path class="cls-5" d="M181.51,156.28a.44.44,0,0,1,.41.45.46.46,0,0,1-.4.48.45.45,0,0,1-.41-.47.44.44,0,0,1,.4-.46"/><path class="cls-4" d="M154.8,149.78a1.2,1.2,0,0,1,1.2,1.05c0,.52-.8,1-1.42,1a1.06,1.06,0,0,1-1.15-.93c0-.52.74-1.08,1.37-1.08Z"/><path class="cls-4" d="M153.21,135c.62,0,1.2.85,1.2,1.37s-.79,1-1.42,1a1,1,0,0,1-1.14-.94,1.7,1.7,0,0,1,1.36-1.39Z"/><path class="cls-4" d="M153.22,124.64c.58,0,1.12.77,1.13,1.26s-.75.9-1.32.9a1,1,0,0,1-1.06-.87,1.55,1.55,0,0,1,1.25-1.29Z"/><path class="cls-4" d="M157,124.22a1.16,1.16,0,0,1,1.12,1c0,.49-.74.89-1.32.9a1,1,0,0,1-1.06-.87c0-.48.69-1,1.26-1Z"/><path class="cls-4" d="M150.08,139.73c.62,0,1.69.77,1.7,1.29s-.8,1-1.43,1a1.07,1.07,0,0,1-1.14-.94c0-.53.24-1.32.87-1.33Z"/></g><g id="O1"><path class="cls-2" d="M212,14.21l-14.78,24.3L193,43.9c-3.4,4.75-5.48,11.94-6.63,19L129.73,43.62c3.1-1.8,6.13-3.28,9.08-4.63l9.05-3.23,2-3.07,18.51-3.59,4.84-4.44,7.67-6.07c6.88-2.87,15.87-6.86,23.88-7.33l6.38.31Z"/><path class="cls-4" d="M218.49,7.6h-.11c0,.23.14,1.16-.23,1.16a1.84,1.84,0,0,1-.11.7l0,0a1.64,1.64,0,0,1-.36.5,1.31,1.31,0,0,1-.37.26,3,3,0,0,1-.48.22c-.11,0-.22.08-.36.11l-.7.2-.68.17a1,1,0,0,0-.31.11.91.91,0,0,0-.39.17,1.1,1.1,0,0,0-.37.25.7.7,0,0,1-.22.17,3.48,3.48,0,0,1-.84.39,5,5,0,0,1-.76.31l-.68.28a2,2,0,0,0-.42.23V13a7.4,7.4,0,0,0-3.76,3.18l-.31.28c-.45.19-2.14,2.47-2.84,2.52-2.08.59-1.83-.14-1.85-1.09,0-.45.81-2.16-.28-3v0a1.41,1.41,0,0,0-.2-.45,2.25,2.25,0,0,0-.31-.37,3,3,0,0,0-.25-.25c-.09-.06-.14-.14-.23-.2a1.94,1.94,0,0,1-.31-.42c-.14-.34,0-.67,1-1.21.45-.11,1.09-.22,1.88-.36l1.32-.26a.15.15,0,0,1,.09,0l1.88-.37c.64-.14,1.35-.31,2-.5s1.38-.4,2.08-.65c0,0,.08,0,.14-.06a8.17,8.17,0,0,0,1.07-.39c.39-.14.75-.28,1.12-.45a5.19,5.19,0,0,0,1.12-.67l.45-.34.42-.42a2.49,2.49,0,0,0,.45-.51.06.06,0,0,0,.06-.05s.06-.06.06-.09h0a9.35,9.35,0,0,0,1.21-2c.37,0,.48-.53,1.35-.25l.06.14A3.79,3.79,0,0,1,218.49,7.6Z"/><path class="cls-4" d="M197.78,26.57c-.59.42-1.57,4.8-2.72,4.13-.28-.17,1.77-3.18,1.71-4.55a16,16,0,0,1,0-3.46l0-1.4h.06c0-.14,0-.06,0-.14a2,2,0,0,1,.62-.17c.28.31.9.64,1.07,1C199.19,23.42,197.78,25.3,197.78,26.57Z"/><path class="cls-4" d="M197.36,32.58c0,1-1.85,1.6-2.7,1.63a.4.4,0,0,0-.22-.22c-.31-.28-.25-2.48.36-2.48l-.16.12A7.92,7.92,0,0,1,197.36,32.58Z"/><path class="cls-4" d="M192.81,29.52c-.14.42-.9,1-1,1.46-.48,2,0,4.24-.62,6.15-.25,0-.34.51-.65.51-.73-.7-.47-1-.25-1.83.45-1.66-.45-6.94-2.75-8.12a1.74,1.74,0,0,1-.62-1.09c.81-.23,1.52,0,2.14-.09,2.21-.45,3.31-1.94,4-1.26A5,5,0,0,1,192.81,29.52Z"/><path class="cls-4" d="M218,9.49a.9.9,0,0,1-.36.5,1.31,1.31,0,0,1-.37.26,3,3,0,0,1-.48.22c-.11,0-.22.08-.36.11l-.7.2-.68.17a1,1,0,0,0-.31.11.91.91,0,0,0-.39.17,1.1,1.1,0,0,0-.37.25.7.7,0,0,1-.22.17,3.48,3.48,0,0,1-.84.39,6.75,6.75,0,0,1-.76.31l-.68.28a2,2,0,0,0-.42.23V13a7.4,7.4,0,0,0-3.76,3.18l-.31.28c-.45.19-2.14,2.47-2.84,2.52-2.08.59-1.83-.14-1.85-1.09,0-.45.81-2.16-.28-3v0a2.66,2.66,0,0,0-.2-.45,3.57,3.57,0,0,0-.31-.37l-.25-.25c-.09-.06-.14-.14-.23-.2a1.42,1.42,0,0,1-.31-.42c-.14-.34,0-.67,1-1.21.45-.11,1.09-.22,1.88-.36.39-.09.84-.17,1.32-.26a.15.15,0,0,1,.09,0l1.88-.37c.64-.14,1.35-.31,2-.5s1.38-.4,2.08-.65c0,0,.08,0,.14-.06.36-.11.73-.25,1.07-.39s.75-.28,1.12-.45a5.19,5.19,0,0,0,1.12-.67l.45-.34.42-.42a2.49,2.49,0,0,0,.45-.51.06.06,0,0,0,.06-.05s.06-.06.06-.09c-3.07.51-5.45,3.18-8.32,3-5-1-11.1,1.63-12.47,2.75-.43-.05-.76.48-1,1a5,5,0,0,1-.42.75l-.14.43a8.44,8.44,0,0,0-.39,1.82A8.27,8.27,0,0,1,190.25,20c-3.17,3.6-8.59,2.36-13.62,2-2.67-.2-5.2-.17-7.25.93-1.94.87-4.5,1.82-6.46,2.7-9.78,5.14-22.57,9.86-31,15.17-1.4.73-2.78,1.43-4.13,2.19l2,.67,5,1.72a4.91,4.91,0,0,0,2-2.31c1.1-2.78,3.37-3,5.59-3.34,2.42.65,4.81-1.6,7.17-3.48a47,47,0,0,1,8.87-2.48v-.22a26.61,26.61,0,0,1,4-.9c1.41.28,4.24.06,5.09-1.86,1.07-2.38,2.72-1.79,3.65-2,3.32-1.91,9.58-3.73,13.09-.45l.23.23.22,2.69c1.07.37,1.58,3.07,2.42,3.46.59,2,1.29,4.33.22,7a19,19,0,0,0,.17,8c.37,1.46-.28,2.86.25,3.7a1.24,1.24,0,0,0,.65.54,3.17,3.17,0,0,0,2.42-.28c.11.19,1.8-1.21,2-1.91.76-1.8,1.27-2.08,1.75-3.88,0-1,.05-3.12.73-3.82a7.41,7.41,0,0,0,.47-3.06l.26-.79,1.46-4.61c.92-3.93,2.39-8.57,5.62-11.07,1.15-.9,1.77-2.84,2.58-3.71,0-.45,3.57-3.68,5.56-5.17a5.72,5.72,0,0,1,1.16-.73c1-.45,5.11-3.37,5.11-4.38.34,0,.53-.45.59-1Zm-22.19,4c.84-.09,1.06.08.92.53s-.36.87-.87.87a1,1,0,0,1-1-.87C194.89,13.59,195,13.53,195.82,13.45Zm-8.29,14.24a1.74,1.74,0,0,1-.62-1.09c.81-.23,1.52,0,2.14-.09,2.21-.45,3.31-1.94,4-1.26a5,5,0,0,1-.2,4.27c-.14.42-.9,1-1,1.46-.48,2,0,4.24-.62,6.15-.25,0-.34.51-.65.51-.73-.7-.47-1-.25-1.83C190.73,34.15,189.83,28.87,187.53,27.69ZM192.87,41c.14,0,.22,0,.28.2s-.09.28-.26.23-.28-.09-.28-.23A.24.24,0,0,1,192.87,41ZM192.5,38c-.17.06-.25-.05-.22-.22s0-.2.22-.26.31.09.23.26S192.67,38,192.5,38Zm.62.51c-.14-.06-.2-.09-.2-.23s0-.22.2-.19.14,0,.2.19S193.26,38.57,193.12,38.54Zm-2.19,10.39a.49.49,0,0,1,.42.45c0,.26-.11.31-.42.42s-.56,0-.4-.42S190.7,48.93,190.93,48.93Zm.25,3.94c-.34-.06-.34-.34-.56-1s-.14-1,.34-1,.7.28.73.93S191.52,53,191.18,52.87Zm1-5.54c-.42.06-.81.2-.87-.36a3.53,3.53,0,0,1-.09-1.72c-.08-.62-.42-.87-.28-1.35.34-.14.51.14.57.48a8.31,8.31,0,0,0,.39,1.91c.17.28.2.42.42,0,0-.28-.06-.7.25-.79s.54.28.57.59A1.94,1.94,0,0,1,192.22,47.33Zm1-3.68c-.53.2-.87,0-.9-.22s.34-.43.87-.34.68.14.68.31S193.77,43.45,193.26,43.65Zm.76-1.94c-.2-.14-.25-.11-.31-.28a.25.25,0,0,1,.31-.31c.22,0,.28,0,.31.28S194.21,41.82,194,41.71Zm.19-2.05c-.19,0-.44-.17-.47-.31s.11-.25.45-.31.5.12.47.31A.45.45,0,0,1,194.21,39.66Zm1.52-3.09c-.67.17-.7.59-.62,1.07a1.79,1.79,0,0,1-1.2-.06c-.51-1.07.28-1.49-.09-2.16-.11-.17.76-.56,1.43-.62.4,0,.4.34.34.7S196,36.18,195.73,36.57Zm-1.07-2.36a.4.4,0,0,0-.22-.22c-.31-.28-.25-2.48.36-2.48l-.16.12a7.92,7.92,0,0,1,2.72.95C197.36,33.59,195.51,34.18,194.66,34.21Zm3.12-7.64c-.59.42-1.57,4.8-2.72,4.13-.28-.17,1.77-3.18,1.71-4.55a16,16,0,0,1,0-3.46l0-1.4h.06c0-.14,0-.06,0-.14a2,2,0,0,1,.62-.17c.28.31.9.64,1.07,1C199.19,23.42,197.78,25.3,197.78,26.57Z"/><path class="cls-4" d="M190.93,48.93a.49.49,0,0,1,.42.45c0,.26-.11.31-.42.42s-.56,0-.4-.42S190.7,48.93,190.93,48.93Z"/><path class="cls-4" d="M191.69,51.83c.05.64-.17,1.12-.51,1s-.34-.34-.56-1-.14-1,.34-1S191.66,51.18,191.69,51.83Z"/><path class="cls-4" d="M192.73,37.81c-.06.14-.06.17-.23.22s-.25-.05-.22-.22,0-.2.22-.26S192.81,37.64,192.73,37.81Z"/><path class="cls-4" d="M193.18,46.12a1.94,1.94,0,0,1-1,1.21c-.42.06-.81.2-.87-.36a3.53,3.53,0,0,1-.09-1.72c-.08-.62-.42-.87-.28-1.35.34-.14.51.14.57.48a8.31,8.31,0,0,0,.39,1.91c.17.28.2.42.42,0,0-.28-.06-.7.25-.79S193.15,45.81,193.18,46.12Z"/><path class="cls-4" d="M192.61,41.15a.24.24,0,0,1,.26-.2c.14,0,.22,0,.28.2s-.09.28-.26.23S192.61,41.29,192.61,41.15Z"/><path class="cls-4" d="M190.28,35.81c.45-1.66-.45-6.94-2.75-8.12a1.74,1.74,0,0,1-.62-1.09c.81-.23,1.52,0,2.14-.09,2.21-.45,3.31-1.94,4-1.26a5,5,0,0,1-.2,4.27c-.14.42-.9,1-1,1.46-.48,2,0,4.24-.62,6.15-.25,0-.34.51-.65.51C189.8,36.94,190.06,36.63,190.28,35.81Z"/><path class="cls-4" d="M193.12,38.54c-.14-.06-.2-.09-.2-.23s0-.22.2-.19.14,0,.2.19S193.26,38.57,193.12,38.54Z"/><path class="cls-4" d="M193.91,43.4c0,.17-.14.05-.65.25s-.87,0-.9-.22.34-.43.87-.34S193.91,43.23,193.91,43.4Z"/><path class="cls-4" d="M194.33,41.4c0,.31-.12.42-.31.31s-.25-.11-.31-.28a.25.25,0,0,1,.31-.31C194.24,41.15,194.3,41.12,194.33,41.4Z"/><path class="cls-4" d="M194.66,39.35a.45.45,0,0,1-.45.31c-.19,0-.44-.17-.47-.31s.11-.25.45-.31S194.69,39.16,194.66,39.35Z"/><path class="cls-4" d="M194.64,31.63a7.92,7.92,0,0,1,2.72.95c0,1-1.85,1.6-2.7,1.63a.4.4,0,0,0-.22-.22c-.31-.28-.25-2.48.36-2.48Z"/><path class="cls-4" d="M195.59,35.5c-.14.4.45.68.14,1.07-.67.17-.7.59-.62,1.07a1.79,1.79,0,0,1-1.2-.06c-.51-1.07.28-1.49-.09-2.16-.11-.17.76-.56,1.43-.62C195.65,34.83,195.65,35.14,195.59,35.5Z"/><path class="cls-4" d="M194.89,14c0-.39.06-.45.93-.53s1.06.08.92.53-.36.87-.87.87A1,1,0,0,1,194.89,14Z"/><path class="cls-4" d="M198.6,22c.59,1.4-.82,3.28-.82,4.55-.59.42-1.57,4.8-2.72,4.13-.28-.17,1.77-3.18,1.71-4.55a16,16,0,0,1,0-3.46l0-1.4h.06c0-.14,0-.06,0-.14a2,2,0,0,1,.62-.17C197.81,21.29,198.43,21.62,198.6,22Z"/><path class="cls-4" d="M215.9,6.76l-.08.09s.06-.06.06-.09Z"/><path class="cls-4" d="M192.59,63.66a3.3,3.3,0,0,1-1.24.92L189,63.77c-.14-.2-.31-.4-.45-.62-1.24-2-1.26-4.21.48-6.86,1.88-1.57,3.06-1.15,3.76.65A10.74,10.74,0,0,1,192.59,63.66Z"/><path class="cls-4" d="M195.73,36.57c-.67.17-.7.59-.62,1.07a1.79,1.79,0,0,1-1.2-.06c-.51-1.07.28-1.49-.09-2.16-.11-.17.76-.56,1.43-.62.4,0,.4.34.34.7S196,36.18,195.73,36.57Z"/><path class="cls-4" d="M193.18,46.12a1.94,1.94,0,0,1-1,1.21c-.42.06-.81.2-.87-.36a3.53,3.53,0,0,1-.09-1.72c-.08-.62-.42-.87-.28-1.35.34-.14.51.14.57.48a8.31,8.31,0,0,0,.39,1.91c.17.28.2.42.42,0,0-.28-.06-.7.25-.79S193.15,45.81,193.18,46.12Z"/><path class="cls-4" d="M193.91,43.4c0,.17-.14.05-.65.25s-.87,0-.9-.22.34-.43.87-.34S193.91,43.23,193.91,43.4Z"/><path class="cls-4" d="M191.69,51.83c.05.64-.17,1.12-.51,1s-.34-.34-.56-1-.14-1,.34-1S191.66,51.18,191.69,51.83Z"/><path class="cls-4" d="M196.74,14c-.17.42-.36.87-.87.87a1,1,0,0,1-1-.87c0-.39.06-.45.93-.53S196.88,13.53,196.74,14Z"/><polygon class="cls-4" points="219.63 3.54 219.92 4.32 220.75 4.32 220.1 4.84 220.34 5.63 219.65 5.17 218.97 5.65 219.2 4.84 218.54 4.36 219.36 4.32 219.63 3.54"/></g><g id="O5"><path class="cls-2" d="M141.82,107l-.65.84L141,108l-.06-.28-1.09.64-24.22,14.3-.23.14-1.09.68h0l-6,3.54-1,.59h0L49.49,161.77l-6.23,3.68-4.95-8.12c-2.81-5.68-4.75-9.47-5.11-15.29l.39-13.79.23-7.81.14-5.23C40.73,100.1,52.7,91.61,65.7,84.5h0c.56-.31,1.15-.64,1.74-.92v0c.4-.2.82-.42,1.21-.65h0c.39-.2.79-.42,1.18-.65h0c1.6-.81,3.2-1.65,4.8-2.5,6.16-3.14,12.31-6.26,18-9.91L94.08,69l1.07.85,1.77,1.43c-.37,1.66.5,2.3,1.77,1.4l35.65,28.38,3.32,2.64,1.66,1.32,1.09.9Z"/><path class="cls-4" d="M43.82,154.18a52.79,52.79,0,0,1-5.26-14.08c.09-2.24.79-4,.59-6.8,1-.28,1.58,1.75,3,2.9.84.36,1.58-.76,1-1.77a11,11,0,0,1-3.62-4.52c-.93-5-4.39-7.09-5.71-3.1-.56,4.47-2.61,7.59-2.86,11a1,1,0,0,1,.42-.25c.79.08,1.63.17,2.39.22.53-.19.73-.59,1.4-.87.37-.08.51.06.48.48a6.9,6.9,0,0,0,0,2.72c-.06.57-.34.76-.84.54a9.39,9.39,0,0,1-1.35-1.49l-2.34-.25a.5.5,0,0,1-.25-.2,8.39,8.39,0,0,0,.14,1.38c1.83,5.78,3.63,11.57,5.45,17.33,2.08,2.78,4.22,5.54,6.38,8.26l.37-.22,6.23-3.68C47.44,159.12,45.62,156.65,43.82,154.18Zm-3.23.7a.47.47,0,0,1,.39.48c0,.31.11.48-.06.48s-.64-.17-.67-.45S40.42,154.88,40.59,154.88Zm-.82,3.32a.93.93,0,0,1,.87-.76c.48,0,.93.9.93,1.21s-.45,0-.93,0S39.77,158.53,39.77,158.2Zm1.52,3.51c-.14.06-.45-.31-.48-.67a.54.54,0,0,1,.51-.57c.19,0,.39.28.33.59A.93.93,0,0,1,41.29,161.71Z"/><path class="cls-4" d="M35.7,140.1c-.06.57-.34.76-.84.54a9.39,9.39,0,0,1-1.35-1.49l-2.34-.25a.5.5,0,0,1-.25-.2,8.5,8.5,0,0,1,.06-.9,1,1,0,0,1,.42-.25c.79.08,1.63.17,2.39.22.53-.19.73-.59,1.4-.87.37-.08.51.06.48.48A6.9,6.9,0,0,0,35.7,140.1Z"/><path class="cls-4" d="M40.25,155.39c0-.31.17-.51.34-.51a.47.47,0,0,1,.39.48c0,.31.11.48-.06.48S40.28,155.67,40.25,155.39Z"/><path class="cls-4" d="M40.64,158.7c-.45,0-.87-.17-.87-.5a.93.93,0,0,1,.87-.76c.48,0,.93.9.93,1.21S41.12,158.7,40.64,158.7Z"/><path class="cls-4" d="M41.65,161.06a.93.93,0,0,1-.36.65c-.14.06-.45-.31-.48-.67a.54.54,0,0,1,.51-.57C41.51,160.47,41.71,160.75,41.65,161.06Z"/><path class="cls-4" d="M44.12,123.52a14.39,14.39,0,0,1-3.53-10.18c-.6-3.27,3.24-2.49,5.76-11.19A57.16,57.16,0,0,1,60,90.34l13.89-9c1.57-1.44,1.27-3.68-2-3-.85.27-1.95.19-2.52.87a4.38,4.38,0,0,1-2.7,1.41c-2.74.73-5.11,2.43-7.52,3.93-3.31,1.87-6.53,3.78-8.77,6.31-5.19,5.86-9.66,10.92-14.66,16.46-4.65,5.73-4.48,10.34-1,14.16a22.65,22.65,0,0,1,5.56,5.68c2.38,2.25,6.25.54,3.88-3.7Z"/><path class="cls-4" d="M94.08,69l-1.32.85a3.89,3.89,0,0,1-.59,0c-2.89,2.33-6.32,3.51-9.24,5.59-1.91,1.15-2.22.53-.93-1.83s6.35-3.59,9.27-6.82Z"/><path class="cls-4" d="M44.5,101.36c.52-.11.66,0,.57.42a10.49,10.49,0,0,0-1.26,1.36c0,.16,0,.34,0,.5-.34.63-.52.42-.7.1,0-.33,0-.64.08-1a6.26,6.26,0,0,1,1.35-1.41Z"/><path class="cls-4" d="M40.19,127.59a11.93,11.93,0,0,0-.1-2.69c.1-.68.4-.71.9-.07.11.48-.39,2-.19,3.13-.32.6-.52.48-.61-.37Z"/><path class="cls-4" d="M35.7,140.1c-.06.57-.34.76-.84.54a9.39,9.39,0,0,1-1.35-1.49l-2.34-.25a.5.5,0,0,1-.25-.2.61.61,0,0,1,.06-.9,1,1,0,0,1,.42-.25c.79.08,1.63.17,2.39.22.53-.19.73-.59,1.4-.87.37-.08.51.06.48.48A6.9,6.9,0,0,0,35.7,140.1Z"/><path class="cls-4" d="M40.92,155.84c-.16,0-.64-.17-.67-.45s.17-.51.34-.51a.47.47,0,0,1,.39.48C41,155.67,41.09,155.84,40.92,155.84Z"/><path class="cls-4" d="M41.57,158.65c0,.33-.45,0-.93,0s-.87-.17-.87-.5a.93.93,0,0,1,.87-.76C41.12,157.44,41.57,158.34,41.57,158.65Z"/><path class="cls-4" d="M41.65,161.06a.93.93,0,0,1-.36.65c-.14.06-.45-.31-.48-.67a.54.54,0,0,1,.51-.57C41.51,160.47,41.71,160.75,41.65,161.06Z"/><path class="cls-4" d="M112.6,117.54c.87-.77,1.68-.39,2.56.52a19.12,19.12,0,0,1,.44,3.77c.41,1.9-.79,1.93-1.7,1.5a5.39,5.39,0,0,1-1.49-2.26c-.36-2-.52-3.17.19-3.53Z"/><path class="cls-4" d="M114.7,87.84c.68-.25,1,.34,1.54,1.21s.59,1.74.21,1.94-.63-.41-1.53-1.21-.91-1.69-.22-1.94Z"/><path class="cls-4" d="M115.75,88.92a.55.55,0,0,1,.54.55.54.54,0,1,1-1.07,0,.54.54,0,0,1,.53-.56Z"/><path class="cls-4" d="M99.64,97.26c.61-.49,1.06-.29,1.5.18s.48.86.09,1.21a1.18,1.18,0,0,1-1.52.11.83.83,0,0,1-.07-1.5Z"/><path class="cls-4" d="M97.12,113.69a1,1,0,0,1,.95,1,1,1,0,0,1-.93,1c-.52,0-1.2-.39-1.2-.94a1.26,1.26,0,0,1,1.18-1.09Z"/><path class="cls-4" d="M66.17,83.61c.71-.28,1.29-.54,1.38-.31s-.44.74-1.14,1-1.43.34-1.52.11.57-.55,1.28-.81Z"/><path class="cls-4" d="M69.14,82.13c.49-.23.78-.39.86-.23s-.13.51-.62.74-1,.38-1,.21.3-.48.79-.72Z"/><polygon class="cls-4" points="39.84 119.84 40.02 120.36 40.57 120.36 40.14 120.7 40.3 121.22 39.85 120.92 39.41 121.23 39.55 120.7 39.11 120.37 39.66 120.36 39.84 119.84"/><path class="cls-4" d="M74.27,117.22a1.17,1.17,0,0,1,1.26,1.09c0,.6-.49,1-1.17,1S73,119,73,118.34a1.2,1.2,0,0,1,1.25-1.12Z"/></g><g id="O4"><path class="cls-1" d="M123.52,174.57a2.07,2.07,0,1,1-2.06-2.06,2.07,2.07,0,0,1,2.06,2.06Z"/><path class="cls-2" d="M141,107.74,157.58,177l-2.56.81-17.14-1.6-6.74,1.4-2.75,2.59-4.11.76-6.91,6.26L115,188.34,111,190l-3.65,4.13L105,195.54l-7.89,2.19-1.77-1.1-10,.14c-11.23-4.44-25-10.62-36.18-21.63l-5.9-9.69Z"/><path class="cls-4" d="M120.48,171.22c.24-1.23.47-2.48.7-3.71,1.44-1.47,2.92-1,5.06.55,1,.91,1,2.63,3.19,3.95,0,1-.92,1.73-2.35,1.81-1.18.27-2.21,0-2.24,1.35,2.31,1.68.79,2.48-1,2.85-2.5.15-4.34-.47-4.61-2.45-.61-1.16.5-2.76,1.28-4.35Z"/><path class="cls-4" d="M116.85,170.16c-.7-.95-1.19-1.13-1.87,0-.19,1.4.51,2,.78,3.57-.62.53-1.5.68-1.92,0-.49-1.44,0-2.17.15-3.38-.39-1.5-1.24-2-2.55-.51-1,1.59-.56,3.57,0,5.62a3.54,3.54,0,0,0,5.89-.14c-.17-.57.51-1.23.35-1.79-.39-1.43-2-1-.86-3.42Z"/><path class="cls-4" d="M120.77,185.87a60,60,0,0,0-9.41,8.09c-1.83,1.89-4.19,2.34-6.77,2.17a.34.34,0,0,1-.17,0h0c-2.27-.23-15.7-1.29-16-1.29a81.94,81.94,0,0,1-16.72-4.13,65.33,65.33,0,0,1-16.21-10.12s0,0,0,0l-.17-.08v-.08c-4.27-4.81-8.37-9.73-12.33-14.7l.37-.22,6.23-3.68c2.17,2.69,4.61,5.56,7.76,8.87,4.38,3.4,10.56,5.15,13.71,8.71a2.83,2.83,0,0,0,1.52.79c2.22-.14,4.35-.22,6.29.9,2.39,1.4,5.31,2.16,9.94,4.78,2.84.73,5.48,1.43,7.56,2.19a40.34,40.34,0,0,0,9.11-2.81c.7-.59,1-.76,1-1.32-3,0-7.19,3-10.06,3a37.08,37.08,0,0,1-7.39-1.77c-.31-.73,0-1.06.76-1a14.25,14.25,0,0,0,7.22,1.49c3.46-1.8,7.25-3.51,11.49-3.59,4.1.39,8.26.47,12.31,1.18C123,182.92,122.71,184.69,120.77,185.87Z"/><path class="cls-4" d="M73.18,181.59a17.62,17.62,0,0,1,5.72.93,30.39,30.39,0,0,0,7.39,4c.44.87.21,1.18-.7.93a36.59,36.59,0,0,1-7.18-3.61c-1-1.17-3.14-1.16-4.93-1.16-.58-.35-.67-.7-.3-1.07Z"/><path class="cls-4" d="M49.49,165.72c.68,0,.39.16.64.39s.32.53.14.63-.43,0-.82-.27-.66-.75,0-.75Z"/><path class="cls-4" d="M49.42,168.47c.27,0,.82.53.67.73s-.86.45-1,.6-.46-.23-.47-.62.53-.71.81-.71Z"/><path class="cls-4" d="M52.61,168.68c.71,0,.48.13.79.54s.41.85.21.94,0,0-.79-.54-.92-.94-.21-.94Z"/><path class="cls-4" d="M54.65,170.28a.88.88,0,0,1,.9.29c.27.31.32.76.19.87s-.55-.09-.8-.41-.4-.65-.29-.75Z"/><path class="cls-4" d="M50.94,171.7c.52-.08.85.13.75.45s-.18.32-.74.46-.9-.06-.76-.44.23-.4.75-.47Z"/><path class="cls-4" d="M56.85,177.79c.28,0,.21,0,.65.45s0,.66-.49.57a.64.64,0,0,1-.61-.68c0-.27.17-.36.45-.34Z"/><path class="cls-4" d="M58.64,178.5c.27,0,.2,0,.68.44s-.12.5-.58.38-.38-.23-.51-.48.14-.34.41-.34Z"/><path class="cls-4" d="M73,187.94a.46.46,0,0,1,.49.42.47.47,0,0,1-.48.43.43.43,0,1,1,0-.85Z"/><path class="cls-4" d="M75.53,188.16a.46.46,0,0,1,.49.42.45.45,0,0,1-.48.43.46.46,0,0,1-.49-.42.47.47,0,0,1,.48-.43Z"/><path class="cls-4" d="M76.49,189.09a.46.46,0,0,1,.49.42.45.45,0,0,1-.48.42.44.44,0,0,1-.49-.41.46.46,0,0,1,.48-.43Z"/><path class="cls-4" d="M78.06,189.2a.47.47,0,0,1,.5.42.46.46,0,0,1-.49.42.45.45,0,0,1-.49-.41.46.46,0,0,1,.48-.43Z"/><path class="cls-4" d="M59.41,181.45c.27-.39.55-.64.89.06.08.24.15.61.23.86.37,0,.76.07,1.11.1.56.42.37.63,1,1.26.35.17.71,0,.93.21.19.47.78.44,1,1-.06.53-.5.58-1,.56a1.87,1.87,0,0,1-.9-.92,2.36,2.36,0,0,0-1.49-.91c-1-.17-1.67-.52-1.92-1.07,0-.37.05-.74.08-1.11Z"/><path class="cls-4" d="M64,183.59c-.18.19.52.63,1.26,1.17.48-.35.57-.61.86-.78s.19-.41-.12-.57a4.1,4.1,0,0,0-1.71-.11c-.19.1-.28.19-.29.29Z"/><path class="cls-4" d="M111.83,187.69c-.14-.41-.49-.44-.85-.42-.17.21-.31.09-.33.5-.19,0-.26.36-.43.38a2,2,0,0,1-1.9-.65c-.5-.64-.45-.84.2-.92.54.13,1-.07,1.5-1a4.2,4.2,0,0,1,4.27-2A6,6,0,0,1,117,184.8c.5.46.25.61-.1.72l-3.61,1.86a4.47,4.47,0,0,0-1.76,1.86c-.81.29-1,0-.65-.42.28-.17.55-.35.83-.51s.3-.38.12-.62Z"/><path class="cls-4" d="M107.73,188.83c.24-.5.54-.65.91-.42h0a8,8,0,0,1,2.75,2.23c.25.54.13.9-.35,1.09a9.64,9.64,0,0,0-3.5,2.85c-.86.71-1.25.64-1.18-.22a4.8,4.8,0,0,0,1.51-2.91,4.71,4.71,0,0,1-.17-2.62Z"/><path class="cls-4" d="M97.68,192.57c.86-.71,3.28.16,4.71-.06a7,7,0,0,0,2.62-1.07c.72-.66,1-.29.78,1.12l-2.37,2.29a1.64,1.64,0,0,1-2.08.21,6.61,6.61,0,0,0-3.72-.55c-.82-.87-.8-1.53.06-1.94Z"/><path class="cls-4" d="M93.09,193.69c-.33-.38-.64,0-.52.34.38.33.61.6,1.09.63a2,2,0,0,0,1.21-.41c.2-.67.1-1-.22-.8l-.9.57a1.42,1.42,0,0,1-.66-.33Z"/><path class="cls-4" d="M92.52,190.17a5.73,5.73,0,0,0-1.4-.39c-.47.07-.82.22-.76.63.64.24,1,.66,1.67.89,1,.08,1.35-.22,1.55-.63s.13-.62-.25-.76a1.34,1.34,0,0,0-.81.26Z"/><path class="cls-4" d="M86.21,189.57a1.55,1.55,0,0,0-1,.24.92.92,0,0,0-.1.74c0,.67.36.87.83.53.09-.38.23-.45.31-.82a2.46,2.46,0,0,0,1.08,0c.32-.33.32-.55,0-.68-.35.06-.67,0-1,0Z"/><path class="cls-4" d="M82,187.84c-.66.09-.72.31-.14.66a9.6,9.6,0,0,0,1.56.56c.38.24.62-.31.83-.87-.06-.23-.23-.35-.54-.3l-1.71,0Z"/><path class="cls-4" d="M81.26,189.38c-.55,0-.62.15-.63.47a2.73,2.73,0,0,0,1,1.09,1,1,0,0,0,.91-.06,7.51,7.51,0,0,0,.76-.9c0-.57-.28-.76-.72-.49-.2.18-.25.39-.58.48a2.33,2.33,0,0,1-.78-.59Z"/><path class="cls-4" d="M123.16,122.57c.48,0,.49.42.74.6s1.23.06.72.73-.23.77-1,.78-1.36-.18-1.23-.84-.23-1.24.78-1.27Z"/><path class="cls-4" d="M78.27,191.06c.38-.37.75-.68,1.13-.64.51-.27.61-.13.33.43-.53.09-.78.53-1,1-.8.1-1-.17-.46-.8Z"/><path class="cls-4" d="M112.24,172.25c.47-.71,1-.7,1.44.05a2.77,2.77,0,0,0,.72,2.76c.16.8-.11,1-.82.66s-1-.83-1.42-1.35a3.72,3.72,0,0,1,.08-2.12Z"/><path class="cls-4" d="M120.52,174.66c-.41-.89-.18-1.17.67-.83a22.89,22.89,0,0,1,2,1.34c.2.5.06.77-.43.8a1.56,1.56,0,0,1-1.27-.85,1.67,1.67,0,0,0-.94-.46Z"/><path class="cls-4" d="M123.37,168c.37,0,.6.42.6.62s-.19.15-.57.08-.7-.07-.71-.28.31-.42.68-.42Z"/><path class="cls-4" d="M144.46,172.45a26,26,0,0,1,4.7-2.94c.84-.23,1.35-.1,1.12.76a8,8,0,0,0-2.43,1.29,6.93,6.93,0,0,0-1.37,2c0,1-.06,1.18-.43,1.56a5.52,5.52,0,0,1-2.89-.31,12.68,12.68,0,0,0-1-1.52c-.37-.38-.43-.77,1-.64.13.21,1.17-.17,1.31-.19Z"/><path class="cls-4" d="M83.72,156.47c-.09-.28-.43-.87-.3-1.31s.76-.3.92-.49c.55,0,.78-.14,1,.2.28.63.47.43.81.73-.2.21-.16.82-.53.92s-.59.71-1.08.44c-.22-.24-.62-.27-.84-.49Z"/><path class="cls-4" d="M96.15,169.93c-.15-.43-.2-.84.53-1,.58-.2,1.6.53,2.14.6.51-.37,1.21.16,1.22.94a1.52,1.52,0,0,1-1.45.9,3.78,3.78,0,0,1-2.44-1.43Z"/><path class="cls-4" d="M97.76,175.55a2.14,2.14,0,0,1,1.8-.45,2.78,2.78,0,0,1,1.8.69,1.49,1.49,0,0,1-.15,1.67,1.59,1.59,0,0,1-1.75.23c-.2-.31-.66-.46-.86-.78-.79-.43-.77-.48-.84-1.36Z"/><polygon class="cls-4" points="114.09 137.49 114.83 136.69 116.46 137.41 117.55 139.11 116.91 140.51 114.87 140.31 114.81 139.2 113.92 138.56 114.09 137.49"/><path class="cls-4" d="M104.12,140.85a1.07,1.07,0,1,1,0,2.14,1.07,1.07,0,1,1,0-2.14Z"/><path class="cls-4" d="M109.85,143.41a1.16,1.16,0,0,1,1.15,1.18,1.18,1.18,0,0,1-1.12,1.2,1.19,1.19,0,0,1,0-2.38Z"/><path class="cls-4" d="M106.11,148.11a1.15,1.15,0,0,1,1.14,1.17,1.16,1.16,0,0,1-1.11,1.22,1.2,1.2,0,0,1,0-2.39Z"/><path class="cls-4" d="M112,157a1.2,1.2,0,0,1,0,2.39,1.2,1.2,0,0,1,0-2.39Z"/><path class="cls-4" d="M132.37,157.45a1.11,1.11,0,0,1,1.13,1.06,1.13,1.13,0,0,1-2.26,0,1.12,1.12,0,0,1,1.13-1.09Z"/><path class="cls-4" d="M132.89,141.29a1.07,1.07,0,1,1,0,2.14,1.07,1.07,0,1,1,0-2.14Z"/><path class="cls-4" d="M132.2,134.44a1.08,1.08,0,1,1-1.11,1.08,1.09,1.09,0,0,1,1.11-1.08Z"/><path class="cls-4" d="M135.7,134.89a1,1,0,1,1-1.12,1,1,1,0,0,1,1.12-1Z"/><path class="cls-4" d="M142.22,142.21a1.07,1.07,0,0,1,1.14.94,1.15,1.15,0,0,1-2.27,0,1.07,1.07,0,0,1,1.13-1Z"/><path class="cls-4" d="M148.74,150.34a1,1,0,1,1-1.12,1,1.06,1.06,0,0,1,1.12-1Z"/><path class="cls-4" d="M150.36,148.55a1,1,0,0,1,1.15.92,1.15,1.15,0,1,1-1.15-.92Z"/><path class="cls-4" d="M138.2,122.25a1.25,1.25,0,0,1,1.12,1.19c0,.56-.75,1-1.32,1a1,1,0,0,1-1.07-1,1.43,1.43,0,0,1,1.27-1.22Z"/><path class="cls-4" d="M144.06,124.81c.53,0,1,.79,1,1.29s-.67.91-1.2.92-1.34-.64-1.35-1.14,1-1.06,1.53-1.07Z"/><path class="cls-4" d="M101.68,156.42a1.2,1.2,0,1,1-1.12,1.21,1.18,1.18,0,0,1,1.12-1.21Z"/><path class="cls-4" d="M96.84,138.61a1.86,1.86,0,0,1,1.49,1.76,1.4,1.4,0,0,1-1.2,1.54,1.84,1.84,0,0,1-1.74-1.51,1.86,1.86,0,0,1,1.45-1.79Z"/><path class="cls-4" d="M118.93,148c1,0,1.34,1.56,2.92,3.58s.05,3.14-1.36,3.07-2.17-1.28-2.19-3-.35-3.6.63-3.62Z"/><path class="cls-4" d="M148.26,141.6c.5.14.46,1,.2,1.91a1.59,1.59,0,0,1-1.62,1.27c-.5-.14-.46-.88-.2-1.79s1.12-1.54,1.62-1.39Z"/><path class="cls-4" d="M134.89,151.55c.88,0,1.6.95,1.62,2.12s-.44,2.13-1.81,2.23-1.85-.92-1.37-2.19.68-2.15,1.56-2.16Z"/><path class="cls-4" d="M124.16,137.83c-.11-1,.83-1.85,2.11-2s2.35.22,2.63,1.69-.77,2.1-2.2,1.76-2.42-.49-2.54-1.43Z"/><path class="cls-5" d="M47.58,167.56a.33.33,0,0,1,.37.25c0,.15-.17.27-.36.27s-.36-.11-.36-.26.15-.26.35-.26"/><path class="cls-5" d="M53.08,174.89a.35.35,0,0,1,.36.34.35.35,0,0,1-.35.34.34.34,0,1,1,0-.68"/><path class="cls-5" d="M53.94,174.35c.21-.15.46.17.36.33s-.23.24-.35.36-.43-.19-.37-.34.15-.19.36-.35"/><path class="cls-5" d="M52.42,174.07c.1,0,.37.15.37.33a.36.36,0,0,1-.36.35c-.19,0-.46-.19-.36-.33a1.29,1.29,0,0,1,.35-.35"/><path class="cls-5" d="M65,185.24c.09-.05.36.15.36.33a.36.36,0,0,1-.35.36c-.2,0-.47-.21-.37-.35a1.25,1.25,0,0,1,.36-.34"/><polygon class="cls-4" points="105 194.17 105.27 194.89 106.02 194.9 105.43 195.38 105.65 196.11 105.01 195.68 104.38 196.12 104.59 195.38 103.98 194.92 104.75 194.89 105 194.17"/><path class="cls-4" d="M104.38,169.79c.64.1,1,.41,1.05.94a.94.94,0,0,1-1,.93,1,1,0,0,1-1.08-.9.82.82,0,0,1,1-1Z"/></g><g id="Labels"><path class="cls-1" d="M227.22,0h.18l.13,0,.4.07.41.11.29.13a.68.68,0,0,1,.39.55l0,.19-.1.18-.12.16-.29.24-1,.67-.93.48-.38.17-.35.07a.39.39,0,0,1-.27-.11l-.07-.13,0-.16,0-.17s0-.09.13-.15l.32-.16.61-.26.8-.41.32-.17.24-.17.05-.1c0-.15-.2-.23-.6-.23l-.42,0-.48.17c-.35,0-.52-.14-.52-.43A.36.36,0,0,1,226,.36a.78.78,0,0,1,.27-.17l.48-.15Zm3.45,0a2.46,2.46,0,0,1,.66.1.52.52,0,0,1,.2.06l.15.07.29.2a.63.63,0,0,1,.21.22.66.66,0,0,1,.07.3l0,.11-.07.13-.15.18-.16.17-.14.16-.2.17-.55.44-.55.37-.48.28-.22,0-.23,0h-.18a.26.26,0,0,1-.14-.09l-.08-.15c0-.05,0-.09,0-.11a.28.28,0,0,1,.1-.2l.17-.08.23-.11.33-.16.58-.32.44-.35.23-.2a.45.45,0,0,0,.1-.2.2.2,0,0,0-.15-.21l-.35,0-.22,0-.15,0-.17.07L230,1l-.12,0-.3,0L229.5,1l-.06,0-.07-.06a.8.8,0,0,1-.05-.19V.56a.35.35,0,0,1,.08-.13,1.14,1.14,0,0,1,.22-.16l.15-.06a.59.59,0,0,1,.15,0,1.54,1.54,0,0,1,.35-.1l.25,0Z"/><path class="cls-1" d="M231,4.71h.13a.18.18,0,0,1,.11,0,.46.46,0,0,1,.22.25l0,.23c0,.14,0,.23-.11.27l-.45.19.22.22a.69.69,0,0,1,.21.5v.22s0,0,0,.07a.16.16,0,0,1,0,.08,1.11,1.11,0,0,1-.6.79l-.33.18-.22.08-.29,0h-.28l-.29,0-.54-.13-.1-.07-.36.31-.17.15-.21.16-.47.34-.2.13-.35.22-.33.2-.67.37-.14.07-.16.07-.27.15-.27,0a.65.65,0,0,1-.58-.33l0-.08,0-.18a.29.29,0,0,1,.1-.25l.12-.1.1-.05h.58a1,1,0,0,0,.44-.1l.75-.4.26-.17.43-.28.28-.2.18-.2.15-.11.16-.18L227.88,7l0-.13,0-.14a.54.54,0,0,1,.31-.35l.23-.05h.16l.21.09a.38.38,0,0,1,.2.22l0,.19.06,0,.2.13.2.08h.26l.17,0L230,7a1,1,0,0,0,.35-.23l.1-.15,0-.13a.48.48,0,0,0-.06-.24l-.11-.12-.16-.1L230.06,6l-.28-.14-.27-.19,0-.1,0-.14a.19.19,0,0,1,.09-.17l.25-.11H230l.25,0L230.4,5l.16-.11.15-.09.16-.07Z"/><path class="cls-1" d="M238.31,1.17c0,.65-.42,1.2-1.27,1.65a1.9,1.9,0,0,1-.86.26Q235,3.08,235,2a1.73,1.73,0,0,1,.71-1.36,2.3,2.3,0,0,1,1.49-.58,1.26,1.26,0,0,1,.46.08.85.85,0,0,1,.37.21A1,1,0,0,1,238.31,1.17Zm-.77.13c0-.29-.2-.44-.61-.44a1.1,1.1,0,0,0-.76.36,1.08,1.08,0,0,0-.38.78c0,.19.13.28.37.28h.19A1.38,1.38,0,0,0,237.1,2C237.4,1.72,237.54,1.51,237.54,1.3Z"/><path class="cls-1" d="M241.84,5.54l.15-.17.31-.22a.78.78,0,0,1,.36-.11h.09a.52.52,0,0,1,.29.21.47.47,0,0,1,0,.17.5.5,0,0,1,0,.16l-.08.12-.11.14-.18.17-.19.12-.26.17-.24.14-.22.09-.23.09-.25.08-.24,0-6.33,0-.12.15-.24.22-.31.26-.19.15-.32.18-.14,0-.2,0-.29,0a.43.43,0,0,1-.29-.39l0-.14c0-.06.05-.1.16-.14a1,1,0,0,0,.35-.13.72.72,0,0,0,.36-.21l.09-.11.07-.13h-.16a.77.77,0,0,1-.25,0l-.11-.13-.09-.18L233,6V5.88c0-.25.17-.43.51-.53h.24l.06,0h.19a.35.35,0,0,1,.18,0,.75.75,0,0,1,.43.33l.18.32h6l.11,0,.35-.07a.78.78,0,0,0,.35-.18l.11-.12Z"/><path class="cls-1" d="M249.12,10.76a.32.32,0,0,1,.31.2l0,.16v.11a.16.16,0,0,1,0,.11l-.12.15-.1,0-.18.09-.2.09-.36.34-.32.23-.57.37-.5.3-.29.16a2.09,2.09,0,0,1-.34.17l-.55.21-.21.05a.41.41,0,0,1-.3-.13.51.51,0,0,1-.12-.31l0-.15a.23.23,0,0,1,.06-.11l.08-.06.27-.14.57-.25.48-.24.33-.15.3-.17.58-.37.33-.22.29-.23.33-.19A.45.45,0,0,1,249.12,10.76Z"/><path class="cls-1" d="M248.76,5.16h.2l.13,0a.42.42,0,0,1,.13.07.65.65,0,0,1,.33.44l0,.24,0,.17a.39.39,0,0,1,0,.13l0,.19-.09.36-.13.33-.11.26-.14.28a1.42,1.42,0,0,1-.42.51l-.18,0-.11,0-.11,0-.11,0L248,8.05l0-.17a.58.58,0,0,1,0-.15l.07-.12.17-.22.16-.24.28-.52.1-.28a.54.54,0,0,0,0-.08.19.19,0,0,0,0-.08l-.08,0a.49.49,0,0,0-.31.11l-.25.22-.56.47-1.09.85-.4.28-.45.27-.34.19-.29.1-.22,0-.2,0-.13,0a.31.31,0,0,1-.13-.3V8.12a.22.22,0,0,1,0-.12l.06-.14s.08-.09.22-.16l.29,0h.24l.17,0,.35-.18.54-.36.27-.19.26-.22.35-.3.35-.3.33-.31.35-.31A1,1,0,0,1,248.76,5.16Z"/><path class="cls-1" d="M169.78,3.06H170l.14,0,.4.07.41.12.28.13a.63.63,0,0,1,.39.54l0,.2-.1.18-.12.15-.29.24-1,.67-.92.49-.39.17-.35.07a.45.45,0,0,1-.27-.11L168,5.88l0-.17,0-.16a.38.38,0,0,1,.13-.16l.33-.16.61-.26.79-.4.32-.18.25-.17,0-.1c0-.15-.2-.23-.6-.23l-.41,0-.49.16q-.51,0-.51-.42a.33.33,0,0,1,.08-.25,1,1,0,0,1,.27-.17l.48-.15Zm3.45,0a2.59,2.59,0,0,1,.67.1.59.59,0,0,1,.2.06l.14.07.3.2a.59.59,0,0,1,.2.22.56.56,0,0,1,.07.3l0,.11-.07.13-.15.18-.15.17-.15.17-.19.16-.55.44-.55.37-.49.28-.21.06-.24,0h-.17s-.08,0-.15-.08l-.07-.15a.37.37,0,0,0,0-.12.26.26,0,0,1,.09-.19l.17-.09.23-.11.34-.16.57-.31.44-.35.24-.21a.47.47,0,0,0,.09-.19.2.2,0,0,0-.15-.22l-.34,0h-.22l-.16,0-.17.07-.14,0-.12,0-.3,0L172.06,4,172,4l-.07-.06a.85.85,0,0,1-.06-.19l0-.12A.24.24,0,0,1,172,3.5a.78.78,0,0,1,.22-.16l.15-.07.15,0a1.69,1.69,0,0,1,.35-.1l.26,0Z"/><path class="cls-1" d="M173.6,7.77h.13l.11,0a.55.55,0,0,1,.22.25l0,.24a.28.28,0,0,1-.11.26l-.46.2.22.22a.68.68,0,0,1,.22.49v.22a.2.2,0,0,0,0,.07.13.13,0,0,1,0,.08,1.14,1.14,0,0,1-.61.8l-.33.17-.22.08-.28,0h-.28l-.29,0-.55-.13-.1-.06-.35.3-.17.15-.22.16-.46.35-.2.12-.36.23-.33.2-.67.37-.14.06-.16.07-.27.15-.27.05a.62.62,0,0,1-.57-.33l0-.09L167,12.3a.35.35,0,0,1,.1-.26l.12-.09.1-.06h.58a1,1,0,0,0,.44-.11l.75-.4.26-.16.43-.29.28-.2.18-.19.15-.12.17-.18-.11-.2,0-.14,0-.14a.57.57,0,0,1,.31-.35l.24-.05h.15l.21.1a.35.35,0,0,1,.21.22l0,.18.06.06.19.12.2.08.27,0,.17,0,.14-.06a.87.87,0,0,0,.36-.23l.09-.14,0-.13a.43.43,0,0,0-.06-.24l-.11-.13-.16-.09-.14-.1-.29-.14-.27-.19,0-.1,0-.14a.16.16,0,0,1,.09-.16l.26-.12h.46l.17-.08.16-.11.15-.09.16-.07Z"/><path class="cls-1" d="M180.43,13.83a.31.31,0,0,1,.31.19l0,.16v.11a.14.14,0,0,1,0,.11l-.12.15-.1,0-.19.09-.19.1-.36.33-.32.23-.57.37-.5.3-.29.16a2.09,2.09,0,0,1-.34.17l-.55.21-.21.06a.45.45,0,0,1-.3-.13.53.53,0,0,1-.12-.32l0-.15a.23.23,0,0,1,.07-.11l.08-.05.26-.15.58-.25.48-.24.33-.15.3-.17.58-.37.33-.22.29-.23.32-.19A.48.48,0,0,1,180.43,13.83Z"/><path class="cls-1" d="M180.06,8.22h.2l.13,0a.33.33,0,0,1,.13.07.68.68,0,0,1,.33.44l.06.24,0,.17a.39.39,0,0,1,0,.13l0,.19-.1.36-.12.34-.11.25-.14.28a1.46,1.46,0,0,1-.42.52l-.19,0-.1,0a.26.26,0,0,1-.11,0l-.11,0-.16-.11,0-.18a.41.41,0,0,1,0-.14.4.4,0,0,1,.07-.12l.17-.22.16-.25.28-.52.1-.28a.54.54,0,0,0,0-.08.11.11,0,0,0,0-.08l-.07,0a.53.53,0,0,0-.31.11l-.25.23-.57.46-1.09.85-.39.28-.45.27-.34.19-.29.11-.22,0-.21,0-.12,0a.32.32,0,0,1-.14-.31v-.15a.27.27,0,0,1,0-.11l.06-.15a.49.49,0,0,1,.22-.15l.29,0h.24l.17-.05.35-.18.55-.36.26-.19.27-.22.34-.3.35-.3.34-.31.35-.3A1,1,0,0,1,180.06,8.22Z"/><path class="cls-1" d="M187,3.68a.47.47,0,0,1,.26-.1c.25,0,.38.17.38.5l0,.12a.18.18,0,0,1-.07.08,14.34,14.34,0,0,1-1.45,1,13.22,13.22,0,0,1-1.45.74l-.2.06-.15,0c-.12,0-.22-.08-.29-.24l0-.13,0-.18c0-.12.08-.21.24-.26a8.24,8.24,0,0,0,1.14-.61l.38-.22.56-.34C186.56,4,186.79,3.82,187,3.68Z"/><path class="cls-1" d="M185.61,7.94h.08l.09,0,.22.18a.25.25,0,0,1,.13.24,3.18,3.18,0,0,1-.5.52l1.76,0a.08.08,0,0,0,0,0l0,.06a.29.29,0,0,1,.11.16c0,.15-.19.34-.58.59l-.88.51-.64.39-1,.66L183,12l-.8.35-.27.1-.26.06-.34.09a1,1,0,0,1-.29,0l-.15-.09a.52.52,0,0,1-.16-.43c0-.14.1-.24.3-.31l.29,0a2.51,2.51,0,0,0,.55-.06,2.65,2.65,0,0,0,.56-.19l.13,0,.2-.1.52-.23,2.63-1.5-2.35,0a.37.37,0,0,1-.08-.14.93.93,0,0,1,0-.26l.05-.14.18,0a.67.67,0,0,0,.18-.08,1.4,1.4,0,0,0,.3-.15l.54-.24.38-.2a.38.38,0,0,0,.16-.17.71.71,0,0,1,.1-.15l.1,0Z"/><path class="cls-1" d="M193.68,3.68a.47.47,0,0,1,.26-.1c.25,0,.38.17.38.5l0,.12a.13.13,0,0,1-.07.08,14.34,14.34,0,0,1-1.45,1,13.22,13.22,0,0,1-1.45.74l-.19.06-.16,0c-.12,0-.22-.08-.29-.24l0-.13,0-.18c0-.12.08-.21.24-.26a8.24,8.24,0,0,0,1.14-.61l.38-.22.56-.34C193.26,4,193.49,3.82,193.68,3.68Z"/><path class="cls-1" d="M193.14,8l.18,0h.07a.17.17,0,0,1,.11,0l.08.05.11.11,0,.18,0,.11a.26.26,0,0,1-.09.18l-.13.13-.41.31-.53.39-.52.34-.88.52-.35.17a4.12,4.12,0,0,1-.54.25l-.2.07-.24.07-.27,0a.28.28,0,0,1-.18-.08.37.37,0,0,1-.17-.21v-.16a.56.56,0,0,1,.12-.28l.2-.22.14-.16.08-.13.07-.22V8.64a.79.79,0,0,1,0-.28.46.46,0,0,1,.07-.07l.14-.08.24,0h.19a.35.35,0,0,1,.19.11.4.4,0,0,1,.17.36l0,.13,0,.12-.12.27-.11.41-.1.27.17-.06.2-.13.29-.16.37-.23.69-.45.15-.11.23-.22.41-.3Z"/><path class="cls-1" d="M206.11,21.22h.18l.13,0,.4.07.41.12.29.13a.64.64,0,0,1,.38.54l0,.2-.11.18-.11.15-.29.24-1,.67-.93.49-.38.17-.35.07a.45.45,0,0,1-.27-.11l-.08-.13,0-.17,0-.16s.05-.09.13-.16l.32-.16.61-.26.8-.4.32-.18.24-.17,0-.1c0-.15-.2-.23-.61-.23l-.41,0-.48.16c-.35,0-.52-.14-.52-.42a.37.37,0,0,1,.08-.25.79.79,0,0,1,.27-.16l.48-.16Zm3.45,0a2.52,2.52,0,0,1,.66.1.52.52,0,0,1,.2.06l.15.07.29.2a.73.73,0,0,1,.21.22.66.66,0,0,1,.07.3l0,.11-.07.13-.15.18-.15.17-.14.17-.2.16-.55.44-.55.37-.48.28-.22.06-.23,0h-.18a.29.29,0,0,1-.14-.08l-.08-.15a.22.22,0,0,0,0-.12.26.26,0,0,1,.1-.19l.17-.09.23-.11.33-.16.58-.31.44-.35.23-.21a.62.62,0,0,0,.1-.19.2.2,0,0,0-.15-.22l-.35,0h-.22l-.16,0-.17.07-.13,0-.12,0-.3,0-.13-.07,0,0-.07-.06a.56.56,0,0,1,0-.19v-.12a.25.25,0,0,1,.08-.12.66.66,0,0,1,.22-.16l.15-.07.15,0a1.54,1.54,0,0,1,.35-.1l.25,0Z"/><path class="cls-1" d="M209.92,25.93h.13l.11,0a.5.5,0,0,1,.22.25l0,.24a.28.28,0,0,1-.11.26l-.45.2.22.22a.67.67,0,0,1,.21.49v.22a.15.15,0,0,1,0,.07.13.13,0,0,1,0,.08,1.15,1.15,0,0,1-.6.8l-.33.17-.23.08-.28,0h-.28l-.29,0-.55-.13-.09-.06-.36.3-.17.15-.21.16-.47.35-.2.12-.35.23-.33.2-.68.37-.13.06-.16.07-.28.15-.26.05a.64.64,0,0,1-.58-.33l0-.09,0-.17a.31.31,0,0,1,.1-.26l.12-.09.1-.06h.58a1.06,1.06,0,0,0,.44-.11l.74-.4.27-.16.43-.29.28-.2.18-.19.15-.12.16-.18-.11-.2,0-.14,0-.14a.51.51,0,0,1,.31-.35l.23,0h.16l.2.1a.35.35,0,0,1,.21.22l0,.18.06.06.19.12.21.08.26,0,.17,0,.15-.06a.84.84,0,0,0,.35-.23l.1-.14.05-.13a.43.43,0,0,0-.06-.24l-.11-.13-.16-.09-.15-.1-.28-.14-.27-.19-.05-.1,0-.14a.16.16,0,0,1,.09-.16l.25-.12h.47l.17-.08.16-.11.15-.09.16-.07Z"/><path class="cls-1" d="M216.75,32a.3.3,0,0,1,.31.19l0,.16,0,.11a.12.12,0,0,1-.05.11l-.12.15-.1,0-.18.09-.2.1-.36.33-.32.23-.57.37-.5.3-.29.16a1.73,1.73,0,0,1-.33.17l-.56.21-.2.06a.5.5,0,0,1-.31-.13.59.59,0,0,1-.11-.32l0-.15a.23.23,0,0,1,.07-.11l.07,0,.27-.15.58-.25.48-.24.33-.15.3-.17.57-.37.33-.22.3-.23.32-.19A.46.46,0,0,1,216.75,32Z"/><path class="cls-1" d="M216.8,28.18l-.37.36-.25.18-.28.17-.47.23-.45.14-.52.11-.53,0h-.74a.53.53,0,0,1-.2,0,1.28,1.28,0,0,1-.94-.79,1.63,1.63,0,0,1-.06-.47,1.72,1.72,0,0,1,.17-.61l.2-.26.26-.24.13-.11.15-.08.33-.16.3-.1.29-.05h.28a.65.65,0,0,1,.21.06.67.67,0,0,1,.17.08l.28.27.26-.25.22-.16.13-.07.16-.06.31-.07.34,0a1.26,1.26,0,0,1,1,.42l.11.17a.93.93,0,0,1,.06.21v.19A1.73,1.73,0,0,1,216.8,28.18Zm-2.65-.72-.19-.1-.19,0-.14,0h-.17l-.19.08a.8.8,0,0,0-.47.73.38.38,0,0,0,.19.3l.33.14.5-.72Zm2.36-.24c0-.16-.13-.24-.38-.24H216a1.23,1.23,0,0,0-.4.2l-.5.4-.3.27-.24.28-.13.18-.2.31.65-.11H215l.14-.05a.81.81,0,0,0,.22-.12l.41-.27.32-.23C216.35,27.61,216.51,27.4,216.51,27.22Z"/><path class="cls-1" d="M220.28,26.2l.25,0a.56.56,0,0,1,.36.21l.09.15a.36.36,0,0,0,.22.11.32.32,0,0,0,.18-.07l.17-.15.12-.1.12-.11.13-.05a.53.53,0,0,1,.19,0h.1l.09.05.15.08.08,0,.05.08.09.21.07.18.06,0,.08,0a1.07,1.07,0,0,0,.38-.11l.16-.13.16-.18.08-.06.1-.07.22-.12.18,0h.17a.13.13,0,0,1,.11.07l.1.12,0,.11a.57.57,0,0,1-.14.4l-.2.23a.46.46,0,0,1-.22.16l-.24.13-.3.13-.29.09-.53.1a.83.83,0,0,1-.44-.12l-.16-.13-.18-.18h-.33a1,1,0,0,0-.26,0,.51.51,0,0,0-.18.09l-.35.33-.54.45-.55.41-.16.11-.2.13-.24.15-.78.44-.6.33-.24.1-.27.1-.24.05-.26,0-.17,0-.19-.08c-.16-.07-.23-.23-.23-.47a.37.37,0,0,1,.22-.35l.17,0h.6a1.6,1.6,0,0,0,.52-.2l.54-.28.62-.33.56-.37.42-.33.11-.13a.42.42,0,0,0,0-.12l-.2-.38,0-.18v-.1c0-.05,0-.08,0-.1l.1-.14A.76.76,0,0,1,220.28,26.2Z"/><path class="cls-1" d="M230.62,21.84a.5.5,0,0,1,.26-.1c.25,0,.38.17.38.51l0,.11a.13.13,0,0,1-.07.08,15.45,15.45,0,0,1-1.44,1,14.31,14.31,0,0,1-1.46.74l-.19.06-.15.05a.33.33,0,0,1-.3-.24l0-.13,0-.18c0-.12.08-.21.24-.26a8.1,8.1,0,0,0,1.15-.61l.38-.22.55-.34C230.21,22.14,230.43,22,230.62,21.84Z"/><path class="cls-1" d="M230.74,25.93h.13l.11,0a.5.5,0,0,1,.22.25l0,.24a.28.28,0,0,1-.11.26l-.45.2.22.22a.67.67,0,0,1,.21.49v.22s0,.05,0,.07a.13.13,0,0,1,0,.08,1.15,1.15,0,0,1-.6.8l-.33.17-.23.08-.28,0h-.28L229,29l-.55-.13-.09-.06-.36.3-.17.15-.21.16-.47.35-.2.12-.36.23-.33.2-.67.37-.14.06-.15.07-.28.15-.26.05a.63.63,0,0,1-.58-.33l0-.09,0-.17a.34.34,0,0,1,.09-.26l.13-.09.09-.06h.59a1,1,0,0,0,.43-.11l.75-.4.26-.16.44-.29.28-.2.18-.19.15-.12.16-.18-.11-.2,0-.14,0-.14a.51.51,0,0,1,.31-.35l.23,0h.16l.2.1a.35.35,0,0,1,.21.22l0,.18.06.06.19.12.21.08.26,0,.17,0,.14-.06a.81.81,0,0,0,.36-.23l.1-.14.05-.13a.36.36,0,0,0-.07-.24l-.11-.13-.15-.09-.15-.1-.29-.14-.26-.19-.05-.1,0-.14a.16.16,0,0,1,.09-.16l.25-.12h.47l.17-.08.16-.11.15-.09.15-.07Z"/><path class="cls-1" d="M199.64,52.85h.18l.14,0,.4.07.41.11.29.13a.67.67,0,0,1,.38.55l0,.19-.1.18-.12.16-.29.24-1,.67-.92.48-.39.17-.35.07a.36.36,0,0,1-.26-.11l-.08-.13,0-.16,0-.17a.38.38,0,0,1,.13-.15l.33-.16.61-.26.79-.41.33-.17.24-.17,0-.1c0-.15-.2-.23-.6-.23l-.41,0-.49.17c-.34,0-.51-.14-.51-.43a.32.32,0,0,1,.08-.24.78.78,0,0,1,.27-.17l.48-.16Zm3.45,0a2.65,2.65,0,0,1,.67.11.59.59,0,0,1,.2.06l.14.07.3.2a.53.53,0,0,1,.2.22.56.56,0,0,1,.07.3l0,.11-.07.13-.15.18-.15.17-.15.16-.19.17-.55.44-.55.37-.49.28-.21,0-.23,0h-.18a.31.31,0,0,1-.15-.09l-.07-.15a.27.27,0,0,0,0-.11.3.3,0,0,1,.09-.2l.17-.08.23-.11.34-.16.57-.32.44-.35.24-.2a.54.54,0,0,0,.09-.2.2.2,0,0,0-.15-.21l-.34,0-.22,0-.16,0-.17.07-.14,0-.11,0-.31,0-.12-.06,0,0-.07-.06a.7.7,0,0,1-.06-.19l0-.11a.33.33,0,0,1,.07-.13l.22-.16.15-.06.15-.05.35-.09.26,0Z"/><path class="cls-1" d="M203.46,57.56h.13a.2.2,0,0,1,.11,0,.5.5,0,0,1,.22.25l0,.23a.29.29,0,0,1-.11.27l-.46.19.22.22a.7.7,0,0,1,.22.5v.22a.17.17,0,0,0,0,.07.16.16,0,0,1,0,.08,1.12,1.12,0,0,1-.61.79l-.33.18-.22.08-.28,0H202l-.29,0-.55-.13-.1-.07-.35.31-.17.15-.22.16-.46.34-.2.13-.36.22L199,62l-.67.37-.14.07-.16.07-.27.15-.27,0a.62.62,0,0,1-.57-.33l0-.08,0-.18a.32.32,0,0,1,.1-.25l.12-.1.1,0h.58a1,1,0,0,0,.44-.1l.75-.4.26-.17.43-.29.28-.19.18-.2.15-.11.17-.18-.11-.21,0-.13,0-.14a.57.57,0,0,1,.31-.35l.24-.05H201l.21.09a.4.4,0,0,1,.21.22l0,.19.06,0,.19.13.21.08h.26l.17,0,.14-.06a1,1,0,0,0,.36-.23l.09-.15.05-.13a.48.48,0,0,0-.06-.24l-.11-.12-.16-.1-.14-.09-.29-.14-.27-.19,0-.1,0-.14a.18.18,0,0,1,.09-.17l.26-.11h.21l.25,0,.17-.07.16-.11.15-.09.16-.07Z"/><path class="cls-1" d="M210.29,63.61a.32.32,0,0,1,.31.2l0,.16v.11a.16.16,0,0,1-.05.11l-.12.15-.1,0-.19.09-.19.09-.36.34-.32.23-.57.37-.5.3-.29.16-.34.17-.55.21-.21.05a.41.41,0,0,1-.3-.13.51.51,0,0,1-.12-.31l0-.15a.23.23,0,0,1,.07-.11l.08-.06.27-.14.57-.25.48-.24.33-.15.3-.17.58-.37.33-.22.29-.23.33-.19A.35.35,0,0,1,210.29,63.61Z"/><path class="cls-1" d="M209.92,58h.2l.13,0a.33.33,0,0,1,.13.07.63.63,0,0,1,.33.44l.06.24,0,.17a.39.39,0,0,1,0,.13l0,.19-.09.36-.13.33-.11.26-.14.28a1.51,1.51,0,0,1-.42.51l-.19,0-.1,0-.11,0-.11,0-.16-.11,0-.18a.46.46,0,0,1,0-.14.4.4,0,0,1,.07-.12l.17-.22.16-.24.28-.52.1-.28a.54.54,0,0,0,0-.08.11.11,0,0,0,0-.08l-.07,0a.47.47,0,0,0-.31.11l-.25.22-.57.47-1.09.85-.39.28-.45.27-.34.19-.29.1-.22,0-.21,0-.12,0a.31.31,0,0,1-.14-.3V61a.37.37,0,0,1,0-.12l.07-.14s.08-.09.21-.16l.29,0h.24l.17-.05.35-.18.55-.36.26-.19.27-.22.34-.3.35-.3.34-.31.35-.31A1,1,0,0,1,209.92,58Z"/><path class="cls-1" d="M216.84,53.47a.41.41,0,0,1,.26-.1c.25,0,.38.17.38.5l0,.12s0,0-.07.08a14.34,14.34,0,0,1-1.45,1,11.58,11.58,0,0,1-1.45.73l-.2.07-.15,0a.32.32,0,0,1-.29-.23l0-.13,0-.18c0-.12.08-.21.23-.26a8.1,8.1,0,0,0,1.15-.61l.38-.22.56-.34Z"/><path class="cls-1" d="M216.41,59.81l-.37.35-.25.19-.28.17-.47.23-.45.14-.52.11-.52,0h-.75a.49.49,0,0,1-.19-.05,1.26,1.26,0,0,1-.94-.79,1.72,1.72,0,0,1-.07-.47,1.67,1.67,0,0,1,.17-.61l.21-.26.25-.24.13-.11.15-.09.33-.16.3-.1.3,0h.28l.2.05.18.09.27.27.27-.25.22-.16.13-.07.15-.06.31-.07.34,0a1.27,1.27,0,0,1,1,.43l.11.16a.53.53,0,0,1,.06.22v.18A1.71,1.71,0,0,1,216.41,59.81Zm-2.65-.72-.19-.1-.19,0-.14,0h-.17l-.19.08a.79.79,0,0,0-.47.72.38.38,0,0,0,.2.31l.33.14.5-.72Zm2.36-.24c0-.16-.13-.24-.38-.24h-.15a1.23,1.23,0,0,0-.4.2l-.5.4-.3.27-.23.27-.13.18-.21.32.65-.11.09,0a.33.33,0,0,0,.14,0,1.14,1.14,0,0,0,.23-.13l.4-.26.32-.24C216,59.23,216.12,59,216.12,58.85Z"/><path class="cls-1" d="M222.39,52.22l.13-.08a.32.32,0,0,1,.14,0c.25,0,.37.16.37.5a.23.23,0,0,1-.09.2,17.53,17.53,0,0,1-1.54,1l-.7.38a6.46,6.46,0,0,1-.67.29l-.33.11a.3.3,0,0,1-.17,0,.92.92,0,0,1-.13-.17l0-.1v-.14a.19.19,0,0,1,0-.08.34.34,0,0,1,.08-.18.18.18,0,0,1,.06-.08l.1-.05a3.71,3.71,0,0,0,1.17-.54A9.74,9.74,0,0,0,222.39,52.22Zm.77,1.36a.39.39,0,0,1,.26-.1c.25,0,.37.17.37.5a.41.41,0,0,1,0,.12s0,0-.07.08a15.56,15.56,0,0,1-1.45,1,11.69,11.69,0,0,1-1.46.73l-.19.07-.15,0a.32.32,0,0,1-.29-.22l0-.14,0-.17a.27.27,0,0,1,.22-.27,7.48,7.48,0,0,0,1.16-.61l.38-.22.55-.34Z"/><path class="cls-1" d="M221.62,57.83h.18a.3.3,0,0,1,.15,0h.14l.13,0a.87.87,0,0,1,.31,0l.32.08c.4.09.59.26.59.52a.78.78,0,0,1-.11.36,1.43,1.43,0,0,1-.14.2l-.21.21-.29.27-.36.29-.3.22-.46.31a12.09,12.09,0,0,1-1.36.76l-.57.27-.28.1-.33.11-.25,0-.18,0-.1-.05-.15-.11-.1-.2,0-.07c0-.24.08-.37.24-.4l.25,0h.23l.25,0,.16,0,.18,0,.22-.1.28-.15.48-.23.22-.1.37-.2.41-.23.24-.16.14-.11.21-.17a1.6,1.6,0,0,0,.26-.26l.07-.08,0,0a.09.09,0,0,0,0-.07l-.11-.05-.11,0-.26,0-.21,0h-.13l-.43.07-.06,0-.12.06-.14,0-.1,0h-.15l-.16,0-.19,0a.42.42,0,0,1-.27-.34.55.55,0,0,1,.06-.28.83.83,0,0,1,.27-.19l.23-.07.23-.08Z"/><path class="cls-1" d="M183.75,70.44h.17a.32.32,0,0,1,.16,0h.13l.14,0a.87.87,0,0,1,.31.05l.32.08c.39.09.59.26.59.52a.7.7,0,0,1-.12.36.9.9,0,0,1-.14.2,1.88,1.88,0,0,1-.2.21l-.29.27-.36.29-.3.22-.46.31a12.22,12.22,0,0,1-1.37.76l-.57.27-.27.1-.34.11-.24,0-.18,0-.1-.06-.16-.1-.09-.2,0-.07c0-.24.08-.37.23-.4l.26,0h.22l.26,0,.16,0,.17,0,.22-.1.29-.15.48-.23.22-.1.37-.2.41-.23.24-.16L184,72l.21-.17a2.13,2.13,0,0,0,.26-.26l.07-.08,0,0a.09.09,0,0,0,0-.07l-.12,0-.11,0-.26,0-.2,0h-.13l-.43.07-.06,0-.13.06-.13,0-.1,0h-.16l-.15,0-.2,0a.4.4,0,0,1-.26-.34.55.55,0,0,1,.06-.28.83.83,0,0,1,.27-.19l.22-.07.24-.08Z"/><path class="cls-1" d="M184.74,65.41h.41a.25.25,0,0,1,.13,0,1.34,1.34,0,0,1,.75.18.56.56,0,0,1,.26.48,1.37,1.37,0,0,1-.48.83l-.29.33-.38.31a4,4,0,0,1-.37.27,3.17,3.17,0,0,1-.45.23l-.67.28-.34.15-.23,0s-.1,0-.18-.15l-.06-.11-.05-.12a.41.41,0,0,1,.07-.25.8.8,0,0,1,.28-.19l.29-.08.34-.11a1.41,1.41,0,0,0,.35-.15,1.71,1.71,0,0,0,1.11-1l-.06,0-.08,0-.25,0-.19,0-.19,0h-.21l-.11,0-.15.09-.13.07-.11,0h-.18a.27.27,0,0,1-.18-.07l-.12-.18,0-.14a.32.32,0,0,1,.16-.3,4.08,4.08,0,0,1,.64-.26A2.88,2.88,0,0,1,184.74,65.41Z"/><path class="cls-1" d="M176.5,70.43l.24,0a.53.53,0,0,1,.36.2l.1.16a.31.31,0,0,0,.22.11.32.32,0,0,0,.17-.07l.17-.15.12-.1.13-.11.12-.06.19,0h.1l.09,0,.15.07.08,0a.15.15,0,0,1,0,.08l.09.2.07.19.06,0,.08,0a.89.89,0,0,0,.38-.11l.16-.13.17-.17.07-.06a.35.35,0,0,1,.11-.08l.21-.11.18,0h.17a.14.14,0,0,1,.11.08l.1.12,0,.11a.61.61,0,0,1-.14.4l-.2.23a.53.53,0,0,1-.22.16l-.24.13-.3.12-.29.09-.53.11a.83.83,0,0,1-.44-.12l-.16-.14-.18-.18h-.33a1,1,0,0,0-.26,0,.39.39,0,0,0-.17.09L177,72l-.54.45-.55.41-.15.11-.21.13-.24.15-.78.44-.6.33-.24.1-.27.1-.24.05h-.26l-.17,0-.19-.07a.49.49,0,0,1-.23-.48.37.37,0,0,1,.23-.35l.17,0h.12l.47,0a1.47,1.47,0,0,0,.52-.21l.54-.27.62-.33.56-.37.43-.34.1-.12a.5.5,0,0,0,0-.13l-.2-.37,0-.19v-.09a.22.22,0,0,1,0-.1l.1-.14A.79.79,0,0,1,176.5,70.43Z"/><path class="cls-1" d="M179.69,66.63c0,.65-.42,1.2-1.27,1.65a1.9,1.9,0,0,1-.86.26q-1.23,0-1.23-1.05a1.73,1.73,0,0,1,.71-1.36,2.3,2.3,0,0,1,1.49-.58,1.27,1.27,0,0,1,.46.07,1,1,0,0,1,.7,1Zm-.77.13c0-.29-.2-.44-.61-.44a1.1,1.1,0,0,0-.76.36,1.08,1.08,0,0,0-.38.78c0,.19.13.28.38.28h.18a1.29,1.29,0,0,0,.75-.34C178.78,67.18,178.92,67,178.92,66.76Z"/><path class="cls-1" d="M172.39,70.47l.13,0a.35.35,0,0,1,.29.36.42.42,0,0,1-.1.19l-.2.15-.25.1.48.11.19.06.23.06q.51.08.51.45l-.06.12-.21.17-.13.11-.21.15-.71.4-.15.11a.14.14,0,0,0,0,.11l.81.16.63.12.22,0c.25,0,.37.11.37.33s-.08.4-.22.42h-.49l-.21,0-.33-.06-.39-.07-.17,0-.18,0-1.1-.3-.09,0-.06,0a.25.25,0,0,1-.08,0l-.15-.08a.31.31,0,0,1-.09-.16.25.25,0,0,1,.09-.19L171,73l.39-.28.44-.26.41-.26.27-.21L172,72l-1.2-.18a.13.13,0,0,1-.11-.07v-.2l.2-.15.34-.26.42-.28.37-.21A1,1,0,0,1,172.39,70.47Z"/><path class="cls-1" d="M171.49,65.46h.18l.14,0,.4.07.41.11.28.13a.66.66,0,0,1,.39.54l0,.2-.1.18-.12.16-.29.24-1,.67-.92.48-.39.17-.35.07a.39.39,0,0,1-.27-.11l-.07-.13,0-.16,0-.17a.38.38,0,0,1,.13-.15l.33-.16.61-.26.79-.41.32-.17.25-.17,0-.1c0-.15-.2-.23-.6-.23l-.41,0-.49.17c-.34,0-.51-.14-.51-.43a.32.32,0,0,1,.08-.24.78.78,0,0,1,.27-.17l.48-.16Zm3.45,0a2.65,2.65,0,0,1,.67.11.59.59,0,0,1,.2.06l.14.07.3.2a.53.53,0,0,1,.2.22.56.56,0,0,1,.07.3l0,.11-.07.13-.15.18-.15.17-.15.16-.19.17-.55.44-.55.37-.49.28-.21.05-.24,0h-.17s-.08,0-.15-.09l-.07-.15a.27.27,0,0,0,0-.11.3.3,0,0,1,.09-.2l.17-.09.23-.1.34-.16.57-.32.44-.35.24-.2a.54.54,0,0,0,.09-.2.22.22,0,0,0-.15-.22l-.34,0-.22,0-.16,0-.17.07-.14,0-.12,0-.3,0-.12-.06-.05,0-.07-.06a.7.7,0,0,1-.06-.19V66l.08-.12a1.58,1.58,0,0,1,.22-.16l.15-.06.15,0,.35-.09.26,0Z"/><path class="cls-1" d="M216.11,107.58c0,.65-.42,1.2-1.27,1.64a1.78,1.78,0,0,1-.86.26c-.82,0-1.23-.35-1.23-1a1.72,1.72,0,0,1,.7-1.36,2.32,2.32,0,0,1,1.5-.59,1.26,1.26,0,0,1,.46.08.91.91,0,0,1,.37.21A1,1,0,0,1,216.11,107.58Zm-.77.12c0-.29-.2-.43-.61-.43a1.12,1.12,0,0,0-.77.36,1.1,1.1,0,0,0-.37.78c0,.18.12.27.37.27h.19a1.38,1.38,0,0,0,.75-.33A.9.9,0,0,0,215.34,107.7Z"/><path class="cls-1" d="M213,111.38l.25,0a.56.56,0,0,1,.36.21l.09.16a.51.51,0,0,0,.22.11.41.41,0,0,0,.18-.07l.17-.15.12-.11.12-.11.13,0a.53.53,0,0,1,.19,0h.09l.1.05.15.08.08,0,0,.07.09.21.07.18.05,0,.09,0A1,1,0,0,0,216,112l.17-.13.16-.17.08-.07.1-.07.22-.12.18,0H217a.11.11,0,0,1,.11.07l.11.13,0,.11a.53.53,0,0,1-.15.39l-.19.23a.46.46,0,0,1-.22.17l-.24.13-.3.12-.29.09-.53.1a.83.83,0,0,1-.44-.12l-.17-.13-.17-.18h-.33a1,1,0,0,0-.26,0,.4.4,0,0,0-.18.1l-.35.32-.54.45-.55.41-.16.11-.2.13-.24.15-.78.44-.6.33-.24.1a1.3,1.3,0,0,1-.27.1l-.24.06h-.26l-.17,0-.19-.08c-.16-.07-.23-.23-.23-.47a.37.37,0,0,1,.22-.35l.17,0h.6a1.6,1.6,0,0,0,.52-.2l.54-.28.61-.33.57-.37.42-.33.11-.13a.34.34,0,0,0,0-.12l-.2-.38,0-.18v-.1s0-.08,0-.09l.1-.15A.76.76,0,0,1,213,111.38Z"/><path class="cls-1" d="M223.33,107a.48.48,0,0,1,.26-.09c.25,0,.38.16.38.5l0,.11a.18.18,0,0,1-.07.09,15.3,15.3,0,0,1-1.44,1,12.53,12.53,0,0,1-1.46.74l-.19.06-.15,0a.33.33,0,0,1-.3-.24l0-.13,0-.17c0-.13.08-.21.24-.27a8.72,8.72,0,0,0,1.15-.61l.37-.22c.2-.11.38-.22.56-.34S223.14,107.16,223.33,107Z"/><path class="cls-1" d="M222.63,111.32H223l.19,0c.11,0,.17.07.17.22l0,.18a.29.29,0,0,1-.1.23.59.59,0,0,1-.29.14l-.41,0-.12,0-.21,0-.37.11q-.19,0-.21.15l.11.17,0,.07,0,.09.07.15a1.05,1.05,0,0,1,0,.3v.33a.53.53,0,0,1-.06.2l-.1.21-.06.08-.07.08-.1.1-.12.07-.38.18-.23.06H219a.79.79,0,0,1-.23,0,.85.85,0,0,1-.17-.08l-.08,0-.15-.11a.64.64,0,0,1-.18-.44.36.36,0,0,1,.06-.2l.14-.15.13-.11a1,1,0,0,1,.37-.11.31.31,0,0,1,.21.11l.11.14.18.13.2,0,.43,0h.44a.66.66,0,0,0,.59-.23v-.1l0-.11a.62.62,0,0,0-.1-.22l-.12-.13-.13-.16-.17-.23,0-.27a.45.45,0,0,1,.07-.23l.17-.11.23-.12.23-.15.33-.15.4-.13A2.71,2.71,0,0,1,222.63,111.32Z"/><path class="cls-1" d="M184.37,160.49h.18l.14,0,.4.06.41.12.29.13a.67.67,0,0,1,.38.54l0,.2-.1.18-.11.16-.29.24-1,.66-.93.49-.38.17-.35.07a.4.4,0,0,1-.27-.11l-.08-.13,0-.16,0-.17s0-.09.13-.16l.32-.15.61-.26.8-.41.32-.17.24-.17.05-.11c0-.15-.21-.22-.61-.22l-.41,0-.49.17c-.34,0-.51-.14-.51-.43a.36.36,0,0,1,.08-.24.78.78,0,0,1,.27-.17l.48-.16Zm3.45,0a2.65,2.65,0,0,1,.67.11.59.59,0,0,1,.2.06l.14.07.3.2a.57.57,0,0,1,.2.21.62.62,0,0,1,.07.31l0,.11-.07.13-.15.17-.15.18-.14.16-.2.17-.55.43-.55.38-.49.28-.21,0-.23,0-.18,0a.23.23,0,0,1-.14-.08l-.08-.15a.27.27,0,0,0,0-.11.28.28,0,0,1,.1-.2l.17-.09.22-.11.34-.15.58-.32L188,162l.24-.2a.54.54,0,0,0,.09-.2.22.22,0,0,0-.15-.22l-.34,0-.22,0-.16,0-.17.07-.14,0-.11,0-.3,0-.13-.06-.05,0-.07-.06a.7.7,0,0,1-.06-.19l0-.12a.75.75,0,0,1,.07-.12l.22-.16.16-.07.14,0,.35-.09.26,0Z"/><path class="cls-1" d="M188.19,165.19h.13l.11,0a.53.53,0,0,1,.22.26l0,.23a.31.31,0,0,1-.11.27l-.45.19.22.22a.69.69,0,0,1,.21.5v.21s0,.06,0,.08a.16.16,0,0,1,0,.08,1.14,1.14,0,0,1-.6.79l-.33.18-.23.07-.28,0h-.28l-.29,0-.55-.13-.09-.06-.36.3-.17.16-.21.16-.47.34-.2.13-.36.22-.33.2-.67.37-.14.06-.15.08-.28.15-.27,0a.62.62,0,0,1-.57-.33l0-.08,0-.18a.32.32,0,0,1,.09-.25l.13-.1.09-.05h.59a.86.86,0,0,0,.43-.11l.75-.39.26-.17.43-.29.29-.2.17-.19.15-.11.17-.18-.11-.21,0-.14,0-.13c0-.14.12-.25.31-.35l.23,0h.16l.2.09a.4.4,0,0,1,.21.22l0,.19.06.05.19.13.21.08h.26l.17,0,.14-.05a1,1,0,0,0,.36-.23l.1-.15,0-.13a.48.48,0,0,0-.06-.24l-.11-.12-.15-.1-.15-.09-.29-.14-.26-.19,0-.11,0-.13a.18.18,0,0,1,.09-.17l.25-.12h.47l.17-.07.16-.11.15-.09.15-.07Z"/><path class="cls-1" d="M195.06,161.11a.39.39,0,0,1,.26-.1c.25,0,.37.17.37.5l0,.12a.23.23,0,0,1-.07.08,13.6,13.6,0,0,1-1.44,1,10.55,10.55,0,0,1-1.46.74l-.19.07-.15,0a.36.36,0,0,1-.3-.23l0-.13,0-.18c0-.12.08-.21.24-.26a9.44,9.44,0,0,0,1.15-.61c.12-.08.25-.15.38-.22l.55-.34Z"/><path class="cls-1" d="M192.24,165.46l.25,0a.51.51,0,0,1,.36.2l.09.16a.36.36,0,0,0,.22.11.32.32,0,0,0,.18-.07l.16-.15.13-.1.12-.11a.34.34,0,0,1,.12-.06l.2,0h.09l.1.05.15.07.07,0a.33.33,0,0,1,.06.08l.09.2.07.19.05,0,.08,0a.86.86,0,0,0,.38-.11l.17-.13.16-.17.07-.07.11-.07.22-.11.18,0h.16c.05,0,.08,0,.11.08l.1.12,0,.11a.57.57,0,0,1-.15.4l-.19.22a.52.52,0,0,1-.22.17l-.25.13-.29.12-.3.09-.52.1a.82.82,0,0,1-.44-.11l-.17-.14-.18-.18h-.33a.9.9,0,0,0-.25,0,.51.51,0,0,0-.18.09l-.35.33-.55.44-.55.42-.15.11-.2.13-.24.15-.78.44-.6.33-.24.1-.27.09-.24.06h-.27l-.16,0-.19-.07a.47.47,0,0,1-.24-.48.39.39,0,0,1,.23-.35l.17,0h.13l.47,0a1.47,1.47,0,0,0,.52-.21l.54-.27.61-.33.56-.37.43-.34.1-.12a.2.2,0,0,0,0-.13l-.19-.37,0-.19V166a.13.13,0,0,1,0-.1l.1-.14A.76.76,0,0,1,192.24,165.46Z"/><path class="cls-1" d="M203.3,160.37h.11l.11,0a.24.24,0,0,1,.09.15l.07.18,0,.15c0,.22-.09.33-.29.33a3.34,3.34,0,0,0-.54.1l-.22.08-.17.08-.17.09a.57.57,0,0,0-.14.11l-.17.17-.15.19a.32.32,0,0,0,.14.21l.22.09.23,0h.78l.13,0a.31.31,0,0,1,.13.3.3.3,0,0,1-.21.31l-.31.07-.39,0h-.33l-.15,0-.42-.09a.74.74,0,0,1-.54-.31,1.29,1.29,0,0,1-.2-.68l-.09.11a.2.2,0,0,1-.13.11l-.11.11-.34.23-.51.33-.35.21-.31.18-.32.14-.28.11-.21.05-.1,0h-.07c-.19,0-.29-.11-.29-.34l0-.22a.28.28,0,0,1,.16-.14l.22-.06.28-.1a3.27,3.27,0,0,0,1.13-.62l.23-.19.23-.22-.87,0-.23,0h-.13l-.13-.06c-.14-.05-.21-.17-.21-.37a.34.34,0,0,1,.3-.37l.34,0H200a1.23,1.23,0,0,1,.63.14.64.64,0,0,1,.14.2l.11.2.12.29.15-.14.09-.08.06,0,.12-.08.24-.2L202,161l.66-.43A1.14,1.14,0,0,1,203.3,160.37Z"/><path class="cls-1" d="M201.7,164.83l.15,0H202a.31.31,0,0,1,.2.13.49.49,0,0,1,0,.12v.11a.65.65,0,0,1-.36.42l-.2.1.09.06.23.13a.83.83,0,0,1,.19.16.41.41,0,0,1,0,.19.64.64,0,0,1-.27.43l-.8.36.22.13.23.15a1.41,1.41,0,0,1,.05.24v.08a.21.21,0,0,1-.05.12l-.21.21-.46.35-.49.35-.39.29-1.05.7-.37.24-.34.17-.11,0-.16.09-.43.18a1.6,1.6,0,0,1-.53.15.45.45,0,0,1-.2,0l-.12-.06-.09-.08a.34.34,0,0,1-.09-.14,2,2,0,0,1,0-.21c0-.2.16-.34.47-.41l.21,0,.15,0,.19-.05.16-.06a.64.64,0,0,0,.21-.07l.27-.12.27-.15,1-.63.48-.32.67-.48-.38-.25a.41.41,0,0,1-.15-.32.27.27,0,0,1,0-.14,1,1,0,0,1,.18-.19l.31-.16.47-.23-.21-.13-.26-.15-.14-.09-.06-.06-.07-.12,0-.06,0-.07.06-.06.17-.14,0,0,.08,0a1.06,1.06,0,0,0,.25-.09l.2-.09.2-.09.18-.13Z"/><path class="cls-1" d="M86.63,157h.18l.13,0,.4.07.41.11.29.13a.66.66,0,0,1,.39.54l0,.2-.1.18-.12.16-.29.24-1,.66-.93.49-.38.17-.35.07A.39.39,0,0,1,85,160l-.07-.13,0-.16,0-.17a.46.46,0,0,1,.13-.16l.32-.15.61-.26.8-.41.32-.17.24-.17.05-.1c0-.15-.2-.23-.6-.23l-.42,0-.48.17c-.35,0-.52-.14-.52-.43a.36.36,0,0,1,.08-.24.9.9,0,0,1,.27-.17l.48-.16Zm3.45,0a2.65,2.65,0,0,1,.67.11.53.53,0,0,1,.19.06l.15.07.29.2a.55.55,0,0,1,.21.22.66.66,0,0,1,.07.3l0,.11-.07.13-.15.18-.15.17-.15.16-.2.17-.55.44-.54.37-.49.28-.21.05-.24,0h-.18a.26.26,0,0,1-.14-.09l-.07-.15a.16.16,0,0,0,0-.11.32.32,0,0,1,.1-.2l.17-.09.23-.11.33-.15.58-.32.44-.35.23-.2a.52.52,0,0,0,.1-.2.22.22,0,0,0-.15-.22l-.34,0-.22,0-.16,0-.17.07-.14,0-.12,0-.3,0-.12-.06,0,0-.08-.06s0-.1,0-.19v-.12l.08-.12a1.58,1.58,0,0,1,.22-.16l.15-.07.15,0a2.25,2.25,0,0,1,.35-.09l.26,0Z"/><path class="cls-1" d="M90.44,161.71h.13a.16.16,0,0,1,.11,0,.46.46,0,0,1,.22.25l0,.23a.29.29,0,0,1-.11.27l-.45.19.22.22a.69.69,0,0,1,.21.5v.21a.25.25,0,0,0,0,.08l0,.08a1.12,1.12,0,0,1-.61.79l-.33.18-.22.08-.28,0H89l-.28,0-.55-.14-.1-.06-.36.3-.17.16-.21.16-.47.34-.19.13-.36.22-.33.2-.67.37-.14.06-.16.08-.27.15-.27,0a.65.65,0,0,1-.58-.33l0-.08,0-.18A.29.29,0,0,1,84,166l.12-.1.1,0h.58a.9.9,0,0,0,.44-.11l.75-.39.26-.17.43-.29.28-.2.18-.19.15-.11.16-.18-.1-.21,0-.14,0-.13c0-.14.13-.25.31-.35l.23-.05H88l.21.09a.38.38,0,0,1,.2.22l0,.19.07,0,.19.13.2.08h.26l.18,0,.14,0a1.07,1.07,0,0,0,.36-.23l.09-.15,0-.13a.48.48,0,0,0-.06-.24l-.11-.12-.16-.1-.14-.09-.29-.14-.27-.19,0-.11,0-.13a.18.18,0,0,1,.09-.17l.25-.11h.22l.25,0,.17-.07.16-.11.15-.09.16-.07Z"/><path class="cls-1" d="M97.72,158.18c0,.65-.42,1.2-1.27,1.65a1.9,1.9,0,0,1-.86.26q-1.23,0-1.23-1.05a1.73,1.73,0,0,1,.71-1.36,2.3,2.3,0,0,1,1.49-.58,1.27,1.27,0,0,1,.46.07.87.87,0,0,1,.37.22A1,1,0,0,1,97.72,158.18Zm-.77.13c0-.29-.2-.44-.61-.44a1.1,1.1,0,0,0-.76.36,1.08,1.08,0,0,0-.38.78c0,.19.13.28.37.28h.19a1.29,1.29,0,0,0,.75-.34C96.81,158.73,97,158.52,97,158.31Z"/><path class="cls-1" d="M94.61,162l.24,0a.53.53,0,0,1,.36.2l.1.16a.33.33,0,0,0,.22.11.32.32,0,0,0,.17-.07l.17-.15.12-.1.13-.11.12-.06.19,0h.1l.09,0,.15.07.08,0a.15.15,0,0,1,.05.08l.09.2.07.19.06,0,.08,0a.89.89,0,0,0,.38-.11l.16-.13.17-.17.07-.06a.35.35,0,0,1,.11-.08l.21-.11.18,0h.17a.14.14,0,0,1,.11.08l.1.12,0,.11a.61.61,0,0,1-.14.4l-.2.23a.56.56,0,0,1-.21.16l-.25.13-.3.12-.29.09-.53.11a.83.83,0,0,1-.44-.12l-.16-.14-.18-.18h-.33a1,1,0,0,0-.26,0,.39.39,0,0,0-.17.09l-.36.33-.54.45-.55.41-.15.11-.21.13-.24.15-.78.44-.6.33-.24.1-.27.09-.24.06H91l-.17,0-.19-.07a.49.49,0,0,1-.23-.48.37.37,0,0,1,.23-.35l.17,0h.12l.47,0a1.57,1.57,0,0,0,.53-.21l.53-.27.62-.33.56-.37.43-.34.1-.12a.5.5,0,0,0,0-.13l-.2-.37,0-.19v-.09a.22.22,0,0,1,0-.1l.1-.14A.79.79,0,0,1,94.61,162Z"/><path class="cls-1" d="M104.51,157l.22-.09.23,0a.49.49,0,0,1,.35.09.26.26,0,0,1,.14.24.29.29,0,0,1-.12.27l-.09.07-.16.07-.3.14-.87.39c-.46.21-.69.49-.69.81a.36.36,0,0,0,.15.28l.09,0,.14,0,.3,0h.27l.11,0,.11,0a.91.91,0,0,1,.14-.07l.15-.05a.37.37,0,0,1,.22,0l.14.18a.43.43,0,0,1,0,.22c0,.23-.26.39-.65.5l-.25.06-.23,0-.36,0-.39-.11L103,160l-.18-.11a1,1,0,0,1-.5-.89.94.94,0,0,1,.2-.56l.18-.23.27-.26.21-.16.27-.17.48-.3Z"/><path class="cls-1" d="M103.12,162h.18a.3.3,0,0,1,.15,0h.14l.13,0a.87.87,0,0,1,.31.05l.32.08c.4.09.59.26.59.52a.78.78,0,0,1-.11.36,1.43,1.43,0,0,1-.14.2l-.21.21-.29.27-.36.29-.3.22-.46.31a13.89,13.89,0,0,1-1.36.76l-.57.27-.28.1-.33.11-.25,0-.18,0-.1-.06-.15-.1-.1-.2,0-.07c0-.24.08-.37.24-.4l.25,0h.23l.25,0,.16,0,.18,0,.22-.1.28-.15.48-.23.22-.1.37-.2.41-.23.24-.16.14-.11.21-.17a1.6,1.6,0,0,0,.26-.26l.07-.08,0,0a.09.09,0,0,0,0-.07l-.11-.05-.11,0-.26,0-.21,0h-.13l-.43.07-.06,0-.12.06-.14,0-.1,0h-.15l-.16,0-.19,0a.42.42,0,0,1-.27-.34.55.55,0,0,1,.06-.28.83.83,0,0,1,.27-.19l.23-.07.23-.08Z"/><path class="cls-1" d="M110.47,156.38a.7.7,0,0,1,.14-.08.3.3,0,0,1,.14,0c.24,0,.37.16.37.5a.23.23,0,0,1-.09.2,15.55,15.55,0,0,1-1.55,1c-.23.15-.46.27-.69.39a6.61,6.61,0,0,1-.68.29l-.33.11a.41.41,0,0,1-.17-.05.62.62,0,0,1-.12-.17l0-.1v-.14a.15.15,0,0,1,0-.08.32.32,0,0,1,.07-.18.37.37,0,0,1,.06-.08l.11,0a3.8,3.8,0,0,0,1.16-.54A9.74,9.74,0,0,0,110.47,156.38Zm.77,1.36a.41.41,0,0,1,.26-.1c.25,0,.38.17.38.5a.37.37,0,0,1,0,.12.17.17,0,0,1-.07.08,13.6,13.6,0,0,1-1.44,1,11.14,11.14,0,0,1-1.46.74l-.19.07-.16,0a.32.32,0,0,1-.29-.22l0-.14,0-.17a.28.28,0,0,1,.23-.27,8,8,0,0,0,1.16-.61l.37-.22.56-.34Z"/><path class="cls-1" d="M109.7,162h.18c.08,0,.13,0,.15,0h.14l.14,0a.87.87,0,0,1,.31.05l.32.08c.39.09.59.26.59.52a.7.7,0,0,1-.12.36,1.43,1.43,0,0,1-.14.2,1.88,1.88,0,0,1-.2.21l-.3.27-.35.29-.3.22-.46.31a14.05,14.05,0,0,1-1.37.76l-.57.27-.27.1-.34.11-.25,0-.17,0-.11-.06-.15-.1-.09-.2,0-.07c0-.24.08-.37.23-.4l.26,0H107l.26,0,.15,0,.18,0,.22-.1.29-.15.47-.23.23-.1.37-.2.4-.23.24-.16.15-.11.2-.17a1.6,1.6,0,0,0,.26-.26l.07-.08,0,0a.14.14,0,0,0,0-.07l-.12-.05-.11,0-.26,0-.21,0h-.12l-.43.07-.06,0-.13.06-.13,0-.1,0h-.16l-.16,0-.19,0a.42.42,0,0,1-.27-.34.55.55,0,0,1,.07-.28.91.91,0,0,1,.26-.19l.23-.07.23-.08Z"/><path class="cls-1" d="M128.92,185h.18l.13,0,.4.07.41.11.29.13a.66.66,0,0,1,.39.55l0,.2-.1.17-.12.16-.29.24-1,.67-.93.48-.38.18-.35.06a.39.39,0,0,1-.27-.11l-.07-.13,0-.16,0-.17a.46.46,0,0,1,.13-.15l.32-.16.61-.26.8-.41.32-.17.24-.17,0-.1c0-.15-.2-.23-.6-.23l-.41,0-.49.16c-.35,0-.52-.14-.52-.42a.37.37,0,0,1,.08-.25.9.9,0,0,1,.27-.17l.48-.15Zm3.45,0a2.59,2.59,0,0,1,.67.1.53.53,0,0,1,.19.06l.15.07.29.2a.62.62,0,0,1,.21.22.66.66,0,0,1,.07.3l0,.11-.07.13-.15.18-.15.17-.15.16-.2.17-.55.44-.54.37-.49.28-.21.05-.24,0H131a.29.29,0,0,1-.14-.08l-.07-.16a.18.18,0,0,0,0-.11.28.28,0,0,1,.1-.19l.17-.09.23-.11.33-.16.58-.32.44-.35.23-.2a.46.46,0,0,0,.1-.19.2.2,0,0,0-.15-.22l-.34,0h-.22l-.16,0-.17.07-.14,0-.12,0-.3,0-.12-.06,0,0-.08-.05s0-.11,0-.2v-.11a.57.57,0,0,1,.08-.13,1,1,0,0,1,.22-.15l.15-.07.15,0a1.54,1.54,0,0,1,.35-.1l.26,0Z"/><path class="cls-1" d="M132.73,189.75h.13s.09,0,.11,0a.46.46,0,0,1,.22.25l0,.23c0,.14,0,.23-.11.27l-.45.19.22.22a.7.7,0,0,1,.21.5v.22a.17.17,0,0,0,0,.07l0,.08a1.1,1.1,0,0,1-.61.79l-.33.18-.22.08-.28,0h-.29l-.28,0-.55-.13-.1-.06-.36.3-.17.15-.21.16-.47.35-.19.12-.36.23-.33.19-.67.38-.14.06-.16.07-.27.15-.27,0a.66.66,0,0,1-.58-.32l0-.09,0-.18a.3.3,0,0,1,.1-.25l.12-.1.1,0H127a1,1,0,0,0,.44-.11l.75-.4.26-.17.43-.28.28-.2.18-.19.15-.12.16-.18-.1-.21,0-.13,0-.14a.54.54,0,0,1,.31-.35l.23-.05h.16l.21.1a.34.34,0,0,1,.2.21l0,.19.07,0,.19.13.2.08h.26l.18,0,.14-.06a1.07,1.07,0,0,0,.36-.23l.09-.15.05-.13a.48.48,0,0,0-.06-.24l-.11-.12-.16-.1-.14-.09-.29-.14-.27-.19-.05-.1,0-.14a.19.19,0,0,1,.09-.17l.25-.11h.22l.25,0,.17-.07.16-.11.15-.09.16-.07Z"/><path class="cls-1" d="M139.6,185.66a.41.41,0,0,1,.26-.1c.25,0,.38.17.38.5l0,.12a.13.13,0,0,1-.07.08,14.34,14.34,0,0,1-1.45,1,11.58,11.58,0,0,1-1.45.73l-.19.07-.16,0a.32.32,0,0,1-.29-.23l0-.13,0-.18c0-.12.08-.21.24-.26a8.24,8.24,0,0,0,1.14-.61l.38-.22.56-.34Z"/><path class="cls-1" d="M139.72,191.21v.33l-.05.17a.18.18,0,0,1-.06.13l-.19.28-.1.12a1.19,1.19,0,0,1-1,.35h-.2l-.14,0-.11,0-.13-.06-.23-.15-.23-.19-.22-.28-.05-.07a.82.82,0,0,0-.23.13l-.22.2-.29.3.29.12.19.1a.55.55,0,0,1,.25.86,1.29,1.29,0,0,1-.37.39,2.9,2.9,0,0,1-.38.21l-.25.11-.48.18-.2.05-.48.11h-.2l-.14,0-.15,0-.19-.08a.38.38,0,0,1-.11-.11l0-.29a.76.76,0,0,1,0-.32l.11-.08.18,0h.31l.45.11.33,0a.77.77,0,0,0,.57-.2l.11-.16.05-.16c0-.13-.12-.23-.36-.31l-.3-.11a.38.38,0,0,1-.26-.42,1,1,0,0,1,.2-.34l.66-.62.26-.22.37-.25.49-.27a3,3,0,0,1,1.53-.43l.24,0a.82.82,0,0,1,.45.35l.14.21a1.55,1.55,0,0,1,.08.23Zm-.8.19a.35.35,0,0,0-.34-.38h-.16a.75.75,0,0,0-.26,0,.91.91,0,0,0-.28.14l-.11.1-.1.1.23.24a.86.86,0,0,0,.22.12l.11,0,.18,0a.62.62,0,0,0,.31-.08l.11-.05.06-.1Z"/><path class="cls-1" d="M146.1,195.8a.3.3,0,0,1,.3.2l0,.16v.11a.14.14,0,0,1-.05.11l-.13.15-.09.05-.19.09-.2.09-.35.34-.33.23-.57.37-.5.3-.28.16a2.09,2.09,0,0,1-.34.17l-.56.21-.2.06a.42.42,0,0,1-.3-.14.51.51,0,0,1-.12-.31l0-.15a.23.23,0,0,1,.07-.11l.08-.06.26-.14.58-.25.48-.24.33-.15.3-.17.58-.37.33-.22.29-.23.32-.19A.48.48,0,0,1,146.1,195.8Z"/><path class="cls-1" d="M145.47,190.1l.15-.1.14,0,.22,0a.25.25,0,0,1,.14.13l0,.17a.46.46,0,0,1,0,.2l-.2.16-.25.28-.16.12-.13.1-1,.63-1.05.59-.5.27-.5.2-.51.2a1.61,1.61,0,0,1-.5.09.78.78,0,0,1-.44-.15l-.15-.12a.2.2,0,0,1,0-.08.43.43,0,0,1,0-.11v-.12a.22.22,0,0,1,0-.1.37.37,0,0,1,.21-.23l.2-.08.18,0,.32,0h.11a1.88,1.88,0,0,0,.78-.2l.56-.27,1.24-.72.88-.58Z"/><path class="cls-1" d="M96.4,205.51l.17,0h.07a.2.2,0,0,1,.11,0l.09.06.1.11,0,.18,0,.11a.29.29,0,0,1-.08.18l-.14.12-.41.32-.53.38-.52.35-.87.52L94,208c-.2.1-.38.19-.54.25l-.19.07-.24.06h-.28a.34.34,0,0,1-.18-.08.37.37,0,0,1-.17-.21v-.16a.53.53,0,0,1,.11-.28l.2-.22.14-.16.09-.13.06-.22v-.78a1,1,0,0,1,0-.28.19.19,0,0,1,.08-.07l.14-.08.23-.05.19,0a.27.27,0,0,1,.19.11.4.4,0,0,1,.17.36l0,.12,0,.13-.12.27-.11.41-.1.27.18-.07.19-.12.29-.17.37-.22.69-.45.15-.11.23-.22.41-.31Z"/><path class="cls-1" d="M96,200.49h.41l.13,0a1.34,1.34,0,0,1,.75.18.57.57,0,0,1,.26.49,1.42,1.42,0,0,1-.48.83l-.29.32-.38.31a2.72,2.72,0,0,1-.37.27,3.17,3.17,0,0,1-.45.23l-.67.28-.34.16-.23,0s-.1-.05-.18-.15l-.06-.11,0-.12a.36.36,0,0,1,.08-.25.67.67,0,0,1,.27-.19l.29-.08.34-.11a1.41,1.41,0,0,0,.35-.15,1.72,1.72,0,0,0,1.11-1l-.06-.05-.08,0-.25,0-.19,0-.19,0H95.5l-.1,0-.16.08-.13.07-.11,0h-.18a.37.37,0,0,1-.18-.08l-.12-.18,0-.14a.32.32,0,0,1,.16-.3,4.08,4.08,0,0,1,.64-.26A2.88,2.88,0,0,1,96,200.49Z"/><path class="cls-1" d="M87.75,205.51l.24,0a.51.51,0,0,1,.36.2l.1.16a.33.33,0,0,0,.22.11.38.38,0,0,0,.18-.07l.16-.15.12-.1.13-.11.12-.06.19,0h.1l.09,0,.16.07.07.05a.33.33,0,0,1,.06.08l.09.2.06.19.06,0,.08,0a.89.89,0,0,0,.38-.11l.16-.13.17-.17.07-.06.11-.08.21-.11.18,0h.17a.14.14,0,0,1,.11.08l.1.12,0,.11a.59.59,0,0,1-.14.4l-.19.23a.59.59,0,0,1-.22.16l-.25.13-.3.13-.29.08-.53.11a.83.83,0,0,1-.44-.12l-.16-.14-.18-.17H89a1,1,0,0,0-.26,0,.39.39,0,0,0-.17.09l-.36.33-.54.45-.55.41L87,208l-.21.13-.24.15-.78.44-.6.33-.23.1-.28.1-.24.05h-.26l-.16,0-.2-.07a.47.47,0,0,1-.23-.47.37.37,0,0,1,.23-.35l.17,0h.59a1.5,1.5,0,0,0,.53-.21l.53-.27.62-.33.56-.37.43-.34.1-.12a.28.28,0,0,0,0-.12l-.2-.38,0-.19V206a.22.22,0,0,1,0-.1l.1-.14A.79.79,0,0,1,87.75,205.51Z"/><path class="cls-1" d="M91,201.16a.43.43,0,0,1,.26-.1c.25,0,.38.17.38.5l0,.12a.17.17,0,0,1-.07.08,15.45,15.45,0,0,1-1.44,1,12.42,12.42,0,0,1-1.46.73l-.19.07-.16,0a.32.32,0,0,1-.29-.23l0-.13,0-.18c0-.12.08-.21.24-.26a8.72,8.72,0,0,0,1.15-.61l.37-.22c.2-.11.38-.23.56-.34Z"/><path class="cls-1" d="M84.6,205.6l.15-.1.14,0,.22,0a.25.25,0,0,1,.14.13l0,.17a.46.46,0,0,1,0,.2l-.2.16-.25.28-.16.12-.13.1-1,.63-1,.59-.5.26-.5.21-.51.2a1.61,1.61,0,0,1-.5.09.78.78,0,0,1-.44-.15l-.15-.12a.19.19,0,0,1,0-.09.3.3,0,0,1,0-.1v-.12a.22.22,0,0,1,0-.1.37.37,0,0,1,.21-.23l.2-.08.18,0,.32,0h.11a1.88,1.88,0,0,0,.78-.2l.56-.27,1.24-.72.88-.58Z"/><path class="cls-1" d="M86.11,201.16a.41.41,0,0,1,.26-.1c.25,0,.38.17.38.5l0,.12s0,0-.07.08a14.34,14.34,0,0,1-1.45,1,11.58,11.58,0,0,1-1.45.73l-.2.07-.15,0a.32.32,0,0,1-.29-.23l0-.13,0-.18c0-.12.08-.21.24-.26a8.24,8.24,0,0,0,1.14-.61l.38-.22.56-.34Z"/><path class="cls-1" d="M76.48,205.51l.25,0a.51.51,0,0,1,.35.2l.1.16a.33.33,0,0,0,.22.11.38.38,0,0,0,.18-.07l.16-.15.13-.1.12-.11.12-.06.2,0h.09l.1,0,.15.07.07.05a.33.33,0,0,1,.06.08l.09.2.07.19,0,0,.08,0a.89.89,0,0,0,.38-.11l.16-.13.17-.17.07-.06.11-.08.22-.11.18,0h.16s.08,0,.11.08l.1.12,0,.11a.54.54,0,0,1-.14.4l-.19.23a.52.52,0,0,1-.22.16l-.25.13-.29.13-.3.08-.53.11a.86.86,0,0,1-.44-.12l-.16-.14-.18-.17h-.33a1,1,0,0,0-.26,0,.46.46,0,0,0-.17.09l-.36.33-.54.45-.55.41-.15.11-.2.13-.24.15-.79.44-.59.33-.24.1-.28.1-.24.05h-.26l-.16,0-.19-.07a.46.46,0,0,1-.24-.47.37.37,0,0,1,.23-.35l.17,0h.6a1.55,1.55,0,0,0,.52-.21l.53-.27.62-.33.56-.37.43-.34.1-.12a.28.28,0,0,0,0-.12l-.2-.38,0-.19V206a.22.22,0,0,1,0-.1l.11-.14A.73.73,0,0,1,76.48,205.51Z"/><path class="cls-1" d="M79.68,201.71c0,.65-.43,1.2-1.27,1.65a1.9,1.9,0,0,1-.87.26q-1.23,0-1.23-1.05a1.73,1.73,0,0,1,.71-1.36,2.31,2.31,0,0,1,1.5-.58,1.3,1.3,0,0,1,.46.08.91.91,0,0,1,.37.21A1,1,0,0,1,79.68,201.71Zm-.77.13c0-.29-.21-.44-.61-.44a1.12,1.12,0,0,0-.77.36,1.06,1.06,0,0,0-.37.78c0,.19.12.28.37.28h.18a1.38,1.38,0,0,0,.76-.33C78.76,202.26,78.91,202.05,78.91,201.84Z"/><path class="cls-1" d="M73.85,205.25H74a.2.2,0,0,1,.11,0,.5.5,0,0,1,.22.25l0,.23a.29.29,0,0,1-.11.27l-.46.19.22.22a.66.66,0,0,1,.22.5v.22s0,0,0,.07a.16.16,0,0,1,0,.08,1.14,1.14,0,0,1-.6.79l-.33.18-.23.08-.28,0h-.28l-.29,0-.55-.13-.1-.07-.35.31-.17.15-.22.16-.46.34-.2.13-.36.22-.33.2-.67.37-.14.07-.15.07-.28.15-.27,0a.62.62,0,0,1-.57-.33l0-.08,0-.18a.32.32,0,0,1,.09-.25l.12-.1.1,0h.58a1,1,0,0,0,.44-.11l.75-.4.26-.17.43-.28.28-.2.18-.2.15-.11.17-.18-.11-.21,0-.13,0-.14a.52.52,0,0,1,.3-.35l.24-.05h.15l.21.09a.4.4,0,0,1,.21.22l0,.19.06,0,.19.13.21.08h.26l.17,0,.14-.06a.91.91,0,0,0,.36-.23l.1-.15,0-.13a.48.48,0,0,0-.06-.24l-.11-.12-.16-.1-.14-.09-.29-.14-.27-.19,0-.1,0-.14a.19.19,0,0,1,.09-.17l.26-.11h.21l.25,0,.18-.07.15-.11.15-.09.16-.07Z"/><path class="cls-1" d="M70.42,200.54h.18l.14,0,.4.07.41.11.29.13a.67.67,0,0,1,.38.55l0,.19-.1.18L72,202l-.28.24-1,.67-.92.48-.39.17-.35.07a.36.36,0,0,1-.26-.11l-.08-.13,0-.16,0-.17a.38.38,0,0,1,.13-.15l.33-.16.61-.26.79-.41.33-.17.24-.17,0-.1c0-.15-.2-.23-.6-.23l-.41,0-.49.17c-.34,0-.51-.14-.51-.43a.32.32,0,0,1,.08-.24.78.78,0,0,1,.27-.17l.48-.15Zm3.45,0a2.59,2.59,0,0,1,.67.1.59.59,0,0,1,.2.06l.14.07.3.2a.53.53,0,0,1,.2.22.56.56,0,0,1,.07.3l0,.11-.07.13-.15.18-.15.17-.14.16-.2.17-.55.44-.55.37-.49.28-.21.05-.23,0h-.18a.31.31,0,0,1-.15-.09l-.07-.15a.27.27,0,0,0,0-.11.3.3,0,0,1,.09-.2l.18-.08.22-.11.34-.16.57-.32.44-.35.24-.2a.46.46,0,0,0,.09-.2.2.2,0,0,0-.15-.21l-.34,0-.22,0-.16,0-.17.07-.14,0-.11,0-.31,0-.12-.06,0,0-.07-.06a.7.7,0,0,1-.06-.19l0-.11a.33.33,0,0,1,.07-.13l.22-.16.15-.06.15,0a1.69,1.69,0,0,1,.35-.1l.26,0Z"/><path class="cls-1" d="M11.48,128.5c0,.65-.42,1.2-1.27,1.65a1.9,1.9,0,0,1-.86.26q-1.23,0-1.23-1A1.73,1.73,0,0,1,8.83,128a2.36,2.36,0,0,1,1.49-.58,1.26,1.26,0,0,1,.46.08.85.85,0,0,1,.37.21A1,1,0,0,1,11.48,128.5Zm-.77.13c0-.29-.2-.43-.61-.43a1.1,1.1,0,0,0-.76.36,1.07,1.07,0,0,0-.38.77c0,.19.13.28.38.28h.18a1.33,1.33,0,0,0,.75-.33C10.57,129.05,10.71,128.84,10.71,128.63Z"/><path class="cls-1" d="M11,132.23c.35,0,.53.1.53.31a.8.8,0,0,1-.2.5l-.19.2-.25.16-.25.1-.33.09-.45,0H9.55l-.43,0H8.88l-.09.12-.17.18-.33.35-.24.2-.27.19-.8.55-.46.29-.32.16-.23.12-.43.21-.22.08a1.57,1.57,0,0,1-.39.08l-.09,0-.13-.07-.11,0-.12-.1a.41.41,0,0,1-.13-.2l0-.13v-.15a.53.53,0,0,1,.15-.32.52.52,0,0,1,.15-.07l.16,0h.1l.19,0,.2,0,.18,0,.2-.07.58-.26.3-.16.28-.16a5.68,5.68,0,0,0,.78-.57l.15-.16.06-.15-.08-.11a.36.36,0,0,1-.11-.21.87.87,0,0,1,.85-.84.72.72,0,0,1,.38.16c.16.11.23.21.23.31l.44,0a1.32,1.32,0,0,0,.46-.11,3.27,3.27,0,0,0,.57-.34l.13-.08.11-.07A.63.63,0,0,1,11,132.23Z"/><path class="cls-1" d="M17.72,128a.39.39,0,0,1,.26-.1c.25,0,.37.17.37.5l0,.12s0,.06-.06.08a15.56,15.56,0,0,1-1.45,1,11.69,11.69,0,0,1-1.46.73l-.19.07-.15,0a.32.32,0,0,1-.29-.23l0-.13,0-.18c0-.12.08-.21.23-.26a8.1,8.1,0,0,0,1.15-.61l.38-.22.55-.34Z"/><path class="cls-1" d="M17.54,133.5c0,.35-.34.76-1,1.23l-1.26.84-.54.32a4.8,4.8,0,0,1-1.9.84c-.44,0-.66-.17-.66-.52a.45.45,0,0,1,.24-.4.59.59,0,0,1,.33-.06h.07l.09.05.11,0,.06,0h.17l.13,0,.22-.07.57-.3.23-.12.39-.24L15,135c-.47-.21-.71-.48-.71-.8a1.33,1.33,0,0,1,.51-1L15,133l.24-.18a2.32,2.32,0,0,1,1.06-.27,1.47,1.47,0,0,1,1,.37A.79.79,0,0,1,17.54,133.5Zm-.87-.1c-.06-.11-.23-.16-.52-.16a1.35,1.35,0,0,0-.79.37l-.11.12-.11.18-.05.14c0,.1.06.18.19.26a.28.28,0,0,0,.15.05l.13,0,.21-.06.37-.18c.37-.25.56-.45.56-.6A.14.14,0,0,0,16.67,133.4Z"/><path class="cls-1" d="M23.15,126.7l.13-.08.14,0c.25,0,.37.16.37.5a.22.22,0,0,1-.08.2c-.52.39-1,.74-1.55,1-.24.14-.47.27-.69.38l-.68.3-.33.11a.32.32,0,0,1-.17-.06.62.62,0,0,1-.12-.17l0-.1v-.14a.19.19,0,0,1,0-.08.34.34,0,0,1,.08-.18l.06-.08.1-.05a3.71,3.71,0,0,0,1.17-.54A9.74,9.74,0,0,0,23.15,126.7Zm.77,1.36a.39.39,0,0,1,.26-.1c.25,0,.38.17.38.5a.37.37,0,0,1,0,.12s0,0-.07.08a14.34,14.34,0,0,1-1.45,1,12.3,12.3,0,0,1-1.45.73l-.2.07-.15,0a.32.32,0,0,1-.29-.22l0-.14,0-.17c0-.13.07-.21.22-.27a7,7,0,0,0,1.16-.61l.38-.22.56-.34Z"/><path class="cls-1" d="M22.38,132.31h.18l.15,0H23a.81.81,0,0,1,.3,0l.33.08c.39.09.59.26.59.52a.7.7,0,0,1-.12.37l-.14.19a1.29,1.29,0,0,1-.2.21l-.3.27-.35.29-.31.22-.46.31a11.27,11.27,0,0,1-1.36.76l-.57.28-.27.09-.34.11-.25,0-.18,0-.1-.05-.15-.11-.1-.2,0-.07c0-.24.07-.37.23-.4l.25,0h.23l.25,0,.16,0,.18,0a1,1,0,0,0,.22-.1l.29-.15.47-.23.22-.1.38-.2.4-.23.24-.15.15-.11.2-.18a1.6,1.6,0,0,0,.26-.26l.07-.08,0,0a.11.11,0,0,0,0-.07l-.11,0-.11,0-.26,0-.21,0-.12,0-.43.06-.07,0-.12.06-.14,0-.09,0H21.2l-.19,0a.42.42,0,0,1-.27-.34.55.55,0,0,1,.06-.28,1.48,1.48,0,0,1,.27-.19l.23-.07.23-.08Z"/><path class="cls-1" d="M250.82,44.41c0,3.56-2.23,6.52-6,6.52s-6-3-6-6.52,2.23-6.52,6-6.52S250.82,40.85,250.82,44.41Zm-9.75,0c0,2.39,1.12,4.74,3.78,4.74s3.79-2.35,3.79-4.74-1.12-4.74-3.79-4.74S241.07,42,241.07,44.41Z"/><path class="cls-1" d="M252.41,40.45c1.67,0,3.26-.56,3.56-2h1.62V50.64h-2.18V42h-3Z"/><path class="cls-1" d="M241.61,101.3c0,3.56-2.24,6.53-6,6.53s-6-3-6-6.53,2.23-6.52,6-6.52S241.61,97.75,241.61,101.3Zm-9.75,0c0,2.39,1.11,4.75,3.78,4.75s3.79-2.36,3.79-4.75-1.12-4.74-3.79-4.74S231.86,98.92,231.86,101.3Z"/><path class="cls-1" d="M251.29,107.53H243a5.46,5.46,0,0,1,2.68-4.62c1.59-1.15,3.65-2.11,3.68-4a1.93,1.93,0,0,0-2.06-2.16c-1.57,0-2,1.34-2.09,3.05h-2c0-2.71,1.48-4.71,4.21-4.71a3.63,3.63,0,0,1,3.92,3.75c0,1.93-1.33,3.14-2.72,4.11s-2.9,1.73-3.25,2.81h5.95Z"/><path class="cls-1" d="M209.89,184c0,3.56-2.23,6.53-6,6.53s-6-3-6-6.53,2.23-6.52,6-6.52S209.89,180.45,209.89,184Zm-9.75,0c0,2.39,1.12,4.75,3.79,4.75s3.78-2.36,3.78-4.75-1.12-4.74-3.78-4.74S200.14,181.62,200.14,184Z"/><path class="cls-1" d="M214.53,183.09c1.33,0,2.71-.42,2.71-1.92a1.75,1.75,0,0,0-1.9-1.73,2.18,2.18,0,0,0-2,2.5h-2c.1-2.38,1.58-4.15,4-4.15,1.9,0,3.86,1.09,3.86,3.26a2.57,2.57,0,0,1-1.73,2.61v0a2.87,2.87,0,0,1,2.21,3.05c0,2.3-2,3.73-4.32,3.73-2.83,0-4.24-1.71-4.29-4.25h2a2.25,2.25,0,0,0,2.3,2.6,2.14,2.14,0,0,0,2.34-2.18c0-1.91-1.63-2.15-3.2-2.08Z"/><path class="cls-1" d="M135.92,214c0,3.56-2.23,6.52-6,6.52s-6-3-6-6.52,2.24-6.52,6-6.52S135.92,210.42,135.92,214Zm-9.75,0c0,2.39,1.12,4.74,3.79,4.74s3.78-2.35,3.78-4.74-1.11-4.75-3.78-4.75S126.17,211.59,126.17,214Z"/><path class="cls-1" d="M145.69,217.31h-1.57v2.9h-1.88v-2.9H137v-2l5.23-7.34h1.88v7.74h1.57Zm-7.15-1.57h3.7v-5.37h0Z"/><path class="cls-1" d="M11.93,154.52c0,3.56-2.23,6.52-6,6.52s-6-3-6-6.52S2.23,148,6,148,11.93,151,11.93,154.52Zm-9.75,0c0,2.39,1.12,4.74,3.78,4.74s3.79-2.35,3.79-4.74S8.63,149.78,6,149.78,2.18,152.13,2.18,154.52Z"/><path class="cls-1" d="M14.74,148.54h6.32v1.78H16.23l-.63,3.1,0,0a3.11,3.11,0,0,1,2.25-.93c2.43,0,3.82,1.75,3.82,4.08A4.15,4.15,0,0,1,17.48,161c-2.35,0-4.19-1.27-4.27-3.71h2a2.09,2.09,0,0,0,2.25,2.05c1.69,0,2.26-1.2,2.26-2.68a2.28,2.28,0,0,0-2.32-2.55,1.9,1.9,0,0,0-2,1.12h-2Z"/></g><g id="Lines"><line class="cls-6" x1="113.96" y1="38.2" x2="243.55" y2="82.71"/><line class="cls-6" x1="83.41" y1="60.32" x2="238.29" y2="184.12"/><polyline class="cls-6" points="16.5 181.22 140.97 107.74 171.38 234.43"/></g></g></g></svg>