<svg xmlns="http://www.w3.org/2000/svg" viewBox="0 0 172.86 140.09"><defs><style>.cls-1{fill:#f1f2f2;}.cls-2{fill:#396287;fill-rule:evenodd;}.cls-3{isolation:isolate;}.cls-4{fill:#383838;}.cls-5{fill:none;stroke:#1a1a18;stroke-miterlimit:22.93;stroke-width:0.46px;stroke-dasharray:4.19 2.1;}</style></defs><title>LH</title><g id="Layer_2" data-name="Layer 2"><g id="Layer_1-2" data-name="Layer 1"><g id="Layer_2-2" data-name="Layer 2"><g id="Layer_1-2-2" data-name="Layer 1-2"><g id="G1"><path class="cls-1" d="M100.42,17.52,74.59,60.1,44,52.41a1.42,1.42,0,0,0-.25-1.62,2,2,0,0,0-1.05-.67l.67-1.51a5.17,5.17,0,0,0,1.28,2.25c.84,1.32,1.32,1.23,1.45-.23.17-2.1.31-4.2.48-6.29a1.29,1.29,0,0,0-.35-.9l1.27-1a6.66,6.66,0,0,0,1.95,2c1.05,1.26,2.37-.8,3.19-1.82a8.94,8.94,0,0,0,2.85-4.95,1.91,1.91,0,0,0-.44-1.09l1.34-.86a1.41,1.41,0,0,0,0,.29c.3,1.51,1.41,3.59,1.91,3.59a2.88,2.88,0,0,0,1.76-2.69,3.4,3.4,0,0,0-1.26-2.68l1.81-.9a4.42,4.42,0,0,0,.14,1.49c.4,1.72.34,3.79,1.22,3.69s3.4-1.11,2.33-3.23c-.17-.34-.63-.38-.53-.74.57-1.57.49-3-.75-3.06.71-4.19,3.08-5,5-4.84l.84-.82a1.52,1.52,0,0,0,.88,1A7.36,7.36,0,0,1,73.88,29c.59.34,1.17.32.73-1.05s-.58-3.12-1-4.63a1.94,1.94,0,0,0-1.74-1l1-3.56a2.05,2.05,0,0,0,1.38.12,11.7,11.7,0,0,0,3.86.91c1.07.2,1.28,0,.61-.89s-1.74-1.48-.36-4l.78-.63a22.66,22.66,0,0,1,5.53-2.29,1,1,0,0,0,.3-.5l1-.29c1.79-.9,3.53-1.78,3.4-3.25,0-.63,0-1-.29-1.2.69-.29,1.11-.88,2.09-.86l.59.3c-1.34,0-1,1.17,0,2.09a28.36,28.36,0,0,0,7.38,6.86A8.77,8.77,0,0,1,100.42,17.52Z"/><path class="cls-2" d="M87.49,6.54c1.06-.15,2.09,0,1.82,1.36.13,1.49-1.61,2.35-3.4,3.25l-1,.38a1.22,1.22,0,0,1-.3.48,21.74,21.74,0,0,0-5.51,2.28c-.27.21-.55.42-.8.65-1.38,2.52,0,2.94.36,4s.46,1.09-.61.88a11.79,11.79,0,0,1-3.86-1h0c-1.44.15-2.53-.84-2-2.64A7.09,7.09,0,0,1,77,12a39.85,39.85,0,0,1,6-3.65,42.39,42.39,0,0,1,4.53-1.82"/><path class="cls-2" d="M87.88,13a.67.67,0,0,1-.16,1.34.68.68,0,0,1-.59-.66.72.72,0,0,1,.75-.68h0"/><path class="cls-2" d="M83.86,18.61a.8.8,0,0,1,.26,1.57.57.57,0,0,1-.26,0,.79.79,0,0,1-.92-.65.8.8,0,0,1,.66-.92h.26"/><path class="cls-2" d="M86.31,14.52c.46,0,.82.61.82,1.37s-.36,1.34-.82,1.34-.84-.61-.84-1.34.38-1.37.84-1.37"/><path class="cls-2" d="M74.15,20c.44,0,1.38.32,2,.4,1.26.15,1,1.14,1,1.55s-.48,1.26-1.78.7-2.9-1.43-2.9-2,.63-.65,1.72-.65"/><path class="cls-2" d="M73.54,23.2c-.73-1.3-2.09-1.09-3-.94a2.79,2.79,0,0,0-1.32,2.37,1.31,1.31,0,0,0,.31,1.81,1.22,1.22,0,0,0,.36.18,7.39,7.39,0,0,1,4.07,2.24c.61.34,1.17.34.73-1s-.58-3.13-1-4.64"/><path class="cls-2" d="M72.7,28.91c.57.16.86.42.59.83s-.61.13-1.09-.14-.8-.61-.67-.84.63,0,1.17.15"/><path class="cls-2" d="M68.49,34c.42,0,.94.38.71.86s0,.9-.21.9-1.07-.46-1.07-.9.17-.82.57-.86"/><path class="cls-2" d="M65.35,33.67c.33,0,.75.62.9,1.34s-.15,1.23-.63,1.17S65,35.64,65,35s.12-1.34.46-1.34"/><path class="cls-2" d="M62.45,31.44c1.78-.42,2,1.2,1.34,3-.12.34.36.38.51.71,1.09,2.1-1.45,3.15-2.33,3.23s-.82-2-1.22-3.69,0-2.83,1.7-3.25"/><path class="cls-2" d="M68.66,27.52c-.65-1.11-1.45-.92-2.29-.14A5.27,5.27,0,0,0,65.32,29a1.16,1.16,0,0,0,.86,1.89,18,18,0,0,0,3.38,1.36c.78.38,1.26,0,1.17-.94a4,4,0,0,0-2.09-3.78"/><path class="cls-2" d="M58.07,33.77c.94,0,2.1,1.45,2.1,3a2.92,2.92,0,0,1-1.79,2.7c-.5,0-1.61-2.1-1.9-3.6a1.6,1.6,0,0,1,1-2,1.57,1.57,0,0,1,.68-.07"/><path class="cls-2" d="M53.29,36.29c1-.32,1.93-.4,2.1,1.19a8.88,8.88,0,0,1-2.86,5c-.81,1-2.09,3.06-3.18,1.8a6.26,6.26,0,0,1-2.1-2.41.6.6,0,0,1,.27-.81l0,0a41.09,41.09,0,0,0,5.74-4.71"/><path class="cls-2" d="M44.71,43.52c1-.57,1.72-.55,1.85.67l-.5,6.29c0,1.49-.59,1.55-1.45.23A6.1,6.1,0,0,1,43.16,48a7.8,7.8,0,0,1,1.55-4.48"/><path class="cls-2" d="M44,52.41l-2.89-.73.44-1.14c.73-.65,1.47-.56,2.2.28A1.37,1.37,0,0,1,44,52.41Z"/><path class="cls-2" d="M102.9,13.56l-2.44,4a9.51,9.51,0,0,0-1.34-2.49,28.26,28.26,0,0,1-7.5-6.88c-1.07-1.13-1.39-2.56,1.42-2a11.94,11.94,0,0,1,6.88,3.27A17.32,17.32,0,0,1,102.9,13.56Z"/><path class="cls-2" d="M70.57,54.88a1.09,1.09,0,0,1,.59,2.1,1,1,0,0,1-.59,0,1.09,1.09,0,0,1-.6-2.1,1.22,1.22,0,0,1,.6,0"/><path class="cls-2" d="M52.79,44A1.15,1.15,0,0,1,54,45.11a1.2,1.2,0,1,1-2.39,0A1.16,1.16,0,0,1,52.79,44"/><path class="cls-2" d="M91.68,13.18A1.3,1.3,0,0,1,93,14.44a1.28,1.28,0,0,1-1.32,1.24h0a1.28,1.28,0,0,1-1.32-1.24h0a1.3,1.3,0,0,1,1.32-1.26"/><path class="cls-2" d="M97.65,15a1.26,1.26,0,1,1-1.32,1.26A1.31,1.31,0,0,1,97.65,15"/><path class="cls-2" d="M95.28,13.06a1,1,0,1,1-1.06,1,1,1,0,0,1,1.06-1h0"/><path class="cls-2" d="M75.91,24.38c.72,0,1.28.29,1.28.67s-.56.67-1.28.67-1.26-.29-1.26-.67.57-.67,1.26-.67"/></g><g id="G2"><path class="cls-1" d="M58.28,88.05a3.84,3.84,0,0,1-3.5-4.15c0-.05,0-.11,0-.17h.65c2.1-.31,1.7-2.22-.63-2.85a7.65,7.65,0,0,0-5.09.57c-.61.25-1.49.56-2.1,0-1-1-2.64-.34-3.84-.25a9.06,9.06,0,0,1-3.65,1.21,7.57,7.57,0,0,0-5.34,2.27c-1.51,0-2.67-.23-2.83-2.1l2.09-5.12c-.35-.79-.75-1.32-1.19-1.34a12.23,12.23,0,0,1,2.77-7.5,11.82,11.82,0,0,0-.59,2.09c-.4,1.93.36,3.76,1.87,3.57s1.63-1.87,1.63-3.67-.8-3.46-1.63-3.46a.83.83,0,0,0-.61.29l.79-2.09a1.4,1.4,0,0,0,1.18.75c.79,0,1.32-.5,1.63-1.61a1.72,1.72,0,0,0-1.3-2.06,1.55,1.55,0,0,0-.37,0h-.13l.27-.78A1.17,1.17,0,0,0,39,62a2.08,2.08,0,0,0,1.76,0v.1a1.22,1.22,0,0,0,.9,1.26c.65.27.8-.46.67-1.26s-.35-1.13-.79-1.13a.73.73,0,0,0-.53.27,6.17,6.17,0,0,1-.35-1.13c0-.5.35-1.15,0-1.72a2.6,2.6,0,0,0-.82-.69l.5-1.36a.74.74,0,0,1,0,.21c.84.88,1.51.58,2.1-.9.5-.76-.5-1.51-.46-1.85s1.84-.84,2.09-1.38h0l30.64,7.8"/><path class="cls-2" d="M44,52.41h0c-.27.54-2,.8-2.09,1.38s1,1.09.44,1.85c-.51,1.49-1.18,1.78-2.1.9,0-1-.86-1.57.23-3.42l.59-1.51Z"/><path class="cls-2" d="M41.49,61.13c.44,0,.67.36.79,1.15s0,1.51-.65,1.24a1.22,1.22,0,0,1-.92-1.24v-.12a2,2,0,0,1-1.76,0c-.71-.17-1.09-.82-1.11-1.93a9.34,9.34,0,0,1,.79-2.1c.65-.71,1.22-.58,2.1.53.29.56,0,1.21,0,1.72a4.79,4.79,0,0,0,.36,1.15.57.57,0,0,1,.5-.29"/><path class="cls-2" d="M38.19,62.54a1.73,1.73,0,0,1,1.72,1.76,1.86,1.86,0,0,1,0,.33c-.29,1.11-.84,1.62-1.63,1.62a1.62,1.62,0,0,1-1.45-1.74c0-1,.54-1.89,1.4-1.93"/><path class="cls-2" d="M36.87,67.19c.84,0,1.64,1.66,1.64,3.46s-.15,3.5-1.64,3.67S34.61,72.68,35,70.75s1-3.56,1.86-3.56"/><path class="cls-2" d="M31.74,76.94c1-1.55,1.69-1,2.32.4-.67,1.7-1.34,3.39-2,5.11.15,1.83,1.32,2,2.81,2.1a7.69,7.69,0,0,1,5.35-2.26,9.13,9.13,0,0,0,3.65-1.22c1.21,0,2.85-.78,3.83.25.53.55,1.43.23,2.1,0a7.61,7.61,0,0,1,5.12-.54c2.32.6,2.68,2.51.6,2.83a82.74,82.74,0,0,1-12.85,1.55c-2.66.48-5.07,1.63-7.13,1.4-1.91.65-3.77,1.39-5.72,2.1-1.32,0-3-.31-2.1-2.68a22.93,22.93,0,0,1,2.1-5.62L31.93,77"/><path class="cls-2" d="M68.49,62.66a1,1,0,0,1,1,.9h0a1,1,0,0,1-2.1,0,1,1,0,0,1,1-.9h0"/><path class="cls-2" d="M68,65c.58,0,1.07.36,1.07.77s-.49.78-1.07.78a.91.91,0,0,1-1-.81v0c0-.42.38-.71,1-.71"/><path class="cls-2" d="M65.45,57.94A1.17,1.17,0,0,1,66.65,59a1.21,1.21,0,1,1-1.22-1.09h0"/><path class="cls-2" d="M53.86,56.92a1,1,0,0,1,1,.9,1,1,0,0,1-2,0,.93.93,0,0,1,1-.9h0"/><path class="cls-2" d="M52.93,68.6a1.76,1.76,0,1,1,.67,3.45,1.52,1.52,0,0,1-.67,0,1.76,1.76,0,1,1-.66-3.45,1.47,1.47,0,0,1,.66,0"/><path class="cls-2" d="M58.7,63.23c.63-.59,1.38.46,2.26,2.09s2.39,3.17,1.39,3.59-1.87-1.26-2.79-2.66-1.47-2.5-.86-3.09"/></g><g id="G3"><path class="cls-1" d="M135.88,49.39c-1.2-.63-1.72-1.8-3.46-2.39-.61-.25-2.1.92-2.44.69s-.56-1-1.38-.14a5.33,5.33,0,0,0-1.38,1.38c.12.71.44,1.28,2.09.86.23-.4.88-.38,1.14-.78,2.49.55,3.52,1.78,5.13,1.91C136.44,50.88,137.43,49.81,135.88,49.39Zm26.37,43.25c-.46-1.36-.71-2.09-1.49-.86a20.6,20.6,0,0,1-.88,6.57c-.5,1.21-2.09,1.69-2.24.39,0,0,.77-2.36.84-2.55l.19-2.27A53.92,53.92,0,0,1,160.09,85a70.26,70.26,0,0,1,2.54-10.82,45.15,45.15,0,0,1-2.1-7.59c-1.13-.94-2.66-1.74-3-3.83,0-.82.23-1.3.8-1.41l-2.1-1.4c0,.9-.65,1.67-.61,2.41-.69.79-1.34.79-1.72-.13-.14-1.65-.44-2.81-1.38-2.7a7.24,7.24,0,0,1-4.19-.44,1.78,1.78,0,0,1,.25-2l-1-.35c.29.75,0,1.34-.88,1.78-1.64-.33-2.68-1.93-4.32-2.87-2.35-1.22-4.51-2.1-5.39-4.2-.19-.71,0-1.13.55-1.19L134,47.8A5.23,5.23,0,0,0,130.3,44c.88,1.41-1.05,2.41-2.52,2.1a26.32,26.32,0,0,1-6.9-4.19,99.44,99.44,0,0,1-8.59-7.43c-.55-1-.38-1.51,0-1.63l-2.52-1.59a11.9,11.9,0,0,0-4.06-10.49,7.1,7.1,0,0,1-.74,2.1c-.65,2.31-2.93,2.64-3.56-.53a19.92,19.92,0,0,0-1-4.63L58.28,88.05a4.72,4.72,0,0,0,2.93-.71h0v-.15h0v-.14h0V86.9h0v-.11h0c0-1.67,1.58-2.72,3.76-1.59a74.43,74.43,0,0,0,6.29,4.74h.12a.84.84,0,0,1,.42.61H72a1,1,0,0,0,0,.25,2.16,2.16,0,0,1,.36.69,1.61,1.61,0,0,0,.58.55v.16l.36.23a59.15,59.15,0,0,1,10.57,9,1.66,1.66,0,0,1,.35-.8.47.47,0,0,1,0-.4c.21-.31.91-.29,1.62.11a1.9,1.9,0,0,1,.69,2.09c-.12.15-.4,0-.48,0a1.37,1.37,0,0,1-.73.69h0c3.48,5.56-.89,8.64,6.75,9.1a6.85,6.85,0,0,1-.63-1.53c-.36-1,0-1.57,1.8-2.09a7.82,7.82,0,0,1,4.19,1.09,3.13,3.13,0,0,1,0,3.31c-.27,1.61-.69,2.1-1.17,2.1a2.11,2.11,0,0,1-1.15-.65c-1,3.73,1.69,5,4.52,6.29a1.23,1.23,0,0,1,1.07-.88,1.38,1.38,0,0,1,1.18.6h.19c.46,0,.61.38.61.76s0,.23-.3.35a1,1,0,0,1,0,.24c.4,1.51-.65,2.09-1.55,1.84h-.1c-1,7,.62,10.84,3.89,13a3.14,3.14,0,0,1,.76-1.11,26.41,26.41,0,0,1,8.51-4.19,74,74,0,0,0,11.26-5,22.21,22.21,0,0,1,7.67-1.62h0a85.68,85.68,0,0,0,16-5.53l5.87-8.1A59,59,0,0,1,157,101.3c.75-.27,1.72-.37,1.7.78a25.67,25.67,0,0,1-1.32,6.94,17.5,17.5,0,0,1-4.55,7.38c-.69,1.72.23,2.09,1.53.61,1.3-2.27,2.35-5.06,3.65-7.32s.86-3.15,1.17-5c.5-.59,1.15-.88.75-1.61a1.81,1.81,0,0,1,1-2.35,1.84,1.84,0,0,1,.65-.13c0-1.24,1.11-2.58.55-3.65A4.63,4.63,0,0,1,162.25,92.64Z"/><path class="cls-2" d="M149.67,56.37a2,2,0,0,0-1.46,2.38,2.42,2.42,0,0,0,.12.35,7.5,7.5,0,0,0,4.19.42c.95-.11,1.24,1,1.41,2.7.35.92,1,1,1.7.13,0-.93.86-1.91.58-3.17-.33-.86-2.09-.46-3.69-1.47a5.69,5.69,0,0,0-2.87-1.34"/><path class="cls-2" d="M138.14,50.31c-1-.16-1.43.23-1.2,1.18.91,2.09,3,2.93,5.39,4.19,1.64.94,2.69,2.54,4.32,2.89,1.26-.65,1.32-1.59.21-2.85a23.09,23.09,0,0,0-5.49-3.56,15,15,0,0,0-3.23-1.85"/><path class="cls-2" d="M135.48,50.92c1,0,2-1.11.4-1.53-1.18-.63-1.72-1.8-3.44-2.39-.63-.25-2.1.94-2.46.69s-.56-1-1.36-.14a5.56,5.56,0,0,0-1.4,1.38c.12.71.44,1.28,2.09.86.23-.4.9-.38,1.14-.78,2.51.55,3.52,1.78,5.13,1.91"/><path class="cls-2" d="M113.88,33c-1.24-.47-2.58-.51-1.59,1.38a96,96,0,0,0,8.59,7.53,26.67,26.67,0,0,0,7,4.19c1.8.44,4.32-1.22,1.42-3.08-2.62-1.51-5.18-3.13-7.8-4.68s-5.05-3.44-7.52-5.24"/><path class="cls-2" d="M126.34,46.69c.62,0,1.15.35,1.15.79s-.53.8-1.15.8-1.16-.36-1.16-.8.51-.79,1.16-.79"/><path class="cls-2" d="M109.71,35.51c.61-.88,1.13-.8,1.59.21a19.9,19.9,0,0,0,.21,2.1A4.8,4.8,0,0,1,109,39.41c-.78.29-1,0-.65-.78l1.44-3.12"/><path class="cls-2" d="M107.72,31.44c.82-1,1.38-.84,1.72.4a18.77,18.77,0,0,0-1.3,5.62.89.89,0,0,1-1.25.08l-.07-.08c.73-1.89-1.18-.75-2.27-.8-.52,0-.84-.65-1.11-1.19s-.23-1.18.59-1.2a4.72,4.72,0,0,0,3.69-2.83"/><path class="cls-2" d="M102,27.8c-.26-.42-.13-1.35,1.34-.91a5.49,5.49,0,0,1,3.81,2.81c-.35,2.1-1.34,3.27-3,3.38a1.27,1.27,0,0,1-1.43-.88,6.07,6.07,0,0,1-.77-4.4"/><path class="cls-2" d="M97.26,25.61c.58,0,1.09.36,1.09.82a1,1,0,0,1-1.09.84,1,1,0,0,1-1.09-.84c0-.46.48-.82,1.09-.82"/><path class="cls-2" d="M106,17.1a11.44,11.44,0,0,1-.94,5.66c-.65,2.31-2.94,2.64-3.57-.52a19.31,19.31,0,0,0-1.05-4.63h0l2.44-4,.12.21A8.92,8.92,0,0,1,106,17.1Z"/><path class="cls-2" d="M60.67,85.79c0-1.66,1.57-2.73,3.75-1.6a72.35,72.35,0,0,0,6.29,4.74c.23,0,.82.65.46.9,1.64,1.49.23,3.69-2.09,2.44A11.44,11.44,0,0,1,65,90.78c-2.1-1.62-4.19-3.08-4.36-5"/><path class="cls-2" d="M91.57,110.59c-.37-1,0-1.57,1.79-2.1a7.91,7.91,0,0,1,4.19,1.09,3.11,3.11,0,0,1,0,3.32c-.46,2.79-1.36,2.37-2.31,1.51a5.16,5.16,0,0,1-3.75-3.84"/><path class="cls-2" d="M86.08,102.27a1.17,1.17,0,0,1-1,.73,1.25,1.25,0,0,1-1.15-1.35v0a1.44,1.44,0,0,1,.38-1,.37.37,0,0,1,0-.38c.21-.31.92-.31,1.61,0a1.92,1.92,0,0,1,.69,2.1c-.12.13-.31,0-.52-.15h0"/><path class="cls-2" d="M100.9,119.77a1.32,1.32,0,0,1,1.18.61h.21c.46,0,.58.36.58.74s0,.23-.29.35v.25c.38,1.51-.67,2-1.55,1.83a1.71,1.71,0,0,1-1.45-1.83c0-1,.51-2,1.26-2"/><path class="cls-2" d="M112.92,133.3c2.24-1,5.6-2.75,5.81-2.27s-2.9,2.39-5.14,3.69-4.19,1.91-4.45.84,1.53-1.32,3.78-2.26"/><path class="cls-2" d="M158.67,61.36c-.82-.1-1.26.38-1.22,1.39.38,2.09,1.91,2.89,3,3.83a44.44,44.44,0,0,0,2.1,7.61A65.92,65.92,0,0,0,160.05,85a51,51,0,0,0-1.43,8.93c0,.76-.14,1.51-.18,2.27a19,19,0,0,0-.84,2.55c.19,1.33,1.72.82,2.24-.39a21.48,21.48,0,0,0,.88-6.57c.76-1.34,1-.5,1.47.86a4.7,4.7,0,0,0,0,4.2c.56,1.07-.48,2.41-.55,3.64a1.82,1.82,0,0,0-1.65,2.63c.39.71-.26,1-.76,1.59-.31,1.82.15,2.89-1.17,5s-2.35,5-3.63,7.32c-1.32,1.44-2.24,1.13-1.55-.59a17.42,17.42,0,0,0,4.51-7.38,25.72,25.72,0,0,0,1.34-7c0-1.15-.94-1.07-1.72-.79a61.36,61.36,0,0,0-2.29,9.93l-5.87,8.1a84.91,84.91,0,0,1-15.72,5.49h0a22.05,22.05,0,0,0-7.65,1.62,72.73,72.73,0,0,1-11.28,5,26.12,26.12,0,0,0-8.39,4.19c-1.53,1.53-.88,2.83.78,4a11.59,11.59,0,0,0,8.76-.69l12.37-7.65a37,37,0,0,1,7-2.33v-.14c3.42-.82,6.29-.72,9.42-1.24,1.7-.29,3.33-.94,5-1.24a6.27,6.27,0,0,1,3.82-.46,10.07,10.07,0,0,0,5.83-2.28,18.46,18.46,0,0,0,3-9.21A71.39,71.39,0,0,1,167,102.43a78,78,0,0,0,.25-18.57,21.35,21.35,0,0,0-2.5-10.74c-.48-3.29-1.65-7.75-2.66-7.38-.48.19-.75,0-.82-.58a3,3,0,0,0-.44-2.1,1.64,1.64,0,0,0-1.44-1.64,1.31,1.31,0,0,0-.74.24.46.46,0,0,1,.11-.3"/><path class="cls-2" d="M93.54,59A1.36,1.36,0,0,1,95,60.25h0a1.41,1.41,0,1,1-2.81,0A1.34,1.34,0,0,1,93.54,59h0"/><path class="cls-2" d="M104.82,59a1.09,1.09,0,0,1,1.12,1h0a1.14,1.14,0,0,1-2.25,0,1.1,1.1,0,0,1,1.13-1"/><path class="cls-2" d="M112.58,67.09a1,1,0,1,1-1.13,1,1.07,1.07,0,0,1,1.11-1h0"/><path class="cls-2" d="M119.38,77.25a1.37,1.37,0,0,1,1.4,1.28,1.41,1.41,0,1,1-2.81,0,1.38,1.38,0,0,1,1.41-1.28"/><path class="cls-2" d="M123.69,84.17a1.16,1.16,0,0,1,1.2,1.09,1.2,1.2,0,1,1-2.39,0,1.15,1.15,0,0,1,1.19-1.09"/><path class="cls-2" d="M118.16,88.91a1.09,1.09,0,0,1,.6,2.1,1.22,1.22,0,0,1-.6,0,1.09,1.09,0,1,1-.6-2.1,1.22,1.22,0,0,1,.6,0"/><path class="cls-2" d="M122.62,94.93a1.09,1.09,0,0,1,.6,2.1,1.22,1.22,0,0,1-.6,0,1.09,1.09,0,0,1-.59-2.1,1,1,0,0,1,.59,0"/><path class="cls-2" d="M131.85,95.56A1.12,1.12,0,0,1,133,96.65h0a1.15,1.15,0,0,1-1.17,1.09,1.19,1.19,0,0,1-1.22-1.09,1.15,1.15,0,0,1,1.22-1.09h0"/><path class="cls-2" d="M140.47,95.94a1.09,1.09,0,1,1,0,2.18h0a1.17,1.17,0,0,1-1.2-1.09,1.16,1.16,0,0,1,1.2-1.09"/><path class="cls-2" d="M150.76,90.57a1.09,1.09,0,1,1,.6,2.09,1,1,0,0,1-.6,0,1.09,1.09,0,1,1-.6-2.09,1,1,0,0,1,.6,0"/><path class="cls-2" d="M156,85.07a1.09,1.09,0,0,1,.6,2.1,1,1,0,0,1-.6,0,1.08,1.08,0,0,1-1.34-.75,1.09,1.09,0,0,1,.74-1.35,1.22,1.22,0,0,1,.6,0"/><path class="cls-2" d="M144.24,80.84a1.09,1.09,0,0,1,.6,2.1,1.22,1.22,0,0,1-.6,0,1.09,1.09,0,0,1-.6-2.1,1,1,0,0,1,.6,0"/><path class="cls-2" d="M137.22,101.58a1.09,1.09,0,1,1,.6,2.09,1,1,0,0,1-.6,0,1.09,1.09,0,1,1-.6-2.09,1,1,0,0,1,.6,0"/><path class="cls-2" d="M128.14,72.14a1.14,1.14,0,0,1,1.19,1.09,1.22,1.22,0,0,1-2.41,0,1.18,1.18,0,0,1,1.22-1.09"/><path class="cls-2" d="M96.27,83a1.12,1.12,0,0,1,1.19,1.07v0a1.16,1.16,0,0,1-1.2,1.09,1.09,1.09,0,1,1,0-2.18"/><path class="cls-2" d="M106.75,101.2a1.09,1.09,0,1,1-1.19,1.07,1.14,1.14,0,0,1,1.19-1.07"/><path class="cls-2" d="M79,66.77a1.14,1.14,0,0,1,1.17,1.09h0a1.19,1.19,0,1,1-2.38.21,1.18,1.18,0,0,1,1.08-1.29H79"/><path class="cls-2" d="M69.18,84.82A1.09,1.09,0,1,1,68,85.91a1.15,1.15,0,0,1,1.19-1.09"/><path class="cls-2" d="M105.56,66.9c.71,0,1.28,1.44,1.28,3.2s-.57,3.28-1.28,3.28-1.28-1.43-1.28-3.19.59-3.21,1.28-3.21"/><path class="cls-2" d="M93.4,65.09c.5-.25,1.44.61,1.95,1.62s.5,2.09,0,2.28A2.19,2.19,0,0,1,93,67.82a2.44,2.44,0,0,1,.4-2.73"/><path class="cls-2" d="M107.28,90.15c2.24.59,5.6-2.66,6.64-.82,1.35,2.41-2.83,1.74-4.59,3.67-1.19,1.3-.88,4.36-1.93,4.47a3.83,3.83,0,0,1-4-3.6v-.24c0-1.66,1.65-4.19,3.9-3.48"/><path class="cls-2" d="M142.17,69.45a1.16,1.16,0,1,1-1.28,1.16,1.22,1.22,0,0,1,1.27-1.16h0"/><path class="cls-2" d="M137.24,72.54c1,0,1.84.46,1.84,1s-.84,1-1.84,1-1.87-.46-1.87-1,.84-1,1.87-1"/><path class="cls-2" d="M133.19,80.21c.44,0,.78.65.78,1.47s-.34,1.47-.78,1.47-.75-.68-.75-1.47.33-1.47.75-1.47"/><path class="cls-2" d="M128.85,67.92c.48,0,.9.84.9,1.85s-.42,1.87-.9,1.87-.9-.84-.9-1.87.4-1.85.9-1.85"/><path class="cls-2" d="M124,117.7c1.28,0,2.3.38,2.3.82s-1,.83-2.3.83-2.31-.37-2.31-.83,1-.82,2.31-.82"/><path class="cls-2" d="M119.5,102.2c.44,0,.82,1.37.82,3s-.38,3-.82,3-.84-1.34-.84-3,.38-3,.84-3"/><path class="cls-2" d="M127.26,103.48a1.55,1.55,0,1,1,.36,3.08,1.09,1.09,0,0,1-.36,0,1.55,1.55,0,0,1-.36-3.08,2.16,2.16,0,0,1,.36,0"/><path class="cls-2" d="M126.17,108.87a.92.92,0,0,1,.9.94h0a.9.9,0,1,1-1.8,0,.92.92,0,0,1,.9-.94h0"/><path class="cls-2" d="M145.86,110.78a1.57,1.57,0,0,1,1.55,1.59h0a1.56,1.56,0,0,1-3.09.36,2.16,2.16,0,0,1,0-.36,1.58,1.58,0,0,1,1.54-1.59"/><path class="cls-2" d="M108.45,106.17a1.15,1.15,0,0,1,0,2.3,1.11,1.11,0,0,1-1.09-1.13v0a1.13,1.13,0,0,1,1.09-1.15"/><path class="cls-2" d="M83,49.6c.92.61,1.34,1.55,1,2.1s-1.43.52-2.35,0-1.34-1.55-1-2.1,1.43-.52,2.33,0"/><path class="cls-2" d="M93.34,40c1.06,0,1.44.54,1.59,2.39s-.78,2.91-2,2.6-3-.76-3-2.2S92.24,40,93.34,40"/><path class="cls-2" d="M97.23,30.25A1.26,1.26,0,1,1,96,31.51h0a1.25,1.25,0,0,1,1.25-1.26"/><path class="cls-2" d="M86.06,70.5a2.73,2.73,0,1,1-2,3.28,2.84,2.84,0,0,1-.08-.66,2.38,2.38,0,0,1,2.09-2.62h0"/><path class="cls-2" d="M98.72,72.41a3.67,3.67,0,1,1-2.78,4.38,3.55,3.55,0,0,1-.09-.79,3.32,3.32,0,0,1,2.87-3.59"/><path class="cls-2" d="M83.86,63.5c-1.47-1.24-2.33,0-2.1,1,.32,2.56,2.9,1.84,4.32,2.72A9.57,9.57,0,0,1,88,69.1c1.09,1.07,2.1.42,2.1-.88a4,4,0,0,0-.34-1.74A1.58,1.58,0,0,0,88,65.24a5.66,5.66,0,0,1-2.39-.1A4.91,4.91,0,0,1,83.9,63.5"/><path class="cls-2" d="M105.22,85.75c1-.44,2-.47,2.1,0s-.44,1.17-1.43,1.63-2,.46-2.09,0,.44-1.17,1.42-1.63"/><path class="cls-2" d="M106.38,78c2.28,0,4.84,1,3.58,2.62s-3-1.15-3.79-1c-2.1.48-1,4.19-1.47,4.19-2.31,0-2.52,0-2.52-2.1a4,4,0,0,1,4.2-3.69"/></g><g id="Labels"><g class="cls-3"><path class="cls-4" d="M52.58,31.31l.11-.07.11,0,.16,0a.13.13,0,0,1,.1.1l0,.12a.28.28,0,0,1,0,.15l-.14.12-.19.2-.12.1-.1.07-.75.47L51,33l-.38.19-.37.15-.38.15a1.09,1.09,0,0,1-.37.07.59.59,0,0,1-.33-.11L49,33.39l0-.07s0,0,0-.08v-.09s0,0,0-.07a.3.3,0,0,1,.16-.17l.15-.06.14,0,.23,0h.09a1.35,1.35,0,0,0,.58-.15l.41-.2.93-.54.66-.43Z"/></g><g class="cls-3"><path class="cls-4" d="M53.43,35.57a.24.24,0,0,1,.24.15l0,.12v.08a.09.09,0,0,1,0,.08l-.09.11-.07,0-.14.06-.15.08-.26.25-.24.17-.43.27-.37.23-.22.12-.25.12-.41.16-.15,0a.3.3,0,0,1-.23-.1.35.35,0,0,1-.09-.23l0-.11a.19.19,0,0,1,0-.09l.06,0,.2-.1.43-.19.35-.18.25-.11.22-.13.43-.27.25-.17.22-.17.24-.14A.34.34,0,0,1,53.43,35.57Z"/></g><g class="cls-3"><path class="cls-4" d="M46.29,31.25l.19,0a.43.43,0,0,1,.26.16l.07.12a.3.3,0,0,0,.17.08.31.31,0,0,0,.13-.05l.12-.12.1-.07.09-.08a.13.13,0,0,1,.09,0,.3.3,0,0,1,.14,0h.07l.08,0,.11.06.06,0,0,.06.06.15,0,.14,0,0,.07,0a.87.87,0,0,0,.28-.08l.12-.1.12-.13.06-.05.08-.05.16-.09.13,0h.13a.09.09,0,0,1,.08.06l.07.09,0,.08a.44.44,0,0,1-.11.3l-.15.16a.27.27,0,0,1-.16.13l-.18.1-.22.09-.22.06-.4.08a.63.63,0,0,1-.33-.09l-.12-.1-.13-.13h-.25a.54.54,0,0,0-.19,0,.21.21,0,0,0-.13.07l-.27.24-.4.33-.41.31-.11.08-.16.1-.17.11-.59.33-.44.24-.18.08-.21.07-.18,0-.19,0-.12,0L43.33,34a.35.35,0,0,1-.17-.35.27.27,0,0,1,.17-.26l.13,0h.44a1.09,1.09,0,0,0,.39-.15l.4-.2.46-.25.42-.28.32-.25L46,32.2a.16.16,0,0,0,0-.09l-.14-.28,0-.14v-.07a.1.1,0,0,1,0-.07l.07-.11A.59.59,0,0,1,46.29,31.25Z"/></g><g class="cls-3"><path class="cls-4" d="M48.67,28.41c0,.49-.31.9-.94,1.23a1.42,1.42,0,0,1-.65.2c-.61,0-.91-.27-.91-.79a1.28,1.28,0,0,1,.52-1,1.75,1.75,0,0,1,1.12-.44.86.86,0,0,1,.34.06.61.61,0,0,1,.28.16A.75.75,0,0,1,48.67,28.41Zm-.57.1c0-.22-.15-.33-.46-.33a.84.84,0,0,0-.57.27.82.82,0,0,0-.28.58c0,.14.1.21.28.21h.14a1.06,1.06,0,0,0,.56-.25Q48.1,28.74,48.1,28.51Z"/></g><g class="cls-3"><path class="cls-4" d="M41.18,31.25l.18,0a.45.45,0,0,1,.27.16l.07.12a.27.27,0,0,0,.16.08.27.27,0,0,0,.13-.05l.13-.12.09-.07.09-.08a.18.18,0,0,1,.09,0,.34.34,0,0,1,.15,0h.07l.07,0,.11.06.06,0,0,.06.07.15,0,.14,0,0,.06,0a.81.81,0,0,0,.28-.08l.12-.1.13-.13,0-.05.08-.05.16-.09.14,0h.12a.09.09,0,0,1,.08.06l.08.09,0,.08a.44.44,0,0,1-.11.3l-.14.16a.31.31,0,0,1-.16.13l-.19.1-.22.09-.22.06L43,32.4a.63.63,0,0,1-.33-.09l-.12-.1-.14-.13h-.24a.5.5,0,0,0-.19,0,.23.23,0,0,0-.14.07l-.26.24-.41.33-.41.31-.11.08-.15.1-.18.11-.58.33-.45.24-.18.08a1,1,0,0,1-.2.07l-.18,0-.2,0-.12,0L38.22,34a.34.34,0,0,1-.18-.35.28.28,0,0,1,.17-.26l.13,0h.45a1.14,1.14,0,0,0,.38-.15l.4-.2.46-.25.42-.28.32-.25.08-.09a.16.16,0,0,0,0-.09l-.15-.28,0-.14v-.07a.1.1,0,0,1,0-.07l.08-.11A.56.56,0,0,1,41.18,31.25Z"/></g><g class="cls-3"><path class="cls-4" d="M43.59,28a.3.3,0,0,1,.19-.07c.19,0,.28.12.28.37v.09l0,.06a9.77,9.77,0,0,1-1.08.73,7.43,7.43,0,0,1-1.09.55l-.14.05-.12,0c-.09,0-.16-.06-.22-.18v-.23c0-.09.06-.16.18-.19a6.74,6.74,0,0,0,.86-.46l.28-.16.41-.26C43.28,28.22,43.44,28.1,43.59,28Z"/></g><g class="cls-3"><path class="cls-4" d="M39.58,32.14c0,.26-.26.57-.77.91l-.94.64-.4.24a3.69,3.69,0,0,1-1.42.62c-.33,0-.49-.13-.49-.38a.34.34,0,0,1,.17-.3.39.39,0,0,1,.25,0H36l.07,0,.08,0,0,0h.13l.09,0,.16,0,.43-.22.17-.09.29-.18.17-.12c-.35-.16-.53-.36-.53-.59a1,1,0,0,1,.38-.78l.17-.12.19-.13a1.64,1.64,0,0,1,.79-.21,1.09,1.09,0,0,1,.72.28A.59.59,0,0,1,39.58,32.14Zm-.65-.07c0-.08-.18-.13-.39-.13a1.07,1.07,0,0,0-.59.28l-.08.09-.08.14,0,.1a.26.26,0,0,0,.14.2l.12,0,.09,0,.16,0,.27-.14q.42-.27.42-.45A.11.11,0,0,0,38.93,32.07Z"/></g><g class="cls-3"><path class="cls-4" d="M40,28a.3.3,0,0,1,.19-.07c.19,0,.29.12.29.37l0,.09a.13.13,0,0,1-.05.06,9.77,9.77,0,0,1-1.08.73,7.43,7.43,0,0,1-1.09.55l-.14.05-.11,0a.25.25,0,0,1-.22-.18l0-.09,0-.14c0-.09.06-.16.18-.19a6.93,6.93,0,0,0,.85-.46l.28-.16.42-.26Z"/></g><g class="cls-3"><path class="cls-4" d="M31.52,34.14a.56.56,0,0,1-.35-.09.37.37,0,0,1-.11-.29v-.1a.2.2,0,0,1,.1-.16.62.62,0,0,1,.23-.07,1.91,1.91,0,0,0,.69-.16l.58-.33a1.29,1.29,0,0,0,.33-.17l.38-.27.16-.09.17-.15-.08-.07L33.48,32l-.06-.14v-.13a.59.59,0,0,1,.05-.14l.1-.08a.41.41,0,0,1,.25-.11,1,1,0,0,1,.34.11l.11.06.13.09.39-.21.46-.26.25-.1A1.85,1.85,0,0,1,36,31a.78.78,0,0,1,.23.07s.08.1.09.22v.08a.26.26,0,0,1-.09.13l-.16.11-.1,0-.26.12-.25.1L35,32l-.2.05.32.15.23.12.12.12,0,0v.06a.29.29,0,0,1,0,.09l0,.08a.23.23,0,0,1-.11.11l-.13.06-.16,0-.1,0-.63-.32-.22.14-.22.16-.3.18-.43.27-.78.45-.31.17-.3.15-.17.05Z"/></g><g class="cls-3"><path class="cls-4" d="M34.88,27.5h.4a1,1,0,0,1,.56.14A.41.41,0,0,1,36,28a1.1,1.1,0,0,1-.36.62l-.22.24-.28.24-.28.19a2.59,2.59,0,0,1-.33.17l-.51.21-.25.12-.17,0s-.08,0-.14-.12l0-.07,0-.09a.29.29,0,0,1,.06-.19.54.54,0,0,1,.2-.14l.22-.06.25-.09a1,1,0,0,0,.26-.1,1.28,1.28,0,0,0,.83-.77l0,0-.06,0-.19,0h-.44l-.08,0-.11.06-.1,0-.08,0H34a.2.2,0,0,1-.13-.06l-.09-.13,0-.11a.24.24,0,0,1,.12-.22,2.29,2.29,0,0,1,.48-.19A1.88,1.88,0,0,1,34.88,27.5Z"/></g><g class="cls-3"><path class="cls-4" d="M33.86,53.68l.18,0a.37.37,0,0,1,.27.15l.07.12a.3.3,0,0,0,.16.08.24.24,0,0,0,.14-.05l.12-.11.09-.08.09-.08.1,0,.14,0h.07l.07,0,.12.06.05,0,0,0,.07.16,0,.13,0,0,.06,0a.63.63,0,0,0,.28-.08L36.2,54l.12-.13,0,0,.08-.05.17-.09.13,0h.12s.06,0,.08.06l.08.09,0,.08a.4.4,0,0,1-.11.3l-.14.17a.37.37,0,0,1-.16.12l-.19.1-.22.09-.22.07-.39.07a.73.73,0,0,1-.33-.08l-.12-.1-.13-.14H34.8a.55.55,0,0,0-.19,0,.27.27,0,0,0-.13.07l-.27.25-.4.33-.41.3-.12.09-.15.09-.18.12-.58.32-.45.25-.18.08-.2.07-.18,0h-.19l-.13,0-.14-.05c-.12-.06-.17-.17-.17-.36a.28.28,0,0,1,.16-.26h.58a1.24,1.24,0,0,0,.39-.15l.4-.21.46-.24.42-.28.31-.25.08-.1a.12.12,0,0,0,0-.09l-.15-.28v-.21s0-.06,0-.07l.08-.11A.56.56,0,0,1,33.86,53.68Z"/></g><g class="cls-3"><path class="cls-4" d="M36.27,50.43a.3.3,0,0,1,.19-.07c.19,0,.28.12.28.37v.09a.13.13,0,0,1,0,.06,11.55,11.55,0,0,1-1.08.74,10.12,10.12,0,0,1-1.09.55l-.14,0-.11,0a.25.25,0,0,1-.22-.17l0-.1,0-.14c0-.09.06-.15.17-.19a6.8,6.8,0,0,0,.86-.45l.28-.17.42-.25C36,50.65,36.13,50.54,36.27,50.43Z"/></g><g class="cls-3"><path class="cls-4" d="M31.89,53.82H32l.1,0a.19.19,0,0,1,.1,0,.48.48,0,0,1,.24.33l0,.18,0,.12a.25.25,0,0,1,0,.1l0,.14-.07.27-.09.25-.08.19-.11.21a1,1,0,0,1-.31.38l-.14,0-.08,0-.08,0-.08,0L31.34,56l0-.13a.34.34,0,0,1,0-.11l.06-.09.12-.16.12-.19.21-.38.07-.21s0,0,0-.06a.07.07,0,0,0,0-.06l-.05,0a.35.35,0,0,0-.23.09l-.19.17-.42.34-.82.64-.29.21-.34.2-.25.14-.22.08-.16,0-.15,0-.1,0a.25.25,0,0,1-.1-.23V56a.13.13,0,0,1,0-.08l0-.11s.07-.07.17-.12l.21,0h.18l.13,0,.26-.13.41-.27.19-.15.2-.16.26-.23.26-.22.25-.23.26-.23A.7.7,0,0,1,31.89,53.82Z"/></g><g class="cls-3"><path class="cls-4" d="M32.57,58a.22.22,0,0,1,.23.15l0,.12v.08a.08.08,0,0,1,0,.08l-.09.12-.07,0-.14.07-.15.07-.26.25-.24.18-.43.27-.37.22-.22.12a1.21,1.21,0,0,1-.25.13l-.41.16-.16,0a.34.34,0,0,1-.22-.1.4.4,0,0,1-.09-.24l0-.11a.16.16,0,0,1,.05-.08l.05,0,.2-.11.43-.19.36-.17.25-.12.22-.12.43-.28.25-.16.22-.18.24-.14A.34.34,0,0,1,32.57,58Z"/></g><g class="cls-3"><path class="cls-4" d="M28.05,53.21l.11,0h.12a.26.26,0,0,1,.15.1.22.22,0,0,1,0,.09v.08a.46.46,0,0,1-.26.31l-.15.08.07,0,.17.1a.94.94,0,0,1,.14.12.33.33,0,0,1,0,.15.45.45,0,0,1-.21.31l-.59.28.16.09L28,55a.59.59,0,0,1,0,.18v.07a.12.12,0,0,1,0,.08l-.16.16-.33.26-.37.26-.29.21-.79.53-.28.18-.24.13-.09,0-.12.06-.32.14a1.28,1.28,0,0,1-.4.11.32.32,0,0,1-.14,0l-.09,0-.07-.06a.17.17,0,0,1-.06-.1.33.33,0,0,1,0-.15c0-.16.11-.26.34-.32l.16,0,.11,0,.14,0,.13,0,.15-.06.2-.09.2-.11.74-.47.36-.24.5-.36L27,55.08a.31.31,0,0,1-.12-.24.17.17,0,0,1,0-.1.88.88,0,0,1,.14-.15l.23-.12.35-.17-.15-.1-.2-.11-.1-.06,0-.05-.05-.09v-.1l0,0,.13-.1,0,0,.06,0,.19-.07.15-.06.14-.07.14-.1Z"/></g><g class="cls-3"><path class="cls-4" d="M29.08,50.43a.3.3,0,0,1,.19-.07c.19,0,.28.12.28.37v.09l-.05.06a11.55,11.55,0,0,1-1.08.74,10.12,10.12,0,0,1-1.09.55l-.14,0-.11,0a.24.24,0,0,1-.22-.17l0-.1,0-.14c0-.09,0-.15.17-.19a6.8,6.8,0,0,0,.86-.45l.28-.17.42-.25Z"/></g><g class="cls-3"><path class="cls-4" d="M20.6,56.57a.49.49,0,0,1-.35-.09.32.32,0,0,1-.11-.28v-.11a.17.17,0,0,1,.1-.15.58.58,0,0,1,.22-.08,1.83,1.83,0,0,0,.7-.16l.58-.32a1.11,1.11,0,0,0,.33-.18l.38-.26.16-.1.16-.14-.07-.07-.14-.16-.06-.13V54.2a.58.58,0,0,1,.05-.13l.09-.08a.39.39,0,0,1,.26-.11.85.85,0,0,1,.34.11l.1.06.14.08.39-.21.46-.25.24-.11a2,2,0,0,1,.49-.14.46.46,0,0,1,.22.07c.06,0,.09.1.1.21v.08a.23.23,0,0,1-.1.13l-.16.11-.09,0-.27.12-.24.11-.39.11-.2.05.31.15.24.13.12.11,0,0V55a.13.13,0,0,1,0,.08l0,.08a.18.18,0,0,1-.1.11l-.13.06-.17,0s-.07,0-.09,0L23.45,55l-.22.14-.22.16-.3.18-.43.27-.78.45-.31.17-.31.15-.16.06Z"/></g><g class="cls-3"><path class="cls-4" d="M24,49.94h.31l.1,0a1,1,0,0,1,.55.13.4.4,0,0,1,.2.36,1,1,0,0,1-.36.62l-.22.24-.28.24a2.26,2.26,0,0,1-.28.2,2.55,2.55,0,0,1-.33.17l-.5.21-.25.12h-.17s-.08,0-.14-.11l0-.08,0-.09a.26.26,0,0,1,.05-.18.44.44,0,0,1,.21-.15l.22-.06.25-.08.26-.11a1.26,1.26,0,0,0,.83-.77l-.05,0-.05,0-.19,0-.14,0-.15,0h-.15l-.08,0-.12.06-.09,0-.09,0h-.13a.17.17,0,0,1-.13-.05l-.1-.13,0-.11A.24.24,0,0,1,23,50.2a2.22,2.22,0,0,1,.47-.2A2.46,2.46,0,0,1,24,49.94Z"/></g><g class="cls-3"><path class="cls-4" d="M81.56,100.9l.13,0h0a.11.11,0,0,1,.08,0l.06,0L82,101l0,.14,0,.09a.33.33,0,0,1-.07.13l-.1.09-.31.24-.39.28-.39.26-.65.39-.27.12a2,2,0,0,1-.4.19l-.15,0a.7.7,0,0,1-.18,0h-.2a.19.19,0,0,1-.13-.06.28.28,0,0,1-.13-.15v-.13a.43.43,0,0,1,.09-.21l.15-.16.1-.12.07-.09,0-.17v-.58a.66.66,0,0,1,0-.21s0,0,.06,0l.1-.06.18,0h.14a.21.21,0,0,1,.14.09.28.28,0,0,1,.13.27v.09l0,.09-.1.21-.08.3-.07.2.13,0,.15-.09L80,102l.28-.17.51-.34.11-.08.18-.16.3-.23Z"/></g><g class="cls-3"><path class="cls-4" d="M81.25,97.15h.31l.1,0a1,1,0,0,1,.55.14.39.39,0,0,1,.2.36,1,1,0,0,1-.36.62l-.22.24-.28.23a1.89,1.89,0,0,1-.27.2,2.16,2.16,0,0,1-.34.17l-.5.21-.25.12-.17,0s-.08,0-.14-.12l0-.08,0-.09a.28.28,0,0,1,.06-.18.41.41,0,0,1,.2-.14l.22-.06.25-.09.26-.1a1.28,1.28,0,0,0,.83-.77l-.05,0,0,0-.19,0h-.44l-.08,0-.12.06-.09,0-.09,0h-.13a.26.26,0,0,1-.13-.06l-.1-.13,0-.11a.25.25,0,0,1,.12-.22,2.88,2.88,0,0,1,.47-.19A2.49,2.49,0,0,1,81.25,97.15Z"/></g><g class="cls-3"><path class="cls-4" d="M73.81,103.79a.56.56,0,0,1-.35-.09.37.37,0,0,1-.11-.29v-.1a.19.19,0,0,1,.1-.16.56.56,0,0,1,.23-.07,2,2,0,0,0,.69-.16l.58-.33a1,1,0,0,0,.33-.17l.38-.27.16-.09.16-.15-.07-.07-.14-.15-.06-.14v-.13a.59.59,0,0,1,0-.14l.1-.08a.41.41,0,0,1,.25-.11,1,1,0,0,1,.34.11l.11.06.13.08.39-.2.46-.26.25-.1a1.85,1.85,0,0,1,.48-.15.53.53,0,0,1,.23.08c.05,0,.08.09.09.2V101a.26.26,0,0,1-.09.13l-.17.11-.09,0-.26.12-.25.1-.39.11-.2.06.31.15.24.12.12.12,0,0v.06a.19.19,0,0,1,0,.08l0,.09a.23.23,0,0,1-.11.11l-.13,0-.16,0a.22.22,0,0,1-.1,0l-.63-.32-.22.13-.22.17-.3.18-.43.27-.78.45-.31.17-.3.15-.17.06Z"/></g><g class="cls-3"><path class="cls-4" d="M77.77,97.2l.17-.07.17,0a.39.39,0,0,1,.26.06.21.21,0,0,1,.1.18.23.23,0,0,1-.09.21l-.06,0-.12,0-.23.1-.65.29c-.34.16-.51.37-.51.61a.28.28,0,0,0,.11.21l.07,0,.1,0,.23,0h.2l.08,0a.2.2,0,0,0,.08,0l.11,0,.11,0a.25.25,0,0,1,.17,0l.1.12a.4.4,0,0,1,0,.17c0,.17-.19.3-.49.38l-.18,0-.18,0-.26,0-.29-.08-.15,0-.14-.09a.74.74,0,0,1-.37-.66.7.7,0,0,1,.14-.42l.14-.18.2-.19.16-.11.2-.14.36-.22Z"/></g><g class="cls-3"><path class="cls-4" d="M70.9,100.9l.19,0a.48.48,0,0,1,.27.16l.07.12a.27.27,0,0,0,.16.08.31.31,0,0,0,.13,0l.13-.12.09-.07L72,101l.09,0h.22l.07,0,.11.06.06,0,0,.06.07.15,0,.14,0,0,.06,0a.81.81,0,0,0,.28-.08l.12-.1.13-.13,0,0,.08-.06.16-.09.14,0h.12A.09.09,0,0,1,74,101l.08.09,0,.08a.44.44,0,0,1-.11.3l-.14.16a.41.41,0,0,1-.17.13l-.18.09-.22.1-.22.06-.39.08a.63.63,0,0,1-.33-.09l-.12-.1-.14-.13h-.24a.6.6,0,0,0-.2,0,.31.31,0,0,0-.13.06l-.26.25-.41.33-.41.31-.11.08-.15.1L70,103l-.58.33-.45.24-.18.08-.2.08-.18,0h-.32l-.14-.06a.34.34,0,0,1-.18-.35.28.28,0,0,1,.17-.26l.13,0h.44a1.09,1.09,0,0,0,.39-.15l.4-.2.46-.25.42-.28.32-.25.08-.09a.32.32,0,0,0,0-.09l-.15-.28,0-.14v-.07a.1.1,0,0,1,0-.07l.08-.11A.52.52,0,0,1,70.9,100.9Z"/></g><g class="cls-3"><path class="cls-4" d="M73.29,98.06c0,.49-.32.9-1,1.23a1.35,1.35,0,0,1-.64.19c-.62,0-.92-.26-.92-.78a1.3,1.3,0,0,1,.53-1,1.72,1.72,0,0,1,1.11-.44.91.91,0,0,1,.35.06.63.63,0,0,1,.27.16A.72.72,0,0,1,73.29,98.06Zm-.58.09c0-.21-.15-.32-.45-.32a.8.8,0,0,0-.57.27.78.78,0,0,0-.28.58c0,.14.09.21.28.21h.13a1,1,0,0,0,.56-.25C72.6,98.47,72.71,98.31,72.71,98.15Z"/></g><g class="cls-3"><path class="cls-4" d="M68.94,100.7h.18a.44.44,0,0,1,.16.19l0,.18a.23.23,0,0,1-.08.2l-.34.14.16.17a.46.46,0,0,1,.16.36v.17a.09.09,0,0,0,0,0,.09.09,0,0,1,0,.06.82.82,0,0,1-.45.59l-.24.14-.17.05-.21,0h-.21l-.22,0-.4-.09-.08,0-.26.22-.13.12-.16.12-.35.25-.15.1-.26.17-.25.14-.5.28-.1,0-.12.05-.2.11-.2,0a.47.47,0,0,1-.43-.25l0-.06,0-.13a.22.22,0,0,1,.07-.19l.09-.07.08,0h.43a.8.8,0,0,0,.33-.08l.56-.3.19-.12.32-.22.21-.14.14-.15.11-.09.12-.13-.08-.15,0-.11,0-.1a.4.4,0,0,1,.23-.26l.17,0h.12l.16.07a.3.3,0,0,1,.15.17v.13l0,0,.14.1.16.06H68l.13,0,.11,0a.64.64,0,0,0,.26-.18l.08-.1,0-.1a.27.27,0,0,0,0-.18l-.08-.09-.11-.07-.11-.07-.22-.11-.2-.14,0-.08,0-.1a.12.12,0,0,1,.06-.12L68,101h.35l.13-.06.12-.08.11-.07.12,0Z"/></g><g class="cls-3"><path class="cls-4" d="M66.38,97.19h.14l.1,0,.29.05.31.09.22.09a.5.5,0,0,1,.28.41l0,.14-.07.14-.09.12-.22.17-.74.5-.69.36-.29.14-.26,0a.27.27,0,0,1-.2-.08l-.06-.1v-.12l0-.12a.31.31,0,0,1,.1-.12l.24-.11.46-.2.59-.3.24-.13.18-.13,0-.08c0-.11-.15-.16-.45-.16l-.3,0-.37.12c-.25,0-.38-.1-.38-.31a.24.24,0,0,1,.06-.18.53.53,0,0,1,.2-.13l.36-.12Zm2.58,0a2,2,0,0,1,.49.08.33.33,0,0,1,.15,0l.11,0,.22.15a.42.42,0,0,1,.2.38l0,.09,0,.09-.11.14-.11.12-.11.13-.15.12-.41.33-.41.27-.36.21-.16,0-.17,0h-.14a.18.18,0,0,1-.1-.06l-.06-.12a.24.24,0,0,0,0-.09.23.23,0,0,1,.08-.14l.12-.06.17-.09.25-.11.43-.24.33-.26.17-.16s0-.06.08-.14a.15.15,0,0,0-.12-.16l-.25,0h-.17l-.11,0-.13,0-.1,0-.09,0-.23,0-.09,0,0,0-.05,0a.49.49,0,0,1,0-.14V97.6a.41.41,0,0,1,.05-.09l.17-.12.11,0,.11,0a1.34,1.34,0,0,1,.27-.07.72.72,0,0,1,.19,0Z"/></g><g class="cls-3"><path class="cls-4" d="M171.19,129.62h.25l.1.05a.48.48,0,0,1,.24.33l0,.18,0,.13a.22.22,0,0,1,0,.09l0,.15-.07.26-.09.25-.08.19-.11.21a1.1,1.1,0,0,1-.31.39l-.14,0-.08,0-.08,0-.08,0-.12-.09,0-.13a.25.25,0,0,1,0-.1.16.16,0,0,1,.06-.09l.12-.17.12-.18.21-.39.07-.21s0,0,0-.06a.07.07,0,0,0,0-.06h-.05a.34.34,0,0,0-.23.08l-.19.17-.42.35-.82.63-.29.21-.34.2-.25.14-.22.08h-.16l-.16,0-.09,0a.23.23,0,0,1-.1-.22v-.11a.2.2,0,0,1,0-.09l0-.11s.07-.07.17-.12l.21,0h.18l.13,0,.26-.13.41-.27.19-.14.2-.17.26-.22.26-.22.25-.24.26-.23A.73.73,0,0,1,171.19,129.62Z"/></g><g class="cls-3"><path class="cls-4" d="M172.56,125.67h.08l.09,0a.19.19,0,0,1,.07.11l0,.13v.11c0,.16-.07.25-.22.25a2.66,2.66,0,0,0-.4.07l-.16.07-.13.06-.13.06-.1.08-.13.13-.11.14a.23.23,0,0,0,.1.16l.17.07h.76l.09,0a.23.23,0,0,1,.1.22.22.22,0,0,1-.16.23l-.23,0-.3,0h-.35l-.32-.07a.56.56,0,0,1-.4-.23,1,1,0,0,1-.15-.51l-.06.08s-.06.08-.1.08l-.09.09-.25.17-.37.25-.27.15-.23.14-.24.1-.21.08-.16,0h-.12c-.15,0-.22-.08-.22-.25l0-.16a.22.22,0,0,1,.13-.1l.16,0,.21-.08a2.55,2.55,0,0,0,.84-.45l.17-.15.18-.16h-.93l-.09,0c-.11,0-.16-.12-.16-.27a.26.26,0,0,1,.23-.28l.25,0h.62a.83.83,0,0,1,.48.11.27.27,0,0,1,.1.14l.08.15.09.22.11-.11.07-.06.05,0,.09-.06.17-.15.27-.19.49-.31A.86.86,0,0,1,172.56,125.67Z"/></g><g class="cls-3"><path class="cls-4" d="M166.55,129.48a.58.58,0,0,1,.37.1.27.27,0,0,1,.08.16v.12l-.08.07-.08,0-.1.06a.24.24,0,0,0-.07.16.3.3,0,0,0,.12.26l.14.09.06,0,.09,0,.14,0a.38.38,0,0,0,.13-.09l.1-.09.13-.08.21-.05h.09a.55.55,0,0,1,.14.13l0,.07v.09a.45.45,0,0,1-.09.17l-.14.1-.16.11-.2.14-.61.39-.67.4-.37.2-.31.16-.29.13-.36.16-.26.07c-.29,0-.43-.11-.43-.35a.56.56,0,0,1,.08-.24.24.24,0,0,1,.08-.09.11.11,0,0,1,.08,0l.11,0,.14,0,.16,0a1.82,1.82,0,0,0,.37-.16l.69-.35.33-.19.43-.28q0-.08,0-.09h-.1l-.17,0a.5.5,0,0,1-.24-.16l-.05-.07-.05-.12,0-.2v-.08a.19.19,0,0,1,0-.07l.09-.21a.59.59,0,0,1,.2-.27l.07-.06.09,0A.28.28,0,0,1,166.55,129.48Z"/></g><g class="cls-3"><path class="cls-4" d="M167.7,125.73h.3l.1,0a1.08,1.08,0,0,1,.56.13.43.43,0,0,1,.2.37,1.07,1.07,0,0,1-.36.62l-.22.24-.28.23a1.55,1.55,0,0,1-.28.2,2.59,2.59,0,0,1-.33.17l-.5.21-.26.12h-.17s-.08,0-.14-.11l0-.08,0-.09a.28.28,0,0,1,.06-.18.51.51,0,0,1,.21-.14l.21-.07.25-.08a1,1,0,0,0,.26-.11,1.25,1.25,0,0,0,.83-.76l0,0-.06,0-.19,0h-.43l-.09,0-.11.06-.1,0-.08,0h-.14a.26.26,0,0,1-.13-.06l-.09-.13,0-.11a.24.24,0,0,1,.12-.22,2.53,2.53,0,0,1,.48-.19A1.88,1.88,0,0,1,167.7,125.73Z"/></g><g class="cls-3"><path class="cls-4" d="M164.72,130.37c0,.26-.25.56-.76.91l-1,.63-.4.24a3.58,3.58,0,0,1-1.41.63c-.33,0-.49-.13-.49-.39a.34.34,0,0,1,.17-.3.47.47,0,0,1,.25,0h.05l.07,0,.08,0,0,0h.12l.1,0,.16-.05.43-.22.17-.09.29-.18.17-.12c-.36-.16-.53-.36-.53-.6a1,1,0,0,1,.38-.77l.17-.12.18-.14a1.81,1.81,0,0,1,.79-.2,1.12,1.12,0,0,1,.73.28A.57.57,0,0,1,164.72,130.37Zm-.64-.07c-.05-.09-.18-.13-.39-.13a1,1,0,0,0-.59.28l-.09.09-.08.13,0,.11c0,.07,0,.13.14.2l.11,0,.1,0,.15,0,.28-.14c.28-.19.42-.33.42-.45A.08.08,0,0,0,164.08,130.3Z"/></g><g class="cls-3"><path class="cls-4" d="M164.76,125.77l.17-.06.17,0c.13,0,.22,0,.26.07a.2.2,0,0,1,.1.18.23.23,0,0,1-.09.2l-.07.05-.11.06-.23.1-.65.29c-.34.16-.51.36-.51.61a.27.27,0,0,0,.11.21l.07,0,.1,0,.23,0,.2,0,.08,0,.08,0a.31.31,0,0,1,.1,0,.34.34,0,0,1,.12,0,.28.28,0,0,1,.16,0l.11.13a.4.4,0,0,1,0,.17c0,.17-.2.29-.49.37l-.18.05-.18,0-.26,0-.3-.08-.14,0-.14-.09a.74.74,0,0,1-.38-.66.77.77,0,0,1,.15-.42l.14-.17.2-.19.16-.12.2-.13.36-.22Z"/></g><g class="cls-3"><path class="cls-4" d="M160,129.4h.06l.07,0,.16.13a.21.21,0,0,1,.1.18,2.16,2.16,0,0,1-.37.39l1.31,0s0,0,0,0l0,0a.31.31,0,0,1,.09.13c0,.1-.15.25-.43.43l-.67.38-.48.29-.77.5-1,.53-.61.27-.19.07-.2,0-.25.06a.61.61,0,0,1-.22,0l-.11-.06a.39.39,0,0,1-.12-.33c0-.1.08-.17.22-.22l.22,0a1.84,1.84,0,0,0,.41,0,1.94,1.94,0,0,0,.42-.15l.09,0,.15-.07.4-.17,1.95-1.12h-1.75a.54.54,0,0,1-.06-.11.92.92,0,0,1,0-.19l0-.11.13,0,.14,0A.94.94,0,0,0,159,130l.4-.18.28-.15a.25.25,0,0,0,.13-.12.33.33,0,0,1,.07-.11l.07,0Z"/></g><g class="cls-3"><path class="cls-4" d="M161.1,133.8a.23.23,0,0,1,.23.14l0,.12v.08a.12.12,0,0,1,0,.09l-.1.11-.07,0-.14.07-.14.07-.27.25-.24.18-.43.27-.37.22-.21.13-.26.12-.41.16-.15,0a.32.32,0,0,1-.23-.1.4.4,0,0,1-.09-.23l0-.12a.22.22,0,0,1,.05-.08l.06,0,.2-.1.43-.2.36-.17.24-.11.23-.13.43-.28.24-.16.22-.18.24-.13A.27.27,0,0,1,161.1,133.8Z"/></g><g class="cls-3"><path class="cls-4" d="M156.57,129l.12,0h.11a.25.25,0,0,1,.15.1.22.22,0,0,1,0,.09v.08a.52.52,0,0,1-.27.32l-.15.07.07,0,.17.1a.92.92,0,0,1,.14.13.21.21,0,0,1,0,.14c0,.1-.07.2-.2.32l-.6.27.17.1.17.1a1.7,1.7,0,0,1,0,.19v.06a.23.23,0,0,1,0,.09l-.16.15-.34.26-.37.27-.29.21-.78.52-.28.18-.25.13-.08,0-.13.06-.32.14a1.06,1.06,0,0,1-.39.11.33.33,0,0,1-.15,0l-.09,0-.07-.06a.27.27,0,0,1-.06-.1s0-.1,0-.16.11-.26.35-.31l.15,0a.35.35,0,0,0,.11,0l.14,0,.13,0,.15,0,.21-.09.2-.12.73-.46.36-.24.5-.36-.28-.19a.29.29,0,0,1-.12-.24.14.14,0,0,1,0-.1.75.75,0,0,1,.13-.15l.23-.12.35-.17L156,130l-.2-.11-.1-.07,0,0-.05-.09v-.1l0,0,.13-.1h0l.06,0,.19-.07.15-.06.15-.07.13-.1Z"/></g><g class="cls-3"><path class="cls-4" d="M156.61,125.73h.3l.1,0a1.08,1.08,0,0,1,.56.13.42.42,0,0,1,.19.37,1,1,0,0,1-.35.62l-.22.24-.29.23a1.46,1.46,0,0,1-.27.2,2.59,2.59,0,0,1-.33.17l-.51.21-.25.12h-.17s-.08,0-.14-.11l0-.08,0-.09a.28.28,0,0,1,.06-.18.51.51,0,0,1,.21-.14l.21-.07.25-.08a1,1,0,0,0,.26-.11,1.25,1.25,0,0,0,.83-.76l-.05,0,0,0-.19,0h-.44l-.08,0-.12.06-.09,0-.08,0h-.14a.26.26,0,0,1-.13-.06l-.09-.13,0-.11a.24.24,0,0,1,.12-.22,2.43,2.43,0,0,1,.47-.19A2,2,0,0,1,156.61,125.73Z"/></g><g class="cls-3"><path class="cls-4" d="M153.42,129.42c.26,0,.4.08.4.23a.56.56,0,0,1-.16.38l-.13.14-.19.13-.19.07-.24.06-.34,0h-.71l-.06.09-.13.14-.25.26-.18.14-.2.14-.6.41-.34.22-.24.12-.17.09-.33.16-.16.06a.92.92,0,0,1-.29.05h-.07l-.1-.05-.07,0-.09-.07a.31.31,0,0,1-.1-.15l0-.1v-.11a.53.53,0,0,1,.11-.24l.12,0,.12,0h.07l.14,0,.15,0,.13,0,.15,0,.43-.2.23-.11.21-.13a3.34,3.34,0,0,0,.58-.42l.11-.12,0-.11-.06-.08a.27.27,0,0,1-.08-.16.61.61,0,0,1,.19-.44.65.65,0,0,1,.44-.19.53.53,0,0,1,.28.12q.18.12.18.24l.33,0a.9.9,0,0,0,.34-.09,1.92,1.92,0,0,0,.42-.25l.1-.06.08,0A.41.41,0,0,1,153.42,129.42Z"/></g><g class="cls-3"><path class="cls-4" d="M153.63,133.8a.23.23,0,0,1,.23.14l0,.12v.08a.1.1,0,0,1,0,.09l-.09.11-.07,0-.14.07-.15.07-.26.25-.25.18-.42.27-.37.22-.22.13-.25.12-.41.16-.16,0a.3.3,0,0,1-.22-.1.4.4,0,0,1-.09-.23l0-.12a.22.22,0,0,1,.05-.08l.05,0,.2-.1.43-.2.36-.17.25-.11.22-.13.43-.28.25-.16.22-.18.24-.13A.26.26,0,0,1,153.63,133.8Z"/></g><g class="cls-3"><path class="cls-4" d="M72,46.81H71l-.25-1.09A3.33,3.33,0,0,1,67.91,47c-2.79,0-4.46-2.21-4.46-4.87s1.67-4.87,4.46-4.87c2,0,3.73,1.08,4,3.18H70.3a2.22,2.22,0,0,0-2.39-1.85c-2,0-2.83,1.76-2.83,3.54s.83,3.54,2.83,3.54a2.36,2.36,0,0,0,2.6-2.55H68V41.92H72Z"/><path class="cls-4" d="M73.46,39.21c1.25,0,2.44-.42,2.66-1.51h1.21v9.11H75.7V40.38H73.46Z"/></g><g class="cls-3"><path class="cls-4" d="M86,128.2h-1l-.25-1.09a3.35,3.35,0,0,1-2.8,1.31c-2.79,0-4.45-2.21-4.45-4.86s1.66-4.88,4.45-4.88c2,0,3.74,1.09,4,3.18H84.29a2.23,2.23,0,0,0-2.4-1.85c-2,0-2.83,1.76-2.83,3.55s.84,3.54,2.83,3.54a2.36,2.36,0,0,0,2.6-2.56H82v-1.23h4Z"/><path class="cls-4" d="M89.73,122.87c1,0,2-.32,2-1.44a1.3,1.3,0,0,0-1.42-1.29A1.63,1.63,0,0,0,88.82,122H87.33a3,3,0,0,1,3-3.1,2.61,2.61,0,0,1,2.88,2.43,1.94,1.94,0,0,1-1.29,2v0a2.15,2.15,0,0,1,1.65,2.28,3.23,3.23,0,0,1-6.43-.39h1.49a1.68,1.68,0,0,0,1.72,1.94,1.59,1.59,0,0,0,1.74-1.63c0-1.42-1.21-1.6-2.38-1.55Z"/></g><g class="cls-3"><path class="cls-4" d="M15.78,73.8h-1l-.25-1.1A3.34,3.34,0,0,1,11.7,74c-2.79,0-4.46-2.22-4.46-4.87s1.67-4.87,4.46-4.87c2,0,3.73,1.08,4,3.17H14.09a2.21,2.21,0,0,0-2.39-1.84c-2,0-2.83,1.75-2.83,3.54s.83,3.54,2.83,3.54a2.37,2.37,0,0,0,2.6-2.55H11.83V68.9h3.95Z"/><path class="cls-4" d="M23.3,73.8H17.07a4.08,4.08,0,0,1,2-3.45c1.18-.86,2.72-1.58,2.74-3a1.43,1.43,0,0,0-1.53-1.61c-1.17,0-1.53,1-1.56,2.27H17.24c0-2,1.11-3.51,3.14-3.51a2.71,2.71,0,0,1,2.93,2.8,3.82,3.82,0,0,1-2,3.07c-1.06.73-2.16,1.29-2.42,2.1H23.3Z"/></g></g><g id="Lines"><polyline class="cls-5" points="0.06 41.11 74.59 59.98 42.89 113.84"/><line class="cls-5" x1="74.59" y1="60" x2="110.97" y2="0.12"/></g></g></g></g></g></svg>