<svg xmlns="http://www.w3.org/2000/svg" viewBox="0 0 198.78 223.12"><defs><style>.cls-1{fill:#f1f2f2;}.cls-2{fill:#383838;}.cls-3,.cls-5{fill:none;}.cls-3{stroke:#6f2081;stroke-width:1.26px;}.cls-4{fill:#396287;fill-rule:evenodd;}.cls-5{stroke:#1a1a18;stroke-miterlimit:22.93;stroke-width:0.56px;stroke-dasharray:5.05 2.53;}</style></defs><title>M</title><g id="Layer_2" data-name="Layer 2"><g id="Layer_1-2" data-name="Layer 1"><g id="K2"><path class="cls-1" d="M18.16,203.39a2.17,2.17,0,0,1-.43-.61,15.65,15.65,0,0,0,.53,2.28C18.24,204.5,18.21,203.94,18.16,203.39ZM103,124.65l-3.28.12-75.66,2.76c-.48,4-1,7.95.25,11.59a10.33,10.33,0,0,1,.76,5.33c-.43,2.55-2,3.59-3.13,3.06,0,.33,0,.68,0,1a4.55,4.55,0,0,1,1.39.28A3.72,3.72,0,0,1,26,151.47c.08.74-.65,1.39-.7,2.18-.05.6.91,1.08.43,1.82.05.91-1.67.6-2.48,1.71s-1.31,1.27-1.84,1.32c-.05.65-.1,1.31-.13,2a12.35,12.35,0,0,1,2.27.53c2.83,1.24.94,3.62,1.6,5.33.15,1.19.17,2.61-3.16,3.09a3.22,3.22,0,0,0-1.16.6,1.75,1.75,0,0,1-.38.23c-.08.5-.1,1-.18,1.52a.71.71,0,0,1,.15.07c1.67.46,3.84,0,3.11,1.67-1,2.07,1,3.71-1.29,5.33-.61.3-1.34.86-2.53,1.57-.1,1.08-.22,2.19-.37,3.3.3.06.6.13.93.23,1.62.31,2.2,1.09,2,2.43-.5,1.71,1.52,3.74-.55,5a9.34,9.34,0,0,0-3.36,2.9.84.84,0,0,1-.69.18c-.17,1.44-.27,2.86-.3,4.22a4.45,4.45,0,0,1,1.47-1.79c1.86-1.19,3-.71,3.46,1.39.25.78-1.12,2.37-1,3.56.22,1.72.48,3.48-.18,4.82a3.86,3.86,0,0,1-1.59,1.27l2.27,3.79L23.22,214c-.11-1.64,1.21-2.62,4.8-2.14,3.78-1.54,6-3.57,9.11-5.92,1.9-2.77,2.23-5,1.67-7-.5-1.36.25-2.9,3.59-1.84a3.47,3.47,0,0,0,2.88-1.92c4.14-6.29,6-10.31,11.49-15.69,6.14-3.61,11.52-8.21,18.57-12.68a10.93,10.93,0,0,0,3.77-4.12c-.64-2.7,1.08-3.31,3-1.39.68.38,2.6-.6,3.28-.86a20.29,20.29,0,0,1,7-1.16c4.9.23,10,.35,14.27-.63,4.14-.68,8.77-5.71,12.4-11.5a4,4,0,0,0,.81-1.74c.1-.58-.12-1-1-.88-1.32.15.33-2.3,1.54-5.64,1.54-4.32,4.45-9.32,5.56-9.57,1.82-1.64,3.2-1.69,3.89-.94a19.25,19.25,0,0,1,.86-3.63l1.59-1.17Z"/><path class="cls-2" d="M125.87,154.78a2.17,2.17,0,1,1-2.17-2.17,2.17,2.17,0,0,1,2.17,2.17Z"/><path class="cls-2" d="M104.62,164.18a2.17,2.17,0,1,1-2.17-2.17,2.17,2.17,0,0,1,2.17,2.17Z"/><path class="cls-1" d="M59.76,183.81A1.86,1.86,0,1,1,57.91,182a1.85,1.85,0,0,1,1.85,1.85Z"/><path class="cls-3" d="M59.76,183.81A1.86,1.86,0,1,1,57.91,182,1.85,1.85,0,0,1,59.76,183.81Z"/><path class="cls-1" d="M64.18,180a1.86,1.86,0,1,1-1.85-1.85A1.85,1.85,0,0,1,64.18,180Z"/><path class="cls-3" d="M64.18,180a1.86,1.86,0,1,1-1.85-1.85A1.85,1.85,0,0,1,64.18,180Z"/><path class="cls-1" d="M69.24,176.87A1.86,1.86,0,1,1,67.38,175a1.86,1.86,0,0,1,1.86,1.86Z"/><path class="cls-3" d="M69.24,176.87A1.86,1.86,0,1,1,67.38,175,1.86,1.86,0,0,1,69.24,176.87Z"/><path class="cls-4" d="M25.06,144.45c-.58,3.59-3.59,4.2-4.14,1.57,0-4.15-.26-8.31-.58-12.46a34.9,34.9,0,0,1-.31-5.68.34.34,0,0,1,0-.2l4-.15a.49.49,0,0,1,0,.2c-.48,4-.93,7.8.26,11.39A10.14,10.14,0,0,1,25.06,144.45Z"/><path class="cls-4" d="M20.44,150.91c-.45-2.12.46-2.87,2.86-2.11A3.72,3.72,0,0,1,26,151.48c.07.73-.64,1.38-.7,2.16,0,.6.91,1.09.43,1.83.05.92-1.68.61-2.47,1.72-1,1.4-1.64,1.3-2.34,1.3S20.25,157,21,155c-.14-1.68-.58-2.56-.58-4.08Z"/><path class="cls-4" d="M20,161.65c.1-1.74,1.83-1.15,3.61-.62,2.83,1.23.91,3.62,1.57,5.31.16,1.2.19,2.61-3.14,3.11a2.91,2.91,0,0,0-1.17.59c-.76.72-2.1,0-2-1.38a43.18,43.18,0,0,1,1.1-7Z"/><path class="cls-4" d="M17.74,173.9c-.84-2.2.45-3.08,2.73-2.05,1.65.46,3.82.07,3.09,1.69-.95,2.05,1,3.7-1.27,5.32-.79.38-1.78,1.17-3.65,2.2-1.18.57-1.68,0-1.16-1.59a11.4,11.4,0,0,0,.26-5.57Z"/><path class="cls-4" d="M16.72,185.08c0-1.74,1.56-1.72,3.6-1.12,1.61.3,2.2,1.1,2,2.42-.49,1.71,1.51,3.75-.55,5a9.27,9.27,0,0,0-3.36,2.89c-.84.61-1.66-.13-1.44-2.35,0-2.29-.11-4.58-.25-6.86Z"/><path class="cls-4" d="M18.9,196.89q2.78-1.77,3.44,1.41c.27.77-1.1,2.36-.94,3.56.22,1.69.48,3.48-.17,4.81-1.38,1.69-2.72,1.79-2.88-.08-.1-1.05-.1-2.15-.2-3.19a4.28,4.28,0,0,1-.92-2.16,4.12,4.12,0,0,1,1.67-4.35Z"/><path class="cls-4" d="M45.27,195.17a3.45,3.45,0,0,1-2.87,1.92c-3.35-1.06-4.11.48-3.59,1.85.54,2,.21,4.2-1.68,7-3.13,2.37-5.33,4.37-9.12,5.93-4.8-.66-5.54,1.34-4.2,4,1.84,2.8,4.61,5.21,10.09,5.85,3.69-.86,8.14-1.48,13-7.9A89.74,89.74,0,0,1,51,204a4,4,0,0,0,.27-1.35c-.13-1.74-.28-3.48-.43-5.24.39-1.72,1-3.35,2.21-4.28a43.23,43.23,0,0,0,5.56-5.28c4-3.41,8-6.66,12.36-8.84,4.78-2.14,10.27-4.42,13-10.11,2.24-1.27,4.66-3.22,8.81-2,3.29,1.76,6.57,2.12,10.88,1.18A49.59,49.59,0,0,1,114,166.55c3.47.24,7-.51,11.76-9.93,1.13-7.2,4.51-14.41,3.66-21.67a5.92,5.92,0,0,1,.65-4c.81-2.59-1.08-4.41-4.16-1.61-1.14.24-4,5.26-5.58,9.56-1.21,3.36-2.84,5.79-1.54,5.64.85-.1,1.08.32,1,.89a4,4,0,0,1-.81,1.73c-3.64,5.81-8.26,10.83-12.41,11.51-4.3,1-9.37.85-14.27.63a20.09,20.09,0,0,0-7,1.16c-.68.24-2.6,1.23-3.29.86-1.88-1.91-3.61-1.31-3,1.37a10.77,10.77,0,0,1-3.75,4.13c-7.06,4.49-12.43,9.07-18.56,12.69-5.52,5.4-7.36,9.39-11.51,15.68Z"/><path class="cls-4" d="M123.09,137.27c.33-1.11,2.56.29,2.75,1.89.18.75-2.09.38-2.18,2.14-.07.47.74,1.21.66,1.68s-1,1.09-1,1.56a24.18,24.18,0,0,1-1.58,8.17,11.18,11.18,0,0,1-5,3.07c-.25,0-1,.38-.25.74,1.22.64.11,2-.59,2.59-1.66.58-2.7,1.86-4.87,2-2.38.13-4.36,1.33-6.64,2.12a87.11,87.11,0,0,1-9,.25c-2-.54-1.37-1-.09-1.19h7c1.47-.43,2.51-1.67,4-1.6a8.24,8.24,0,0,0,4-.77,29.36,29.36,0,0,0,4.9-4.84c1.76-1.91,3.4-3.95,5.16-5.86,1.9-2.22,2.37-7.07,2.74-11.94Z"/><path class="cls-4" d="M105.16,125.69a.88.88,0,0,0,.76,1.57,6.14,6.14,0,0,1,3.7-.59c.52.22.72.62.47.94a3.13,3.13,0,0,1-.75,1.1c-.33.89.1,1.3,1.17,1.21a2.72,2.72,0,0,0,1.62-2.26c.16-1.28-.23-1.89-1.85-2.72a7.57,7.57,0,0,0-5.12.75Z"/><path class="cls-4" d="M43,133.38a1.83,1.83,0,0,1,1.81,1.89c.06.67,0,1-.67,1-.29,0-.73-.42-1.23-.25-1.61.55-2.68.82-2.28-.75A2.15,2.15,0,0,1,43,133.38Z"/><path class="cls-4" d="M27.43,146.67c.69.08.92.35.93.8a.87.87,0,0,1-.92.81c-.51,0-.78-.29-.93-.79s.23-.91.92-.82Z"/><path class="cls-4" d="M28.2,151.54c.75-.11,1-.41,1-.89s-.33-.76-1-.87-1.21.13-1.13.86.39,1,1.15.9Z"/><path class="cls-4" d="M29.59,162.7c1.05.07,1.36-.37,1.27-1s-.42-.76-1.29-.86-1.53.13-1.44.86.41,1,1.46,1Z"/><path class="cls-4" d="M29.92,171.56c.58,0,.76.17,1.08.87s-.16,1.1-1.07.88-1.07-.38-1.08-.86a1,1,0,0,1,1.07-.89Z"/><path class="cls-4" d="M101.62,146.9c.94.26,1.13.44,1.13,1a1.06,1.06,0,0,1-1.11,1c-.62,0-.81-.17-1.13-1s.18-1.25,1.11-1Z"/><path class="cls-4" d="M86,150.37c.8.26.81.87.82,1.42a1,1,0,0,1-.95,1c-.54,0-.7-.17-1-1s.31-1.67,1.11-1.42Z"/><path class="cls-4" d="M74.5,156.86c.8.23.82.78.82,1.27a.93.93,0,0,1-.95.9c-.53,0-.7-.16-1-.88a.94.94,0,0,1,1.11-1.29Z"/><path class="cls-4" d="M62,155.23c.86.18.87.66.87,1.08s-.45.75-1,.76-.74-.13-1-.75S61.1,155,62,155.23Z"/><path class="cls-4" d="M61.09,162.55c.86.2.87.66.87,1.08s-.45.76-1,.76-.75-.12-1-.74.32-1.29,1.19-1.1Z"/><path class="cls-4" d="M47,171.73c.86.18.87.65.87,1.07s-.45.76-1,.77-.74-.13-1.05-.75.34-1.29,1.2-1.09Z"/><path class="cls-4" d="M50.34,180.45c.91.09,1.13.84,1.32,1.51a1.18,1.18,0,0,1-.66,1.5c-.54.15-.77,0-1.33-.93s-.25-2.17.67-2.08Z"/><path class="cls-4" d="M47,180.68c.88.29.83,1.24.79,2.06a1.71,1.71,0,0,1-1.17,1.67c-.59.08-.76-.18-1-1.37s.51-2.63,1.38-2.36Z"/><path class="cls-4" d="M49.54,174.07c.14-.92.9-1.1,1.58-1.26a1.16,1.16,0,0,1,1.46.73c.13.55,0,.77-1,1.29s-2.17.15-2-.76Z"/><path class="cls-4" d="M40.61,175.28c1-.23,1.21.2,1.38.58s-.2.91-.81,1.19a1.1,1.1,0,0,1-1.42-.21c-.57-.42-.15-1.33.85-1.56Z"/><path class="cls-4" d="M54.63,158.64c.87.2.88.67.88,1.09s-.46.76-1,.76-.74-.12-1-.74.32-1.3,1.18-1.11Z"/><path class="cls-4" d="M51.52,162c.87.19.88.67.88,1.08s-.46.76-1,.76-.74-.12-1-.74.33-1.29,1.19-1.1Z"/><path class="cls-4" d="M43.47,151.51a2,2,0,0,1,.81,1.83c0,.7-.38,1.28-.94,1.29s-1.19,0-1.06-1.27.53-2.29,1.19-1.85Z"/><path class="cls-4" d="M48.08,151.54a2.34,2.34,0,0,1-2.06.77c-.7.05-1.49-.08-1.61-.79s.18-1,1.67-1,2.72.17,2,1Z"/><path class="cls-4" d="M107.93,151.68c.56.1,1.12.43,1.13,1a1.07,1.07,0,0,1-1.12,1c-.62,0-1.18-.32-1.12-1a1,1,0,0,1,1.11-1Z"/><path class="cls-4" d="M105.11,135.91c.56.1,1.11.41,1.12.94a1.05,1.05,0,0,1-1.11,1c-.61,0-1.18-.32-1.13-1a1,1,0,0,1,1.12-1Z"/><path class="cls-4" d="M101.43,136.11c.68-.1,1.31.07,1.2.82a1,1,0,0,1-1.12,1c-.62,0-1.18-.34-1.13-1s.37-.73,1.05-.84Z"/><path class="cls-4" d="M99.6,139.55c.69,0,1.31.41,1.2,1a1,1,0,0,1-1.12.9c-.61,0-1.18-.33-1.13-1s.36-.92,1-.94Z"/><path class="cls-4" d="M95.47,136.44c.68,0,1.31.41,1.19,1a1,1,0,0,1-1.11.91c-.62,0-1.18-.33-1.13-1s.36-.92,1-.94Z"/><path class="cls-4" d="M82,142.67c.69,0,1.32.41,1.21,1a1,1,0,0,1-1.12.91c-.62,0-1.17-.33-1.13-1s.36-.93,1-.94Z"/><path class="cls-4" d="M71.58,138.05c.69,0,1.31.41,1.2,1a1,1,0,0,1-1.12.9c-.61,0-1.18-.32-1.13-1s.36-.92,1-.93Z"/><path class="cls-4" d="M57.31,146.16c.69,0,1.31.42,1.2,1a1,1,0,0,1-1.12.9c-.62,0-1.18-.32-1.13-1s.37-.92,1.05-.93Z"/><path class="cls-4" d="M42.58,142.59c.69,0,1.31.16,1.2,1s-.5,1-1.12.9-1.17-.32-1.13-1,.36-.92,1-.93Z"/><path class="cls-4" d="M46.18,142.48c.15,1,0,2.09-.87,2s-1.07-.86-1.11-1.73,0-2,.62-2.06,1.21.78,1.36,1.75Z"/><path class="cls-4" d="M63.43,130.22c.78,0,1.46.41,1.33,1a1.13,1.13,0,0,1-1.24.91c-.69,0-1.31-.33-1.26-1s.41-.93,1.17-.94Z"/><path class="cls-4" d="M63.7,138.52c.75.55,1.17,1.39.68,1.76s-1.07.32-1.74-.17-1.08-1.21-.64-1.7,1-.42,1.7.11Z"/><path class="cls-4" d="M109.34,142.54c.68,0,1.3.41,1.18,1a1,1,0,0,1-1.11.92c-.61,0-1.17-.33-1.12-1s.36-.92,1-.94Z"/></g><g id="K1"><path class="cls-1" d="M145.41,64c-.91,1.29-1.77,2.75-1.16,4.07,1.21,2.52.43,4.52-.15,7.32-.46,13.37-5.87,23.62-8.44,34.79a16.76,16.76,0,0,1-2.88,5.63c-.58,2.18,1.82,5.23,3.48,4.83l-4,3L103,124.65l-3.28.12-75.66,2.76c.05-.26.07-.53.1-.81.61-2.63.68-4.93,2-6.62.37-2.15-1.52-3.82-3.54-2.73,0-.4.05-.81.05-1.21a5.23,5.23,0,0,0,1.16-.33,11.43,11.43,0,0,1,3.41.43c1.59-.15,1.37-2.86,1.14-5.08A10.58,10.58,0,0,0,25,107.87a10.85,10.85,0,0,0-2-.18c0-1.08.13-2.14.21-3.23A6.57,6.57,0,0,0,25,105.52c1.57.53,2.68-.15,2.78-3.46A4.42,4.42,0,0,1,29,99.26c.25-1.85-.36-2.63-1.82-2.05-.63.2-1.29.61-1.9.81a2.26,2.26,0,0,0-1.64.23l0-1.34c1.37-.48,2.63-1.52,3.82-1.49,1.16-.18,1.16-2.4-.56-2.53-.88-1.46-.8-4.29-.65-5.46.93-2.6.58-3.71.05-6a1.93,1.93,0,0,0-2.93-.94l-.05-2a3.84,3.84,0,0,0,1.06.41,13.1,13.1,0,0,1,3.71.85c1.82,1.07,2.83-.5,1.59-2.62a29.16,29.16,0,0,0-1.21-5.23c.1-2-.86-2.88-2.93-2.68a4.27,4.27,0,0,0-2.4,0l0-1.62a9.5,9.5,0,0,0,2.25.23c1.92,0,3.26-.2,3.54-1.21s-1.09-.91-3.51-.91a14.58,14.58,0,0,0-2.3.12L23,63.28a5,5,0,0,0,2.07-.65c1.74-.69,4.29.65,3.39-2.1.55-2.93-.81-3.89-2-3.41a5.93,5.93,0,0,1-2.93.3,2.24,2.24,0,0,0-.6,0V56.41c.25,0,.58-.1.93-.17,2,.25,3.24-.23,3.51-1.75-.15-2.07-.65-4.09.48-6.34,0-1.79-1.82-2.63-4.67-3.18-1-.46-1.64-.43-2,0L21,43.55,21,42.11a3.11,3.11,0,0,0,1.24-.4,4.41,4.41,0,0,0,1.62-.58c1-.08,1.39-.1,1.92.28,1.66.3,2.62-.13,2.62-1.29-.07-2.65-.9-4-2.14-4.22a4.09,4.09,0,0,0-2.35.91c-.58-.13-1.14.18-1.72,0a4,4,0,0,0-1,.33l0-.73a45.42,45.42,0,0,1,5.36-2.68c1.14-.12,1.11-1.34.13-2-.38-.73-1.52-.71-2.1-.76-1.21-.93-.73-2.24-1.29-3.25-2.42-5.36.38-7.53-.12-11.8.4-4,2.32-6.34,4.9-8.82,3.26-1.89,7.52-2.83,12.15-3.26,7.78,0,15.28-.4,23.09-1,2.3-.13,4.85-.66,4.62,1.21.08.73.18,1.44.28,2.17.6.38,1.29,1.39,1.54-.78a11.29,11.29,0,0,1,.83-3,2.94,2.94,0,0,0,.1-.81h.69a2.89,2.89,0,0,0-.18,1.34,6.87,6.87,0,0,1-.73,3.13c-.28,1.47.78,1.54,1.18.83.08-.45.21-1,.28-1.46a1.63,1.63,0,0,1,2.22-.63,33.06,33.06,0,0,1,6.4,5.53,4.76,4.76,0,0,1,.73,2.91c-.23,1.64.93,1.71,1.36.22.84-1.56,1.82-3.51,1-5.4-.51-.69-1.09-1.34-1.69-2,2.45,1.51,4.9,3.23,7.4,4.95a17.62,17.62,0,0,0-2.05-.66c-.86-.45-2-.93-3.08.68-.23.91.08,1.77-.63,2.65-.53,1.6.55,1.92,1.29,1.27.1-.84.53-1.29,1.21-1.16,2.1,1.46,4.39,2.19,6.52,3.31.78.35,1.06.88.78,1.54s-.83,1.51-1.26,2.27,0,1.74,1.39.68a21.56,21.56,0,0,1,3.15-3.48,1.92,1.92,0,0,0,.33-2.1c.43.43.89.86,1.34,1.29-.5,0-1,.43-1.41,1.41a17.31,17.31,0,0,0-2.13,3c-.7,1-.5,1.92.89,1l1.21-1a2.18,2.18,0,0,1,2.68.58c2.27,1.84,3.64,3.26,6.47,5.25.27,3.29,1.34,3,3.33,3a19.87,19.87,0,0,0,6,2.8c.91.61.76,1.29.1,2-.73,1.89,1.36,1.41,2.53.75,1-.73,1.89-1.46,2.82-2.19a1.37,1.37,0,0,0,.16-.18c.17.07.32.15.48.2a6.71,6.71,0,0,0-2.25,2.6,3.93,3.93,0,0,0-.41,2.68c.56,2,1.6,2.83,3,1.19s3-3.19,3.41-4.37a4.83,4.83,0,0,0,0-.63l.58.17a31.71,31.71,0,0,0-1.11,3.49c0,2.85,2.3,3.79,3.16,2.83a3.19,3.19,0,0,1,3.86-2.12c3,.73,5.81.5,8.69,1.71,4.22,1.62,6.62,4.73,7.53,9.58C148.06,56.77,147.53,58.08,145.41,64Z"/><path class="cls-4" d="M74.21,4.93A1.65,1.65,0,0,0,72,5.56c-.08.46-.2,1-.28,1.46-.41.71-1.47.64-1.18-.84a6.93,6.93,0,0,0,.74-3.12c-.11-2,1-2.79,3.18-1.88a19.32,19.32,0,0,1,9.3,7c.77,1.9-.22,3.86-1,5.41-.43,1.5-1.59,1.42-1.38-.22a4.75,4.75,0,0,0-.71-2.91,33.86,33.86,0,0,0-6.39-5.53"/><path class="cls-4" d="M86.16,13.9c-.68-.14-1.1.32-1.19,1.14-.76.68-1.82.35-1.31-1.24.72-.9.42-1.76.66-2.65,1-1.62,2.2-1.15,3.06-.7C91.31,11.58,94.09,13,96,15c1.25,1,1.64,1.81.72,3.17a22.61,22.61,0,0,0-3.16,3.5c-1.41,1.06-1.76.17-1.39-.68l1.27-2.27c.26-.66,0-1.18-.79-1.55-2.13-1.11-4.41-1.83-6.53-3.3"/><path class="cls-4" d="M19.52,28h.13c0-3.32-.07-6.64-.09-10s1.73-6.6,4.3-10.44c1.63-2.55,3.75-5.53,15-5.59,9.8-.67,19.66-1.33,29.47-2,2-.25,2.72.76,2.3,2.5a11.33,11.33,0,0,0-.83,3c-.26,2.18-1,1.17-1.55.79-.1-.72-.19-1.44-.28-2.16.24-1.89-2.32-1.36-4.63-1.23-7.78.59-15.29,1-23.07,1-4.63.43-8.9,1.37-12.15,3.27C25.54,9.62,23.61,12,23.22,16c.49,4.28-2.31,6.45.12,11.8.54,1,.07,2.34,1.28,3.27.6.06,1.73,0,2.11.74,1,.65,1,1.85-.13,2a41.74,41.74,0,0,0-5.55,2.79c-1.35.79-1.9.22-1.63-1.57.42-2.15,0-4.7.1-7"/><path class="cls-4" d="M99.66,22.41A2.19,2.19,0,0,0,97,21.83c-.4.33-.81.64-1.2,1-1.39.89-1.61,0-.88-1a17.5,17.5,0,0,1,2.11-3c1-2.3,2.27-1.4,3.48-.13,2.44,2.39,5.65,3.89,7.88,6.62a11.42,11.42,0,0,0,5,3.46c2.25.7,4.52,1.36,6.77,2.06,1.68.81,1.93,1.91.72,3.23l-2.82,2.2c-1.18.66-3.27,1.15-2.52-.76.64-.71.79-1.39-.11-2a20.58,20.58,0,0,1-6-2.79c-2,0-3,.24-3.31-3-2.85-2-4.22-3.41-6.48-5.26"/><path class="cls-4" d="M119.29,36.67a6.67,6.67,0,0,1,2.91-3c2.83-.79,3.29.54,3.06,2.48-.45,1.18-2.17,2.69-3.42,4.37s-2.41.82-3-1.17a3.82,3.82,0,0,1,.4-2.7"/><path class="cls-4" d="M151.93,43c-1.89-.88-2.18-.86-1.5.36a11.86,11.86,0,0,1,.61,9.13c-.61,1.59.26,2.64,1.12-.19a28.68,28.68,0,0,1,2.66-5.5c.24-.84.51-1.41-.21-1.92-.79-.68-1.9-1.2-2.68-1.88"/><path class="cls-4" d="M20.18,38.84c.12-.89.42-1.7,2.05-2,.58.14,1.15-.17,1.72,0a4.16,4.16,0,0,1,2.34-.93c1.23.23,2.09,1.56,2.14,4.22,0,1.17-.95,1.61-2.62,1.29-.53-.37-.95-.35-1.93-.26a4.25,4.25,0,0,1-1.59.57c-2.2,1.2-3.34-.46-2.11-2.87"/><path class="cls-4" d="M21.09,46.9c-.52-2,.32-2.75,2.1-1.94,2.86.57,4.67,1.4,4.67,3.19-1.12,2.24-.64,4.27-.47,6.33-.28,1.53-1.55,2-3.51,1.75-2.88.7-3-.5-2.73-2,.32-2.55-.08-5-.06-7.37"/><path class="cls-4" d="M21.93,60c-.5-1.32-.66-2.47,1.6-2.54a5.47,5.47,0,0,0,2.93-.3c1.21-.47,2.6.48,2,3.41.94,2.76-1.62,1.42-3.36,2.12-2.77,1.39-3.83.5-3.19-2.69"/><path class="cls-4" d="M22.4,70.88c-.19-1.88,1.14-2.13,3.15-1.66q3.09-.31,2.92,2.68a29.81,29.81,0,0,1,1.22,5.22c1.23,2.14.23,3.7-1.59,2.64a13.94,13.94,0,0,0-3.72-.87c-.94-.21-1.77-.56-1.82-1.87a34.44,34.44,0,0,0-.16-6.14"/><path class="cls-4" d="M22.25,81.72c.94-1.93,3.24-2.23,4.06-.32.52,2.31.87,3.42-.06,6-.15,1.18-.23,4,.65,5.47,1.71.13,1.72,2.36.55,2.53-1.21,0-2.52,1.08-3.93,1.54-1.15.23-1.55-1.18-1.38-2.48.14-2.24.61-5.74.21-7a10.22,10.22,0,0,1-.1-5.8"/><path class="cls-4" d="M22.61,99.23a2.48,2.48,0,0,1,2.7-1.2c.62-.22,1.25-.62,1.88-.83,1.47-.58,2.08.23,1.83,2a4.57,4.57,0,0,0-1.23,2.81c-.1,3.3-1.21,4-2.77,3.46a5.69,5.69,0,0,1-2.82-2.22c-.77-2.15-.27-3.19.41-4.07"/><path class="cls-4" d="M21.18,109.45c-.31-1.76,1.58-2,3.86-1.58a10.72,10.72,0,0,1,3.29,3.32c.22,2.21.44,4.93-1.15,5a12.13,12.13,0,0,0-3.41-.41c-2.29.89-2.75,0-2.36-1.69a12,12,0,0,0-.23-4.69"/><path class="cls-4" d="M26.07,120.1c-1.24,1.69-1.31,4-1.92,6.62,0,.28,0,.53-.1.81l-4,.15a40.39,40.39,0,0,1,1.21-9.17C23.64,115.55,26.58,117.5,26.07,120.1Z"/><path class="cls-4" d="M163.73,47.55c3.23-8.46-.43-10.61-5.82-10.09a44.93,44.93,0,0,1-8.61,0c-2.93-.35-5.29-.74-6.9-1.62a5.54,5.54,0,0,0-4.21.93c-1.43.52-7,0-7-.59-2.52-1.26-2.87-1.7-4.09-1.55-1.12-.09-1.59,2.25-2.3,4.6,0,2.85,2.31,3.79,3.16,2.82a3.22,3.22,0,0,1,3.87-2.11c3,.72,5.8.5,8.69,1.7,4.23,1.63,6.62,4.75,7.54,9.59,0,5.55-.5,6.88-2.61,12.79-.91,1.27-1.78,2.75-1.16,4.06,1.22,2.51.42,4.51-.16,7.33-.46,13.36-5.86,23.61-8.42,34.78a16.91,16.91,0,0,1-2.89,5.64c-.68,2.54,2.75,6.32,4.27,4.26l3.17-4.2c4.38-7.66,6.57-14.65,9.91-23.25,1.34-5.85,1.23-12.31-.06-19.44a21.38,21.38,0,0,1,1.34-9c4.78-5.66,8.79-10.12,12.32-16.61"/><path class="cls-4" d="M124.85,116.35c1,.06,1-1.43,2.21-1l.43.18a.64.64,0,0,1,.37-.06,9.4,9.4,0,0,1,1.33,1,13.65,13.65,0,0,1,3.16,3.14c.6,2.7-.84,3.29-2.54,2.52-.47-.47-1-.46-1.47-1.67-.24-1-2.74-1-3.52-1.58-.77-.89-1.3-1.75,0-2.49Z"/><path class="cls-4" d="M122.37,119.72c1,.93,1.95.36,1.31-1.32a7.84,7.84,0,0,0-3.62-2.65c-1.32-.35-1.91.3-1.8,1.17.37.62,1.59.68,2.25,1.1a3.73,3.73,0,0,1,1.86,1.7"/><path class="cls-4" d="M81.42,15.75c1-.3,1.53.17,2.23.95s.84,2.16.31,2.56-1.23-.08-2.31-1-1.26-2.25-.23-2.56"/><path class="cls-4" d="M136.88,110.44c.66-.38,1.3-.21,1.31.38a10.75,10.75,0,0,1-1.84,4.75c-.77,1.12-1.37.71-1.1-.25,0,0,1.41-4.08,1.63-4.88"/><path class="cls-4" d="M104.78,116.87a1.21,1.21,0,0,1,1.22,1c0,.49-.42.86-1.06.87s-1.27-.36-1.28-.85a1.13,1.13,0,0,1,1.12-1"/><path class="cls-4" d="M108.74,112.2a1.19,1.19,0,0,1,1.1,1.08.88.88,0,0,1-1,.87c-.58,0-1.16-.36-1.16-.85a1.13,1.13,0,0,1,1-1.1"/><path class="cls-4" d="M101.24,124.12c1.05-.17,1.92.24,1.83.93s-.19.67-1.66,1.11-2-.44-1.86-1.07.64-.81,1.69-1Z"/><path class="cls-4" d="M116.38,115.55c1-.39,2-.87,1.9-.17s-.69.83-1.54,1.18-1.61.75-1.94.12.58-.73,1.58-1.13"/><path class="cls-4" d="M98.65,114.06a1.43,1.43,0,0,1,1.55,1.27c0,.71-.44,1-1.52,1.3s-1.83-.21-1.54-1.26.67-1.3,1.51-1.31"/><path class="cls-4" d="M82.71,116.72A1.28,1.28,0,0,1,83.88,118c0,.74-.28,1.27-.91,1.29a1.36,1.36,0,0,1-1.4-1.26c-.14-.91.37-1.51,1.14-1.35"/><path class="cls-4" d="M82.59,106.36a1,1,0,0,1,1.24.57c.23.53.19,1-.25,1.2a1,1,0,0,1-1.38-.47c-.38-.6-.2-1.19.39-1.3"/><path class="cls-4" d="M64,106.85a1,1,0,0,1,1.24.58c.22.52.18,1-.26,1.19a1.06,1.06,0,0,1-1.38-.47c-.38-.6-.2-1.19.4-1.3"/><path class="cls-4" d="M57.48,102.5a1,1,0,0,1,1.25.58c.22.52.18,1-.27,1.19a1,1,0,0,1-1.38-.47c-.38-.61-.19-1.19.4-1.3"/><path class="cls-4" d="M55.81,81.83a1,1,0,0,1,1.3-.46c.53.21.83.57.65,1a1,1,0,0,1-1.31.63c-.69-.16-1-.7-.64-1.2"/><path class="cls-4" d="M46.17,87.18c.31-.51.69-.67,1.17-.46s.76.57.6,1a.94.94,0,0,1-1.2.64.79.79,0,0,1-.57-1.21"/><path class="cls-4" d="M40.54,87.86a1,1,0,0,1,1.29-.5c.54.24.84.63.66,1.14a1,1,0,0,1-1.31.7.87.87,0,0,1-.64-1.34"/><path class="cls-4" d="M54.58,92.13a1,1,0,0,1,1.23.59c.35.58.39,1.09-.26,1.19s-1,.14-1.37-.46-.2-1.2.4-1.32"/><path class="cls-4" d="M92.21,105.85a1.09,1.09,0,0,1,1.5.19c.42.48.54,1,.13,1.35a1.15,1.15,0,0,1-1.6,0c-.61-.5-.62-1.18,0-1.51"/><path class="cls-4" d="M102.69,97a1.1,1.1,0,0,1,1.5.2c.42.48.54,1,.13,1.34a1.14,1.14,0,0,1-1.61,0c-.6-.52-.61-1.19,0-1.52"/><path class="cls-4" d="M97,89a1,1,0,0,1,1.07.9c.13.62,0,1.12-.46,1.24s-1-.06-1.23-.8S96.36,89,97,89"/><path class="cls-4" d="M84.53,91.29A1,1,0,0,1,85.91,91c.55.31.86.72.65,1.15a1,1,0,0,1-1.4.44c-.73-.28-1-.87-.63-1.33"/><path class="cls-4" d="M69.19,120.52a1,1,0,0,1,1.4-.44c.55.26.85.68.64,1.18a1.09,1.09,0,0,1-1.42.65c-.73-.22-1-.84-.62-1.39Z"/><path class="cls-4" d="M67.73,122.85a1,1,0,0,1,1.4-.44c.55.25.86.67.64,1.17a1.09,1.09,0,0,1-1.42.65c-.73-.22-1-.84-.62-1.38Z"/><path class="cls-4" d="M55.5,120.67c.75.25,1.08.7,1,1.39s-.49,1.16-1.13,1.09a1.27,1.27,0,0,1-1.22-1.35c0-.88.63-1.39,1.38-1.13Z"/><path class="cls-4" d="M53.57,114.24a1.2,1.2,0,0,1,1.5-.63c.67.18,1.1.55,1,1.07a1.19,1.19,0,0,1-1.48.84c-.86-.11-1.3-.69-1-1.28"/><path class="cls-4" d="M38.61,120.93c.24-.7.71-.76,1.31-.59s1,.52.85,1-.57.78-1.3.79a.84.84,0,0,1-.86-1.22Z"/><path class="cls-4" d="M41.36,124.43c.23-.5.67-.6,1.23-.59a.83.83,0,0,1,.79,1c-.11.5-.54.78-1.22.79a.88.88,0,0,1-.8-1.22Z"/><path class="cls-4" d="M45.87,123.3c.82.33.67.78,1,1.69s.11,1.63-.61,1.48-.68-.53-1.29-1.69.07-1.8.9-1.48Z"/><path class="cls-4" d="M33.56,67.36c.81.19,1.19.35,1.19.82s-.52.83-1.18.84-1-.16-1.19-.82.37-1,1.18-.84"/><path class="cls-4" d="M42.94,75.79c.74.19,1.11.36,1.11.82s-.49.83-1.09.84-1-.16-1.12-.82.34-1,1.1-.84"/><path class="cls-4" d="M45.24,63.84c.76.2,1.17.54,1.18,1s-.5.83-1.1.84-1-.16-1.12-.82a.8.8,0,0,1,1-1"/><path class="cls-4" d="M38.29,63.12c.9.12,1.32.46,1.17,1a1.06,1.06,0,0,1-1.1.84c-.61,0-1-.17-1.12-.82s.14-1.13,1-1"/><path class="cls-4" d="M52.45,66.76c.89.12,1.32.46,1.17,1s-.5.91-1,.83a1.23,1.23,0,0,1-1.17-.82c-.23-.57.14-1.12,1-1"/><path class="cls-4" d="M46.12,55.57c.81.11,1.19.42,1.06.9s-.46.83-.94.76a1.11,1.11,0,0,1-1.07-.74c-.2-.52.13-1,.95-.92"/><path class="cls-4" d="M56.82,57.57a1.23,1.23,0,0,1,1,1.32c-.12.63-.45,1.06-.94,1s-1.23-.28-1.06-1,.41-1.5,1-1.35"/><path class="cls-4" d="M72.17,65.65a1.15,1.15,0,0,1,1,1.24c-.13.58-.6,1-.89.92a1.19,1.19,0,0,1-.93-.9c-.12-.64.32-1.39.87-1.26"/><path class="cls-4" d="M67.47,49.36c.61.14,1.17.66,1,1.25s-.65,1-1,.91a1.24,1.24,0,0,1-1-.9c-.13-.63.36-1.38,1-1.26"/><path class="cls-4" d="M68.84,33.81a1.16,1.16,0,0,1,.93,1.24c-.12.58-.59,1-.87.92a1.2,1.2,0,0,1-.93-.9c-.11-.63.32-1.38.87-1.26"/><path class="cls-4" d="M58.32,24.88c.67.14,1.31.65,1.16,1.24s-.74,1-1.09.91-1-.25-1.16-.89a1,1,0,0,1,1.09-1.26"/><path class="cls-4" d="M49,28.35c.62.13,1.2.59,1.06,1.12s-.67.91-1,.83-.91-.23-1-.81a.93.93,0,0,1,1-1.14"/><path class="cls-4" d="M41.7,27.37c.69.14,1.34.67,1.19,1.27s-.75,1-1.12.94-1-.27-1.18-.92a1.05,1.05,0,0,1,1.11-1.29"/><path class="cls-4" d="M39.65,21.38c.7.14,1.35.68,1.2,1.27s-.76,1-1.12.94-1-.27-1.18-.91a1.06,1.06,0,0,1,1.1-1.3"/><path class="cls-4" d="M47.28,19.12c.7.13,1.34.67,1.19,1.27s-.76,1-1.12.94-1-.27-1.18-.92a1.06,1.06,0,0,1,1.11-1.29"/><path class="cls-4" d="M55.76,17.93c.62.12,1.21.6,1.07,1.14s-.69.93-1,.86-.93-.25-1.07-.83a1,1,0,0,1,1-1.17"/><path class="cls-4" d="M31.18,16.68c.64.13,1.23.61,1.09,1.17s-.69.93-1,.86a1.29,1.29,0,0,1-1.08-.84,1,1,0,0,1,1-1.19"/><path class="cls-4" d="M25.61,19.81c.64.13,1.24.61,1.09,1.17s-.69.93-1,.86-.95-.25-1.08-.84a1,1,0,0,1,1-1.19"/><path class="cls-4" d="M38.86,38c1.35-.25,2,.49,1.49,1.32s-1,1-1.4.94-1.3-.26-1.49-.91,0-1.1,1.4-1.35"/><path class="cls-4" d="M77.67,46.94a1.41,1.41,0,0,1,1.07,1.65c-.16.77-.61,1.32-1,1.22a1.56,1.56,0,0,1-1.24-1.2c-.16-.84.42-1.84,1.15-1.67"/><path class="cls-4" d="M62,42.68c.6.12,1.17.6,1,1.12s-.65.91-1,.83a1.2,1.2,0,0,1-1-.8.93.93,0,0,1,1-1.15"/><path class="cls-4" d="M49.61,35.69a.92.92,0,0,1,1.11,1.12,1,1,0,0,1-1,.83c-.33-.07-1-.24-1.09-.8s.25-1,1-1.15"/><path class="cls-4" d="M32.37,40.84c.78-.11,1.2.33,1.11,1.12s-.7,1-1.09.83-.91-.23-1.05-.81.26-1,1-1.14"/><path class="cls-4" d="M32.18,43.77c.76-.16,1.2.43,1.11,1.48s-.92,1.63-1.32,1.39-.57-.61-.71-1.37a1.15,1.15,0,0,1,.92-1.5"/><path class="cls-4" d="M33.38,31.51c1,0,1.12-.26,2,1.51s-.73,1.75-1.84.89-1.23-.46-1.41-1,.24-1.39,1.29-1.36"/><path class="cls-4" d="M66,39.78c.77-.2,1.3.85,1.12,1.84s-.7,1.47-1,1.34-.79-.39-.93-1.33.09-1.65.85-1.85"/><path class="cls-4" d="M45.16,45.3c.61.13,1.17.66,1,1.24s-.66,1-1,.92a1.28,1.28,0,0,1-1-.9c-.13-.63.36-1.39,1-1.26"/><path class="cls-4" d="M59,47.37a3.19,3.19,0,0,1,2,3c-.07,1.3-1.8.1-2.25-.47s-2.46-.08-2.68-1,2-1.7,3-1.51"/><path class="cls-4" d="M59.31,55.35c1.24-.75,2-.3,1.83.66s-.57,1.26-1,1.33-1.31.2-1.7-.33-.35-.91.89-1.66"/><path class="cls-4" d="M33.24,51c.81.1,1.2.41,1.06.89s-.45.83-.94.76-1.09,0-1.29-.51.35-1.25,1.17-1.14"/><path class="cls-4" d="M31.68,47.43c.82.12,1.19.48,1.06,1s-.46.94-.94.87-1.08,0-1.29-.6a1.06,1.06,0,0,1,1.17-1.32"/><path class="cls-4" d="M47.09,57.71c.82.11,1.48.41,1.35.89a1.21,1.21,0,0,1-1.22.82,1.18,1.18,0,0,1-1.07-.79c-.2-.53.13-1,.94-.92"/><path class="cls-4" d="M42.72,68.51c1.2.11,1.76.44,1.57,1a1.45,1.45,0,0,1-1.39,1.07,1.91,1.91,0,0,1-1.57-1c-.3-.58.18-1.12,1.39-1"/><path class="cls-4" d="M123.57,113.46c.66.16,1,.42,1,1a1,1,0,0,1-1,1c-.55,0-1.08-.55-1-.95s.32-1.12,1-1"/><path class="cls-4" d="M132.18,107.16a.89.89,0,0,1,.79,1,1,1,0,0,1-1,1c-.54,0-1.08-.54-1-.94s.54-1.2,1.19-1"/><path class="cls-4" d="M116.35,88.35a.88.88,0,0,1,.79,1,1,1,0,0,1-1,1c-.54,0-1.08-.54-1-.94s.53-1.19,1.19-1"/><path class="cls-4" d="M126.31,95.3c.73,0,1.35.57,1.82,1.49s.27,1.8-.21,2-1.73-.46-2-1.19-.32-2.32.41-2.34"/><path class="cls-4" d="M120.87,109.94a.89.89,0,0,1,.8,1,1,1,0,0,1-1,1c-.55,0-1.09-.56-1-1s.53-1.19,1.19-1"/><path class="cls-4" d="M118.85,103.17c.52.32.76.65.34,1.71s-1.28,2-1.82,2-.85-1.11-.44-1.92,1.4-2.08,1.92-1.76"/><path class="cls-4" d="M124,102.22c1.82.5,1.67,1.33,1.68,2.41a2,2,0,0,1-2,2,2.19,2.19,0,0,1-2.05-2c-.12-.92.57-2.94,2.39-2.45"/><path class="cls-4" d="M25.4,65.66c2.42,0,3.75-.09,3.5.91s-1.63,1.18-3.55,1.2-3.28-.33-3.42-1.12,1.05-1,3.47-1"/><path class="cls-4" d="M107.87,50.64c.86,0,1.19.61,1.2,1.38s-.21,1.32-1.17,1.4-.85-.41-1-1.3.07-1.47.94-1.48"/><path class="cls-4" d="M103.12,66.51c.7,0,1,.5,1,1.11s-.17,1.07-1,1.14-.67-.33-.78-1.06.06-1.18.76-1.19"/><path class="cls-4" d="M90.72,68.18a.86.86,0,0,1,1,.92c0,.52-.17.9-1,1s-.68-.27-.79-.87.07-1,.77-1"/><path class="cls-4" d="M98.57,76.2c.92,0,1.26.41,1.27.92s-.23.9-1.26,1-.9-.28-1-.88.09-1,1-1"/><path class="cls-4" d="M111.63,77.84c.8,0,1.11.4,1.11.92s-.2.89-1.09.95-.79-.27-.91-.87.08-1,.89-1"/><path class="cls-4" d="M123.56,80c.8,0,1,.51.92,1.15a1.25,1.25,0,0,1-1.3,1.18c-.91.07-.73-.34-.71-1.09s.29-1.23,1.09-1.24"/><path class="cls-4" d="M90.22,52.37c.67,0,.93.47.94,1.07s-.16,1-.92,1.1-.66-.31-.76-1,.06-1.14.74-1.15"/><path class="cls-4" d="M91.32,40.17c.58,0,.89.69.9,1.57s-.6,1.74-1.18,1.75-.74-.86-.74-1.73.45-1.59,1-1.59"/></g><g id="Labels"><path class="cls-2" d="M104.72,32.82h.21a.51.51,0,0,1,.2.23l0,.21a.27.27,0,0,1-.1.24l-.41.18.2.19a.61.61,0,0,1,.19.45v.19a.15.15,0,0,1,0,.07.19.19,0,0,1,0,.07,1,1,0,0,1-.55.72l-.29.16-.21.06-.25,0h-.25l-.26,0-.49-.11-.09-.06-.32.27-.15.14-.2.15-.42.3-.17.12-.32.2-.3.18-.61.33-.12.06-.14.06-.25.14-.24,0a.58.58,0,0,1-.52-.3v-.07l0-.16a.3.3,0,0,1,.08-.23l.12-.09.08,0h.53a.81.81,0,0,0,.39-.1l.67-.36.24-.15.39-.25.25-.18.16-.18.14-.1.14-.16-.1-.19,0-.12,0-.12a.47.47,0,0,1,.28-.32l.21,0h.14l.19.09a.35.35,0,0,1,.18.2l0,.17.06,0,.17.12.18.07h.24l.15,0,.13,0a.8.8,0,0,0,.32-.21l.09-.13,0-.12a.43.43,0,0,0,0-.21l-.1-.12L104,34l-.13-.09-.26-.12-.24-.17,0-.1,0-.12a.15.15,0,0,1,.08-.15l.22-.1H104l.16-.07.14-.1.14-.08.14-.06Z"/><path class="cls-2" d="M104.67,38.26a.27.27,0,0,1,.28.18l0,.14v.1a.15.15,0,0,1,0,.1l-.12.14-.08,0-.17.08-.18.09-.32.3-.29.21-.51.32-.45.28-.26.14a1.36,1.36,0,0,1-.3.15l-.5.19-.19.05a.39.39,0,0,1-.27-.12.44.44,0,0,1-.1-.28l0-.13a.14.14,0,0,1,.06-.1l.07,0,.24-.13.51-.23.44-.21.29-.14.27-.15.52-.33.3-.2.26-.21.29-.17A.37.37,0,0,1,104.67,38.26Z"/><path class="cls-2" d="M99.42,33.22h.18l.12,0,.11.06a.59.59,0,0,1,.3.4l.05.21,0,.16a.31.31,0,0,1,0,.11l0,.18-.08.32L100,35l-.1.23-.13.25a1.16,1.16,0,0,1-.38.46l-.16,0-.1,0L99,36l-.09,0-.15-.09,0-.16a.45.45,0,0,1,0-.13.38.38,0,0,1,.07-.11l.15-.2.14-.22.26-.47.08-.25s0,0,0-.07a.08.08,0,0,0,0-.07l-.07,0a.43.43,0,0,0-.27.1l-.23.2-.51.42-1,.77-.36.25-.4.24-.31.17-.26.09h-.19l-.19,0-.11,0q-.12-.06-.12-.27v-.13s0-.09,0-.11l0-.13s.08-.08.2-.14l.26,0h.21l.16,0,.31-.16.5-.33.23-.17.24-.2.31-.27.31-.27.31-.28.31-.27A.84.84,0,0,1,99.42,33.22Z"/><path class="cls-2" d="M100.52,29.64c0,.58-.38,1.08-1.14,1.48a1.63,1.63,0,0,1-.78.23c-.74,0-1.11-.31-1.11-.94a1.57,1.57,0,0,1,.64-1.22,2.07,2.07,0,0,1,1.34-.53,1.32,1.32,0,0,1,.42.07.84.84,0,0,1,.33.19A.92.92,0,0,1,100.52,29.64Zm-.69.11c0-.26-.19-.39-.55-.39a1,1,0,0,0-.69.33.94.94,0,0,0-.34.7c0,.16.11.24.34.24h.16a1.22,1.22,0,0,0,.68-.3C99.69,30.13,99.83,29.94,99.83,29.75Z"/><path class="cls-2" d="M95,33l.29,0,.18,0c.09,0,.14.07.14.2l0,.16a.32.32,0,0,1-.08.21.77.77,0,0,1-.27.12l-.36,0h-.11l-.2,0-.33.1c-.11,0-.17.07-.18.14l.1.15,0,.06,0,.08.06.14a.79.79,0,0,1,0,.26v.31a.59.59,0,0,1-.06.18l-.09.18-.05.07-.07.08-.08.09-.11.06-.34.16-.21,0H91.65l-.21,0-.16-.08-.06,0-.14-.1a.55.55,0,0,1-.16-.4.41.41,0,0,1,0-.18L91.1,35l.12-.1a1,1,0,0,1,.33-.1.24.24,0,0,1,.18.1l.1.13.16.12.19,0,.38,0H93c.27,0,.44-.07.52-.21v-.09l0-.1a.51.51,0,0,0-.08-.19l-.11-.12-.12-.15-.15-.2,0-.25a.34.34,0,0,1,.06-.2l.15-.1.21-.11.2-.14.3-.13.36-.12A2.52,2.52,0,0,1,95,33Z"/><path class="cls-2" d="M95.94,29.14a.4.4,0,0,1,.24-.09c.22,0,.34.15.34.45l0,.11a.19.19,0,0,1-.06.07,13.71,13.71,0,0,1-1.3.89,11.48,11.48,0,0,1-1.31.66l-.18.06-.13,0q-.17,0-.27-.21v-.28c0-.11.07-.19.22-.23a9.1,9.1,0,0,0,1-.55l.34-.2c.17-.1.34-.2.5-.31A6.86,6.86,0,0,0,95.94,29.14Z"/><path class="cls-2" d="M86,36.54a.67.67,0,0,1-.41-.11.42.42,0,0,1-.14-.35V36a.22.22,0,0,1,.12-.19,1.14,1.14,0,0,1,.26-.09,2.34,2.34,0,0,0,.84-.19l.7-.39a1.74,1.74,0,0,0,.4-.21l.46-.32.19-.12.2-.17-.1-.08L88.35,34l-.08-.16v-.16a.68.68,0,0,1,0-.17l.12-.1a.52.52,0,0,1,.31-.13,1.23,1.23,0,0,1,.41.13l.12.07.17.1.46-.24.56-.31.3-.13a2.29,2.29,0,0,1,.58-.17.66.66,0,0,1,.27.08.32.32,0,0,1,.11.26v.09a.28.28,0,0,1-.11.16l-.19.13-.12,0-.32.15-.29.12-.47.14L90,34l.37.19.29.14.15.14,0,0v.08a.19.19,0,0,1,0,.1l0,.1a.24.24,0,0,1-.13.13l-.16.07-.19,0-.12,0-.76-.39-.26.16-.27.2-.36.22L88,35.5l-.94.55-.38.2-.36.18-.2.07Z"/><path class="cls-2" d="M90,28.54h.37a.23.23,0,0,1,.12,0,1.17,1.17,0,0,1,.67.16.49.49,0,0,1,.24.43,1.25,1.25,0,0,1-.44.75l-.26.29-.34.28a2,2,0,0,1-.33.24,3.17,3.17,0,0,1-.41.21l-.6.25-.3.14-.21,0s-.09,0-.17-.13l-.05-.1,0-.11a.41.41,0,0,1,.07-.22.72.72,0,0,1,.25-.17l.26-.08.31-.1a1.78,1.78,0,0,0,.31-.12,1.55,1.55,0,0,0,1-.93l-.06,0-.06,0-.23,0-.17,0-.17,0h-.19l-.1,0-.14.07-.11.07-.1,0H89a.26.26,0,0,1-.16-.07l-.11-.16,0-.13a.27.27,0,0,1,.15-.26,2.44,2.44,0,0,1,.57-.24A2.8,2.8,0,0,1,90,28.54Z"/><path class="cls-2" d="M154.75,24.45h.54a.74.74,0,0,1,.28.05l.29.07c.35.08.53.24.53.47a.68.68,0,0,1-.11.33,1,1,0,0,1-.12.17l-.18.19-.27.25-.32.26-.27.19-.42.28a11.24,11.24,0,0,1-1.22.69l-.51.24-.25.09-.3.1-.23,0-.16,0-.09-.05-.13-.1-.09-.17,0-.07c0-.22.07-.33.21-.36l.23,0h.21l.22,0,.15,0,.16,0,.19-.08.26-.14.43-.21.2-.09.33-.18.37-.2.21-.15.13-.09.19-.16a1.25,1.25,0,0,0,.23-.23l.07-.08v0a.08.08,0,0,0,0-.06l-.11,0-.09,0-.24,0-.18,0h-.12l-.38.06-.06,0-.11.05-.12,0-.09,0h-.28l-.18,0a.41.41,0,0,1-.24-.31.44.44,0,0,1,.06-.25.66.66,0,0,1,.24-.17l.2-.07.21-.07Z"/><path class="cls-2" d="M156.85,20.53a.4.4,0,0,1,.24-.09c.22,0,.34.15.34.45l0,.11a.19.19,0,0,1-.06.07c-.44.33-.87.63-1.3.89a13.39,13.39,0,0,1-1.31.66l-.18.06-.13,0q-.17,0-.27-.21v-.28c0-.11.07-.19.22-.23a9.1,9.1,0,0,0,1-.55,3.79,3.79,0,0,1,.34-.2l.5-.31C156.48,20.79,156.68,20.66,156.85,20.53Z"/><path class="cls-2" d="M150.65,24.47l.12,0a.32.32,0,0,1,.27.33.35.35,0,0,1-.1.17l-.18.13-.22.09.43.1.17.06.2.05c.31,0,.47.18.47.4l-.06.11-.19.15-.12.1-.18.14-.64.36-.13.09a.13.13,0,0,0,0,.1l.73.15.56.11.21,0c.21,0,.32.1.32.29s-.06.36-.19.38h-.44l-.19,0-.3-.05-.35-.06-.15,0-.16,0-1-.27-.08,0-.06,0-.07,0-.13-.08s-.06-.06-.08-.14a.27.27,0,0,1,.08-.18l.13-.14.36-.25.39-.24.36-.23.25-.19-.37,0-1.09-.16a.09.09,0,0,1-.09-.07v-.17l.18-.14.31-.23.37-.26.34-.19A1.1,1.1,0,0,1,150.65,24.47Z"/><path class="cls-2" d="M152,19.93h.49a1.27,1.27,0,0,1,.67.16.53.53,0,0,1,.23.44,1.25,1.25,0,0,1-.43.75l-.26.29-.34.28a3.33,3.33,0,0,1-.34.24,2.52,2.52,0,0,1-.4.21l-.6.25-.3.14-.21,0s-.1-.05-.17-.14l0-.09-.05-.11a.38.38,0,0,1,.07-.22.64.64,0,0,1,.25-.17l.26-.08.3-.1a1.07,1.07,0,0,0,.32-.13,1.52,1.52,0,0,0,1-.92l-.06-.05-.07,0-.22,0h-.53l-.1,0-.14.07-.11.06-.1.05h-.16a.33.33,0,0,1-.17-.07l-.11-.16,0-.13a.31.31,0,0,1,.14-.27,3.34,3.34,0,0,1,.58-.23A2.8,2.8,0,0,1,152,19.93Z"/><path class="cls-2" d="M147.94,24.61h.18l.12,0,.12.06a.58.58,0,0,1,.29.4l0,.21,0,.16c0,.05,0,.09,0,.11l0,.18-.09.32-.11.3-.1.23-.13.25a1.22,1.22,0,0,1-.37.46l-.17,0-.09,0a.2.2,0,0,1-.1,0l-.1,0-.14-.1,0-.16c0-.05,0-.1,0-.12a.28.28,0,0,1,.07-.11l.15-.2.15-.22.25-.47.09-.25a.35.35,0,0,0,0-.07.09.09,0,0,0,0-.07l-.06,0a.44.44,0,0,0-.28.1l-.23.2-.5.42-1,.76-.36.26-.4.24-.31.17-.26.09-.2,0-.18,0-.11,0c-.09,0-.13-.13-.13-.27v-.14a.25.25,0,0,1,0-.1L144,27s.07-.08.19-.14l.26,0h.22l.15-.05.32-.16.49-.32.24-.18.24-.19.3-.27.32-.27.3-.28.32-.27A.82.82,0,0,1,147.94,24.61Z"/><path class="cls-2" d="M149,21c0,.58-.38,1.07-1.14,1.48a1.75,1.75,0,0,1-.78.23c-.73,0-1.1-.31-1.1-.94a1.54,1.54,0,0,1,.63-1.22,2.12,2.12,0,0,1,1.35-.53,1.21,1.21,0,0,1,.41.07.78.78,0,0,1,.33.19A.89.89,0,0,1,149,21Zm-.69.11c0-.26-.18-.39-.55-.39a1,1,0,0,0-.69.32,1,1,0,0,0-.33.7c0,.17.11.25.33.25h.17a1.2,1.2,0,0,0,.67-.3C148.22,21.52,148.35,21.33,148.35,21.14Z"/><path class="cls-2" d="M143.84,25.52c0,.31-.31.68-.93,1.1l-1.13.76-.48.29a4.38,4.38,0,0,1-1.71.75c-.4,0-.59-.15-.59-.46a.41.41,0,0,1,.21-.36.48.48,0,0,1,.29-.06h.06l.09,0,.1.05.05,0H140l.12,0,.19-.06.51-.27.21-.11.35-.22.2-.14c-.43-.19-.64-.43-.64-.71a1.18,1.18,0,0,1,.46-.94l.21-.14.22-.16a2,2,0,0,1,1-.25,1.35,1.35,0,0,1,.87.33A.69.69,0,0,1,143.84,25.52Zm-.78-.09c-.06-.1-.21-.15-.47-.15a1.22,1.22,0,0,0-.71.34l-.1.11-.1.16,0,.13a.28.28,0,0,0,.17.23s.06,0,.13,0l.12,0,.19-.05.33-.16q.51-.33.51-.54A.11.11,0,0,0,143.06,25.43Z"/><path class="cls-2" d="M144.37,20.53a.35.35,0,0,1,.23-.09c.23,0,.34.15.34.45l0,.11a.19.19,0,0,1-.06.07,14.33,14.33,0,0,1-1.3.89,12.36,12.36,0,0,1-1.31.66l-.17.06-.14,0a.29.29,0,0,1-.26-.21l0-.12,0-.16c0-.11.07-.19.21-.23a8.28,8.28,0,0,0,1-.55l.34-.2c.18-.1.34-.21.5-.31Z"/><path class="cls-2" d="M134.41,27.93a.68.68,0,0,1-.42-.11.43.43,0,0,1-.13-.35v-.12a.22.22,0,0,1,.12-.19.62.62,0,0,1,.27-.09,2.1,2.1,0,0,0,.84-.2l.7-.38a1.71,1.71,0,0,0,.39-.21l.46-.33.19-.11.2-.17-.09-.09-.17-.19-.07-.16v-.16a.46.46,0,0,1,.06-.16l.11-.1a.49.49,0,0,1,.31-.13,1,1,0,0,1,.41.13l.13.07.16.1.47-.25.55-.3.3-.13a2.19,2.19,0,0,1,.59-.18.81.81,0,0,1,.27.09.31.31,0,0,1,.11.25v.1a.31.31,0,0,1-.11.16l-.2.13-.11,0-.32.15-.3.12-.47.14-.24.06.38.18.28.15.15.14,0,.05V26a.2.2,0,0,1,0,.1l0,.09a.23.23,0,0,1-.13.14l-.15.07-.2,0a.22.22,0,0,1-.12,0l-.75-.38-.27.16-.27.2-.36.22-.52.32-.93.55-.38.2-.36.18-.2.07Z"/><path class="cls-2" d="M139.36,29.65a.27.27,0,0,1,.28.18l0,.14v.1a.18.18,0,0,1,0,.1l-.12.13-.08.05-.17.08-.18.08-.32.31-.29.2-.51.33-.45.27-.26.15a2,2,0,0,1-.3.15l-.5.19-.19,0A.39.39,0,0,1,136,32a.46.46,0,0,1-.1-.28l0-.14a.17.17,0,0,1,.06-.1l.07-.05.24-.12.51-.23.44-.21.29-.14.27-.15.52-.34.3-.19.26-.21.29-.17A.37.37,0,0,1,139.36,29.65Z"/><path class="cls-2" d="M169.93,37h.16l.12,0,.36.06.37.11.26.11a.59.59,0,0,1,.34.49l0,.18-.09.16-.11.14-.26.22-.9.6-.83.43-.35.16-.31.06a.36.36,0,0,1-.24-.1l-.07-.12,0-.14,0-.15a.41.41,0,0,1,.12-.14l.29-.15.55-.23.71-.36.29-.16.22-.15,0-.09q0-.21-.54-.21l-.37,0-.44.15c-.31,0-.46-.13-.46-.38a.29.29,0,0,1,.07-.22.83.83,0,0,1,.24-.15l.44-.14Zm3.1,0a2.43,2.43,0,0,1,.6.09l.18.05.13.07.26.18a.69.69,0,0,1,.19.19.6.6,0,0,1,.06.27l0,.1-.06.12-.14.16-.13.15-.13.15-.18.15-.49.4-.5.33-.44.25-.19.05-.21,0h-.16a.23.23,0,0,1-.13-.07l-.06-.14a.25.25,0,0,0,0-.1.25.25,0,0,1,.08-.17l.16-.08.2-.1.3-.15.52-.28.4-.31.21-.19a.53.53,0,0,0,.08-.17.19.19,0,0,0-.13-.2l-.31,0-.2,0-.14,0-.16.06-.12,0-.1,0-.27,0-.12,0,0,0-.07-.06s0-.09-.05-.17l0-.1a.27.27,0,0,1,.06-.12l.2-.14.14-.06.13,0a1.25,1.25,0,0,1,.32-.08l.23,0Z"/><path class="cls-2" d="M173.36,41.23h.11a.15.15,0,0,1,.1,0,.4.4,0,0,1,.2.22l0,.21a.27.27,0,0,1-.1.24l-.41.18.2.19a.61.61,0,0,1,.19.45v.2a.13.13,0,0,1,0,.06.19.19,0,0,1,0,.07,1,1,0,0,1-.55.72l-.29.16-.2.06-.26,0h-.25l-.26,0-.49-.11-.09-.06-.32.27-.15.14-.2.15-.42.31-.17.11-.32.2-.3.18-.6.33-.13.06-.14.07-.25.13-.24,0a.58.58,0,0,1-.52-.3v-.07l0-.16a.27.27,0,0,1,.09-.23l.11-.09.08,0h.53a.81.81,0,0,0,.39-.1l.67-.36.24-.14.39-.26.25-.18.16-.18.14-.1.14-.16-.1-.19,0-.12,0-.12a.5.5,0,0,1,.28-.32l.21,0h.14l.19.08a.32.32,0,0,1,.18.2l0,.17.06,0,.17.11.18.07h.24l.15,0,.13-.05a.8.8,0,0,0,.32-.21l.09-.13,0-.12a.43.43,0,0,0,0-.21l-.1-.11-.14-.09-.13-.09-.26-.12-.24-.17-.05-.1,0-.12a.15.15,0,0,1,.08-.15l.23-.1h.41l.16-.07.14-.1.14-.08.14-.06Z"/><path class="cls-2" d="M179.9,38.05c0,.58-.38,1.08-1.14,1.48a1.63,1.63,0,0,1-.78.23c-.74,0-1.1-.31-1.1-.94a1.56,1.56,0,0,1,.63-1.22,2.09,2.09,0,0,1,1.35-.52,1.27,1.27,0,0,1,.41.06.7.7,0,0,1,.33.2A.89.89,0,0,1,179.9,38.05Zm-.69.11c0-.26-.19-.39-.55-.39a1,1,0,0,0-.69.33,1,1,0,0,0-.33.7q0,.24.33.24h.17a1.2,1.2,0,0,0,.67-.3A.77.77,0,0,0,179.21,38.16Z"/><path class="cls-2" d="M177.1,41.47l.22,0a.46.46,0,0,1,.32.18l.09.15a.31.31,0,0,0,.2.09.35.35,0,0,0,.16-.06l.14-.13.12-.1.11-.09a.16.16,0,0,1,.11,0,.42.42,0,0,1,.17,0h.09l.08.05.14.06.07.05,0,.07.08.18.06.17.05,0,.07,0a1,1,0,0,0,.34-.1l.15-.12.15-.15.06-.06.1-.07.19-.1.16,0h.15a.1.1,0,0,1,.1.07l.09.11,0,.09a.48.48,0,0,1-.13.36l-.17.21a.41.41,0,0,1-.2.14l-.22.12-.27.11-.26.08-.48.1a.77.77,0,0,1-.39-.11l-.15-.12-.16-.16h-.3a.8.8,0,0,0-.23,0,.36.36,0,0,0-.15.08l-.33.3-.48.4-.5.37-.13.1-.19.11L176,44l-.7.39-.54.3-.22.09-.24.09-.22,0h-.23l-.15,0-.18-.07a.42.42,0,0,1-.21-.42.34.34,0,0,1,.21-.32h.69a1.31,1.31,0,0,0,.47-.19l.48-.24.55-.3.51-.33.38-.3.09-.12a.15.15,0,0,0,0-.11l-.18-.34,0-.16v-.09a.13.13,0,0,1,0-.08l.1-.13A.64.64,0,0,1,177.1,41.47Z"/><path class="cls-2" d="M186.39,37.55a.4.4,0,0,1,.24-.09c.23,0,.34.15.34.45l0,.11a.19.19,0,0,1-.06.07,12.54,12.54,0,0,1-1.3.89,9.46,9.46,0,0,1-1.31.66l-.17.06-.14,0a.29.29,0,0,1-.26-.21l0-.12,0-.16c0-.11.07-.19.21-.23a9.1,9.1,0,0,0,1-.55l.34-.2c.17-.1.34-.2.5-.31A6.86,6.86,0,0,0,186.39,37.55Z"/><path class="cls-2" d="M184.65,41.47h.16l.14,0h.12l.13,0a.61.61,0,0,1,.28,0l.29.06c.35.09.53.24.53.47a.65.65,0,0,1-.11.33l-.13.18a.76.76,0,0,1-.18.18l-.26.25-.32.26-.28.2-.41.27a9.23,9.23,0,0,1-1.23.69l-.51.25-.24.08-.31.1-.22,0-.16,0-.09,0-.14-.1-.08-.17,0-.07q0-.31.21-.36h.43l.23,0,.14,0a.47.47,0,0,0,.16,0,.64.64,0,0,0,.2-.08l.26-.14.43-.2.2-.1.33-.18.37-.2.21-.14.13-.1.19-.15a2.55,2.55,0,0,0,.23-.24l.06-.07,0,0a.14.14,0,0,0,0-.06l-.11,0-.1,0-.23,0-.19,0h-.11l-.39.06-.05,0-.11,0-.13,0-.08,0h-.29l-.17,0a.36.36,0,0,1-.24-.31.46.46,0,0,1,.06-.25.81.81,0,0,1,.24-.17l.2-.06.21-.07Z"/><path class="cls-2" d="M192.33,38.05c0,.58-.38,1.08-1.14,1.48a1.63,1.63,0,0,1-.78.23c-.74,0-1.1-.31-1.1-.94a1.56,1.56,0,0,1,.63-1.22,2.06,2.06,0,0,1,1.34-.52,1.33,1.33,0,0,1,.42.06.75.75,0,0,1,.33.2A.89.89,0,0,1,192.33,38.05Zm-.69.11c0-.26-.19-.39-.55-.39a1.17,1.17,0,0,0-1,1c0,.16.11.24.34.24h.16a1.22,1.22,0,0,0,.68-.3A.8.8,0,0,0,191.64,38.16Z"/><path class="cls-2" d="M192.17,42.54v.3l0,.15a.17.17,0,0,1-.05.12l-.17.25-.09.11a1.08,1.08,0,0,1-.88.32h-.18l-.12,0-.1,0-.11,0-.21-.14-.21-.17-.2-.25,0-.06a.68.68,0,0,0-.21.11l-.2.18-.26.27.26.1.17.1a.5.5,0,0,1,.23.77,1.3,1.3,0,0,1-.33.35,2.73,2.73,0,0,1-.35.19l-.22.1-.44.16-.17,0-.43.09h-.18l-.13,0-.14,0-.17-.07-.09-.09,0-.27a.55.55,0,0,1,0-.28l.1-.08.15,0h.28l.4.11.3,0a.66.66,0,0,0,.51-.18l.11-.14,0-.15c0-.11-.11-.21-.32-.28L188.4,44a.35.35,0,0,1-.24-.38.88.88,0,0,1,.18-.31l.6-.56.23-.19.33-.23L190,42a2.72,2.72,0,0,1,1.37-.38l.22,0a.74.74,0,0,1,.4.32l.12.18a.66.66,0,0,1,.08.21Zm-.73.17a.32.32,0,0,0-.3-.34H191a.59.59,0,0,0-.23,0,.75.75,0,0,0-.25.13l-.1.08-.09.09.21.22.2.11.09,0,.17,0a.51.51,0,0,0,.28-.07l.09,0,.06-.09Z"/><path class="cls-2" d="M197.93,37.55a.37.37,0,0,1,.23-.09c.23,0,.34.15.34.45l0,.11a.19.19,0,0,1-.06.07,11.56,11.56,0,0,1-1.3.89,9.46,9.46,0,0,1-1.31.66l-.17.06-.14,0a.29.29,0,0,1-.26-.21l0-.12,0-.16c0-.11.07-.19.21-.23a8.28,8.28,0,0,0,1-.55l.34-.2c.18-.1.34-.2.5-.31S197.75,37.68,197.93,37.55Z"/><path class="cls-2" d="M193,45a.68.68,0,0,1-.42-.11.42.42,0,0,1-.14-.34v-.13a.22.22,0,0,1,.12-.19,1.07,1.07,0,0,1,.27-.09,2.27,2.27,0,0,0,.83-.19l.7-.39a1.74,1.74,0,0,0,.4-.21l.46-.32.19-.12.2-.17-.1-.08-.16-.19-.08-.16V42.1a.68.68,0,0,1,.05-.17l.12-.1a.52.52,0,0,1,.31-.13,1.23,1.23,0,0,1,.41.13l.13.08.16.09.46-.24.56-.31.3-.12a2.16,2.16,0,0,1,.58-.18.66.66,0,0,1,.27.08.32.32,0,0,1,.11.26v.09a.28.28,0,0,1-.11.16l-.19.13-.12.05-.32.15-.29.13-.47.13-.24.06.38.19.28.15.15.13,0,0V43a.36.36,0,0,1,0,.1l0,.1a.24.24,0,0,1-.13.13l-.16.07-.19,0a.29.29,0,0,1-.12,0l-.76-.39-.26.17-.27.19-.36.22-.52.33-.94.54-.37.2-.37.18-.2.07Z"/><path class="cls-2" d="M146.27,112.44c0,.58-.38,1.07-1.14,1.48a1.68,1.68,0,0,1-.77.23c-.74,0-1.11-.31-1.11-.94a1.51,1.51,0,0,1,.64-1.22,2.07,2.07,0,0,1,1.34-.53,1.09,1.09,0,0,1,.42.07.92.92,0,0,1,.33.19A.89.89,0,0,1,146.27,112.44Zm-.69.11c0-.26-.18-.39-.55-.39a1,1,0,0,0-.68.32,1,1,0,0,0-.34.7c0,.17.11.25.33.25h.17a1.25,1.25,0,0,0,.68-.3A.8.8,0,0,0,145.58,112.55Z"/><path class="cls-2" d="M145.81,115.78c.32,0,.48.1.48.28a.72.72,0,0,1-.18.46l-.17.17-.23.15-.22.09-.3.08-.4,0h-.25l-.39,0h-.22l-.07.11-.16.16-.3.32-.21.17-.25.17-.72.5-.41.26-.28.15-.21.11-.39.18-.2.08a1.41,1.41,0,0,1-.35.06l-.08,0-.12,0-.09,0-.11-.09a.34.34,0,0,1-.12-.18l0-.11v-.14a.52.52,0,0,1,.13-.29.49.49,0,0,1,.14-.06l.14,0,.09,0,.17,0,.18,0,.16,0,.18-.06.52-.24.27-.14.26-.15a4.53,4.53,0,0,0,.7-.51l.13-.14.05-.14-.07-.1a.31.31,0,0,1-.09-.18.7.7,0,0,1,.23-.53.77.77,0,0,1,.53-.23.73.73,0,0,1,.34.14c.14.1.21.2.21.29l.4,0a1.09,1.09,0,0,0,.41-.1,2.75,2.75,0,0,0,.5-.3l.12-.07.11-.07A.49.49,0,0,1,145.81,115.78Z"/><path class="cls-2" d="M151.88,111.94a.4.4,0,0,1,.23-.09c.23,0,.34.15.34.45v.1a.17.17,0,0,1-.07.08,12.31,12.31,0,0,1-1.29.88,12.5,12.5,0,0,1-1.31.67l-.18.06-.13,0q-.17,0-.27-.21l0-.12,0-.16q0-.17.21-.24a6,6,0,0,0,1-.55l.34-.19.5-.31Z"/><path class="cls-2" d="M151.72,116.93c0,.31-.31.68-.93,1.1l-1.13.76-.48.29a4.38,4.38,0,0,1-1.71.75c-.39,0-.59-.15-.59-.46a.43.43,0,0,1,.21-.37.62.62,0,0,1,.29,0h.07l.08,0,.1.05.06,0h.15l.12,0,.19-.06.52-.27.2-.11.35-.22.2-.14c-.42-.19-.64-.43-.64-.72a1.2,1.2,0,0,1,.46-.93l.21-.15.22-.16a2.12,2.12,0,0,1,1-.24,1.35,1.35,0,0,1,.87.33A.69.69,0,0,1,151.72,116.93Zm-.78-.09c-.05-.1-.21-.15-.47-.15a1.26,1.26,0,0,0-.71.33l-.1.12-.1.16,0,.13a.3.3,0,0,0,.17.23s.06,0,.14,0l.11,0,.19,0,.33-.16q.51-.34.51-.54A.11.11,0,0,0,150.94,116.84Z"/><path class="cls-2" d="M154.87,111.69a.42.42,0,0,1,.21-.06c.14,0,.22.09.26.28v.14c-.25.19-.49.37-.73.53a3.31,3.31,0,0,0-.52.42.51.51,0,0,0-.17.31c0,.17.14.26.34.26h.15a.66.66,0,0,0,.58-.22.3.3,0,0,1,.26-.11c.17,0,.28.15.33.44s-.17.42-.52.48l-.22,0h-.33c-.95,0-1.42-.28-1.42-.84a1.17,1.17,0,0,1,.48-.75l.31-.25.3-.22Zm3,0,.13,0,.13,0c.16,0,.26.1.3.29V112a.3.3,0,0,1-.11.24l-.77.42c-.52.29-.78.49-.78.59v.12c0,.17.19.25.57.25a.74.74,0,0,0,.52-.16l.16-.11.11,0a.41.41,0,0,1,.26.12.32.32,0,0,1,.12.25.44.44,0,0,1-.19.33l-.18.09-.21.08-.34,0h-.43c-.81,0-1.22-.24-1.22-.72l0-.21a2.44,2.44,0,0,1,.93-1A10.17,10.17,0,0,1,157.9,111.69Z"/><path class="cls-2" d="M157.4,116.93c0,.31-.31.68-.93,1.1l-1.14.76-.48.29a4.42,4.42,0,0,1-1.7.75c-.4,0-.6-.15-.6-.46a.43.43,0,0,1,.21-.37.64.64,0,0,1,.3,0h.06l.09,0,.1.05.05,0h.16l.11,0,.19-.06.52-.27.2-.11.36-.22.19-.14q-.63-.28-.63-.72a1.17,1.17,0,0,1,.46-.93l.2-.15.23-.16a2.06,2.06,0,0,1,1-.24,1.35,1.35,0,0,1,.87.33A.69.69,0,0,1,157.4,116.93Zm-.78-.09c-.06-.1-.22-.15-.47-.15a1.26,1.26,0,0,0-.72.33l-.1.12-.09.16-.05.13c0,.08.06.16.18.23s.06,0,.13,0l.11,0,.19,0,.34-.16c.33-.23.5-.41.5-.54A.19.19,0,0,0,156.62,116.84Z"/><path class="cls-2" d="M120.64,118.34h.16a.26.26,0,0,1,.14,0h.25a.68.68,0,0,1,.27.05l.29.07c.36.08.53.24.53.47a.65.65,0,0,1-.1.33l-.13.18-.18.18-.26.25-.33.26-.27.19-.41.28a11.39,11.39,0,0,1-1.23.69l-.51.24-.25.09-.3.1-.22,0-.16,0-.09-.05-.14-.1-.09-.17,0-.07q0-.32.21-.36l.23,0,.2,0,.23,0,.14,0,.16,0,.2-.08.26-.14.42-.21.2-.09.34-.18.36-.2.22-.14.13-.1.18-.16a1.75,1.75,0,0,0,.24-.23l.06-.08,0,0a.07.07,0,0,0,0-.06l-.1,0-.1,0-.23,0-.19,0h-.11l-.39.06,0,0-.11,0-.13,0-.08,0h-.29l-.17,0a.38.38,0,0,1-.24-.31.55.55,0,0,1,0-.25.89.89,0,0,1,.24-.17l.21-.07.21-.07Z"/><path class="cls-2" d="M121.54,113.82H122a1.14,1.14,0,0,1,.67.17.49.49,0,0,1,.24.43,1.23,1.23,0,0,1-.43.75l-.27.29-.33.28a1.72,1.72,0,0,1-.34.24,3,3,0,0,1-.4.21l-.6.25-.31.14-.21,0s-.09,0-.16-.14l0-.09,0-.11a.32.32,0,0,1,.07-.22.64.64,0,0,1,.25-.17l.26-.08.3-.1a1.21,1.21,0,0,0,.32-.13,1.54,1.54,0,0,0,1-.92l-.06,0-.07,0-.23,0h-.52l-.1,0-.14.07-.11.06-.11.05h-.16a.29.29,0,0,1-.16-.07l-.11-.16,0-.13a.31.31,0,0,1,.14-.27,3.34,3.34,0,0,1,.58-.23A2.74,2.74,0,0,1,121.54,113.82Z"/><path class="cls-2" d="M116.68,118.25h.07l.09,0,.19.16a.24.24,0,0,1,.12.22,2.59,2.59,0,0,1-.45.47l1.58,0a.05.05,0,0,0,0,0l0,0c.06.06.1.11.1.15s-.17.31-.51.53l-.8.46-.58.34-.93.6-1.25.65-.72.31-.24.09-.24.06-.3.08a.78.78,0,0,1-.26,0l-.14-.07a.51.51,0,0,1-.14-.4q0-.18.27-.27l.26,0a2.73,2.73,0,0,0,.5,0,3,3,0,0,0,.5-.18l.11,0,.18-.09.48-.21,2.35-1.35h-2.11a.32.32,0,0,1-.07-.13.78.78,0,0,1,0-.24l0-.12.16,0,.16-.06.28-.14.48-.22.34-.18a.36.36,0,0,0,.15-.15.32.32,0,0,1,.09-.13l.08,0Z"/><path class="cls-2" d="M118.28,114.42a.4.4,0,0,1,.23-.09c.23,0,.34.15.34.45l0,.11a.1.1,0,0,1-.06.07,13.06,13.06,0,0,1-1.3.89,12.36,12.36,0,0,1-1.31.66l-.17.06-.13,0c-.12,0-.2-.07-.27-.21l0-.12,0-.16c0-.11.07-.19.21-.23a8.87,8.87,0,0,0,1-.55l.34-.2.49-.31C117.9,114.68,118.11,114.55,118.28,114.42Z"/><path class="cls-2" d="M113,118.5h.18l.12,0,.12.06a.58.58,0,0,1,.29.4l0,.21,0,.16c0,.05,0,.09,0,.11l0,.18-.09.32-.11.3-.1.23-.13.25a1.22,1.22,0,0,1-.37.46l-.17,0-.09,0a.2.2,0,0,1-.1,0l-.1,0-.14-.1,0-.16s0-.1,0-.12a.28.28,0,0,1,.07-.11l.15-.2.15-.22.25-.47.09-.25a.35.35,0,0,0,0-.07.09.09,0,0,0,0-.07l-.06,0a.44.44,0,0,0-.28.1l-.23.2-.5.42-1,.76-.36.26-.4.24-.31.17-.26.09-.2,0-.18,0-.11,0c-.09,0-.13-.13-.13-.27v-.13a.27.27,0,0,1,0-.11l.06-.13s.07-.08.19-.14l.26,0h.22l.15,0,.32-.17.49-.32.24-.17.24-.2.3-.27.32-.27.3-.28.32-.27A.82.82,0,0,1,113,118.5Z"/><path class="cls-2" d="M114.09,114.92c0,.58-.38,1.07-1.14,1.48a1.75,1.75,0,0,1-.78.23c-.73,0-1.1-.31-1.1-.94a1.53,1.53,0,0,1,.64-1.22,2.07,2.07,0,0,1,1.34-.53,1.21,1.21,0,0,1,.41.07.88.88,0,0,1,.34.19A.92.92,0,0,1,114.09,114.92Zm-.69.11c0-.26-.18-.39-.55-.39a1,1,0,0,0-.68.32,1,1,0,0,0-.34.7c0,.17.11.25.33.25h.17a1.2,1.2,0,0,0,.67-.3C113.27,115.41,113.4,115.22,113.4,115Z"/><path class="cls-2" d="M139,131.35h.16a.26.26,0,0,1,.14,0h.24a.7.7,0,0,1,.28.05l.29.07c.36.08.53.24.53.47a.65.65,0,0,1-.1.33l-.13.18-.18.18-.27.25-.32.26-.27.19-.41.28a12.43,12.43,0,0,1-1.23.69l-.51.24-.25.09-.3.1-.22,0-.16,0-.1-.05-.13-.1-.09-.17,0-.07c0-.22.07-.33.21-.36l.23,0h.2l.23,0,.14,0,.16,0,.2-.08.26-.14.42-.21.2-.09.34-.18.36-.2.22-.14.13-.1.18-.16a1.75,1.75,0,0,0,.24-.23l.06-.08,0,0a.06.06,0,0,0,0-.06l-.1-.05-.1,0-.24,0-.18,0H139l-.39.06-.06,0-.11.05-.12,0-.09,0h-.28l-.17,0a.38.38,0,0,1-.24-.31.55.55,0,0,1,.05-.25.89.89,0,0,1,.24-.17l.21-.07.21-.07Z"/><path class="cls-2" d="M139.86,126.83h.49a1.25,1.25,0,0,1,.67.16.51.51,0,0,1,.24.44,1.31,1.31,0,0,1-.43.75l-.27.29-.34.28a2.36,2.36,0,0,1-.33.24,3,3,0,0,1-.4.21l-.61.25-.3.14-.21,0s-.09,0-.16-.14l-.05-.09,0-.11a.32.32,0,0,1,.07-.22.64.64,0,0,1,.25-.17l.26-.08.3-.1a1,1,0,0,0,.31-.13,1.49,1.49,0,0,0,1-.92l-.05,0-.07,0-.23,0h-.52l-.1,0-.14.07-.11.06-.11,0h-.16a.26.26,0,0,1-.16-.07l-.11-.16,0-.13a.31.31,0,0,1,.14-.27,3.57,3.57,0,0,1,.57-.23A2.87,2.87,0,0,1,139.86,126.83Z"/><path class="cls-2" d="M135,131.26h.07l.09,0,.19.16a.24.24,0,0,1,.12.22,2.59,2.59,0,0,1-.45.47l1.58,0a.05.05,0,0,0,0,0l0,.05c.06.06.1.11.1.15s-.17.31-.51.53l-.8.46-.58.34-.93.6-1.25.65-.72.31-.24.09-.24.06-.3.08a.78.78,0,0,1-.26,0l-.14-.08a.47.47,0,0,1-.14-.39q0-.18.27-.27l.26,0a2.73,2.73,0,0,0,.5,0,3,3,0,0,0,.5-.18l.11,0,.18-.09.48-.21,2.35-1.35h-2.11a.32.32,0,0,1-.07-.13.78.78,0,0,1,0-.24l0-.12.16,0,.16-.06a2.44,2.44,0,0,0,.28-.14l.48-.22.34-.18a.36.36,0,0,0,.15-.15.32.32,0,0,1,.09-.13l.08,0Z"/><path class="cls-2" d="M136.3,136.55a.27.27,0,0,1,.28.18l0,.14v.1a.14.14,0,0,1,0,.1l-.11.13-.09.05-.16.08-.18.08-.32.31-.29.21-.51.32-.45.27-.26.15a2.7,2.7,0,0,1-.3.15l-.5.19-.19.05a.37.37,0,0,1-.27-.12.47.47,0,0,1-.11-.28l0-.14.06-.1.07,0,.24-.13.52-.23.43-.21.3-.14.27-.15.52-.34.29-.19.27-.21.29-.17A.37.37,0,0,1,136.3,136.55Z"/><path class="cls-2" d="M145.5,146.27l.22,0a.49.49,0,0,1,.32.18l.09.15a.31.31,0,0,0,.2.09.35.35,0,0,0,.16-.06l.14-.13.12-.1.11-.09a.28.28,0,0,1,.11-.05.42.42,0,0,1,.17,0h.09l.08,0,.14.07.07,0,0,.07.08.18.06.17,0,0,.07,0a1,1,0,0,0,.34-.1l.15-.12.15-.15.06-.06.1-.07.19-.1.16,0h.15a.1.1,0,0,1,.1.07l.09.11,0,.1a.48.48,0,0,1-.13.35l-.17.21a.49.49,0,0,1-.2.15l-.22.11-.27.11-.26.08-.48.1a.77.77,0,0,1-.39-.11l-.15-.12-.16-.16h-.3a.8.8,0,0,0-.23,0,.53.53,0,0,0-.15.08l-.32.3-.49.4-.5.37-.13.1-.19.12-.21.13-.7.4-.54.29-.22.09-.24.09-.22.05h-.23l-.15,0-.17-.06a.43.43,0,0,1-.21-.43.32.32,0,0,1,.2-.31l.15,0h.54a1.31,1.31,0,0,0,.47-.19l.48-.24.55-.3.51-.33.38-.3.1-.11a.24.24,0,0,0,0-.12L145,147l0-.17v-.09a.13.13,0,0,1,0-.08l.1-.13A.64.64,0,0,1,145.5,146.27Z"/><path class="cls-2" d="M147.45,141.23a.37.37,0,0,1,.12-.07.23.23,0,0,1,.12,0c.23,0,.34.15.34.45a.22.22,0,0,1-.08.18c-.47.35-.93.66-1.39.94a6.47,6.47,0,0,1-.63.34q-.3.15-.6.27l-.3.1a.3.3,0,0,1-.15,0,.45.45,0,0,1-.11-.15l0-.09V143a.15.15,0,0,1,0-.07.32.32,0,0,1,.07-.17l.06-.06.09,0a3.42,3.42,0,0,0,1.05-.48A9.07,9.07,0,0,0,147.45,141.23Zm.69,1.22a.37.37,0,0,1,.23-.09c.23,0,.34.15.34.45a.34.34,0,0,1,0,.11.23.23,0,0,1-.07.07,11.56,11.56,0,0,1-1.3.89,9.46,9.46,0,0,1-1.31.66l-.17.06-.14,0c-.11,0-.19-.07-.26-.2l0-.13,0-.15a.26.26,0,0,1,.2-.24,7.46,7.46,0,0,0,1-.55l.34-.2c.18-.1.34-.2.5-.31A7.14,7.14,0,0,0,148.14,142.45Z"/><path class="cls-2" d="M142,146.18h.08l.08,0,.2.16a.25.25,0,0,1,.11.21,2.56,2.56,0,0,1-.44.48l1.58-.05a.43.43,0,0,0,0,.05l0,.05a.26.26,0,0,1,.1.15c0,.13-.17.3-.52.52l-.79.46-.58.35-.94.6-1.24.64-.73.32-.23.08-.24.07-.31.07a.62.62,0,0,1-.26,0l-.13-.07a.48.48,0,0,1-.14-.4c0-.12.09-.21.26-.27l.27,0a2.63,2.63,0,0,0,.49-.05,2.16,2.16,0,0,0,.5-.18l.12,0,.18-.09L140,149l2.36-1.35h-2.11a.32.32,0,0,1-.07-.13.71.71,0,0,1,0-.23l0-.13.15,0,.17-.07a1.74,1.74,0,0,0,.27-.14l.48-.22.34-.18a.27.27,0,0,0,.15-.15.44.44,0,0,1,.09-.13l.09,0Z"/><path class="cls-2" d="M142.68,141.23l.12-.07a.27.27,0,0,1,.13,0q.33,0,.33.45a.22.22,0,0,1-.08.18,16.19,16.19,0,0,1-1.39.94c-.21.13-.42.24-.62.34l-.61.27-.3.1a.33.33,0,0,1-.15,0,.65.65,0,0,1-.11-.15l0-.09V143a.14.14,0,0,1,0-.07.38.38,0,0,1,.06-.17l.06-.06.09,0a3.42,3.42,0,0,0,1.05-.48A9.07,9.07,0,0,0,142.68,141.23Zm.69,1.22a.4.4,0,0,1,.24-.09c.22,0,.34.15.34.45a.31.31,0,0,1,0,.11.19.19,0,0,1-.06.07,13.71,13.71,0,0,1-1.3.89,10,10,0,0,1-1.31.66l-.18.06-.13,0a.31.31,0,0,1-.27-.2v-.28q0-.16.21-.24a8.1,8.1,0,0,0,1-.55l.34-.2c.17-.1.34-.2.5-.31A6.86,6.86,0,0,0,143.37,142.45Z"/><path class="cls-2" d="M137.9,145.7l.13,0h.15a.32.32,0,0,1,.18.12,1.1,1.1,0,0,1,0,.11v.1a.57.57,0,0,1-.32.37l-.18.1.08.05.21.11a1.23,1.23,0,0,1,.16.15.26.26,0,0,1,.05.17.57.57,0,0,1-.24.39l-.72.32.2.12.2.13a.69.69,0,0,1,0,.22v.08a.19.19,0,0,1,0,.1l-.19.19-.41.31-.44.32-.35.25-.94.64-.34.22-.3.15-.1,0-.15.07-.39.17a1.34,1.34,0,0,1-.47.13.48.48,0,0,1-.18,0l-.11-.06-.08-.07a.37.37,0,0,1-.07-.12.78.78,0,0,1,0-.19c0-.19.14-.31.42-.38l.18,0,.14,0,.17,0,.15-.06.18-.06.25-.11.24-.13.89-.56.43-.29.61-.44-.34-.22a.36.36,0,0,1-.15-.29.28.28,0,0,1,0-.12.89.89,0,0,1,.17-.18l.28-.14.42-.21-.19-.11-.23-.14-.13-.08-.05-.05-.06-.12,0,0,0-.07,0-.05.16-.13h0l.06,0a1.23,1.23,0,0,0,.23-.08l.18-.08.18-.08.16-.12Z"/><path class="cls-2" d="M137.94,141.75h.37l.12,0a1.17,1.17,0,0,1,.67.16.5.5,0,0,1,.24.44,1.26,1.26,0,0,1-.44.74l-.26.29-.34.29-.33.24-.41.2-.6.25-.3.14-.21,0s-.09,0-.17-.13l-.05-.09,0-.12a.41.41,0,0,1,.07-.22.72.72,0,0,1,.25-.17l.26-.07.31-.1a2.44,2.44,0,0,0,1.31-1.06l-.06,0-.06,0-.23,0-.17,0-.17,0h-.19l-.1,0-.14.08-.11.06-.1,0h-.16a.26.26,0,0,1-.16-.07l-.11-.16,0-.13a.28.28,0,0,1,.15-.26,3,3,0,0,1,.57-.24A2.8,2.8,0,0,1,137.94,141.75Z"/><path class="cls-2" d="M134.11,146.2c.32,0,.48.09.48.28a.66.66,0,0,1-.19.45l-.16.18-.23.15-.22.08-.3.08-.41,0h-.25l-.38,0h-.22l-.08.1-.15.17-.3.32-.22.17-.24.17-.72.49-.42.26-.28.15-.2.11-.4.19-.2.07a1.07,1.07,0,0,1-.34.07l-.09,0-.11-.06-.1,0-.11-.1a.43.43,0,0,1-.12-.17l0-.12v-.14a.5.5,0,0,1,.14-.28s.06,0,.13-.06l.14,0h.09l.17,0,.18,0,.16,0,.19-.06.52-.23.27-.14.25-.15a4.73,4.73,0,0,0,.7-.51l.13-.15.06-.13-.08-.1a.34.34,0,0,1-.09-.19.77.77,0,0,1,.23-.53.78.78,0,0,1,.54-.22.61.61,0,0,1,.33.14c.14.1.22.19.22.28l.39,0a1.27,1.27,0,0,0,.41-.1,2.8,2.8,0,0,0,.51-.3l.12-.08.1-.06A.59.59,0,0,1,134.11,146.2Z"/><path class="cls-2" d="M134.36,151.47a.28.28,0,0,1,.28.18l0,.14,0,.1a.12.12,0,0,1,0,.1l-.11.14-.09,0-.16.08-.18.09-.32.3-.29.21-.52.33-.45.27-.25.15a2.23,2.23,0,0,1-.31.14l-.5.19-.18,0a.4.4,0,0,1-.27-.11.5.5,0,0,1-.11-.29l0-.13a.29.29,0,0,1,.06-.1l.07,0,.24-.13.52-.23.43-.21.3-.13.27-.16.52-.33.29-.2.27-.21.29-.16A.31.31,0,0,1,134.36,151.47Z"/><path class="cls-2" d="M61,215.4l.16,0h.06a.17.17,0,0,1,.1,0l.08.05.09.1,0,.16,0,.11a.27.27,0,0,1-.08.16l-.12.11-.37.28-.47.35L60,217l-.79.47-.32.16a3.88,3.88,0,0,1-.48.22l-.18.06L58,218h-.25a.25.25,0,0,1-.16-.07.32.32,0,0,1-.15-.19v-.15a.46.46,0,0,1,.11-.25l.17-.2.13-.14.08-.12.05-.19,0-.14,0-.21,0-.36a1,1,0,0,1,0-.25.22.22,0,0,1,.07-.06l.12-.07.21,0h.18a.28.28,0,0,1,.17.1.35.35,0,0,1,.15.33l0,.11,0,.11-.11.24-.1.37-.09.25.16-.07.17-.11.26-.15.34-.2.61-.41.14-.09.21-.2.36-.27Z"/><path class="cls-2" d="M62.36,210.82h.1l.1,0a.26.26,0,0,1,.08.13l.07.16v.14c0,.19-.08.29-.26.29a2.8,2.8,0,0,0-.49.1l-.2.07-.15.07-.15.08-.13.1-.15.15-.14.17a.28.28,0,0,0,.13.19l.2.08.2,0h.71l.12,0q.12.06.12.27a.26.26,0,0,1-.2.27l-.27.06-.36,0h-.3l-.13,0-.38-.08a.72.72,0,0,1-.49-.27,1.35,1.35,0,0,1-.17-.62l-.08.1a.17.17,0,0,1-.12.1l-.1.1-.3.21-.46.3-.32.18-.28.17-.28.12-.25.1-.19.05h-.16c-.17,0-.26-.1-.26-.3l0-.2a.21.21,0,0,1,.15-.12l.19-.06.26-.09a3,3,0,0,0,1-.56l.21-.17.21-.2-.79,0-.21,0h-.11l-.11-.05c-.14,0-.2-.15-.2-.33a.3.3,0,0,1,.28-.33l.3,0h.75a1,1,0,0,1,.57.13.32.32,0,0,1,.12.17l.1.19.11.25.14-.13.08-.06,0,0,.11-.07.21-.19.32-.22.59-.38A1,1,0,0,1,62.36,210.82Z"/><path class="cls-2" d="M55.12,215.41a.67.67,0,0,1,.45.12.34.34,0,0,1,.09.19v.07l0,.07-.09.08-.09.05-.13.08a.28.28,0,0,0-.07.19.33.33,0,0,0,.14.31l.16.11.07,0,.11,0,.18,0a.33.33,0,0,0,.14-.1l.13-.11.16-.1.25,0h.11a.61.61,0,0,1,.17.16l0,.08,0,.11a.84.84,0,0,1-.11.2l-.17.12-.2.13-.24.18-.73.46-.81.48-.44.25-.38.18-.35.17-.43.18-.32.09q-.51,0-.51-.42a.6.6,0,0,1,.09-.28.31.31,0,0,1,.09-.12.17.17,0,0,1,.11,0l.13,0,.17,0,.19,0a2.45,2.45,0,0,0,.45-.19l.82-.42.41-.23.52-.34c0-.06,0-.1,0-.11h-.12l-.21-.06a.53.53,0,0,1-.29-.19l-.06-.09-.05-.14,0-.23v-.1a.29.29,0,0,1,0-.09l.11-.26a.92.92,0,0,1,.24-.32l.08-.07.11-.05A.48.48,0,0,1,55.12,215.41Z"/><path class="cls-2" d="M56.5,210.89h.37l.12,0a1.17,1.17,0,0,1,.67.16.5.5,0,0,1,.24.44,1.34,1.34,0,0,1-.43.75l-.27.29-.34.28a2.36,2.36,0,0,1-.33.24,2.14,2.14,0,0,1-.4.2l-.61.26-.3.14-.21,0s-.09-.05-.16-.14l-.05-.09,0-.11a.32.32,0,0,1,.07-.22.58.58,0,0,1,.25-.18l.26-.07.3-.1a1.29,1.29,0,0,0,.31-.13,1.51,1.51,0,0,0,1-.93l0,0-.07,0-.23,0h-.52l-.1,0-.14.08-.12.06-.1.05h-.16a.26.26,0,0,1-.16-.06l-.11-.16,0-.13a.29.29,0,0,1,.14-.27,3.57,3.57,0,0,1,.57-.23A2.39,2.39,0,0,1,56.5,210.89Z"/><path class="cls-2" d="M52.27,214.83l.14,0,.14,0a.36.36,0,0,1,.18.12.53.53,0,0,1,0,.11v.1a.55.55,0,0,1-.32.38l-.18.09.09,0,.2.12a.65.65,0,0,1,.17.15.29.29,0,0,1,.05.17.55.55,0,0,1-.25.38l-.71.33.2.11.2.13a1.52,1.52,0,0,1,.05.22v.08a.16.16,0,0,1,0,.1l-.19.19-.41.31-.44.32-.35.26-.95.63-.33.22-.3.15-.1,0-.15.07-.39.17a1.41,1.41,0,0,1-.47.14.48.48,0,0,1-.18,0l-.11-.06-.08-.07a.25.25,0,0,1-.08-.12.84.84,0,0,1,0-.19c0-.18.14-.31.41-.38l.19,0,.14,0,.16-.05.16,0,.18-.06.25-.11.24-.14.89-.56.43-.29.6-.43-.34-.23a.37.37,0,0,1-.14-.29.28.28,0,0,1,0-.12,1.21,1.21,0,0,1,.17-.18l.27-.14.42-.2-.18-.12-.24-.14-.12-.08-.06-.05-.06-.11,0-.05,0-.07,0-.05a.74.74,0,0,1,.16-.12l0,0,.07,0,.23-.08.18-.08.18-.08.16-.12Z"/><path class="cls-2" d="M52.32,210.89h.36l.13,0a1.19,1.19,0,0,1,.67.16.52.52,0,0,1,.23.44,1.28,1.28,0,0,1-.43.75l-.26.29-.34.28a3.33,3.33,0,0,1-.34.24,1.87,1.87,0,0,1-.4.2l-.6.26-.3.14-.21,0s-.1-.05-.17-.14l0-.09,0-.11a.32.32,0,0,1,.07-.22.64.64,0,0,1,.25-.18l.26-.07.3-.1a1.45,1.45,0,0,0,.32-.13,1.53,1.53,0,0,0,1-.93l-.06,0-.07,0-.23,0h-.52l-.1,0-.14.08-.11.06-.11.05h-.16a.28.28,0,0,1-.16-.06L51,211.6l0-.13a.31.31,0,0,1,.14-.27,3.34,3.34,0,0,1,.58-.23A2.34,2.34,0,0,1,52.32,210.89Z"/><path class="cls-2" d="M48.48,215.33c.32,0,.48.1.48.28a.72.72,0,0,1-.18.46l-.17.17-.23.15-.22.08-.3.08-.4,0h-.25l-.39,0H46.6l-.07.11-.16.16-.3.32-.21.17-.25.17-.72.5-.41.26-.28.14-.21.11-.39.19-.2.07a1.12,1.12,0,0,1-.35.07l-.08,0-.12-.05-.09,0-.11-.09a.38.38,0,0,1-.12-.18l0-.11v-.15a.49.49,0,0,1,.13-.28.31.31,0,0,1,.14-.06l.14,0H43l.17,0,.18,0,.16,0,.18-.06.52-.24.27-.14.26-.15a4.53,4.53,0,0,0,.7-.51l.13-.14,0-.14-.07-.1a.31.31,0,0,1-.09-.18.7.7,0,0,1,.23-.53.61.61,0,0,1,.87-.09c.14.1.21.19.21.28l.4,0a1.09,1.09,0,0,0,.41-.1,2.75,2.75,0,0,0,.5-.3l.12-.08.11-.06A.49.49,0,0,1,48.48,215.33Z"/><path class="cls-2" d="M48.73,220.61a.27.27,0,0,1,.28.18l0,.14v.1a.13.13,0,0,1,0,.09l-.12.14-.08,0-.17.08-.18.09-.32.3-.29.21-.51.33-.45.27-.26.15-.3.15-.5.19-.19.05a.41.41,0,0,1-.27-.12.48.48,0,0,1-.1-.28l0-.14a.14.14,0,0,1,.06-.1l.07,0,.24-.13.51-.23.44-.21.29-.13.27-.16.52-.33.3-.2.26-.21.29-.16A.37.37,0,0,1,48.73,220.61Z"/><path class="cls-2" d="M157.07,92.28h2v5.09l5-5.09h2.41L162,96.75l4.79,6.72H164.3l-3.67-5.34L159,99.71v3.76h-2Z"/><path class="cls-2" d="M167.45,94.31c1.51,0,2.94-.5,3.2-1.82h1.46v11h-2V95.73h-2.7Z"/><path class="cls-2" d="M135.36,156.74h2v5.09l5-5.09h2.41l-4.47,4.47,4.79,6.73h-2.45l-3.67-5.35-1.6,1.58v3.77h-2Z"/><path class="cls-2" d="M153,167.94h-7.5a5,5,0,0,1,2.42-4.16c1.43-1,3.28-1.9,3.31-3.61a1.73,1.73,0,0,0-1.85-1.94c-1.41,0-1.84,1.2-1.88,2.74h-1.79c0-2.43,1.33-4.23,3.78-4.23a3.26,3.26,0,0,1,3.53,3.37c0,1.74-1.19,2.82-2.45,3.7s-2.6,1.55-2.92,2.53H153Z"/></g><line id="Lines" class="cls-5" x1="167.69" y1="122.45" x2="0.01" y2="128.61"/></g></g></svg>