<svg xmlns="http://www.w3.org/2000/svg" viewBox="0 0 329.61 330.64"><defs><style>.cls-1{fill:#f1f2f2;}.cls-2{fill:#396287;fill-rule:evenodd;}.cls-3{fill:none;stroke:#1a1a18;stroke-miterlimit:22.93;stroke-width:0.8px;stroke-dasharray:7.31 3.66;}.cls-4{isolation:isolate;}.cls-5{fill:#383838;}</style></defs><title>N</title><g id="Layer_2" data-name="Layer 2"><g id="Layer_1-2" data-name="Layer 1"><g id="Layer_2-2" data-name="Layer 2"><g id="Layer_1-2-2" data-name="Layer 1-2"><g id="D2"><path class="cls-1" d="M291.9,154.05l-39.79,40.53q-5.49,19.42-11,38.84c-1.1,5.38-2.16,10.79-3.22,16.16l-7.5-48,30-105.51a79.9,79.9,0,0,1,12.11,13C283.85,121.4,291.72,139.39,291.9,154.05Z"/><path class="cls-2" d="M240.08,249c-.33,1.17,0,1.79,1.2,1.53.52-.88.95-1.53,1.17-.62s-.58,1.28-.76,2,.36.73,1.06.43c-.95,3.66-2.09,6.84-2.93,9.48L238,249.58l-2.46-15.87v-.47c2.67-4.54,5.31-3,7.94.33a24.48,24.48,0,0,1,.66,2.41,3.68,3.68,0,0,0-.26,1.5c0,.91.22,1.68.48,1.72s-.84,1.79-.84,1.79A59.42,59.42,0,0,1,240.08,249Z"/><path class="cls-2" d="M240,206.06c1.68,0,3.07-.62,4.46,0,1.46,2.49,0,4.24-2.3,5.67a4.18,4.18,0,0,1-4.17-.55,8.63,8.63,0,0,1-2.93-6.62c0-1.35.4-2.26,2-.73a4.35,4.35,0,0,0,3,2.2"/><path class="cls-2" d="M264,146.3a3.37,3.37,0,0,1,2.85,3.33c0,1.72-.95,3-2.3,3a3.67,3.67,0,0,1-2.93-3.33c0-1.76,1-3,2.38-3"/><path class="cls-2" d="M290.77,136.54c-2.34-3.11-4.46-1.94-6.55,0-2,6.14-3.91,11.74-5.67,17.62a100.29,100.29,0,0,1-9.32,18.29c-.85,5.74,1.35,5.85,5.12,4.21,2-2.27,4.09-4,6.1-6.26a9.69,9.69,0,0,0,7.32-5.23,52.42,52.42,0,0,0,3-11.55c.22-1.1.59-1.25,1.06-.37a15.68,15.68,0,0,1,0,8.27c.77.84,2.13.69,2.64-1,2.67-2.56,2.27-6.14,1.24-9.91a94.83,94.83,0,0,0-4.86-14.08"/><path class="cls-2" d="M282.9,150.84c.74-1.32.63-1.43,1.72,0a20.9,20.9,0,0,1,0,8.19,12.06,12.06,0,0,1-4.09,5.27c-2.09.76-2.75.87-2.38-.77a37.26,37.26,0,0,0,3.66-7.1,21.08,21.08,0,0,0,1.09-5.67"/><path class="cls-2" d="M280.2,119.05a4.39,4.39,0,1,1-3.29,5.27,4.41,4.41,0,0,1,3.29-5.27"/></g><g id="D1"><path class="cls-1" d="M260.41,96.05l-30,105.51L46.79,174.17a142.53,142.53,0,0,0-9.48-16c-5.85-9.32-1.71-11,1.28-27.06L31,108.81q-1.86-13.15-3.65-26.37C26.31,78.2,25.28,74,24.22,69.72l-9-14.85,67.37-.48,74.94-29.62a81.74,81.74,0,0,0,17.15,22.71c8.27,6.07,18.91,5.41,29.51,6.84a106.67,106.67,0,0,1,27.58,6.44L248.23,82.7A66,66,0,0,0,260.41,96.05Z"/><path class="cls-2" d="M30.58,67.05c2.93,0,5.31,1.79,5.31,3.91s-2.42,3.91-5.34,3.88-5.3-1.69-5.3-3.92,2.41-3.91,5.33-3.87"/><path class="cls-2" d="M34,80.1c-2.41-.76-4.75-.69-6,1.8a26.46,26.46,0,0,0-.22,9.18,52.51,52.51,0,0,0,1.1,10.75c.29,1.53.58,3.25.84,4.94.4,2.56,2.23,6.65,5.52,5.77,2.53-.69,2-3.1,2.23-5.08.33-2.63,1.17-5.27,1.76-7.86a42.13,42.13,0,0,0,2.27-10.46l-.37-5.42a44.52,44.52,0,0,0-7.31-3.65"/><path class="cls-2" d="M41.08,128.2a1.53,1.53,0,0,1,1.57,1.5h0a1.57,1.57,0,0,1-1.57,1.46,1.53,1.53,0,0,1-1.57-1.5h0a1.54,1.54,0,0,1,1.57-1.46"/><path class="cls-2" d="M50.12,94.15a3.21,3.21,0,0,1,3.64,2.72v.06a3.18,3.18,0,0,1-3.55,2.76l-.1,0a2.85,2.85,0,0,1-1.44-5.52,2.92,2.92,0,0,1,1.44,0"/><path class="cls-2" d="M85.3,133.28c2.38,0,4.31,1.14,4.31,2.52s-2,2.46-4.35,2.46S81,137.12,81,135.73s2-2.45,4.35-2.45"/><path class="cls-2" d="M88.37,156.87A3.66,3.66,0,0,1,92,160a3.91,3.91,0,1,1-4.6-3.08,4.21,4.21,0,0,1,.94-.07"/><path class="cls-2" d="M47.34,136.79c-1.72-1.09-3.66-1.24-4.61,1.21A18.57,18.57,0,0,0,43,149c1.32,4.79,4.86,4.17,7.31.55a9.91,9.91,0,0,0-.25-10.06,11,11,0,0,0-2.78-2.7"/><path class="cls-2" d="M63.94,176.73l-7.79-1.17a2.37,2.37,0,0,1,.55-2.16c.95-.77,3.4,0,5.45,1.39A7.69,7.69,0,0,1,63.94,176.73Z"/><path class="cls-2" d="M175,171.17a.87.87,0,0,1,.88.88h0a.88.88,0,0,1-.91.84h0a.88.88,0,0,1-.36-1.72,1.09,1.09,0,0,1,.36,0"/><path class="cls-2" d="M230.64,118.83a3.15,3.15,0,1,1-3.88,3,3.68,3.68,0,0,1,3.88-3"/><path class="cls-2" d="M189.2,123.55a3.66,3.66,0,1,1-3.65,3.66,3.61,3.61,0,0,0,1.64.4c1.14,0,2.16.33,2.2,0s-.95-1.31-2.09-1.31h-1.72a3.66,3.66,0,0,1,3.66-2.82"/><path class="cls-2" d="M210.42,115.51a7.3,7.3,0,0,1,7.31,2.34,3.91,3.91,0,0,1,.32,5.52,4.34,4.34,0,0,1-.76.66,5.2,5.2,0,0,1-6.4-2.6c-1.39-2.34-2.45-4.86-.66-5.92"/><path class="cls-2" d="M204.53,135.33a2.37,2.37,0,0,0,0,1.06,3.83,3.83,0,0,0-1.79.22c-.26.22.54,1.32,1.39,1.94s2.45.8,2.85.33,0-.44,0-.7h.22c2.37-.77,3.65-1.1,2.37,1.1a5.54,5.54,0,0,1-6,.91,4.52,4.52,0,0,1-3.4-5.43v0c.62-1.9,4.39-1.13,4.31.63"/><path class="cls-2" d="M159.65,153.62a4.19,4.19,0,0,1,3.22,2,1.56,1.56,0,0,0-1.61.51c-.8.77-2.19.29-2,.66a2.22,2.22,0,0,0,2.41.36,3.58,3.58,0,0,0,1.43-1.06,1.88,1.88,0,0,1,0,1.54c-.91,1.54-2.78,1.39-4.72.8s-3.22-2.63-2.81-3.65,1.75-1.32,4.2-1"/><path class="cls-2" d="M182.88,141.33c2.08.62,3.65,1.5,3.43,3.87s-2.52,2.64-4.6,1.14-3.66-2.6-3.33-3.66,2.37-1.75,4.5-1.17"/><path class="cls-2" d="M165.17,96.74a2.8,2.8,0,0,1,2.38.7.87.87,0,0,0-.58.8c-.33.41-.26.77.18,1.17a1.77,1.77,0,0,1-.7.85c-.43.22-.4.43,0,.65a3.4,3.4,0,0,0,1-.73,8.29,8.29,0,0,1,1.64.37c.33-.26.62-.29.81-.59l.47.66c1.61,2.34,1.43,4.35-1.13,4.87s-3.95-.85-4.61-3.08-.84-5,.73-5.56"/><path class="cls-2" d="M161.19,70.27c2.12,0,3.66,1.09,3.66,2.41s-1.72,2.41-3.66,2.41-3.84-1.09-3.66-2.45,1.72-2.41,3.66-2.37"/><path class="cls-2" d="M171.54,45.62a3.06,3.06,0,0,1,3.07,1.68c.84,1.35,1.13,2.78,0,3a2.61,2.61,0,0,1-2.82-1.83c-.51-1.28-.84-2.53,0-2.85"/><path class="cls-2" d="M205.26,58.78a3.2,3.2,0,0,1,3,1.9c.84,1.5-1.32,2.75-2.71,1.91a11.64,11.64,0,0,1-3-2.46c-.62-.84,1.25-1.53,2.71-1.35"/><path class="cls-2" d="M224.75,58.53A1.46,1.46,0,0,1,226.18,60h0a1.43,1.43,0,1,1-1.43-1.5"/><path class="cls-2" d="M157.46,32.92a3.29,3.29,0,0,1,3.64,2.9.34.34,0,0,1,0,.1,3.66,3.66,0,1,1-7.31,0,3.33,3.33,0,0,1,3.66-3"/><path class="cls-2" d="M189.79,57.17h.69c1.21,0,1.76-.66,1.61-1.75a1.3,1.3,0,0,1,1.21-1.61c.58,0,1.17.88,1.17,2s-.55,2-1.21,1.94h-.18c-.29,0-.26.44-.37.62a2.53,2.53,0,0,1,0,.55c0,1.14-1.31,2.09-3,2.09s-3.18-1-3.18-2.13c-.63-1.75.84-2.41,3.18-1.75"/><path class="cls-2" d="M217.62,59.59c.73-.3,1.87.87,2.45,2.23s.59,2.67,0,3-1.79-.51-2.41-1.87-.62-3,0-3.32"/><path class="cls-2" d="M233.71,58.53a2.92,2.92,0,0,0-4,.36,2.54,2.54,0,0,0,0,2.34c1.13.48,2.08,1.14,3.21,1.57,5,7.1,9.62,14.63,15,21,1.24.66,2.34.92,2.38-1.24a12.82,12.82,0,0,0-1.61-4,41,41,0,0,1-7.94-9c-2.19-3.66-4.86-7.32-7.06-11"/><path class="cls-2" d="M257.56,92.25c.88,0,.73,0,1.53,1.42s0,2-1.64,1.65-1.17-.84-1.39-1.72.62-1.35,1.5-1.35"/><path class="cls-2" d="M154.2,178.16a5.12,5.12,0,0,1,4.54,3.91c0,1.65-1.39,2-3.48,2a3.65,3.65,0,0,1-3.65-3c0-1.61.65-2.92,2.74-2.92"/><path class="cls-2" d="M183.5,143.3a1.15,1.15,0,0,1,1,1.25,1.18,1.18,0,0,1-1,1.28,1.22,1.22,0,0,1-1-1.28,1.19,1.19,0,0,1,1-1.25"/><path class="cls-2" d="M166.2,158.3c.69,0,1.21.4,1.21.88s-.55.87-1.21.87-1.21-.4-1.17-.87a1.07,1.07,0,0,1,1.17-.88"/><path class="cls-2" d="M161.26,156c.77-.76,1.68-.65,1.87-.33s-.55.85-1.47,1.36a2.22,2.22,0,0,1-2.41-.37c0-.36,1.17,0,2-.66"/><path class="cls-2" d="M163.68,180.86A2,2,0,0,1,165.5,183a2,2,0,0,1-1.86,2.09,2.12,2.12,0,0,1,0-4.21"/><path class="cls-2" d="M187.19,126.33c1.14,0,2.09.88,2.09,1.32s-1.06,0-2.2,0-2.27-.59-2.27-1,1.21-.44,2.38-.44"/><path class="cls-2" d="M205.66,136.68c.81.62,1.83,1.58,1.46,2s-2,.33-2.85-.33-1.75-1.46-1.39-1.94,1.94-.44,2.78.22"/><path class="cls-2" d="M199.22,96.45a2.12,2.12,0,1,1-1.82,1.83,2.12,2.12,0,0,1,1.82-1.83"/><path class="cls-2" d="M160.93,71.55c.84,0,1.54.4,1.54.91s-.7.88-1.57.88-1.54-.44-1.54-.92.69-.87,1.57-.87"/><path class="cls-2" d="M168.72,117.66a.84.84,0,0,1,.84.84v0a.86.86,0,0,1-1.71,0,.06.06,0,0,1,0,0,.89.89,0,0,1,.88-.88h0"/><path class="cls-2" d="M167,98.24a.91.91,0,0,1,1-.83.63.63,0,0,1,.19,0c1.06.18,1.42,1,2,2.12,0,.66-.55.66-1,1a8.29,8.29,0,0,0-1.64-.37,3.22,3.22,0,0,1-.95.73c-.48-.22-.51-.43,0-.69a1.53,1.53,0,0,0,.69-.81c-.44-.4-.51-.76-.18-1.17"/><path class="cls-2" d="M163.89,99.23a20,20,0,0,0-4,4.39c-.26,1.32,0,2.12,1.42,1.83a56.57,56.57,0,0,1,6.48.22h0c-1.65-.18-2.67-1.43-3.29-3.26a8.46,8.46,0,0,1-.55-3.07"/><path class="cls-2" d="M25.35,56.11c.26,0,.48.22.66.59a2.15,2.15,0,0,0-.62,1.72,1.93,1.93,0,0,0,.7,1.71c-.52,1.21-1.65,2.2-2.42,1.91s-.29-2.23.26-3.26.8-2.67,1.42-2.67"/><rect class="cls-1" x="179.44" y="163.79" width="14.52" height="14.52" rx="1.28" transform="translate(-66.27 182.11) rotate(-45)"/><rect class="cls-1" x="190" y="111.93" width="14.52" height="14.52" rx="1.28" transform="translate(-26.5 174.39) rotate(-45)"/></g><g id="D4"><path class="cls-1" d="M167.66,300.46a9.54,9.54,0,0,1-1.42-.22,28,28,0,0,1-7-2.09c-9.59-2-19-4.2-23.23-11-1.13-1.75-3.36-3.25-4.46-5-3.66-4.35-7.57-9.22-12.95-10.75a10,10,0,0,1-6.07-5.23c0-.37-.33-.7-.44-1l40.93.63Z"/><path class="cls-2" d="M121.25,265.13c.91-.37,2.89,1.1,4.13,3.07s2.09,4.5,1.17,4.9-3.4-1.64-4.68-3.66-1.53-3.91-.62-4.31"/><path class="cls-2" d="M136.14,280a6.54,6.54,0,0,1,5.26,4.14c1.46,3-2.12,6.07-4.35,4.35a22.71,22.71,0,0,1-5.38-5.93c-.84-1.68,2.05-3.36,4.58-2.56"/><path class="cls-2" d="M156.4,292.81c2.81,0,5.12,1.65,5.08,3.66s-2.3,3.66-5.12,3.66-5.08-1.61-5.08-3.66,2.3-3.66,5.12-3.66"/><path class="cls-2" d="M135.62,281.07A3.68,3.68,0,0,1,139.5,283c.48,1.57,1.17,2.67.51,3.32s-2.92,0-3.66-1.68c-.29-.8,0-1.42-.21-2.08s-1.17-1-.59-1.47"/><path class="cls-2" d="M140.74,271.56a13.84,13.84,0,0,1-9.47-6h13.09a11.06,11.06,0,0,0,.3,1.13C146,270.65,144.07,271.64,140.74,271.56Z"/></g><g id="D3"><path class="cls-1" d="M238,249.58c-1.18,5.75-2.31,11.45-3.44,17.19a17.67,17.67,0,0,1-12,11.56l-11.7,8.19c-16.2,8.12-31.93,15.47-43.16,13.94L153,265.9l-40.92-.63c-1.91-4.2-3.4-8.08-4.94-12.06-2.12-3.19-3.66-6.44-5.82-9.62a42.67,42.67,0,0,1-11.22-16.32c-1.32-2.37-2.6-4.79-3.88-7.31l-4.06-4.17a66.21,66.21,0,0,1-22.27-22.53c-3.26-4.9-8.85-8.85-11-14.26-.62-1.54-1.31-3.07-2.08-4.65l183.56,27.21Z"/><path class="cls-2" d="M65.15,181c-.41,1.87-1.87,3.22-3.22,3s-3.66-2.34-4.76-4.79a9.15,9.15,0,0,1-1-3.66l7.79,1.17A5.79,5.79,0,0,1,65.15,181Z"/><path class="cls-2" d="M101.39,182.55c.55,0,1,1.09,1,2.41s-.44,2.41-1,2.41-.95-1.09-.95-2.45.44-2.37,1-2.37"/><path class="cls-2" d="M84.13,213.34c1.21-.73,3.91.22,5.15,2.16s1.39,4.17.22,4.94-3.29-.22-4.53-2.2-2-4.13-.84-4.9"/><path class="cls-2" d="M105,242.64a3,3,0,0,1,2.93,1.49,3.66,3.66,0,0,0-.81,0c-.88,0-1.57.48-1.57,1.07s.44.84,1,1a5.83,5.83,0,0,1-1.61.26c-1.64,0-3-.85-3-1.87s1.36-1.83,3-1.83"/><path class="cls-2" d="M111.23,247.65c4.06,1.46,4.72,1.93,4.86,4.68s-2.74,5.12-4.5,4.42-2.26-1.24-4.64-4.68.22-5.85,4.28-4.42"/><path class="cls-2" d="M179.22,294.53a1.83,1.83,0,0,1,0,3.66,1.9,1.9,0,0,1-1.83-1.94,1.86,1.86,0,0,1,1.94-1.75"/><path class="cls-2" d="M214.62,270.65c2.49-2.49,4.24-2.19,6,0a10.88,10.88,0,0,1,3.66,5.12,1.34,1.34,0,0,0,0,.4h-.84c0-.33-.84-.44-1-.91s-.66,0-1.06.22,0,1.46-.26,2a6.78,6.78,0,0,1-3.66,4.93c-.29.74,0,1,1,.74a12.35,12.35,0,0,1,4.06-3.33h.77c-1.61,4.31-5.45,5.34-8.89,7.31-2,1.1-3.66,2.2-4.24-.36a19.14,19.14,0,0,1,4.42-16.17"/><path class="cls-2" d="M239.82,261.84l-.44,1.39a8.72,8.72,0,0,1-2.49,3.25,1.08,1.08,0,0,0-1.4-.65,1.1,1.1,0,0,0-.72.91h0c-.87-.33-1.57-1.43-1.86-3.33a86.48,86.48,0,0,1,2.56-29.88l2.45,15.87Z"/><path class="cls-2" d="M203.28,198.49a1.79,1.79,0,0,1,1,3.44,1.77,1.77,0,0,1-1,0,2.08,2.08,0,0,1-2.26-1.72,2,2,0,0,1,2.26-1.72"/><path class="cls-2" d="M186.13,202.26c1-.62,2.12.51,4.06,2.12s2.56,4.1.37,4.5-3.08-.7-4.17-2.23-1.32-3.66-.26-4.39"/><path class="cls-2" d="M139,192.27c1.83.52,2.85,1,1,2.78s-4.1,1.14-5.78-.36a4,4,0,0,1-.59-5.27c.55-.58,1.1-.55,1.76,0s0,.92.4,1.46a2.25,2.25,0,0,0,.48,2.05,1.67,1.67,0,0,0,2.3.29c.55-.25.69-.62.44-.91"/><path class="cls-2" d="M135.81,190.7c.4-.36.33.37,1.82.88s1.8,1.13.85,1.64a1.72,1.72,0,0,1-2.31-.32c-.62-.7-.77-1.87-.36-2.2"/><path class="cls-2" d="M128,212.94a1.72,1.72,0,0,1,1.5,1.91v0a1.58,1.58,0,0,1-3.08.67,1.52,1.52,0,0,1,0-.67A1.77,1.77,0,0,1,128,213"/><path class="cls-2" d="M118.4,217c1.5.33,2.59,1.24,2.45,2s-1.57,1.06-3.07.73-2.64-1.25-2.45-2,1.53-1.06,3.07-.7"/><path class="cls-2" d="M115.84,216.38a2.35,2.35,0,0,1,1.35.43c-1,0-1.76.33-1.86.85s.8,1.57,2.19,1.93a2.22,2.22,0,0,1-1.72.74,2,2,0,0,1,0-4h0"/><path class="cls-2" d="M107.13,244c.84,0,1.54.47,1.54,1.06s-.7,1.06-1.57,1.06-1.54-.48-1.54-1.06.69-1.06,1.57-1.06"/><path class="cls-2" d="M144.47,265.75h-3.65v-.4a18.15,18.15,0,0,1-.7-7c-.73-1.39-2.23-1.5-3.66-1.46-1.09,1.31-2.41,1.9-2.78,3.95a10.6,10.6,0,0,0,2.31,4.79h-4.43a16,16,0,0,1-1.53-3.44,7.82,7.82,0,0,1,5.3-8.74c2.71-.73,5.27-1,7.1,2A101.88,101.88,0,0,0,144.47,265.75Z"/><path class="cls-2" d="M140.71,265.71h-5a10.5,10.5,0,0,1-2.31-4.79c.37-2.05,1.68-2.63,2.78-3.95,1.57,0,3.07,0,3.66,1.47a18.31,18.31,0,0,0,.69,6.94S140.71,265.6,140.71,265.71Z"/><path class="cls-2" d="M165.14,257.08c.73,0,1.28,1.14,1.28,2.56s-.59,2.56-1.32,2.56-1.24-1.17-1.24-2.59.58-2.53,1.28-2.53"/><path class="cls-2" d="M178.82,250.61c0-2.09,1.13-3.33,4-2.82a44.46,44.46,0,0,1,7.32,4.17,5.87,5.87,0,0,1,3.07,5.16,13,13,0,0,1-3.44,7.06c-1.42,2.15-3.07,2.26-5,.25a22.69,22.69,0,0,1-6-13.82"/><path class="cls-2" d="M171.9,219.45c-4.13,0-3.65,2.16-3.43,4.09a7.3,7.3,0,0,0,7.31,5.71c2.09-.4,3.66-1.21,3.66-4.21a7.31,7.31,0,0,0-7.54-5.59"/><path class="cls-2" d="M195.86,230.42c.22-1.76.77-3.22,3.66-2.38a10.58,10.58,0,0,1,7.31,6.15c.62,4.61-.51,6.07-2.45,6.07-4.06-1.25-6.55-5.16-8.59-9.84"/><path class="cls-2" d="M173.15,221.9c.33-.26,1.17.62,2,1.79s1.28,2.3.76,2.93-1.35-.55-2.08-2-1.1-2.49-.73-2.74"/><path class="cls-2" d="M166.42,259.68a3.22,3.22,0,0,1,.36,1.46,2.52,2.52,0,0,1-5,.61,3.11,3.11,0,0,1,0-.61,2.66,2.66,0,0,1,2.2-2.7,4.7,4.7,0,0,0,0,1.06c0,1.42.55,2.56,1.24,2.59s1.24-1.06,1.32-2.37"/></g><g id="Lines"><polyline class="cls-3" points="0.01 55.05 15.26 54.69 82.63 54.21 157.57 24.59 218.79 0.37"/><polyline class="cls-3" points="272.48 53.84 231.04 201.64 19.28 170.07"/><line class="cls-3" x1="231.08" y1="201.64" x2="242.16" y2="276.9"/><polyline class="cls-3" points="50.08 265.06 153 265.75 179.91 330.48"/></g><g id="Labels"><g class="cls-4"><path class="cls-5" d="M234.83,37.3h.23l.18,0,.52.09.53.15.38.17a.87.87,0,0,1,.5.7l0,.26L237,39l-.15.2-.38.31-1.3.87L234,41l-.5.23-.45.09a.52.52,0,0,1-.35-.15l-.1-.17,0-.21.05-.22s.06-.11.17-.2l.42-.2.79-.35,1-.52.42-.23.31-.22.06-.13q0-.3-.78-.3l-.54,0-.63.21c-.45,0-.67-.18-.67-.55a.46.46,0,0,1,.1-.32,1.42,1.42,0,0,1,.35-.22l.63-.2Zm4.49.05a3.46,3.46,0,0,1,.87.13,1.23,1.23,0,0,1,.25.08l.19.09.38.26a.67.67,0,0,1,.27.29.75.75,0,0,1,.09.39l-.05.14-.09.17-.2.23-.19.23-.19.21-.26.21-.71.58-.72.48-.63.37-.28.07-.3,0-.24,0a.36.36,0,0,1-.18-.1l-.1-.2a.33.33,0,0,0,0-.15.34.34,0,0,1,.13-.25l.22-.12.3-.14.43-.2.75-.42.57-.45.31-.27a.63.63,0,0,0,.12-.25.28.28,0,0,0-.19-.29l-.45,0-.29,0-.2,0-.22.09-.18,0-.15,0-.4,0-.16-.08-.06,0-.1-.07a1.15,1.15,0,0,1-.07-.25l0-.15a.44.44,0,0,1,.1-.16,1.36,1.36,0,0,1,.28-.21l.2-.09.19,0a2.92,2.92,0,0,1,.46-.13l.34,0Z"/><path class="cls-5" d="M239.79,43.43H240a.26.26,0,0,1,.14,0,.61.61,0,0,1,.29.32l0,.31a.4.4,0,0,1-.14.35l-.59.25L240,45a.92.92,0,0,1,.28.65v.28a.38.38,0,0,0,0,.1.69.69,0,0,1,0,.1,1.49,1.49,0,0,1-.79,1l-.43.24-.29.09-.37,0h-.37l-.37,0-.72-.17-.12-.08-.47.4-.22.2-.28.21-.6.44-.26.17-.46.29-.43.26-.88.48-.18.08-.2.1-.36.19-.35.06a.81.81,0,0,1-.75-.43l0-.1,0-.24a.39.39,0,0,1,.13-.33l.16-.12.12-.08h.3l.28,0h.18a1.21,1.21,0,0,0,.57-.15l1-.52.34-.21.57-.37.36-.27.24-.25.19-.15.22-.23-.15-.27,0-.18,0-.18a.68.68,0,0,1,.4-.45l.3-.06h.21l.26.12a.45.45,0,0,1,.27.29l0,.24.08.07.25.16.27.11h.34l.22,0,.19-.07a1.29,1.29,0,0,0,.46-.3l.13-.19.06-.17a.57.57,0,0,0-.08-.31l-.14-.17-.21-.12-.19-.13-.37-.17-.35-.25-.06-.14-.06-.17a.22.22,0,0,1,.12-.22l.33-.15h.28l.33,0,.22-.1.21-.14.19-.12.21-.09Z"/><path class="cls-5" d="M248.73,38.1a.59.59,0,0,1,.34-.12c.33,0,.49.22.49.65l0,.15a.22.22,0,0,1-.09.11,16.46,16.46,0,0,1-1.88,1.28,14.62,14.62,0,0,1-1.89,1l-.25.09-.2.06c-.16,0-.29-.1-.38-.31l0-.16,0-.24c0-.16.1-.27.31-.34a11.1,11.1,0,0,0,1.49-.79l.49-.29.72-.45C248.19,38.49,248.48,38.29,248.73,38.1Z"/><path class="cls-5" d="M248.18,46.36l-.49.46-.33.24-.36.22-.61.3-.59.19-.67.14-.69.05h-1a.5.5,0,0,1-.25-.07,1.65,1.65,0,0,1-1.22-1,2,2,0,0,1-.08-.62,2.16,2.16,0,0,1,.21-.79l.27-.33.33-.33.17-.14.2-.11.43-.2.39-.13.38-.06h.37l.27.07a.94.94,0,0,1,.22.12l.35.35.35-.33.29-.21.17-.09.21-.08.4-.09.43,0a1.66,1.66,0,0,1,1.33.55l.14.22a.84.84,0,0,1,.07.27v.24A2.29,2.29,0,0,1,248.18,46.36Zm-3.46-.93-.24-.14-.25,0-.18,0h-.22l-.25.11a1,1,0,0,0-.61.94.48.48,0,0,0,.25.4l.43.18.65-.94Zm3.07-.31c0-.22-.16-.33-.49-.33l-.2,0a1.52,1.52,0,0,0-.51.26l-.65.52-.4.36-.3.36-.17.22-.27.42.85-.14.11,0a.59.59,0,0,0,.19-.05,1.93,1.93,0,0,0,.29-.17l.52-.35.43-.3C247.59,45.61,247.79,45.35,247.79,45.12Z"/><path class="cls-5" d="M252.71,43.78l.32,0a.68.68,0,0,1,.47.27l.12.2a.48.48,0,0,0,.29.15.45.45,0,0,0,.23-.09l.21-.2.17-.13.16-.14a.26.26,0,0,1,.16-.07.61.61,0,0,1,.25,0h.12l.13.07.19.1.1.06a.26.26,0,0,1,.07.1l.12.27.09.24.07,0,.11,0a1.24,1.24,0,0,0,.49-.15l.21-.16.22-.23.09-.08.14-.1.29-.15.23,0H258a.17.17,0,0,1,.15.1l.13.15.05.15a.77.77,0,0,1-.18.52l-.25.29a.83.83,0,0,1-.29.22l-.32.17-.39.15-.38.12-.69.13a1.1,1.1,0,0,1-.57-.15l-.21-.17-.24-.24h-.43a1.09,1.09,0,0,0-.33,0,.46.46,0,0,0-.23.12l-.46.43-.71.57-.71.54-.2.14-.27.17-.31.2-1,.57-.78.43-.31.13-.36.13-.32.07-.34,0-.21,0-.25-.1c-.2-.09-.3-.3-.3-.62a.49.49,0,0,1,.29-.45l.22,0h.78a2.14,2.14,0,0,0,.68-.26l.7-.36.8-.43.73-.49.56-.43.13-.16a.3.3,0,0,0,.05-.16l-.25-.5,0-.24v-.12a.23.23,0,0,1,0-.13l.13-.18A1,1,0,0,1,252.71,43.78Z"/><path class="cls-5" d="M265.61,37.32l.28-.12.3,0a.65.65,0,0,1,.46.12.34.34,0,0,1,.18.31.4.4,0,0,1-.16.36l-.12.08-.2.1-.39.17-1.14.51c-.59.28-.89.64-.89,1.07a.43.43,0,0,0,.19.35l.12.05.18.06.39,0,.35,0,.15,0,.14-.06.18-.09a.64.64,0,0,1,.19-.07.52.52,0,0,1,.3.06l.17.22a.61.61,0,0,1,.06.3c-.06.29-.34.51-.85.65l-.32.08-.31.05-.46-.05-.51-.14-.26-.08-.23-.16a1.29,1.29,0,0,1-.66-1.15,1.23,1.23,0,0,1,.26-.73l.24-.3.35-.33.27-.21.35-.23.63-.38Z"/><path class="cls-5" d="M264.88,43.89l.19-.13.19,0,.28.06a.24.24,0,0,1,.18.17l.06.21a.43.43,0,0,1-.06.26l-.25.21-.33.36-.21.16-.17.13-1.32.83-1.35.77-.66.33-.65.27-.66.26a2.05,2.05,0,0,1-.66.12,1.08,1.08,0,0,1-.57-.19l-.2-.16a.37.37,0,0,1-.05-.11.68.68,0,0,1,0-.14V47.1a.39.39,0,0,1,0-.13.52.52,0,0,1,.28-.3l.26-.1.24,0,.41,0H260a2.41,2.41,0,0,0,1-.26l.72-.35,1.62-.93,1.15-.75Z"/></g><g class="cls-4"><path class="cls-5" d="M237.38,70.11l.23-.06h.09a.23.23,0,0,1,.14,0l.11.07.14.15,0,.23,0,.15a.37.37,0,0,1-.11.23l-.18.16-.54.42-.68.5-.68.44-1.14.68-.46.22a4.26,4.26,0,0,1-.71.32l-.25.1a1.58,1.58,0,0,1-.31.08h-.36a.37.37,0,0,1-.23-.11.5.5,0,0,1-.22-.27v-.22a.76.76,0,0,1,.15-.36l.26-.29.18-.2.11-.17.09-.29v-1a1,1,0,0,1,.06-.37.18.18,0,0,1,.09-.08l.18-.11.31-.06.25,0a.46.46,0,0,1,.25.14.52.52,0,0,1,.21.47l0,.16-.05.17-.16.35-.14.53-.13.35.23-.08.25-.17.38-.21.48-.29.89-.59.2-.14.3-.29.53-.39Z"/></g><g class="cls-4"><path class="cls-5" d="M237.91,63.65l.29-.11.3,0c.23,0,.38,0,.45.11a.34.34,0,0,1,.18.31.39.39,0,0,1-.16.36l-.11.09-.21.09-.39.18-1.13.51c-.6.27-.9.63-.9,1.06a.47.47,0,0,0,.19.36l.12.05.18,0,.39,0,.35,0,.15,0,.14-.06.18-.09a1.21,1.21,0,0,1,.2-.07.42.42,0,0,1,.29.07l.18.22a.69.69,0,0,1,.05.29c-.05.29-.34.51-.85.65l-.32.09-.3,0-.47,0-.51-.15-.25-.08-.24-.15a1.3,1.3,0,0,1-.66-1.15,1.33,1.33,0,0,1,.26-.74l.24-.3.35-.33.28-.2.35-.24.62-.38Z"/></g><g class="cls-4"><path class="cls-5" d="M225.93,70.11l.32,0a.71.71,0,0,1,.46.27l.13.21a.47.47,0,0,0,.28.14.48.48,0,0,0,.24-.09l.21-.19.16-.14.16-.14a.46.46,0,0,1,.16-.07.9.9,0,0,1,.25,0h.13l.12.06.2.1.1.06.07.1.12.27.08.24.08,0,.1,0a1.42,1.42,0,0,0,.5-.14l.21-.17.21-.22.1-.09a.56.56,0,0,1,.14-.09l.28-.16.23,0h.22a.15.15,0,0,1,.14.1l.13.16.06.14a.73.73,0,0,1-.19.52l-.25.29a.61.61,0,0,1-.28.22l-.33.17-.38.16-.38.12-.69.13a1.1,1.1,0,0,1-.57-.15l-.22-.18-.23-.23h-.43a1.06,1.06,0,0,0-.33,0,.46.46,0,0,0-.23.12l-.46.43-.71.58-.72.53a2.07,2.07,0,0,1-.2.15l-.26.17-.31.19-1,.57-.78.43-.31.14-.35.12-.32.07-.34,0-.21,0-.25-.09a.62.62,0,0,1-.31-.62.49.49,0,0,1,.3-.46l.22,0h.78a1.9,1.9,0,0,0,.68-.26l.7-.36.8-.43.73-.48.55-.44.14-.16a.3.3,0,0,0,0-.16l-.26-.49,0-.24v-.13a.25.25,0,0,1,0-.12l.14-.19A1,1,0,0,1,225.93,70.11Z"/></g><g class="cls-4"><path class="cls-5" d="M223.12,69.76h.17a.33.33,0,0,1,.15,0,.63.63,0,0,1,.28.33l0,.3a.39.39,0,0,1-.14.35L223,71l.29.29a.86.86,0,0,1,.28.64v.29a.28.28,0,0,0,0,.09.24.24,0,0,1-.05.1,1.44,1.44,0,0,1-.78,1l-.43.23-.29.1-.37,0h-.37l-.37,0-.72-.17-.12-.08-.46.39-.23.2-.27.21-.61.45-.26.16-.47.29-.43.26-.87.49-.18.07-.2.1-.36.2-.35,0a.85.85,0,0,1-.75-.42l0-.11-.06-.24a.42.42,0,0,1,.13-.33l.16-.12.12-.07h.76a1.33,1.33,0,0,0,.57-.14l1-.53.34-.21.56-.37.36-.26.24-.25.19-.16.22-.22-.15-.28,0-.17,0-.18c0-.17.16-.32.4-.46l.3-.06h.21l.26.13a.44.44,0,0,1,.27.28l0,.24.08.07.25.17.27.1.34,0,.22,0,.19-.07a1.29,1.29,0,0,0,.46-.3l.13-.19.06-.17a.57.57,0,0,0-.08-.31l-.14-.16-.21-.13-.19-.12-.37-.18-.35-.25-.06-.13-.06-.18a.23.23,0,0,1,.12-.22l.33-.15h.28l.33,0,.22-.1.21-.14.19-.11.21-.09Z"/></g><g class="cls-4"><path class="cls-5" d="M223.07,77.65a.4.4,0,0,1,.4.25l0,.21v.14a.25.25,0,0,1-.06.15l-.17.19-.12.06-.24.12-.26.13-.46.43-.43.31-.74.47-.65.39-.37.22a3.16,3.16,0,0,1-.44.21l-.73.28-.26.07a.6.6,0,0,1-.4-.17.69.69,0,0,1-.15-.41l0-.2a.28.28,0,0,1,.09-.14l.1-.07.34-.19.75-.33.63-.3.43-.2.39-.22.75-.48.43-.29.39-.31.41-.23A.49.49,0,0,1,223.07,77.65Z"/></g><g class="cls-4"><path class="cls-5" d="M215.55,70.11l.23-.06h.09a.27.27,0,0,1,.14,0l.11.07.13.15.05.23,0,.15a.47.47,0,0,1-.12.23l-.18.16-.53.42-.69.5-.68.44-1.13.68-.47.22a4.19,4.19,0,0,1-.7.32l-.25.1a1.78,1.78,0,0,1-.31.08h-.36a.37.37,0,0,1-.23-.11.52.52,0,0,1-.23-.27v-.22a.7.7,0,0,1,.16-.36l.25-.29.18-.2.12-.17.08-.29,0-.19,0-.31,0-.51a1.27,1.27,0,0,1,0-.37.21.21,0,0,1,.1-.08l.18-.11.3-.06.25,0a.43.43,0,0,1,.25.14.5.5,0,0,1,.22.47l0,.16,0,.17-.16.35-.15.53-.12.35.22-.08.26-.17.37-.21.49-.29.89-.59.2-.14.3-.29.52-.39Z"/></g><g class="cls-4"><path class="cls-5" d="M215,63.57h.53a.43.43,0,0,1,.17,0,1.76,1.76,0,0,1,1,.23.73.73,0,0,1,.34.63,1.79,1.79,0,0,1-.62,1.09L216,66l-.5.42a2.69,2.69,0,0,1-.48.34,3.19,3.19,0,0,1-.58.3l-.87.37-.44.2-.3,0c-.06,0-.14-.07-.24-.2l-.07-.13-.08-.16a.48.48,0,0,1,.11-.32.74.74,0,0,1,.36-.25l.37-.11.44-.14a2.87,2.87,0,0,0,.46-.19,2.22,2.22,0,0,0,1.44-1.34l-.08-.07-.1,0-.33,0-.24,0-.25,0h-.27l-.14,0-.21.11-.16.09-.15.07h-.23a.37.37,0,0,1-.23-.1l-.16-.23,0-.19a.41.41,0,0,1,.21-.38,4.12,4.12,0,0,1,.83-.34A3.71,3.71,0,0,1,215,63.57Z"/></g><g class="cls-4"><path class="cls-5" d="M207.3,70.12a1,1,0,0,1,.66.18.39.39,0,0,1,.13.27v.1l0,.1-.14.13-.13.07-.18.1a.57.57,0,0,0-.11.29.52.52,0,0,0,.21.45l.23.16.1,0,.17,0,.25,0a.78.78,0,0,0,.21-.16l.19-.15.22-.15.37-.07.16,0a.67.67,0,0,1,.24.22l0,.11,0,.17a.84.84,0,0,1-.16.29l-.24.18-.29.19-.35.25-1.05.67-1.18.69-.64.36-.54.27-.5.24-.64.27-.45.13c-.5,0-.75-.21-.75-.62a.9.9,0,0,1,.14-.41.48.48,0,0,1,.13-.17.3.3,0,0,1,.15,0l.19,0,.25.06.27,0a3.29,3.29,0,0,0,.65-.28l1.2-.6.59-.33.75-.5c0-.09,0-.14-.07-.15h-.16l-.31-.09a.87.87,0,0,1-.42-.27l-.09-.13-.07-.2,0-.34v-.15a.53.53,0,0,1,0-.12l.16-.38a1.24,1.24,0,0,1,.35-.47.36.36,0,0,1,.12-.09l.15-.08A.76.76,0,0,1,207.3,70.12Z"/></g><g class="cls-4"><path class="cls-5" d="M209.31,63.57h.53a.48.48,0,0,1,.18,0,1.72,1.72,0,0,1,1,.23.72.72,0,0,1,.35.63,1.84,1.84,0,0,1-.62,1.09l-.39.41-.49.42a3.69,3.69,0,0,1-.48.34,3.55,3.55,0,0,1-.58.3l-.88.37-.43.2-.31,0c-.05,0-.13-.07-.24-.2l-.07-.13-.07-.16a.47.47,0,0,1,.1-.32.79.79,0,0,1,.36-.25l.38-.11.44-.14a3.59,3.59,0,0,0,1.9-1.53l-.08-.07-.1,0-.33,0-.24,0-.25,0h-.27l-.15,0-.2.11-.16.09-.15.07h-.24a.37.37,0,0,1-.23-.1l-.16-.23,0-.19a.42.42,0,0,1,.2-.38,4.38,4.38,0,0,1,.83-.34A3.71,3.71,0,0,1,209.31,63.57Z"/></g><g class="cls-4"><path class="cls-5" d="M204.07,69.76h.17a.32.32,0,0,1,.14,0,.64.64,0,0,1,.29.33l0,.3a.39.39,0,0,1-.14.35L204,71l.28.29a.86.86,0,0,1,.28.64v.29s0,.06,0,.09a.21.21,0,0,1,0,.1,1.46,1.46,0,0,1-.79,1l-.43.23-.29.1-.37,0h-.36l-.38,0-.71-.17-.12-.08-.47.39-.22.2-.28.21-.61.45-.26.16-.46.29-.43.26-.87.49-.18.07-.21.1-.35.2-.35,0a.82.82,0,0,1-.75-.42l0-.11,0-.24a.45.45,0,0,1,.12-.33l.16-.12.13-.07h.76a1.33,1.33,0,0,0,.57-.14l1-.53.34-.21.56-.37.37-.26.23-.25.2-.16.21-.22-.14-.28-.05-.17,0-.18a.75.75,0,0,1,.4-.46l.31-.06h.2l.27.13a.49.49,0,0,1,.27.28l0,.24.09.07.25.17.26.1.34,0,.22,0,.19-.07a1.32,1.32,0,0,0,.47-.3l.12-.19.06-.17a.49.49,0,0,0-.08-.31l-.14-.16L203,71.5l-.18-.12-.38-.18-.35-.25-.06-.13-.05-.18a.24.24,0,0,1,.11-.22l.34-.15h.27l.33,0,.22-.1.21-.14.2-.11.2-.09Z"/></g><g class="cls-4"><path class="cls-5" d="M199.61,63.64h.23l.18,0,.51.09.54.15.38.17a.88.88,0,0,1,.5.71l0,.26-.13.23-.15.2-.38.32-1.3.86-1.21.64-.5.22-.46.09a.55.55,0,0,1-.34-.14l-.1-.17,0-.22.05-.21c0-.05.06-.12.17-.21l.42-.2.79-.34,1-.53.42-.22.31-.22.06-.14c0-.19-.26-.29-.79-.29l-.53,0-.63.21c-.45,0-.67-.18-.67-.55a.41.41,0,0,1,.1-.31.92.92,0,0,1,.35-.22l.63-.21Zm4.49,0a3,3,0,0,1,.86.14.61.61,0,0,1,.26.08l.19.08.38.27a.72.72,0,0,1,.27.28.8.8,0,0,1,.09.39l-.05.15-.09.16-.2.24-.19.22-.19.21-.26.22-.71.57-.72.48-.63.37-.28.07-.3,0-.24,0a.41.41,0,0,1-.18-.11l-.1-.2a.33.33,0,0,0,0-.15.36.36,0,0,1,.13-.25l.22-.11.3-.15.43-.2.75-.41.57-.46.31-.27a.51.51,0,0,0,.12-.25.26.26,0,0,0-.19-.28l-.45,0-.29,0-.2,0-.22.09-.18,0-.15,0-.4,0-.16-.08-.06,0-.1-.08a1.15,1.15,0,0,1-.07-.25l0-.15a.39.39,0,0,1,.1-.16,1.35,1.35,0,0,1,.28-.2l.2-.1.19,0a2.92,2.92,0,0,1,.46-.13l.34,0Z"/></g><g class="cls-4"><path class="cls-5" d="M227.36,106.43l.23-.07h.09a.25.25,0,0,1,.14,0l.11.07.13.14.05.24,0,.15a.37.37,0,0,1-.11.23l-.18.16-.54.41-.69.5-.68.45-1.13.68-.46.22a4.26,4.26,0,0,1-.71.32l-.25.09a1.69,1.69,0,0,1-.31.09h-.36a.37.37,0,0,1-.23-.11.5.5,0,0,1-.22-.27v-.22a.76.76,0,0,1,.15-.36l.26-.29.18-.2.11-.17.08-.29,0-.19,0-.31,0-.52a1,1,0,0,1,.06-.36.19.19,0,0,1,.09-.09l.18-.1.3-.06h.25a.4.4,0,0,1,.25.15.5.5,0,0,1,.22.47l0,.16,0,.16-.16.36-.15.53-.12.35.22-.08.26-.17.38-.21.48-.29.89-.59.2-.15.3-.28.53-.4Z"/></g><g class="cls-4"><path class="cls-5" d="M226.83,99.89h.53a.48.48,0,0,1,.18,0,1.75,1.75,0,0,1,1,.23.71.71,0,0,1,.35.63,1.82,1.82,0,0,1-.63,1.08l-.38.42-.49.42a5,5,0,0,1-.48.34,4.56,4.56,0,0,1-.58.3l-.88.36-.44.21-.3,0s-.13-.07-.24-.2l-.07-.14-.07-.15a.52.52,0,0,1,.1-.33,1,1,0,0,1,.36-.25l.37-.1.44-.15a2.33,2.33,0,0,0,.46-.18,2.22,2.22,0,0,0,1.44-1.34l-.07-.07-.1-.05-.33,0-.25,0-.25,0h-.26l-.15,0-.2.11-.16.08-.15.08h-.24a.37.37,0,0,1-.23-.1l-.16-.23,0-.19a.42.42,0,0,1,.2-.38,4.38,4.38,0,0,1,.83-.34A3.71,3.71,0,0,1,226.83,99.89Z"/></g><g class="cls-4"><path class="cls-5" d="M219.65,106.47l.16.06a.45.45,0,0,1,.39.47.72.72,0,0,1-.14.25l-.25.19-.34.13.64.14.24.08.3.08c.44.07.66.27.66.59l-.07.15-.28.22-.17.14-.27.2-.92.52-.2.14a.18.18,0,0,0,0,.14l1.05.22.82.16.3,0c.32,0,.47.14.47.42s-.09.52-.28.55h-.64l-.27,0-.43-.08-.51-.09-.23,0-.23-.06-1.43-.38-.11,0-.08,0-.11-.06-.19-.1a.31.31,0,0,1,0-.47l.19-.2.52-.36.57-.35.52-.34.35-.26-.53-.06-1.57-.23a.16.16,0,0,1-.14-.09v-.26l.26-.2.45-.33.54-.37.49-.28A1.68,1.68,0,0,1,219.65,106.47Z"/></g><g class="cls-4"><path class="cls-5" d="M223.33,100.76a.56.56,0,0,1,.34-.13c.33,0,.49.22.49.65l0,.15a.23.23,0,0,1-.09.11,17.39,17.39,0,0,1-1.88,1.28,14.81,14.81,0,0,1-1.9,1l-.25.08-.2.06c-.16,0-.29-.1-.38-.31l0-.16,0-.24c0-.16.1-.27.31-.34a11.1,11.1,0,0,0,1.49-.79l.5-.29.72-.44Z"/></g><g class="cls-4"><path class="cls-5" d="M215.4,105.61l.19-.06h.21a.41.41,0,0,1,.26.17s0,.07.05.15V106a.83.83,0,0,1-.47.54l-.25.14.11.07.3.17a1.06,1.06,0,0,1,.24.22.38.38,0,0,1,.08.24c0,.17-.12.35-.36.56l-1,.47.29.17.29.19a1,1,0,0,1,.07.32v.11a.25.25,0,0,1-.07.15l-.27.26-.59.46-.64.46-.51.37-1.37.92c-.2.14-.36.24-.48.31a4.5,4.5,0,0,1-.44.22l-.14.06-.22.11-.56.24a2,2,0,0,1-.69.19.51.51,0,0,1-.25,0l-.16-.08-.12-.1a.42.42,0,0,1-.11-.18,1.46,1.46,0,0,1,0-.27c0-.27.2-.45.6-.55l.27,0,.2,0,.24-.07.22-.08a1.39,1.39,0,0,0,.27-.09l.36-.16.35-.2,1.28-.81.63-.42.87-.62-.49-.33a.5.5,0,0,1-.2-.41.34.34,0,0,1,.05-.19,1.3,1.3,0,0,1,.24-.25l.4-.21.61-.29-.27-.17-.34-.2-.18-.11-.08-.08-.09-.16,0-.08,0-.1a.23.23,0,0,0,.07-.07l.23-.18.05,0,.1,0a2.55,2.55,0,0,0,.33-.11l.27-.11L215,106l.23-.17Z"/></g><g class="cls-4"><path class="cls-5" d="M217.22,100.76a.54.54,0,0,1,.34-.13c.33,0,.5.22.5.65l0,.15a.31.31,0,0,1-.09.11,18.43,18.43,0,0,1-1.88,1.28,14.81,14.81,0,0,1-1.9,1l-.25.08-.2.06c-.15,0-.28-.1-.38-.31l0-.16,0-.24c0-.16.1-.27.31-.34a11.1,11.1,0,0,0,1.49-.79l.5-.29.72-.44Z"/></g><g class="cls-4"><path class="cls-5" d="M202.8,111.47a.93.93,0,0,1-.61-.16.6.6,0,0,1-.2-.5v-.17a.31.31,0,0,1,.18-.28,1,1,0,0,1,.39-.13,3.31,3.31,0,0,0,1.21-.28l1-.56a2.06,2.06,0,0,0,.57-.31l.67-.47.28-.16.28-.25-.13-.12-.24-.28-.11-.23v-.23a.9.9,0,0,1,.08-.24l.17-.14a.72.72,0,0,1,.45-.19,1.41,1.41,0,0,1,.59.19l.18.1.24.15.67-.36.81-.45.43-.18a3.15,3.15,0,0,1,.85-.26,1,1,0,0,1,.39.13c.09,0,.14.17.16.37v.14a.51.51,0,0,1-.16.23l-.29.19-.16.07-.46.21-.43.18-.68.2-.35.09.55.27.41.21.21.2.06.07v.12a.39.39,0,0,1,0,.14l-.06.14a.31.31,0,0,1-.18.19l-.23.1-.28,0a.37.37,0,0,1-.17,0l-1.1-.56-.38.24-.39.29-.52.31-.75.47-1.36.79-.55.29-.52.26-.29.1Z"/></g><g class="cls-4"><path class="cls-5" d="M210,114a.41.41,0,0,1,.41.26l0,.21,0,.14a.17.17,0,0,1-.06.14l-.16.2-.12.06-.25.12-.25.12-.47.44-.42.31-.74.47-.65.39-.38.22-.43.21-.73.28-.27.07a.57.57,0,0,1-.39-.17.72.72,0,0,1-.15-.41l0-.2a.37.37,0,0,1,.08-.14l.1-.07.35-.19.75-.33.63-.3.43-.2.39-.23.75-.47.43-.29.38-.31.42-.24A.53.53,0,0,1,210,114Z"/></g><g class="cls-4"><path class="cls-5" d="M282.92,98.78h.23l.18,0,.52.09.53.15.38.17a.85.85,0,0,1,.5.7l0,.26-.13.24-.15.2-.38.31-1.3.87-1.2.63-.5.23-.46.09a.52.52,0,0,1-.35-.15l-.1-.17,0-.21,0-.22a.49.49,0,0,1,.17-.2l.42-.2.8-.35,1-.52.42-.23.31-.22.06-.13q0-.3-.78-.3l-.54,0-.63.21c-.45,0-.67-.18-.67-.55a.51.51,0,0,1,.1-.32,1.33,1.33,0,0,1,.36-.22l.62-.2Zm4.49,0a3.34,3.34,0,0,1,.87.13,1.34,1.34,0,0,1,.26.08l.18.09.39.26a.82.82,0,0,1,.27.29.86.86,0,0,1,.09.39l-.06.14-.09.17-.19.23-.2.22-.19.22-.26.21-.71.57-.71.49-.64.36-.27.08-.31,0-.23,0a.38.38,0,0,1-.19-.1l-.1-.2a.61.61,0,0,0,0-.15.35.35,0,0,1,.12-.25l.23-.12.29-.14.44-.2.75-.42.57-.45.3-.27a.78.78,0,0,0,.13-.25.28.28,0,0,0-.2-.29l-.45,0-.28,0-.21,0-.22.09-.18.05-.15,0-.39,0-.17-.08-.06,0-.1-.07a2.33,2.33,0,0,1-.07-.25l0-.15a.62.62,0,0,1,.1-.16,1.21,1.21,0,0,1,.29-.21l.2-.09.19,0a2.81,2.81,0,0,1,.45-.13l.34,0Z"/><path class="cls-5" d="M287.88,104.91h.18a.32.32,0,0,1,.14,0,.6.6,0,0,1,.28.32l0,.31a.4.4,0,0,1-.14.35l-.59.25.28.28a.88.88,0,0,1,.28.65v.28s0,.07,0,.1a.26.26,0,0,1,0,.1,1.46,1.46,0,0,1-.79,1l-.43.24-.29.09-.37,0H286l-.38,0-.71-.17-.13-.08-.46.4-.23.2-.27.21-.61.44-.26.17-.46.29-.43.26-.88.48-.17.08-.21.1-.36.19-.35.06a.84.84,0,0,1-.75-.43l0-.1-.05-.24a.42.42,0,0,1,.12-.33l.16-.12.13-.08H280l.29,0h.17a1.22,1.22,0,0,0,.58-.15l1-.52.34-.21.56-.37.37-.27.23-.25.2-.15.21-.23-.14-.27-.05-.18,0-.18a.68.68,0,0,1,.4-.45l.3-.06h.21l.27.12a.51.51,0,0,1,.27.29l0,.24.08.07.25.16.27.11h.34l.22,0,.19-.07a1.32,1.32,0,0,0,.47-.3l.12-.19.06-.17a.49.49,0,0,0-.08-.31l-.14-.17-.21-.12-.18-.13-.38-.17-.35-.25-.06-.14,0-.17a.23.23,0,0,1,.11-.22l.33-.15h.28l.33,0,.22-.1.21-.14.2-.12.2-.09Z"/><path class="cls-5" d="M297.36,100.31c0,.85-.55,1.56-1.65,2.14a2.37,2.37,0,0,1-1.13.34c-1.06,0-1.59-.46-1.59-1.36a2.23,2.23,0,0,1,.91-1.77,3,3,0,0,1,2-.76,1.57,1.57,0,0,1,.6.1,1.15,1.15,0,0,1,.48.27A1.3,1.3,0,0,1,297.36,100.31Zm-1,.16c0-.37-.26-.56-.8-.56a1.39,1.39,0,0,0-1,.47,1.41,1.41,0,0,0-.49,1q0,.36.48.36h.25a1.76,1.76,0,0,0,1-.44C296.17,101,296.36,100.75,296.36,100.47Z"/><path class="cls-5" d="M293.31,105.26l.32,0a.66.66,0,0,1,.46.27l.13.2a.45.45,0,0,0,.28.15.51.51,0,0,0,.24-.09l.21-.2.16-.13.16-.14a.26.26,0,0,1,.16-.07.64.64,0,0,1,.25,0h.13l.12.07.2.1.09.06a.31.31,0,0,1,.08.1l.11.27.09.24.07,0,.11,0a1.24,1.24,0,0,0,.49-.15l.22-.16.21-.23a.39.39,0,0,1,.1-.08l.13-.1.29-.15.23,0h.21a.17.17,0,0,1,.15.1l.13.15.06.15a.77.77,0,0,1-.19.52l-.25.29a.74.74,0,0,1-.29.22l-.32.17-.38.15-.39.12-.68.13a1.17,1.17,0,0,1-.58-.15l-.21-.17-.23-.24H295a1.16,1.16,0,0,0-.34,0,.43.43,0,0,0-.22.12l-.47.43-.7.57-.72.54-.2.14-.26.17-.32.2-1,.57-.78.43-.31.13a2.28,2.28,0,0,1-.36.13l-.31.07-.34,0-.21,0-.25-.1c-.21-.09-.31-.3-.31-.62a.49.49,0,0,1,.29-.45l.23,0h.77a2.05,2.05,0,0,0,.68-.26l.7-.36.8-.43.74-.49.55-.43.14-.16a.75.75,0,0,0,.05-.16l-.26-.5,0-.24v-.12a.23.23,0,0,1,0-.13l.13-.18A1,1,0,0,1,293.31,105.26Z"/><path class="cls-5" d="M306.2,98.8l.29-.12.3,0a.62.62,0,0,1,.45.12.34.34,0,0,1,.18.31.4.4,0,0,1-.16.36l-.11.08-.21.1-.39.17-1.14.51c-.59.28-.89.64-.89,1.07a.45.45,0,0,0,.19.35l.12.05.18.06.39,0,.35,0,.15,0a.61.61,0,0,0,.14-.07l.18-.08a.76.76,0,0,1,.19-.07.52.52,0,0,1,.3.06l.18.22a.78.78,0,0,1,.05.3c-.05.29-.34.51-.85.65l-.32.08-.3,0-.47,0-.51-.14-.25-.08-.24-.16a1.26,1.26,0,0,1-.4-1.88l.24-.3.35-.33.28-.21.34-.23.63-.38Z"/><path class="cls-5" d="M303.67,105.26a1,1,0,0,1,.65.18.4.4,0,0,1,.14.27v.11l0,.1-.14.12-.13.07-.18.11a.46.46,0,0,0-.11.29.5.5,0,0,0,.2.44l.24.16.1,0,.16,0,.25,0A.62.62,0,0,0,305,107l.19-.15.22-.15.37-.08.16,0a.72.72,0,0,1,.24.23l.05.11,0,.16a.84.84,0,0,1-.16.3l-.24.18-.29.18-.35.25-1.05.67-1.18.7-.64.35-.55.28-.5.23-.63.27-.45.14c-.5,0-.75-.21-.75-.62a.9.9,0,0,1,.14-.41.4.4,0,0,1,.13-.17.23.23,0,0,1,.15,0l.19,0,.25.06.27,0a3.29,3.29,0,0,0,.65-.28l1.2-.61.59-.32.75-.5c0-.09,0-.14-.07-.16l-.17,0-.3-.09a1,1,0,0,1-.42-.27l-.09-.13-.07-.21,0-.34v-.14a.21.21,0,0,1,0-.12l.16-.38a1.17,1.17,0,0,1,.35-.47l.12-.1.15-.07A.74.74,0,0,1,303.67,105.26Z"/><path class="cls-5" d="M313.33,98a.85.85,0,0,1,.18-.1.48.48,0,0,1,.18,0c.32,0,.48.22.48.65a.34.34,0,0,1-.11.27c-.68.5-1.35,1-2,1.36-.31.18-.61.34-.91.49s-.59.27-.88.39l-.43.14a.4.4,0,0,1-.22-.07.76.76,0,0,1-.16-.23l0-.12v-.19a.2.2,0,0,1,0-.09.45.45,0,0,1,.1-.25.49.49,0,0,1,.08-.1l.13-.07a4.88,4.88,0,0,0,1.52-.69A12.56,12.56,0,0,0,313.33,98Zm1,1.77a.61.61,0,0,1,.34-.12c.33,0,.49.21.49.65a.34.34,0,0,1,0,.15.2.2,0,0,1-.09.1,19.11,19.11,0,0,1-1.88,1.29,16.12,16.12,0,0,1-1.9,1l-.25.08-.19.06a.44.44,0,0,1-.39-.29l0-.18,0-.23c0-.16.1-.27.3-.34a12.28,12.28,0,0,0,1.5-.8l.5-.29.72-.44Z"/><path class="cls-5" d="M312.33,105.26h.23a.63.63,0,0,1,.2,0h.18l.18,0a.9.9,0,0,1,.4.07l.42.1c.51.12.77.34.77.68a1,1,0,0,1-.15.47l-.19.26a3.12,3.12,0,0,1-.26.27l-.38.36-.47.37-.39.28-.6.41a16.19,16.19,0,0,1-1.78,1l-.74.35-.35.13-.44.14-.32.05-.24-.05-.13-.07-.19-.14-.13-.25,0-.1c0-.31.1-.48.31-.52l.33,0h.29l.33-.05.21-.06a1.06,1.06,0,0,0,.23-.05l.29-.12.37-.2.62-.3.29-.14.48-.26.53-.29.31-.21.19-.14.27-.22a2.73,2.73,0,0,0,.34-.34l.09-.11,0,0a.12.12,0,0,0,0-.09l-.15-.07-.15,0-.34,0-.26,0h-.17l-.56.09-.08,0-.16.08-.18.06-.12.06H311l-.2,0-.25,0a.53.53,0,0,1-.35-.44.75.75,0,0,1,.08-.37,1,1,0,0,1,.35-.24l.29-.1.31-.1Z"/></g><g class="cls-4"><path class="cls-5" d="M289.25,116.16h.23l.18,0,.52.09.53.15.38.17a.86.86,0,0,1,.5.71l0,.25-.13.24-.15.2-.38.31-1.3.87-1.21.63-.5.23-.45.09a.56.56,0,0,1-.35-.14l-.1-.18,0-.21.05-.21s.06-.12.17-.21l.42-.2.79-.34,1-.53.42-.22.31-.23.06-.13c0-.19-.26-.29-.78-.29l-.54,0-.63.21c-.45,0-.67-.18-.67-.55a.46.46,0,0,1,.1-.32,1.18,1.18,0,0,1,.35-.21l.63-.21Zm4.49,0a3.06,3.06,0,0,1,.87.14.82.82,0,0,1,.25.07l.19.09.39.26a.78.78,0,0,1,.26.29.8.8,0,0,1,.09.39l-.05.15-.09.16-.2.24-.19.22-.19.21-.26.22-.71.57-.72.48-.63.37-.28.07-.3,0h-.23a.38.38,0,0,1-.19-.11l-.1-.2a.33.33,0,0,0,0-.15.36.36,0,0,1,.13-.25l.22-.11.3-.15.43-.2.75-.42.57-.45.31-.27a.51.51,0,0,0,.12-.25.26.26,0,0,0-.19-.28l-.45,0-.29,0-.2,0-.22.09-.18,0-.15,0-.4,0-.16-.08-.06,0-.1-.08A1.15,1.15,0,0,1,292,117l0-.15a.44.44,0,0,1,.1-.16,1.84,1.84,0,0,1,.28-.21l.21-.09.18,0a2.92,2.92,0,0,1,.46-.13l.34,0Z"/><path class="cls-5" d="M294.21,122.28h.17a.26.26,0,0,1,.14,0,.57.57,0,0,1,.29.33l0,.3a.4.4,0,0,1-.14.35l-.59.25.28.29a.9.9,0,0,1,.28.64v.28a.38.38,0,0,0,0,.1l0,.1a1.5,1.5,0,0,1-.79,1l-.43.23-.29.09-.37,0h-.37l-.37,0-.72-.16-.12-.09-.47.4-.22.2-.28.21-.6.44-.26.17-.46.29-.43.26-.88.48-.18.08-.2.1-.36.2-.35.05a.81.81,0,0,1-.75-.43l0-.1-.05-.24a.4.4,0,0,1,.13-.33l.16-.12.12-.07h.76a1.21,1.21,0,0,0,.57-.15l1-.52.33-.21.57-.37.36-.26.24-.25.19-.16.22-.23-.15-.27,0-.18,0-.17a.67.67,0,0,1,.4-.46l.3-.06H291l.26.12a.47.47,0,0,1,.27.29l0,.24.08.07.25.16.27.11.34,0,.22,0,.19-.07a1.29,1.29,0,0,0,.46-.3l.13-.19.06-.17a.57.57,0,0,0-.08-.31l-.14-.16-.21-.13-.19-.12-.37-.18-.35-.25-.06-.13-.06-.18a.22.22,0,0,1,.12-.22l.33-.15h.28l.33,0,.22-.1.21-.14.19-.12.21-.08Z"/><path class="cls-5" d="M303.69,117.68c0,.85-.55,1.56-1.65,2.15a2.5,2.5,0,0,1-1.13.33c-1.07,0-1.6-.45-1.6-1.36a2.27,2.27,0,0,1,.92-1.77,3,3,0,0,1,1.95-.76,1.49,1.49,0,0,1,.59.1,1.05,1.05,0,0,1,.49.28A1.31,1.31,0,0,1,303.69,117.68Zm-1,.16c0-.37-.27-.56-.8-.56a1.43,1.43,0,0,0-1,.47,1.37,1.37,0,0,0-.49,1q0,.36.48.36h.24a1.73,1.73,0,0,0,1-.43C302.5,118.4,302.69,118.12,302.69,117.84Z"/><path class="cls-5" d="M299.63,122.63l.32,0a.76.76,0,0,1,.47.27l.12.21a.47.47,0,0,0,.29.14.45.45,0,0,0,.23-.09l.21-.2.17-.13.16-.14a.34.34,0,0,1,.16-.07.85.85,0,0,1,.25,0h.12l.13.06.19.1.1.06a.37.37,0,0,1,.07.1l.12.27.09.24.07,0,.11,0a1.38,1.38,0,0,0,.49-.14l.21-.17.22-.23.09-.08a.56.56,0,0,1,.14-.09l.29-.16.23,0h.21a.17.17,0,0,1,.15.1l.13.16.05.14a.77.77,0,0,1-.18.52l-.25.29a.72.72,0,0,1-.29.22l-.32.17-.39.16-.38.11-.69.14a1.1,1.1,0,0,1-.57-.15l-.21-.18-.24-.23h-.16l-.27,0a1.09,1.09,0,0,0-.33,0,.46.46,0,0,0-.23.12l-.46.43-.71.58-.71.53-.2.14-.27.18-.31.19-1,.57-.78.43-.31.13-.36.13-.32.07-.33,0-.22,0-.25-.1a.6.6,0,0,1-.3-.61.5.5,0,0,1,.29-.46l.23,0h.77a1.9,1.9,0,0,0,.68-.26l.7-.36.8-.43.73-.48.56-.44.13-.16a.3.3,0,0,0,.05-.16l-.25-.49,0-.24v-.13a.17.17,0,0,1,0-.12L299,123A1,1,0,0,1,299.63,122.63Z"/><path class="cls-5" d="M313.09,117a.51.51,0,0,1,.34-.12c.32,0,.49.21.49.65l0,.15a.2.2,0,0,1-.09.1,18,18,0,0,1-1.88,1.29,16,16,0,0,1-1.89,1l-.25.08-.2.06a.42.42,0,0,1-.38-.3l0-.17,0-.24q0-.24.3-.33a12.28,12.28,0,0,0,1.5-.8l.49-.29.72-.44C312.55,117.34,312.84,117.14,313.09,117Z"/><path class="cls-5" d="M311.3,122.5h.11l.13,0,.28.23a.35.35,0,0,1,.16.32,3.9,3.9,0,0,1-.64.68l2.29-.06a.14.14,0,0,0,0,.06l.05.07a.39.39,0,0,1,.15.22q0,.28-.75.75l-1.15.68-.84.5-1.35.86-1.81.94-1.05.45-.34.13-.35.09-.43.1a1,1,0,0,1-.38-.05l-.2-.1a.71.71,0,0,1-.2-.57c0-.18.13-.31.38-.4l.39,0a3.36,3.36,0,0,0,.71-.08,2.86,2.86,0,0,0,.72-.26l.18-.06.25-.12.69-.3,3.41-2-3.05,0a.38.38,0,0,1-.1-.19,1,1,0,0,1,0-.33l.07-.18.22-.06a.77.77,0,0,0,.24-.1,1.76,1.76,0,0,0,.39-.19l.7-.32.49-.26a.47.47,0,0,0,.22-.22.62.62,0,0,1,.13-.19l.13,0Z"/></g><g class="cls-4"><path class="cls-5" d="M310.9,166.34h.23a.46.46,0,0,1,.2,0h.17l.18,0a1,1,0,0,1,.41.07l.41.1c.52.12.78.34.78.68a.88.88,0,0,1-.16.47,1.44,1.44,0,0,1-.18.25,3.2,3.2,0,0,1-.26.28l-.39.35-.46.37-.4.29-.59.4a16.38,16.38,0,0,1-1.78,1l-.74.36-.36.13-.43.14-.33,0-.23,0-.13-.07-.2-.14-.13-.25,0-.1c0-.31.1-.48.3-.52l.33,0,.3,0,.33,0,.2-.06.24-.06a1.23,1.23,0,0,0,.28-.12l.38-.19.61-.31c.09,0,.18-.08.29-.13l.49-.26.52-.29.32-.21.18-.14.28-.22a3.48,3.48,0,0,0,.33-.34l.09-.11,0,0a.12.12,0,0,0,0-.09l-.15-.07-.14,0-.34,0-.27,0-.16,0-.56.09-.08,0-.16.08-.18.06-.12.06h-.21l-.21,0-.25,0a.58.58,0,0,1-.35-.44.65.65,0,0,1,.09-.37,1,1,0,0,1,.34-.24l.3-.1.3-.1Z"/></g><g class="cls-4"><path class="cls-5" d="M312.59,159a.85.85,0,0,1,.18-.1.48.48,0,0,1,.18,0c.32,0,.48.21.48.65a.34.34,0,0,1-.11.27c-.68.5-1.34.95-2,1.35-.31.19-.61.35-.91.5s-.59.27-.88.39l-.43.14a.51.51,0,0,1-.22-.07.76.76,0,0,1-.16-.23l0-.12v-.19a.22.22,0,0,1,0-.09.54.54,0,0,1,.1-.25l.08-.1.13-.07a4.88,4.88,0,0,0,1.52-.69A12.56,12.56,0,0,0,312.59,159Zm1,1.77a.56.56,0,0,1,.34-.13c.33,0,.5.22.5.65a.28.28,0,0,1,0,.15.19.19,0,0,1-.09.11,17.39,17.39,0,0,1-1.88,1.28,13.55,13.55,0,0,1-1.9,1l-.25.09-.19.06a.45.45,0,0,1-.39-.3l0-.17,0-.23c0-.16.1-.27.3-.35a10.38,10.38,0,0,0,1.5-.79l.5-.29.72-.44Z"/></g><g class="cls-4"><path class="cls-5" d="M305.66,165.51l.19,0,.21,0a.51.51,0,0,1,.26.17.75.75,0,0,1,.05.16v.14a.81.81,0,0,1-.46.55l-.26.13.12.07.3.17a1,1,0,0,1,.23.22.41.41,0,0,1,.08.25.79.79,0,0,1-.36.55l-1,.48.28.17.3.18a1.78,1.78,0,0,1,.07.33v.1a.29.29,0,0,1-.06.15l-.28.27-.59.45-.64.47-.51.37-1.37.91-.48.32a3.59,3.59,0,0,1-.44.22l-.14.06-.21.1-.57.24a1.82,1.82,0,0,1-.68.2.71.71,0,0,1-.26-.05.69.69,0,0,1-.16-.09s-.06,0-.11-.1a.66.66,0,0,1-.12-.17,1.43,1.43,0,0,1,0-.28c0-.27.2-.45.61-.54l.27,0,.19-.06.25-.07.22-.07.26-.09.36-.16.35-.2,1.28-.81.63-.42.87-.63-.49-.32a.56.56,0,0,1-.2-.42.41.41,0,0,1,.05-.18,1.62,1.62,0,0,1,.24-.26l.4-.2.61-.3-.27-.16-.34-.2-.17-.12-.08-.08-.09-.16,0-.07,0-.1.07-.07.22-.18.05,0,.1-.05a1.61,1.61,0,0,0,.33-.12A2.14,2.14,0,0,0,305,166a1.16,1.16,0,0,0,.25-.12l.23-.17Z"/></g><g class="cls-4"><path class="cls-5" d="M307.45,160.66a.59.59,0,0,1,.34-.12c.33,0,.49.22.49.65l0,.15a.22.22,0,0,1-.09.11,18.87,18.87,0,0,1-1.87,1.28,16.94,16.94,0,0,1-1.9,1l-.25.09-.2.05a.42.42,0,0,1-.38-.3l0-.17,0-.23c0-.16.1-.27.31-.34a12.56,12.56,0,0,0,1.49-.79l.49-.29.73-.45Q307.08,160.95,307.45,160.66Z"/></g><g class="cls-4"><path class="cls-5" d="M293.06,171.38a1,1,0,0,1-.61-.16.61.61,0,0,1-.19-.5v-.18a.3.3,0,0,1,.18-.27,1,1,0,0,1,.39-.13,3.2,3.2,0,0,0,1.21-.29l1-.56a1.72,1.72,0,0,0,.57-.31l.67-.46.28-.17.28-.25-.13-.12-.24-.27-.11-.23v-.23a.72.72,0,0,1,.08-.24l.17-.15a.78.78,0,0,1,.45-.19,1.77,1.77,0,0,1,.59.19l.19.11.23.14.68-.35.8-.45.43-.18a3.25,3.25,0,0,1,.85-.26,1,1,0,0,1,.39.13c.09.05.14.17.16.36v.15a.44.44,0,0,1-.16.22l-.28.19-.17.08-.46.21-.43.18-.68.19-.35.09.55.27.41.22.21.19.06.07v.12a.37.37,0,0,1,0,.14l-.05.15a.39.39,0,0,1-.19.19l-.22.1-.29,0a.37.37,0,0,1-.17,0l-1.1-.56-.38.24-.39.28-.52.32-.75.47-1.36.78-.54.3-.53.26-.29.1Z"/></g><g class="cls-4"><path class="cls-5" d="M298.92,159.8h.52l.18,0a1.67,1.67,0,0,1,1,.24.72.72,0,0,1,.35.63,1.88,1.88,0,0,1-.63,1.08l-.39.42-.48.41a3.25,3.25,0,0,1-.49.35,5.28,5.28,0,0,1-.58.3l-.87.36-.44.21-.3,0c-.06,0-.14-.06-.25-.19l-.07-.14-.07-.16a.55.55,0,0,1,.1-.32,1,1,0,0,1,.37-.25l.37-.11.44-.14a1.45,1.45,0,0,0,.45-.19,2.19,2.19,0,0,0,1.45-1.34l-.08-.06-.1,0-.33,0-.24,0-.25,0h-.27l-.14,0-.2.11-.17.08-.15.07h-.23a.44.44,0,0,1-.23-.1l-.16-.23-.05-.19a.41.41,0,0,1,.21-.38,4.81,4.81,0,0,1,.83-.35A4.22,4.22,0,0,1,298.92,159.8Z"/></g><g class="cls-4"><path class="cls-5" d="M190.55,169.92a.4.4,0,0,1,.4.26l.05.2,0,.15a.18.18,0,0,1-.06.14l-.16.2-.13.06-.24.12-.26.12-.46.44-.42.3-.74.47-.65.4-.38.21a2.94,2.94,0,0,1-.44.22l-.72.27-.27.08a.54.54,0,0,1-.39-.18.67.67,0,0,1-.15-.41l0-.19a.27.27,0,0,1,.09-.15l.09-.07.35-.18.75-.33.63-.31.43-.19.39-.23.75-.48.43-.28.38-.31.42-.24A.53.53,0,0,1,190.55,169.92Z"/><path class="cls-5" d="M189.74,162.5l.19-.13.19,0,.28,0a.27.27,0,0,1,.18.18l0,.21a.46.46,0,0,1,0,.26l-.25.21-.33.36-.21.16-.17.13-1.32.82-1.35.77-.66.34-.65.27-.67.26a2,2,0,0,1-.65.11,1.06,1.06,0,0,1-.57-.18l-.2-.16a.37.37,0,0,1-.05-.11l0-.14v-.16a.39.39,0,0,1,0-.13.52.52,0,0,1,.28-.3l.26-.1.24-.05.41,0h.14a2.41,2.41,0,0,0,1-.26l.72-.35,1.62-.94,1.15-.75Z"/><path class="cls-5" d="M199.81,155.75l.15,0,.14,0a.35.35,0,0,1,.12.19l.09.23,0,.2c0,.28-.13.43-.38.43a4.52,4.52,0,0,0-.71.13l-.28.11-.23.11a.76.76,0,0,0-.22.11.7.7,0,0,0-.18.14l-.21.22-.21.25a.42.42,0,0,0,.19.27l.28.12.3,0h.74l.29,0,.16.05a.4.4,0,0,1,.18.39.38.38,0,0,1-.29.39l-.39.1-.52.05h-.43l-.19,0-.55-.12a1,1,0,0,1-.71-.39,1.87,1.87,0,0,1-.26-.89l-.1.14a.27.27,0,0,1-.18.14l-.15.15-.43.3-.66.43-.47.27-.4.24-.41.18-.36.14-.28.07-.14,0h-.08c-.25,0-.38-.15-.38-.44l0-.29a.33.33,0,0,1,.21-.17l.29-.09.36-.13a4.6,4.6,0,0,0,1.48-.8l.29-.25.3-.28-1.13,0-.3,0-.18,0-.16-.07a.51.51,0,0,1,.12-1l.44,0h1.09a1.49,1.49,0,0,1,.82.19.62.62,0,0,1,.18.25l.14.27.16.38.2-.19.11-.1.09-.05.15-.09.31-.27.46-.33L199,156A1.61,1.61,0,0,1,199.81,155.75Z"/><path class="cls-5" d="M195.79,162.39a1,1,0,0,1,.65.18.39.39,0,0,1,.13.27V163l0,.1-.15.12-.12.07-.19.11a.53.53,0,0,0-.11.28.51.51,0,0,0,.21.45l.23.16.11,0,.16,0,.25,0a.51.51,0,0,0,.21-.15l.19-.16.23-.15.36-.07.16,0a.69.69,0,0,1,.24.22l.06.12v.16a.84.84,0,0,1-.16.3l-.24.17-.28.19-.35.25-1.05.67-1.18.69-.65.36-.54.27-.5.24-.63.27-.46.14c-.49,0-.74-.21-.74-.62a.84.84,0,0,1,.13-.41.41.41,0,0,1,.14-.17.2.2,0,0,1,.15-.05l.19.05.25,0,.26,0a3.29,3.29,0,0,0,.65-.28l1.2-.61.59-.33.75-.5q0-.12-.06-.15l-.17,0-.31-.09a.85.85,0,0,1-.41-.28l-.09-.13-.07-.2,0-.34v-.14a.51.51,0,0,1,0-.13l.17-.37a1.08,1.08,0,0,1,.35-.47l.11-.1.16-.07A.74.74,0,0,1,195.79,162.39Z"/></g><g class="cls-4"><path class="cls-5" d="M204.14,175.37h.23l.18,0,.52.08.54.16.37.16a.86.86,0,0,1,.5.71l0,.26-.14.23-.15.21-.38.31-1.3.87-1.2.63-.5.22-.46.09a.51.51,0,0,1-.35-.14l-.1-.17,0-.22,0-.21s.07-.11.17-.2l.42-.21.8-.34,1-.53.42-.22.31-.22.07-.14c0-.19-.27-.29-.79-.29l-.54,0-.63.22c-.44,0-.67-.19-.67-.55a.49.49,0,0,1,.1-.32,1,1,0,0,1,.36-.22l.62-.21Zm4.49,0a3.39,3.39,0,0,1,.87.14.66.66,0,0,1,.26.08l.19.09.38.26a.89.89,0,0,1,.27.28.82.82,0,0,1,.09.4l-.06.14-.08.17-.2.23-.2.22-.19.22-.25.21-.72.57-.71.49-.64.36-.27.07-.31,0-.23,0s-.1,0-.19-.11l-.09-.19a.43.43,0,0,0,0-.15.35.35,0,0,1,.12-.25l.23-.12.29-.14.44-.21.75-.41.57-.46.3-.26a.62.62,0,0,0,.13-.25.28.28,0,0,0-.2-.29l-.44,0-.29,0-.21.05-.22.1-.18.05-.15,0-.39,0-.16-.08-.07-.05-.09-.08a.9.9,0,0,1-.08-.25l0-.15a.86.86,0,0,1,.1-.16,2,2,0,0,1,.29-.2l.2-.09a.68.68,0,0,1,.19,0,1.62,1.62,0,0,1,.45-.13l.34,0Z"/><path class="cls-5" d="M209.11,181.49h.17a.32.32,0,0,1,.14,0,.69.69,0,0,1,.29.33l0,.31a.38.38,0,0,1-.14.34l-.59.25.28.29a.86.86,0,0,1,.28.64V184s0,.07,0,.09a.18.18,0,0,1,0,.1,1.46,1.46,0,0,1-.79,1l-.43.23-.29.1-.37,0h-.36l-.38,0-.71-.17-.12-.08-.47.39-.22.2-.28.22-.61.44-.26.16-.46.3-.43.25-.88.49-.17.08-.21.1-.35.19-.35.06a.83.83,0,0,1-.75-.43l0-.11-.05-.23a.42.42,0,0,1,.12-.33l.16-.13.13-.07h.75a1.34,1.34,0,0,0,.58-.14l1-.52.34-.22.56-.37.37-.26.23-.25.2-.15.21-.23-.14-.27,0-.18,0-.18a.71.71,0,0,1,.4-.45l.3-.06h.21l.27.13a.52.52,0,0,1,.27.28l0,.24.09.07.25.17.26.11h.34l.22,0,.19-.07a1.09,1.09,0,0,0,.47-.3l.12-.19.06-.16a.53.53,0,0,0-.08-.32l-.14-.16-.21-.12-.18-.13-.38-.18-.35-.25-.06-.13-.05-.18a.22.22,0,0,1,.11-.21l.34-.16h.6l.22-.1.21-.15.2-.11.2-.09Z"/><path class="cls-5" d="M218.05,176.17a.56.56,0,0,1,.33-.12c.33,0,.49.21.49.65l0,.15a.29.29,0,0,1-.09.11,19,19,0,0,1-1.88,1.28,16.12,16.12,0,0,1-1.9,1l-.25.09-.2.05c-.16,0-.28-.1-.38-.3l0-.17,0-.23c0-.16.1-.28.31-.34a12.3,12.3,0,0,0,1.5-.8l.49-.28.72-.45C217.5,176.56,217.8,176.36,218.05,176.17Z"/><path class="cls-5" d="M216.26,181.72h.11l.12,0,.29.24a.36.36,0,0,1,.16.31,4.23,4.23,0,0,1-.64.69l2.28-.07a.15.15,0,0,0,0,.07l0,.07a.38.38,0,0,1,.14.21c0,.19-.25.44-.75.76l-1.15.67-.84.5-1.35.86-1.8.94-1,.46-.34.13-.35.08-.44.11a1.13,1.13,0,0,1-.37-.05l-.2-.11a.68.68,0,0,1-.2-.57c0-.18.12-.31.38-.39l.38,0a3.38,3.38,0,0,0,.72-.07,3.31,3.31,0,0,0,.72-.26l.17-.06.26-.13.69-.3,3.41-1.95-3.06,0a.5.5,0,0,1-.1-.18,1.44,1.44,0,0,1,0-.34l.07-.18.22-.05.25-.1a2.05,2.05,0,0,0,.39-.2l.7-.32.49-.26a.43.43,0,0,0,.22-.22c0-.11.09-.17.13-.19l.12,0Z"/><path class="cls-5" d="M226.72,189.38a.38.38,0,0,1,.4.26l0,.2,0,.15a.18.18,0,0,1-.06.14l-.16.2-.13.06-.24.11-.26.13-.46.43-.42.31-.74.47-.65.4-.38.21a2.05,2.05,0,0,1-.44.21l-.72.28-.27.07a.53.53,0,0,1-.39-.17.67.67,0,0,1-.15-.41l0-.19a.27.27,0,0,1,.09-.15l.09-.07.35-.18.75-.34.63-.3.43-.2.39-.22.75-.48.43-.29.38-.3.42-.24A.53.53,0,0,1,226.72,189.38Z"/><path class="cls-5" d="M224.82,181.85h.23a.46.46,0,0,1,.2,0h.36a.92.92,0,0,1,.4.08l.42.1c.51.11.77.34.77.67a1,1,0,0,1-.15.48c-.06.08-.12.17-.19.25a1.63,1.63,0,0,1-.26.27l-.39.36-.46.37-.39.29-.6.4a14.69,14.69,0,0,1-1.78,1l-.74.36-.35.13-.44.14-.33,0-.23,0-.13-.07-.2-.14-.12-.25,0-.1c0-.32.1-.49.31-.52l.33,0,.29,0,.33-.05.21-.06.23-.06a1.28,1.28,0,0,0,.29-.12l.37-.19.61-.31a2.38,2.38,0,0,0,.29-.13l.49-.26.53-.29L225,184l.19-.14.27-.23a2.19,2.19,0,0,0,.34-.34l.08-.1,0,0a.16.16,0,0,0,0-.09l-.16-.07-.14,0-.34,0-.27,0-.16,0-.56.09-.08,0-.16.08-.18.06-.12.05h-.41l-.25,0a.56.56,0,0,1-.35-.45.64.64,0,0,1,.08-.36.92.92,0,0,1,.35-.24l.29-.1.3-.1Z"/></g><g class="cls-4"><path class="cls-5" d="M251.32,199.25h.23l.18,0,.52.08.54.16.37.16a.86.86,0,0,1,.5.71l0,.26-.14.23-.15.21-.37.31-1.31.87-1.21.63-.5.22-.45.09a.52.52,0,0,1-.35-.14l-.1-.17,0-.22,0-.21a.39.39,0,0,1,.17-.2l.42-.21.79-.34,1-.53.42-.22.31-.22.07-.14c0-.19-.27-.29-.79-.29l-.53,0-.64.22c-.45,0-.67-.19-.67-.55a.4.4,0,0,1,.11-.32.84.84,0,0,1,.35-.22l.62-.21Zm4.49,0a3.46,3.46,0,0,1,.87.14.66.66,0,0,1,.26.08l.19.09.38.26a.89.89,0,0,1,.27.28.82.82,0,0,1,.09.4l-.06.14-.09.17-.19.23-.2.22-.19.21-.26.22-.71.57-.72.49-.63.36-.28.07-.3,0-.23,0a.38.38,0,0,1-.19-.11l-.1-.19a.3.3,0,0,0,0-.15.35.35,0,0,1,.12-.25l.22-.12.3-.14.44-.21.75-.41.57-.46.3-.26a.62.62,0,0,0,.13-.25.28.28,0,0,0-.2-.29l-.45,0-.28,0-.21.05-.22.1-.18.05-.15,0-.39,0-.16-.08-.07-.05a.73.73,0,0,1-.09-.08.9.9,0,0,1-.08-.25l0-.15a.54.54,0,0,1,.1-.16l.28-.2.21-.1.19,0a1.88,1.88,0,0,1,.45-.12,1.85,1.85,0,0,1,.34,0Z"/><path class="cls-5" d="M256.29,205.37h.16a.31.31,0,0,1,.15,0,.63.63,0,0,1,.28.33l0,.31a.38.38,0,0,1-.14.34l-.59.25.29.29a.89.89,0,0,1,.27.64v.29s0,.07,0,.09a.18.18,0,0,1,0,.1,1.46,1.46,0,0,1-.79,1l-.42.23-.3.1-.37,0h-.36l-.38,0-.71-.17-.13-.08-.46.39-.22.2-.28.22-.61.44-.26.16-.46.3-.43.25-.87.49-.18.08-.21.1-.36.19-.34.06a.83.83,0,0,1-.75-.43l0-.11-.06-.23a.42.42,0,0,1,.13-.33l.16-.13.12-.07h.77a1.36,1.36,0,0,0,.57-.14l1-.52.34-.22.56-.37.37-.26.23-.25.2-.15.21-.23-.14-.27-.05-.18,0-.18a.68.68,0,0,1,.4-.45l.31-.06h.2l.27.13a.52.52,0,0,1,.27.28l0,.24.08.07.25.17.27.11h.34l.22,0,.19-.07a1.07,1.07,0,0,0,.46-.3l.13-.19.06-.16a.53.53,0,0,0-.08-.32l-.14-.16-.2-.12L255,207l-.38-.18-.35-.25-.06-.13-.05-.18a.22.22,0,0,1,.11-.21l.33-.16h.61l.23-.1.2-.15.2-.11.2-.09Z"/><path class="cls-5" d="M265.22,200.05a.61.61,0,0,1,.34-.12c.33,0,.5.21.5.65l0,.15a.27.27,0,0,1-.09.11,19,19,0,0,1-1.88,1.28,16.12,16.12,0,0,1-1.9,1l-.25.09-.19.05c-.17,0-.29-.1-.39-.3l0-.17,0-.24c0-.15.1-.27.31-.33a11.73,11.73,0,0,0,1.49-.8l.5-.28.72-.45Q264.85,200.33,265.22,200.05Z"/><path class="cls-5" d="M261.56,205.72l.32.05a.68.68,0,0,1,.47.27l.12.2a.42.42,0,0,0,.29.14.45.45,0,0,0,.23-.09l.22-.19.16-.13.16-.15a.48.48,0,0,1,.16-.07.9.9,0,0,1,.25,0h.12l.13.06.19.1.1.06.08.1.11.27.09.24.07,0,.11,0a1.19,1.19,0,0,0,.49-.14l.21-.17.22-.22L266,206l.14-.09.29-.15.23-.05h.21a.17.17,0,0,1,.15.1l.13.16,0,.14a.77.77,0,0,1-.18.52l-.25.3a.72.72,0,0,1-.29.21l-.32.17-.39.16-.38.12-.69.13a1.13,1.13,0,0,1-.57-.15l-.21-.18-.24-.23h-.42a1.13,1.13,0,0,0-.34,0,.71.71,0,0,0-.23.12l-.46.43-.71.58-.71.54-.2.14-.27.17-.31.19-1,.57-.78.43-.31.14-.36.12-.32.07-.33,0-.22,0-.25-.09a.62.62,0,0,1-.3-.62.49.49,0,0,1,.29-.45l.23,0h.16l.61,0a2,2,0,0,0,.68-.27l.7-.36.8-.42.73-.49.56-.44.13-.16a.28.28,0,0,0,.05-.16l-.25-.49,0-.24v-.12a.21.21,0,0,1,0-.13l.13-.19A1,1,0,0,1,261.56,205.72Z"/><path class="cls-5" d="M275,200.05a.56.56,0,0,1,.34-.12c.32,0,.49.21.49.65l0,.15a.27.27,0,0,1-.09.11,17.87,17.87,0,0,1-1.88,1.28,16,16,0,0,1-1.89,1l-.25.09-.2.05a.42.42,0,0,1-.38-.3l0-.17,0-.24c0-.15.1-.27.3-.33a10.91,10.91,0,0,0,1.5-.8l.49-.28.72-.45C274.48,200.44,274.77,200.24,275,200.05Z"/><path class="cls-5" d="M272.5,205.73h.23a.46.46,0,0,1,.2,0h.36a.92.92,0,0,1,.4.08l.42.1c.51.11.77.34.77.67a.88.88,0,0,1-.16.48,2,2,0,0,1-.18.25,2.17,2.17,0,0,1-.26.27l-.39.36-.46.37-.39.29-.6.4a15.49,15.49,0,0,1-1.78,1l-.74.36-.36.13-.43.14-.32,0-.24,0-.13-.07-.2-.14-.12-.25,0-.1c0-.32.1-.49.3-.52l.34,0,.29,0,.33-.05.2-.06a1.2,1.2,0,0,0,.24-.06,1.07,1.07,0,0,0,.28-.12l.38-.19.62-.31.28-.13a5.1,5.1,0,0,0,.49-.26l.53-.29.31-.21.19-.14.27-.23a2.19,2.19,0,0,0,.34-.34l.09-.1,0,0a.12.12,0,0,0,0-.09l-.15-.07-.14,0-.34,0-.27,0-.16,0-.56.09-.08,0-.16.08-.18.06-.12,0H271l-.25,0a.56.56,0,0,1-.35-.45.64.64,0,0,1,.08-.36,1.06,1.06,0,0,1,.34-.24l.3-.1.3-.1Z"/></g><g class="cls-4"><path class="cls-5" d="M197.89,205h.23l.18,0,.52.09.53.15.38.17a.87.87,0,0,1,.5.7l0,.26-.13.24-.15.2-.38.31-1.3.87-1.21.63-.5.23-.45.09a.52.52,0,0,1-.35-.15l-.1-.17,0-.21,0-.22s.06-.11.17-.2l.42-.2.79-.35,1-.52.42-.23.31-.22.06-.13q0-.3-.78-.3l-.54.05-.63.21c-.45,0-.67-.18-.67-.55a.46.46,0,0,1,.1-.32,1.42,1.42,0,0,1,.35-.22l.63-.2Zm4.49,0a3.33,3.33,0,0,1,.86.13,1.46,1.46,0,0,1,.27.08l.18.09.39.26a.89.89,0,0,1,.26.29.75.75,0,0,1,.09.39l-.05.14-.09.17-.2.23-.19.22-.19.22-.26.21-.71.57-.72.49-.63.36-.28.08-.3,0-.23,0a.32.32,0,0,1-.19-.1l-.1-.2a.33.33,0,0,0,0-.15.36.36,0,0,1,.13-.25l.22-.12.3-.14.43-.2.75-.42.58-.45.3-.27a.63.63,0,0,0,.12-.25.28.28,0,0,0-.19-.29l-.45,0-.28,0-.21.05-.22.09-.18.05-.15,0-.4,0-.16-.08-.07-.05-.09-.07a1.15,1.15,0,0,1-.07-.25l0-.15a.37.37,0,0,1,.1-.17,1.87,1.87,0,0,1,.28-.2l.2-.09.2,0a1.91,1.91,0,0,1,.45-.13l.34,0Z"/><path class="cls-5" d="M202.85,211.12H203l.15,0a.72.72,0,0,1,.28.33l0,.31a.38.38,0,0,1-.15.35l-.59.25.29.28a.87.87,0,0,1,.28.64v.29a.38.38,0,0,0,0,.1.31.31,0,0,1,0,.1,1.45,1.45,0,0,1-.78,1l-.43.23-.29.1-.37,0H201l-.38,0-.71-.17-.13-.08-.46.39-.23.2-.27.22-.61.44-.26.17-.47.29-.42.26-.88.48-.18.08-.2.1-.36.19-.35.06a.84.84,0,0,1-.75-.43l0-.11-.06-.23a.39.39,0,0,1,.13-.33l.16-.13.12-.07h.76a1.33,1.33,0,0,0,.57-.14l1-.52.34-.21.56-.38.37-.26.23-.25.19-.15.22-.23-.14-.27,0-.18,0-.18a.68.68,0,0,1,.4-.45l.3-.06h.21l.27.12a.46.46,0,0,1,.26.29l0,.24.08.07.25.16.27.11h.34l.22,0,.19-.07a1.29,1.29,0,0,0,.46-.3l.13-.19.06-.17a.63.63,0,0,0-.08-.32L202,213l-.21-.12-.19-.13-.37-.18-.35-.25-.06-.13-.05-.18a.21.21,0,0,1,.11-.21l.33-.15h.28l.33,0,.22-.1.21-.14.19-.12.21-.09Z"/><path class="cls-5" d="M207.12,205h.23l.18,0,.52.09.53.15.38.17a.85.85,0,0,1,.5.7l0,.26-.13.24-.15.2-.38.31-1.3.87-1.2.63-.5.23-.46.09a.52.52,0,0,1-.35-.15l-.1-.17,0-.21,0-.22a.49.49,0,0,1,.17-.2l.42-.2.8-.35,1-.52.42-.23.31-.22.06-.13q0-.3-.78-.3l-.54.05-.63.21c-.45,0-.67-.18-.67-.55a.46.46,0,0,1,.1-.32,1.33,1.33,0,0,1,.36-.22l.62-.2Zm4.49,0a3.34,3.34,0,0,1,.87.13,1.34,1.34,0,0,1,.26.08l.18.09.39.26a.82.82,0,0,1,.27.29.86.86,0,0,1,.09.39l-.06.14-.09.17-.19.23-.2.22-.19.22-.26.21L212,208l-.71.49-.64.36-.27.08-.31,0-.23,0a.38.38,0,0,1-.19-.1l-.1-.2a.61.61,0,0,0,0-.15.35.35,0,0,1,.12-.25l.23-.12.29-.14.44-.2.75-.42.57-.45.3-.27a.78.78,0,0,0,.13-.25.28.28,0,0,0-.2-.29l-.45,0-.28,0-.21.05-.22.09-.18.05-.15,0-.39,0-.17-.08-.06-.05-.1-.07a2.33,2.33,0,0,1-.07-.25l0-.15a.69.69,0,0,1,.1-.17,1.58,1.58,0,0,1,.29-.2l.2-.09.19,0a2.06,2.06,0,0,1,.45-.13l.34,0Z"/><path class="cls-5" d="M211,211.39h.43l.25.06c.15,0,.22.1.22.29l0,.24a.4.4,0,0,1-.12.29.87.87,0,0,1-.39.19l-.52.05-.16,0-.28.07-.48.14c-.16,0-.25.1-.27.2l.14.21,0,.09.06.12.09.2a1.24,1.24,0,0,1,0,.39v.16l0,.28a.77.77,0,0,1-.07.26l-.14.26-.08.11-.09.11-.12.12-.16.1-.5.23-.29.07h-2.38a1.15,1.15,0,0,1-.3,0,.68.68,0,0,1-.23-.11l-.1,0-.2-.14a.89.89,0,0,1-.23-.59.5.5,0,0,1,.08-.26l.18-.19.17-.14a1.48,1.48,0,0,1,.48-.15.38.38,0,0,1,.27.15l.14.18.24.17.26,0,.56,0h.58a.83.83,0,0,0,.76-.3v-.14l0-.13a.67.67,0,0,0-.12-.29l-.16-.17-.16-.21-.23-.3-.06-.35a.53.53,0,0,1,.09-.3l.22-.14.3-.16.29-.2c.16-.07.3-.14.44-.19l.52-.17A3.54,3.54,0,0,1,211,211.39Z"/><path class="cls-5" d="M220,205.79a.56.56,0,0,1,.34-.12c.32,0,.49.22.49.65l0,.15a.22.22,0,0,1-.09.11,16.46,16.46,0,0,1-1.88,1.28,15.39,15.39,0,0,1-1.9,1l-.25.09-.19.06c-.16,0-.29-.1-.38-.31l0-.17,0-.23c0-.16.1-.27.3-.34a11.62,11.62,0,0,0,1.5-.79l.49-.29.72-.45C219.45,206.18,219.74,206,220,205.79Z"/><path class="cls-5" d="M217.47,211.47h.23a.46.46,0,0,1,.2,0h.18l.18,0a.93.93,0,0,1,.4.07l.42.1c.51.12.77.34.77.68a.88.88,0,0,1-.16.47,2,2,0,0,1-.18.26l-.26.27-.39.35-.46.38-.39.28-.6.4a16.38,16.38,0,0,1-1.78,1l-.74.36-.36.13-.43.14-.33.05-.23-.05-.13-.07-.2-.14-.13-.25,0-.1c0-.31.1-.48.3-.52l.33,0h.3l.33-.05.2-.06.24-.05L215,215l.38-.19.61-.31a1.75,1.75,0,0,0,.29-.13l.49-.26.53-.29.31-.21.19-.14.27-.22a2.63,2.63,0,0,0,.33-.34l.09-.11,0,0a.09.09,0,0,0,0-.08l-.15-.08-.14,0-.34,0-.27,0-.16,0-.56.09-.08,0-.16.08-.18.06-.12.06h-.21l-.21,0-.25,0a.54.54,0,0,1-.35-.44.65.65,0,0,1,.09-.37,1,1,0,0,1,.34-.24l.3-.1.3-.1Z"/></g><g class="cls-4"><path class="cls-5" d="M144.34,216.19l.18-.14.19,0,.29,0a.3.3,0,0,1,.18.17l0,.22a.57.57,0,0,1,0,.26l-.25.21-.33.36-.22.16-.17.13-1.31.82-1.36.77-.66.34-.64.27-.67.26a2,2,0,0,1-.65.11,1.06,1.06,0,0,1-.57-.18l-.2-.16a.33.33,0,0,1-.05-.12.31.31,0,0,1,0-.13v-.17c0-.06,0-.1,0-.12a.5.5,0,0,1,.27-.3l.26-.1.24-.05.41,0h.15a2.38,2.38,0,0,0,1-.25l.73-.35,1.61-.94,1.15-.75Z"/></g><g class="cls-4"><path class="cls-5" d="M147.06,209.44l.15,0,.14,0a.31.31,0,0,1,.12.19l.09.23,0,.2c0,.28-.13.42-.38.42a5.17,5.17,0,0,0-.71.14l-.28.11-.23.1-.22.12a1.06,1.06,0,0,0-.18.13l-.21.23-.21.25a.42.42,0,0,0,.19.27l.28.12.3,0h.74l.29,0,.16.05c.12.06.17.2.17.39a.37.37,0,0,1-.28.39l-.39.09-.52,0h-.43l-.19,0-.55-.12a1,1,0,0,1-.71-.39,1.87,1.87,0,0,1-.26-.89l-.1.14a.27.27,0,0,1-.18.14l-.14.14-.44.31-.66.43L142,213l-.4.25-.41.18-.37.14-.27.07-.14,0h-.09c-.25,0-.37-.15-.37-.44l0-.29a.44.44,0,0,1,.22-.18l.28-.08.37-.13a4.44,4.44,0,0,0,1.47-.8l.3-.25.3-.29-1.13,0-.31,0-.16,0-.17-.08c-.19-.06-.28-.21-.28-.47a.44.44,0,0,1,.4-.48l.44,0h1.09a1.49,1.49,0,0,1,.82.19.62.62,0,0,1,.18.25l.14.27.16.37.2-.19.11-.09.09-.05.15-.09.31-.28.46-.32.85-.55A1.61,1.61,0,0,1,147.06,209.44Z"/></g><g class="cls-4"><path class="cls-5" d="M136.57,216.08a1,1,0,0,1,.65.18.4.4,0,0,1,.14.27v.11l0,.09-.14.13-.13.07-.18.11a.46.46,0,0,0-.11.28.52.52,0,0,0,.2.45l.24.16.1,0,.16,0,.25,0a.62.62,0,0,0,.22-.15l.19-.16.22-.15.37-.07.16,0a.77.77,0,0,1,.24.22l0,.12,0,.16a1,1,0,0,1-.16.29l-.24.18-.29.19-.35.25-1,.67-1.18.69-.64.36-.55.27-.5.24-.63.27-.46.13c-.49,0-.74-.2-.74-.61a.87.87,0,0,1,.14-.41.52.52,0,0,1,.13-.18.3.3,0,0,1,.15,0l.19,0,.25.06.27,0a4.55,4.55,0,0,0,.65-.28l1.2-.61.59-.33.75-.5a.16.16,0,0,0-.07-.15l-.17,0-.3-.09a.91.91,0,0,1-.42-.28l-.09-.13-.07-.2,0-.34v-.14a.28.28,0,0,1,0-.13l.16-.37a1.17,1.17,0,0,1,.35-.47.44.44,0,0,1,.12-.1l.15-.08Z"/></g><g class="cls-4"><path class="cls-5" d="M138.58,209.54h.53a.4.4,0,0,1,.17,0,1.76,1.76,0,0,1,1,.23.74.74,0,0,1,.35.64,1.82,1.82,0,0,1-.63,1.08l-.38.42-.49.41a5,5,0,0,1-.48.35,4,4,0,0,1-.59.29l-.87.37-.44.21-.3,0s-.14-.06-.24-.2l-.07-.13-.08-.16a.5.5,0,0,1,.11-.32.87.87,0,0,1,.36-.25l.37-.11.44-.14a2.87,2.87,0,0,0,.46-.19,2.2,2.2,0,0,0,1.44-1.34l-.08-.06-.1-.05-.32,0-.25,0-.25,0H138l-.15,0-.2.1-.16.09-.16.07h-.23a.37.37,0,0,1-.23-.1l-.16-.22,0-.19a.42.42,0,0,1,.2-.39,4.38,4.38,0,0,1,.83-.34A4.22,4.22,0,0,1,138.58,209.54Z"/></g><g class="cls-4"><path class="cls-5" d="M133.34,215.72h.17a.32.32,0,0,1,.14,0,.63.63,0,0,1,.28.33l0,.31a.38.38,0,0,1-.14.34l-.59.25.28.29a.87.87,0,0,1,.28.64v.29s0,.07,0,.09a.18.18,0,0,1,0,.1,1.46,1.46,0,0,1-.79,1l-.43.23-.29.1-.37,0-.36,0-.38-.05-.71-.17-.13-.08-.46.39-.22.2-.28.22-.61.44-.26.16-.46.3-.43.25-.88.49-.17.08-.21.1-.36.19-.34.06a.83.83,0,0,1-.75-.43l0-.11,0-.23a.42.42,0,0,1,.12-.33l.16-.13.13-.07h.75a1.34,1.34,0,0,0,.58-.14l1-.52.34-.22.56-.37.37-.26.23-.25.2-.15.21-.23-.14-.27-.05-.18,0-.18a.68.68,0,0,1,.4-.45l.31-.06h.2l.27.13a.52.52,0,0,1,.27.28l0,.24.08.07.25.17.27.11h.34l.22,0,.19-.07a1.15,1.15,0,0,0,.47-.3l.12-.19.06-.16a.53.53,0,0,0-.08-.32l-.14-.16-.21-.12-.18-.13-.38-.18-.35-.25-.06-.13,0-.18a.22.22,0,0,1,.11-.21l.33-.16h.61l.22-.1.21-.15.2-.11.2-.09Z"/></g><g class="cls-4"><path class="cls-5" d="M128.88,209.6h.23l.18,0,.51.08.54.16.37.16a.86.86,0,0,1,.5.71l0,.26-.14.23-.15.21-.37.31-1.31.87-1.2.63-.5.22-.46.09a.48.48,0,0,1-.34-.14l-.1-.17,0-.22,0-.21c0-.05.07-.11.17-.2l.42-.21.8-.34,1-.53.42-.22.32-.22.06-.14c0-.19-.26-.29-.79-.29l-.53,0-.64.22c-.44,0-.67-.19-.67-.55a.44.44,0,0,1,.11-.32.92.92,0,0,1,.35-.22l.62-.21Zm4.49,0a3.39,3.39,0,0,1,.86.14.66.66,0,0,1,.26.08l.19.09.38.26a.89.89,0,0,1,.27.28.82.82,0,0,1,.09.4l0,.14-.09.17-.2.23-.2.22-.18.22-.26.21-.72.57-.71.49-.63.36-.28.07-.31,0-.23,0s-.1,0-.18-.11l-.1-.19a.28.28,0,0,0,0-.15.33.33,0,0,1,.13-.25l.22-.12.29-.14.44-.21.75-.41.57-.46.31-.26a.63.63,0,0,0,.12-.25.28.28,0,0,0-.2-.29l-.44,0-.29,0-.2,0-.23.1-.18.05-.15,0-.39,0-.16-.08-.07,0-.09-.08a1,1,0,0,1-.07-.25l0-.15a.51.51,0,0,1,.09-.16,2,2,0,0,1,.29-.2l.2-.09a.8.8,0,0,1,.19-.05,1.68,1.68,0,0,1,.46-.13l.33,0Z"/></g><g class="cls-4"><path class="cls-5" d="M67.8,219.29H68l.18,0,.52.09.53.15.38.17a.87.87,0,0,1,.5.7l0,.26-.13.24-.16.2-.37.31-1.3.87-1.21.63-.5.23-.45.09a.52.52,0,0,1-.35-.15l-.1-.17,0-.21,0-.22s.06-.11.17-.2l.42-.2.79-.35,1-.52.42-.23.31-.22.06-.13q0-.3-.78-.3l-.54,0-.63.21c-.45,0-.67-.18-.67-.55a.46.46,0,0,1,.1-.32,1.42,1.42,0,0,1,.35-.22l.63-.2Zm4.49.05a3.33,3.33,0,0,1,.86.13,1.15,1.15,0,0,1,.26.08l.19.09.38.26a.82.82,0,0,1,.27.29.75.75,0,0,1,.09.39l0,.14-.09.17-.2.23-.19.22-.19.22-.26.21-.71.57-.72.49-.63.36-.28.08-.3,0-.24,0a.33.33,0,0,1-.18-.1l-.1-.2a.33.33,0,0,0,0-.15.33.33,0,0,1,.13-.25l.22-.12.29-.14.44-.2.75-.42.57-.45.31-.27a.63.63,0,0,0,.12-.25.28.28,0,0,0-.19-.29l-.45,0-.29,0-.2.05-.22.09-.18,0-.15,0-.4,0-.16-.08-.07,0-.09-.07a1.15,1.15,0,0,1-.07-.25l0-.15a.34.34,0,0,1,.1-.16,1.36,1.36,0,0,1,.28-.21l.2-.09.19-.05a2.92,2.92,0,0,1,.46-.13l.34,0Z"/><path class="cls-5" d="M72.76,225.42h.17l.14,0a.68.68,0,0,1,.29.33l0,.31a.38.38,0,0,1-.15.35l-.59.25.29.28a.92.92,0,0,1,.28.65v.28a.38.38,0,0,0,0,.1.31.31,0,0,1,0,.1,1.45,1.45,0,0,1-.78,1l-.43.24-.29.09-.37,0h-.37l-.37-.05-.72-.17-.12-.08-.47.39-.22.2-.28.22-.6.44-.26.17-.47.29-.42.26-.88.48-.18.08-.2.1-.36.19-.35.06a.81.81,0,0,1-.75-.43l0-.1,0-.24a.39.39,0,0,1,.13-.33l.16-.12.12-.08h.76a1.33,1.33,0,0,0,.57-.14l1-.52.33-.21.57-.38.36-.26.24-.25.19-.15.22-.23-.15-.27,0-.18,0-.18a.68.68,0,0,1,.4-.45l.3-.06h.21l.26.12a.45.45,0,0,1,.27.29l0,.24.08.07.25.16.27.11h.34l.22,0,.19-.07a1.29,1.29,0,0,0,.46-.3l.13-.19.06-.17a.63.63,0,0,0-.08-.32l-.14-.16-.21-.12L71.5,227l-.37-.17-.35-.25-.06-.14-.06-.18a.21.21,0,0,1,.12-.21l.33-.15h.28l.33,0,.22-.1.21-.14.19-.12.21-.09Z"/><path class="cls-5" d="M82.24,220.82c0,.85-.55,1.56-1.66,2.14a2.34,2.34,0,0,1-1.12.34c-1.07,0-1.6-.46-1.6-1.36a2.24,2.24,0,0,1,.92-1.77,3,3,0,0,1,2-.76,1.49,1.49,0,0,1,.59.1,1.13,1.13,0,0,1,.49.27A1.33,1.33,0,0,1,82.24,220.82Zm-1,.16c0-.37-.27-.56-.8-.56a1.43,1.43,0,0,0-1,.47,1.4,1.4,0,0,0-.48,1q0,.36.48.36h.24a1.75,1.75,0,0,0,1-.44C81,221.53,81.24,221.26,81.24,221Z"/><path class="cls-5" d="M80.75,226H81l.17,0a.56.56,0,0,1,.17.09.85.85,0,0,1,.43.57l.07.32,0,.22a.59.59,0,0,1,0,.17l-.05.25-.13.47-.16.43-.14.33-.19.37a1.82,1.82,0,0,1-.55.67l-.24.05-.13,0a.51.51,0,0,1-.14,0l-.15-.05-.2-.15-.05-.23a.87.87,0,0,1,0-.18l.1-.16.22-.28.21-.33.37-.67.12-.37s0,0,0-.1a.17.17,0,0,0,0-.11l-.1,0a.72.72,0,0,0-.4.14l-.33.3-.73.61-1.42,1.1-.52.37-.58.35-.44.25-.38.13-.28,0-.27,0-.16-.06a.39.39,0,0,1-.18-.39v-.19a.51.51,0,0,1,0-.16l.09-.19c0-.05.11-.12.28-.2l.38,0H76l.22-.06.46-.23.71-.47.34-.25.35-.29.45-.39.45-.39.44-.41.45-.39A1.23,1.23,0,0,1,80.75,226Z"/><path class="cls-5" d="M90.69,219.13l.14,0,.15,0a.35.35,0,0,1,.12.19l.09.24,0,.19c0,.28-.13.43-.39.43a4.7,4.7,0,0,0-.7.13l-.29.11-.22.11-.22.11a.7.7,0,0,0-.18.14l-.22.22-.2.25a.39.39,0,0,0,.19.27l.28.12.3,0h.74l.28,0,.17.05a.43.43,0,0,1,.17.39.37.37,0,0,1-.28.39l-.4.1-.51.05h-.43l-.19,0-.55-.12a1,1,0,0,1-.71-.39,1.87,1.87,0,0,1-.26-.89l-.11.14a.23.23,0,0,1-.17.14l-.15.15-.43.3-.67.43-.46.27-.4.24-.41.18-.37.14-.28.07-.13,0h-.09c-.25,0-.37-.15-.37-.44l0-.28a.31.31,0,0,1,.22-.18l.28-.09.37-.13a4.44,4.44,0,0,0,1.47-.8l.3-.25.3-.28-1.13,0-.31,0-.17,0-.16-.08c-.19-.06-.28-.22-.28-.47a.45.45,0,0,1,.4-.49l.44,0,.28,0h.81a1.58,1.58,0,0,1,.82.18.62.62,0,0,1,.18.25l.14.27.16.38.2-.19.11-.1.09,0,.15-.1.31-.27.46-.32.85-.55A1.5,1.5,0,0,1,90.69,219.13Z"/><path class="cls-5" d="M88.61,224.94l.2-.05.2,0a.47.47,0,0,1,.26.17,1,1,0,0,1,0,.16v.14a.81.81,0,0,1-.46.55l-.26.13.12.07.3.18a1.05,1.05,0,0,1,.24.21.41.41,0,0,1,.07.25.81.81,0,0,1-.35.55l-1,.48.29.17.29.19a1.42,1.42,0,0,1,.07.32v.1a.29.29,0,0,1-.06.15l-.28.27-.59.46-.64.46-.51.37-1.36.92-.49.31a4.26,4.26,0,0,1-.43.22l-.15.06-.21.11-.56.24a2,2,0,0,1-.69.19.71.71,0,0,1-.26-.05l-.16-.08-.11-.1a.42.42,0,0,1-.11-.18,1.37,1.37,0,0,1-.06-.27c0-.27.2-.45.61-.55l.27,0A.85.85,0,0,0,83,231l.25-.06.22-.08.27-.09.35-.16.35-.2,1.29-.81.62-.42.88-.63-.49-.32a.54.54,0,0,1-.21-.42.32.32,0,0,1,.06-.18,1.62,1.62,0,0,1,.24-.26l.4-.2.6-.3-.26-.16-.34-.2-.18-.11-.08-.09-.09-.16,0-.07,0-.1.07-.07.22-.18.06,0,.1-.05.33-.11.26-.11a1.26,1.26,0,0,0,.25-.13l.24-.16Z"/></g><g class="cls-4"><path class="cls-5" d="M104.85,277.37h.23l.18,0,.51.08.54.16.37.17a.82.82,0,0,1,.5.7l0,.26L107,279l-.16.2-.37.31-1.31.87L104,281l-.5.22-.46.09a.48.48,0,0,1-.34-.14l-.1-.17,0-.21,0-.22c0-.05.06-.11.16-.2l.42-.21.8-.34,1-.52.42-.23.32-.22.06-.14c0-.19-.26-.29-.79-.29l-.53,0-.64.22c-.44,0-.67-.18-.67-.55a.46.46,0,0,1,.11-.32,1.06,1.06,0,0,1,.35-.22l.62-.2Zm4.49.05a3.33,3.33,0,0,1,.86.13.88.88,0,0,1,.26.08l.19.09.38.26a.82.82,0,0,1,.27.29.75.75,0,0,1,.09.39l0,.14-.09.17-.2.23-.2.22-.18.22-.26.21-.72.57-.71.49-.63.36-.28.07-.3,0-.24,0a.3.3,0,0,1-.18-.11l-.1-.19a.28.28,0,0,0,0-.15.33.33,0,0,1,.13-.25l.22-.12.29-.14.44-.21.75-.41.57-.45.31-.27a.63.63,0,0,0,.12-.25.28.28,0,0,0-.2-.29l-.44,0-.29,0-.2.05-.23.09-.17,0-.16,0-.39,0-.16-.08-.07-.05-.09-.08a.87.87,0,0,1-.07-.25l0-.15a.51.51,0,0,1,.09-.16,2.84,2.84,0,0,1,.29-.2l.2-.09.19-.05a2.13,2.13,0,0,1,.46-.13l.33,0Z"/><path class="cls-5" d="M109.81,283.49H110a.26.26,0,0,1,.14,0,.74.74,0,0,1,.29.33l0,.31a.36.36,0,0,1-.14.34l-.59.25.29.29a.91.91,0,0,1,.28.64V286s0,.07,0,.1a.16.16,0,0,1,0,.1,1.47,1.47,0,0,1-.78,1l-.43.23-.3.1-.36,0H108l-.37-.05-.72-.17-.12-.08-.47.39-.22.2-.28.22-.6.44-.26.16-.47.3-.43.25-.87.49-.18.08-.21.1-.35.19-.35.06a.81.81,0,0,1-.75-.43l0-.11,0-.23a.42.42,0,0,1,.12-.33l.16-.13.13-.07h.76a1.33,1.33,0,0,0,.57-.14l1-.52.34-.22.57-.37.36-.26.23-.25.2-.15.21-.23-.14-.27,0-.18,0-.18a.7.7,0,0,1,.41-.45l.3-.06h.2l.27.13a.49.49,0,0,1,.27.28l0,.24.08.08.25.16.27.11h.33l.23,0,.19-.08a1.13,1.13,0,0,0,.46-.3l.12-.19.07-.16a.61.61,0,0,0-.08-.32l-.15-.16-.2-.12-.19-.13-.37-.18-.35-.25-.06-.13-.06-.18a.21.21,0,0,1,.12-.21l.33-.16h.61l.22-.1.2-.15.2-.11.21-.09Z"/><path class="cls-5" d="M118.7,291.38a.4.4,0,0,1,.4.26l.05.2,0,.15a.18.18,0,0,1-.06.14l-.16.2-.13.06-.24.12-.26.12-.46.44-.42.3-.74.47-.65.4-.38.21a2.94,2.94,0,0,1-.44.22l-.72.27-.27.08a.54.54,0,0,1-.39-.18.67.67,0,0,1-.15-.41l0-.19a.35.35,0,0,1,.08-.15l.1-.07.35-.18.75-.33.63-.31L116,293l.4-.23.75-.48.43-.28.38-.31.42-.24A.53.53,0,0,1,118.7,291.38Z"/><path class="cls-5" d="M117.53,283.72h.11l.13,0,.28.24a.34.34,0,0,1,.16.31,3.39,3.39,0,0,1-.64.69l2.28-.07,0,.07.06.07a.45.45,0,0,1,.14.21c0,.19-.25.45-.75.76l-1.15.67-.84.5-1.35.87-1.8.94-1.06.45-.34.13-.35.08-.43.11a1,1,0,0,1-.38,0l-.2-.11a.7.7,0,0,1-.2-.57c0-.17.13-.31.38-.39l.39-.05a3.35,3.35,0,0,0,.71-.07,3.31,3.31,0,0,0,.72-.26l.17-.06.26-.13.69-.3,3.41-2-3,0a.56.56,0,0,1-.11-.19,1.52,1.52,0,0,1,0-.34l.07-.18.22-.05a1.12,1.12,0,0,0,.24-.1,2.35,2.35,0,0,0,.39-.19l.7-.33.49-.26a.4.4,0,0,0,.22-.21.59.59,0,0,1,.13-.2l.12,0Z"/><path class="cls-5" d="M127.48,277.39l.29-.12.3,0a.71.71,0,0,1,.46.11.39.39,0,0,1,.17.32.41.41,0,0,1-.16.36l-.11.08-.21.09-.39.18-1.14.51c-.59.28-.89.64-.89,1.06a.47.47,0,0,0,.19.36l.12.05.18.06.4,0,.34,0,.15,0a.35.35,0,0,0,.14-.06l.18-.09.19-.06a.52.52,0,0,1,.3.06l.18.22a.76.76,0,0,1,.05.29c-.05.3-.33.51-.85.66l-.32.08-.3,0-.47,0-.51-.14-.25-.09-.24-.15a1.26,1.26,0,0,1-.4-1.88l.24-.3.35-.33.28-.21.35-.23.62-.38Z"/><path class="cls-5" d="M128,285.4c0,.45-.44,1-1.34,1.59l-1.64,1.1-.7.43a6.32,6.32,0,0,1-2.47,1.08c-.57,0-.86-.22-.86-.67a.6.6,0,0,1,.31-.52.72.72,0,0,1,.43-.08h.09l.12.05.14.07.08,0h.23l.17,0,.27-.09.75-.39.29-.16.52-.32.28-.2c-.61-.27-.92-.62-.92-1a1.74,1.74,0,0,1,.66-1.36l.31-.21.32-.23a3,3,0,0,1,1.37-.36,1.91,1.91,0,0,1,1.26.48A1,1,0,0,1,128,285.4Zm-1.12-.13c-.09-.14-.31-.21-.68-.21a1.82,1.82,0,0,0-1,.48l-.14.16-.14.23-.06.19c0,.12.08.23.25.34a.51.51,0,0,0,.19.06l.16,0,.28-.07.48-.24c.49-.33.73-.58.73-.78A.21.21,0,0,0,126.83,285.27Z"/></g><g class="cls-4"><path class="cls-5" d="M128.21,137.73h6.72c5,0,7.15,3.63,7.15,8.11s-2.15,8.1-7.15,8.1h-6.72Zm2.83,13.9h2.8c4.45,0,5.41-2.55,5.41-5.79s-1-5.8-5.41-5.8H131Z"/><path class="cls-5" d="M144.08,140.68c2.18,0,4.25-.73,4.64-2.64h2.11v15.9H148V142.72h-3.91Z"/></g><g class="cls-4"><path class="cls-5" d="M303.17,203.23h6.73c5,0,7.15,3.64,7.15,8.11s-2.16,8.11-7.15,8.11h-6.73Zm2.84,13.9h2.8c4.45,0,5.4-2.54,5.4-5.79s-.95-5.79-5.4-5.79H306Z"/><path class="cls-5" d="M329.59,219.45H318.73a7.12,7.12,0,0,1,3.5-6c2.06-1.5,4.75-2.75,4.79-5.23a2.51,2.51,0,0,0-2.68-2.81c-2,0-2.66,1.75-2.72,4H319c0-3.52,1.92-6.13,5.47-6.13a4.73,4.73,0,0,1,5.11,4.89c0,2.52-1.73,4.08-3.54,5.35s-3.77,2.25-4.23,3.66h7.75Z"/></g><g class="cls-4"><path class="cls-5" d="M141.81,231.46h6.72c5,0,7.16,3.64,7.16,8.11s-2.16,8.11-7.16,8.11h-6.72Zm2.84,13.9h2.79c4.46,0,5.41-2.54,5.41-5.79s-.95-5.79-5.41-5.79h-2.79Z"/><path class="cls-5" d="M161.66,238.37c1.73.07,3.52-.55,3.52-2.5a2.27,2.27,0,0,0-2.47-2.25c-1.8,0-2.69,1.61-2.64,3.25h-2.59c.14-3.09,2.07-5.41,5.27-5.41,2.48,0,5,1.44,5,4.25a3.37,3.37,0,0,1-2.25,3.41v0a3.76,3.76,0,0,1,2.89,4c0,3-2.59,4.86-5.64,4.86-3.68,0-5.52-2.23-5.58-5.54h2.58c-.06,1.93,1,3.38,3,3.38a2.78,2.78,0,0,0,3-2.84c0-2.47-2.11-2.79-4.16-2.7Z"/></g><g class="cls-4"><path class="cls-5" d="M122.43,299.38h6.72c5,0,7.16,3.64,7.16,8.11s-2.16,8.11-7.16,8.11h-6.72Zm2.84,13.9h2.79c4.45,0,5.41-2.54,5.41-5.79s-1-5.79-5.41-5.79h-2.79Z"/><path class="cls-5" d="M149,311.83h-2v3.77h-2.45v-3.77h-6.82v-2.57l6.82-9.56h2.45v10.08h2Zm-9.31-2.05h4.82v-7h-.05Z"/></g></g></g></g></g></g></svg>