<svg xmlns="http://www.w3.org/2000/svg" viewBox="0 0 168.83 274.14"><defs><style>.cls-1,.cls-2{fill:#f1f2f2;}.cls-2,.cls-3{fill-rule:evenodd;}.cls-3{fill:#396287;}.cls-4{fill:none;stroke:#1a1a18;stroke-miterlimit:22.93;stroke-width:0.46px;stroke-dasharray:4.21 2.1;}.cls-5{isolation:isolate;}.cls-6{fill:#383838;}</style></defs><title>R</title><g id="Layer_2" data-name="Layer 2"><g id="Layer_1-2" data-name="Layer 1"><g id="E1"><path class="cls-1" d="M112.09,65.66l-45.4,2L69,64.7c0-7,2.92-11.51,8.9-13.07,1.87-4,3.85-7.8,5.74-11.8-1.39-3.68-.32-7.8,4.88-7.68a18.29,18.29,0,0,0,3.13-.54c10.69-4.7,12.37,1.51,14.73,11.31C108.16,50.54,110.15,58.11,112.09,65.66Z"/><path class="cls-2" d="M88.93.79C88.36.56,88-.2,87.08.05c-.51.19-.38.34-.38.91a3.18,3.18,0,0,0,0,1.15h0a9.89,9.89,0,0,0,1.66,2.15c.9,1.16,1.64,2.46,2.46,3.68,1.12,1.68,4.33,4.4,6.73,3.72,3.28-.92,1.2-4.5-.78-5.66s-4-.54-5.42-2C90.51,3.19,89.24,1.9,89,.79Z"/><path class="cls-3" d="M91.07,4A22.08,22.08,0,0,0,98,6.09a3.21,3.21,0,0,1,.5,4.52,2.89,2.89,0,0,1-.29.32,6.71,6.71,0,0,1-5.13,0,10.93,10.93,0,0,1-4-5.37h0a4.82,4.82,0,0,1-1.18-3c.4-1.07.73-1.26,1.47-.9A8.18,8.18,0,0,0,91.09,4"/><path class="cls-3" d="M84.62,39.49c1.07-.5,1.95-.71,2.41,1.1-.37,4.67-.33,9.32-.39,14-1.75,3.38-3.58,3.8-5.75,3.07-2.31-1.5-3.13-2.34-2.94-3.41a23.68,23.68,0,0,1,6.67-14.72"/><path class="cls-3" d="M103.61,44.61c1.12-1.69,2-1.71,2.78-.19,1.37,3.78,2.84,5,4.21,17.86-.57,2.1-1.37,2.77-2.7.75l-4.2-5.19a14.47,14.47,0,0,1-.17-13.23"/><path class="cls-3" d="M73,67.37l-5.4.23q.82-.94,1.74-1.89c1.81-1.16,3.2-1.27,3.6.92C73,66.88,73,67.11,73,67.37Z"/></g><g id="E2"><path class="cls-1" d="M126.44,133.3l-81.16,3.13a54.4,54.4,0,0,1-.65-6.5c0-7.28-.3-14.56-.45-21.84a16.28,16.28,0,0,1,1.29-8.87c.69-1.31,1.6-2.46,2.42-3.71s1.09-2.35,1.76-3.4c2.72-4.21,5.89-8.27,6.8-13.07.71-3.78,3.51-6.81,6.52-6.69l3.72-4.71,45.4-2c.69,2.74,1.39,5.45,2.1,8.19q3.38,14.55,6.8,29,.75,6.82,1.55,13.64C123.85,122.06,125.13,127.68,126.44,133.3Z"/><path class="cls-3" d="M76.47,88.4c-.44-1.19-.07-1.61,1.14-1.26L83,90.25l-.19-.16c1.18.46,1.3,1,.36,1.74a4.25,4.25,0,0,1-3.33.26,7.51,7.51,0,0,1-3.41-3.69"/><path class="cls-3" d="M115.12,91.81a1.22,1.22,0,0,1,1.67-.43,1.11,1.11,0,0,1,.43.43A25.58,25.58,0,0,1,119.33,99c-.15,1.29-1.16,1.18-2.55.42a3.87,3.87,0,0,1-2.36-3.19,7.23,7.23,0,0,1,.74-4.38"/><path class="cls-3" d="M72,76.69a13.57,13.57,0,0,1-6.64,5.11c-2,.12-3.16-.57-3.5-2.44A23.67,23.67,0,0,1,67.62,67.6l5.4-.23A24.12,24.12,0,0,1,72,76.69Z"/><path class="cls-3" d="M85.25,93.58c1.81-.49,2.77,1,3.07,2.73s-.4,3.14-1.71,3.41-2.1-.65-3.07-2.38A2.45,2.45,0,0,1,84.23,94a2.48,2.48,0,0,1,1-.38"/><path class="cls-3" d="M76.43,106.33c1.18,0,3.12,2.29,3.12,3.76s-1.58,1.18-2.78,1.18a3.17,3.17,0,0,1-2.57-3c0-1.47,1-1.91,2.23-1.91"/><path class="cls-3" d="M60.11,90.68c-1.16-1.37-.7-1.75,1.91-1.52a9.7,9.7,0,0,1,6,4.78c.27,2.1-.53,2.86-2.36,2.25a17.88,17.88,0,0,1-5.51-5.51"/><path class="cls-3" d="M50,95.43c1.58-1.22,2.42-1,3.07.67a39.48,39.48,0,0,0,1.66,7.13,1.85,1.85,0,0,1-1.85,1.85,1.81,1.81,0,0,1-.61-.1,14.88,14.88,0,0,1-6-1.85,3.61,3.61,0,0,1-.44-3.11,19.05,19.05,0,0,1,4.2-4.53"/><path class="cls-3" d="M45.24,108.91c.75-1.17,2-1.34,3.68-.5l5,4.52c1.22.91,1.05,1.58-.52,2.11a9.33,9.33,0,0,1-6.48.75,2.54,2.54,0,0,1-2.36-2.1,13.66,13.66,0,0,1,.7-4.61"/><path class="cls-3" d="M55.61,107.78c0-.32.77-.44,1.43-.25s1,.56.92.88a.91.91,0,0,1-1.18.4c-.65-.17-1.28-.74-1.17-1"/><path class="cls-3" d="M83.65,107.84c.48,0,.88.63.88,1.41s-.4,1.43-.88,1.43-.89-.63-.89-1.43.4-1.41.89-1.41"/><path class="cls-3" d="M95.24,100a1.5,1.5,0,0,1,1.45,1.52h0a.42.42,0,0,1,.48.42c0,.25-.5.73-1.13.76h0a1.44,1.44,0,0,1-.82.27,1.52,1.52,0,0,1,0-3m1.43,1.56h0Z"/><path class="cls-3" d="M53.44,135a22.94,22.94,0,0,1-2.71,1.26l-5.33.21a3,3,0,0,1-.35-1.05c.21-1.66,1.13-3.83-.19-6.12a4.62,4.62,0,0,1-.17-3.83c.8-2.27,2.44-2.36,4.46-1.43a12.39,12.39,0,0,1,5.43,7.53C55.06,133.48,54.49,134.45,53.44,135Z"/><path class="cls-3" d="M121.6,115.75c.9,0,1.64,1.54,1.64,3.39s-.74,3.38-1.64,3.38-1.69-1.47-1.69-3.32.8-3.45,1.69-3.45"/><path class="cls-3" d="M122,124.94a.8.8,0,0,1,0,1.6h0a.8.8,0,0,1,0-1.6h0"/><path class="cls-3" d="M121,110.39a1.14,1.14,0,1,1-1.14,1.13,1.14,1.14,0,0,1,1.14-1.13h0"/><path class="cls-3" d="M119.91,113.52a1.17,1.17,0,0,1,1.1,1.22,1.15,1.15,0,0,1-1.22,1.09,1.17,1.17,0,0,1-1.1-1.15,1.21,1.21,0,0,1,1.22-1.16"/><path class="cls-3" d="M118.36,101.28a1.15,1.15,0,0,1,1.2.88c0,.55-.57.82-1.2.7s-1-.36-1-.8a.87.87,0,0,1,1-.78h0"/><path class="cls-3" d="M111.5,71.43c.32,0,.72.4.88,1.07s0,1.26-.27,1.35-.74-.42-.9-1.08,0-1.26.29-1.34"/><path class="cls-3" d="M111.5,76.73a1.27,1.27,0,0,1,1.2.25.46.46,0,0,1,.34-.21c.37,0,.69.74.69,1.64h0c.48,1,1,2.34.42,2.61s-2.42-.74-2.92-1.81-.38-2.1.27-2.44m1.16.3a1.34,1.34,0,0,0-.19.44,1.25,1.25,0,0,1,.17-.49Zm-.19.44h0a1.82,1.82,0,0,0,0,.33,1.82,1.82,0,0,1,0-.33h0m0,.56h0a.48.48,0,0,0,0,.17.48.48,0,0,1,0-.17"/><path class="cls-3" d="M113.73,82.39c1.18-.4,1.37.54,1.56,1.66s1,2.44.38,2.71-2.32-.63-2.82-1.68a1.82,1.82,0,0,1,.51-2.51,2.53,2.53,0,0,1,.37-.18"/><path class="cls-3" d="M96.16,92.61c.57-.44,1.62,0,2.38.8s.91,2,.34,2.4a2.11,2.11,0,0,1-2.57-.63,2,2,0,0,1-.15-2.57"/></g><g id="E4"><path class="cls-1" d="M53.38,274.05c1.66,1.37,25.81-12.45,27.7-13.84a66.81,66.81,0,0,1,6.69-3.79l6.31-2.63,7.41-4.67a26.68,26.68,0,0,1,6-2.65c2.71-.84,5.36-2.44,8-3.55a25.86,25.86,0,0,0,7.57-4.44,42.33,42.33,0,0,0,5.59-6.73,10.38,10.38,0,0,0,1.92-5.68c.13-2.11.8-4.21,1-6.46a21.7,21.7,0,0,0-.23-7.41"/><path class="cls-1" d="M131.17,202.84c0,2.86,0,6.5.13,9.36L53.46,274.05c-5.68.57-6.79-7.55-5.43-11.65a8.73,8.73,0,0,1,3.31-4.76c1.64-1.89-.21-6.86.14-9.21a9.06,9.06,0,0,1,2.72-4.53c2.33-2.6,2.1-4.71.9-7.76A33.54,33.54,0,0,1,53.86,229c-.38-2.67-2.67-4.55-4.46-6.31a40.08,40.08,0,0,1-5.72-6.94,22.9,22.9,0,0,1-2.25-7.16A17.24,17.24,0,0,0,39.75,204a18,18,0,0,1-2.66-4.46c-.33-1.49,0-2.31-1.62-3.26a6.3,6.3,0,0,0-3-.78c-2.36-.13-6.44.74-8.65-.67l108.57-2.95A27.78,27.78,0,0,1,131.17,202.84Z"/><path class="cls-3" d="M70.23,200.13c1.89.67,3.91,1.39,3.91,2.4s-2.42,1.47-4.21,1-2.75-1.22-2.77-2.25,1.22-1.79,3.09-1.11"/><path class="cls-3" d="M80.93,196.17a1.92,1.92,0,0,1,1.94,1.77c.17,1.28-1.2,2.31-1.68,2-.13,0,0-.87-.23-1.39s-.89-.53-1.39-1.2.59-1.14,1.36-1.14"/><path class="cls-3" d="M42.08,207a2.1,2.1,0,0,1,2.76-1,69.14,69.14,0,0,1,8.85,5.51,9.51,9.51,0,0,1,1.85,3.39,15.28,15.28,0,0,1-3.28,6.1,6.78,6.78,0,0,1-5.13-.45,53.2,53.2,0,0,1-4.44-7.11,18.13,18.13,0,0,1-.61-6.43"/><path class="cls-3" d="M53.69,231.26a4.24,4.24,0,0,1,.63-4.21,5.17,5.17,0,0,1,2.82-1.32c4.21-.86,6.94,1.22,9.74,3.07,2,1.45,1.56,2.57.72,3.28a15.67,15.67,0,0,1-5.85,4.34,4.22,4.22,0,0,1-4.78-.51,5.85,5.85,0,0,1-3.28-4.67"/><path class="cls-3" d="M53.94,246.45a3.32,3.32,0,0,1,3.29-2.38A16.58,16.58,0,0,1,68.94,248c3,2.47,3.24,3.6.89,3.56-4.06-.25-8.06-.55-12.5-.42-1.13,0-2.42.61-2.84-1.6a8.36,8.36,0,0,1-.55-3.05"/><path class="cls-3" d="M92.78,252c1.47.26,1.81,1,.8,2a16.81,16.81,0,0,1-5.85,3.09c-1.7.53-2-.48-1.6-1.81A10.57,10.57,0,0,1,89.85,252h2.93"/><path class="cls-3" d="M74.92,251.1a.82.82,0,0,1,.26,1.62h-.26a.82.82,0,1,1-.26-1.62h.26"/><path class="cls-3" d="M82.22,258.36c.5,0,1.07.33,1.07.8a.89.89,0,0,1-.92.84h0a.88.88,0,0,1-.92-.84h0a.73.73,0,0,1,.67-.8h.11"/><path class="cls-3" d="M100.48,246.18c1.57-.78,3.49-.66,3.85.4s-.84,1.83-2.51,2.77-3.45.76-3.74-.33.8-2.11,2.4-2.84"/><path class="cls-3" d="M126.23,228.88c1.62.32,1.91,1,1.47,2.57a20.44,20.44,0,0,1-7.41,6.08c-2,.69-3.64.74-4.2-1.43a5.54,5.54,0,0,1,2.52-4.75,12,12,0,0,1,7.62-2.47"/><path class="cls-3" d="M101.91,208.75c1.18,0,2.1.49,2.1,1.08s-1,1.09-2.1,1.09-2.11-.48-2.11-1.09,1-1.08,2.11-1.08"/><path class="cls-3" d="M111.75,204.1c1.39,0,2.53.57,2.53,1.29s-1.14,1.3-2.53,1.3-2.54-.59-2.54-1.3,1.13-1.29,2.54-1.29"/><path class="cls-3" d="M103.23,219.82c1.35-.13,3.31.29,2.11,1.51s-.87.78-2.11,1.31-2.73.25-2.46-1,1.2-1.71,2.55-1.83"/><path class="cls-3" d="M86.42,223.56c2.26-.44,3.81.21,3,1.62a4.46,4.46,0,0,1-3.15,2.46,2.61,2.61,0,0,1-3.15-1.93l0-.17c0-1.12,1.09-1.47,3.34-1.89"/><path class="cls-3" d="M85.88,205.79c1.41-.23,2.25.38,2.1,1.17v.13c0,.57-.69,1-1.56,1a1.62,1.62,0,0,1-.44,0h0c-1.11,0-2.1-.38-2.1-.92s.74-1.16,2.1-1.39"/><path class="cls-3" d="M72.92,226a2,2,0,0,1,2.1,1.62c0,.7-.9,1.5-2.29,1.5s-2.52-.72-2.52-1.41S71.49,226,72.86,226"/><path class="cls-3" d="M70.42,209.68c0,.46-.76.82-1.6.82s-1.62-.42-1.62-.93.52-.8,1.24-.88a.58.58,0,0,0-.42.48h0c0-.4.5-.67,1-.67s1.43.55,1.43,1a.2.2,0,0,1,0,.15"/><path class="cls-3" d="M76.52,217.13c.69,0,1.26.29,1.26.65s-.57.67-1.26.67-1.27-.29-1.27-.67.57-.65,1.27-.65"/><path class="cls-3" d="M128.6,197.12a1.92,1.92,0,1,1-2.35,1.87,2.11,2.11,0,0,1,2.3-1.88h0"/><path class="cls-3" d="M128,205.81c.59,0,1.08.29,1.08.65s-.49.63-1.08.63-1.07-.29-1.07-.63.48-.65,1.07-.65"/><path class="cls-3" d="M126.92,211.49c1.56,0,2.82.42,2.82.9s-1.26.93-2.82.93-2.8-.42-2.8-.93,1.26-.9,2.8-.9"/><path class="cls-3" d="M108.22,243.19c.52,0,.86.17.86.5s-.15,0-1,.61-1.17.17-.94-.61.5-.5,1-.5"/><path class="cls-3" d="M126.23,216.73c1.28,0,2.35.48,2.35,1.07s-1.07,1.07-2.35,1.07-2.36-.48-2.36-1.07,1-1.07,2.36-1.07"/><path class="cls-3" d="M124.67,222.45c2.1,0,4,.61,4,1.36s-1.78,1.37-4,1.37-4-.61-4-1.37,1.79-1.36,4-1.36"/><path class="cls-3" d="M77.53,262.58c1.32-2.27,1.51-4.2-1.22-4.64a72.85,72.85,0,0,0-9.09-.66,36.91,36.91,0,0,1-9-3.66,2.56,2.56,0,0,0-2.82-.52"/><path class="cls-3" d="M55.4,253.1c-.47-.61-1-1-1.64-.25a9.89,9.89,0,0,1-1.58,4.58,18.4,18.4,0,0,0-2.82,5.37,13.68,13.68,0,0,0,.23,5.8,4.51,4.51,0,0,0,3.28,3.51,12.66,12.66,0,0,0,4.92-1.7h0c6.71-2.31,13.7-4,19.76-7.83"/><path class="cls-3" d="M114.53,235a1.07,1.07,0,0,1,.42,2.1,1,1,0,0,1-.42,0,1.07,1.07,0,1,1-.42-2.1,1,1,0,0,1,.42,0"/><path class="cls-3" d="M42.23,194.32a5.73,5.73,0,0,1-5.45,1.43c-.84-.23-1.89-.78-3.07-1.2Z"/><path class="cls-3" d="M72.92,194.66c.76,0,1.37.31,1.37.71s-.61.72-1.37.72-1.39-.4-1.39-.72.61-.71,1.37-.71"/><path class="cls-3" d="M60.7,199c1,0,1.79.32,1.79.67s-.8.72-1.79.72-2.11-.3-2.11-.67,1-.72,2.11-.72"/><path class="cls-3" d="M49.32,194.13a8.81,8.81,0,0,1-1.24.68c-1.58.69-3.58,1.55-4.21.44a.9.9,0,0,1,0-1Z"/><path class="cls-3" d="M38.74,198a.94.94,0,0,1,.46.13h0a.71.71,0,0,1,.52.69.49.49,0,0,1,0,.24,1,1,0,1,1-1.92-.17,1,1,0,0,1,1-.89"/><path class="cls-3" d="M48.5,198c1-.54,2.1-1,2.42-.59s-.51,1.58-1.52,2.11-2.29,1.05-2.69.35.76-1.36,1.79-1.89"/><path class="cls-3" d="M56.55,200c.76,0,1.75.55,1.75,1s-1,.74-1.75.74-1.85-.17-1.85-.65S55.8,200,56.55,200"/><path class="cls-3" d="M98.1,190.37a.46.46,0,1,1,0,.92h0a.46.46,0,1,1,0-.92"/><path class="cls-3" d="M88.51,193.06a.91.91,0,0,1-1.79,0Z"/><path class="cls-3" d="M94.36,188.52c.63,0,1.13.8,1.13,1.76s-.5,1.77-1.13,1.77a1.81,1.81,0,0,1,0-3.53"/><path class="cls-3" d="M92.32,193.14a.81.81,0,0,1-.92.66.78.78,0,0,1-.66-.66.24.24,0,0,1,0-.12h1.51A.29.29,0,0,1,92.32,193.14Z"/><path class="cls-3" d="M98.48,199c.92,0,1.68.47,1.68,1s-.76,1-1.68,1-1.66-.44-1.66-1,.75-1,1.66-1"/><path class="cls-3" d="M104,198.11c.86,0,1.58.34,1.58.76s-.72.75-1.58.75-1.58-.33-1.58-.75.69-.76,1.58-.76"/><path class="cls-3" d="M49.42,206.21c.25-.32,1.62,0,2.4.57s1,1.22.72,1.53a2.1,2.1,0,0,1-2.23-.36c-.78-.61-1.16-1.45-.89-1.74"/><path class="cls-3" d="M54.26,207.55a.77.77,0,0,1,.65.86.76.76,0,0,1-.86.64.75.75,0,0,1-.65-.74.8.8,0,0,1,.84-.76h0"/><path class="cls-3" d="M61.45,204.76a4.66,4.66,0,0,1,1.33.35h.34c.69,0,1.05.4,1,.72a1,1,0,0,1-1,.71h0a3.73,3.73,0,0,1-1.54.53c-1.16.21-2.1-.13-2.21-1.18s1-1.37,2.21-1.16"/><path class="cls-3" d="M57.71,219.12a.59.59,0,0,1,.61.57h0a.61.61,0,0,1-.71.49.62.62,0,0,1-.49-.49.59.59,0,0,1,.59-.57"/><path class="cls-3" d="M92.93,219.44c.77,0,1.38.36,1.38.84s-.61.84-1.38.84-1.41-.38-1.41-.84.63-.84,1.41-.84"/><path class="cls-3" d="M90.65,213.36a5.34,5.34,0,0,1,.8,0s1.87-.17,1.56.36c.17,0,.25.21.25.33,0,.45-1.3.85-2.73.85s-3-.24-3-.59,1.68-.78,3.11-.93"/><path class="cls-3" d="M69.83,240.1a.48.48,0,0,1,.48.48v0a.49.49,0,0,1-.37.58.5.5,0,0,1-.58-.38.67.67,0,0,1,0-.2.48.48,0,0,1,.47-.5h0"/><path class="cls-3" d="M54.26,197.79c.82-.1,1.56.28,1.6.57s-.61.65-1.45.76-1.56,0-1.6-.36.61-.86,1.45-1"/></g><g id="E3"><path class="cls-1" d="M132.31,191.88l-108.57,3A3.29,3.29,0,0,1,22.22,192c-.15-2.8,1.26-3.73,2.93-5.6a31.42,31.42,0,0,0,3.26-4.58,9.74,9.74,0,0,0,1.05-4.06,12.82,12.82,0,0,1,3.28-5.45c2.36-2.67,2.46-6.61,3.7-9.91a22.46,22.46,0,0,1,1.77-2.84c.15-.21,1.32-2.1,1.32-2.1h.22a30.42,30.42,0,0,1,3-9.66,23.57,23.57,0,0,0,2.5-4.9,18.67,18.67,0,0,0,0-6.5l81.14-3.11,1.57,6.87,2.34,8.42c.13,3.49.27,7,.4,10.52.5,2.67,1,5.34,1.56,8,.23,3.31.23,6.44.39,9.62-.21,2-.39,4-.58,6A75.5,75.5,0,0,0,132.31,191.88Z"/><path class="cls-3" d="M50.73,136.22a16.55,16.55,0,0,1-1.67.59c-2.1.73-3.11.48-3.66-.38Z"/><path class="cls-3" d="M49.74,137.31c1.41,0,2.56.76,2.56,1.69s-.69,1.66-2.1,1.66-3.26-1.18-3.26-2.11,1.39-1.24,2.82-1.24"/><path class="cls-3" d="M54.7,136.09a.78.78,0,0,1,.78.78.77.77,0,0,1-.77.78h0a.78.78,0,1,1,0-1.56h0"/><path class="cls-3" d="M59.31,138.15a.73.73,0,0,1,.83.59.71.71,0,0,1-.59.82.49.49,0,0,1-.24,0,.71.71,0,0,1-.83-.58.72.72,0,0,1,.58-.83,1,1,0,0,1,.25,0"/><path class="cls-3" d="M63.12,140.24a2.81,2.81,0,0,1,3.05,2.42c0,1.41-1.77.27-3.33-.19s-2.79-.47-2.79-1.1,1.51-1.13,3.07-1.13"/><path class="cls-3" d="M67.05,142.93a.71.71,0,1,1-.82.69.78.78,0,0,1,.82-.69"/><path class="cls-3" d="M68.54,146.32a.75.75,0,0,1,.82.69v0a.78.78,0,0,1-.82.72.81.81,0,0,1-.84-.72.77.77,0,0,1,.84-.71h0"/><path class="cls-3" d="M47.13,145.43c-1.54,0-2,.55-1.56,1.6,0,2.11,6.06,3.26,9.38,5.58.51-.3,1.25-.8.7-2.4-.93-.38-1.92-1.2-3-3.58-.55-.14-1.51-.54-2.1.21-.8-.25-.53-.33-3.47-1.41"/><path class="cls-3" d="M43.07,150.9c1.24-1.2,2.42-.67,3.64.28,2.1.8.78,1.28,1.87,5.07.19.61.74,1,1.12.69s1.24.34,1.38.88a5.57,5.57,0,0,1-3.15,3.43c-2.4.89-6.31.63-6.71-2.31a9.5,9.5,0,0,1,1.85-8"/><path class="cls-3" d="M58.59,149.24c-.31-1.45.24-2.27,1.43-1.7a10.65,10.65,0,0,0,4.67,2.1,3.9,3.9,0,0,1,2.36.86,9.35,9.35,0,0,0,4.33,2.3c1.33.5.91,1.32-.54,1.28a21.57,21.57,0,0,1-4.78-1.87,4.06,4.06,0,0,1-3.24,0c-.46-.72-.67-1.33-1.87-1.33s-1.6-.92-2.36-1.62"/><path class="cls-3" d="M53.06,155.24a1.14,1.14,0,1,1-1,1,1.13,1.13,0,0,1,1-1"/><path class="cls-3" d="M50.16,152.63c.52,0,.92.57.92,1.26s-.4,1.26-.92,1.26-.91-.57-.91-1.26.4-1.26.91-1.26"/><path class="cls-3" d="M59.79,154.48a.84.84,0,1,1-.17,1.67.84.84,0,0,1-.75-.83.88.88,0,0,1,.92-.84h0"/><path class="cls-3" d="M40.44,163.06c2,.63,4.8,2.11,4.67,3.43s-2.52,2.27-4.65,1.58-3.58-2.69-3.28-3.85,1.3-1.81,3.26-1.16"/><path class="cls-3" d="M62.25,166.24a.8.8,0,0,1,.76.84.79.79,0,0,1-.84.75.8.8,0,0,1-.76-.79.82.82,0,0,1,.84-.8h0"/><path class="cls-3" d="M62.67,171.22a.8.8,0,1,1-.82.8.83.83,0,0,1,.82-.8"/><path class="cls-3" d="M57,173.33c.63,0,1.13.36,1.13.8s-.5.8-1.13.8-1.14-.36-1.14-.8.51-.8,1.14-.8"/><path class="cls-3" d="M66.8,163.78a1.07,1.07,0,0,1,1.28.81,1.08,1.08,0,0,1-2.1.47,1.79,1.79,0,0,1,0-.23,1,1,0,0,1,.84-1.05"/><path class="cls-3" d="M68.27,153.85c1.35.31,2.29,1.22,2.1,2.1s-1.47,1.18-2.81.84-2.32-1.22-2.11-2,1.47-1.15,2.84-.84"/><path class="cls-3" d="M69.43,159.93a.78.78,0,0,1,.78.78v0a.72.72,0,0,1-.74.69h0c-.44,0-.7-.5-.7-.92s.3-.57.7-.57"/><path class="cls-3" d="M74,153.47c.8.25,1,.36,1,.8a.9.9,0,0,1-1,.8,1.17,1.17,0,0,1-1.2-.89c-.25-.69.43-1,1.2-.71"/><path class="cls-3" d="M75.55,155.72c.69-.25,1.11,0,.92.61s-.42.63-.92.63-.93-.27-.93-.63.23-.38.93-.61"/><path class="cls-3" d="M79.71,155.07c.49,0,.87.27.87.63s-.38.61-.87.61-.88-.27-.88-.61.4-.63.88-.63"/><path class="cls-3" d="M85.92,159.93c-1.09-.32-1.85-1-.86-2.21.27-.86.71-1.52,2.1-.67a2.71,2.71,0,0,1,2.1,1.64c.13.23.57.14.87.29.59-.25,1.26-.46,1.85-.71,1.85-.13,2.23.54,1.39,2.1l-4.21.59c-1.07-.46-2.25-.63-3.32-1.07"/><path class="cls-3" d="M98.44,157.4c-.4-1.39,0-1.66,1.3-.84a6.16,6.16,0,0,1,2.82,2.27c.29.76,0,1.2-.72,1.35-2,.13-3.32-.48-3.4-2.78"/><path class="cls-3" d="M98.71,172.91q-.92-1.08.69-.93a12.46,12.46,0,0,0,3.77.76c1.11-.51,2.1-.76,2.1.76,1,1.47.55,2.25-1,2.33a6.71,6.71,0,0,1-5.59-2.92"/><path class="cls-3" d="M69.76,164.7A.68.68,0,1,1,70,166h-.24c-.4,0-1.07-.38-1.07-.76s.67-.57,1.07-.57"/><path class="cls-3" d="M70.48,166.45a.9.9,0,0,1,.84.76c0,.37-.4.63-.8.63a.82.82,0,0,1-.8-.72.74.74,0,0,1,.76-.67"/><path class="cls-3" d="M69.18,169.58a1.19,1.19,0,0,1,1,.89.76.76,0,0,1-.87.62.77.77,0,0,1-.62-.62c0-.36,0-.89.51-.89"/><path class="cls-3" d="M74.67,167.71a.71.71,0,0,1,.75.67h0a.75.75,0,0,1-1.49,0,.72.72,0,0,1,.74-.67"/><path class="cls-3" d="M84.15,166.24c.4,0,1.08.44,1.08.86s-.61.55-1,.55a.78.78,0,0,1-.74-.78c0-.42.27-.63.69-.63"/><path class="cls-3" d="M83.9,163.42c.4,0,.57-.23.88.53s-.19,1-.8.79-.69-.44-.69-.79.19-.53.61-.53"/><path class="cls-3" d="M87.62,162.35a.72.72,0,0,1,.76.67c0,.36-.4.95-.8.95a1.08,1.08,0,0,1-.88-.91c0-.36.52-.71.92-.71"/><path class="cls-3" d="M94.46,161.51a.71.71,0,0,1,.74.67.76.76,0,0,1-1.5,0,.74.74,0,0,1,.76-.67"/><path class="cls-3" d="M75.28,173.24a.67.67,0,0,1,.6.74.66.66,0,0,1-.73.6.67.67,0,0,1-.61-.68.72.72,0,0,1,.74-.66"/><path class="cls-3" d="M75.11,178.52a.67.67,0,0,1,.6.74.66.66,0,0,1-.73.6.67.67,0,0,1-.61-.68.72.72,0,0,1,.74-.66"/><path class="cls-3" d="M80,180.61a.7.7,0,0,1,.73.67.74.74,0,1,1-1.47,0,.71.71,0,0,1,.74-.67"/><path class="cls-3" d="M77.13,177.51a.67.67,0,1,1,.23,1.33h-.23a.68.68,0,0,1-.24-1.33h.24"/><path class="cls-3" d="M75.74,175.58c.65,0,1.18.31,1.18.67s-.53.67-1.18.67-1.2-.31-1.2-.67.55-.67,1.2-.67"/><path class="cls-3" d="M71.53,174.15c1.07,0,2,.61,2,1.34s-1,1.27-2,1.27-2.1-.53-2.1-1.27.88-1.34,2-1.34"/><path class="cls-3" d="M71.13,186.05c.93,0,1.66.43,1.66,1s-.73.95-1.66.95-1.66-.42-1.66-.95.74-1,1.66-1"/><path class="cls-3" d="M79.19,188c1.45,0,3,.67,3,1.2s-1.51.73-3,.73-2.63-.44-2.63-1,1.18-1,2.63-1"/><path class="cls-3" d="M107.1,187.13c1.41,0,2.55.63,2.55,1.39s-1.14,1.38-2.55,1.38-2.54-.63-2.54-1.38,1.16-1.39,2.54-1.39"/><path class="cls-3" d="M58.19,180.56c1.75.34,3,1.62,2.82,2.42s-1.95,1.16-3.72.84-3.28-2.35-3.11-3.15,2.27-.42,4,0"/><path class="cls-3" d="M129.42,190.05c1.24.25,2.51.42,2.42.93s-1.41.65-2.65.4-2.31-1.06-2.1-1.54,1.2,0,2.44.21"/><path class="cls-3" d="M130.43,182.1c1.33,0,2.4.63,2.4,1.41s-1.07,1.39-2.4,1.39-2.42-.63-2.42-1.39,1.1-1.41,2.42-1.41"/><path class="cls-3" d="M130.18,177c1.3,0,2.36.54,2.36,1.19s-1.06,1.16-2.36,1.16-2.36-.52-2.36-1.16,1.06-1.19,2.36-1.19"/><path class="cls-3" d="M130.12,166.45c1.39,0,2,1.51,2,2.84a2.48,2.48,0,0,1-2.52,2.42,3.08,3.08,0,0,1-2.65-3c0-1.32,1.81-2.29,3.2-2.29"/><path class="cls-3" d="M128.83,147.14c1.31,0,2.36,1.7,2.36,3.8s-1.05,3.81-2.36,3.81-2.35-1.7-2.35-3.81,1-3.8,2.35-3.8"/><path class="cls-3" d="M129.4,159.36a1.83,1.83,0,1,1-2.1,1.83,2,2,0,0,1,2.07-1.83h0"/><path class="cls-3" d="M110.24,160.79c.46.17.73,1.87.31,2.94s-1.55,1.9-2,1.73-.59-1.41-.15-2.48,1.37-2.36,1.83-2.11"/><path class="cls-3" d="M105.19,142.59A2.48,2.48,0,0,1,108,144c.61,1.16.39,2.38-.51,2.72a2.53,2.53,0,0,1-2.76-1.45c-.61-1.16-.37-2.38.51-2.72"/><path class="cls-3" d="M124.25,133.38a2.11,2.11,0,1,1-2.11,2.1,2.1,2.1,0,0,1,2.11-2.1"/><path class="cls-3" d="M52.32,166.05c.34-.3,1.12,0,1.75.55s.86,1.36.55,1.68-1.12,0-1.75-.55-.86-1.37-.55-1.68"/><path class="cls-3" d="M54.53,173.43c.21,0,.38.13.38.26s-.17.25-.38.25-.4,0-.4-.25.17-.26.4-.26"/><path class="cls-3" d="M41.58,171a2.11,2.11,0,0,0-3-.22,2.14,2.14,0,0,0-.59.83,1.9,1.9,0,0,0,0,1.85c.23.32.4.8.8.8s.13.46-.13.61c-.92.53-1.76.84-2,1.83,0,1.31.88,1.47,1.66.57a6.51,6.51,0,0,1,1.87-1.18c1.39,0,2.1-.31,2.38-1.28A5.46,5.46,0,0,0,41.58,171"/><path class="cls-3" d="M43.3,191.63c-.38.42,0,1.64-.53,2.23l-.54.46-8.56.23-.91-.29c-.69-.19-1.74.1-2.23-.19a12.93,12.93,0,0,1-4.21,0,3.35,3.35,0,0,1-2.15-4.21,2.55,2.55,0,0,1,.2-.48,11.22,11.22,0,0,1,3.83-5.91c.59-.38,1.17-1.39,1.7-1.75a16.25,16.25,0,0,1,.17-4,33.8,33.8,0,0,1,3.62-6.31c1.05-1.11,2-.92,2.23.28a35.81,35.81,0,0,1-.89,5.72c-1,4.54-1.81,5.7-2.5,6.31a2.53,2.53,0,0,0-.15,1.85c1.26.44,1.94.86,2.11,1.83a13.58,13.58,0,0,0,1.38,2.9,7.67,7.67,0,0,0,3.94,1.64c.73,0,1.07-.33.57-1.4-1.6-.89-3.41-.68-4.67-2.11-.85-.92-.72-1.77.37-1.47l1.1.78c.5-.51.59-.36,1.22-.72.78,0,1.47.13,1.43,1.16,0,.25.21.5.21.76,1.66.73,3.18,1,3.26-1.35a.9.9,0,0,0-1.07-.57c-.38,0-.61-.4-.72-.69s0-.84,1.26-1.26c-.4-.85-1-1.64-1.41-2.49s0-1.45,1.48-.84a13.55,13.55,0,0,1,2.31,4.42A5.4,5.4,0,0,1,43.3,191.63Z"/><path class="cls-3" d="M34.51,181.11c.59-.78,1.41-.69,1.49,0a3.28,3.28,0,0,0,0,2c.72.73,1.26,1.58,1.89,2.1a.66.66,0,0,1,0,.93.67.67,0,0,1-.93,0h0a9.51,9.51,0,0,1-2.42-2.44,4.3,4.3,0,0,1-.17-2.72"/><path class="cls-3" d="M42.25,178c.23,0,.23.65,0,1.26s-.67,1-.91.9-.25-.65,0-1.26.68-1,.93-.9"/><path class="cls-3" d="M49.32,194.13l-5.33.15a4.2,4.2,0,0,1,3.14-1.45c1.91-.15,3.11-.82,3.36-.28S50.18,193.59,49.32,194.13Z"/><path class="cls-3" d="M64.21,182.29a.46.46,0,0,1,.44.48.46.46,0,0,1-.92,0,.46.46,0,0,1,.46-.46h0"/><path class="cls-3" d="M65.66,173.77c.82,0,1.5.38,1.5.8s-.68.8-1.5.8-1.49-.36-1.49-.8.67-.8,1.49-.8"/><path class="cls-3" d="M82.05,167.42c.76.14,1.11.4,1.11.88a1,1,0,0,1-1.11.88,1.62,1.62,0,0,1-1.52-1.07c-.12-.59.78-.84,1.52-.69"/><path class="cls-3" d="M83.27,176.4c1,0,1.75.48,1.75,1.07s-.78,1.12-1.75,1.12-1.77-.51-1.77-1.12.8-1.07,1.77-1.07"/><path class="cls-3" d="M88.53,193H86.74a.38.38,0,0,1,0-.15.93.93,0,1,1,1.83-.28,1.31,1.31,0,0,1,0,.28Z"/><path class="cls-3" d="M83.88,184.48a.75.75,0,0,1,.8.84c0,.46-.13.8-.57.8a1.08,1.08,0,0,1-1-.8c-.23-.63.21-.95.8-.84"/><path class="cls-3" d="M89.77,187.59c1,0,1.77.36,1.77.8s-.78.8-1.77.8-2.1-.51-2.1-.95,1.07-.65,2.1-.65"/><path class="cls-3" d="M78.56,166.66c.52-.13.8.61.65,1.51s-.34,1.39-.74,1.39-.75-.61-.75-1.39.31-1.41.84-1.51"/><path class="cls-3" d="M76.56,180.06c1.7.15,1,.55,1.26,1.22s0,1.56-.38,1.68-.84-.4-1.28-1.22-1.33-1.83.4-1.68"/><path class="cls-3" d="M89.83,179.76a1,1,0,0,1,1,.93h0a1,1,0,1,1-1.13-.92h.12"/><path class="cls-3" d="M90.82,184.25c1.05.48,1.73,1.13,1.58,2.1s-1.49.76-2.65,0-2.1-1.66-1.79-2.23,1.81-.36,2.86.13"/><path class="cls-3" d="M85,186.69c1-.3,2-.38,2.36.31s-.78.86-2,.88-1.81.28-1.91,0S84,187,85,186.75"/><path class="cls-3" d="M92.27,193H90.76a.75.75,0,0,1,.78-.55A.71.71,0,0,1,92.27,193Z"/><path class="cls-3" d="M96.77,174a.62.62,0,0,1,.61.63.61.61,0,0,1-.61.61.61.61,0,0,1-.61-.61.63.63,0,0,1,.61-.63"/><path class="cls-3" d="M94.08,171.92c.55,0,1,.21,1,.46s-.42.46-1,.46-1-.21-1-.46.45-.46,1-.46"/><path class="cls-3" d="M86.09,152.14a.82.82,0,0,1,.37,1.6.77.77,0,0,1-.37,0,.82.82,0,1,1-.37-1.6,1.15,1.15,0,0,1,.37,0"/><path class="cls-3" d="M77.27,141.18a.74.74,0,0,1,.72.76h0a.71.71,0,0,1-.58.83.72.72,0,0,1-.83-.58,1,1,0,0,1,0-.25.75.75,0,0,1,.69-.76"/><path class="cls-3" d="M72.77,156.56c1.12.23,1.35.42,1.35.89s-.55.84-1.2.84-.74-.15-1.18-.84,0-1.14,1-.89"/><path class="cls-3" d="M84.36,155.17c.76,0,1.37.34,1.37.76s-.61.76-1.37.76-1.36-.34-1.36-.76.61-.76,1.36-.76"/><path class="cls-3" d="M83.84,151.51a.7.7,0,1,1-.3,1.36.68.68,0,0,1-.54-.66.77.77,0,0,1,.84-.7"/><path class="cls-3" d="M103.59,159.93c.34-.17,1,.8,1.35,1.39s.29,1.38,0,1.55-1-.36-1.29-.94-.35-1.83,0-2.11"/><path class="cls-3" d="M78.47,156.94c1.14.42,1,.4,1,.88a1,1,0,0,1-1,.89c-.56,0-.44,0-1-.89s-.12-1.32,1-.88"/><path class="cls-3" d="M79.36,148.69c1,0,3.11,2.11,2.75,3-.19.53-.69.3-1.28,0,.13,0,.19-.14.19-.23a.51.51,0,0,0-.53-.42,1,1,0,0,0-.61.23,1.09,1.09,0,0,0-.44,0,1.43,1.43,0,0,1-1.37-1.49v0c0-.61.28-1,1.29-1"/><path class="cls-3" d="M74.75,165.73c.23.23.36.47-.46,1s-1.62,1.12-1.85.53.19-.9.71-1.39a1.39,1.39,0,0,1,1.6-.17"/><path class="cls-3" d="M76.1,162a.58.58,0,0,1,.63.42c.17.42.17.65,0,.74s-.49,0-.66-.4-.14-.65,0-.76"/></g><g id="Lines"><line class="cls-4" x1="34.89" y1="69.24" x2="132.31" y2="64.84"/><line class="cls-4" x1="29.79" y1="137.02" x2="154.39" y2="132.03"/><line class="cls-4" x1="0.01" y1="195.88" x2="158.73" y2="190.79"/></g><g id="Labels"><g class="cls-5"><path class="cls-6" d="M90.26,11.61h.25l.1.05a.48.48,0,0,1,.24.33l.05.18,0,.13s0,.08,0,.1l0,.14-.07.27-.09.25-.08.19-.11.21a1,1,0,0,1-.31.38l-.14,0-.08,0-.08,0-.08,0-.12-.08,0-.13a.34.34,0,0,1,0-.11.44.44,0,0,1,0-.09l.13-.16.12-.19.21-.39.07-.21s0,0,0-.05a.06.06,0,0,0,0-.06l-.05,0a.4.4,0,0,0-.23.08l-.19.17-.43.35-.81.64-.3.21-.33.2-.26.14-.22.08h-.16l-.15,0-.1,0a.23.23,0,0,1-.1-.22v-.11a.17.17,0,0,1,0-.09l0-.11s.07-.07.17-.12l.21,0h.18l.13,0,.26-.13.41-.27.2-.15.2-.16.26-.23.26-.22.25-.24.26-.22A.7.7,0,0,1,90.26,11.61Z"/></g><g class="cls-5"><path class="cls-6" d="M91.2,8.21a.32.32,0,0,1,.2-.07c.19,0,.28.12.28.37V8.6a.17.17,0,0,1-.06.06,10.37,10.37,0,0,1-1.08.74,10.12,10.12,0,0,1-1.09.55L89.3,10l-.11,0A.26.26,0,0,1,89,9.86V9.62c0-.09.06-.15.18-.19A6.1,6.1,0,0,0,90,9l.28-.16.42-.26Z"/></g><g class="cls-5"><path class="cls-6" d="M86.12,11.4h.06l.07,0,.17.13a.2.2,0,0,1,.09.18,2,2,0,0,1-.37.4l1.31,0,0,0,0,0a.17.17,0,0,1,.08.12c0,.11-.14.25-.43.44l-.66.38L86,13.4l-.78.5-1,.54-.6.26-.2.07-.2.05-.25.06a.61.61,0,0,1-.22,0l-.11-.06a.39.39,0,0,1-.12-.33c0-.1.08-.17.22-.22l.22,0a1.93,1.93,0,0,0,.42,0,1.87,1.87,0,0,0,.41-.15l.1,0,.15-.07.39-.17,2-1.13H84.61a.36.36,0,0,1-.06-.11.84.84,0,0,1,0-.19l0-.1.13,0,.14-.06.22-.11.4-.19.28-.15a.22.22,0,0,0,.13-.12.33.33,0,0,1,.07-.11l.08,0Z"/></g><g class="cls-5"><path class="cls-6" d="M87.18,15.8a.23.23,0,0,1,.23.15l0,.12v.08a.08.08,0,0,1,0,.08l-.09.12-.07,0-.14.07-.15.07-.27.25-.24.18-.43.27-.37.23-.22.12-.25.12-.41.16-.16,0a.33.33,0,0,1-.22-.09.4.4,0,0,1-.09-.24v-.11a.35.35,0,0,1,.06-.09l.05,0,.2-.1L85,17l.36-.17.25-.11.23-.13.43-.28.24-.16.22-.18.25-.14A.34.34,0,0,1,87.18,15.8Z"/></g><g class="cls-5"><path class="cls-6" d="M82.64,11l.11,0h.12a.25.25,0,0,1,.15.1.22.22,0,0,1,0,.09v.09a.53.53,0,0,1-.27.31l-.15.08.07,0,.17.1a.58.58,0,0,1,.14.12.23.23,0,0,1,0,.14c0,.1-.07.2-.2.32l-.6.27.17.1.16.11a.5.5,0,0,1,0,.18v.07a.12.12,0,0,1,0,.08l-.15.16-.34.26-.37.26-.3.22-.78.52-.28.18a1.46,1.46,0,0,1-.25.13l-.08,0-.13.06-.32.13a1.11,1.11,0,0,1-.4.12.32.32,0,0,1-.14,0l-.09,0-.07-.06a.21.21,0,0,1-.06-.1.53.53,0,0,1,0-.16c0-.15.12-.26.35-.31l.16,0,.11,0,.14,0,.13,0,.15-.05.21-.09.2-.12.74-.46.36-.24.5-.37-.28-.18a.31.31,0,0,1-.12-.24.23.23,0,0,1,0-.11.88.88,0,0,1,.14-.14l.23-.12.35-.17L82,12l-.19-.11-.1-.07,0,0,0-.1,0,0,0-.06,0,0,.13-.1h0l.06,0,.19-.07.15-.06.14-.07.14-.1Z"/></g><g class="cls-5"><path class="cls-6" d="M82.68,7.71H83l.1,0a1,1,0,0,1,.56.13.43.43,0,0,1,.2.37,1,1,0,0,1-.36.62l-.22.24L83,9.33a2.1,2.1,0,0,1-.27.2,3.59,3.59,0,0,1-.34.17l-.5.21-.25.12h-.18s-.07,0-.13-.11l0-.08,0-.09a.29.29,0,0,1,.06-.19.51.51,0,0,1,.21-.14l.22-.06L82,9.29l.26-.11A1.28,1.28,0,0,0,83,8.41l0,0-.06,0-.19,0h-.44l-.08,0-.12.06-.09,0-.09,0H81.8a.23.23,0,0,1-.13-.06l-.1-.13,0-.11A.24.24,0,0,1,81.67,8a2.89,2.89,0,0,1,.47-.2A2.48,2.48,0,0,1,82.68,7.71Z"/></g><g class="cls-5"><path class="cls-6" d="M79.5,11.41c.26,0,.4.08.4.23a.56.56,0,0,1-.16.38l-.13.15-.19.12-.19.07-.25.07-.33,0h-.72l-.06.09-.13.14-.25.26-.18.15-.2.14-.6.41-.35.22-.23.12-.17.09-.33.16-.16.06a1,1,0,0,1-.29,0h-.07l-.1,0-.08,0-.09-.07a.4.4,0,0,1-.1-.15l0-.1v-.12a.38.38,0,0,1,.11-.23l.11,0,.12,0h.07a.41.41,0,0,1,.15,0l.14,0,.14,0,.15,0,.43-.2.23-.12.21-.12a4.86,4.86,0,0,0,.59-.43l.1-.11,0-.12-.06-.08a.28.28,0,0,1-.08-.15.61.61,0,0,1,.19-.45.68.68,0,0,1,.45-.18.53.53,0,0,1,.28.11c.12.08.17.16.17.24l.33,0a1.07,1.07,0,0,0,.35-.08,2.43,2.43,0,0,0,.42-.25.37.37,0,0,1,.1-.07l.08-.05A.41.41,0,0,1,79.5,11.41Z"/></g><g class="cls-5"><path class="cls-6" d="M79.71,15.8a.22.22,0,0,1,.23.15l0,.12v.08a.08.08,0,0,1,0,.08l-.09.12-.07,0-.14.07-.15.07-.27.25L79,17l-.42.27-.38.23-.21.12-.26.12-.41.16-.15,0a.33.33,0,0,1-.23-.09.4.4,0,0,1-.09-.24l0-.11a.19.19,0,0,1,0-.09l.05,0,.21-.1.43-.2.36-.17.24-.11.23-.13.43-.28.25-.16L79.3,16l.24-.14A.34.34,0,0,1,79.71,15.8Z"/></g><g class="cls-5"><path class="cls-6" d="M117,51h.13l.1,0,.3.05.31.09.22.09a.5.5,0,0,1,.28.41l0,.15-.07.13-.09.12-.22.18-.75.5-.69.36-.29.13-.26.05a.29.29,0,0,1-.2-.08l-.06-.1V53l0-.12a.31.31,0,0,1,.1-.12l.24-.12.46-.2.6-.3.24-.13.18-.12,0-.08c0-.11-.15-.17-.45-.17l-.31,0-.36.13c-.26,0-.39-.11-.39-.32a.24.24,0,0,1,.06-.18.63.63,0,0,1,.21-.13l.36-.12Zm2.58,0a2.05,2.05,0,0,1,.5.08l.15,0,.11,0,.22.15a.45.45,0,0,1,.15.16.41.41,0,0,1,0,.23l0,.08,0,.1-.11.13-.11.13-.11.12-.15.12-.41.33-.41.28-.37.21-.16,0-.17,0h-.13s-.06,0-.11-.06l-.06-.11s0-.07,0-.09a.21.21,0,0,1,.08-.14l.13-.07.16-.08.26-.12.43-.24.33-.26.17-.15a.34.34,0,0,0,.07-.15.16.16,0,0,0-.11-.16l-.26,0-.16,0-.12,0-.13,0-.1,0H119l-.22,0-.1,0s0,0,0,0l-.05,0a.49.49,0,0,1,0-.14V51.4a.24.24,0,0,1,.06-.09l.16-.12.12,0,.11,0a1.25,1.25,0,0,1,.26-.07l.19,0Z"/><path class="cls-6" d="M119.81,54.51h.1a.15.15,0,0,1,.08,0,.36.36,0,0,1,.17.19v.17c0,.1,0,.17-.08.2l-.34.15.17.16a.54.54,0,0,1,.16.37v.16s0,0,0,.06a.14.14,0,0,1,0,.06.82.82,0,0,1-.45.59l-.25.14-.17,0-.21,0h-.21l-.21,0-.41-.09-.08-.05-.26.22-.13.12-.16.12-.35.26-.15.09-.27.17-.24.15-.51.28-.1,0-.12.06-.2.11-.2,0a.5.5,0,0,1-.44-.24V58l0-.14a.24.24,0,0,1,.07-.19l.09-.07.08,0h.43a.67.67,0,0,0,.33-.08l.56-.3.2-.12.32-.21.21-.15.13-.15.12-.09.12-.13-.08-.15,0-.11,0-.1c0-.1.09-.18.23-.26l.17,0H118l.16.07a.29.29,0,0,1,.15.16v.14l0,0,.15.1.15.06h.19l.13,0,.11,0a.79.79,0,0,0,.27-.18l.07-.11,0-.09a.3.3,0,0,0,0-.18l-.08-.1-.12-.07-.11-.07-.21-.1-.21-.15,0-.07,0-.1a.14.14,0,0,1,.06-.13l.2-.09h.34l.13,0,.12-.09.11-.06.12-.05Z"/><path class="cls-6" d="M124.38,50.52l.1-.06a.2.2,0,0,1,.11,0c.18,0,.27.12.27.37a.21.21,0,0,1-.06.16c-.39.29-.78.55-1.16.78-.18.1-.35.2-.52.28s-.34.16-.51.23l-.24.08a.33.33,0,0,1-.13,0,.48.48,0,0,1-.09-.13l0-.07V52a.11.11,0,0,1,0-.06.26.26,0,0,1,0-.14.23.23,0,0,1,0,0l.08,0a3.17,3.17,0,0,0,.87-.4A7.92,7.92,0,0,0,124.38,50.52Zm.58,1a.3.3,0,0,1,.19-.07c.19,0,.28.12.28.38a.19.19,0,0,1,0,.08l0,.06a9.12,9.12,0,0,1-1.09.74,8.57,8.57,0,0,1-1.09.55l-.14,0-.11,0a.24.24,0,0,1-.22-.17l0-.11,0-.12c0-.1,0-.16.17-.2a7.51,7.51,0,0,0,.86-.46l.29-.17.41-.25Z"/><path class="cls-6" d="M125.12,55.61c0,.26-.26.56-.77.91l-.94.64-.41.24a3.53,3.53,0,0,1-1.42.62c-.33,0-.49-.12-.49-.38a.34.34,0,0,1,.17-.3.39.39,0,0,1,.25-.05h0l.07,0,.08,0,.05,0H122l.16,0,.43-.23.17-.09.29-.18.16-.12c-.35-.16-.52-.36-.52-.6a1,1,0,0,1,.38-.78l.17-.12.19-.13a1.63,1.63,0,0,1,.79-.2,1.11,1.11,0,0,1,.72.27A.57.57,0,0,1,125.12,55.61Zm-.65-.08q-.07-.12-.39-.12a1,1,0,0,0-.59.28l-.08.09-.09.13,0,.11c0,.07,0,.13.14.2l.11,0,.1,0,.16,0,.27-.14q.42-.28.42-.45A.08.08,0,0,0,124.47,55.53Z"/></g><g class="cls-5"><path class="cls-6" d="M133,77.56a.58.58,0,0,1-.35-.09.37.37,0,0,1-.11-.29v-.1a.18.18,0,0,1,.1-.16.52.52,0,0,1,.22-.07,1.78,1.78,0,0,0,.7-.17l.58-.32a1.29,1.29,0,0,0,.33-.17l.38-.27.16-.1.17-.14-.08-.07-.14-.16-.06-.13v-.13a.47.47,0,0,1,.05-.14l.1-.08a.36.36,0,0,1,.25-.11.76.76,0,0,1,.34.11l.11.06.14.08.39-.21.46-.26.24-.1a1.87,1.87,0,0,1,.49-.15.53.53,0,0,1,.23.08.26.26,0,0,1,.09.21v.08a.26.26,0,0,1-.09.13l-.17.11-.09,0-.27.12-.24.11-.39.11-.2.05.31.16.24.12.12.11,0,0v.07a.24.24,0,0,1,0,.08l0,.09a.18.18,0,0,1-.1.11l-.13.05-.17,0h-.09l-.64-.32-.22.13-.22.17-.3.18-.43.27-.78.45-.32.17-.3.15-.16.06Z"/></g><g class="cls-5"><path class="cls-6" d="M137.4,71.4a.32.32,0,0,1,.19-.07c.19,0,.29.12.29.37l0,.09s0,0-.05.06a11.55,11.55,0,0,1-1.08.74,9.28,9.28,0,0,1-1.09.55l-.15,0-.11,0c-.09,0-.16,0-.22-.17v-.23c0-.09.06-.16.18-.2a7.61,7.61,0,0,0,.86-.45l.28-.17.42-.26C137.09,71.62,137.26,71.51,137.4,71.4Z"/></g><g class="cls-5"><path class="cls-6" d="M133.47,75.08l.12-.12.23-.17a.63.63,0,0,1,.27-.08h.07a.25.25,0,0,1,.14.07l.08.09a.51.51,0,0,1,0,.13.23.23,0,0,1,0,.11l-.06.1-.08.1-.14.12-.13.09-.2.13-.18.11-.16.07-.18.06-.19.06-.17,0h-4.75l-.09.11-.17.17-.24.19-.14.11-.24.13-.1,0-.15,0-.22,0a.34.34,0,0,1-.22-.3l0-.1s0-.08.12-.11a.58.58,0,0,0,.26-.1.52.52,0,0,0,.27-.15l.06-.08.06-.1h-.12l-.19,0-.08-.1-.07-.14,0-.11v-.08c0-.19.13-.32.38-.4h.37a.23.23,0,0,1,.14,0,.52.52,0,0,1,.32.25l.13.24h4.49l.09,0,.25-.05a.58.58,0,0,0,.27-.14l.08-.09Z"/></g><g class="cls-5"><path class="cls-6" d="M130.89,71.82c0,.48-.32.89-.95,1.23a1.36,1.36,0,0,1-.65.19c-.61,0-.92-.26-.92-.78a1.3,1.3,0,0,1,.53-1A1.77,1.77,0,0,1,130,71a.91.91,0,0,1,.35.06.57.57,0,0,1,.27.16A.73.73,0,0,1,130.89,71.82Zm-.57.09c0-.22-.16-.33-.46-.33a1,1,0,0,0-.85.86c0,.13.09.2.27.2h.14a1,1,0,0,0,.57-.25A.64.64,0,0,0,130.32,71.91Z"/></g><g class="cls-5"><path class="cls-6" d="M126.25,74.62h.25l.14,0c.09,0,.13.06.13.18V75a.22.22,0,0,1-.07.17.54.54,0,0,1-.22.11l-.3,0h-.09a.73.73,0,0,0-.16,0l-.28.08c-.09,0-.15.06-.16.11l.09.13,0,.05,0,.07,0,.11a.61.61,0,0,1,0,.22v.26a.5.5,0,0,1,0,.15l-.08.15,0,.06-.06.06-.07.07-.09.06-.28.13-.17,0h-1.37l-.17,0L123.2,77l0,0-.11-.08a.47.47,0,0,1-.14-.34.3.3,0,0,1,0-.15l.1-.11.1-.08a.57.57,0,0,1,.28-.08.19.19,0,0,1,.15.08l.08.1.14.1.15,0h.65c.22,0,.37,0,.44-.17v-.16A.37.37,0,0,0,125,76l-.09-.1-.09-.12-.13-.17,0-.21a.28.28,0,0,1,.05-.16l.13-.09L125,75l.17-.11a1.74,1.74,0,0,1,.25-.11l.3-.1A1.75,1.75,0,0,1,126.25,74.62Z"/></g><g class="cls-5"><path class="cls-6" d="M126.66,71l.17-.07.17,0a.39.39,0,0,1,.26.06.22.22,0,0,1,.11.18.22.22,0,0,1-.1.21l-.06,0-.12,0-.23.1-.65.3c-.34.16-.51.36-.51.61a.26.26,0,0,0,.1.2l.08,0,.1,0,.23,0,.2,0,.08,0,.08,0,.11-.06.11,0a.34.34,0,0,1,.17,0l.1.13a.37.37,0,0,1,0,.17c0,.17-.19.29-.49.37l-.18,0-.18,0-.26,0-.3-.08-.15,0-.13-.09a.75.75,0,0,1-.38-.66.72.72,0,0,1,.15-.42l.14-.17.2-.19.16-.12.2-.14.36-.22Z"/></g><g class="cls-5"><path class="cls-6" d="M122.92,75.55v.26l0,.12a.14.14,0,0,1,0,.1l-.14.21-.07.09a.92.92,0,0,1-.73.26h-.15l-.11,0-.08,0-.09,0-.18-.11-.17-.15-.17-.2,0-.05a.45.45,0,0,0-.17.09l-.17.15-.22.22.22.09.14.08A.45.45,0,0,1,121,77a.49.49,0,0,1-.09.28,1,1,0,0,1-.27.28,1.58,1.58,0,0,1-.29.16l-.19.08-.36.14-.14,0-.36.08h-.15L119,78l-.11,0-.15-.07-.08-.07,0-.23a.56.56,0,0,1,0-.23l.09-.06.13,0h.23l.34.09h.24a.58.58,0,0,0,.43-.15l.09-.11,0-.12c0-.1-.09-.18-.26-.24l-.23-.07a.3.3,0,0,1-.2-.32.65.65,0,0,1,.15-.25l.5-.47.19-.16.28-.19.37-.21a2.28,2.28,0,0,1,1.14-.31l.18,0a.63.63,0,0,1,.34.26l.1.16a.49.49,0,0,1,.06.17Zm-.6.15a.27.27,0,0,0-.26-.29h-.12a1.08,1.08,0,0,0-.19,0,.85.85,0,0,0-.21.11l-.09.08-.07.07.18.18a.45.45,0,0,0,.16.09l.08,0,.14,0a.46.46,0,0,0,.23-.06l.08,0,0-.07Z"/></g><g class="cls-5"><path class="cls-6" d="M122.51,78.8c.17,0,.25.13.25.4,0,0,0,.06-.1.12a.46.46,0,0,1-.14.1l-.19.13-1,.59-1,.6a.15.15,0,0,1-.09,0c-.17,0-.25-.1-.25-.32s.09-.22.28-.32l.41-.23.39-.22.67-.42A3.55,3.55,0,0,1,122.51,78.8Zm.34,1.09.08,0,.12,0a.24.24,0,0,1,.25.19l0,.17a.16.16,0,0,1-.07.15l-1.45.86-.68.39-.12,0-.12,0a.36.36,0,0,1-.24-.14l0-.1v-.11a.24.24,0,0,1,.1-.17,1.81,1.81,0,0,1,.34-.24l.57-.3c.23-.12.46-.26.69-.4Z"/></g><g class="cls-5"><path class="cls-6" d="M117.86,74.67H118l.11,0h.2a.75.75,0,0,1,.24,0l.24.06c.29.07.44.2.44.39a.48.48,0,0,1-.09.27l-.1.15a1.2,1.2,0,0,1-.16.16l-.22.2-.26.22-.23.16-.34.23a9.34,9.34,0,0,1-1,.57l-.42.21-.21.07-.25.08-.18,0-.14,0-.07,0-.12-.08-.07-.14,0-.06c0-.18.06-.28.17-.3h.37l.18,0,.12,0,.14,0,.16-.07.22-.11.35-.18.17-.07.28-.15.3-.17.18-.12.11-.08.15-.13a1.26,1.26,0,0,0,.2-.2l0-.06,0,0a.05.05,0,0,0,0-.05l-.08,0-.09,0h-.19l-.16,0h-.09l-.32,0h0l-.09,0-.1,0-.07,0h-.38a.31.31,0,0,1-.2-.26.41.41,0,0,1,0-.21.66.66,0,0,1,.2-.14l.17-.06.18,0Z"/></g><g class="cls-5"><path class="cls-6" d="M118.61,70.9h.4a1,1,0,0,1,.56.14.41.41,0,0,1,.2.36,1,1,0,0,1-.36.62l-.22.24-.29.24a2.1,2.1,0,0,1-.27.2,2.16,2.16,0,0,1-.34.17l-.5.21-.25.12h-.18s-.07,0-.13-.11l0-.08,0-.09a.28.28,0,0,1,.06-.18.52.52,0,0,1,.21-.15l.22-.06.25-.08a1,1,0,0,0,.26-.11,1.28,1.28,0,0,0,.83-.77l0,0,0,0-.19,0h-.44l-.08,0-.12.07-.09.05-.09,0h-.13a.16.16,0,0,1-.13-.06l-.1-.13,0-.11a.25.25,0,0,1,.12-.22,2.2,2.2,0,0,1,.47-.19A2,2,0,0,1,118.61,70.9Z"/></g><g class="cls-5"><path class="cls-6" d="M108.4,83.49h.24l.1.06a.5.5,0,0,1,.25.32l0,.18,0,.13a.25.25,0,0,1,0,.1l0,.14-.07.27-.1.25-.08.19-.1.21a1.24,1.24,0,0,1-.32.39l-.14,0-.08,0-.08,0-.08,0-.12-.09,0-.13a.25.25,0,0,1,0-.1.35.35,0,0,1,.06-.09l.12-.17.12-.18.22-.39.07-.21a.18.18,0,0,1,0-.06.14.14,0,0,0,0-.06l-.06,0a.35.35,0,0,0-.23.09l-.19.17-.42.35-.82.63-.3.21-.33.2-.26.15-.21.07h-.17l-.15,0-.09,0a.25.25,0,0,1-.11-.23v-.11a.2.2,0,0,1,0-.09l0-.11s.06-.07.16-.12l.22,0h.18l.12,0,.27-.13.41-.27.19-.15.2-.16.26-.23.26-.22.25-.23.27-.23A.67.67,0,0,1,108.4,83.49Z"/></g><g class="cls-5"><path class="cls-6" d="M109.32,80.09a.3.3,0,0,1,.19-.07c.19,0,.28.12.28.37v.09l0,.06a10.48,10.48,0,0,1-1.09.74,8,8,0,0,1-1.09.55l-.14,0-.11,0a.24.24,0,0,1-.22-.17l0-.1,0-.13c0-.1,0-.16.17-.2a6.1,6.1,0,0,0,.86-.46l.29-.16.41-.26Z"/></g><g class="cls-5"><path class="cls-6" d="M102.12,83.35l.19,0a.43.43,0,0,1,.26.16l.08.12a.27.27,0,0,0,.16.08.31.31,0,0,0,.13,0l.13-.11.09-.08.09-.08a.15.15,0,0,1,.09,0,.34.34,0,0,1,.15,0h.07l.07,0,.12.06,0,0s0,0,0,.06l.07.16,0,.13,0,0,.06,0a.67.67,0,0,0,.29-.08l.12-.09.12-.13.06,0,.08-.06.16-.09.13,0h.13a.09.09,0,0,1,.08.06l.08.09,0,.08a.44.44,0,0,1-.11.3l-.15.17a.31.31,0,0,1-.16.12l-.18.1-.22.09-.23.07-.39.07a.62.62,0,0,1-.33-.08l-.12-.1-.14-.14h-.24a.62.62,0,0,0-.2,0,.33.33,0,0,0-.13.07l-.26.25-.41.33-.41.31-.12.08-.15.1-.18.11-.58.33-.45.24a.78.78,0,0,1-.18.08.86.86,0,0,1-.21.07l-.17,0h-.2l-.12,0-.15-.06A.35.35,0,0,1,99,85.8a.27.27,0,0,1,.17-.26l.13,0h.44a1.09,1.09,0,0,0,.39-.15l.4-.21.47-.24.42-.28.32-.25.07-.09a.17.17,0,0,0,0-.1l-.15-.28v-.21s0-.06,0-.07l.08-.11A.59.59,0,0,1,102.12,83.35Z"/></g><g class="cls-5"><path class="cls-6" d="M100.23,83.31h.25l.14,0c.08,0,.13.06.13.17v.14a.22.22,0,0,1-.07.17.45.45,0,0,1-.22.1l-.3,0h-.09l-.17,0-.27.08c-.1,0-.15.06-.16.11l.08.13,0,.05,0,.06.05.12a.65.65,0,0,1,0,.22V85a.37.37,0,0,1,0,.15l-.08.16,0,.06,0,.06-.07.07-.09.06-.28.13-.17,0H97.49l-.17,0a.42.42,0,0,1-.14-.06l-.05,0L97,85.56a.48.48,0,0,1-.13-.33.24.24,0,0,1,0-.15L97,85l.1-.08a.72.72,0,0,1,.27-.09.22.22,0,0,1,.16.09l.08.1.13.1.16,0h.65A.49.49,0,0,0,99,85v-.16a.33.33,0,0,0-.07-.16l-.09-.1-.1-.12-.12-.17,0-.21a.34.34,0,0,1,0-.17l.12-.08.18-.09.17-.11a1.06,1.06,0,0,1,.25-.11l.3-.1A1.75,1.75,0,0,1,100.23,83.31Z"/></g><g class="cls-5"><path class="cls-6" d="M101.5,79.53l.09,0,.08,0a.19.19,0,0,1,.07.11l.05.13,0,.11c0,.17-.08.25-.22.25l-.41.08-.17.06-.12.06-.13.07a.44.44,0,0,0-.1.08l-.13.12-.11.15a.22.22,0,0,0,.1.15l.17.07.17,0h.42l.17,0,.09,0a.24.24,0,0,1,.1.23.23.23,0,0,1-.16.23l-.23,0-.3,0h-.24l-.11,0-.32-.06a.65.65,0,0,1-.41-.23,1.16,1.16,0,0,1-.14-.51l-.06.08a.21.21,0,0,1-.11.08l-.08.08-.25.18-.38.25-.27.15-.23.14-.24.1-.21.08-.16,0h-.12c-.15,0-.22-.08-.22-.25l0-.16a.22.22,0,0,1,.12-.11l.17,0,.21-.07a2.54,2.54,0,0,0,.85-.46l.17-.14.17-.17-.65,0-.18,0h-.09l-.1,0c-.11,0-.16-.13-.16-.28a.27.27,0,0,1,.23-.28l.25,0H99a.88.88,0,0,1,.47.11.3.3,0,0,1,.1.14l.09.15.09.22.11-.11.07,0,0,0,.09,0,.17-.16.27-.18.49-.32A.86.86,0,0,1,101.5,79.53Z"/></g><g class="cls-5"><path class="cls-6" d="M95.47,83.35a.53.53,0,0,1,.37.11.19.19,0,0,1,.08.15v.06l0,.06-.08.07-.07,0-.11.06a.34.34,0,0,0-.06.17.32.32,0,0,0,.11.26l.14.09.06,0,.09,0,.15,0a.28.28,0,0,0,.12-.08l.11-.09.13-.09.21,0h.09a.4.4,0,0,1,.14.13l0,.07v.09a.54.54,0,0,1-.09.17l-.14.1-.17.11-.2.14-.6.39-.68.4-.37.2-.31.16-.29.14-.37.15-.26.08c-.28,0-.43-.12-.43-.36a.53.53,0,0,1,.08-.23.29.29,0,0,1,.08-.1.16.16,0,0,1,.09,0l.1,0,.15,0,.15,0a1.81,1.81,0,0,0,.38-.16l.69-.35.33-.19.44-.29a.09.09,0,0,0,0-.08h-.1l-.17,0a.59.59,0,0,1-.24-.16l-.06-.08,0-.11,0-.2v-.08a.14.14,0,0,1,0-.07l.09-.22a.67.67,0,0,1,.2-.27l.07-.06.09,0Z"/></g><g class="cls-5"><path class="cls-6" d="M97.38,87.68a.24.24,0,0,1,.24.15l0,.12V88a.1.1,0,0,1,0,.09l-.09.11-.07,0-.14.07-.15.07-.26.25-.25.18-.42.27-.38.23-.21.12-.25.12-.42.16-.16,0a.34.34,0,0,1-.22-.1.4.4,0,0,1-.09-.24l0-.11a.12.12,0,0,1,0-.08l.06,0,.19-.1.44-.19.36-.18.24-.11.23-.13.43-.28.25-.16.22-.18.24-.13A.27.27,0,0,1,97.38,87.68Z"/></g><g class="cls-5"><path class="cls-6" d="M93.32,84.24v.26l0,.12a.18.18,0,0,1,0,.1l-.15.21L93,85a.88.88,0,0,1-.73.27h-.15l-.11,0-.08,0-.09,0-.18-.11-.17-.15-.16-.2,0,0a.54.54,0,0,0-.17.09l-.17.15-.21.22.21.09.15.08a.41.41,0,0,1,.18.64.88.88,0,0,1-.27.29,1.28,1.28,0,0,1-.29.16l-.19.08-.36.14-.14,0-.36.08h-.15l-.11,0-.11,0-.15-.06a.19.19,0,0,1-.07-.08l0-.22a.41.41,0,0,1,0-.23l.08-.06.13,0h.23l.34.09h.24a.58.58,0,0,0,.43-.15l.09-.11,0-.12c0-.1-.09-.18-.26-.24l-.23-.08c-.13,0-.19-.14-.19-.31a.57.57,0,0,1,.14-.25l.5-.47.19-.16L91.1,84l.37-.21a2.29,2.29,0,0,1,1.14-.32l.18,0a.56.56,0,0,1,.34.26l.1.16a.43.43,0,0,1,.06.17Zm-.6.15a.27.27,0,0,0-.26-.29h-.12a.58.58,0,0,0-.19,0,.85.85,0,0,0-.21.11l-.09.08-.07.07.18.18a.57.57,0,0,0,.16.09l.08,0,.14,0a.44.44,0,0,0,.23-.06l.08,0,0-.07Z"/></g><g class="cls-5"><path class="cls-6" d="M92.91,87.49c.17,0,.26.13.26.4,0,0,0,.06-.11.12l-.14.1-.19.13-1,.59-1,.6a.2.2,0,0,1-.1,0c-.17,0-.25-.11-.25-.32s.09-.22.28-.33l.42-.22.38-.22.67-.42A3.55,3.55,0,0,1,92.91,87.49Zm.34,1.09.08,0,.12,0a.26.26,0,0,1,.26.19l0,.17a.17.17,0,0,1-.07.15l-1.45.86-.68.39-.11,0-.13,0a.34.34,0,0,1-.23-.14l0-.1V90a.24.24,0,0,1,.1-.17,1.44,1.44,0,0,1,.34-.24l.58-.3.68-.4Z"/></g><g class="cls-5"><path class="cls-6" d="M88.26,83.35h.46a.73.73,0,0,1,.23,0l.24.06c.29.07.44.2.44.39a.54.54,0,0,1-.09.27,1.3,1.3,0,0,1-.1.15l-.15.16-.23.2-.26.21-.23.17-.34.23a10.2,10.2,0,0,1-1,.57l-.43.21-.2.07-.26.08-.18,0-.14,0-.07,0-.12-.08-.07-.15,0-.05q0-.27.18-.3l.19,0h.17l.19,0,.11,0a.7.7,0,0,0,.14,0l.16-.07.22-.11.35-.18A.85.85,0,0,0,87.6,85l.28-.15.3-.16.18-.12.11-.08.15-.13a1.26,1.26,0,0,0,.2-.2l.05-.06,0,0a.08.08,0,0,0,0-.05l-.09,0-.08,0h-.2l-.15,0h-.1l-.32.05h-.05l-.09,0-.1,0-.07,0h-.24l-.14,0a.28.28,0,0,1-.2-.25.41.41,0,0,1,0-.21.66.66,0,0,1,.2-.14l.17-.06.18,0Z"/></g><g class="cls-5"><path class="cls-6" d="M89,79.59h.3l.1,0a1.08,1.08,0,0,1,.56.13.44.44,0,0,1,.2.37,1,1,0,0,1-.36.62l-.22.24-.28.24a3.39,3.39,0,0,1-.28.2l-.33.17-.51.21-.25.12h-.17s-.08,0-.14-.11l0-.08,0-.09a.35.35,0,0,1,.06-.18.52.52,0,0,1,.21-.15l.22-.06.25-.08.26-.11a1.28,1.28,0,0,0,.83-.77l0,0-.06,0-.19,0h-.44l-.08,0-.12.06-.09,0-.09,0h-.13a.16.16,0,0,1-.13-.06l-.1-.13,0-.11a.24.24,0,0,1,.12-.22,2.09,2.09,0,0,1,.48-.19A1.88,1.88,0,0,1,89,79.59Z"/></g><g class="cls-5"><path class="cls-6" d="M110.79,96.23l.11-.08.11,0,.16,0a.17.17,0,0,1,.1.1l0,.12a.28.28,0,0,1,0,.15l-.14.12-.19.21-.13.09-.09.08-.76.47-.78.44-.38.2-.37.15-.38.15a1.1,1.1,0,0,1-.38.07.62.62,0,0,1-.33-.11l-.11-.09,0-.07s0,0,0-.08v-.09s0-.06,0-.07a.31.31,0,0,1,.16-.18l.15,0,.14,0H108a1.36,1.36,0,0,0,.59-.15l.42-.2.93-.54.66-.43Z"/></g><g class="cls-5"><path class="cls-6" d="M110.91,92.4h.4a1,1,0,0,1,.56.14.41.41,0,0,1,.2.36,1,1,0,0,1-.36.62l-.22.24-.29.24a2.1,2.1,0,0,1-.27.2,2.16,2.16,0,0,1-.34.17l-.5.21-.25.12h-.18s-.07,0-.13-.11l0-.08,0-.09a.28.28,0,0,1,.06-.18.52.52,0,0,1,.21-.15l.22-.06.25-.08.26-.11a1.28,1.28,0,0,0,.83-.77l0,0,0,0L111,93h-.44l-.08,0-.12.07-.09.05-.09,0H110a.15.15,0,0,1-.13-.06l-.1-.13,0-.11a.25.25,0,0,1,.12-.22,2.2,2.2,0,0,1,.47-.19A2,2,0,0,1,110.91,92.4Z"/></g><g class="cls-5"><path class="cls-6" d="M106.47,96.16a.57.57,0,0,1,.38.11.21.21,0,0,1,.07.15v.07l0,.05-.08.07-.07,0-.11.07a.27.27,0,0,0-.06.16.3.3,0,0,0,.12.26l.13.09.06,0,.09,0,.15,0a.47.47,0,0,0,.12-.09l.11-.09.13-.09.21,0h.09a.54.54,0,0,1,.14.13l0,.07v.09a.54.54,0,0,1-.09.17l-.14.1-.17.11-.2.14-.6.39-.68.4-.37.2-.31.16-.29.14-.37.15-.26.08q-.42,0-.42-.36a.49.49,0,0,1,.07-.23.29.29,0,0,1,.08-.1.16.16,0,0,1,.09,0l.1,0,.15,0,.15,0a1.61,1.61,0,0,0,.38-.16l.69-.35.34-.19.43-.28a.1.1,0,0,0,0-.09h-.1l-.17-.05a.5.5,0,0,1-.24-.16l0-.08,0-.11,0-.2v-.08a.14.14,0,0,1,0-.07l.09-.22a.84.84,0,0,1,.2-.27l.07,0,.09,0Z"/></g><g class="cls-5"><path class="cls-6" d="M107.63,92.4h.4a1,1,0,0,1,.56.14.41.41,0,0,1,.2.36,1,1,0,0,1-.36.62l-.22.24-.29.24a3.16,3.16,0,0,1-.27.2,2.16,2.16,0,0,1-.34.17l-.5.21-.25.12h-.18s-.08,0-.14-.11l0-.08,0-.09a.28.28,0,0,1,.06-.18.52.52,0,0,1,.21-.15l.21-.06.26-.08.26-.11a1.28,1.28,0,0,0,.83-.77l0,0,0,0-.19,0h-.44l-.08,0-.12.07-.09.05-.09,0h-.13a.18.18,0,0,1-.14-.06l-.09-.13,0-.11a.24.24,0,0,1,.11-.22,2.53,2.53,0,0,1,.48-.19A2,2,0,0,1,107.63,92.4Z"/></g><g class="cls-5"><path class="cls-6" d="M104.59,96h.1l.08,0a.36.36,0,0,1,.16.18l0,.18a.2.2,0,0,1-.09.2l-.33.14.16.17a.5.5,0,0,1,.16.37v.22a.09.09,0,0,1,0,.06.83.83,0,0,1-.45.59l-.25.14-.16,0-.22,0h-.2l-.22,0-.41-.1-.07,0-.27.22-.13.12-.16.12-.35.26-.15.09-.26.17-.25.15-.5.28-.11,0-.11.06-.21.11-.2,0a.47.47,0,0,1-.43-.24l0-.07,0-.13a.26.26,0,0,1,.07-.19l.1-.07.07,0h.43a.76.76,0,0,0,.33-.08l.56-.3.2-.12.32-.22.21-.15.14-.14.11-.09.12-.13-.08-.16,0-.1,0-.1a.41.41,0,0,1,.23-.26l.18,0h.11l.16.07a.29.29,0,0,1,.15.16l0,.14,0,0,.15.1.15.06h.2l.12,0,.11,0a.71.71,0,0,0,.27-.18l.07-.11,0-.09a.3.3,0,0,0,0-.18l-.08-.1L104,97l-.11-.07-.21-.1-.2-.15,0-.07,0-.11a.12.12,0,0,1,.07-.12l.19-.09H104l.12,0,.12-.09.12-.06.11-.05Z"/></g><g class="cls-5"><path class="cls-6" d="M103.8,92.4h.4a1,1,0,0,1,.56.14.41.41,0,0,1,.2.36,1,1,0,0,1-.36.62l-.22.24-.29.24a2.1,2.1,0,0,1-.27.2,2.16,2.16,0,0,1-.34.17l-.5.21-.25.12h-.18s-.07,0-.13-.11l0-.08,0-.09a.28.28,0,0,1,.06-.18.52.52,0,0,1,.21-.15l.22-.06.25-.08.26-.11a1.28,1.28,0,0,0,.83-.77l0,0,0,0-.19,0h-.44l-.08,0-.12.07-.09.05-.09,0h-.13a.15.15,0,0,1-.13-.06l-.1-.13,0-.11a.25.25,0,0,1,.12-.22,2.2,2.2,0,0,1,.47-.19A2,2,0,0,1,103.8,92.4Z"/></g><g class="cls-5"><path class="cls-6" d="M100.44,96.3h.25l.1.06a.53.53,0,0,1,.25.32l0,.19,0,.12s0,.08,0,.1l0,.15-.08.26-.09.25-.08.19-.11.21a1.1,1.1,0,0,1-.31.39l-.14,0-.08,0-.08,0-.08,0-.12-.08,0-.14a.28.28,0,0,1,0-.1.35.35,0,0,1,.06-.09l.12-.17.12-.18.21-.39.07-.21s0,0,0-.06a.07.07,0,0,0,0-.06l0,0a.35.35,0,0,0-.23.09l-.19.17-.42.35-.82.63-.3.21-.33.2-.26.15-.21.07h-.17l-.15,0-.1,0c-.07,0-.1-.11-.1-.23v-.11a.2.2,0,0,1,0-.09l0-.11s.07-.07.17-.12l.21,0h.18l.13,0,.26-.13.41-.27.2-.15.2-.16.26-.23.26-.22.25-.23.26-.23A.7.7,0,0,1,100.44,96.3Z"/></g><g class="cls-5"><path class="cls-6" d="M101.36,93.32q0,.72-1,1.23a1.32,1.32,0,0,1-.64.19c-.61,0-.92-.26-.92-.78a1.3,1.3,0,0,1,.53-1,1.73,1.73,0,0,1,1.12-.44.86.86,0,0,1,.34.06.61.61,0,0,1,.28.16A.76.76,0,0,1,101.36,93.32Zm-.58.09c0-.22-.15-.33-.46-.33a.84.84,0,0,0-.57.27.8.8,0,0,0-.28.59c0,.13.09.2.28.2h.14a1,1,0,0,0,.56-.25A.64.64,0,0,0,100.78,93.41Z"/></g><g class="cls-5"><path class="cls-6" d="M96.48,95.69l.12,0h.11a.22.22,0,0,1,.15.1s0,0,0,.09v.08a.45.45,0,0,1-.27.31l-.15.08.07,0,.17.1a.43.43,0,0,1,.14.12.24.24,0,0,1,0,.15.47.47,0,0,1-.2.31l-.6.28.17.09.17.11a1.26,1.26,0,0,1,0,.19v.06a.23.23,0,0,1,0,.09l-.16.15-.34.26-.37.27-.29.21-.79.53-.28.18-.25.13-.08,0-.13.06-.32.14a1.31,1.31,0,0,1-.39.11.33.33,0,0,1-.15,0l-.09,0-.07-.06a.17.17,0,0,1-.06-.1.33.33,0,0,1,0-.15c0-.16.11-.26.34-.32l.16,0,.11,0,.14,0,.13-.05a.37.37,0,0,0,.15,0l.21-.09.2-.11.74-.47.36-.24.5-.36-.28-.19a.31.31,0,0,1-.12-.24.19.19,0,0,1,0-.1.88.88,0,0,1,.14-.15l.23-.12.35-.17-.15-.1-.2-.11-.1-.06,0-.05,0-.09v-.1l0,0,.13-.11h0l.06,0a1.06,1.06,0,0,0,.19-.06l.15-.07a.52.52,0,0,0,.15-.07l.13-.09Z"/></g><g class="cls-5"><path class="cls-6" d="M96.75,92l.1-.06a.16.16,0,0,1,.1,0c.19,0,.28.12.28.37a.21.21,0,0,1-.06.16c-.39.29-.78.55-1.16.78-.18.1-.35.2-.52.28s-.34.16-.51.23l-.25.08a.28.28,0,0,1-.12,0,.48.48,0,0,1-.09-.13l0-.07v-.11s0,0,0-.06a.27.27,0,0,1,.06-.14s0,0,0,0l.07,0a3,3,0,0,0,.88-.4A8.47,8.47,0,0,0,96.75,92Zm.57,1a.32.32,0,0,1,.2-.07c.19,0,.28.12.28.37a.22.22,0,0,1,0,.09l-.06.06a9,9,0,0,1-1.08.74,8.57,8.57,0,0,1-1.09.55l-.14,0-.11,0a.25.25,0,0,1-.23-.16V94.4c0-.09.06-.15.17-.19a6.58,6.58,0,0,0,.87-.46l.29-.17.41-.25C97,93.2,97.18,93.09,97.32,93Z"/></g><g class="cls-5"><path class="cls-6" d="M89,99.06a.54.54,0,0,1-.35-.09.34.34,0,0,1-.12-.29v-.1a.18.18,0,0,1,.1-.16.52.52,0,0,1,.22-.07,1.78,1.78,0,0,0,.7-.17l.58-.32a1.29,1.29,0,0,0,.33-.17l.39-.27.15-.1.17-.14-.08-.07L91,97l-.06-.13v-.14a.34.34,0,0,1,0-.13l.1-.09a.41.41,0,0,1,.26-.1,1,1,0,0,1,.34.1l.1.07.14.08.39-.21.46-.26L93,96a1.85,1.85,0,0,1,.48-.15.48.48,0,0,1,.23.08.26.26,0,0,1,.09.21v.08a.26.26,0,0,1-.09.13l-.16.11-.1,0-.26.12-.25.11-.39.11-.2.05.31.16.24.12.12.11,0,0v.07a.24.24,0,0,1,0,.08l0,.08a.22.22,0,0,1-.11.12l-.13.05-.16,0h-.1l-.63-.33-.22.14-.22.17-.31.18-.43.27-.78.45-.31.17-.31.15-.16.06Z"/></g><g class="cls-5"><path class="cls-6" d="M92.39,92.4h.41a1,1,0,0,1,.56.14.41.41,0,0,1,.2.36,1.1,1.1,0,0,1-.36.62l-.23.24-.28.24a3.16,3.16,0,0,1-.27.2,2.16,2.16,0,0,1-.34.17l-.5.21-.25.12h-.18s-.07,0-.14-.11l0-.08,0-.09a.28.28,0,0,1,.06-.18.52.52,0,0,1,.21-.15l.21-.06.26-.08.26-.11a1.28,1.28,0,0,0,.83-.77l-.05,0,0,0-.19,0H92L92,93l-.12.07-.09.05-.09,0h-.13a.18.18,0,0,1-.14-.06L91.29,93l0-.11a.24.24,0,0,1,.11-.22,2.53,2.53,0,0,1,.48-.19A2,2,0,0,1,92.39,92.4Z"/></g><g class="cls-5"><path class="cls-6" d="M147.8,124.28H148l.1,0a.49.49,0,0,1,.25.33l0,.18,0,.13a.25.25,0,0,1,0,.1l0,.14-.07.27-.09.25-.09.19-.1.21a1.12,1.12,0,0,1-.32.39l-.14,0-.07,0-.09,0-.08,0-.12-.09,0-.13s0-.08,0-.1a.24.24,0,0,1,.06-.09l.12-.17.13-.18.21-.39.07-.21a.35.35,0,0,0,0-.06.14.14,0,0,0,0-.06l-.06,0a.43.43,0,0,0-.23.08l-.19.18-.42.34-.82.64-.29.21-.34.2-.25.15-.22.07h-.16l-.16,0-.09,0c-.07,0-.1-.11-.1-.22v-.11a.22.22,0,0,1,0-.09l.05-.11s.06-.07.16-.12l.22,0h.18l.13,0,.26-.13.41-.27.19-.15.2-.16.26-.23.26-.22.25-.24.27-.22A.67.67,0,0,1,147.8,124.28Z"/></g><g class="cls-5"><path class="cls-6" d="M147.72,120.38h.3l.11,0a1,1,0,0,1,.55.13.42.42,0,0,1,.2.37,1,1,0,0,1-.36.62l-.22.24L148,122a2.26,2.26,0,0,1-.28.2,2.55,2.55,0,0,1-.33.17l-.51.21-.25.12h-.17s-.08,0-.14-.11l0-.08,0-.09a.31.31,0,0,1,.06-.19.54.54,0,0,1,.2-.14l.22-.06L147,122a1.25,1.25,0,0,0,.26-.11,1.3,1.3,0,0,0,.84-.77l-.05,0-.06,0-.19,0h-.43l-.09,0-.11.06-.1.05-.08,0h-.14a.2.2,0,0,1-.13-.06l-.09-.13,0-.11a.24.24,0,0,1,.12-.22,2.53,2.53,0,0,1,.48-.19A1.88,1.88,0,0,1,147.72,120.38Z"/></g><g class="cls-5"><path class="cls-6" d="M141.54,124.14l.19,0a.48.48,0,0,1,.27.16l.07.12a.27.27,0,0,0,.16.08.34.34,0,0,0,.14,0l.12-.12.09-.07.09-.08a.18.18,0,0,1,.1,0,.28.28,0,0,1,.14,0H143l.07,0,.12.06.05,0s0,0,0,.06l.07.15,0,.14,0,0,.07,0a.67.67,0,0,0,.28-.08l.12-.1.12-.13.06,0,.08-.06.16-.09.14,0h.12a.09.09,0,0,1,.08.06l.08.09,0,.08a.44.44,0,0,1-.11.3l-.14.17a.41.41,0,0,1-.17.12l-.18.1-.22.09-.22.07-.4.07a.73.73,0,0,1-.33-.08l-.12-.11-.13-.13h-.25a.5.5,0,0,0-.19,0,.23.23,0,0,0-.13.07l-.27.25-.41.33-.41.31L141,126l-.15.1-.19.11-.58.33-.45.24-.18.08a1,1,0,0,1-.2.07l-.18,0h-.32l-.14-.06a.34.34,0,0,1-.18-.35.27.27,0,0,1,.17-.26l.13,0h.45a1.24,1.24,0,0,0,.39-.15l.4-.21.46-.24.42-.28.32-.25.08-.1a.46.46,0,0,0,0-.09l-.15-.28,0-.14v-.07a.1.1,0,0,1,0-.07l.08-.11A.56.56,0,0,1,141.54,124.14Z"/></g><g class="cls-5"><path class="cls-6" d="M139.65,124.1h.25l.15,0c.08,0,.12.06.12.17v.14a.2.2,0,0,1-.07.16.44.44,0,0,1-.22.11l-.3,0h-.09l-.16.05-.28.08c-.09,0-.14.06-.15.11l.08.12,0,.06,0,.06,0,.12a.61.61,0,0,1,0,.22v.25a.5.5,0,0,1-.05.15l-.08.16,0,.06-.06.06-.07.07-.09.06-.28.13-.17,0h-1.37l-.17,0a.37.37,0,0,1-.14-.07l0,0-.11-.09a.49.49,0,0,1-.14-.33.25.25,0,0,1,0-.15l.1-.11.1-.08a.71.71,0,0,1,.28-.09.2.2,0,0,1,.15.09l.08.1.14.1.15,0H138a.48.48,0,0,0,.44-.17v-.16a.33.33,0,0,0-.07-.16l-.09-.1-.09-.12-.13-.17,0-.21a.34.34,0,0,1,.05-.17l.13-.08.17-.09.17-.11.25-.12.3-.09A1.79,1.79,0,0,1,139.65,124.1Z"/></g><g class="cls-5"><path class="cls-6" d="M137.7,120.42h.13l.11,0,.3,0,.3.08.22.1a.51.51,0,0,1,.29.41l0,.15-.08.13-.09.12-.21.18-.75.5-.7.36-.29.13-.26,0a.34.34,0,0,1-.2-.08l0-.1,0-.12,0-.13s0-.06.09-.11l.25-.12.45-.2.6-.3.24-.13.18-.13,0-.07c0-.12-.16-.17-.46-.17l-.3,0-.37.12c-.26,0-.38-.1-.38-.31a.21.21,0,0,1,.06-.18.41.41,0,0,1,.2-.13l.36-.12Zm2.58,0a2,2,0,0,1,.5.08l.15,0,.11.06.22.15a.38.38,0,0,1,.15.16.41.41,0,0,1,.05.23l0,.08-.05.09-.11.14-.11.13-.11.12-.15.12-.41.33-.41.28-.37.21-.16,0-.17,0h-.13s-.06,0-.11-.06l-.06-.11a.22.22,0,0,0,0-.09.17.17,0,0,1,.07-.14l.13-.07.17-.08.25-.12.43-.24.33-.26.17-.15s0-.07.07-.15a.14.14,0,0,0-.11-.16l-.26,0h-.16l-.12,0-.13.06-.1,0-.09,0-.22,0-.09,0,0,0-.06,0,0-.14v-.09l.06-.09a1.11,1.11,0,0,1,.16-.12l.12-.05.11,0a.92.92,0,0,1,.26-.07l.19,0Z"/></g><g class="cls-5"><path class="cls-6" d="M135.84,123.67l.12,0h.11a.24.24,0,0,1,.15.09.22.22,0,0,1,0,.09v.09a.49.49,0,0,1-.27.31l-.15.08.07,0,.17.1a.43.43,0,0,1,.14.12.23.23,0,0,1,0,.14.45.45,0,0,1-.2.32l-.6.28.17.09.17.11a1.26,1.26,0,0,1,0,.19v.06a.16.16,0,0,1,0,.08l-.16.16-.34.26-.37.27-.29.21-.79.52-.28.19-.25.12-.08,0-.12.06-.33.14a1.31,1.31,0,0,1-.39.11.33.33,0,0,1-.15,0l-.09-.05-.07-.06a.21.21,0,0,1-.06-.1.35.35,0,0,1,0-.16c0-.15.11-.26.35-.31l.15,0,.11,0,.14,0,.13,0,.15,0,.21-.09.2-.12.74-.46.36-.24.5-.37-.28-.18a.31.31,0,0,1-.12-.24.23.23,0,0,1,0-.11l.14-.14.23-.12.35-.17-.15-.1-.2-.11-.1-.07-.05,0,0-.1v-.09l0,0a.91.91,0,0,0,.13-.1h0l.06,0,.19-.06a.52.52,0,0,1,.15-.07l.15-.07.13-.1Z"/></g><g class="cls-5"><path class="cls-6" d="M136.09,119.94l.1-.06h.1c.19,0,.28.12.28.37a.19.19,0,0,1-.07.16,13,13,0,0,1-1.15.78c-.18.1-.35.2-.52.28s-.34.16-.51.22l-.24.09a.21.21,0,0,1-.13,0,.32.32,0,0,1-.1-.12v-.18a.35.35,0,0,1,0-.06.27.27,0,0,1,.06-.14l0-.06.07,0a2.76,2.76,0,0,0,.88-.4A7.67,7.67,0,0,0,136.09,119.94Zm.57,1a.32.32,0,0,1,.2-.07c.19,0,.28.12.28.37a.22.22,0,0,1,0,.09.17.17,0,0,1-.06.06,10.37,10.37,0,0,1-1.08.74,8.57,8.57,0,0,1-1.09.55l-.14,0-.12,0c-.09,0-.16,0-.22-.17v-.23a.22.22,0,0,1,.17-.2,5.49,5.49,0,0,0,.87-.46l.28-.16.42-.26C136.35,121.18,136.52,121.07,136.66,121Z"/></g><g class="cls-5"><path class="cls-6" d="M128.15,127a.53.53,0,0,1-.34-.09.34.34,0,0,1-.12-.29v-.1a.17.17,0,0,1,.1-.16.52.52,0,0,1,.22-.07,2,2,0,0,0,.7-.17l.58-.32a1.11,1.11,0,0,0,.33-.18l.38-.26.16-.1.17-.14-.08-.07-.14-.16-.06-.13v-.14a.34.34,0,0,1,0-.13l.1-.09a.42.42,0,0,1,.26-.11,1,1,0,0,1,.33.11l.11.06.13.09.4-.21.46-.26.24-.1a1.87,1.87,0,0,1,.49-.15.78.78,0,0,1,.23.07c.05,0,.08.1.09.22v.08a.26.26,0,0,1-.09.13l-.17.11-.09,0-.26.12-.25.1-.39.12-.2,0,.31.15.24.13.12.11,0,0v.07a.24.24,0,0,1,0,.08l0,.08a.18.18,0,0,1-.1.11l-.13.06-.17,0h-.09l-.64-.33-.22.14-.22.16-.3.19-.43.27-.78.45-.32.17-.3.15-.16,0Z"/></g><g class="cls-5"><path class="cls-6" d="M131.52,120.38h.31l.1,0a1.1,1.1,0,0,1,.56.13.43.43,0,0,1,.19.37,1.07,1.07,0,0,1-.35.62l-.23.24-.28.24a2.26,2.26,0,0,1-.28.2,2.55,2.55,0,0,1-.33.17l-.5.21-.25.12h-.18s-.08,0-.14-.11l0-.08,0-.09a.31.31,0,0,1,.06-.19.51.51,0,0,1,.21-.14l.21-.06.25-.08a1.89,1.89,0,0,0,.27-.11,1.28,1.28,0,0,0,.83-.77l0,0-.06,0-.18,0h-.44l-.08,0-.12.06-.09.05-.09,0h-.14a.22.22,0,0,1-.13-.06l-.09-.13,0-.11a.24.24,0,0,1,.12-.22,2.53,2.53,0,0,1,.48-.19A2,2,0,0,1,131.52,120.38Z"/></g><g class="cls-5"><path class="cls-6" d="M148,148.66h.18a.39.39,0,0,1,.16.19l0,.18a.23.23,0,0,1-.08.2l-.34.14.16.16a.5.5,0,0,1,.16.37v.22s0,0,0,.06a.85.85,0,0,1-.45.6l-.24.13-.18.06-.2,0h-.22l-.21,0-.41-.1-.07,0-.27.23-.13.11-.16.13-.35.25-.15.1-.26.16-.25.15-.5.28-.11,0-.12.05-.2.12-.2,0a.47.47,0,0,1-.43-.25l0-.06,0-.14a.25.25,0,0,1,.07-.18l.1-.08.07,0h.44a.79.79,0,0,0,.32-.08l.56-.3.2-.13.32-.21.21-.15.14-.14.11-.09.12-.13-.08-.16,0-.1,0-.11a.43.43,0,0,1,.23-.26l.18,0h.11l.16.08a.26.26,0,0,1,.15.16l0,.14,0,0,.15.09.15.06h.2l.13,0,.1,0a.67.67,0,0,0,.27-.17l.07-.11,0-.1a.35.35,0,0,0,0-.18l-.08-.09-.12-.07-.11-.07-.21-.11-.2-.14,0-.08,0-.1a.11.11,0,0,1,.07-.12l.19-.09h.35l.13-.06.11-.08.12-.07.11,0Z"/></g><g class="cls-5"><path class="cls-6" d="M147.22,145.1h.3l.1,0a1,1,0,0,1,.56.13.42.42,0,0,1,.2.36,1.06,1.06,0,0,1-.36.63l-.22.24-.29.24-.27.2-.34.17-.5.21-.25.11-.18,0s-.07,0-.14-.11l0-.08,0-.09a.29.29,0,0,1,.06-.19.51.51,0,0,1,.21-.14l.21-.06.26-.09a1.14,1.14,0,0,0,.26-.1,1.28,1.28,0,0,0,.83-.77l0,0-.06,0-.19,0h-.44l-.08,0-.12.06-.09.05-.09,0h-.13a.3.3,0,0,1-.14-.06l-.09-.13,0-.11a.25.25,0,0,1,.11-.22,3.45,3.45,0,0,1,.48-.2A2.48,2.48,0,0,1,147.22,145.1Z"/></g><g class="cls-5"><path class="cls-6" d="M144.23,149.75c0,.26-.25.57-.77.92l-.94.63-.4.24a3.68,3.68,0,0,1-1.43.63c-.33,0-.49-.13-.49-.39a.36.36,0,0,1,.17-.3.49.49,0,0,1,.25,0h0l.07,0,.09,0,0,0H141l.1,0,.16,0,.43-.22.17-.09.29-.19.17-.11c-.36-.16-.53-.36-.53-.6a1,1,0,0,1,.38-.78l.17-.12.19-.13a1.64,1.64,0,0,1,.79-.21,1.07,1.07,0,0,1,.72.28A.55.55,0,0,1,144.23,149.75Zm-.65-.07q-.06-.12-.39-.12a1,1,0,0,0-.59.27l-.08.09-.09.14,0,.11c0,.07,0,.13.14.19a.32.32,0,0,0,.11,0l.1,0,.16,0,.27-.14c.28-.18.43-.33.43-.45A.07.07,0,0,0,143.58,149.68Z"/></g><g class="cls-5"><path class="cls-6" d="M143.87,144.66l.1-.06.11,0c.18,0,.27.13.27.38a.18.18,0,0,1-.06.15,13.09,13.09,0,0,1-1.16.78l-.52.29c-.17.08-.34.16-.51.22l-.24.08a.22.22,0,0,1-.13,0,.36.36,0,0,1-.09-.13l0-.07v-.11a.07.07,0,0,1,0,0,.3.3,0,0,1,.05-.14l0-.06.08,0a2.86,2.86,0,0,0,.87-.4A7.21,7.21,0,0,0,143.87,144.66Zm.58,1a.3.3,0,0,1,.19-.07c.19,0,.28.12.28.37a.22.22,0,0,1,0,.09.13.13,0,0,1,0,.06,11.55,11.55,0,0,1-1.08.74c-.37.21-.73.39-1.09.55l-.15.05-.11,0a.25.25,0,0,1-.22-.17l0-.1,0-.13c0-.09,0-.16.17-.2a6.1,6.1,0,0,0,.86-.46l.29-.16.41-.26C144.14,145.9,144.3,145.78,144.45,145.68Z"/></g><g class="cls-5"><path class="cls-6" d="M139.88,148.38l.11,0h.12a.25.25,0,0,1,.15.1.22.22,0,0,1,0,.09v.08a.52.52,0,0,1-.27.32l-.15.07.07.05.17.09a.92.92,0,0,1,.14.13.23.23,0,0,1,0,.14c0,.1-.07.2-.2.32l-.6.27.17.1.17.11a1.34,1.34,0,0,1,0,.18v.06a.16.16,0,0,1,0,.09l-.16.16-.34.26-.37.26-.29.21-.79.53-.28.18-.25.13-.08,0-.13.07-.32.13a1.13,1.13,0,0,1-.39.12.33.33,0,0,1-.15,0l-.09-.05-.07-.06a.21.21,0,0,1-.06-.1.35.35,0,0,1,0-.16c0-.15.11-.26.34-.31l.16,0a.35.35,0,0,0,.11,0l.14,0,.13,0,.15-.05.21-.09.2-.12.74-.47.36-.24.5-.36-.28-.18a.31.31,0,0,1-.12-.24.23.23,0,0,1,0-.11l.14-.15.23-.11.35-.17-.16-.1-.19-.11-.1-.07,0,0-.05-.09,0,0,0-.06,0,0,.13-.1h0l.06,0,.19-.07.15-.06.14-.07.14-.1Z"/></g><g class="cls-5"><path class="cls-6" d="M140.93,145.59a.4.4,0,0,1,.2-.07c.19,0,.28.13.28.38l0,.08s0,.05,0,.07a9.77,9.77,0,0,1-1.08.73,8.65,8.65,0,0,1-1.09.56l-.14,0-.11,0c-.1,0-.17-.06-.23-.18V147c0-.09.06-.15.18-.19a6.1,6.1,0,0,0,.86-.46l.28-.16.42-.26A6,6,0,0,0,140.93,145.59Z"/></g><g class="cls-5"><path class="cls-6" d="M132.43,151.76a.54.54,0,0,1-.35-.09.34.34,0,0,1-.12-.29v-.1a.17.17,0,0,1,.1-.16.53.53,0,0,1,.22-.08,1.83,1.83,0,0,0,.7-.16l.58-.32a1.11,1.11,0,0,0,.33-.18l.38-.27.16-.09.17-.15-.08-.06-.14-.16-.06-.14v-.13a.43.43,0,0,1,0-.14l.1-.08a.42.42,0,0,1,.26-.11,1,1,0,0,1,.34.11l.1.06.14.08.39-.2.46-.26.24-.1a2,2,0,0,1,.49-.15.56.56,0,0,1,.23.07.26.26,0,0,1,.09.21V149a.31.31,0,0,1-.09.13l-.16.11-.1,0-.26.12-.25.1-.39.12-.2,0,.31.15.24.12.12.12,0,0v.07a.31.31,0,0,1,0,.08l0,.08a.23.23,0,0,1-.11.11l-.13.06-.17,0s-.07,0-.09,0l-.63-.32-.22.14-.23.16-.3.18-.43.27-.78.46-.31.17-.31.15-.16.05Z"/></g><g class="cls-5"><path class="cls-6" d="M135.79,145.1h.31l.1,0a1,1,0,0,1,.56.13.42.42,0,0,1,.2.36,1.12,1.12,0,0,1-.36.63l-.23.24-.28.24-.27.2-.34.17-.5.21-.25.11-.18,0s-.08,0-.14-.11l0-.08,0-.09a.29.29,0,0,1,.06-.19.51.51,0,0,1,.21-.14l.21-.06.26-.09a1.14,1.14,0,0,0,.26-.1,1.28,1.28,0,0,0,.83-.77l0,0-.05,0-.19,0h-.44l-.08,0-.12.06-.09.05-.09,0h-.13a.3.3,0,0,1-.14-.06l-.09-.13,0-.11a.24.24,0,0,1,.12-.22,3.45,3.45,0,0,1,.48-.2A2.46,2.46,0,0,1,135.79,145.1Z"/></g><g class="cls-5"><path class="cls-6" d="M125.23,160.64h.45a.53.53,0,0,1,.23,0l.24.06c.29.06.44.2.44.39a.63.63,0,0,1-.08.27l-.11.15-.15.15L126,162l-.27.21-.23.17-.34.23a10.2,10.2,0,0,1-1,.57l-.43.2-.21.08-.25.08-.18,0-.13,0-.08,0-.12-.08-.07-.15,0-.05c0-.19.06-.28.18-.3l.19,0h.17l.19,0,.12,0,.13,0,.16-.07.22-.11.35-.18.17-.08.28-.15.3-.17.18-.11.11-.09.15-.12.2-.2,0-.06,0,0a.08.08,0,0,0,0,0l-.09,0-.08,0-.2,0-.15,0-.09,0-.33,0,0,0-.1,0-.1,0-.07,0h-.24l-.14,0a.3.3,0,0,1-.2-.25.48.48,0,0,1,0-.22.67.67,0,0,1,.21-.13l.16-.06.18-.06Z"/></g><g class="cls-5"><path class="cls-6" d="M126.18,156.44l.1-.06h.11c.18,0,.27.12.27.37a.21.21,0,0,1-.06.16c-.39.28-.78.55-1.16.78l-.52.28c-.17.08-.34.16-.51.22l-.24.08a.22.22,0,0,1-.13,0,.36.36,0,0,1-.09-.13l0-.06v-.12a.08.08,0,0,1,0,0,.22.22,0,0,1,0-.14l.05-.06.08,0a2.86,2.86,0,0,0,.87-.4A7.67,7.67,0,0,0,126.18,156.44Zm.58,1a.3.3,0,0,1,.19-.07c.19,0,.28.12.28.37a.22.22,0,0,1,0,.09l0,.06a10.48,10.48,0,0,1-1.09.74,10.12,10.12,0,0,1-1.09.55l-.14.05-.11,0a.24.24,0,0,1-.22-.17l0-.1,0-.13a.21.21,0,0,1,.16-.2,5.49,5.49,0,0,0,.87-.46l.29-.16.41-.26Z"/></g><g class="cls-5"><path class="cls-6" d="M122.42,160.64l.14,0h0l.08,0,.06,0,.08.09,0,.13,0,.09a.22.22,0,0,1-.06.13l-.1.09-.31.24-.4.28-.39.26-.65.39-.27.13-.4.19-.15,0-.18.05h-.2a.24.24,0,0,1-.14-.06.27.27,0,0,1-.13-.16v-.12a.43.43,0,0,1,.09-.21l.15-.16.1-.12.07-.1,0-.17v-.58a.66.66,0,0,1,0-.21.1.1,0,0,1,.06,0l.1-.06.18,0h.14a.19.19,0,0,1,.14.08.28.28,0,0,1,.13.27v.09l0,.09-.1.21-.08.3-.07.21.13-.05.15-.1.21-.12.28-.17.51-.34.12-.08L122,161l.31-.23Z"/></g><g class="cls-5"><path class="cls-6" d="M122.12,156.88h.3l.11,0a1,1,0,0,1,.55.13.41.41,0,0,1,.2.37,1,1,0,0,1-.36.62l-.22.24-.28.24a2.26,2.26,0,0,1-.28.19l-.33.18-.51.21-.25.12h-.17s-.08,0-.14-.11l0-.08,0-.09a.31.31,0,0,1,.06-.19.47.47,0,0,1,.2-.14l.22-.06.25-.08a2.06,2.06,0,0,0,1.09-.88l0,0-.06,0-.19,0h-.43l-.09,0-.11.06-.1.05-.08,0h-.14a.26.26,0,0,1-.13-.06l-.09-.13,0-.11a.24.24,0,0,1,.12-.22,3,3,0,0,1,.48-.2A2.33,2.33,0,0,1,122.12,156.88Z"/></g><g class="cls-5"><path class="cls-6" d="M114.86,163.54a.56.56,0,0,1-.35-.09.37.37,0,0,1-.11-.29v-.1a.19.19,0,0,1,.1-.16.78.78,0,0,1,.23-.08,1.76,1.76,0,0,0,.69-.16l.59-.32a1,1,0,0,0,.32-.18l.39-.26.16-.1.16-.15-.08-.06-.13-.16-.06-.13v-.14a.59.59,0,0,1,0-.14l.09-.08a.47.47,0,0,1,.26-.11,1,1,0,0,1,.34.11l.11.06.13.09.39-.21.46-.26.25-.1a1.77,1.77,0,0,1,.49-.15.69.69,0,0,1,.22.07.26.26,0,0,1,.1.21v.09a.35.35,0,0,1-.1.13l-.16.11-.09,0-.27.12-.25.1-.39.12-.2,0,.32.15.23.13.13.11,0,0v.07a.31.31,0,0,1,0,.08l0,.08a.17.17,0,0,1-.11.11l-.13.06-.16,0s-.08,0-.1,0l-.63-.32-.22.14-.22.16-.3.18-.44.28-.78.45-.31.17-.3.15-.17.05Z"/></g><g class="cls-5"><path class="cls-6" d="M119.25,157.38a.28.28,0,0,1,.19-.07c.19,0,.28.12.28.37v.09l0,.06a9.87,9.87,0,0,1-1.09.73,8.65,8.65,0,0,1-1.09.56l-.14,0-.11,0c-.1,0-.17-.06-.22-.18l0-.09,0-.14c0-.09,0-.15.17-.19a6.1,6.1,0,0,0,.86-.46l.28-.16.42-.26Z"/></g><g class="cls-5"><path class="cls-6" d="M115.15,161.53v.25l0,.13a.11.11,0,0,1,0,.09l-.14.22-.07.08a.89.89,0,0,1-.73.27H114l-.11,0-.08,0-.1-.05-.17-.11-.17-.14-.17-.21,0,0s-.08,0-.17.1l-.17.14-.22.23.22.09.14.07a.46.46,0,0,1,.28.37.45.45,0,0,1-.09.28,1.05,1.05,0,0,1-.28.29,1.63,1.63,0,0,1-.28.16l-.19.08-.36.13-.15,0-.36.07h-.15l-.1,0-.12,0-.14-.06a.3.3,0,0,1-.08-.08l0-.22a.53.53,0,0,1,0-.23l.09-.06.12,0h.24l.33.09H112a.58.58,0,0,0,.43-.15l.08-.11,0-.12q0-.15-.27-.24l-.22-.08a.28.28,0,0,1-.2-.31.73.73,0,0,1,.15-.26l.49-.46.2-.16.27-.19.37-.21a2.3,2.3,0,0,1,1.15-.32l.18,0a.57.57,0,0,1,.33.26l.11.15a.48.48,0,0,1,.06.18Zm-.6.14a.25.25,0,0,0-.25-.28h-.12a.64.64,0,0,0-.2,0,.58.58,0,0,0-.2.11l-.09.07-.07.08.17.18a1.22,1.22,0,0,0,.17.09l.08,0h.13a.6.6,0,0,0,.24-.05l.08,0,0-.07Z"/></g><g class="cls-5"><path class="cls-6" d="M114.36,156.88h.3l.1,0a1,1,0,0,1,.56.13.43.43,0,0,1,.2.37,1,1,0,0,1-.36.62l-.22.24-.28.24-.28.19a2.21,2.21,0,0,1-.34.18l-.5.21-.25.12h-.18s-.07,0-.13-.11l0-.08,0-.09a.31.31,0,0,1,.06-.19.51.51,0,0,1,.21-.14l.22-.06.25-.08.26-.11a1.28,1.28,0,0,0,.83-.77l0,0-.06,0-.19,0H114l-.08,0-.12.06-.09.05-.09,0h-.13a.26.26,0,0,1-.13-.06l-.1-.13,0-.11a.24.24,0,0,1,.12-.22,2.89,2.89,0,0,1,.47-.2A2.48,2.48,0,0,1,114.36,156.88Z"/></g><g class="cls-5"><path class="cls-6" d="M136.86,172.1H137l.11,0,.29,0,.31.09.22.1a.49.49,0,0,1,.28.4l0,.15-.07.14-.09.12-.22.17-.75.5-.69.37-.29.13-.26,0a.34.34,0,0,1-.2-.08l-.06-.1v-.13l0-.12a.31.31,0,0,1,.1-.12l.24-.11.46-.2.6-.3.24-.13.18-.13,0-.08c0-.11-.15-.17-.45-.17l-.31,0-.36.12c-.26,0-.39-.1-.39-.31a.29.29,0,0,1,.06-.19.64.64,0,0,1,.21-.12l.36-.12Zm2.58,0a1.66,1.66,0,0,1,.5.08.33.33,0,0,1,.15,0l.11.05.22.15a.47.47,0,0,1,.15.17.38.38,0,0,1,.05.22l0,.09-.05.09-.11.14-.11.12-.11.13-.15.12-.41.33-.41.28-.37.21-.16,0-.17,0h-.13s-.06,0-.11-.06l-.06-.12a.19.19,0,0,0,0-.08.21.21,0,0,1,.07-.15l.13-.06.16-.09.26-.11.43-.24.33-.26.17-.16a.29.29,0,0,0,.07-.14.16.16,0,0,0-.11-.17h-.42l-.12,0-.13.05-.1,0-.09,0-.22,0-.1-.05,0,0-.06,0a.75.75,0,0,1,0-.15v-.08a.2.2,0,0,1,.06-.09.74.74,0,0,1,.16-.12l.12-.05.11,0a1.53,1.53,0,0,1,.26-.08l.19,0Z"/><path class="cls-6" d="M139.71,175.62h.1l.09,0a.45.45,0,0,1,.16.19V176a.21.21,0,0,1-.08.2l-.34.14.17.16a.54.54,0,0,1,.16.37v.22l0,.06a.85.85,0,0,1-.45.6l-.25.13-.17.06-.21,0h-.21l-.21,0-.41-.1-.08,0-.26.23-.13.11-.16.13-.35.25-.15.1-.27.16-.24.15-.51.28-.1,0-.12.05-.2.12-.2,0a.47.47,0,0,1-.43-.25l0-.06,0-.14a.21.21,0,0,1,.07-.18l.09-.08.08,0h.43a.8.8,0,0,0,.33-.08l.56-.3.2-.13.32-.21.21-.15.13-.14.12-.09.12-.13-.08-.16,0-.1,0-.11c0-.09.09-.18.23-.26l.17,0h.12l.16.07a.3.3,0,0,1,.15.17v.14l.05,0,.15.09.15.06h.19l.13,0,.11,0a.67.67,0,0,0,.27-.17l.07-.11,0-.1a.34.34,0,0,0,0-.18l-.08-.09-.12-.07-.11-.07-.21-.11-.21-.14,0-.08,0-.1a.12.12,0,0,1,.06-.12l.2-.09h.34l.13-.06.12-.08.11-.07.12,0Z"/><path class="cls-6" d="M144.28,171.63l.1-.06.11,0c.18,0,.27.13.27.38a.18.18,0,0,1-.06.15c-.39.29-.78.55-1.16.78l-.52.29c-.17.08-.34.16-.51.22l-.24.08a.22.22,0,0,1-.13,0,.36.36,0,0,1-.09-.13l0-.07v-.11a.07.07,0,0,1,0,0,.22.22,0,0,1,.05-.14l0-.06.08,0a2.86,2.86,0,0,0,.87-.4A7.21,7.21,0,0,0,144.28,171.63Zm.58,1a.3.3,0,0,1,.19-.07c.19,0,.28.12.28.37a.22.22,0,0,1,0,.09l0,.06a10.48,10.48,0,0,1-1.09.74,9.27,9.27,0,0,1-1.09.55l-.14.05-.11,0a.24.24,0,0,1-.22-.17l0-.1,0-.13c0-.09,0-.16.17-.2a6.1,6.1,0,0,0,.86-.46l.29-.16.41-.26Z"/><path class="cls-6" d="M143.71,175.83h.45a.53.53,0,0,1,.23,0l.24.06c.29.06.44.19.44.39a.54.54,0,0,1-.09.27.71.71,0,0,1-.1.14,1.1,1.1,0,0,1-.15.16l-.22.21-.27.21-.23.16-.34.24a10.2,10.2,0,0,1-1,.57l-.43.2-.2.08-.26.08-.18,0-.13,0-.08,0-.11-.09-.08-.14,0-.06c0-.18.06-.27.18-.3h.36l.19,0,.12,0,.13,0a.43.43,0,0,0,.16-.07l.22-.11.35-.17.17-.08.28-.15.3-.17.18-.12.11-.08.16-.13a1.14,1.14,0,0,0,.19-.19l.05-.06,0,0a.14.14,0,0,0,0-.06l-.09,0h-.08l-.2,0-.15,0h-.09l-.33,0,0,0-.1,0-.1,0-.07,0h-.24l-.14,0a.31.31,0,0,1-.2-.25.48.48,0,0,1,0-.22.76.76,0,0,1,.2-.13l.17-.06.18-.06Z"/><path class="cls-6" d="M150.1,173q0,.74-1,1.23a1.35,1.35,0,0,1-.64.2c-.62,0-.92-.26-.92-.79a1.33,1.33,0,0,1,.53-1,1.77,1.77,0,0,1,1.12-.43.9.9,0,0,1,.34.06.69.69,0,0,1,.28.15A.79.79,0,0,1,150.1,173Zm-.58.09c0-.21-.15-.32-.46-.32a.84.84,0,0,0-.57.27.78.78,0,0,0-.28.58c0,.14.09.21.28.21h.14a1.06,1.06,0,0,0,.56-.25C149.41,173.39,149.52,173.23,149.52,173.07Z"/><path class="cls-6" d="M152.73,176.25l.12-.13.23-.16a.51.51,0,0,1,.27-.08h.07a.29.29,0,0,1,.14.08.3.3,0,0,1,.08.08.27.27,0,0,1,0,.13.3.3,0,0,1,0,.12l-.06.09-.08.1-.13.13-.14.09-.2.13-.18.1-.16.07-.18.07-.19.05-.17,0H147.4l-.08.1-.18.17-.24.2-.14.11-.24.13-.1,0-.15,0-.22,0a.32.32,0,0,1-.21-.29v-.11s0-.08.12-.1a.74.74,0,0,0,.26-.1.59.59,0,0,0,.27-.15l.07-.09.05-.1h-.12l-.19,0-.08-.1-.07-.13,0-.11v-.09c0-.19.13-.32.38-.39h.19l0,0h.14a.29.29,0,0,1,.14,0,.56.56,0,0,1,.32.25l.14.24h4.57l.25-.06a.55.55,0,0,0,.27-.13l.08-.1Z"/><path class="cls-6" d="M158.21,172.56a.44.44,0,0,1,.2-.07c.19,0,.28.13.28.38V173a.19.19,0,0,1-.06.07,9.31,9.31,0,0,1-1.08.73,8.65,8.65,0,0,1-1.09.56l-.14,0-.11,0c-.1,0-.17-.06-.23-.18V174c0-.09.06-.16.18-.19a6.1,6.1,0,0,0,.86-.46,2.69,2.69,0,0,1,.29-.16l.41-.26A6,6,0,0,0,158.21,172.56Z"/><path class="cls-6" d="M154.14,178.73a.56.56,0,0,1-.35-.09.38.38,0,0,1-.11-.29v-.1a.19.19,0,0,1,.1-.16A.63.63,0,0,1,154,178a1.83,1.83,0,0,0,.7-.16l.58-.32a1.11,1.11,0,0,0,.33-.18l.38-.27.16-.09.16-.15-.07-.07-.14-.15-.06-.14v-.13a.59.59,0,0,1,.05-.14l.1-.08a.41.41,0,0,1,.25-.11,1,1,0,0,1,.34.11l.11.06.13.08.39-.2.46-.26.25-.1a1.77,1.77,0,0,1,.49-.15.56.56,0,0,1,.23.07.26.26,0,0,1,.09.21v.08a.28.28,0,0,1-.09.14l-.17.1-.09.05-.27.12-.24.1-.39.11-.21.06.32.15.23.12.13.12,0,0v.07a.13.13,0,0,1,0,.08l0,.08a.2.2,0,0,1-.11.11l-.12.06-.17,0-.1,0-.63-.32-.22.14-.22.16-.3.18-.43.27-.78.46-.32.17-.3.15-.16.05Z"/></g><g class="cls-5"><path class="cls-6" d="M101.73,176.73h.13l.1,0,.3.05.31.09.22.1a.47.47,0,0,1,.28.4l0,.15-.07.14-.09.11-.22.18-.75.5-.69.37-.29.12-.26.06a.28.28,0,0,1-.2-.09l-.06-.09v-.13l0-.12a.31.31,0,0,1,.1-.12l.24-.12.46-.19.6-.3.24-.13.18-.13,0-.08c0-.11-.15-.17-.45-.17l-.31,0-.36.12c-.26,0-.39-.1-.39-.32a.24.24,0,0,1,.06-.18.64.64,0,0,1,.21-.12l.35-.12Zm2.58,0a2,2,0,0,1,.5.07l.15,0,.11.05.22.15a.4.4,0,0,1,.15.17.48.48,0,0,1,0,.22l0,.08,0,.1-.11.13-.11.13-.11.12-.15.13-.41.33-.41.28-.37.21-.16,0-.17,0h-.14s0,0-.1-.07l-.06-.11a.15.15,0,0,0,0-.08.22.22,0,0,1,.08-.15l.13-.07.16-.08.26-.12.43-.23.33-.26.17-.16a.35.35,0,0,0,.07-.14.17.17,0,0,0-.11-.17h-.42l-.12,0-.13.05-.1,0-.09,0-.22,0-.1-.05,0,0,0,0a.75.75,0,0,1,0-.15v-.08a.21.21,0,0,1,.06-.1l.16-.11.12-.06.11,0a1.29,1.29,0,0,1,.26-.08l.19,0Z"/><path class="cls-6" d="M104.58,180.25h.1l.08,0a.36.36,0,0,1,.17.19v.18c0,.09,0,.16-.08.19l-.34.15.17.16a.54.54,0,0,1,.16.37v.17a.43.43,0,0,1,0,0,.14.14,0,0,1,0,.06.85.85,0,0,1-.45.6l-.25.13-.17,0-.21,0h-.21l-.21,0-.42-.09-.07,0-.26.23-.13.11-.16.12-.35.26-.15.09-.27.17-.24.15-.51.28-.1,0-.12.05-.2.11-.2,0a.5.5,0,0,1-.44-.25v-.06l0-.14a.24.24,0,0,1,.07-.19l.09-.07.08,0h.43a.68.68,0,0,0,.33-.09l.56-.3.2-.12.32-.21.21-.15.13-.15.12-.08.12-.14-.08-.15,0-.1,0-.11c0-.1.09-.18.23-.26l.17,0h.12l.15.07a.27.27,0,0,1,.16.17v.13l0,0,.14.09.16.06h.19l.13,0,.11,0a1.07,1.07,0,0,0,.27-.17l.07-.11,0-.1a.34.34,0,0,0,0-.18l-.08-.09-.12-.07-.11-.08-.22-.1-.2-.14,0-.08,0-.1a.12.12,0,0,1,.06-.12l.19-.09H104l.13-.06.12-.08.11-.07.12-.05Z"/><path class="cls-6" d="M109.15,176.26l.1-.06.11,0c.18,0,.27.13.27.38a.18.18,0,0,1-.06.15c-.39.29-.78.55-1.16.78l-.52.29-.51.22-.24.08a.22.22,0,0,1-.13,0l-.1-.13v-.18a.43.43,0,0,1,0,0,.24.24,0,0,1,.06-.14l.05-.06.08,0a2.86,2.86,0,0,0,.87-.4A7.67,7.67,0,0,0,109.15,176.26Zm.58,1a.34.34,0,0,1,.19-.07c.19,0,.28.13.28.38a.17.17,0,0,1,0,.08.18.18,0,0,1,0,.07,9,9,0,0,1-1.09.73A8.65,8.65,0,0,1,108,179l-.14,0-.11,0a.24.24,0,0,1-.22-.17l0-.1,0-.13a.21.21,0,0,1,.16-.2,5.49,5.49,0,0,0,.87-.46l.28-.16.42-.26C109.41,177.5,109.58,177.38,109.73,177.27Z"/><path class="cls-6" d="M108.57,180.46h.14l.11,0H109a.53.53,0,0,1,.23,0l.24.05c.29.07.44.2.44.39a.54.54,0,0,1-.09.28.71.71,0,0,1-.1.14l-.15.16-.22.2-.27.22-.23.16-.34.24a8.45,8.45,0,0,1-1,.56l-.43.21-.21.07-.25.09-.18,0-.13,0-.08-.05-.12-.08-.07-.14,0-.06q0-.27.18-.3h.36l.19,0,.11,0,.14,0a.43.43,0,0,0,.16-.07l.22-.11.35-.17.17-.08.28-.15.3-.17.18-.12.11-.08.15-.13a1.84,1.84,0,0,0,.2-.19l.05-.06,0,0s0,0,0-.05l-.08,0H109l-.2,0-.15,0h-.1l-.32,0h0l-.09,0-.1,0-.07,0h-.24l-.14,0a.31.31,0,0,1-.2-.26.41.41,0,0,1,0-.21.57.57,0,0,1,.2-.13l.17-.06.18-.06Z"/><path class="cls-6" d="M114.66,177.19a.3.3,0,0,1,.19-.07c.19,0,.28.13.28.38v.08l-.05.06a9.12,9.12,0,0,1-1.09.74,7.43,7.43,0,0,1-1.09.55l-.14,0-.11,0c-.1,0-.17-.06-.22-.18l0-.09,0-.14a.19.19,0,0,1,.17-.19,6.1,6.1,0,0,0,.86-.46l.29-.17.41-.25Z"/><path class="cls-6" d="M112.55,180.45l.18,0a.35.35,0,0,1,.27.16l.07.11a.25.25,0,0,0,.17.08.21.21,0,0,0,.13-.05l.13-.11.09-.08.09-.08a.19.19,0,0,1,.09,0l.15,0H114l.07,0,.11.05.06,0,0,0,.07.16,0,.14,0,0,.06,0a.81.81,0,0,0,.28-.08l.13-.1.12-.13,0,0,.08-.05.17-.09.13,0h.12a.1.1,0,0,1,.09.06l.07.09,0,.08a.42.42,0,0,1-.11.3l-.15.17a.46.46,0,0,1-.16.13l-.19.09-.22.1-.22.06-.39.08a.63.63,0,0,1-.33-.09l-.12-.1-.14-.13h-.24l-.2,0-.13.07-.27.25-.4.33-.41.31-.12.08a.78.78,0,0,1-.15.1l-.18.11-.59.33-.44.25-.18.08-.21.07-.18,0h-.19l-.12,0-.15-.05c-.12-.06-.17-.17-.17-.36a.27.27,0,0,1,.17-.26h.57a1,1,0,0,0,.39-.16l.4-.2.46-.25.42-.28.32-.25.08-.09a.16.16,0,0,0,0-.09l-.15-.29v-.21a.15.15,0,0,1,0-.07l.08-.11A.59.59,0,0,1,112.55,180.45Z"/><path class="cls-6" d="M120.6,177.61c0,.49-.32.9-.95,1.23a1.42,1.42,0,0,1-.65.2c-.61,0-.92-.27-.92-.79a1.3,1.3,0,0,1,.53-1,1.73,1.73,0,0,1,1.12-.43.86.86,0,0,1,.34.06.59.59,0,0,1,.28.15A.79.79,0,0,1,120.6,177.61Zm-.58.09c0-.21-.15-.32-.45-.32a.84.84,0,0,0-.58.27.82.82,0,0,0-.28.58c0,.14.1.21.28.21h.14a1.06,1.06,0,0,0,.56-.25C119.91,178,120,177.86,120,177.7Z"/><path class="cls-6" d="M119.74,180.59h.15l.1,0a.19.19,0,0,1,.1,0,.52.52,0,0,1,.25.33l0,.18,0,.13s0,.07,0,.1l0,.14-.08.27-.09.25-.08.19-.11.21a1,1,0,0,1-.31.38l-.14,0-.08,0a.13.13,0,0,1-.08,0l-.08,0-.12-.08,0-.13a.31.31,0,0,1,0-.11l.06-.09.12-.16.12-.19.21-.39.07-.21s0,0,0-.06a.07.07,0,0,0,0-.06h0a.34.34,0,0,0-.23.08l-.19.17-.42.35-.82.64-.3.21-.33.2-.26.14-.21.08-.17,0-.15,0-.1,0a.25.25,0,0,1-.1-.23v-.11a.2.2,0,0,1,0-.09l0-.1s.07-.07.17-.12l.21,0H117l.13,0,.26-.14.41-.27.2-.14.2-.17.26-.22.26-.22L119,181l.26-.23A.75.75,0,0,1,119.74,180.59Z"/><path class="cls-6" d="M124.9,184.79a.23.23,0,0,1,.23.15l0,.12v.08a.11.11,0,0,1,0,.08l-.1.11-.07,0-.14.07-.15.07-.26.25-.24.18-.43.27-.37.22-.22.13-.25.12-.42.16-.15,0a.32.32,0,0,1-.23-.1.4.4,0,0,1-.09-.23l0-.12a.22.22,0,0,1,0-.08l.06,0,.2-.11.43-.19.36-.17.25-.12.22-.13.43-.27.25-.17.22-.17.24-.14A.35.35,0,0,1,124.9,184.79Z"/><path class="cls-6" d="M124.62,180.59h.15l.1,0a.19.19,0,0,1,.1,0,.52.52,0,0,1,.25.33l0,.18,0,.13s0,.07,0,.1l0,.14-.08.27-.09.25-.08.19-.11.21a1,1,0,0,1-.31.38l-.14,0-.08,0a.13.13,0,0,1-.08,0l-.08,0-.12-.08,0-.13a.31.31,0,0,1,0-.11.27.27,0,0,1,.06-.09l.12-.16.12-.19.21-.39.07-.21s0,0,0-.06a.07.07,0,0,0,0-.06h-.05a.34.34,0,0,0-.23.08l-.19.17-.42.35-.82.64-.3.21-.33.2-.26.14-.22.08-.16,0-.15,0-.1,0c-.07,0-.1-.11-.1-.23v-.11a.2.2,0,0,1,0-.09l0-.1s.07-.07.17-.12l.21,0h.18l.13,0,.26-.14.41-.27.2-.14.2-.17.26-.22.26-.22.25-.24.26-.23A.75.75,0,0,1,124.62,180.59Z"/></g><g class="cls-5"><path class="cls-6" d="M157.79,210.4h.15l.1,0a.19.19,0,0,1,.1.05.48.48,0,0,1,.24.33l0,.18,0,.12a.25.25,0,0,1,0,.1l0,.15-.07.26-.09.26-.08.18-.11.22a1.08,1.08,0,0,1-.31.38l-.14,0-.08,0a.13.13,0,0,1-.08,0l-.08,0-.12-.08,0-.13a.31.31,0,0,1,0-.11.21.21,0,0,1,.05-.09l.13-.17.12-.18.21-.39.07-.21a.22.22,0,0,0,0-.06.14.14,0,0,0,0-.06h0a.38.38,0,0,0-.24.08l-.19.17-.42.35-.81.64-.3.2-.34.21-.25.14L155,213l-.16,0-.16,0-.09,0c-.07,0-.1-.11-.1-.23v-.11a.22.22,0,0,1,0-.09l.05-.11a.33.33,0,0,1,.16-.11l.22,0h.18l.13,0,.26-.14.41-.27.2-.14.2-.17.25-.22.26-.23.26-.23.26-.23A.7.7,0,0,1,157.79,210.4Z"/></g><g class="cls-5"><path class="cls-6" d="M158.45,214.6a.22.22,0,0,1,.23.15l0,.11V215a.09.09,0,0,1,0,.08l-.09.11-.07,0-.14.06-.15.08-.27.25-.24.17-.42.27-.38.23-.21.12a1.23,1.23,0,0,1-.26.13l-.41.16-.16,0a.3.3,0,0,1-.22-.1.4.4,0,0,1-.09-.24l0-.11a.16.16,0,0,1,.05-.08l0,0,.2-.11.44-.19.35-.17.25-.12.23-.13.43-.27.25-.17.22-.17.24-.14A.26.26,0,0,1,158.45,214.6Z"/></g><g class="cls-5"><path class="cls-6" d="M151.28,210.26l.19,0a.41.41,0,0,1,.27.15l.07.12a.23.23,0,0,0,.16.08.24.24,0,0,0,.14,0l.12-.11.09-.08.09-.08.1,0,.14,0h.07l.07,0,.12.06.05,0,0,0,.07.16.05.14,0,0,.07,0a.72.72,0,0,0,.28-.09l.12-.09.12-.13.06,0,.08-.05.16-.09.14,0h.12a.09.09,0,0,1,.08.06l.08.09,0,.08a.44.44,0,0,1-.11.3l-.14.17a.41.41,0,0,1-.17.12l-.18.1-.22.09-.22.07-.4.08a.63.63,0,0,1-.33-.09l-.12-.1-.13-.14h-.25l-.19,0a.46.46,0,0,0-.14.07l-.26.25-.41.33-.41.31-.11.08-.15.1-.19.11-.58.33-.45.25-.18.08-.2.07-.18,0h-.2l-.12,0-.14-.05a.36.36,0,0,1-.18-.36.29.29,0,0,1,.17-.26h.58a1,1,0,0,0,.39-.15l.4-.2.46-.25.42-.28.32-.25.08-.09,0-.09-.15-.29,0-.14v-.07a.12.12,0,0,1,0-.07l.07-.11A.62.62,0,0,1,151.28,210.26Z"/></g><g class="cls-5"><path class="cls-6" d="M149.37,210.22h.25l.14,0c.09,0,.13.05.13.17v.13a.21.21,0,0,1-.07.17.54.54,0,0,1-.22.11l-.3,0h-.09l-.16,0-.28.08c-.09,0-.15.06-.16.11l.09.13,0,.05,0,.07,0,.11a.65.65,0,0,1,0,.22v.26a.41.41,0,0,1,0,.15l-.08.15,0,.06-.06.06-.07.08-.09.05-.28.14-.17,0h-1.37a.39.39,0,0,1-.17,0l-.14-.06,0,0-.12-.08a.48.48,0,0,1-.13-.34.3.3,0,0,1,0-.15l.1-.11.1-.08a.7.7,0,0,1,.27-.08.21.21,0,0,1,.16.08l.08.11.13.09.16,0,.32,0h.33c.22,0,.37-.05.44-.17v-.15a.35.35,0,0,0-.07-.17l-.09-.1-.09-.12-.13-.17,0-.2a.29.29,0,0,1,.05-.17l.13-.09.17-.09.17-.11a1.74,1.74,0,0,1,.25-.11l.3-.1A2.09,2.09,0,0,1,149.37,210.22Z"/></g><g class="cls-5"><path class="cls-6" d="M149.19,206.5h.41a1,1,0,0,1,.56.14.41.41,0,0,1,.19.36,1,1,0,0,1-.36.62l-.22.24-.28.24a1.55,1.55,0,0,1-.28.2,1.71,1.71,0,0,1-.33.17l-.5.21-.26.12H148s-.08,0-.14-.11l0-.08,0-.09a.28.28,0,0,1,.06-.18.63.63,0,0,1,.21-.15l.21-.06.25-.08a1,1,0,0,0,.27-.11,1.26,1.26,0,0,0,.83-.77l-.05,0,0,0-.19,0-.14,0-.15,0h-.15l-.08,0-.12.06-.09.05-.09,0h-.13a.22.22,0,0,1-.14-.05l-.09-.14,0-.1a.23.23,0,0,1,.12-.22,2.55,2.55,0,0,1,.48-.2A2.49,2.49,0,0,1,149.19,206.5Z"/></g><g class="cls-5"><path class="cls-6" d="M142,213.16a.58.58,0,0,1-.35-.09.36.36,0,0,1-.11-.28v-.11a.18.18,0,0,1,.1-.16.71.71,0,0,1,.22-.07,2,2,0,0,0,.7-.16l.58-.33a1.29,1.29,0,0,0,.33-.17l.38-.27.16-.1.17-.14-.08-.07-.14-.16-.06-.13v-.13a.47.47,0,0,1,.05-.14l.1-.08a.41.41,0,0,1,.25-.11.76.76,0,0,1,.34.11l.11.06.14.08.39-.2.46-.26.25-.11a1.59,1.59,0,0,1,.48-.14.51.51,0,0,1,.23.07.26.26,0,0,1,.09.21v.08a.26.26,0,0,1-.09.13l-.17.11-.09,0-.27.13-.24.1-.39.11-.2.05.31.16.24.12.12.11,0,0v.07a.19.19,0,0,1,0,.08l0,.09a.23.23,0,0,1-.11.11l-.13.06-.17,0-.09,0-.63-.32-.23.13-.22.17-.3.18-.43.27-.78.45-.31.17-.31.15-.16.06Z"/></g><g class="cls-5"><path class="cls-6" d="M146.32,207a.3.3,0,0,1,.19-.07c.19,0,.29.12.29.37l0,.09a.13.13,0,0,1-.05.06,9.9,9.9,0,0,1-1.08.74,9.28,9.28,0,0,1-1.09.55l-.15,0-.11,0a.24.24,0,0,1-.22-.17l0-.1,0-.13c0-.09.06-.16.18-.2a6.79,6.79,0,0,0,.86-.45l.28-.17.42-.25C146,207.22,146.18,207.11,146.32,207Z"/></g><g class="cls-5"><path class="cls-6" d="M141.93,210.4h.15l.1,0a.16.16,0,0,1,.09.05.47.47,0,0,1,.25.33l0,.18,0,.12a.25.25,0,0,1,0,.1l0,.15-.07.26-.09.26-.09.18-.1.22a1,1,0,0,1-.32.38l-.14,0-.07,0a.13.13,0,0,1-.08,0l-.09,0-.12-.08,0-.13c0-.05,0-.09,0-.11l.06-.09.12-.17.13-.18.21-.39.07-.21a.22.22,0,0,0,0-.06.14.14,0,0,0,0-.06h-.06a.36.36,0,0,0-.23.08l-.19.17-.42.35-.82.64-.29.2-.34.21-.25.14-.22.08-.16,0-.16,0-.09,0c-.07,0-.1-.11-.1-.23v-.11a.22.22,0,0,1,0-.09l0-.11a.33.33,0,0,1,.16-.11l.22,0h.18l.13,0,.26-.14.41-.27.19-.14.21-.17.25-.22.26-.23.26-.23.26-.23A.67.67,0,0,1,141.93,210.4Z"/></g><g class="cls-5"><path class="cls-6" d="M142.61,214.6a.23.23,0,0,1,.23.15l0,.11V215a.09.09,0,0,1,0,.08l-.09.11-.07,0-.14.06-.15.08-.27.25-.24.17-.42.27-.38.23-.22.12a1,1,0,0,1-.25.13l-.41.16-.16,0a.3.3,0,0,1-.22-.1.4.4,0,0,1-.09-.24v-.11a.28.28,0,0,1,.06-.08l.05,0,.2-.11.43-.19.36-.17.25-.12.23-.13.43-.27L142,215l.23-.17.24-.14A.26.26,0,0,1,142.61,214.6Z"/></g><g class="cls-5"><path class="cls-6" d="M138.58,210.06h.1l.08,0a.36.36,0,0,1,.17.19v.17c0,.1,0,.17-.08.2l-.34.15.17.16a.54.54,0,0,1,.16.37v.17s0,0,0,0a.14.14,0,0,1,0,.06.82.82,0,0,1-.45.59l-.25.14-.17,0-.21,0h-.21l-.22,0-.41-.09-.07,0-.27.22-.12.12-.16.12-.35.26-.15.09-.27.17-.25.15-.5.28-.1,0-.12.06-.2.11-.21,0a.49.49,0,0,1-.43-.24v-.06l0-.14a.24.24,0,0,1,.07-.19l.09-.07.07,0h.44a.68.68,0,0,0,.33-.09l.56-.3.19-.12.33-.21.21-.15.13-.15.12-.09.12-.13-.08-.15,0-.11,0-.1c0-.1.09-.18.23-.26l.17,0h.12l.15.07a.27.27,0,0,1,.16.17v.13l.05,0,.14.1.16.06h.19l.13,0,.11,0a.9.9,0,0,0,.27-.18l.07-.1,0-.1a.34.34,0,0,0,0-.18l-.08-.09-.12-.08-.11-.07-.22-.1-.2-.14,0-.08,0-.1a.15.15,0,0,1,.06-.13l.19-.08h.16l.19,0,.13-.05.12-.08.11-.07.12,0Z"/></g><g class="cls-5"><path class="cls-6" d="M136,206.54h.13l.1,0,.3.05.31.09.21.09a.49.49,0,0,1,.29.41l0,.15-.07.14-.09.11-.22.18-.75.5-.69.36-.29.13-.26,0a.27.27,0,0,1-.2-.08l-.06-.1v-.12l0-.12a.31.31,0,0,1,.1-.12l.24-.12.46-.19.6-.31.24-.13.18-.12,0-.08c0-.11-.15-.17-.45-.17l-.31,0-.36.12c-.26,0-.39-.11-.39-.32a.24.24,0,0,1,.06-.18,1,1,0,0,1,.2-.13l.36-.12Zm2.58,0a2.05,2.05,0,0,1,.5.08l.15.05.1.05.23.15a.56.56,0,0,1,.15.16.56.56,0,0,1,.05.23l0,.08-.05.1-.11.13-.12.13-.1.12-.15.13-.41.32-.41.28-.37.21-.16,0-.17,0-.14,0a.24.24,0,0,1-.11-.06l0-.11a.2.2,0,0,0,0-.09.23.23,0,0,1,.07-.14l.13-.07.17-.08.26-.12.43-.24.33-.26.17-.15a.35.35,0,0,0,.07-.14.17.17,0,0,0-.11-.17h-.42l-.12,0-.13.05-.1,0-.09,0-.23,0-.09,0,0,0-.05,0a.75.75,0,0,1,0-.15V207a.21.21,0,0,1,.06-.1l.16-.11.12-.06.11,0a1.11,1.11,0,0,1,.26-.07l.19,0Z"/></g><g class="cls-5"><path class="cls-6" d="M121.62,214.92l.11,0h.12a.22.22,0,0,1,.15.1.22.22,0,0,1,0,.09v.08a.52.52,0,0,1-.27.32l-.15.07.07,0,.17.1a.92.92,0,0,1,.14.13.21.21,0,0,1,0,.14c0,.1-.07.2-.2.32l-.6.27.17.1.16.11a.89.89,0,0,1,.05.18V217a.14.14,0,0,1,0,.09l-.15.15-.34.26-.37.27-.3.21-.78.53-.28.18a1.91,1.91,0,0,1-.25.13l-.08,0-.13.06-.32.14a1,1,0,0,1-.4.11.32.32,0,0,1-.14,0l-.09,0-.07-.06a.27.27,0,0,1-.06-.1.62.62,0,0,1,0-.16c0-.16.12-.26.35-.31l.16,0,.11,0,.14,0,.13,0,.15-.06.21-.09.2-.11.74-.47.36-.24.5-.36-.28-.18a.31.31,0,0,1-.12-.24.23.23,0,0,1,0-.11.88.88,0,0,1,.14-.15l.23-.11.35-.18-.15-.09-.2-.11-.1-.07,0-.05,0-.09v-.1l0,0,.13-.1,0,0,.06,0,.19-.07.15-.06.15-.07.13-.1Z"/></g><g class="cls-5"><path class="cls-6" d="M122.67,212.13a.35.35,0,0,1,.2-.07c.19,0,.28.13.28.38v.08l-.06.06a8.29,8.29,0,0,1-1.08.74,7.43,7.43,0,0,1-1.09.55l-.14,0-.11,0c-.1,0-.17-.06-.23-.18v-.23c0-.09.06-.16.18-.19a6.1,6.1,0,0,0,.86-.46l.29-.17.41-.25C122.36,212.35,122.53,212.24,122.67,212.13Z"/></g><g class="cls-5"><path class="cls-6" d="M118.26,215.53h.15l.1,0a.19.19,0,0,1,.1,0,.48.48,0,0,1,.24.33l.05.18,0,.13s0,.07,0,.1l0,.14-.08.27-.09.25-.08.19-.11.21a1,1,0,0,1-.31.38l-.14,0-.08,0a.13.13,0,0,1-.08,0l-.08,0-.12-.08,0-.13a.31.31,0,0,1,0-.11.27.27,0,0,1,.06-.09l.12-.16L118,217l.21-.39.07-.21s0,0,0-.06a.07.07,0,0,0,0-.06h-.05a.34.34,0,0,0-.23.08l-.19.17-.42.35-.82.64-.3.21-.33.2-.26.14-.22.08-.16,0-.15,0-.1,0c-.07,0-.1-.11-.1-.23v-.11a.2.2,0,0,1,0-.09l0-.1s.07-.07.17-.12l.21,0h.18l.13,0,.26-.14.41-.27.2-.14.2-.17.26-.22.26-.22.25-.24.26-.23A.75.75,0,0,1,118.26,215.53Z"/></g><g class="cls-5"><path class="cls-6" d="M119,219.73a.23.23,0,0,1,.23.15l0,.12v.08a.11.11,0,0,1,0,.08l-.1.11-.07,0-.14.07-.15.07-.26.25-.24.18-.43.27-.38.22-.21.13-.25.12-.42.16-.15,0a.3.3,0,0,1-.23-.1.4.4,0,0,1-.09-.23l0-.12a.22.22,0,0,1,0-.08l.06,0,.2-.11.43-.19.36-.17.24-.12.23-.13.43-.27.25-.17.22-.17.24-.14A.35.35,0,0,1,119,219.73Z"/></g><g class="cls-5"><path class="cls-6" d="M111.76,215.39l.18,0a.35.35,0,0,1,.27.16l.07.11a.25.25,0,0,0,.17.08.24.24,0,0,0,.13-.05l.12-.11.09-.08.1-.08a.19.19,0,0,1,.09,0l.14,0h.08l.07,0,.11.05.06,0,0,.05.06.16.06.14,0,0,.06,0a.81.81,0,0,0,.28-.08l.12-.1.13-.13s0,0,0-.05l.08-.05.16-.09.14,0h.12s.06,0,.08.06l.08.09,0,.08a.39.39,0,0,1-.11.3l-.14.17a.37.37,0,0,1-.16.13l-.19.09-.22.1-.22.06-.4.08a.57.57,0,0,1-.32-.09l-.13-.1-.13-.13h-.25l-.19,0a.4.4,0,0,0-.13.07l-.27.25-.4.33-.42.31-.11.08-.15.1-.18.11-.59.33-.44.25-.19.08-.2.07-.18,0h-.19l-.13,0-.14-.05a.35.35,0,0,1-.18-.36.29.29,0,0,1,.17-.26h.58a1.12,1.12,0,0,0,.39-.16l.4-.2.46-.25.42-.28.32-.25.08-.09a.32.32,0,0,0,0-.09l-.15-.29,0-.13v-.08a.14.14,0,0,1,0-.07l.08-.11A.61.61,0,0,1,111.76,215.39Z"/></g><g class="cls-5"><path class="cls-6" d="M113.16,211.64h.3l.1,0a1,1,0,0,1,.56.13.42.42,0,0,1,.2.36,1.09,1.09,0,0,1-.36.63l-.22.24-.28.23a1.55,1.55,0,0,1-.28.2,2.59,2.59,0,0,1-.33.17l-.51.21-.25.12-.17,0s-.08,0-.14-.12l0-.07,0-.09a.24.24,0,0,1,.06-.19.41.41,0,0,1,.2-.14l.22-.07.25-.08a1,1,0,0,0,.26-.11,1.26,1.26,0,0,0,.83-.77l0,0-.06,0-.19,0-.14,0-.14,0h-.16l-.08,0-.12.06-.09,0-.09,0h-.13a.26.26,0,0,1-.13-.06l-.1-.13,0-.11a.24.24,0,0,1,.12-.22,2.22,2.22,0,0,1,.47-.2A2.48,2.48,0,0,1,113.16,211.64Z"/></g><g class="cls-5"><path class="cls-6" d="M135.39,222.86a1.44,1.44,0,0,1-.95,1.23,1.38,1.38,0,0,1-.64.2c-.62,0-.92-.27-.92-.79a1.27,1.27,0,0,1,.53-1,1.71,1.71,0,0,1,1.12-.43.9.9,0,0,1,.34,0,.71.71,0,0,1,.28.16A.78.78,0,0,1,135.39,222.86Zm-.57.09c0-.22-.15-.32-.46-.32a.82.82,0,0,0-.57.27.78.78,0,0,0-.28.58c0,.14.09.21.28.21h.14a1.06,1.06,0,0,0,.56-.25C134.71,223.27,134.82,223.11,134.82,223Z"/><path class="cls-6" d="M138,226.12l.12-.12.23-.16a.54.54,0,0,1,.27-.09h.07a.29.29,0,0,1,.14.08l.08.08a.51.51,0,0,1,0,.13.3.3,0,0,1,0,.12l-.06.09-.08.1-.14.12-.13.1-.2.13-.18.1-.16.07-.18.07-.19.05-.17,0H132.7l-.09.11-.17.17-.24.2-.14.1-.24.14-.1,0-.15,0-.22,0a.33.33,0,0,1-.21-.3v-.1s0-.08.12-.11a.76.76,0,0,0,.26-.09.61.61,0,0,0,.27-.16l.06-.08.06-.1h-.12l-.19,0-.08-.1-.07-.13,0-.12v-.08c0-.19.13-.32.38-.39l.11,0h.26a.29.29,0,0,1,.14,0,.52.52,0,0,1,.32.25l.14.24h4.48l.09,0,.25-.05a.58.58,0,0,0,.27-.14l.08-.09Z"/><path class="cls-6" d="M143.51,222.44a.32.32,0,0,1,.2-.07c.19,0,.28.12.28.37v.09l-.06.06a9.9,9.9,0,0,1-1.08.74,8.57,8.57,0,0,1-1.09.55l-.14,0-.11,0c-.1,0-.17-.06-.23-.18v-.23c0-.09.06-.16.18-.19a7.51,7.51,0,0,0,.86-.46l.28-.17.42-.25C143.2,222.66,143.37,222.55,143.51,222.44Z"/><path class="cls-6" d="M141.65,225.71a.56.56,0,0,1,.38.1.27.27,0,0,1,.08.16v.11l-.09.08-.07,0-.11.06a.27.27,0,0,0-.06.16.3.3,0,0,0,.12.26l.13.09.06,0,.1,0,.14,0a.27.27,0,0,0,.12-.09l.11-.09.13-.09.21,0H143a.34.34,0,0,1,.14.13l0,.07v.09a.45.45,0,0,1-.09.17l-.14.1-.16.11-.2.15-.61.38-.68.4-.37.21-.31.15-.29.14-.36.15-.26.08c-.29,0-.43-.12-.43-.35a.52.52,0,0,1,.08-.24.29.29,0,0,1,.07-.1l.09,0,.11,0,.14,0,.16,0a1.61,1.61,0,0,0,.37-.16l.69-.35.34-.18.43-.29s0-.08,0-.09h-.09l-.18-.05a.61.61,0,0,1-.24-.16l-.05-.07,0-.12,0-.2v-.08a.15.15,0,0,1,0-.07l.1-.22a.62.62,0,0,1,.2-.27l.06-.05.09,0Z"/><path class="cls-6" d="M148.33,221.89h.08l.08,0a.23.23,0,0,1,.07.11l.05.14,0,.11c0,.16-.08.24-.22.24l-.41.08-.16.06-.13.06-.13.07a.44.44,0,0,0-.1.08l-.13.13-.11.14a.26.26,0,0,0,.1.16l.17.07h.76l.1,0a.24.24,0,0,1,.09.22.22.22,0,0,1-.16.23l-.23.05-.29,0h-.36l-.32-.07a.56.56,0,0,1-.4-.23,1,1,0,0,1-.15-.51l-.06.08c0,.05-.06.08-.11.08l-.08.09-.25.17-.38.25-.27.15-.23.14-.23.1-.21.09-.16,0h-.13c-.15,0-.22-.09-.22-.26l0-.16a.22.22,0,0,1,.13-.1l.16,0,.21-.08a2.54,2.54,0,0,0,.85-.46l.17-.14.17-.16h-.82l-.1,0-.09,0a.29.29,0,0,1,.06-.55l.25,0h.63a.88.88,0,0,1,.47.11.37.37,0,0,1,.11.15l.08.15.09.22.11-.11.07-.06.05,0s0,0,.09,0l.17-.16.27-.18.49-.32A.88.88,0,0,1,148.33,221.89Z"/><path class="cls-6" d="M145.76,225.7l.19,0a.37.37,0,0,1,.26.15l.08.12a.23.23,0,0,0,.16.08.2.2,0,0,0,.13-.05l.13-.11.09-.08.09-.08.09,0,.15,0h.07l.07,0,.12.06.05,0,0,0,.07.16,0,.14,0,0,.06,0a.71.71,0,0,0,.29-.09l.12-.09.12-.13.06,0,.08-.05.16-.09.14,0h.12a.09.09,0,0,1,.08.06l.08.09,0,.08a.44.44,0,0,1-.11.3l-.14.17a.41.41,0,0,1-.17.12l-.18.1-.22.09-.22.07-.4.08a.63.63,0,0,1-.33-.09l-.12-.1-.14-.13h-.24l-.2,0-.13.07-.26.25-.41.33-.41.31-.11.08-.16.1-.18.11-.58.33-.45.25-.18.08-.2.07-.18,0h-.2l-.12,0-.15-.05a.37.37,0,0,1-.17-.36.29.29,0,0,1,.17-.26h.58a1,1,0,0,0,.39-.15l.4-.2.46-.25L145,227l.32-.25.07-.09a.16.16,0,0,0,0-.09l-.14-.29,0-.14v-.07a.14.14,0,0,1,0-.07l.07-.11A.59.59,0,0,1,145.76,225.7Z"/><path class="cls-6" d="M153.48,230a.23.23,0,0,1,.23.15l0,.11v.09a.11.11,0,0,1,0,.08l-.09.11-.08,0-.14.06-.14.08L153,231l-.24.17-.43.28-.37.22-.22.12a1.21,1.21,0,0,1-.25.13l-.42.16-.15,0a.32.32,0,0,1-.23-.1.38.38,0,0,1-.08-.24v-.11a.16.16,0,0,1,0-.08l.06,0,.2-.11.43-.19.36-.17.25-.12.22-.13.43-.27.25-.17.22-.17.24-.14A.27.27,0,0,1,153.48,230Z"/><path class="cls-6" d="M153.43,225.7l.13,0h.06l.08,0,.06,0,.08.08,0,.14,0,.08a.21.21,0,0,1-.07.14l-.1.09-.31.23-.39.29-.39.26-.65.39-.27.13a2.34,2.34,0,0,1-.41.18l-.14,0a.49.49,0,0,1-.18.05h-.21a.24.24,0,0,1-.13-.07.28.28,0,0,1-.13-.15v-.13a.56.56,0,0,1,.08-.21l.15-.16.11-.12.06-.1,0-.16v-.58a.58.58,0,0,1,0-.21.1.1,0,0,1,.06,0l.1-.06.17,0h.15s.08,0,.14.08a.33.33,0,0,1,.13.28v.09l0,.09-.09.21-.08.3-.07.2.13-.05.15-.09.21-.12.28-.17.51-.34.11-.08L153,226l.3-.22Z"/></g><g class="cls-5"><path class="cls-6" d="M81.41,211.67h.13l.1,0,.3.05.31.09.22.1a.47.47,0,0,1,.28.4l0,.15-.07.14-.09.11-.22.18-.75.5-.69.37-.29.13-.26.05a.28.28,0,0,1-.2-.09l-.06-.09v-.13l0-.12a.31.31,0,0,1,.1-.12l.24-.12.46-.19.59-.3.25-.13.18-.13,0-.08c0-.11-.15-.17-.45-.17l-.31,0-.36.12c-.26,0-.39-.1-.39-.32a.24.24,0,0,1,.06-.18.7.7,0,0,1,.2-.12l.36-.12Zm2.58,0a2,2,0,0,1,.5.07l.15,0,.11.05L85,212a.4.4,0,0,1,.15.17.48.48,0,0,1,0,.22l0,.08,0,.1-.11.13-.12.13-.1.12-.15.13-.41.33-.41.28-.37.21-.16,0-.17,0H83a.18.18,0,0,1-.1-.06l-.06-.12a.19.19,0,0,0,0-.08.22.22,0,0,1,.08-.15l.12-.07.17-.08.25-.12.44-.23.33-.26.17-.16a.35.35,0,0,0,.07-.14.17.17,0,0,0-.11-.17h-.42l-.12,0-.13,0-.1,0-.09,0-.23,0-.09-.05,0,0,0,0a.75.75,0,0,1,0-.15v-.08a.21.21,0,0,1,.06-.1l.16-.11.12-.06.11,0a1.29,1.29,0,0,1,.26-.08l.19,0Z"/><path class="cls-6" d="M84.26,215.19h.1l.08,0a.36.36,0,0,1,.17.19v.18a.21.21,0,0,1-.08.19l-.34.15.17.16a.53.53,0,0,1,.15.37v.17a.43.43,0,0,1,0,0,.14.14,0,0,1,0,.06.85.85,0,0,1-.45.6l-.25.13-.17,0-.21,0H83.2l-.22,0-.41-.09-.07,0-.27.23-.12.11-.16.12-.35.26-.15.09-.27.17-.25.15-.5.28-.1.05-.12,0L80,219l-.21,0a.5.5,0,0,1-.43-.25v-.06l0-.14a.24.24,0,0,1,.07-.19l.09-.07.07,0H80a.68.68,0,0,0,.33-.09l.56-.3.19-.12.33-.21.21-.15.13-.15.11-.08.13-.14-.08-.15,0-.1,0-.11c0-.1.09-.18.23-.26l.17,0h.12l.15.07a.27.27,0,0,1,.16.17v.13l.05,0,.14.09.16.06h.19l.13,0,.11,0a1.07,1.07,0,0,0,.27-.17l.07-.11,0-.1a.34.34,0,0,0,0-.18l-.09-.09-.11-.07-.11-.08-.22-.1-.2-.14,0-.08,0-.1a.12.12,0,0,1,.06-.12l.19-.09h.35l.13-.06.12-.08.11-.07.12-.05Z"/><path class="cls-6" d="M88.88,219.53c.17,0,.26.14.26.4,0,0,0,.07-.11.13l-.14.1-.19.12-1,.6-1,.6-.1,0c-.17,0-.25-.11-.25-.33s.09-.22.28-.32l.41-.23.39-.22.67-.42A3.55,3.55,0,0,1,88.88,219.53Zm.34,1.09.08,0,.12,0a.26.26,0,0,1,.26.2l0,.16a.16.16,0,0,1-.07.15l-1.45.86-.68.39-.12.06-.12,0a.36.36,0,0,1-.24-.15l0-.1v-.1a.26.26,0,0,1,.1-.18,2.23,2.23,0,0,1,.34-.24l.58-.3c.22-.12.45-.25.68-.4Z"/><path class="cls-6" d="M88.42,215.4h.14l.11,0h.2a.55.55,0,0,1,.24,0l.24.05c.29.07.44.2.44.39a.54.54,0,0,1-.09.28.49.49,0,0,1-.11.14.71.71,0,0,1-.15.16l-.22.21-.26.21-.23.16-.34.24a7.88,7.88,0,0,1-1,.56l-.42.21-.21.07-.25.09-.18,0-.14,0-.07-.05-.12-.08L85.9,218l0-.06q0-.27.18-.3h.35l.19,0,.12,0,.14,0a.52.52,0,0,0,.16-.07l.22-.11.35-.17.17-.08.28-.15.3-.17.18-.12.11-.08.15-.13a1.84,1.84,0,0,0,.2-.19l0-.06v0a.06.06,0,0,0,0,0l-.08,0h-.09l-.19,0-.16,0h-.09l-.32.05h0l-.09,0-.1,0-.08,0h-.23l-.15,0a.3.3,0,0,1-.19-.26.41.41,0,0,1,0-.21.49.49,0,0,1,.2-.13l.17-.06.18-.06Z"/></g><g class="cls-5"><path class="cls-6" d="M37.8,212h.45a.5.5,0,0,1,.23,0l.24.05c.3.07.44.2.44.4a.51.51,0,0,1-.08.27.76.76,0,0,1-.11.14l-.15.16-.22.21-.27.21-.22.16-.35.24a10.2,10.2,0,0,1-1,.57l-.43.2-.2.07-.25.09-.19,0-.13,0-.08,0-.11-.09-.07-.14,0-.06c0-.18.05-.28.17-.3h.36l.19,0,.12,0,.13,0a.56.56,0,0,0,.17-.07l.21-.11.36-.17.16-.08.28-.15.31-.17.18-.12.1-.08.16-.13a1.14,1.14,0,0,0,.19-.19l0-.06,0,0a.14.14,0,0,0,0-.06l-.09,0h-.08l-.2,0-.15,0h-.09l-.33,0,0,0-.09,0-.11,0-.07,0h-.24l-.14,0a.31.31,0,0,1-.2-.25.42.42,0,0,1,0-.22.49.49,0,0,1,.2-.13l.17-.06.17-.06Z"/></g><g class="cls-5"><path class="cls-6" d="M39.56,208.68a.37.37,0,0,1,.19-.07c.19,0,.29.13.29.38l0,.08a.13.13,0,0,1-.05.06,9.9,9.9,0,0,1-1.08.74,8,8,0,0,1-1.09.55.64.64,0,0,1-.15.05l-.11,0a.25.25,0,0,1-.22-.18l0-.09,0-.14c0-.09.06-.16.18-.19a6.74,6.74,0,0,0,.86-.46l.28-.17.42-.25C39.25,208.9,39.42,208.79,39.56,208.68Z"/></g><g class="cls-5"><path class="cls-6" d="M33.82,212l.1,0a.27.27,0,0,1,.22.27.36.36,0,0,1-.08.15l-.15.1-.19.08.37.08.14,0,.16.05c.26,0,.39.15.39.33l-.05.09-.15.13-.1.08-.16.11-.52.3-.12.08s0,.07,0,.08l.6.13.48.09.17,0q.27,0,.27.24c0,.19-.06.3-.17.31H34.7l-.16,0-.25,0-.29-.05-.13,0-.13,0-.82-.22-.07,0-.05,0-.06,0-.11-.06s0-.05-.06-.12a.24.24,0,0,1,.06-.15l.11-.11.3-.21.33-.2.3-.2.2-.15-.31,0-.9-.13a.09.09,0,0,1-.08-.06v-.14l.15-.12.25-.19.32-.21.27-.16A1,1,0,0,1,33.82,212Z"/></g><g class="cls-5"><path class="cls-6" d="M34.92,208.19h.31l.1,0a1,1,0,0,1,.56.13.42.42,0,0,1,.2.36,1.12,1.12,0,0,1-.36.63l-.23.24-.28.23a1.89,1.89,0,0,1-.27.2,1.54,1.54,0,0,1-.34.17l-.5.21-.25.12-.18,0s-.08,0-.14-.12l0-.07,0-.09a.29.29,0,0,1,.06-.19.51.51,0,0,1,.21-.14l.21-.06.26-.09a1,1,0,0,0,.26-.11,1.24,1.24,0,0,0,.83-.77l0,0-.05,0-.19,0h-.44l-.08,0-.12.06-.09.05-.09,0h-.13a.3.3,0,0,1-.14-.06l-.09-.13,0-.11a.23.23,0,0,1,.11-.22,2.55,2.55,0,0,1,.48-.2A2.46,2.46,0,0,1,34.92,208.19Z"/></g><g class="cls-5"><path class="cls-6" d="M31.55,212.08h.15l.1,0,.1.05a.48.48,0,0,1,.24.33l0,.18,0,.13a.28.28,0,0,1,0,.1l0,.14-.07.27-.09.25-.08.19-.11.21a1,1,0,0,1-.31.38l-.14,0-.08,0-.08,0-.08,0-.12-.08,0-.13a.31.31,0,0,1,0-.11.21.21,0,0,1,.05-.09l.13-.16.12-.19.21-.39.07-.21s0,0,0-.06a.07.07,0,0,0,0-.06H31.5a.46.46,0,0,0-.24.08l-.19.17-.42.35-.81.64-.3.21-.34.2-.25.14-.22.08-.16,0-.16,0-.09,0c-.07,0-.1-.11-.1-.23v-.11s0-.07,0-.08l.05-.11s.06-.07.16-.12l.22,0h.18l.13,0,.26-.14.41-.27.2-.14.2-.17.25-.22.27-.22.25-.24.26-.23A.75.75,0,0,1,31.55,212.08Z"/></g><g class="cls-5"><path class="cls-6" d="M32.46,209.1c0,.49-.31.9-.95,1.23a1.38,1.38,0,0,1-.64.2c-.62,0-.92-.27-.92-.79a1.28,1.28,0,0,1,.53-1,1.71,1.71,0,0,1,1.11-.43.91.91,0,0,1,.35.06.64.64,0,0,1,.28.15A.78.78,0,0,1,32.46,209.1Zm-.57.09c0-.21-.15-.32-.46-.32a.82.82,0,0,0-.57.27.78.78,0,0,0-.28.58c0,.14.09.21.28.21H31a1.06,1.06,0,0,0,.57-.25C31.78,209.51,31.89,209.35,31.89,209.19Z"/></g><g class="cls-5"><path class="cls-6" d="M28.13,212.84c0,.26-.26.57-.77.92l-.94.63-.4.24a3.62,3.62,0,0,1-1.43.63c-.32,0-.49-.13-.49-.39a.34.34,0,0,1,.18-.3.43.43,0,0,1,.24,0h.05l.08,0,.08,0,0,0h.13l.1,0,.16,0,.43-.23.17-.09.29-.18.17-.12c-.36-.15-.53-.35-.53-.59a1,1,0,0,1,.38-.78l.17-.12.19-.14a1.75,1.75,0,0,1,.79-.2,1.07,1.07,0,0,1,.72.28A.55.55,0,0,1,28.13,212.84Zm-.65-.07c0-.09-.17-.13-.39-.13a1.07,1.07,0,0,0-.59.28l-.08.09-.09.14,0,.11a.26.26,0,0,0,.14.19.25.25,0,0,0,.12,0l.09,0,.16,0,.27-.14q.42-.27.42-.45S27.5,212.78,27.48,212.77Z"/></g><g class="cls-5"><path class="cls-6" d="M28.58,208.68a.37.37,0,0,1,.19-.07c.19,0,.29.13.29.38l0,.08a.13.13,0,0,1-.05.06,9.9,9.9,0,0,1-1.08.74,8,8,0,0,1-1.09.55.64.64,0,0,1-.15.05l-.11,0a.25.25,0,0,1-.22-.18l0-.09,0-.14c0-.09.06-.16.18-.19a7.55,7.55,0,0,0,.86-.46l.28-.17.41-.25Z"/></g><g class="cls-5"><path class="cls-6" d="M20.07,214.85a.54.54,0,0,1-.35-.09.35.35,0,0,1-.11-.29v-.1a.17.17,0,0,1,.1-.16.57.57,0,0,1,.23-.08,1.71,1.71,0,0,0,.69-.16l.58-.32a.91.91,0,0,0,.33-.18l.39-.27.16-.09.16-.15-.07-.07-.14-.15L22,212.6v-.13a.29.29,0,0,1,.05-.14l.09-.08a.44.44,0,0,1,.26-.11.85.85,0,0,1,.34.11l.11.06.13.08.39-.2.46-.26.25-.1a1.77,1.77,0,0,1,.49-.15.5.5,0,0,1,.22.07c.06,0,.09.1.1.21V212a.25.25,0,0,1-.1.14l-.16.1-.09.05-.27.12-.25.1-.39.11-.2.06.32.15L24,213l.13.12,0,0v.06a.29.29,0,0,1,0,.09l0,.08a.2.2,0,0,1-.11.11l-.13.06-.16,0-.1,0-.63-.32-.22.14-.22.16-.3.18-.44.27-.78.46-.31.17-.3.15-.17.05Z"/></g><g class="cls-5"><path class="cls-6" d="M24.18,216.28a.23.23,0,0,1,.23.15l0,.12v.08a.11.11,0,0,1,0,.08l-.1.11-.07,0-.14.07-.14.07-.27.25-.24.18-.43.27-.37.22-.22.13-.25.12-.42.16-.15,0a.32.32,0,0,1-.23-.1.4.4,0,0,1-.09-.23l0-.12a.22.22,0,0,1,.05-.08l.06,0,.2-.11.43-.19.36-.17.25-.12.22-.12.43-.28.25-.16.22-.18.24-.14A.35.35,0,0,1,24.18,216.28Z"/></g><g class="cls-5"><path class="cls-6" d="M111.61,27.16h6.71v1.41h-5.08V31h4.7v1.33h-4.7v2.73h5.18v1.42h-6.81Z"/><path class="cls-6" d="M119.54,28.86c1.25,0,2.44-.42,2.66-1.52h1.22v9.15h-1.63V30h-2.25Z"/></g><g class="cls-5"><path class="cls-6" d="M132.33,97H139v1.41H134v2.44h4.71v1.34H134v2.73h5.18v1.41h-6.81Z"/><path class="cls-6" d="M146.32,106.35h-6.24a4.08,4.08,0,0,1,2-3.46c1.19-.87,2.73-1.59,2.75-3a1.44,1.44,0,0,0-1.54-1.62c-1.17,0-1.53,1-1.56,2.29h-1.49c0-2,1.11-3.53,3.15-3.53a2.71,2.71,0,0,1,2.93,2.81,3.82,3.82,0,0,1-2,3.08c-1.06.73-2.17,1.3-2.43,2.11h4.45Z"/></g><g class="cls-5"><path class="cls-6" d="M154.73,156.19h6.72v1.42h-5.08v2.44h4.7v1.33h-4.7v2.73h5.17v1.41h-6.81Z"/><path class="cls-6" d="M165,160.17c1,0,2-.32,2-1.44a1.3,1.3,0,0,0-1.42-1.29A1.62,1.62,0,0,0,164,159.3h-1.49a3,3,0,0,1,3-3.11,2.62,2.62,0,0,1,2.88,2.45,1.93,1.93,0,0,1-1.29,2v0a2.17,2.17,0,0,1,1.66,2.29c0,1.73-1.49,2.8-3.24,2.8a2.94,2.94,0,0,1-3.21-3.19h1.49a1.69,1.69,0,0,0,1.72,1.95,1.6,1.6,0,0,0,1.75-1.64c0-1.42-1.21-1.6-2.39-1.55Z"/></g><g class="cls-5"><path class="cls-6" d="M148.78,194.82h6.72v1.41h-5.09v2.44h4.71V200h-4.71v2.74h5.18v1.4h-6.81Z"/><path class="cls-6" d="M162.84,202h-1.18v2.16h-1.41V202h-3.92V200.5l3.92-5.5h1.41v5.8h1.18Zm-5.36-1.18h2.77v-4h0Z"/></g></g></g></g></svg>