<svg xmlns="http://www.w3.org/2000/svg" viewBox="0 0 177.09 106.09"><defs><style>.cls-1{fill:#f1f2f2;}.cls-2,.cls-4{fill:none;}.cls-2{stroke:#6f2081;stroke-width:1.51px;}.cls-3{fill:#396287;fill-rule:evenodd;}.cls-4{stroke:#1a1a18;stroke-miterlimit:22.93;stroke-width:0.66px;stroke-dasharray:6.04 3.02;}.cls-5{fill:#383838;}</style></defs><title>S_1</title><g id="Layer_2" data-name="Layer 2"><g id="Layer_1-2" data-name="Layer 1"><g id="S2"><path class="cls-1" d="M121.48,51.3a2.23,2.23,0,1,1-2.22-2.23,2.23,2.23,0,0,1,2.22,2.23"/><path class="cls-2" d="M121.48,51.3a2.23,2.23,0,1,1-2.22-2.23A2.23,2.23,0,0,1,121.48,51.3Z"/><path class="cls-1" d="M117.6,60.61c.18,0,0,.6-.3.63-.7,1.3-1.91,2-2.15,3.33-.06.42-.66.57-.88.54-1.66-.72-2.78-.66-4.41,1.54-3.17.46-3.2,2.57-.24,3.81a9.74,9.74,0,0,0,2.93,1,15.26,15.26,0,0,0-3.72,3.23L84.93,36.13c1.75-1.15,2.78-2,4.68-3.15a11.44,11.44,0,0,1,.94-.75l3.08-1.76c3.26-1.39,7.1-1.93,11.94-3.86.33-.13,1.39-.67,1.72-.49,1.73,1,1.76,1.45,3.57,1.91.51-.22,1.18-.55.09-2a4.47,4.47,0,0,1-1.24-5c1.54-1.54,4.08-.66,5.77.4,2,1.66,2.18,3.35,1.21,4.5-.84-.88-1.72-1.57-2.81-2.69-2.54-2.42-3-1.21-2.6.67,5,5.5,5,10.76,6.77,17.83a8.16,8.16,0,0,1,.18,2.2c-.87,5.11-1.08,8.1-3.2,10.52C113.79,57.22,116,59,117.6,60.61Z"/><path class="cls-3" d="M126.17,19.16a12.67,12.67,0,0,0-8.64-1.27l.54.1c.74.26.76,1.48-.44,1.26-1.57-.72-2.42-1.74-4.37-1.92a2.14,2.14,0,0,0-1.36.5c-.37,0-.43-.24-.32-.61a3.64,3.64,0,0,1,1.1-.47,5.64,5.64,0,0,0-5.44,1.11,34.71,34.71,0,0,0-4.83,5.87c-4.46,1.28-8.67,3-11.39,5-2.79,2.23-5.87,4.41-8.66,6.41-.84,1,.72,1.61,2,1.26,2.09-1.3,3.1-2.16,5.19-3.45,4.17-3.68,9-3.61,16-6.36.33-.13,1.37-.69,1.73-.51,1.72,1,1.74,1.45,3.54,1.91.51-.21,1.2-.55.09-2a4.51,4.51,0,0,1-1.23-5c1.54-1.52,4.07-.65,5.79.41,2,1.67,2.16,3.35,1.19,4.49-.84-.88-1.72-1.55-2.82-2.67-2.54-2.41-3-1.23-2.59.66,5,5.48,5,10.75,6.77,17.82a7.19,7.19,0,0,1,.18,2.21c-.86,5.13-1.09,8.12-3.21,10.54-1.22,2.75,1,4.59,2.57,6.15.19,0,0,.59-.28.64-.72,1.28-1.93,2-2.16,3.32-.07.42-.66.57-.86.55-1.67-.73-2.79-.68-4.43,1.55-3.16.44-3.2,2.55-.25,3.78a8.57,8.57,0,0,0,4.94,1.09c1.49-.42,3.1-2.12,4.57-5.6A64.49,64.49,0,0,0,122,56.85c.38-2.77.58-5.42.69-8-.34,1.77-.7,3.52-1.18,5.25-.14.89-.37,1.57-.52,2.44a.33.33,0,0,1-.56-.3,74.09,74.09,0,0,0,1.81-10.94,17.32,17.32,0,0,0-.25-4.58c-.39-2.54-.13-5.41-.46-8.38-.31-1,1.07-.91,1.18,0,.09,1.63.12,3.13.15,4.61,0-.79,0-1.6,0-2.4a4.31,4.31,0,0,0,2.31-5.28,10.86,10.86,0,0,1-2.36,1.21c-.92.28-1.22-.12-.92-1.18a7.63,7.63,0,0,0-.36-7.19c-.69-2.32,0-2,.85-2.48,1.25-.13,2.51-.31,3.77-.46"/><path class="cls-3" d="M111.58,17.22c-.11.36,0,.61.31.61a2.19,2.19,0,0,1,1.37-.5c1.95.19,2.8,1.2,4.37,1.92,1.2.21,1.19-1,.44-1.26A24.87,24.87,0,0,1,114,16.85a2.52,2.52,0,0,0-2.41.37"/><path class="cls-3" d="M121.5,54.07c.88-3.16,1.35-6.47,2.09-9.68a2.08,2.08,0,0,0-.57-1.55c-.2-3.72-.13-6.79-.32-10.5-.11-.94-1.49-1-1.18,0,.33,3,.07,5.84.46,8.38a17.32,17.32,0,0,1,.25,4.58,74.09,74.09,0,0,1-1.81,10.94.33.33,0,0,0,.56.31c.15-.88.38-1.56.52-2.45"/><path class="cls-3" d="M120.42,57.48c.31,0,.31.63,0,1.13s-.37.83-.6.74-.13-.51.14-1,.14-.95.46-.92"/><path class="cls-3" d="M110.77,30.64c.37,0,.61.21.62.47s-.28.46-.61.47-.62-.2-.62-.46a.51.51,0,0,1,.61-.48"/><path class="cls-3" d="M110.06,28.59c.38,0,.61.21.61.46a.55.55,0,0,1-.61.47c-.33,0-.61-.19-.6-.47a.49.49,0,0,1,.6-.46"/><path class="cls-3" d="M112.36,29.65c.37.08.59.29.55.55s-.34.42-.67.37-.58-.28-.54-.55a.49.49,0,0,1,.66-.37"/><path class="cls-3" d="M113.63,31.59c.39.1.62.31.57.59a.67.67,0,0,1-1.28-.19.53.53,0,0,1,.71-.4"/></g><g id="S1"><path class="cls-1" d="M108.83,74.72c-4.14,4.78-6.49,11.76-11.54,16.48C95.41,92.83,92.12,93.07,89,93c-.25-.12-.46-.21-.67-.33a11.63,11.63,0,0,0,2.09-1.09c2.14-2,2.26-3.87.45-5.8-4.62-1.64-9-3.39-13.63-5a56.63,56.63,0,0,0-10.37-7.53C65,69.34,62.2,64.87,57.6,62.33a1.15,1.15,0,0,1-.42-1.42c1.06-.45,2.3-.36,1.75-2-1-2.78-2-5.57-3-8.35-.09-.27-.27-1,.06-1.3,1.54-1.45.6-4.26-2.09-4.74-.45-.06-.75-.48-1.08-.79a23.77,23.77,0,0,0-4.87-8.64c-2.66-3.6-1.72-4.44,1.15-1.42a34.65,34.65,0,0,0,11.88,8,3.62,3.62,0,0,0,1.9.36,8.66,8.66,0,0,1,3.27.6c1.11,1,2.78,1.88,3.53,3.9,1,.49,1.63.12,1.48-1.24a29.31,29.31,0,0,1-.54-6l2,.24a1.37,1.37,0,0,0-.09.49c0,1.39,1.15,2.2,3.33,1.87s3.35-1.75,2.93-2.9a3.68,3.68,0,0,0-.45-1l4.65-1.51a3.21,3.21,0,0,0,1.51,0c.18-.12.36-.21.52-.3Z"/><path class="cls-3" d="M75.83,36.51a3.19,3.19,0,0,1,2.88,2.43c.41,1.16-.8,2.55-3,2.89s-3.28-.47-3.29-1.86,1.79-3.46,3.37-3.46"/><path class="cls-3" d="M43.44,19.67c.38.94,1.08,2,1.54,2.88A25.9,25.9,0,0,0,50.21,30c2.85,2.94,5.38,5.45,9.82,6.87a18.42,18.42,0,0,0,8.16.42,2.4,2.4,0,0,1,2.38,1.82,28.09,28.09,0,0,0,.56,6.2c.14,1.36-.53,1.72-1.51,1.23-.76-2-2.42-2.92-3.51-3.88A8.71,8.71,0,0,0,62.82,42a3.49,3.49,0,0,1-1.9-.35,34.88,34.88,0,0,1-11.88-8c-2.87-3-3.79-2.19-1.15,1.41a23.41,23.41,0,0,1,4.87,8.66c.33.3.66.72,1.08.79,2.7.48,3.64,3.28,2.11,4.72-.34.31-.17,1-.08,1.3L59,58.89c.53,1.65-.71,1.57-1.77,2a1.12,1.12,0,0,0,.41,1.4c4.62,2.54,7.38,7,9.25,10.88a58.67,58.67,0,0,1,10.39,7.53c4.64,1.62,9,3.4,13.63,5,1.81,1.92,1.68,3.85-.45,5.78-6.34,4-11.31.94-16.3-2a62.26,62.26,0,0,1-13-11.88,60.91,60.91,0,0,1-7.49-16.2c0-.16,0-.31,0-.46,0,0,0,.07,0,.11.35.25.56.17.58-.23a14,14,0,0,1-1.22-3.08,8.3,8.3,0,0,0-.36-2.54c-.38-.67-1-1-1.46-1.72-.58-1.45-1-3.09-1.59-4.56-.17-.94-.31-1.88-.47-2.83a9.57,9.57,0,0,0-.27-5.75,40.71,40.71,0,0,0-5-6.38c-1.23-1.18-2.6-1.85-3.53-2.75A12.94,12.94,0,0,1,40,26.62c-.1.16-.57.31-.66.46-.38-.1-.6-.16-.58-.7-.18-.83,1.5-1.37.88-2.47.12-.85.48-1.16,1.34-.3.31.37.46.42.76.79.32.19.79-.64,1.26-.36-.36-1.07-1.16-2.24.15-3.93a1.88,1.88,0,0,1,.31-.44"/><path class="cls-3" d="M106,73.11a2.55,2.55,0,0,0-.18-1.7c-1.23-1.21-4.78-.59-4.65.31-.52,1-.68,1.84.33,2.3a3,3,0,0,1,1.74,2.81c0,.14-.42.58-.6.41s-.72.15-.71.77c0,1.81-1.69,2.45-2.68,3.92-.9-1.12-1.89-.92-2.79.48-.4,2.79,1,4.16,2.17,3.93,1.81-.37,2.34-1.45,2.43-3.37.06-.13.11-.26.18-.38-.51.18-.69-.7-.28-1,1.68-1.23,3.06-2.55,3.2-4.19a5.51,5.51,0,0,0-.71-3.89c-.3-.58.08-.92.65-.72a3.34,3.34,0,0,1,1.9.32"/><path class="cls-3" d="M77.11,81.24c-.82-.65-1.25-.6-1.29.16,0,1.06-.81,1.87-.55,3.07.9,2,2.35,2.36,3.08,4.31.31.46,1.85.9,3.3.9.35,0,.52-.53.83-.49,4.28.51,6.27,0,6.58-2.22,0-.6.66-.88.69-1.48-3.27-1.42-6.44-2.7-9.08-2.83-.67,0-1.37,0-1.75-.52a2.65,2.65,0,0,0-1.81-.9"/><path class="cls-3" d="M49.16,46.12a9.49,9.49,0,0,0-.26-5.75,40.71,40.71,0,0,0-5-6.38c-1.23-1.18-2.6-1.85-3.53-2.75A12.94,12.94,0,0,1,40,26.62c-.1.16-.57.31-.66.46-.38-.1-.6-.17-.58-.7-.18-.83,1.5-1.37.88-2.47.12-.85.48-1.16,1.34-.3.31.37.46.42.75.8.34.19.8-.65,1.27-.37-.36-1.07-1.16-2.24.15-3.93.23-.56,1.44-1.3.19-1.15a6.63,6.63,0,0,0-2.53.62c-.59.29-1.41.94-1.88,1.08-1.13.41-1.82,1-2.81,1.41-1.28,1.05-.5,3.44-.27,4.63.68,1.59,1.81,2.53,2.15,4.57.3,1.3,1.28,1.72,1.69,2.87A36,36,0,0,0,45.43,45c.45.6.82,1.64,1.28,2.24.75,1,1.68,1.19,2.33,2.44s.68,3.13,1.58,4.17,1.42,3,2.17,4.89c.32.81.58,1.57.9,2.32.34.25.56.17.57-.23a14.51,14.51,0,0,1-1.21-3.08,8.3,8.3,0,0,0-.36-2.54c-.38-.67-1-1-1.46-1.72-.58-1.45-1-3.09-1.59-4.55-.16-1-.31-1.9-.48-2.84"/></g><line id="Lines" class="cls-4" x1="127.62" y1="105.91" x2="62.62" y2="0.17"/><g id="Labels"><path class="cls-5" d="M15,30.11h.19l.15,0,.42.07.45.13.31.13a.71.71,0,0,1,.41.59l0,.21-.11.2-.13.16-.31.26-1.07.72-1,.52-.41.19-.38.07a.46.46,0,0,1-.29-.12l-.08-.14,0-.18,0-.17s.05-.1.14-.17l.34-.17.66-.28.86-.44.34-.18.26-.19.05-.11c0-.16-.21-.24-.65-.24l-.44,0-.52.17c-.37,0-.56-.15-.56-.45a.34.34,0,0,1,.09-.26.66.66,0,0,1,.29-.18l.52-.18Zm3.71,0a2.57,2.57,0,0,1,.71.12.64.64,0,0,1,.22.06l.15.07.32.22a.71.71,0,0,1,.22.24.61.61,0,0,1,.07.32l0,.12-.07.14-.17.19-.16.18-.15.18-.22.18-.59.47-.59.4-.52.3-.23.06-.25,0h-.19a.29.29,0,0,1-.16-.09l-.08-.17a.37.37,0,0,0,0-.12.29.29,0,0,1,.1-.21l.19-.09.24-.12.36-.17.62-.34.47-.38.25-.22a.49.49,0,0,0,.11-.21.22.22,0,0,0-.16-.23l-.37,0h-.24l-.17,0-.18.08-.15,0-.13,0-.32,0-.13-.07-.06,0L17.27,31a.93.93,0,0,1-.06-.21l0-.13a.57.57,0,0,1,.08-.13,1.91,1.91,0,0,1,.24-.17l.16-.07.16,0a1.82,1.82,0,0,1,.38-.11l.27,0Z"/><path class="cls-5" d="M19.06,35.17h.14l.12,0a.57.57,0,0,1,.23.27l0,.26a.3.3,0,0,1-.12.28l-.49.21.24.24a.74.74,0,0,1,.23.53v.23a.25.25,0,0,0,0,.08.36.36,0,0,1,0,.09,1.21,1.21,0,0,1-.65.85l-.35.19-.24.08-.31,0h-.3l-.31,0-.59-.14-.1-.06-.39.32-.18.17-.23.17-.5.37-.21.14-.39.24-.35.21-.73.4-.14.07-.17.08-.3.16-.29,0a.69.69,0,0,1-.62-.36l0-.09L12,40a.33.33,0,0,1,.1-.27l.13-.11.11-.06h.62a1.07,1.07,0,0,0,.48-.12l.8-.43.28-.17.47-.31.3-.22.19-.2.16-.13.18-.19-.12-.22,0-.15,0-.15c0-.14.13-.26.33-.37l.25-.05h.17l.22.11a.41.41,0,0,1,.22.23l0,.2.07.06.21.14.22.08.28,0,.18,0,.16-.06a1,1,0,0,0,.38-.25l.11-.16.05-.14a.44.44,0,0,0-.07-.26l-.12-.13-.17-.1L18,36.5l-.31-.14-.29-.21L17.37,36l-.05-.15a.18.18,0,0,1,.1-.17l.27-.13h.23l.28,0,.18-.08.17-.12.16-.09.17-.07Z"/><path class="cls-5" d="M26.45,30.77a.44.44,0,0,1,.28-.1c.27,0,.4.18.4.54l0,.12a.18.18,0,0,1-.07.09,15.94,15.94,0,0,1-1.56,1.06,12.14,12.14,0,0,1-1.57.79l-.2.07-.16,0c-.14,0-.24-.08-.32-.25l0-.14,0-.19c0-.13.08-.23.25-.28a11.38,11.38,0,0,0,1.24-.66l.4-.24.6-.36C26,31.09,26.24,30.92,26.45,30.77Z"/><path class="cls-5" d="M26.58,36.74V37l0,.08-.05.18a.2.2,0,0,1-.06.14l-.21.3-.1.13a1.3,1.3,0,0,1-1,.38h-.21l-.16,0-.11,0-.14-.06-.25-.16L24,37.73l-.24-.3,0-.07a.69.69,0,0,0-.24.13l-.24.22L22.9,38l.31.13.2.11a.65.65,0,0,1,.4.53.7.7,0,0,1-.12.4,1.66,1.66,0,0,1-.4.41,2.17,2.17,0,0,1-.42.23l-.26.12-.53.19-.2.06-.52.11h-.21l-.16,0-.16,0-.21-.09a.38.38,0,0,1-.11-.11l-.05-.32a.74.74,0,0,1,.05-.33l.12-.09.19,0h.33l.48.13.36,0a.79.79,0,0,0,.61-.22l.13-.16.05-.18c0-.13-.13-.25-.39-.34l-.32-.11a.41.41,0,0,1-.28-.45.94.94,0,0,1,.21-.36l.71-.68L23,36.7l.4-.27.53-.29a3.18,3.18,0,0,1,1.64-.46l.27,0a.88.88,0,0,1,.48.37l.14.22a1.06,1.06,0,0,1,.09.25Zm-.87.21a.39.39,0,0,0-.36-.42h-.17a.82.82,0,0,0-.28,0,.88.88,0,0,0-.3.16l-.12.1-.11.1.25.26a.86.86,0,0,0,.24.13l.11,0,.2,0a.58.58,0,0,0,.33-.09l.12,0,.07-.11Z"/><path class="cls-5" d="M33.43,41.68a.34.34,0,0,1,.34.22l0,.17v.12a.13.13,0,0,1,0,.11l-.14.17-.1.05-.2.09-.21.11-.39.36-.34.25-.62.39-.54.33-.31.17a2,2,0,0,1-.36.18l-.59.23-.23.06a.49.49,0,0,1-.32-.14.6.6,0,0,1-.13-.34l0-.16a.22.22,0,0,1,.07-.12l.08-.06.29-.15.62-.28.52-.25.35-.16.32-.19.62-.39.36-.24.32-.25.34-.2A.46.46,0,0,1,33.43,41.68Z"/><path class="cls-5" d="M32.76,35.55l.16-.11.15,0,.24.05a.21.21,0,0,1,.15.14l0,.18a.56.56,0,0,1,0,.21l-.21.18-.27.29-.18.13-.14.11-1.09.68L30.45,38l-.54.28-.54.22-.55.21a1.55,1.55,0,0,1-.54.1.81.81,0,0,1-.47-.16l-.16-.13a.19.19,0,0,1,0-.09s0-.08,0-.12V38.2a.25.25,0,0,1,0-.1.44.44,0,0,1,.23-.25l.22-.09.2,0,.34,0h.11a1.88,1.88,0,0,0,.84-.22l.6-.29,1.34-.77.95-.62Z"/><path class="cls-5" d="M26.22,57.87h.19l.15,0L27,58l.44.13.31.13a.71.71,0,0,1,.41.59l0,.21-.11.2-.12.16-.31.26-1.08.72-1,.52-.41.19-.38.07a.43.43,0,0,1-.28-.12l-.08-.14,0-.18,0-.17s.05-.1.14-.17l.35-.17.65-.28.86-.44.35-.18.25-.19L27,59c0-.16-.22-.24-.65-.24l-.45,0L25.4,59c-.37,0-.55-.15-.55-.45a.38.38,0,0,1,.08-.26.72.72,0,0,1,.29-.18l.52-.18Zm3.71,0a2.69,2.69,0,0,1,.72.12.65.65,0,0,1,.21.06l.16.07.31.22a.62.62,0,0,1,.22.24.63.63,0,0,1,.08.32l-.05.12-.07.14-.16.19-.16.18-.16.18-.21.18-.59.47-.59.4-.53.3-.23.06-.25,0h-.19a.31.31,0,0,1-.15-.09l-.09-.17a.22.22,0,0,0,0-.12.31.31,0,0,1,.11-.21l.18-.09.24-.12.37-.17.62-.34.47-.38.25-.22a.52.52,0,0,0,.1-.2.22.22,0,0,0-.16-.24l-.37,0h-.24l-.17,0-.18.08-.15,0-.12,0-.33,0-.13-.07-.06,0-.07-.06a.93.93,0,0,1-.06-.21v-.13a.57.57,0,0,1,.08-.13,1.91,1.91,0,0,1,.24-.17l.17-.07.15,0a2,2,0,0,1,.38-.11l.28,0Z"/><path class="cls-5" d="M30.32,62.93h.14l.12,0a.65.65,0,0,1,.24.27l0,.26a.3.3,0,0,1-.12.28l-.49.21.24.24a.74.74,0,0,1,.23.53V65s0,.06,0,.08a.16.16,0,0,1,0,.09A1.23,1.23,0,0,1,30,66l-.36.19-.24.08-.3,0h-.31l-.31,0-.59-.14-.1-.06-.38.32-.19.17-.23.17-.5.37-.21.14-.39.24-.35.21-.72.4-.15.07-.17.08-.29.16-.29,0a.68.68,0,0,1-.62-.36l0-.09-.05-.19a.33.33,0,0,1,.1-.27l.14-.11.1-.06h.63a1,1,0,0,0,.47-.12l.8-.43.28-.17.47-.31.3-.22.19-.2.17-.13.17-.19-.11-.22,0-.15,0-.15a.61.61,0,0,1,.33-.37l.25,0h.17l.22.11a.43.43,0,0,1,.23.23l0,.2.06.06.21.14.22.08.28,0,.19,0,.15-.06a1.1,1.1,0,0,0,.39-.25l.1-.16.05-.14a.44.44,0,0,0-.07-.26l-.11-.13-.17-.1-.16-.11L29,64.12l-.29-.21-.05-.11,0-.15a.18.18,0,0,1,.09-.17l.28-.13h.5l.18-.09.17-.12L30,63l.17-.07Z"/><path class="cls-5" d="M37.71,58.53a.46.46,0,0,1,.28-.1c.27,0,.41.18.41.54l0,.12a.18.18,0,0,1-.07.09,17.13,17.13,0,0,1-1.55,1.06,12.82,12.82,0,0,1-1.57.79L35,61.1l-.16,0a.36.36,0,0,1-.32-.25l0-.14,0-.19c0-.13.09-.23.26-.28A10.69,10.69,0,0,0,36,59.63l.41-.24L37,59Z"/><path class="cls-5" d="M31.86,67.38a.75.75,0,0,1-.5-.13.48.48,0,0,1-.17-.41v-.15a.24.24,0,0,1,.15-.22.81.81,0,0,1,.32-.11,2.5,2.5,0,0,0,1-.24l.83-.46a1.45,1.45,0,0,0,.47-.25l.56-.39.23-.14.23-.2-.11-.1-.2-.23-.09-.19V64a.65.65,0,0,1,.06-.2l.14-.12a.65.65,0,0,1,.37-.15,1.34,1.34,0,0,1,.49.15l.15.09.2.12.56-.29.66-.38.36-.14a2.34,2.34,0,0,1,.7-.22.81.81,0,0,1,.32.11c.08,0,.12.14.13.3v.12a.31.31,0,0,1-.13.19l-.23.15-.14.06-.38.18-.36.15-.56.16-.28.07.45.23.34.17.17.16,0,.06V65a.5.5,0,0,1,0,.12l0,.12a.29.29,0,0,1-.15.16l-.19.08-.23,0-.15,0-.9-.47-.32.2-.32.24-.43.26-.62.39-1.12.64-.45.25-.44.21-.24.08Z"/><path class="cls-5" d="M45.29,58.53a.48.48,0,0,1,.28-.1c.28,0,.41.18.41.54l0,.12a.22.22,0,0,1-.08.09,14.71,14.71,0,0,1-1.55,1.06,12.14,12.14,0,0,1-1.57.79l-.2.07a.67.67,0,0,1-.17,0c-.13,0-.23-.08-.31-.25l0-.14,0-.19c0-.13.08-.23.25-.28a11.38,11.38,0,0,0,1.24-.66l.4-.24.6-.36C44.85,58.85,45.09,58.68,45.29,58.53Z"/><path class="cls-5" d="M43.21,63.22h.2l.16,0h.15l.14,0a.83.83,0,0,1,.34.06l.34.08c.43.1.64.28.64.56a.72.72,0,0,1-.13.39,1.37,1.37,0,0,1-.15.21,2.28,2.28,0,0,1-.22.23l-.32.29-.38.31-.32.23-.5.34a11.66,11.66,0,0,1-1.47.81l-.61.3-.29.11-.37.11-.26,0-.19,0-.11-.06-.17-.11-.1-.21,0-.08c0-.26.09-.4.25-.43l.27,0h.25l.27,0,.17-.05a.77.77,0,0,0,.19,0,1.12,1.12,0,0,0,.24-.1l.31-.15.51-.26.24-.11.4-.21.44-.25.25-.17.16-.11.22-.19a1.85,1.85,0,0,0,.28-.28l.07-.09,0,0a.09.09,0,0,0,0-.07L44,64.19l-.12,0-.28,0-.22,0H43.2l-.47.08h-.06l-.14.07-.14,0-.11,0h-.34l-.2,0a.44.44,0,0,1-.29-.36.57.57,0,0,1,.07-.31.87.87,0,0,1,.28-.19l.25-.09.25-.08Z"/><path class="cls-5" d="M62.87,59.76h.19l.15,0,.42.07.45.12.31.14a.71.71,0,0,1,.41.59l0,.21-.11.2-.13.16-.31.26-1.07.72-1,.52-.41.19-.38.07a.46.46,0,0,1-.29-.12L61,62.78l0-.18,0-.17s.05-.1.14-.17l.34-.17.66-.28.86-.44.34-.18.26-.19,0-.11c0-.16-.21-.24-.65-.24l-.44,0-.52.18c-.37,0-.56-.15-.56-.45a.38.38,0,0,1,.09-.27.91.91,0,0,1,.29-.18l.52-.17Zm3.71,0a2.57,2.57,0,0,1,.71.12.64.64,0,0,1,.22.06l.15.07.32.22a.71.71,0,0,1,.22.24.61.61,0,0,1,.08.32l0,.12-.07.14-.16.19-.17.18-.15.18-.22.18-.59.47-.59.4-.52.3-.23.06-.25,0-.19,0a.26.26,0,0,1-.16-.08l-.08-.17a.37.37,0,0,0,0-.12.29.29,0,0,1,.1-.21l.19-.09.24-.12.36-.17.62-.34.48-.38.25-.22a.5.5,0,0,0,.1-.21.22.22,0,0,0-.16-.23l-.37,0-.24,0-.17,0-.18.08-.15,0-.13,0-.32,0-.13-.07-.06,0-.08-.07a.79.79,0,0,1-.05-.2v-.13a.57.57,0,0,1,.08-.13,1.91,1.91,0,0,1,.24-.17l.16-.07.16,0a2,2,0,0,1,.38-.1l.28,0Z"/><path class="cls-5" d="M67,64.82h.14l.12,0a.53.53,0,0,1,.23.27l0,.26a.3.3,0,0,1-.12.28l-.49.21.24.23a.78.78,0,0,1,.23.54v.23a.25.25,0,0,0,0,.08.12.12,0,0,1,0,.08,1.22,1.22,0,0,1-.64.86l-.36.19-.24.08-.3,0h-.31l-.31,0L64.54,68l-.1-.06-.38.32-.19.17-.23.17-.5.37-.21.13-.39.25-.35.21-.72.4-.15.07-.17.08-.3.16-.29,0A.66.66,0,0,1,60,70l0-.09,0-.19a.32.32,0,0,1,.1-.27l.13-.11.11-.06h.63a1.06,1.06,0,0,0,.47-.12l.8-.43.28-.17.47-.31.3-.22.19-.2.16-.13.18-.19-.12-.22,0-.15,0-.15c0-.14.13-.26.33-.37l.25,0h.17l.22.11a.36.36,0,0,1,.22.23l0,.2.06.06.21.13.22.09h.28l.19,0,.15-.06a1,1,0,0,0,.38-.25l.11-.16,0-.14a.44.44,0,0,0-.07-.26l-.12-.13-.17-.1-.15-.11L65.62,66l-.29-.21,0-.11,0-.15a.18.18,0,0,1,.09-.17l.27-.13h.23l.28,0,.18-.08.17-.12.16-.09.17-.07Z"/><path class="cls-5" d="M71.26,60.12a.63.63,0,0,1,.26-.07c.16,0,.26.12.31.34v.16c-.3.24-.59.45-.88.64a3.76,3.76,0,0,0-.62.5.61.61,0,0,0-.21.38.36.36,0,0,0,.41.31h.18a.83.83,0,0,0,.7-.26.34.34,0,0,1,.31-.14c.2,0,.34.18.4.52s-.21.51-.63.58l-.26,0h-.41c-1.12,0-1.69-.33-1.69-1a1.41,1.41,0,0,1,.57-.9l.38-.31.35-.25Zm3.63,0,.15,0,.16,0c.19,0,.31.11.36.35v.09a.33.33,0,0,1-.14.27l-.91.51c-.62.35-.93.59-.93.7v.15c0,.2.22.3.68.3a1,1,0,0,0,.62-.19l.19-.14.13-.06a.47.47,0,0,1,.31.15.38.38,0,0,1,.15.3.55.55,0,0,1-.24.4l-.2.11-.25.08-.41.05h-.52c-1,0-1.46-.28-1.46-.85l0-.25a3,3,0,0,1,1.11-1.18A13.21,13.21,0,0,1,74.89,60.12Z"/><path class="cls-5" d="M73.41,64.43l.16-.05h.17a.36.36,0,0,1,.22.14.68.68,0,0,1,0,.13v.12a.68.68,0,0,1-.38.45l-.22.11.1.06.25.14a.9.9,0,0,1,.2.18.34.34,0,0,1,.06.2c0,.14-.1.29-.3.46l-.85.39.23.14.25.16a1.93,1.93,0,0,1,.05.26v.09a.31.31,0,0,1-.05.13l-.23.22-.49.37-.53.39-.42.3-1.13.76-.4.26a3,3,0,0,1-.36.18l-.12,0-.18.09-.46.2a1.93,1.93,0,0,1-.57.16.46.46,0,0,1-.21-.05l-.13-.06-.1-.09a.42.42,0,0,1-.09-.14,1.2,1.2,0,0,1,0-.23c0-.22.16-.37.5-.45l.22,0,.16,0,.2-.06a.55.55,0,0,0,.18-.06,1.18,1.18,0,0,0,.23-.08l.29-.13.29-.16L71,68.25l.52-.35.72-.52-.41-.26a.44.44,0,0,1-.16-.35.28.28,0,0,1,0-.15,1.17,1.17,0,0,1,.2-.21l.33-.17.5-.24-.22-.14-.28-.16-.15-.1-.06-.07L72,65.4l0-.06,0-.08L72,65.2l.19-.15,0,0,.08,0a1.31,1.31,0,0,0,.28-.09l.21-.09.21-.1.19-.14Z"/><path class="cls-5" d="M77.23,59.76h.19l.15,0,.42.07.45.12.31.14a.71.71,0,0,1,.41.59l0,.21-.11.2-.13.16-.31.26-1.07.72-1,.52L76.1,63l-.38.07a.46.46,0,0,1-.29-.12l-.08-.14,0-.18,0-.17s0-.1.14-.17l.34-.17.66-.28.86-.44.34-.18L78,61l0-.11c0-.16-.21-.24-.65-.24l-.44,0-.52.18c-.37,0-.56-.15-.56-.45a.38.38,0,0,1,.09-.27.91.91,0,0,1,.29-.18l.52-.17Zm3.71,0a2.69,2.69,0,0,1,.72.12.65.65,0,0,1,.21.06L82,60l.32.22a.71.71,0,0,1,.22.24.61.61,0,0,1,.08.32l0,.12-.07.14-.17.19-.16.18-.15.18-.22.18-.59.47-.59.4-.52.3-.23.06-.25,0-.19,0a.26.26,0,0,1-.16-.08l-.08-.17a.22.22,0,0,0,0-.12.29.29,0,0,1,.1-.21l.19-.09.24-.12.36-.17.62-.34.47-.38.26-.22a.5.5,0,0,0,.1-.21.22.22,0,0,0-.16-.23l-.38,0-.23,0-.17,0-.18.08-.15,0-.13,0-.32,0-.13-.07-.06,0-.08-.07a.68.68,0,0,1-.06-.2l0-.13a.57.57,0,0,1,.08-.13,1.91,1.91,0,0,1,.24-.17L80,60l.15,0a2,2,0,0,1,.38-.1l.27,0Z"/><path class="cls-5" d="M81.33,64.82h.14l.12,0a.53.53,0,0,1,.23.27l0,.26a.3.3,0,0,1-.12.28l-.49.21.24.23a.78.78,0,0,1,.23.54v.23a.25.25,0,0,0,0,.08.12.12,0,0,1,0,.08,1.22,1.22,0,0,1-.64.86l-.36.19-.24.08-.31,0h-.3l-.31,0L78.9,68,78.8,68l-.38.32-.19.17-.23.17-.5.37-.21.13-.39.25-.35.21-.73.4-.14.07-.17.08-.3.16-.29,0A.68.68,0,0,1,74.3,70l0-.09,0-.19a.32.32,0,0,1,.1-.27l.13-.11.11-.06h.63a1.06,1.06,0,0,0,.47-.12l.8-.43.28-.17.47-.31.3-.22.19-.2.16-.13.18-.19-.12-.22,0-.15,0-.15c0-.14.13-.26.33-.37l.25,0h.17l.22.11a.36.36,0,0,1,.22.23l0,.2.06.06.21.13.22.09h.28l.18,0,.16-.06a1,1,0,0,0,.38-.25l.11-.16,0-.14a.44.44,0,0,0-.07-.26l-.12-.13-.16-.1-.16-.11L80,66l-.29-.21,0-.11,0-.15a.18.18,0,0,1,.09-.17l.27-.13h.23l.28,0,.18-.08.17-.12.16-.09.17-.07Z"/><path class="cls-5" d="M88.72,60.42a.46.46,0,0,1,.28-.1c.27,0,.4.18.4.54l0,.12a.18.18,0,0,1-.07.09,15.94,15.94,0,0,1-1.56,1.06,14.29,14.29,0,0,1-1.56.79L86,63l-.16,0c-.14,0-.24-.08-.32-.25l0-.14,0-.19c0-.13.08-.23.26-.28A11.66,11.66,0,0,0,87,61.52l.41-.24.6-.37C88.27,60.74,88.51,60.57,88.72,60.42Z"/><path class="cls-5" d="M82.87,69.27a.8.8,0,0,1-.51-.13.5.5,0,0,1-.16-.41v-.15a.25.25,0,0,1,.14-.22.72.72,0,0,1,.32-.11,2.45,2.45,0,0,0,1-.24l.84-.46A1.82,1.82,0,0,0,85,67.3l.55-.39.23-.14.24-.2-.11-.1-.2-.23-.09-.19v-.19a.79.79,0,0,1,.07-.2l.14-.12a.57.57,0,0,1,.37-.15,1.4,1.4,0,0,1,.49.15l.15.09.19.12.57-.3.66-.37.35-.15a2.75,2.75,0,0,1,.7-.21.81.81,0,0,1,.33.11.35.35,0,0,1,.13.3v.12a.4.4,0,0,1-.13.19l-.24.15-.13.06-.38.18L88.5,66l-.56.16-.29.07.45.22.34.18.18.16,0,.06v.1a.27.27,0,0,1,0,.12l0,.12a.35.35,0,0,1-.16.16l-.18.08-.24,0a.26.26,0,0,1-.14,0L87,67l-.31.2-.32.23-.43.26-.62.39-1.13.65-.45.25-.43.21-.24.08Z"/><path class="cls-5" d="M96.3,60.42a.48.48,0,0,1,.29-.1c.26,0,.4.18.4.54L97,61a.22.22,0,0,1-.08.09,14.71,14.71,0,0,1-1.55,1.06,13.57,13.57,0,0,1-1.57.79l-.2.07a.67.67,0,0,1-.17,0,.36.36,0,0,1-.32-.25l0-.14,0-.19c0-.13.09-.23.26-.28a11.38,11.38,0,0,0,1.24-.66l.4-.24c.21-.12.41-.24.6-.37S96.1,60.57,96.3,60.42Z"/><path class="cls-5" d="M94.22,65.11h.19l.17,0h.14l.15,0a1,1,0,0,1,.33,0l.35.09c.42.09.63.28.63.56a.79.79,0,0,1-.12.39l-.15.21a2.27,2.27,0,0,1-.22.22l-.32.3L95,67.3l-.33.23-.49.34a13.08,13.08,0,0,1-1.47.81l-.61.3-.3.1-.36.12-.26,0-.2,0-.1-.06L90.7,69l-.1-.21,0-.08c0-.26.08-.4.25-.43l.27,0h.25l.27,0,.17-.05a.77.77,0,0,0,.19,0,1.12,1.12,0,0,0,.24-.1l.31-.16.51-.25.23-.11a4.07,4.07,0,0,0,.41-.21l.43-.25.26-.17.16-.12.22-.18a1.85,1.85,0,0,0,.28-.28l.07-.09,0,0a.15.15,0,0,0,0-.07L95,66.08l-.12,0-.28,0-.22,0h-.13l-.47.07-.06,0-.14.06-.15.06-.1,0H93l-.2,0a.43.43,0,0,1-.29-.36.68.68,0,0,1,.06-.31,1,1,0,0,1,.29-.19l.25-.09.25-.08Z"/><path class="cls-5" d="M51.16,84.46h.19l.15,0,.42.07.45.13.31.14a.71.71,0,0,1,.41.58l0,.22-.11.19-.13.17-.31.26L51.44,87l-1,.53-.41.18-.38.08a.46.46,0,0,1-.29-.12l-.08-.14,0-.18,0-.18s.05-.09.14-.17l.34-.17.66-.28.86-.43.34-.19.26-.18L52,85.6c0-.16-.21-.25-.65-.25l-.44,0-.52.18c-.37,0-.56-.15-.56-.46a.36.36,0,0,1,.09-.26.91.91,0,0,1,.29-.18l.52-.17Zm3.71,0a2.51,2.51,0,0,1,.71.11.63.63,0,0,1,.22.07l.15.07.32.21a.71.71,0,0,1,.22.24.67.67,0,0,1,.08.33l0,.11-.07.14-.16.19-.17.19-.15.17-.22.18-.59.47-.59.41-.52.3-.23.06-.25,0h-.19a.29.29,0,0,1-.16-.09l-.08-.16a.33.33,0,0,0,0-.12.28.28,0,0,1,.1-.21l.19-.1.24-.12.36-.17.62-.34.47-.37.26-.22a.67.67,0,0,0,.1-.21.24.24,0,0,0-.16-.24l-.37,0-.24,0-.17,0-.18.08-.15,0-.13,0-.32,0-.13-.06-.06,0-.08-.06a.93.93,0,0,1-.06-.21l0-.12a.41.41,0,0,1,.08-.13,1.24,1.24,0,0,1,.24-.17l.16-.08.16,0a2,2,0,0,1,.38-.11l.28,0Z"/><path class="cls-5" d="M55.26,89.52h.14a.21.21,0,0,1,.12,0,.49.49,0,0,1,.23.27l0,.25a.32.32,0,0,1-.12.29l-.49.2.24.24a.74.74,0,0,1,.23.53v.24a.22.22,0,0,0,0,.08.59.59,0,0,1,0,.08,1.22,1.22,0,0,1-.65.86l-.35.19-.24.08-.31,0h-.3l-.31,0-.59-.14-.1-.07-.39.33-.18.16-.23.18-.5.36-.21.14-.39.24-.35.21-.73.41-.14.06-.17.08-.3.16-.29,0a.7.7,0,0,1-.62-.35l0-.09,0-.2a.33.33,0,0,1,.1-.27l.13-.1.11-.06h.62a1.07,1.07,0,0,0,.48-.12l.8-.43.28-.18.47-.31.3-.21.19-.21.16-.12L52,92.2,51.87,92l0-.15,0-.14a.56.56,0,0,1,.33-.38l.25,0h.17l.22.1a.39.39,0,0,1,.22.24l0,.19.06.06.21.14.22.09h.28l.18,0,.16-.06a1,1,0,0,0,.38-.25l.11-.15,0-.14a.42.42,0,0,0-.07-.26l-.12-.13L54.37,91l-.15-.1-.31-.15-.29-.2,0-.11,0-.15a.18.18,0,0,1,.09-.18l.27-.13h.51l.18-.08.17-.12.16-.1.17-.07Z"/><path class="cls-5" d="M59.55,84.83a.5.5,0,0,1,.25-.07c.17,0,.27.11.31.33v.17c-.3.24-.59.45-.88.64a3.31,3.31,0,0,0-.62.5.59.59,0,0,0-.21.37c0,.21.17.31.41.31H59a.8.8,0,0,0,.7-.26.36.36,0,0,1,.31-.13c.2,0,.34.17.4.52s-.21.51-.63.58l-.26,0H59.1c-1.12,0-1.69-.33-1.69-1a1.41,1.41,0,0,1,.57-.9l.38-.3.35-.26Zm3.63,0,.15,0,.16,0c.19,0,.31.12.36.35v.09a.35.35,0,0,1-.14.28l-.91.51c-.62.35-.93.58-.93.7v.15c0,.19.22.29.68.29a.9.9,0,0,0,.62-.19l.19-.13.13-.06a.49.49,0,0,1,.31.15.36.36,0,0,1,.15.29.53.53,0,0,1-.24.4l-.2.11-.25.09-.41,0-.22,0h-.3c-1,0-1.46-.29-1.46-.86l0-.25A3,3,0,0,1,62,85.53,10.3,10.3,0,0,1,63.18,84.83Z"/><path class="cls-5" d="M61.7,89.13l.16,0,.17,0a.44.44,0,0,1,.22.15.48.48,0,0,1,0,.13v.11a.66.66,0,0,1-.38.45L61.7,90l.1.06.25.14a1.13,1.13,0,0,1,.19.18.31.31,0,0,1,.07.21c0,.14-.1.29-.3.46l-.85.39.23.14.24.15a.89.89,0,0,1,.06.27v.09a.22.22,0,0,1-.06.12l-.22.22-.49.38-.53.38-.42.31-1.13.75a3.61,3.61,0,0,1-.4.26,3.94,3.94,0,0,1-.36.19l-.12,0-.18.09-.46.2a1.66,1.66,0,0,1-.57.16.46.46,0,0,1-.21,0l-.13-.07-.1-.08a.38.38,0,0,1-.09-.15,1,1,0,0,1,0-.22c0-.23.17-.38.51-.46a1.3,1.3,0,0,0,.22,0l.16,0,.2,0,.18-.06a.87.87,0,0,0,.22-.08l.3-.13.29-.17L59.31,93l.52-.34.72-.52-.41-.27a.44.44,0,0,1-.17-.34.3.3,0,0,1,.05-.15.91.91,0,0,1,.2-.21l.33-.17.5-.25-.22-.14-.28-.16-.15-.09-.06-.07-.08-.13,0-.06,0-.09.06,0a1,1,0,0,1,.19-.15l0,0,.08,0a1.08,1.08,0,0,0,.27-.1l.22-.09a1,1,0,0,0,.21-.1l.19-.14Z"/><path class="cls-5" d="M145.1,41.87l.16-.11.15,0,.24.05a.21.21,0,0,1,.15.14l0,.18a.37.37,0,0,1,0,.21l-.21.18-.27.29-.18.14L145,43l-1.08.68-1.13.64-.54.28-.54.22-.55.22a1.79,1.79,0,0,1-.54.09.89.89,0,0,1-.47-.15l-.16-.14a.36.36,0,0,1-.05-.09s0-.07,0-.11v-.14a.25.25,0,0,1,0-.1.44.44,0,0,1,.23-.25l.22-.08.2,0,.34,0H141a2.08,2.08,0,0,0,.85-.21l.59-.29,1.34-.78,1-.62Z"/><path class="cls-5" d="M145.27,36.38h.44a.33.33,0,0,1,.15,0,1.41,1.41,0,0,1,.8.19.62.62,0,0,1,.28.52,1.55,1.55,0,0,1-.51.9l-.32.34-.41.34a2.58,2.58,0,0,1-.4.29,3.58,3.58,0,0,1-.48.24l-.72.31-.36.17-.25,0c-.05,0-.11-.06-.2-.16l-.06-.12-.06-.13a.39.39,0,0,1,.09-.26.62.62,0,0,1,.29-.21l.31-.09.36-.12a2,2,0,0,0,.38-.15,1.83,1.83,0,0,0,1.2-1.11l-.07-.05-.08,0-.28,0-.19,0-.21,0h-.22l-.12,0-.17.09-.13.07-.13.06H144a.37.37,0,0,1-.19-.08l-.13-.19,0-.16a.33.33,0,0,1,.17-.31,3.57,3.57,0,0,1,.69-.29A3.29,3.29,0,0,1,145.27,36.38Z"/><path class="cls-5" d="M138.88,41.79a.85.85,0,0,1,.54.14.34.34,0,0,1,.1.23v.09l0,.08-.11.1-.11.06-.15.09a.33.33,0,0,0-.09.23.43.43,0,0,0,.17.37l.19.13.09,0,.13,0,.21,0a.68.68,0,0,0,.18-.13l.15-.13.19-.12.3-.06.13,0a.54.54,0,0,1,.2.18l.05.1v.13a.69.69,0,0,1-.13.24l-.2.15-.24.15-.29.21-.87.56-1,.57-.53.29-.45.23-.41.2-.53.22-.38.11c-.4,0-.61-.17-.61-.51a.74.74,0,0,1,.11-.34.42.42,0,0,1,.11-.14.22.22,0,0,1,.13,0l.15,0,.21,0,.22,0a4.61,4.61,0,0,0,.54-.23l1-.51.48-.27.62-.41c0-.07,0-.11,0-.13l-.13,0-.26-.08a.73.73,0,0,1-.34-.22l-.08-.11-.06-.17,0-.28v-.12a.17.17,0,0,1,0-.1l.13-.31a.93.93,0,0,1,.29-.39l.09-.08.13-.06A.45.45,0,0,1,138.88,41.79Z"/><path class="cls-5" d="M140.54,36.38H141a.33.33,0,0,1,.15,0,1.41,1.41,0,0,1,.8.19.59.59,0,0,1,.28.52,1.55,1.55,0,0,1-.51.9l-.32.34-.41.34a2.47,2.47,0,0,1-.39.29l-.48.24-.73.31-.36.17-.25,0s-.11-.06-.2-.16l-.06-.12-.06-.13a.39.39,0,0,1,.09-.26.61.61,0,0,1,.3-.21l.31-.09.36-.12a2.09,2.09,0,0,0,.37-.15,1.81,1.81,0,0,0,1.2-1.11l-.07-.05-.08,0-.27,0-.2,0-.21,0H140l-.12,0-.17.09-.13.07-.12.06h-.2a.37.37,0,0,1-.19-.08l-.13-.19,0-.16a.33.33,0,0,1,.17-.31,3.57,3.57,0,0,1,.69-.29A3.31,3.31,0,0,1,140.54,36.38Z"/><path class="cls-5" d="M136.2,41.49h.14l.12,0a.55.55,0,0,1,.23.28l0,.25a.32.32,0,0,1-.12.29l-.49.2.24.24a.74.74,0,0,1,.23.53v.24a.19.19,0,0,0,0,.08.2.2,0,0,1,0,.08,1.19,1.19,0,0,1-.65.85l-.35.2-.24.08-.3,0h-.31l-.31,0-.59-.14-.1-.07-.39.32-.18.17-.23.18-.5.36-.22.14-.38.24-.35.21-.72.4-.15.07-.17.08-.3.16-.29,0a.69.69,0,0,1-.62-.36l0-.09,0-.19a.33.33,0,0,1,.1-.27l.13-.1.11-.06h.63a1.21,1.21,0,0,0,.47-.12l.8-.43.28-.18.47-.31.3-.21.19-.21.16-.13.18-.19-.12-.22,0-.15,0-.15c0-.14.13-.26.33-.37l.25-.05h.17l.22.1a.41.41,0,0,1,.22.23l0,.2.07.06.21.14.22.09h.28l.19,0,.15-.06a1,1,0,0,0,.38-.25l.11-.16,0-.13a.4.4,0,0,0-.07-.26l-.12-.14-.17-.1-.15-.1-.31-.15-.29-.21-.05-.11,0-.14a.18.18,0,0,1,.09-.18l.27-.13h.51l.18-.09.17-.11.16-.1.17-.07Z"/><path class="cls-5" d="M132.51,36.43h.2l.14,0,.43.07.44.13.31.14a.71.71,0,0,1,.42.58l0,.21-.11.2-.13.17-.31.25-1.08.72-1,.52-.42.19-.37.07a.44.44,0,0,1-.29-.12l-.08-.14,0-.17,0-.18a.36.36,0,0,1,.14-.17l.35-.17.66-.28.85-.43.35-.19.26-.18.05-.12c0-.16-.21-.24-.65-.24l-.44,0-.52.17c-.38,0-.56-.15-.56-.45a.36.36,0,0,1,.09-.26.8.8,0,0,1,.29-.18l.51-.17Zm3.71,0a2.53,2.53,0,0,1,.72.11.71.71,0,0,1,.22.06l.15.08.32.21a.71.71,0,0,1,.22.24.63.63,0,0,1,.07.32l0,.12-.07.14-.17.19-.16.19-.15.17-.22.18-.59.47-.59.4-.52.3-.23.06-.25,0h-.19a.29.29,0,0,1-.16-.09l-.08-.16a.39.39,0,0,0,0-.13.26.26,0,0,1,.1-.2l.19-.1.24-.12.36-.17.62-.34.47-.37.25-.23a.36.36,0,0,0,.1-.2.23.23,0,0,0-.15-.24l-.38,0-.23,0-.17,0-.19.07-.14,0-.13,0-.32,0-.14-.07-.05,0-.08-.06a.93.93,0,0,1-.06-.21l0-.12a.39.39,0,0,1,.08-.14l.23-.16.17-.08.16,0a1.82,1.82,0,0,1,.38-.11l.27,0Z"/><path class="cls-5" d="M136.73,11.38h.19l.15,0,.42.07.45.12.31.14a.71.71,0,0,1,.41.59l0,.21-.11.19-.13.17-.31.26-1.07.72-1,.52-.41.19-.38.07a.46.46,0,0,1-.29-.12l-.08-.14,0-.18,0-.17s0-.1.14-.17l.34-.17.66-.28.86-.44.34-.18.26-.19.05-.11c0-.16-.21-.24-.65-.24l-.44,0-.52.18c-.37,0-.56-.15-.56-.45a.38.38,0,0,1,.09-.27.91.91,0,0,1,.29-.18l.52-.17Zm3.71,0a2.93,2.93,0,0,1,.71.11,1,1,0,0,1,.22.07l.15.07.32.22a.71.71,0,0,1,.22.24.61.61,0,0,1,.08.32l0,.12-.07.14-.17.19-.16.18-.15.18-.22.18-.59.47-.59.4-.52.3-.23.06-.25,0-.19,0a.33.33,0,0,1-.16-.08l-.08-.17a.37.37,0,0,0,0-.12.29.29,0,0,1,.1-.21L139,14l.24-.12.36-.17.62-.34.47-.38.26-.22a.67.67,0,0,0,.1-.21.22.22,0,0,0-.16-.23l-.37,0-.24,0-.17,0-.18.08-.15,0-.13,0-.32,0-.13-.07-.06,0L139,12.3a1.29,1.29,0,0,1-.06-.2l0-.13a.57.57,0,0,1,.08-.13l.23-.17.17-.07.16,0a1.78,1.78,0,0,1,.38-.1l.27,0Z"/><path class="cls-5" d="M140.83,16.44H141l.12,0a.59.59,0,0,1,.24.27l0,.26a.3.3,0,0,1-.12.28l-.49.21.24.23a.76.76,0,0,1,.23.54v.23s0,.06,0,.08,0,.05,0,.08a1.2,1.2,0,0,1-.65.86l-.35.19-.24.08-.3,0h-.31l-.31,0-.59-.14-.1-.06-.38.32-.19.17-.23.17-.5.37-.21.13-.39.25-.35.21-.72.4-.15.06-.17.09-.3.16-.29,0a.69.69,0,0,1-.62-.35l0-.09,0-.19a.32.32,0,0,1,.1-.27l.14-.11.1-.06h.63a1.06,1.06,0,0,0,.47-.12l.8-.43.28-.17.47-.31.3-.22.19-.2.16-.13.18-.19-.12-.22,0-.15,0-.15c0-.14.13-.26.33-.37l.25,0h.17l.22.11a.36.36,0,0,1,.22.23l0,.2.07.06.21.13.22.09h.28l.19,0,.15,0a1.13,1.13,0,0,0,.38-.25l.11-.16.05-.14a.44.44,0,0,0-.07-.26l-.12-.13-.17-.1-.15-.11-.31-.14-.29-.21-.05-.11,0-.15a.18.18,0,0,1,.09-.17l.28-.13h.23l.27,0,.18-.08.17-.12.16-.09.17-.08Z"/><path class="cls-5" d="M147.47,22.67q.36,0,.36.57s-.05.1-.15.19l-.19.14-.29.18-1.41.85-1.51.86-.13,0c-.25,0-.37-.15-.37-.46s.14-.32.41-.47l.59-.32.56-.32,1-.61A5.55,5.55,0,0,1,147.47,22.67Zm.48,1.57.12,0,.17,0a.37.37,0,0,1,.37.28l0,.24a.29.29,0,0,1-.1.22l-2.09,1.23-1,.56-.16.08-.18,0a.5.5,0,0,1-.34-.2l0-.15v-.15a.43.43,0,0,1,.14-.25,4.39,4.39,0,0,1,.49-.35l.83-.42c.33-.18.65-.37,1-.58Z"/><path class="cls-5" d="M146.81,16.73H147a.51.51,0,0,1,.16,0h.3a1,1,0,0,1,.33.06l.34.09c.43.09.64.28.64.56a.79.79,0,0,1-.12.39l-.16.21a1.51,1.51,0,0,1-.22.22l-.31.3-.39.31-.32.23-.49.34a15.11,15.11,0,0,1-1.47.81l-.62.3-.29.1-.36.12-.27,0-.19,0-.11-.06-.17-.11-.1-.21,0-.08c0-.26.08-.4.24-.43l.28,0h.24l.27,0,.18-.05a.7.7,0,0,0,.18,0,1.12,1.12,0,0,0,.24-.1l.31-.16.51-.25.24-.11a4.16,4.16,0,0,0,.4-.21l.44-.25.25-.17.16-.12.22-.18a1.85,1.85,0,0,0,.28-.28l.08-.09,0,0a.09.09,0,0,0,0-.07l-.13-.06-.11,0-.28,0-.23,0h-.13l-.46.07-.07,0-.13.06-.15.06-.1,0h-.34l-.21,0a.44.44,0,0,1-.29-.36.57.57,0,0,1,.07-.31.77.77,0,0,1,.29-.19l.24-.09.25-.08Z"/><path class="cls-5" d="M2.35,85.22c0,2.06,1.52,2.87,3.39,2.87,2.07,0,2.84-1,2.84-2a1.59,1.59,0,0,0-1.11-1.65c-.94-.36-2.16-.6-4-1.11-2.29-.62-3-2-3-3.39,0-2.69,2.47-4,4.9-4,2.79,0,5.14,1.49,5.14,4.28H8.2c-.11-1.72-1.27-2.36-2.89-2.36-1.09,0-2.46.39-2.46,1.74,0,.94.64,1.47,1.6,1.73.2.06,3.17.83,3.86,1a3.55,3.55,0,0,1,2.61,3.42c0,3-2.66,4.2-5.33,4.2C2.53,90,.06,88.54,0,85.22Z"/><path class="cls-5" d="M12.54,78.72c1.8,0,3.51-.6,3.83-2.17h1.74V89.69H15.77V80.41H12.54Z"/><path class="cls-5" d="M158.17,32.49c0,2.06,1.52,2.87,3.4,2.87,2.07,0,2.83-1,2.83-2a1.6,1.6,0,0,0-1.1-1.65c-.94-.36-2.16-.6-4-1.11-2.29-.62-3-2-3-3.39,0-2.69,2.48-3.95,4.9-3.95,2.8,0,5.15,1.49,5.15,4.28H164c-.11-1.72-1.28-2.36-2.89-2.36-1.09,0-2.46.39-2.46,1.74,0,.94.64,1.47,1.59,1.73.21.06,3.18.83,3.87,1a3.55,3.55,0,0,1,2.61,3.42c0,3-2.66,4.2-5.33,4.2-3.06,0-5.54-1.46-5.59-4.78Z"/><path class="cls-5" d="M177.08,37h-9A5.91,5.91,0,0,1,171,32c1.71-1.24,3.92-2.27,4-4.32a2.07,2.07,0,0,0-2.21-2.32c-1.69,0-2.2,1.44-2.26,3.28h-2.14c0-2.91,1.6-5.07,4.53-5.07a3.9,3.9,0,0,1,4.22,4c0,2.08-1.42,3.38-2.92,4.43s-3.12,1.86-3.5,3h6.41Z"/></g></g></g></svg>