<svg xmlns="http://www.w3.org/2000/svg" viewBox="0 0 196.95 160.75"><defs><style>.cls-1{fill:#f1f2f2;}.cls-2{fill:#396287;fill-rule:evenodd;}.cls-3{fill:none;stroke:#1a1a18;stroke-miterlimit:22.93;stroke-width:0.34px;stroke-dasharray:3.06 1.53;}.cls-4{fill:#383838;}</style></defs><title>SH</title><g id="Layer_2" data-name="Layer 2"><g id="Layer_1-2" data-name="Layer 1"><g id="C1"><path class="cls-1" d="M150.53,82H64.46c-.63-3.57-2.19-6.79-2.08-11.17-.37-.93-.28-2.08-.57-3.06-1-3.07-2-3.68-2.1-8.83.55-2.72-1.44-4.44-2.86-6.48l-4.32-4.07C47.38,45.05,43,46,37.46,43.21,34,41.43,29.54,36,29.61,33.48a25.48,25.48,0,0,0,0-7.5L57.45.17h27a35.81,35.81,0,0,0,.28,9.19A30.14,30.14,0,0,0,88.31,21h0a10.31,10.31,0,0,1,1,2,1.46,1.46,0,0,0,.16.44h0a10.67,10.67,0,0,0,2.17,4.73c2.68,3.37,6.8,2.84,10.23,5.32a48,48,0,0,0,6.28,3.66c2.72,1.18,7,1.71,10.31,2.8a43,43,0,0,0,3.63,2.54c2.53.22,5.38-2.17,8.21.66a99.32,99.32,0,0,0,6.6,9.67,20.87,20.87,0,0,0,3.44,3.06c2,1.53,1,5.42,1.37,7.83,3.71,3.75,4.23,10.72,8,16.46A20,20,0,0,0,150.53,82Z"/><path class="cls-2" d="M38.15,29.84c-1-.49-1.12-.31-.4.53a2.25,2.25,0,0,1,1.73,2.5,2.06,2.06,0,0,0,.9,1.73c1.23.35,1.89-.6,1.53-1.53a14.17,14.17,0,0,0-3.72-3.22"/><path class="cls-2" d="M37.63,28c-1.92-.64-2.91,0-3.3,1.54a8.49,8.49,0,0,0,1,4.21,19.17,19.17,0,0,0,4.59,6.12c1.12,1.12,2.27,1.77,3.62-.84a13.16,13.16,0,0,1,.76-2.88c1.26-1.76,2.19-3.44,0-4.91-2.22-1-4.42-2.09-6.64-3.22"/><path class="cls-2" d="M57.69,46a3.1,3.1,0,0,1,1.7.67l.11.1c3.32,2.34,1.15,4.52-.55,6.4l-.11.11-.11.1a2.45,2.45,0,0,1-3.06.25,4.35,4.35,0,0,1-2.73-4.11c.11-2.54,1.53-3.9,4.81-3.52"/><path class="cls-2" d="M67.62,61.83a1.8,1.8,0,0,0-2.47.58l0,.05a7.11,7.11,0,0,0,0,2.16,24.29,24.29,0,0,1-.93,2.64c-.4,1.93,1.53,2.68,3.27,2.85a4.62,4.62,0,0,0,3.45-2.82A2,2,0,0,0,71,66.11l-.18.11c-.28,0-.46-.13-.4-.39a1.38,1.38,0,0,0,.32-.58,7.76,7.76,0,0,0-.43-1.42.68.68,0,0,1-.2-.36,4.4,4.4,0,0,0-2.46-1.64"/><path class="cls-2" d="M107.75,59.57c.85,0,1.21.52,1.21,1.53s-.8,2.22-1.66,2.2-.75-.78-.73-1.86.32-1.95,1.18-1.95"/><path class="cls-2" d="M137,50.9c.75,0,.94,1,.94,2.22s-.48,2.05-1.17,1.76a2.3,2.3,0,0,1-1.05-2.14c0-1.21.53-1.84,1.28-1.84"/><path class="cls-2" d="M140.92,62.19a.76.76,0,0,0-1,.2c-.72,1.73,1.1,2.23.93,4.24,0,.57.45.52.87.4l1.06-1.67L141.6,63l-.68-.76"/><path class="cls-2" d="M40.92,17.43a2.31,2.31,0,0,1,2.69,1.67c0,.7-.91,1.33-2.69,1.33s-3.32.2-3.28-.46a4.41,4.41,0,0,1,3.28-2.54"/><path class="cls-2" d="M47,21.05c.72,0,1.21,0,1.27.52.09.84-2.16,2.46-4,2.48s-2.54-.45-2.54-1.15,1.53-1.24,3-1.53c-.68.33-1.21.75-1.93,1.12,0,.41.85.09,1.07.36s.21.49.61.42a3.36,3.36,0,0,1,3.07-1.18c.52.1.55,0,.49-.32A3.25,3.25,0,0,0,47,21"/></g><g id="C2"><path class="cls-1" d="M160.84,147.82l-31.39,12.41-28.2.2c-.14-.21-.26-.43-.38-.64l-2.74-6.13q-2.31-3.56-4.55-7.21l-10.86-8.09-1.84-2.58L78,131.73l-2.06-7.16q-.92-4.5-1.82-9a17.49,17.49,0,0,0-4.9-9.86l-3.34-3.4c-5.42-1.78-4.33-7.94-1.41-15.32a14.59,14.59,0,0,0,0-5h86.07a52.47,52.47,0,0,0,7.12,9.58c-.55,5.84-.72,12.35-1.27,18.19a17.21,17.21,0,0,0-1.67,10.63,66.56,66.56,0,0,0-.29,8.82l.36,3.86a11.43,11.43,0,0,0,1,6.54c1.4,3.06,3.46,5.18,4.85,7.84A.58.58,0,0,0,160.84,147.82Z"/><path class="cls-2" d="M68.66,86.6c-.8-.93-1.53-1.53-2.39,0-.15,2.05-.46,4-.8,6,0,1.8.87,2.4,2.3,2a3.86,3.86,0,0,0,2.7-2.14c.61-.61.59-1.53,0-2.68L68.76,86.6"/><path class="cls-2" d="M73.82,108.52c-1.67,1.24-.95,1.85.11,2.37a17.17,17.17,0,0,0,4.41-.21,2.73,2.73,0,0,1,1.62.55c2,.84,4.32-.23,5.47-.75.75-.86.26-1.45-.61-1.78a16.21,16.21,0,0,1-4.4,0,3.7,3.7,0,0,0-2.14-.79,13.45,13.45,0,0,0-4.46.58"/><path class="cls-2" d="M70.19,98A3.38,3.38,0,0,0,67,97.09a2,2,0,0,0-1.55,2.43.36.36,0,0,0,0,.1,29.33,29.33,0,0,0,3.23,5.55c1.14.82,2.25,1.3,3.4.42a13.92,13.92,0,0,0,1.73-2.31c.36-.9,0-1.53-.93-2.14a10.57,10.57,0,0,1-1.93-1c-1-.64-.32-1.64-.74-2.14"/><path class="cls-2" d="M74.71,114.88c.29-1.21,1.16-1.69,2.17-.62a15.18,15.18,0,0,1,3.36,4c.58,1.14.72,1.88,0,2.51a21.34,21.34,0,0,0-2.12,3.83c-.82,1.53-1.53,1-2.22.12a16.83,16.83,0,0,1-1.19-9.8"/><path class="cls-2" d="M80.11,130c1-.32,1.74.86,1.66,2.32a2,2,0,0,1-1.83,2.11h-.07c-.89,0-1.69-1-1.69-2.27s.91-1.82,1.93-2.16"/><path class="cls-2" d="M82.72,134.62c1.13.23,1.19.63,1.19,1.06s-.62.9-1.3,1-1-.26-1.32-1,.31-1.36,1.43-1.13"/><path class="cls-2" d="M85.38,135.28c.65.12.68.35.68.6s-.35.52-.74.58-.59-.14-.75-.54.17-.78.81-.64"/><path class="cls-2" d="M87.44,138.05c.38-.5.59-.76-.48-1a11.2,11.2,0,0,1-3.06,0c-1.37.28-1.15,1-.72,1.67l.29.32h0c.08-.49.32-.55.7-.21.34.84,1,1.07,1.67,1.53.16.49,0,.76-.47.52l-.34-.21c.37.87.8,1.53,1.53,1.34a.57.57,0,0,1,.72,0,5.16,5.16,0,0,0,1.93,1.41.54.54,0,0,1-.41.26c.81,1.32,1.53,1.73,2,1.23,0-.25.2-.28.6-.12a7.63,7.63,0,0,0,2.23,1.36c.17.2.23.35.19.43l1.24.63c1.36,0,1.85-.66,1.53-2.21a7.22,7.22,0,0,0-2.83-3.52c1.73-1.32-.37-1.21-.69-2.5-.62-1-1.26-1.12-2-.26a1.52,1.52,0,0,0-.49,1.61l.82,1.73c.22.71-.1.93-1,.64l-4-3.31c-.18-.41-.27-.81.43-1.13.18,0,.35-.23.54-.23"/><path class="cls-2" d="M89.57,137c1,.12,1.27.23,1.27.51s-.54.61-1.38.7-1.21-.32-1.24-.74.33-.59,1.35-.47"/><path class="cls-2" d="M102.28,152.54a3.58,3.58,0,0,0-2.85-.14c-1,.13-1.26.75-1.38,1.54-.12,3.33,1.67,4.59,3.36,6.32.29.37,1.28,1,1.53-.21.12-.85.5-1.7.64-2.53-.23-.63.35-.86.49-1.53a4.62,4.62,0,0,0-1.87-3.51"/><path class="cls-2" d="M154.23,128.26c.55,0,1.2,1.11,1.54,2.64s0,2.65-.63,2.63-1.4-1.27-1.4-2.68,0-2.59.54-2.59"/><path class="cls-2" d="M154.71,140.61c.63,0,1.12.31,1.12.69s-.51.67-1.14.67-1.12-.3-1.12-.69.51-.67,1.14-.67"/><path class="cls-2" d="M159.61,91.38c-1.38-1.75-1.93-.8-2.42-.2-1.29,3.49-1.35,7.51-2.65,11.64a16.09,16.09,0,0,0,.93,6.7,1.54,1.54,0,0,0,2.64-.52,9.59,9.59,0,0,1-.25-4.16,35.55,35.55,0,0,0,1.83-6.41,15.83,15.83,0,0,0,0-7.05"/><path class="cls-2" d="M158,147.85c1,0,1.8.2,1.8.56s-.82.75-1.82.75-1.73-.22-1.73-.59.78-.67,1.81-.64"/><path class="cls-2" d="M144.74,112.82c-1.35-.29-2.1,0-2.38.8s0,1.24.8,1.21c.44-.09.7-.46,1.21-.7.31,0,.35.15.14.35-.34.61-1,.66-1,1-.51.86.68.9,1.3.92s.86-.32,1-.84h-.13c-.2,0-.11-.37,0-.85s0-.89.32-.89c0-.56-.68-.85-1.27-1"/><path class="cls-2" d="M153.18,119.73c0-.32.62-.43.7-.14.11.79.34,1.09.71.91a2.42,2.42,0,0,1,.23-.58c.18-.45.42-.36.67-.1a2.36,2.36,0,0,1,.26,1.54.51.51,0,0,1-.58.21.48.48,0,0,1-.42-.18c-.53.09-.19.36,0,.76a.59.59,0,0,1-.84-.09.47.47,0,0,1-.07-.12,2.64,2.64,0,0,1-.6-2.22"/><path class="cls-2" d="M128.16,123.33a2.11,2.11,0,0,1,1.24.43c-.13,0,0,.57,0,1a1.51,1.51,0,0,0,.34.95,2,2,0,0,1-1.65.84c-1,0-2.27-.78-2.25-1.67s1.24-1.53,2.26-1.53"/><path class="cls-2" d="M138,117.94c.26.4.48,1.42,0,1.53a1.76,1.76,0,0,1-1.62-.47c-.55-.88-.83-2.16-.35-2.45s1.53.52,2,1.39"/><path class="cls-2" d="M134,152.86c1.4,0,3.18,1.95,2.61,3s-1.74-1.2-2.61-1.53-1.67,2.79-2.39,1.68,1-3.06,2.39-3.06"/><path class="cls-2" d="M86.69,87.63c2.22.61,2.22.61,1.18,2.31l-.13.08a2.46,2.46,0,0,1-1.07.24c-1,0-1.84-.58-1.85-1.3a1.36,1.36,0,0,1,1.05-1.19,2.85,2.85,0,0,1,.63-.14h.19"/><path class="cls-2" d="M80.8,114.13c-.1.18-2.11,0-2.37-.43-.57-1,1.53-.68,1.87-.39v.31c.41,0,.58.18.49.58Z"/></g><g id="Lines"><polyline class="cls-3" points="0.11 53.33 29.61 26.02 57.45 0.17 84.43 0.17 142.33 0.17"/><polyline class="cls-3" points="79.87 160.58 101.18 160.43 129.37 160.23 160.76 147.82 196.89 133.53"/><line class="cls-3" x1="51.06" y1="81.95" x2="186.43" y2="81.95"/></g><g id="Labels"><path class="cls-4" d="M60.5,15l.09,0h0l.06,0,0,0,.06.06,0,.1,0,.06a.14.14,0,0,1,0,.1l-.08.07-.22.17-.29.21-.29.19-.47.28-.19.09a1.94,1.94,0,0,1-.3.14l-.11,0-.13,0h-.15a.14.14,0,0,1-.09,0,.18.18,0,0,1-.1-.11v-.09a.29.29,0,0,1,.06-.15L58.5,16l.08-.09.05-.07,0-.12v-.43a.34.34,0,0,1,0-.15l0,0,.07,0,.13,0H59a.18.18,0,0,1,.1.06.23.23,0,0,1,.09.2v.07l0,.07-.07.15-.06.22L59,16l.1,0,.1-.07.16-.09.2-.12.38-.25.08-.06.13-.12.22-.16Z"/><path class="cls-4" d="M61,12.63a.22.22,0,0,1,.14-.05q.21,0,.21.27v.06l0,.05a7.9,7.9,0,0,1-.79.54,7.33,7.33,0,0,1-.79.4l-.11,0-.08,0c-.07,0-.12,0-.16-.13v-.17c0-.07,0-.11.13-.14s.29-.14.63-.33l.2-.12.3-.19C60.78,12.79,60.91,12.71,61,12.63Z"/><path class="cls-4" d="M55.76,15l.14,0a.28.28,0,0,1,.19.12l0,.08a.23.23,0,0,0,.12.06.16.16,0,0,0,.1,0l.09-.08.07-.05.06-.06a.09.09,0,0,1,.07,0l.11,0h.05l0,0,.08.05,0,0,0,0,.05.12,0,.1h0l0,0a.57.57,0,0,0,.21-.06l.09-.07.09-.1,0,0a.09.09,0,0,1,.06,0l.12-.07.09,0H58a.06.06,0,0,1,.06.05l.06.06,0,.06a.29.29,0,0,1-.08.22l-.1.12a.31.31,0,0,1-.12.09l-.14.07-.16.07-.16,0-.29.06a.55.55,0,0,1-.24-.07l-.08-.07-.1-.1h-.32l-.1.05-.19.18-.3.25-.3.22-.08.06-.11.07-.13.08-.43.24-.32.18-.13.06-.15,0-.13,0H53.7l-.1,0a.25.25,0,0,1-.13-.26.19.19,0,0,1,.13-.19H54a.7.7,0,0,0,.29-.11l.29-.15.34-.18.3-.2.23-.18.06-.07a.14.14,0,0,0,0-.07l-.1-.2,0-.1v-.06a.08.08,0,0,1,0,0l.05-.08A.49.49,0,0,1,55.76,15Z"/><path class="cls-4" d="M53.78,15l.07,0a.18.18,0,0,1,.16.19.31.31,0,0,1,0,.11l-.11.08-.14.05.26.06.1,0,.13,0c.18,0,.28.11.28.24l0,.07-.11.09-.07.06-.11.08-.39.22-.08.06s0,.05,0,.06l.44.09.34.07h.13c.13,0,.19.06.19.17s0,.22-.12.23h-.26l-.12,0-.18,0-.21,0h-.09l-.1,0-.6-.16h0l0,0,0,0-.07-.05a.13.13,0,0,1-.05-.09.12.12,0,0,1,.05-.1L53,16.4l.22-.15.24-.14.22-.14.15-.12-.23,0-.66-.1a.05.05,0,0,1,0,0v-.11l.11-.08.19-.15.23-.15.2-.12Z"/><path class="cls-4" d="M55.13,18.16a.18.18,0,0,1,.17.11l0,.09v.05a.06.06,0,0,1,0,.06l-.06.09,0,0-.11.05-.1.05-.2.19-.17.12-.32.2-.27.17-.16.09-.18.09-.3.11-.11,0a.23.23,0,0,1-.17-.07.29.29,0,0,1-.06-.17v-.08a.09.09,0,0,1,0-.06l0,0,.14-.08.32-.14.26-.13.18-.08.16-.09.32-.2.18-.12.16-.13.17-.1A.2.2,0,0,1,55.13,18.16Z"/><path class="cls-4" d="M52.18,15.65v.19l0,.09a.09.09,0,0,1,0,.07l-.11.15,0,.07a.63.63,0,0,1-.53.19h-.11l-.08,0h-.06l-.07,0L51,16.26l-.13-.1L50.74,16l0,0-.12.07-.12.11-.16.16.16.06.1.06a.3.3,0,0,1,.2.27.36.36,0,0,1-.06.2.75.75,0,0,1-.2.21l-.21.12-.14.06-.26.09-.11,0-.26.06h-.11l-.07,0-.09,0-.1-.05-.06-.05,0-.16c0-.09,0-.15,0-.17l.06-.05.1,0h.17l.24.07h.18a.42.42,0,0,0,.31-.11l.06-.08,0-.09c0-.07-.06-.13-.19-.18l-.17,0a.22.22,0,0,1-.14-.23.57.57,0,0,1,.11-.19l.36-.34.14-.11.2-.14.27-.15a1.58,1.58,0,0,1,.83-.23l.13,0a.4.4,0,0,1,.25.19l.07.11a.5.5,0,0,1,0,.13Zm-.44.11a.19.19,0,0,0-.19-.21h-.08a.39.39,0,0,0-.15,0,.56.56,0,0,0-.15.08l-.06,0,0,.05.13.13a.22.22,0,0,0,.12.07l0,0h.1a.43.43,0,0,0,.17,0l.06,0,0-.06Z"/><path class="cls-4" d="M51.88,18c.13,0,.19.09.19.29a.25.25,0,0,1-.08.09l-.1.07-.14.09L51,19l-.76.44-.07,0c-.12,0-.19-.08-.19-.24s.07-.16.21-.23l.3-.17.28-.16.49-.31A2.74,2.74,0,0,1,51.88,18Zm.25.79.06,0,.09,0a.17.17,0,0,1,.18.14l0,.12a.13.13,0,0,1,0,.11l-1.06.62-.5.29-.08,0-.09,0a.26.26,0,0,1-.17-.11v-.15a.19.19,0,0,1,.07-.12,1.25,1.25,0,0,1,.25-.18l.42-.22c.17-.09.33-.18.5-.29Z"/><path class="cls-4" d="M48.5,15h.33a.4.4,0,0,1,.17,0l.17,0c.22.05.33.14.33.28a.44.44,0,0,1-.07.2l-.07.11-.11.11-.17.15-.19.15-.16.12-.26.17a4.88,4.88,0,0,1-.74.42l-.31.15-.15.05-.18.06-.14,0-.09,0-.06,0L46.72,17l-.06-.1v-.05c0-.13,0-.2.13-.21H47l.14,0,.08,0a.38.38,0,0,0,.1,0,.31.31,0,0,0,.12-.05l.16-.08.26-.13.12-.05.2-.11.22-.12.13-.09.08-.06.11-.09a1.84,1.84,0,0,0,.14-.14l0-.05h0s0,0,0,0l-.06,0h-.21l-.11,0h-.07l-.23,0h0l-.06,0-.08,0,0,0h-.28a.24.24,0,0,1-.14-.19.28.28,0,0,1,0-.15.36.36,0,0,1,.15-.1l.12-.05.13,0Z"/><path class="cls-4" d="M49,12.27h.3a.66.66,0,0,1,.4.1.29.29,0,0,1,.15.26.81.81,0,0,1-.26.46l-.16.17-.21.17-.2.15a1.15,1.15,0,0,1-.25.12l-.36.16-.18.08h-.13s-.06,0-.1-.08l0-.05,0-.07a.23.23,0,0,1,0-.14.48.48,0,0,1,.15-.1l.16,0,.18-.06.19-.08a1,1,0,0,0,.61-.56l0,0,0,0-.13,0h-.32l-.06,0-.09,0-.07,0-.06,0h-.1a.13.13,0,0,1-.09-.05l-.07-.09,0-.08a.17.17,0,0,1,.09-.16,1.28,1.28,0,0,1,.34-.14A1.31,1.31,0,0,1,49,12.27Z"/><path class="cls-4" d="M47.13,24.7h.18l.21,0,.23.07.15.07a.34.34,0,0,1,.21.29v.11l-.06.1-.06.08-.16.13-.54.37-.51.26-.21.1-.19,0a.2.2,0,0,1-.14-.06l0-.07v-.09l0-.09s0-.05.07-.08l.18-.09.33-.14.44-.22.17-.1.13-.09,0,0c0-.09-.11-.13-.33-.13l-.23,0-.26.09c-.19,0-.28-.08-.28-.23a.17.17,0,0,1,0-.13.36.36,0,0,1,.15-.1l.26-.08Zm1.89,0a1.81,1.81,0,0,1,.36.05l.11,0,.07,0,.17.1a.6.6,0,0,1,.11.12.43.43,0,0,1,0,.17l0,.06,0,.07-.09.1-.08.09-.08.09-.11.09-.3.24-.29.2-.27.15-.12,0-.12,0h-.1l-.08,0,0-.09a.13.13,0,0,0,0-.06.16.16,0,0,1,0-.1l.09,0L48.4,26l.18-.09.32-.17.23-.19.13-.11a.19.19,0,0,0,.05-.11.11.11,0,0,0-.08-.12h-.3l-.09,0-.09,0-.08,0h-.23l-.06,0,0,0,0,0a.41.41,0,0,1,0-.1V25l0-.06.12-.09.08,0,.08,0a.77.77,0,0,1,.19-.05l.14,0Z"/><path class="cls-4" d="M49.21,27.26h.07a.08.08,0,0,1,.06,0,.22.22,0,0,1,.12.13l0,.13a.18.18,0,0,1-.06.15l-.25.1.12.12a.36.36,0,0,1,.11.27v.12s0,0,0,0a.06.06,0,0,1,0,0,.64.64,0,0,1-.33.44l-.18.09-.12.05h-.47l-.3-.08,0,0-.19.16-.1.09-.11.09-.26.18-.11.07-.19.12-.18.11-.37.21-.07,0-.09,0-.15.08-.14,0a.37.37,0,0,1-.32-.17v-.05l0-.1a.2.2,0,0,1,.05-.14l.07-.05,0,0h.32a.53.53,0,0,0,.24-.06l.41-.22.14-.09.23-.16.16-.11.09-.1.09-.06.09-.1-.06-.11,0-.08v-.07c0-.08.07-.14.17-.19l.12,0h.09l.11.06a.23.23,0,0,1,.12.12v.1l0,0,.1.06.12,0h.14l.09,0,.08,0a.52.52,0,0,0,.2-.13l.05-.07,0-.08a.28.28,0,0,0,0-.13l-.06-.06L48.76,28l-.07,0-.16-.07-.15-.11,0-.05,0-.08a.11.11,0,0,1,.05-.09l.14-.06h.26l.09,0,.09-.06.08-.05.08,0Z"/><path class="cls-4" d="M52.94,30.57a.16.16,0,0,1,.17.11l0,.08v.06a.06.06,0,0,1,0,.06L53,31,53,31l-.1.05-.11.05-.19.18-.18.13-.31.2-.27.16-.16.09-.18.09-.3.12-.12,0a.21.21,0,0,1-.16-.07.32.32,0,0,1-.06-.17v-.09l0-.06.05,0,.14-.07.32-.14.26-.13.18-.08.16-.1.31-.2.18-.12.17-.12.17-.11A.28.28,0,0,1,52.94,30.57Z"/><path class="cls-4" d="M52.74,27.51h.18l.07,0a.39.39,0,0,1,.18.24l0,.13v.16l0,.11,0,.19-.07.19-.05.14-.08.15a.81.81,0,0,1-.23.28l-.1,0-.06,0-.06,0-.06,0-.08-.06,0-.1a.56.56,0,0,1,0-.07l0-.07.09-.12.09-.13.15-.29.06-.15v0a.09.09,0,0,0,0-.05h0a.27.27,0,0,0-.17.06l-.14.12-.3.26-.6.46-.22.16-.24.14-.19.11-.15.05h-.23l-.07,0a.16.16,0,0,1-.08-.16v-.08s0-.05,0-.07l0-.07s0-.06.12-.09l.15,0h.14l.09,0,.19-.09.3-.2.14-.11.15-.12.18-.16L52,28l.19-.17.19-.17A.53.53,0,0,1,52.74,27.51Z"/><path class="cls-4" d="M56.9,24.63H57l.06,0a.12.12,0,0,1,0,.08l0,.09v.09c0,.12,0,.18-.16.18a1.47,1.47,0,0,0-.29,0l-.12.05-.1,0-.09.05-.08.06-.09.09-.08.1a.16.16,0,0,0,.08.12l.12.05h.55l.07,0a.18.18,0,0,1,.07.17.15.15,0,0,1-.12.16l-.16,0-.22,0h-.26L56,26.08a.39.39,0,0,1-.29-.16.72.72,0,0,1-.11-.38l0,.06s0,.06-.07.06l-.06.06-.18.13L55,26l-.2.11-.16.1-.18.08-.15.06-.12,0h-.09c-.1,0-.16-.06-.16-.19l0-.12A.16.16,0,0,1,54,26l.12,0,.15-.05a1.82,1.82,0,0,0,.62-.34l.12-.1.13-.12h-.67l-.07,0a.18.18,0,0,1-.12-.2.19.19,0,0,1,.17-.2l.18,0h.46a.66.66,0,0,1,.34.07.31.31,0,0,1,.08.11l.06.11.06.16.08-.08.05,0,0,0,.06,0L56,25.1l.2-.14.35-.23A.61.61,0,0,1,56.9,24.63Z"/><path class="cls-4" d="M56.19,27.38h.18l.1,0q.09,0,.09.12v.1a.13.13,0,0,1,0,.12.29.29,0,0,1-.16.08l-.22,0h-.07l-.11,0-.21.06c-.06,0-.1,0-.11.08l.06.09,0,0,0,.05,0,.09a.32.32,0,0,1,0,.16v.18a.36.36,0,0,1,0,.11l0,.11,0,0,0,0-.05,0-.07,0-.2.1-.12,0H54.06a.2.2,0,0,1-.09,0l0,0L53.84,29a.36.36,0,0,1-.09-.24.2.2,0,0,1,0-.11l.07-.08.08-.06a.66.66,0,0,1,.2-.06.17.17,0,0,1,.11.06l.06.08.1.07.11,0H55a.35.35,0,0,0,.32-.13v-.11a.28.28,0,0,0-.05-.12l-.07-.07-.06-.09-.1-.13,0-.15a.24.24,0,0,1,0-.12l.09-.06.13-.07.12-.08.19-.08.21-.07A1.45,1.45,0,0,1,56.19,27.38Z"/><path class="cls-4" d="M141.45,50.1c0,.36-.23.65-.7.9a1,1,0,0,1-.47.14c-.44,0-.67-.19-.67-.57a.94.94,0,0,1,.39-.74,1.28,1.28,0,0,1,.81-.32.62.62,0,0,1,.25,0,.45.45,0,0,1,.21.12A.54.54,0,0,1,141.45,50.1Zm-.42.07c0-.16-.11-.24-.34-.24a.59.59,0,0,0-.41.2.57.57,0,0,0-.21.42q0,.15.21.15h.1a.74.74,0,0,0,.41-.18A.49.49,0,0,0,141,50.17Z"/><path class="cls-4" d="M140.83,52.27h.1l.07,0,.08,0a.39.39,0,0,1,.18.24l0,.13v.1a.15.15,0,0,1,0,.07l0,.1-.05.2-.07.18-.06.14-.08.15a.71.71,0,0,1-.23.28l-.1,0-.05,0-.06,0-.06,0-.09-.06,0-.1s0-.06,0-.07,0,0,0-.07l.09-.12.09-.13.15-.29.05-.15s0,0,0,0a.09.09,0,0,0,0-.05h-.05a.27.27,0,0,0-.16.06l-.14.13-.31.25-.59.46-.22.16-.24.14-.19.11-.16,0h-.23l-.07,0a.18.18,0,0,1-.07-.17v-.08s0,0,0-.06l0-.08s.05,0,.12-.09h.29l.09,0,.2-.1.29-.2.15-.1.14-.12.19-.17.19-.16.18-.17.19-.17A.58.58,0,0,1,140.83,52.27Z"/><path class="cls-4" d="M144.6,49.8a.19.19,0,0,1,.14,0c.13,0,.2.09.2.27v.06s0,0,0,.05a7.17,7.17,0,0,1-.78.53,7.57,7.57,0,0,1-.8.41l-.1,0-.08,0A.2.2,0,0,1,143,51v-.17c0-.07,0-.11.13-.14a5.05,5.05,0,0,0,.63-.33l.21-.12.3-.19Z"/><path class="cls-4" d="M144.5,52.82c0,.2-.19.42-.56.67l-.69.46-.29.18a2.78,2.78,0,0,1-1,.46c-.24,0-.36-.1-.36-.29a.27.27,0,0,1,.13-.22.36.36,0,0,1,.18,0h0l.05,0,.06,0h.2l.11,0,.32-.17.12-.06.21-.13.12-.09c-.25-.11-.38-.26-.38-.43a.74.74,0,0,1,.27-.57l.13-.09.14-.1a1.33,1.33,0,0,1,.57-.14.78.78,0,0,1,.53.2A.41.41,0,0,1,144.5,52.82Zm-.47,0c0-.06-.13-.09-.29-.09a.77.77,0,0,0-.43.2l-.06.07-.06.1,0,.08s0,.09.11.14l.08,0h.07l.11,0,.2-.1c.21-.14.31-.25.31-.33A.07.07,0,0,0,144,52.77Z"/><path class="cls-4" d="M147.6,55.19c.12,0,.18.09.18.28,0,0,0,.05-.08.1l-.09.07-.15.09-.71.43-.77.44-.06,0c-.13,0-.19-.08-.19-.24s.07-.16.2-.24l.31-.16.28-.16.49-.31A2.74,2.74,0,0,1,147.6,55.19Zm.24.79.06,0,.09,0a.18.18,0,0,1,.18.15l0,.12a.12.12,0,0,1-.05.11l-1,.62-.5.29-.08,0-.09,0a.24.24,0,0,1-.18-.1V57a.15.15,0,0,1,.07-.12,1.13,1.13,0,0,1,.24-.18l.43-.22.49-.29Z"/><path class="cls-4" d="M147.78,51.83l.08,0H148a.2.2,0,0,1,.1.07.15.15,0,0,1,0,.07V52a.37.37,0,0,1-.19.23l-.11.05.05,0,.12.07a.47.47,0,0,1,.1.09.2.2,0,0,1,0,.11c0,.07-.05.14-.15.23l-.43.2.12.07.12.08a.4.4,0,0,1,0,.13v.05l0,.06-.11.11-.25.19-.27.2-.21.15-.57.39-.21.13-.18.09-.06,0-.09,0-.23.1a1,1,0,0,1-.29.08l-.11,0-.07,0,0,0a.15.15,0,0,1-.05-.07.37.37,0,0,1,0-.12c0-.11.08-.19.25-.23h.11l.09,0,.1,0a.16.16,0,0,0,.09,0l.11,0,.15-.07.15-.08.54-.34.26-.18.36-.26-.2-.14a.21.21,0,0,1-.09-.17.13.13,0,0,1,0-.08l.1-.11.16-.08.26-.12-.11-.08-.15-.08-.07,0,0,0,0-.07v-.07l0,0a.35.35,0,0,1,.09-.07h0l0,0,.14,0,.11,0,.11-.05.1-.07Z"/><path class="cls-4" d="M111.68,57.86h.1l.07,0,.22,0,.23.06.15.07a.35.35,0,0,1,.21.3v.11l-.06.09-.06.09-.16.13-.55.36-.5.27-.21.09-.19,0a.24.24,0,0,1-.15-.06l0-.07v-.09l0-.09s0,0,.07-.09l.18-.08.33-.15.43-.22.18-.09.13-.09,0-.06q0-.12-.33-.12l-.23,0-.26.09c-.19,0-.28-.08-.28-.24a.18.18,0,0,1,0-.13.49.49,0,0,1,.15-.09l.26-.09Zm1.88,0a1.35,1.35,0,0,1,.37.06l.1,0,.08,0,.16.11a.34.34,0,0,1,.12.12.38.38,0,0,1,0,.16l0,.06,0,.07-.08.1-.08.1-.08.09-.11.08-.3.24-.3.21-.26.15-.12,0h-.22a.15.15,0,0,1-.08,0l0-.08a.35.35,0,0,0,0-.06.14.14,0,0,1,0-.11l.09-.05.13-.06.18-.08.31-.18.24-.19.13-.11s0,0,0-.1,0-.11-.08-.12h-.31l-.08,0-.1,0-.07,0h-.06l-.17,0-.07,0,0,0,0,0a.53.53,0,0,1,0-.11v-.06a.43.43,0,0,1,0-.07L113,58l.09,0,.08,0,.19-.05h.21Z"/><path class="cls-4" d="M113.76,60.43h.13a.24.24,0,0,1,.12.14v.13c0,.07,0,.12-.06.14l-.24.11.12.12a.37.37,0,0,1,.11.27v.12s0,0,0,0a.08.08,0,0,1,0,0,.62.62,0,0,1-.33.43l-.18.1-.13,0-.15,0H113l-.16,0-.3-.07,0,0-.2.16-.09.08-.12.09-.25.19-.11.07-.19.12-.18.11L111,63l-.07,0-.09,0-.15.08-.14,0a.35.35,0,0,1-.32-.18v0l0-.1a.2.2,0,0,1,0-.14l.07,0,0,0h.32a.53.53,0,0,0,.24-.06l.4-.22.15-.08.23-.16.16-.11.09-.11.09-.06.08-.1-.06-.11v-.15c0-.07.07-.13.17-.19l.12,0h.09l.11,0a.18.18,0,0,1,.11.12v.1l0,0,.1.07.11,0h.24l.08,0a.54.54,0,0,0,.19-.13l.06-.08,0-.07a.25.25,0,0,0,0-.13l-.06-.07-.09-.05-.08,0-.15-.08-.15-.1,0-.06,0-.07s0-.08.05-.09l.14-.07h.25l.1,0,.08-.05.09,0,.08,0Z"/><path class="cls-4" d="M117.48,63.73a.17.17,0,0,1,.17.11l0,.09V64a.07.07,0,0,1,0,.06l-.07.08,0,0-.1,0-.11.06-.2.18-.17.13-.31.19-.27.17-.16.09-.18.09-.31.11-.11,0a.21.21,0,0,1-.16-.07.23.23,0,0,1-.07-.17v-.08a.15.15,0,0,1,0-.06l0,0,.15-.08.31-.14.26-.12.18-.09.17-.09.31-.2L117,64l.16-.13.18-.1A.19.19,0,0,1,117.48,63.73Z"/><path class="cls-4" d="M117.29,60.68h.18s0,0,.07,0a.34.34,0,0,1,.18.23l0,.14v.09s0,.06,0,.07l0,.11,0,.19-.07.18-.06.14-.08.15a.72.72,0,0,1-.22.29l-.1,0H117l-.06,0-.09-.06,0-.1a.17.17,0,0,1,0-.08l0-.06.09-.12.09-.14.15-.28.05-.16s0,0,0,0a.06.06,0,0,0,0,0h0a.27.27,0,0,0-.17.06l-.14.12-.31.25-.59.47-.22.15-.24.15-.19.1-.16.06h-.12l-.11,0-.06,0a.17.17,0,0,1-.08-.16v-.09s0,0,0-.06l0-.08a.35.35,0,0,1,.12-.09h.29l.1,0,.19-.1.3-.2.14-.1.14-.12.19-.16.19-.17.18-.17.2-.16A.49.49,0,0,1,117.29,60.68Z"/><path class="cls-4" d="M121.06,58.2a.24.24,0,0,1,.14-.05c.14,0,.2.09.2.27v.07a.05.05,0,0,1,0,0c-.27.2-.53.38-.79.54a6.63,6.63,0,0,1-.8.4l-.1,0-.08,0c-.07,0-.12,0-.16-.13v-.17c0-.06,0-.11.13-.14a6.23,6.23,0,0,0,.62-.33l.21-.12.3-.19Z"/><path class="cls-4" d="M120.77,60.58l.09,0h0a.07.07,0,0,1,.06,0l0,0,.06.06,0,.1,0,.07a.12.12,0,0,1,0,.09l-.08.07-.22.17-.29.21-.29.19-.47.28-.19.1-.3.13-.11,0-.13,0h-.15a.14.14,0,0,1-.09-.05.18.18,0,0,1-.1-.11v-.09a.29.29,0,0,1,.06-.15l.11-.12.08-.09.05-.07,0-.12v-.42a.39.39,0,0,1,0-.16l0,0,.07,0,.13,0h.11a.18.18,0,0,1,.1.06.23.23,0,0,1,.09.2V61l0,.07-.07.15-.06.22,0,.15.1,0,.1-.07.16-.09.2-.12.38-.25.08-.06.13-.12.22-.16Z"/><path class="cls-4" d="M124.27,57.05a1,1,0,0,1,.56.17.58.58,0,0,1,.24.49,1.13,1.13,0,0,1-.39.72l-.07.06-.08.06-.25.19a.39.39,0,0,1-.19-.09.15.15,0,0,1-.07-.13,2.81,2.81,0,0,0,.39-.33.62.62,0,0,0,.22-.45.24.24,0,0,0-.1-.23l-.1,0h-.16a1.54,1.54,0,0,0-.91.44,1.75,1.75,0,0,0-.62.8l0,.12c0,.18.13.28.4.28h.06l.08-.06.16-.15a.15.15,0,0,1,.11,0c.11,0,.17.08.2.24s-.1.23-.29.33l-.11,0-.15.05a.65.65,0,0,1-.2,0,.68.68,0,0,1-.49-.21.79.79,0,0,1-.15-.24.76.76,0,0,1,0-.27c0-.32.25-.7.74-1.13A2.07,2.07,0,0,1,124.27,57.05Z"/><path class="cls-4" d="M123.8,60.23l.08,0H124a.19.19,0,0,1,.11.07l0,.07v.06a.32.32,0,0,1-.19.23l-.11,0,0,0,.13.08a.45.45,0,0,1,.1.09.17.17,0,0,1,0,.1.33.33,0,0,1-.15.23l-.44.2.12.07.13.08s0,.06,0,.13v.05a.07.07,0,0,1,0,.06l-.12.12-.25.19-.26.19-.22.15-.57.39-.2.13-.18.09-.06,0-.09,0-.24.1a.7.7,0,0,1-.29.08.22.22,0,0,1-.11,0l-.06,0-.05,0a.18.18,0,0,1,0-.07s0-.07,0-.11.09-.19.26-.23l.11,0,.08,0,.1,0,.09,0,.12,0,.15-.07.14-.08.54-.34.26-.18.37-.26L123,61.6a.25.25,0,0,1-.08-.18.31.31,0,0,1,0-.08.91.91,0,0,1,.1-.1l.17-.09.25-.12-.11-.07-.14-.08-.08-.05,0,0,0-.06v-.08s0,0,0,0l.1-.07h0l0,0,.14-.05.11,0,.1-.05.1-.07Z"/><path class="cls-4" d="M127.43,75.26l.13,0a.33.33,0,0,1,.2.11l0,.09a.23.23,0,0,0,.12.06l.09,0,.09-.08.07-.06.07-.06.07,0h.15l.06,0,.08,0,0,0,0,0,0,.11,0,.1,0,0h.05a.57.57,0,0,0,.21-.06l.09-.07.09-.09,0,0,.06,0,.12-.06.1,0h.09a.07.07,0,0,1,.06,0l.05.07,0,.06a.33.33,0,0,1-.08.22l-.11.12s-.05.06-.12.09l-.13.07-.16.07-.16,0-.29,0a.48.48,0,0,1-.24-.06l-.09-.08-.1-.09h-.18l-.14,0-.09.05-.2.18-.29.24-.3.23-.08.06-.11.07-.14.08-.42.24-.33.18-.13.05a.94.94,0,0,1-.15.06l-.13,0h-.23l-.11,0c-.08,0-.12-.12-.12-.26a.22.22,0,0,1,.12-.19h.42a.87.87,0,0,0,.28-.11l.3-.15.33-.18.31-.2.23-.19.06-.06a.19.19,0,0,0,0-.07l-.11-.21v-.15s0,0,0,0l.06-.08C127.2,75.33,127.29,75.29,127.43,75.26Z"/><path class="cls-4" d="M129.18,72.89a.24.24,0,0,1,.14-.06c.14,0,.21.09.21.28v.06s0,0,0,0a5.54,5.54,0,0,1-.79.54,5.87,5.87,0,0,1-.79.4l-.11,0-.08,0a.18.18,0,0,1-.16-.12v-.17c0-.07,0-.12.13-.14a5,5,0,0,0,.63-.34l.2-.12.3-.18Z"/><path class="cls-4" d="M123.15,77.37a.45.45,0,0,1-.26-.06.29.29,0,0,1-.08-.21V77s0-.08.08-.11a.44.44,0,0,1,.16-.06,1.17,1.17,0,0,0,.51-.12l.42-.23a1,1,0,0,0,.24-.13l.28-.19.12-.07.12-.11-.06,0-.1-.11,0-.1v-.1a.33.33,0,0,1,0-.1l.07-.06a.37.37,0,0,1,.19-.08.73.73,0,0,1,.25.08l.08,0,.09.06.29-.15.33-.19.18-.08a1.31,1.31,0,0,1,.36-.1.33.33,0,0,1,.16.05s.06.07.07.15v.06a.2.2,0,0,1-.07.1l-.12.08-.06,0-.2.09-.18.07-.28.08-.15,0,.23.11L126,76l.09.09,0,0v.05a.14.14,0,0,1,0,.06l0,.06a.18.18,0,0,1-.08.09l-.09,0h-.19l-.46-.24-.16.11-.16.12-.22.13-.32.19-.57.33-.22.13-.22.11-.12,0Z"/><path class="cls-4" d="M125.6,72.52h.3a.76.76,0,0,1,.4.09.31.31,0,0,1,.14.27.71.71,0,0,1-.26.45l-.16.18-.2.17-.21.15-.24.12-.37.15-.18.09h-.13s0,0-.1-.08l0-.06,0-.07a.21.21,0,0,1,0-.13.36.36,0,0,1,.15-.1l.16,0,.18-.06a.6.6,0,0,0,.19-.08.89.89,0,0,0,.6-.56l0,0,0,0h-.52l-.08,0-.07,0-.06,0H125a.18.18,0,0,1-.1,0l-.06-.1,0-.08a.19.19,0,0,1,.08-.16l.35-.14A1.74,1.74,0,0,1,125.6,72.52Z"/><path class="cls-4" d="M123.4,75.11h.07a.08.08,0,0,1,.06,0,.22.22,0,0,1,.12.13v.13a.18.18,0,0,1-.06.15l-.24.1.12.12a.4.4,0,0,1,.11.27v.16a.06.06,0,0,1,0,0,.64.64,0,0,1-.33.44l-.18.09-.13,0-.15,0h-.15l-.16,0-.3-.07,0,0-.2.16-.09.09-.11.09-.26.18-.11.07-.19.12-.18.11-.37.2-.07,0-.09,0-.15.08-.14,0a.35.35,0,0,1-.32-.18v0l0-.1a.2.2,0,0,1,0-.14l.07,0,0,0h.32a.53.53,0,0,0,.24-.06l.4-.22.15-.09.23-.16.16-.11.09-.1.09-.06.08-.1,0-.11,0-.08v-.07c0-.08.07-.14.17-.19l.12,0h.09l.11.06a.15.15,0,0,1,.11.11v.11l0,0,.1.06.12,0h.14l.09,0,.08,0a.43.43,0,0,0,.19-.13l.06-.08,0-.07a.28.28,0,0,0,0-.13L123,75.9l-.09-.06-.08,0-.15-.07-.15-.11,0,0,0-.08a.11.11,0,0,1,0-.09l.14-.06H123l.1,0,.08-.06.09,0,.08,0Z"/><path class="cls-4" d="M121.53,72.55h.18l.21,0,.23.06.15.08a.34.34,0,0,1,.21.29v.11l-.06.1-.06.08-.16.13-.54.37-.51.26-.21.1-.19,0a.24.24,0,0,1-.15-.06l0-.07V74l0-.09s0-.05.07-.08l.18-.09.33-.14.44-.22.17-.1.13-.09,0-.06q0-.12-.33-.12l-.23,0-.26.09c-.19,0-.28-.08-.28-.23a.17.17,0,0,1,0-.13.36.36,0,0,1,.15-.1l.26-.08Zm1.88,0a1.8,1.8,0,0,1,.37.05l.11,0,.07,0,.17.11a.6.6,0,0,1,.11.12.43.43,0,0,1,0,.17l0,.06,0,.07-.08.1-.08.09-.08.09-.11.09-.3.24-.29.2-.27.15-.12,0-.12,0h-.1l-.08,0,0-.09s0,0,0-.06a.18.18,0,0,1,0-.11l.09,0,.13-.06.18-.09.31-.17.24-.19.13-.11a.19.19,0,0,0,0-.11.11.11,0,0,0-.08-.12h-.31l-.08,0-.09,0-.08,0h-.23l-.07,0,0,0,0,0a.62.62,0,0,1,0-.1v-.07a.13.13,0,0,1,0-.07l.12-.08.08,0,.08,0a.77.77,0,0,1,.19,0l.14,0Z"/><path class="cls-4" d="M77,91.15a.16.16,0,0,1,.17.11l0,.08v.06a.08.08,0,0,1,0,.06l-.07.08-.05,0-.1.05-.11,0-.2.19-.17.12-.31.2-.28.16-.15.09a.62.62,0,0,1-.19.09l-.3.12-.11,0a.23.23,0,0,1-.17-.07.32.32,0,0,1-.06-.17v-.09a.1.1,0,0,1,0,0l0,0,.15-.08.31-.14.26-.13.18-.08.17-.09.31-.21.18-.12.16-.12.18-.1A.17.17,0,0,1,77,91.15Z"/><path class="cls-4" d="M77.1,88c.19,0,.29.06.29.17a.43.43,0,0,1-.12.28l-.1.1-.13.09-.14,0-.18,0-.25,0H76l0,.07-.09.1-.19.19-.13.1-.14.11-.44.3-.25.15-.17.09-.13.07-.24.11-.12,0-.21,0h0l-.07,0-.06,0-.06,0a.16.16,0,0,1-.07-.11l0-.07v-.08a.33.33,0,0,1,.08-.18l.08,0,.09,0h.05l.11,0,.11,0,.09,0,.12,0,.31-.14.16-.09.16-.09a2.42,2.42,0,0,0,.42-.31l.08-.08,0-.08,0-.06a.18.18,0,0,1,0-.12.45.45,0,0,1,.13-.32.49.49,0,0,1,.33-.14.37.37,0,0,1,.2.09c.09.06.13.12.13.17l.24,0a.69.69,0,0,0,.25-.06,2.16,2.16,0,0,0,.31-.19l.07,0L77,88A.3.3,0,0,1,77.1,88Z"/><path class="cls-4" d="M81.17,85.21h.06l.06,0a.12.12,0,0,1,0,.08l0,.1v.08c0,.12-.06.18-.16.18l-.3,0-.12,0-.09,0-.1.05-.07.06-.09.09-.09.11a.21.21,0,0,0,.08.11l.12.05h.56l.07,0a.17.17,0,0,1,.07.16.15.15,0,0,1-.12.16l-.17,0-.21,0h-.26l-.23,0a.43.43,0,0,1-.3-.16.78.78,0,0,1-.11-.37l0,.06a.16.16,0,0,1-.08.06l-.06.06-.18.12-.28.18-.19.11-.17.11-.17.07-.15.06-.12,0h-.09c-.11,0-.16-.06-.16-.19v-.12a.16.16,0,0,1,.09-.07l.12,0,.16,0a1.77,1.77,0,0,0,.61-.34l.13-.1.12-.12h-.67l-.07,0a.18.18,0,0,1-.12-.2.19.19,0,0,1,.17-.2l.19,0h.45a.61.61,0,0,1,.35.08.2.2,0,0,1,.07.1l.06.11.07.16.08-.08,0,0,0,0s0,0,.07,0l.13-.11.19-.14.36-.23A.67.67,0,0,1,81.17,85.21Z"/><path class="cls-4" d="M77.87,90.11a.45.45,0,0,1-.26-.07.29.29,0,0,1-.08-.21v-.08a.13.13,0,0,1,.07-.11.3.3,0,0,1,.16,0,1.43,1.43,0,0,0,.51-.12l.42-.24a1,1,0,0,0,.24-.13l.28-.19.12-.07.12-.11-.06,0-.1-.11,0-.1v-.1a.27.27,0,0,1,0-.1l.07-.06a.33.33,0,0,1,.18-.08.73.73,0,0,1,.25.08l.08.05.1.06.28-.15.34-.19.18-.07a1.1,1.1,0,0,1,.35-.11.38.38,0,0,1,.17,0,.18.18,0,0,1,.06.15v.06a.15.15,0,0,1-.06.1l-.12.08-.07,0-.2.09-.17.07-.29.09-.14,0,.22.12.18.09.09.08,0,0v0a.13.13,0,0,1,0,.06l0,.06a.14.14,0,0,1-.07.08l-.1,0h-.19L80,88.93l-.16.1-.16.12-.22.13-.31.2-.57.33-.23.12-.22.11-.12,0Z"/><path class="cls-4" d="M84.68,85.62a.2.2,0,0,1,.14-.05q.21,0,.21.27v.06l0,0a7.27,7.27,0,0,1-.79.53,7.44,7.44,0,0,1-.79.41l-.11,0-.08,0a.18.18,0,0,1-.16-.12v-.17c0-.07,0-.11.13-.14a5.2,5.2,0,0,0,.62-.34l.21-.11.3-.19Z"/><path class="cls-4" d="M83.62,88H84a.4.4,0,0,1,.17,0l.18,0c.21,0,.32.15.32.29a.41.41,0,0,1-.06.2l-.08.1-.11.12-.16.15-.2.15-.16.12-.25.17a6.86,6.86,0,0,1-.75.42l-.31.15-.15.05-.18.06-.13,0-.1,0-.06,0L81.84,90l0-.11,0,0c0-.13,0-.2.13-.21l.14,0h.12l.14,0,.09,0,.09,0,.12-.05.16-.08.26-.13.12,0,.2-.11.22-.13.14-.08.07-.06.12-.09.14-.15,0,0v0l0,0-.06,0-.06,0h-.32l-.24,0h0l-.07,0-.07,0-.06,0H83l-.1,0a.22.22,0,0,1-.15-.18.35.35,0,0,1,0-.16l.15-.1.12,0,.13,0Z"/><path class="cls-4" d="M140.67,101.33a.5.5,0,0,1,.28.07.18.18,0,0,1,.05.12v.08l-.06.06-.05,0-.08,0s0,.06-.05.12a.22.22,0,0,0,.09.19l.1.06,0,0,.07,0,.1,0a.31.31,0,0,0,.09-.07l.08-.06.09-.07.16,0h.07l.1.1,0,0v.07a.57.57,0,0,1-.07.13l-.1.07-.12.08-.15.1-.44.28-.49.3-.27.14-.23.12-.21.1-.26.11-.2.06c-.2,0-.31-.09-.31-.26a.32.32,0,0,1,.06-.17.28.28,0,0,1,.06-.08l.06,0,.08,0,.1,0,.12,0a1.45,1.45,0,0,0,.27-.11l.5-.26.25-.14.31-.21a.06.06,0,0,0,0-.06h-.07l-.12,0a.4.4,0,0,1-.18-.12l0,0,0-.08v-.21a.11.11,0,0,1,0,0l.07-.15a.49.49,0,0,1,.14-.2l.05,0,.07,0Z"/><path class="cls-4" d="M142.25,99a.27.27,0,0,1,.14,0q.21,0,.21.27v.07l0,0a9.25,9.25,0,0,1-.79.54,7.33,7.33,0,0,1-.79.4l-.11,0-.08,0c-.07,0-.12,0-.16-.13V100c0-.06,0-.11.13-.14a6.23,6.23,0,0,0,.62-.33l.21-.12.3-.19Z"/><path class="cls-4" d="M139.05,101.43h.18s0,0,.07,0a.34.34,0,0,1,.18.23l0,.14V102l0,.11-.05.19-.07.18-.06.14-.08.15a.72.72,0,0,1-.22.29l-.1,0h-.12l-.06,0-.09-.06,0-.1a.17.17,0,0,1,0-.08.15.15,0,0,1,0-.06l.09-.12.09-.14.15-.28.06-.16v0a.06.06,0,0,0,0,0h0a.27.27,0,0,0-.17.06l-.14.12-.31.25-.59.47-.22.15-.24.15-.19.1-.16.06h-.11l-.12,0-.06,0a.17.17,0,0,1-.08-.16V103s0-.05,0-.06l0-.08s0-.05.12-.09h.28l.1,0,.19-.1.3-.2.14-.1.14-.12.19-.16.19-.17.19-.17.19-.16A.49.49,0,0,1,139.05,101.43Z"/><path class="cls-4" d="M139.54,104.48a.18.18,0,0,1,.17.11l0,.09v.06a.09.09,0,0,1,0,.06l-.06.08-.06,0-.1,0-.11.06-.19.18-.18.13-.3.19-.28.17-.16.09-.18.09-.3.11-.11,0a.23.23,0,0,1-.17-.07.27.27,0,0,1-.06-.17v-.08a.09.09,0,0,1,0-.06l0,0,.14-.08.32-.14.26-.12.18-.09.16-.09.32-.2.18-.12.16-.13.17-.1A.2.2,0,0,1,139.54,104.48Z"/><path class="cls-4" d="M135.8,101.33h.33a.43.43,0,0,1,.17,0l.17,0c.22,0,.32.14.32.28a.41.41,0,0,1-.06.2.76.76,0,0,1-.08.11,1.13,1.13,0,0,1-.11.11l-.16.15-.19.16-.17.12-.25.16a5.41,5.41,0,0,1-.74.42l-.31.15-.15,0-.18.06-.14,0-.1,0-.05,0-.08-.06-.06-.1v0c0-.13,0-.21.13-.22h.26l.14,0,.08,0,.1,0,.12,0,.16-.09.25-.12.12-.06.21-.11.22-.12.13-.09.08-.06.11-.09a.92.92,0,0,0,.14-.14l0,0h0s0,0,0,0l-.07,0H136l-.11,0h-.07l-.23,0h0l-.06,0-.08,0,0,0h-.28a.22.22,0,0,1-.14-.19.22.22,0,0,1,.17-.25l.13,0,.13,0Z"/><path class="cls-4" d="M137.08,99a.24.24,0,0,1,.14,0c.13,0,.2.09.2.27v.07s0,0,0,0a9.13,9.13,0,0,1-.78.54,7.46,7.46,0,0,1-.8.4l-.1,0-.08,0a.19.19,0,0,1-.17-.13V100c0-.06.05-.11.13-.14a5.05,5.05,0,0,0,.63-.33l.21-.12.3-.19Z"/><path class="cls-4" d="M133.92,101.3h.18l.11,0q.09,0,.09.12v.1a.17.17,0,0,1-.05.12.46.46,0,0,1-.16.08l-.23,0h-.06l-.12,0-.2.06c-.07,0-.1,0-.11.08l.06.09,0,0,0,.05,0,.08a.57.57,0,0,1,0,.16v.19a.33.33,0,0,1,0,.1l-.06.12,0,0,0,0-.05,0-.07,0-.21.1-.12,0H131.8l-.1,0,0,0-.08-.06a.35.35,0,0,1-.1-.25.13.13,0,0,1,0-.1l.07-.09.07-.06.2-.06a.17.17,0,0,1,.12.06l.05.08.1.07.11,0h.48c.16,0,.27,0,.32-.13v-.11a.42.42,0,0,0-.05-.12l-.07-.07-.07-.09-.09-.12,0-.15a.2.2,0,0,1,0-.13l.09,0,.13-.07.12-.08a.91.91,0,0,1,.18-.08l.22-.08A1.83,1.83,0,0,1,133.92,101.3Z"/><path class="cls-4" d="M133.79,98.59h.3a.74.74,0,0,1,.4.1.31.31,0,0,1,.15.27.82.82,0,0,1-.26.45l-.16.17-.21.18a1,1,0,0,1-.2.14l-.25.13-.36.15-.18.09h-.13s-.06,0-.1-.09l0,0,0-.07a.18.18,0,0,1,0-.13.37.37,0,0,1,.15-.11l.16,0,.18-.06a.77.77,0,0,0,.19-.08,1,1,0,0,0,.61-.56l0,0,0,0-.13,0h-.32l-.06,0-.09,0-.07,0-.06,0h-.1a.19.19,0,0,1-.09,0L133,99l0-.08a.17.17,0,0,1,.09-.16,1.28,1.28,0,0,1,.34-.14A1.74,1.74,0,0,1,133.79,98.59Z"/><path class="cls-4" d="M168.06,108l.09,0h.08a.21.21,0,0,1,.11.08s0,0,0,.06v.06a.34.34,0,0,1-.2.23l-.11.06.05,0,.13.07a.3.3,0,0,1,.1.09.17.17,0,0,1,0,.1.33.33,0,0,1-.15.23l-.43.2.12.07.12.08a.5.5,0,0,1,0,.14v0a.09.09,0,0,1,0,.06l-.11.12-.25.19-.27.19-.21.15-.58.39-.2.13-.18.09-.06,0-.09,0-.24.1a.78.78,0,0,1-.28.09.2.2,0,0,1-.11,0l-.07,0,0,0,0-.08,0-.11c0-.12.09-.19.26-.23l.11,0,.08,0,.11,0,.09,0,.11,0,.15-.07.14-.08.54-.34.27-.18.36-.26-.2-.13a.23.23,0,0,1-.09-.18.19.19,0,0,1,0-.07.47.47,0,0,1,.1-.11l.17-.09.26-.12-.12-.07-.14-.08-.07,0,0,0,0-.06,0,0,0,0s0,0,0,0a.36.36,0,0,1,.09-.08h0l0,0,.14,0,.11,0,.11-.05.1-.08Z"/><path class="cls-4" d="M168.09,105.59h.22l.08,0a.74.74,0,0,1,.4.09.32.32,0,0,1,.15.27.74.74,0,0,1-.27.45l-.16.18-.2.17-.2.14-.25.13-.36.15-.19.09h-.12s-.06,0-.1-.08l0-.06,0-.07a.2.2,0,0,1,0-.13.48.48,0,0,1,.15-.11l.16,0,.18-.06a.77.77,0,0,0,.19-.08.93.93,0,0,0,.61-.56l0,0,0,0h-.51l-.09,0-.07,0-.06,0h-.1a.19.19,0,0,1-.09,0l-.07-.1,0-.08a.18.18,0,0,1,.09-.16,1.45,1.45,0,0,1,.73-.19Z"/><path class="cls-4" d="M163.6,108.33l.13,0a.29.29,0,0,1,.2.11l0,.08a.14.14,0,0,0,.12.06l.1,0,.09-.09.06,0,.07-.06.07,0h.16l0,0,.08,0,0,0a.09.09,0,0,1,0,0l.05.11,0,.1h0l0,0a.57.57,0,0,0,.21-.06l.09-.07.09-.1,0,0,.05,0,.12-.06.1,0h.09a.05.05,0,0,1,.06,0l.06.07,0,.06a.3.3,0,0,1-.08.21l-.1.13a.31.31,0,0,1-.12.09l-.14.07-.16.06-.16,0-.29.06a.5.5,0,0,1-.24-.06l-.09-.08-.09-.1h-.18l-.14,0a.19.19,0,0,0-.1,0l-.19.18-.3.24-.3.22-.08.06-.11.08-.13.08-.43.24-.33.18-.13,0-.15,0-.13,0h-.23l-.1,0a.25.25,0,0,1-.13-.26.21.21,0,0,1,.12-.19h.42a.85.85,0,0,0,.29-.12l.29-.15.33-.17.31-.21.23-.18.06-.07a.14.14,0,0,0,0-.06l-.11-.21v-.15a.35.35,0,0,1,0-.06l.06-.07C163.37,108.4,163.46,108.36,163.6,108.33Z"/><path class="cls-4" d="M165.36,106a.24.24,0,0,1,.14,0c.13,0,.2.09.2.27v.07s0,0,0,0a9.13,9.13,0,0,1-.78.54,7.46,7.46,0,0,1-.8.4l-.1,0-.08,0a.19.19,0,0,1-.17-.13V107c0-.07.05-.12.13-.15a3.9,3.9,0,0,0,.63-.33l.21-.12.3-.19Z"/><path class="cls-4" d="M162.4,108.18h.13a.28.28,0,0,1,.12.14l0,.13c0,.07,0,.12-.06.14l-.25.11.12.12a.36.36,0,0,1,.11.27v.16l0,0a.62.62,0,0,1-.33.43l-.18.1-.12,0-.16,0h-.15l-.16,0-.3-.07,0,0-.19.16-.1.08-.11.09-.26.19-.11.07-.19.12-.18.11-.37.2-.07,0-.09,0-.15.08-.14,0a.36.36,0,0,1-.32-.18v0l0-.1a.2.2,0,0,1,.05-.14l.07-.05,0,0h.32a.53.53,0,0,0,.24-.06l.41-.21.14-.09.23-.16.16-.11.09-.1.09-.07.09-.09-.06-.12,0-.07v-.08c0-.07.07-.13.17-.19l.13,0h.08l.11,0a.23.23,0,0,1,.12.12v.1l0,0,.11.07.11,0h.23l.08,0a.52.52,0,0,0,.2-.13l.05-.08,0-.07a.28.28,0,0,0,0-.13L162,109l-.09,0-.07,0-.16-.08-.15-.1,0-.06,0-.07a.11.11,0,0,1,0-.09l.14-.06H162l.09,0,.09-.06.08-.05.08,0Z"/><path class="cls-4" d="M160.54,105.62h.17l.21,0,.23.06.16.07a.4.4,0,0,1,.21.3l0,.11-.06.09-.06.09-.16.13-.54.36-.51.27-.21.09-.19,0a.2.2,0,0,1-.14-.06l0-.07,0-.09,0-.09a.36.36,0,0,1,.07-.09l.18-.08.33-.14.44-.22.17-.1.13-.09,0-.06q0-.12-.33-.12l-.22,0-.27.09c-.19,0-.28-.08-.28-.23a.2.2,0,0,1,0-.14.49.49,0,0,1,.15-.09l.26-.08Zm1.88,0a1.29,1.29,0,0,1,.36,0l.11,0,.08,0,.16.11a.6.6,0,0,1,.11.12.42.42,0,0,1,0,.16l0,.06,0,.08-.09.09-.08.1-.08.09-.1.09-.3.24-.3.2-.27.15-.11,0-.13,0h-.1s0,0-.08-.05l0-.08s0,0,0-.06a.18.18,0,0,1,.05-.11l.1,0,.12-.06.18-.08.32-.17.24-.19.12-.12a.21.21,0,0,0,.06-.1.12.12,0,0,0-.09-.12h-.3l-.09,0-.09,0-.08,0H162l-.17,0-.06,0,0,0,0,0a.53.53,0,0,1,0-.11v-.06a.16.16,0,0,1,0-.07.62.62,0,0,1,.12-.08l.08,0,.08,0,.19-.06h.22Z"/><path class="cls-4" d="M65.56,136.55h.09l.08,0,.21,0,.23.06.16.07a.36.36,0,0,1,.2.3v.11l-.06.09-.06.09-.16.13-.54.36-.51.27-.21.09-.19,0a.2.2,0,0,1-.14-.06l0-.07,0-.09,0-.09a.36.36,0,0,1,.07-.09l.18-.08.33-.15.44-.22.17-.09.13-.09,0-.06q0-.12-.33-.12l-.22,0-.27.08c-.19,0-.28-.07-.28-.23a.18.18,0,0,1,0-.13.49.49,0,0,1,.15-.09l.26-.09Zm1.88,0a1.34,1.34,0,0,1,.36.06l.11,0,.08,0,.16.11a.32.32,0,0,1,.11.12.38.38,0,0,1,0,.16l0,.06,0,.07-.09.1-.08.09-.08.09-.1.09-.3.24-.3.2-.27.16-.11,0h-.23s0,0-.08,0l0-.08a.15.15,0,0,0,0-.07.19.19,0,0,1,0-.1l.1-.05.12-.06.18-.08.32-.18.24-.19.12-.11a.21.21,0,0,0,.06-.1.1.1,0,0,0-.09-.12h-.3l-.09,0-.09,0-.08,0-.06,0-.17,0-.06,0,0,0,0,0a.53.53,0,0,1,0-.11v-.06a.16.16,0,0,1,0-.07l.12-.09.08,0,.08,0,.19,0,.14,0Z"/><path class="cls-4" d="M66.26,139.28l.07,0a.18.18,0,0,1,.16.19.24.24,0,0,1-.06.11l-.11.08-.14.05.27.06.1,0,.12,0c.19,0,.28.11.28.24l0,.07-.12.09-.07.06-.11.08-.38.22-.09.06a.08.08,0,0,0,0,.06l.44.09.35.07h.12c.13,0,.2.06.2.17s0,.22-.12.23h-.27l-.11,0-.18,0-.21,0h-.1l-.1,0L65.6,141h0l0,0,0,0-.08-.05s0,0,0-.09a.16.16,0,0,1,0-.1l.08-.09.22-.15.24-.14.22-.14.14-.12-.22,0-.66-.1-.06,0v-.11l.11-.08.19-.15.22-.15.21-.11A.52.52,0,0,1,66.26,139.28Z"/><path class="cls-4" d="M71,137.19q0,.54-.69.9a.93.93,0,0,1-.47.14c-.45,0-.67-.19-.67-.57a.94.94,0,0,1,.39-.74,1.24,1.24,0,0,1,.81-.32.87.87,0,0,1,.25,0,.45.45,0,0,1,.2.12A.54.54,0,0,1,71,137.19Zm-.42.07c0-.16-.11-.23-.33-.23a.62.62,0,0,0-.42.19.6.6,0,0,0-.2.43c0,.1.07.15.2.15h.1a.68.68,0,0,0,.41-.19C70.46,137.49,70.54,137.38,70.54,137.26Z"/><path class="cls-4" d="M69.27,139.27h.13a.26.26,0,0,1,.19.12l.06.08a.23.23,0,0,0,.12.06.16.16,0,0,0,.09,0l.09-.08.07,0,.07-.06a.09.09,0,0,1,.06,0h.16l0,0,.09,0,0,0,0,0,0,.12,0,.1h0l.05,0a.49.49,0,0,0,.2-.06l.09-.07.09-.1,0,0,.06,0,.12-.07h.19a.07.07,0,0,1,.06,0l0,.06,0,.06a.33.33,0,0,1-.08.22l-.11.12a.31.31,0,0,1-.12.09l-.13.07L71,140l-.16.05-.29.06a.4.4,0,0,1-.24-.07l-.09-.07-.1-.1h-.32l-.09.05-.2.18-.29.25-.3.22-.09.06-.11.07-.13.08-.42.24-.33.18-.13.06-.15,0-.13,0h-.23l-.11,0a.27.27,0,0,1-.12-.26.2.2,0,0,1,.12-.19h.42a.68.68,0,0,0,.28-.11l.29-.15.34-.18.31-.2L69,140,69,140a.14.14,0,0,0,0-.07l-.11-.2v-.16a.07.07,0,0,1,0-.05l.06-.08A.38.38,0,0,1,69.27,139.27Z"/><path class="cls-4" d="M74.9,136.89a.3.3,0,0,1,.14,0q.21,0,.21.27v.06l0,.05a7.9,7.9,0,0,1-.79.54,7.33,7.33,0,0,1-.79.4l-.11,0-.08,0c-.07,0-.12,0-.16-.13v-.17c0-.06,0-.11.13-.14s.29-.14.63-.33l.2-.12.3-.19C74.67,137.05,74.8,137,74.9,136.89Z"/><path class="cls-4" d="M73.85,139.27h.33l.16,0,.18.05c.21,0,.32.14.32.28a.41.41,0,0,1-.06.2l-.08.11-.11.11-.16.15-.2.16-.16.12-.25.16a6.08,6.08,0,0,1-.74.42l-.31.15-.15.05-.19.06-.13,0-.1,0,0,0-.09-.06,0-.1,0,0c0-.13.05-.21.13-.22h.26l.14,0,.09,0,.1,0,.11-.06.16-.08.26-.12.12-.06.21-.11.22-.12.13-.09.08-.06.11-.09.14-.14,0,0h0a.05.05,0,0,0,0,0l-.06,0H74l-.11,0h-.07l-.24,0h0l-.07,0-.07,0-.06,0H73.1a.23.23,0,0,1-.15-.19.22.22,0,0,1,0-.15.33.33,0,0,1,.14-.1l.13,0,.12-.05Z"/><path class="cls-4" d="M78.67,136.49h.06l.06,0a.16.16,0,0,1,0,.08l0,.1v.08c0,.12-.06.18-.16.18l-.3.06-.12,0-.09,0-.1.05a.18.18,0,0,0-.07,0l-.09.09-.09.11a.21.21,0,0,0,.08.11l.12.05h.56l.07,0a.19.19,0,0,1,.07.16.16.16,0,0,1-.12.17l-.17,0-.21,0H78l-.23-.05a.44.44,0,0,1-.3-.17.78.78,0,0,1-.11-.37l0,.06a.16.16,0,0,1-.08.06l-.06.06-.18.13-.28.18-.19.11-.17.1-.17.07-.16.06-.11,0h-.09c-.11,0-.16-.06-.16-.18V138a.18.18,0,0,1,.09-.08l.12,0,.16-.06a1.94,1.94,0,0,0,.61-.33l.13-.11.12-.12h-.67l-.07,0c-.08,0-.12-.09-.12-.2a.19.19,0,0,1,.17-.2h.64a.7.7,0,0,1,.35.08.26.26,0,0,1,.07.1l.06.11.07.16.08-.08,0,0,0,0s0,0,.07,0l.13-.11.19-.13.36-.24A.67.67,0,0,1,78.67,136.49Z"/><path class="cls-4" d="M78,139.27l.1,0h.1l0,0,.06.06,0,.1,0,.06a.16.16,0,0,1,0,.1l-.07.07-.23.17-.29.21-.28.19-.47.28-.2.09a1.88,1.88,0,0,1-.29.14l-.11,0-.13,0h-.15a.19.19,0,0,1-.1,0,.2.2,0,0,1-.09-.11v-.09a.29.29,0,0,1,.06-.15l.11-.12.07-.09,0-.07,0-.12v-.43a.33.33,0,0,1,0-.15l0,0,.08,0,.13,0h.1a.17.17,0,0,1,.11.06.23.23,0,0,1,.09.2v.07l0,.07-.07.15-.06.22-.05.15.09,0,.11-.07.16-.09.2-.12.37-.25.09-.06.12-.12.22-.16Z"/><path class="cls-4" d="M152.78,145.39h.33a.4.4,0,0,1,.17,0l.18,0c.21,0,.32.14.32.28a.35.35,0,0,1-.07.2l-.07.11-.11.11-.16.15-.2.16-.16.12-.25.16a5.52,5.52,0,0,1-.75.42l-.31.15-.15.05-.18.06-.13,0-.1,0-.06,0-.08-.06-.05-.1,0,0c0-.13,0-.21.13-.22h.26l.14,0,.09,0,.09,0,.12-.05.16-.09.26-.12.12-.06.2-.11.22-.12.14-.09.07-.06.12-.09a1.85,1.85,0,0,0,.14-.14l0,0h0a.05.05,0,0,0,0,0l-.06,0H153l-.12,0h-.06l-.24,0h0l-.07,0-.08,0-.05,0H152a.23.23,0,0,1-.15-.19.33.33,0,0,1,0-.15.44.44,0,0,1,.15-.1l.12,0,.13,0Z"/><path class="cls-4" d="M153.48,142.33l.08,0h.07q.21,0,.21.27a.13.13,0,0,1-.05.11q-.42.32-.84.57l-.38.21-.37.16-.18.06a.16.16,0,0,1-.09,0,.2.2,0,0,1-.07-.1v-.13s0,0,0,0a.19.19,0,0,1,0-.1l0,0,0,0a2.12,2.12,0,0,0,.64-.29A5.09,5.09,0,0,0,153.48,142.33Zm.42.74a.3.3,0,0,1,.15,0c.13,0,.2.09.2.27a.15.15,0,0,1,0,.07l0,0a9.13,9.13,0,0,1-.78.54,7.46,7.46,0,0,1-.8.4l-.1,0-.09,0a.19.19,0,0,1-.16-.12v-.17c0-.07,0-.12.13-.15a5.05,5.05,0,0,0,.63-.33l.2-.12.31-.19A4.37,4.37,0,0,0,153.9,143.07Z"/><path class="cls-4" d="M150.7,145.49h.18s0,0,.07,0a.34.34,0,0,1,.18.24l0,.13,0,.09a.56.56,0,0,1,0,.07l0,.11-.06.19-.06.18-.06.14-.08.15a.85.85,0,0,1-.23.29l-.1,0h-.12l-.06,0-.08-.06,0-.1s0-.06,0-.08l0-.06.09-.12.09-.14.16-.28.05-.16v0a.08.08,0,0,0,0,0h0a.29.29,0,0,0-.17.06l-.14.12-.3.25-.6.47-.22.15-.24.15-.19.1-.15.06h-.12l-.11,0-.07,0a.17.17,0,0,1-.08-.16v-.09a.35.35,0,0,1,0-.06l0-.08a.35.35,0,0,1,.12-.09h.29l.09,0,.19-.1.3-.2.14-.1.15-.12.18-.16.2-.16.18-.18.19-.16A.49.49,0,0,1,150.7,145.49Z"/><path class="cls-4" d="M150.64,142.65h.3a.8.8,0,0,1,.41.1.32.32,0,0,1,.14.27.82.82,0,0,1-.26.45l-.16.17-.21.18a1,1,0,0,1-.2.14l-.24.13-.37.15-.18.09h-.13s-.06,0-.1-.09l0,0,0-.07a.18.18,0,0,1,0-.13.37.37,0,0,1,.15-.11l.16,0,.18-.06a.77.77,0,0,0,.19-.08,1,1,0,0,0,.61-.56l0,0,0,0-.13,0h-.32l-.06,0-.09,0-.06,0-.07,0H150a.19.19,0,0,1-.09,0l-.07-.1,0-.08a.17.17,0,0,1,.09-.16,1.6,1.6,0,0,1,.35-.14A1.65,1.65,0,0,1,150.64,142.65Z"/><path class="cls-4" d="M146.15,145.39h.13a.28.28,0,0,1,.2.12l.05.08a.14.14,0,0,0,.12.06l.1,0,.09-.09.06,0,.07-.06a.09.09,0,0,1,.07,0h.16l.05,0,.08,0,0,0s0,0,0,.05l0,.11,0,.1h0l0,0a.57.57,0,0,0,.21-.06l.09-.07.09-.1,0,0a.15.15,0,0,1,.06,0l.12-.07h.18a.05.05,0,0,1,.06,0l.06.06,0,.06a.33.33,0,0,1-.08.22l-.1.13-.12.09-.14.07-.16.06-.16,0-.29.06a.44.44,0,0,1-.24-.07l-.09-.07L147,146h-.18a.3.3,0,0,0-.14,0,.19.19,0,0,0-.1.05l-.19.18-.3.24-.3.22-.08.06-.11.07-.13.09-.43.23-.32.18-.13.06-.15.05-.14,0h-.23l-.1,0a.25.25,0,0,1-.13-.26A.21.21,0,0,1,144,147h.42a.78.78,0,0,0,.29-.12l.29-.15.34-.18.3-.2.23-.18.06-.07a.14.14,0,0,0,0-.07l-.11-.2v-.15a.35.35,0,0,1,0-.06l.06-.07A.39.39,0,0,1,146.15,145.39Z"/><path class="cls-4" d="M144.77,145.36H145l.11,0c.06,0,.09,0,.09.13v.1a.17.17,0,0,1,0,.12.44.44,0,0,1-.17.08l-.22,0h-.06l-.12,0-.2.06c-.07,0-.11,0-.11.08l.06.09,0,0,0,.05,0,.08a.57.57,0,0,1,0,.16v.19a.33.33,0,0,1,0,.1l-.06.12,0,0,0,0-.05.05-.07,0-.21.1-.12,0h-1.12l-.1,0,0,0-.08-.06a.35.35,0,0,1-.1-.25.19.19,0,0,1,0-.1l.08-.09.07-.06.2-.06a.14.14,0,0,1,.11.06l.06.08.1.07.11,0h.48c.16,0,.27,0,.32-.13v-.11a.42.42,0,0,0-.05-.12l-.07-.07-.07-.09-.09-.12,0-.15a.16.16,0,0,1,0-.12l.09-.06.13-.07.12-.08a.91.91,0,0,1,.18-.08l.22-.08A1.37,1.37,0,0,1,144.77,145.36Z"/><path class="cls-4" d="M143.35,142.68h.17l.22,0,.22.06.16.07a.35.35,0,0,1,.21.3v.11l-.06.09-.06.09-.16.13-.55.36-.5.27-.21.09-.19,0a.24.24,0,0,1-.15-.06l0-.07v-.09l0-.09s0-.05.07-.09l.18-.08.33-.15.43-.22.18-.09.13-.09,0-.06c0-.08-.1-.12-.32-.12l-.23,0-.26.09c-.19,0-.28-.08-.28-.24a.18.18,0,0,1,0-.13.49.49,0,0,1,.15-.09l.26-.09Zm1.88,0a1.34,1.34,0,0,1,.36.06l.11,0,.08,0,.16.11a.25.25,0,0,1,.11.12.27.27,0,0,1,0,.16l0,.06,0,.07-.08.1-.08.09-.08.09-.11.09-.3.24-.3.21-.26.15-.12,0h-.22a.15.15,0,0,1-.08,0l0-.08a.35.35,0,0,0,0-.06.14.14,0,0,1,.05-.11l.09-.05.12-.06.19-.08.31-.17.24-.2.13-.11s0,0,.05-.1a.11.11,0,0,0-.08-.12h-.31l-.08,0-.1,0-.07,0h-.07l-.16,0-.07,0,0,0,0,0a.89.89,0,0,0,0-.11V143a.43.43,0,0,1,0-.07l.12-.09.09,0,.08,0a.7.7,0,0,1,.19-.06h.21Z"/><path class="cls-4" d="M142.35,145.24h.13a.24.24,0,0,1,.12.14l0,.13c0,.07,0,.12-.06.14l-.25.11.12.12a.33.33,0,0,1,.11.27v.16l0,0a.62.62,0,0,1-.33.43l-.18.1-.12,0-.16,0h-.15l-.16,0-.3-.07-.05,0-.19.16-.1.08-.11.09-.26.19-.11.07-.19.12-.18.11-.37.2-.07,0-.09.05-.15.08-.14,0a.36.36,0,0,1-.32-.18v0l0-.1a.2.2,0,0,1,.05-.14l.07,0,.05,0h.32a.53.53,0,0,0,.24-.06l.41-.22.14-.08.23-.16.16-.11.09-.11.09-.06.09-.1-.06-.11,0-.07v-.08c0-.07.07-.13.17-.19l.13,0H141l.11,0a.23.23,0,0,1,.12.12v.1l0,0,.11.07.11,0h.23l.08,0a.67.67,0,0,0,.2-.13l.05-.08,0-.07a.25.25,0,0,0,0-.13L142,146l-.09-.05-.07-.05-.16-.08-.15-.1,0-.06,0-.07c0-.05,0-.08,0-.09l.14-.07h.26l.09,0,.09-.05.08,0,.08,0Z"/><path class="cls-4" d="M140.49,142.68h.17l.22,0,.22.06.16.07a.39.39,0,0,1,.21.3l0,.11,0,.09-.07.09-.16.13-.54.36-.51.27-.21.09-.19,0a.22.22,0,0,1-.14-.06l0-.07V144a.28.28,0,0,1,.08-.09l.17-.08.33-.15.44-.22.17-.09.13-.09,0-.06q0-.12-.33-.12l-.22,0-.27.09c-.19,0-.28-.08-.28-.24a.25.25,0,0,1,0-.13.49.49,0,0,1,.15-.09l.26-.09Zm1.88,0a1.34,1.34,0,0,1,.36.06l.11,0,.08,0,.16.11a.25.25,0,0,1,.11.12.27.27,0,0,1,0,.16l0,.06,0,.07-.08.1-.09.09-.07.09-.11.09-.3.24-.3.21-.27.15-.11,0h-.23l-.08,0,0-.08s0-.05,0-.06a.18.18,0,0,1,.05-.11l.1-.05.12-.06.18-.08.32-.17.24-.2.12-.11a.21.21,0,0,0,.06-.1.11.11,0,0,0-.09-.12h-.3l-.09,0-.09,0-.08,0H142l-.16,0-.07,0,0,0,0,0a.53.53,0,0,1,0-.11V143a.16.16,0,0,1,0-.07l.12-.09.08,0,.08,0,.19-.06h.22Z"/><path class="cls-4" d="M148.08,66.69h.1l.08,0,.21,0,.23.06.16.07a.36.36,0,0,1,.2.3v.1l-.06.1-.06.09-.16.13-.54.36-.51.27-.21.09-.19,0a.2.2,0,0,1-.14-.06l-.05-.07v-.09l0-.09s0,0,.07-.09l.18-.08.33-.15.44-.22.17-.09.13-.09,0-.06q0-.12-.33-.12l-.22,0-.27.09c-.19,0-.28-.08-.28-.24a.18.18,0,0,1,0-.13.49.49,0,0,1,.15-.09l.26-.09Zm1.89,0a1.34,1.34,0,0,1,.36.06l.11,0,.08,0,.16.11a.32.32,0,0,1,.11.12.38.38,0,0,1,0,.16l0,.06,0,.07-.09.1-.08.09-.08.09-.11.09-.3.24-.29.2-.27.16-.12,0h-.22s0,0-.08-.05l0-.08a.15.15,0,0,0,0-.07.19.19,0,0,1,0-.1l.1,0,.12-.06.18-.08.32-.18.24-.19.12-.11a.15.15,0,0,0,0-.1c0-.07,0-.11-.08-.12h-.3l-.09,0-.09,0-.08,0h-.06l-.17,0-.06,0,0,0,0,0a.53.53,0,0,1,0-.11V67a.16.16,0,0,1,0-.07l.12-.09.08,0,.08,0,.19,0,.14,0Z"/><path class="cls-4" d="M150.16,69.26h.13a.24.24,0,0,1,.12.14l0,.13a.17.17,0,0,1-.06.14l-.25.11.12.12a.37.37,0,0,1,.11.27v.16s0,0,0,0a.62.62,0,0,1-.33.43l-.18.1-.12,0h-.31l-.16,0-.3-.07-.05,0-.19.17-.1.08-.11.09-.26.19-.11.07-.19.12-.18.11-.37.2-.07,0-.09,0-.15.09-.14,0a.36.36,0,0,1-.32-.18v-.05l0-.09a.2.2,0,0,1,.05-.14l.07,0,.05,0h.32a.53.53,0,0,0,.24-.06l.41-.22.14-.09.23-.15.16-.11.09-.11.09-.06.09-.1-.06-.11,0-.07v-.08c0-.07.07-.13.17-.19l.12,0h.09l.11,0a.23.23,0,0,1,.12.12v.1l0,0,.1.07.12,0h.23l.08,0a.67.67,0,0,0,.2-.13l.05-.08,0-.07a.25.25,0,0,0,0-.13L149.8,70l-.09-.05-.07,0-.16-.08-.15-.1,0-.06,0-.07s0-.08.05-.09l.14-.07h.26l.09,0,.09-.06.08,0,.08,0Z"/><path class="cls-4" d="M154.13,67.33q0,.54-.69.9a1,1,0,0,1-.47.14c-.45,0-.67-.19-.67-.57a1,1,0,0,1,.38-.74,1.29,1.29,0,0,1,.82-.32.87.87,0,0,1,.25,0,.51.51,0,0,1,.2.12A.54.54,0,0,1,154.13,67.33Zm-.42.07c0-.16-.11-.23-.33-.23a.62.62,0,0,0-.42.19.6.6,0,0,0-.2.43c0,.1.07.15.2.15h.1a.7.7,0,0,0,.41-.19C153.63,67.63,153.71,67.52,153.71,67.4Z"/><path class="cls-4" d="M152.43,69.41h.14a.26.26,0,0,1,.19.12l.05.08a.31.31,0,0,0,.13.06.16.16,0,0,0,.09,0l.09-.08.07,0,.07-.06a.07.07,0,0,1,.06,0h.16l.05,0,.09,0,0,0,0,0,0,.12,0,.1h0l0,0a.49.49,0,0,0,.2-.06l.09-.07.09-.1,0,0,.06,0,.12-.07h.19a.07.07,0,0,1,.06,0l.05.06,0,.06a.32.32,0,0,1-.07.22l-.11.12a.31.31,0,0,1-.12.09l-.13.07-.16.07-.16,0-.29.06a.4.4,0,0,1-.24-.07l-.09-.07-.1-.1H153l-.09,0-.2.18-.29.25-.3.22-.09.06-.11.07-.13.08-.42.24-.33.18-.13.06-.15,0-.13,0h-.23l-.11,0a.27.27,0,0,1-.12-.26.2.2,0,0,1,.12-.19h.42a.73.73,0,0,0,.28-.11l.29-.15.34-.18.31-.2.23-.18.05-.07s0,0,0-.07l-.11-.2v-.16a.07.07,0,0,1,0,0l0-.08A.43.43,0,0,1,152.43,69.41Z"/><path class="cls-4" d="M158.07,67a.27.27,0,0,1,.14,0q.21,0,.21.27l0,.07s0,0,0,0a9.25,9.25,0,0,1-.79.54,7.33,7.33,0,0,1-.79.4l-.11,0-.08,0c-.07,0-.12,0-.16-.13v-.17c0-.06,0-.11.13-.14a6.23,6.23,0,0,0,.62-.33l.21-.12.3-.19Z"/><path class="cls-4" d="M157.32,69.35h.1l.12.09a.19.19,0,0,1,.07.14,1.59,1.59,0,0,1-.27.28l.95,0v0l0,0,.06.09c0,.08-.11.19-.32.32l-.48.28-.35.21-.57.36-.75.4-.44.19-.14,0-.15,0-.18,0-.16,0-.08-.05a.26.26,0,0,1-.09-.23c0-.08,0-.13.16-.17l.16,0a1.53,1.53,0,0,0,.3,0,1.21,1.21,0,0,0,.3-.11l.08,0,.1,0,.29-.13,1.43-.82h-1.28a.15.15,0,0,1,0-.08.46.46,0,0,1,0-.14l0-.07.09,0a.3.3,0,0,0,.11,0l.16-.08.29-.13.21-.11a.2.2,0,0,0,.09-.09s0-.08.05-.08l.06,0Z"/><path class="cls-4" d="M161.7,72.56a.17.17,0,0,1,.17.11l0,.09v.06a.14.14,0,0,1,0,.06l-.07.08,0,0-.1,0-.11.06-.2.18-.17.13-.31.19-.28.17-.15.09-.19.09-.3.11-.11,0a.23.23,0,0,1-.17-.07.27.27,0,0,1-.06-.17v-.08a.09.09,0,0,1,0-.06l0,0,.15-.08.31-.14.26-.13.18-.08.17-.09.31-.2.18-.12.16-.13.18-.1A.17.17,0,0,1,161.7,72.56Z"/><path class="cls-4" d="M160.91,69.41h.33l.16,0,.18.05c.21,0,.32.14.32.28a.41.41,0,0,1-.06.2l-.08.11-.11.11-.16.15-.19.16-.17.12-.25.16a6.08,6.08,0,0,1-.74.42l-.31.15-.15,0-.19.06-.13,0-.1,0,0,0-.09-.06-.05-.1v0c0-.13,0-.21.12-.22h.26l.14,0,.09,0,.1,0,.12-.06.15-.08.26-.12.12-.06.21-.11.22-.12.13-.09.08-.06.11-.09a1.85,1.85,0,0,0,.14-.14l0,0h0a.05.05,0,0,0,0,0l-.06,0h-.2l-.11,0h-.07l-.24,0h0l-.07,0-.07,0-.05,0h-.28a.23.23,0,0,1-.15-.19.22.22,0,0,1,0-.15.33.33,0,0,1,.14-.1l.13,0,.12,0Z"/><path class="cls-4" d="M39.73,55a.15.15,0,0,1,.16.11l0,.08v.06a.06.06,0,0,1,0,.06l-.07.08-.05,0-.1.05-.11,0-.19.18-.18.13-.31.2-.27.16-.16.09-.18.09-.31.12-.11,0a.21.21,0,0,1-.16-.07.27.27,0,0,1-.07-.17v-.09l0-.06,0,0,.15-.07.31-.14.26-.13.18-.08.17-.1.31-.2.18-.12.16-.12L39.6,55A.28.28,0,0,1,39.73,55Z"/><path class="cls-4" d="M39.39,51.88l.07-.06h.08l.12,0a.11.11,0,0,1,.08.07l0,.09a.27.27,0,0,1,0,.11l-.11.09-.14.15-.09.07-.07.05-.55.35-.57.32-.27.14-.27.11-.28.11a1,1,0,0,1-.27,0,.46.46,0,0,1-.24-.08l-.09-.07,0,0s0,0,0-.06v-.07a.43.43,0,0,1,0,0,.22.22,0,0,1,.12-.13L37,53l.1,0h.23a.88.88,0,0,0,.42-.11l.31-.14.67-.4.49-.31Z"/><path class="cls-4" d="M43.21,49.46a.24.24,0,0,1,.14-.06c.14,0,.21.09.21.28v.06l0,0a6.41,6.41,0,0,1-.79.53,5.87,5.87,0,0,1-.79.4l-.11,0-.08,0a.18.18,0,0,1-.16-.12v-.17c0-.07,0-.12.13-.14a5.86,5.86,0,0,0,.63-.34l.2-.12.3-.18Z"/><path class="cls-4" d="M42.67,51.49l.08,0h.09a.15.15,0,0,1,.11.07l0,.06v.06a.37.37,0,0,1-.2.23l-.11.06,0,0,.13.07a.45.45,0,0,1,.1.09.17.17,0,0,1,0,.1.36.36,0,0,1-.15.24l-.43.19.12.08.12.07a.5.5,0,0,1,0,.14v0a.11.11,0,0,1,0,.07l-.12.11-.24.19-.27.19-.22.16-.57.38-.2.13-.18.1-.06,0-.09,0-.24.11a.91.91,0,0,1-.29.08l-.11,0-.06,0-.05,0a.22.22,0,0,1,0-.08.75.75,0,0,1,0-.11c0-.11.09-.19.26-.23h.11l.08,0,.1,0,.09,0,.12,0,.15-.06.14-.09.54-.34.26-.17.37-.26-.21-.14a.25.25,0,0,1-.08-.17.24.24,0,0,1,0-.08l.1-.11.17-.08.25-.13-.11-.07-.14-.08L42,52.08l0,0,0-.07v-.07l0,0,.1-.08h0l0,0,.14,0,.11,0,.11,0,.09-.07Z"/><path class="cls-4" d="M46.79,49.76c0,.35-.24.65-.7.9a1,1,0,0,1-.47.14c-.44,0-.67-.19-.67-.57a.92.92,0,0,1,.39-.74,1.23,1.23,0,0,1,.81-.32.62.62,0,0,1,.25,0,.45.45,0,0,1,.21.12A.52.52,0,0,1,46.79,49.76Zm-.42.07c0-.16-.11-.24-.34-.24a.59.59,0,0,0-.41.2.57.57,0,0,0-.21.42q0,.15.21.15h.1a.77.77,0,0,0,.41-.18A.49.49,0,0,0,46.37,49.83Z"/><path class="cls-4" d="M46.17,51.93h.17l.08,0a.39.39,0,0,1,.18.24l0,.13v.09s0,.06,0,.07l0,.11,0,.19-.07.19-.06.14-.08.15a.71.71,0,0,1-.23.28l-.1,0-.05,0-.06,0-.06,0-.09-.06,0-.1s0-.06,0-.07,0,0,0-.07l.09-.12L46,53l.15-.29.05-.15s0,0,0,0,0,0,0,0h-.05a.27.27,0,0,0-.16.06l-.14.12-.31.26-.59.46-.22.16-.24.14-.19.11-.16.05h-.23l-.07,0c-.05,0-.07-.08-.07-.16v-.08a.15.15,0,0,1,0-.07l0-.08a.26.26,0,0,1,.12-.08l.16,0h.13l.09,0,.19-.09.3-.2.15-.11.14-.12.19-.16.19-.16.18-.17.19-.17A.58.58,0,0,1,46.17,51.93Z"/><path class="cls-4" d="M49.7,49.13l.12-.05.13,0a.31.31,0,0,1,.19,0,.14.14,0,0,1,.07.13.16.16,0,0,1-.07.15l0,0-.09,0-.17.08-.47.21c-.25.12-.37.27-.37.45a.21.21,0,0,0,.07.15l.06,0,.07,0,.17,0h.14l.06,0,.06,0,.08,0,.08,0a.17.17,0,0,1,.12,0l.08.09a.37.37,0,0,1,0,.12c0,.13-.14.22-.36.28l-.13,0-.13,0-.19,0L49,50.78l-.1,0-.1-.07a.53.53,0,0,1-.28-.48.58.58,0,0,1,.11-.31l.1-.12.15-.14.11-.09.15-.1.26-.16Z"/><path class="cls-4" d="M49.25,51.78h.09l.12.1a.14.14,0,0,1,.07.13,1.44,1.44,0,0,1-.27.29l1,0s0,0,0,0l0,0a.12.12,0,0,1,.06.09c0,.08-.1.18-.31.32l-.48.28-.36.21-.56.36-.76.39-.44.19-.14.06-.15,0-.18,0-.16,0-.08,0a.3.3,0,0,1-.08-.24c0-.07,0-.13.16-.16l.16,0a1.53,1.53,0,0,0,.3,0,2.22,2.22,0,0,0,.3-.11l.07,0,.11,0,.29-.13,1.43-.82H48.15a.56.56,0,0,1,0-.08.57.57,0,0,1,0-.14l0-.08.09,0,.1,0,.17-.08.29-.14L49,52a.13.13,0,0,0,.09-.09l.06-.08h.13Z"/><path class="cls-4" d="M53.63,55a.16.16,0,0,1,.17.11l0,.08v.06a.06.06,0,0,1,0,.06l-.07.08-.05,0-.1.05-.11,0-.19.18-.18.13-.31.2-.27.16-.16.09a.73.73,0,0,1-.18.09l-.3.12-.12,0a.21.21,0,0,1-.16-.07.32.32,0,0,1-.06-.17v-.09l0-.06,0,0,.14-.07.32-.14.26-.13.18-.08.16-.1.32-.2.18-.12.16-.12L53.5,55A.28.28,0,0,1,53.63,55Z"/><path class="cls-4" d="M53.66,52.91l-.21.2-.14.1-.15.09-.25.12-.25.08-.28.06-.29,0h-.41l-.1,0a.67.67,0,0,1-.55-.69.91.91,0,0,1,.09-.33l.12-.14.13-.13.07-.06.09-.05.18-.08.16-.06L52,52h.16l.11,0,.09,0,.15.15.15-.14.12-.09.07,0,.08,0,.17,0,.18,0a.68.68,0,0,1,.56.24l.06.09a.53.53,0,0,1,0,.11v.1A1,1,0,0,1,53.66,52.91Zm-1.45-.39-.1-.05-.11,0h-.17l-.1,0a.42.42,0,0,0-.25.39.19.19,0,0,0,.1.17l.18.08.27-.4Zm1.28-.13c0-.09-.06-.13-.2-.13h-.08a.6.6,0,0,0-.22.11l-.27.22-.17.15-.13.15-.07.1-.11.17.36-.06h0l.07,0,.12-.07.22-.15.18-.13C53.41,52.6,53.49,52.49,53.49,52.39Z"/><path class="cls-4" d="M177,67.88a1.62,1.62,0,0,0-1.69-1.35c-1.46,0-2.06,1.28-2.06,2.59s.6,2.58,2.06,2.58A1.75,1.75,0,0,0,177,69.92h1.16a2.79,2.79,0,0,1-2.89,2.75,3.57,3.57,0,0,1,0-7.11,2.65,2.65,0,0,1,2.88,2.32Z"/><path class="cls-4" d="M179,67c.92,0,1.78-.31,1.94-1.11h.89v6.66h-1.19v-4.7H179Z"/><path class="cls-4" d="M175.78,117.66a1.63,1.63,0,0,0-1.7-1.34c-1.45,0-2.06,1.28-2.06,2.58s.61,2.59,2.06,2.59a1.74,1.74,0,0,0,1.73-1.78H177a2.78,2.78,0,0,1-2.89,2.75,3.57,3.57,0,0,1,0-7.11,2.66,2.66,0,0,1,2.89,2.31Z"/><path class="cls-4" d="M182.25,122.29h-4.54a3,3,0,0,1,1.46-2.51c.87-.63,2-1.15,2-2.19a1.05,1.05,0,0,0-1.13-1.18c-.85,0-1.11.73-1.14,1.66h-1.08a2.28,2.28,0,0,1,2.29-2.56,2,2,0,0,1,2.14,2,2.77,2.77,0,0,1-1.48,2.24c-.77.54-1.58.95-1.77,1.53h3.24Z"/></g></g></g></svg>