<svg xmlns="http://www.w3.org/2000/svg" viewBox="0 0 363.26 278.01"><defs><style>.cls-1{fill:#f1f2f2;}.cls-2,.cls-5{fill:#396287;}.cls-2{fill-rule:evenodd;}.cls-3,.cls-6,.cls-7{fill:none;}.cls-4{fill:#383838;}.cls-6{stroke:#6f2081;stroke-width:1.48px;}.cls-7{stroke:#1a1a18;stroke-miterlimit:22.93;stroke-width:0.65px;stroke-dasharray:5.94 2.97;}</style></defs><title>TH</title><g id="Layer_2" data-name="Layer 2"><g id="Layer_1-2" data-name="Layer 1"><g id="N2"><path class="cls-1" d="M313.35,148.54a101.37,101.37,0,0,1-18.49,10.69L271,172.38l-4.19,2.16-7,5.58c-6.77,4.22-12.53,16.24-21.28,19.51-13,9.26-24.67,16.77-37.05,23l16.21-72.87Z"/><path class="cls-2" d="M240.93,195.13a189,189,0,0,1-20.27,13.61,139.1,139.1,0,0,0-17.3,11c-1.2,2.78-.23,4,2.88,3.76,3.31-2.5,6.77-4.93,10.07-7.42,6.72-4.2,13.11-8.66,19.84-12.85,4.16-2.94,8.57-5.62,12-9.32A23,23,0,0,1,252,189a15.08,15.08,0,0,1,6.26-4.44q9.58-4.62,18.58-10c6.68-3.78,13.34-7.48,19.63-12.5,4.74-2.22,8.39-5.72,12.2-9.53,1.44-1.51-1.93-3.49-3.79-2-4.35,3.16-8.52,5.79-12.88,8.95a143,143,0,0,1-16,10.39c-5.06,3.22-11.1,7.88-13.53,7.87-4.4,0-6.53,2.92-8,4.18-5.74,3.24-9.68,8.9-13.6,13.22Z"/><path class="cls-2" d="M228,175.09c-.78.54-1,1.4-1.68,1.59-.42-.43-.73-.28-1.14-.7-.64,0-.87.22-.68.72a2.26,2.26,0,0,0,1.79,1.68c2.18.11,1.89-.15,3.14-2,.49-.72-.69-1.44-1.43-1.29Z"/><path class="cls-2" d="M231,187.79c.82-.6,1.73-.81,2.23-.13s.11,1.46-.72,2.06-1.79.82-2.28.14-.06-1.46.77-2.07Z"/><path class="cls-2" d="M240,189.2a1.24,1.24,0,0,1,1.26,1.19,1.22,1.22,0,0,1-1.31,1.14,1.17,1.17,0,1,1,0-2.33Z"/><path class="cls-2" d="M219.66,187.23c1.07.89-1,2.44-2.41,3.52s-2.77,1.74-3.22,1.31.13-1.94,1.41-3.17,3.15-2.54,4.22-1.66Z"/><path class="cls-2" d="M222.94,162.92a1.1,1.1,0,1,1,0,2.16.88.88,0,0,1-1-1c0-.59.28-1.14,1-1.12Z"/><path class="cls-2" d="M229.55,153.87a1.1,1.1,0,1,1-.05,2.15c-.72,0-1-.44-1-1s.28-1.14,1-1.12Z"/><path class="cls-2" d="M240.82,156.06a1.1,1.1,0,1,1,0,2.16.88.88,0,0,1-1-1c0-.59.29-1.14,1-1.12Z"/><path class="cls-2" d="M242,165c.69,0,1.26.43,1.24.91s-.58.87-1.27.85-1-.36-.94-.85a.86.86,0,0,1,1-.91Z"/><path class="cls-2" d="M244.43,163.58c.7,0,1.26.43,1.25.92s-.58.86-1.29.85-.93-.36-.92-.85a.87.87,0,0,1,1-.92Z"/><path class="cls-2" d="M220.73,177.39c.87-.47,1.81-.42,2.09.11s-.19,1.32-1.07,1.79-1.38.27-1.66-.25-.23-1.18.64-1.65Z"/><path class="cls-2" d="M213.3,171.31c.94-.83,2.12-1.05,2.61-.49s.15,1.71-.79,2.53-1.63.74-2.13.18a1.46,1.46,0,0,1,.31-2.22Z"/><path class="cls-2" d="M299.48,156.48c.16.2-.09.68-.55,1.05s-1,.35-1.15.14.08-.51.55-.88,1-.52,1.15-.31Z"/><path class="cls-2" d="M291.23,162.23c.12.16-.07.54-.44.83s-.78.28-.9.12.06-.41.43-.71.78-.4.91-.24Z"/><path class="cls-2" d="M282.7,168.35c.11.14-.06.47-.4.74s-.68.26-.8.1.06-.36.39-.62.69-.37.81-.22Z"/><path class="cls-2" d="M287.77,164.36c.2.18,0,.74-.4,1.21s-1,.56-1.2.37,0-.57.42-1.05,1-.73,1.18-.53Z"/><path class="cls-2" d="M295.55,159c.21.27-.15.68-.77,1.17s-1.25.69-1.46.41.1-.69.72-1.18,1.29-.67,1.51-.4Z"/><path class="cls-2" d="M249.45,188.83c.33.14.1.73-.31,1.08s-.66.55-1,.35-.2-.77.23-1.09.81-.48,1.13-.34Z"/><path class="cls-2" d="M245.53,192c.94-.92,1.57-.08,1.44,1.11s-.67.73-1.56,1-1.64.22-1.36-.48.54-.68,1.48-1.6Z"/><path class="cls-2" d="M251.88,186.25a.4.4,0,0,1,.49.48.48.48,0,0,1-.5.46.5.5,0,0,1-.49-.48c0-.26.19-.41.5-.46Z"/><path class="cls-2" d="M253.48,185.14a.4.4,0,0,1,.49.48.49.49,0,0,1-.51.47.5.5,0,0,1-.48-.49c0-.25.18-.42.5-.46Z"/><path class="cls-2" d="M254.76,184c.41-.12.7.07.64.34a.69.69,0,0,1-.65.48.48.48,0,0,1-.49-.42c0-.23.1-.29.5-.4Z"/><path class="cls-2" d="M257.2,182.41c.32-.23.65-.16.68.1a.64.64,0,0,1-.43.64.44.44,0,0,1-.56-.22c-.07-.21,0-.28.31-.52Z"/><path class="cls-2" d="M269.91,175.62c.37-.26.74-.18.79.13a.8.8,0,0,1-.51.73.51.51,0,0,1-.65-.26c-.08-.23,0-.33.37-.6Z"/><path class="cls-2" d="M272.66,173.76c.37-.27.75-.18.78.12a.72.72,0,0,1-.49.72.5.5,0,0,1-.66-.24c-.07-.24,0-.33.37-.6Z"/><path class="cls-2" d="M276.6,171.72c.36-.23.74-.15.79.1a.68.68,0,0,1-.51.61.54.54,0,0,1-.65-.21c-.08-.2,0-.28.37-.5Z"/><path class="cls-3" d="M274.64,173.09c.12-.33.4-.48.55-.33a.51.51,0,0,1,0,.63.44.44,0,0,1-.52.2c-.16-.09-.14-.18,0-.5"/><path class="cls-2" d="M279,170.32c.41-.15.77,0,.75.26s-.31.47-.6.49a.57.57,0,0,1-.61-.33c0-.22.06-.27.46-.42Z"/><path class="cls-2" d="M284.79,166.88c.41-.14.76,0,.75.26s-.32.47-.61.5-.57-.14-.6-.35.05-.26.46-.41Z"/><path class="cls-3" d="M258.68,181.59c.27-.19.53-.13.56.08a.54.54,0,0,1-.36.52.36.36,0,0,1-.46-.18c-.05-.17,0-.23.26-.42"/><path class="cls-3" d="M267.15,177.21c.26-.2.53-.13.56.08a.52.52,0,0,1-.36.51.33.33,0,0,1-.45-.17c-.06-.17,0-.24.25-.42"/><path class="cls-2" d="M222.91,198.67a1.31,1.31,0,0,1,1.39,1.19,1.32,1.32,0,0,1-1.44,1.14,1.19,1.19,0,1,1,0-2.33Z"/><path class="cls-2" d="M241.91,196.09c.33.21.22.64-.24,1.09s-.83.58-1.06.34-.1-.69.25-1.09.72-.54,1-.34Z"/></g><g id="N3"><path class="cls-1" d="M89.74,200.78l127.94-51-16.21,72.87c-.71.39-1.43.74-2.14,1.1L186,228.12c-12.7,13.54-25.73,17.61-39.24,18.47l-2.73-.39c-9.85-1.28-21.91-3.24-33-10.95l-10.86-9.09-3.57-4.92-.06-1.1-2.31-6.35-4.13-5.7,1.64-3.92A20.5,20.5,0,0,1,89.74,200.78Z"/><path class="cls-1" d="M152.07,233a1,1,0,0,1-1.48,0l-6.87-6.87a1.05,1.05,0,0,1,0-1.47l6.87-6.87a1,1,0,0,1,1.48,0l6.87,6.87a1.05,1.05,0,0,1,0,1.47Z"/><path class="cls-2" d="M180.93,233.76a44.36,44.36,0,0,0-6,4.51c-1.48,2.85-3.47,3.74-5.31,5.17-3.42,1.81-7.63,1.66-11.88,1.34-4.33,0-8.66-.09-13-.15A44.38,44.38,0,0,1,124.5,241c-9.44-3.77-13-6.68-19.36-11.55-9.26-7.25-13.32-14.73-16.77-25.86-.29-.65-.56-1.3-.83-2v0l6.35-2.52a50.16,50.16,0,0,0,2.65,5.61c4.48,7.39,9.73,12,16.77,16.33v.06c4.15,1.9,6.91,4.72,10,7.39,5.28,2.37,10,5,16.86,5.61,1.31-.12,2.58.12,3.89,0l6.8.89,8,.8c5.17-.71,10-2.31,14-6.35,1.81-2.2,3.42-2.11,5-1.72a5,5,0,0,1,4.16,3.38C182.56,232,182.17,232.9,180.93,233.76Z"/><path class="cls-2" d="M184.11,194.23a3.67,3.67,0,0,0-.13-2.77c0-1.17.8-1.34,2-1.05l1.52,1.77c1.37.51,1.37,1.21,1.17,1.92a12.07,12.07,0,0,0-2.08,3.6c-.81.52-1.58.22-2.36-.45a4.15,4.15,0,0,1-.08-3Z"/><path class="cls-2" d="M173.91,184.78c.56,0,.78.94.77,1.9s-.64,1.7-1.21,1.68-.87-.76-.86-1.72.73-1.87,1.3-1.86Z"/><path class="cls-2" d="M173.76,190.12c-.57,0-.83.81-.85,1.68a1.44,1.44,0,0,0,1.16,1.56c.58,0,.92-.65,1-1.51s-.67-1.72-1.26-1.73Z"/><path class="cls-2" d="M143.83,179.61c-.57,0-.83.7-.85,1.46a1.31,1.31,0,0,0,1.16,1.37c.59,0,.93-.56,1-1.32a1.55,1.55,0,0,0-1.26-1.51Z"/><path class="cls-2" d="M135.57,185.35c-.69,0-1,.61-1,1.25a1.37,1.37,0,0,0,1.4,1.19,1.08,1.08,0,0,0,1.12-1.13c0-.65-.82-1.29-1.51-1.31Z"/><path class="cls-2" d="M121.34,189.05a1.09,1.09,0,0,0-1.64-.16c-.43.39-.19,1.35.36,2s1.51.94,2,.56-.13-1.74-.68-2.38Z"/><path class="cls-2" d="M199.74,170.74a1.1,1.1,0,1,1-.05,2.16.9.9,0,0,1-1-1c0-.59.29-1.14,1-1.12Z"/><path class="cls-2" d="M214.3,162.93a1.1,1.1,0,1,1-.05,2.16.9.9,0,0,1-1-1c0-.58.29-1.13,1-1.12Z"/><path class="cls-2" d="M193.45,176.25a1.11,1.11,0,1,1,0,2.21c-.67,0-.9-.46-.89-1.06s.27-1.16.93-1.15Z"/><path class="cls-2" d="M205.78,184.37c.8,0,1.45.53,1.42,1.13a1.3,1.3,0,0,1-1.47,1.07c-.81,0-1.09-.45-1.07-1a1,1,0,0,1,1.12-1.15Z"/><path class="cls-2" d="M207.32,181.5a.85.85,0,1,1,0,1.69c-.5,0-.66-.35-.65-.81s.19-.89.69-.88Z"/><path class="cls-2" d="M208.91,180.23a.84.84,0,1,1,0,1.68c-.5,0-.66-.35-.66-.8s.2-.89.69-.88Z"/><path class="cls-2" d="M210.25,178.22a1,1,0,0,1,1,1,1,1,0,0,1-1.07.95c-.56,0-.76-.4-.75-.92s.23-1,.79-1Z"/><path class="cls-2" d="M184.49,176.59c.76-.15,1.61.83,1.88,2.19s-.13,2.58-.9,2.75-1.24-.75-1.51-2.11-.24-2.67.53-2.83Z"/><path class="cls-2" d="M203.51,157.87c1-.53,1.9-.22,2,.54s-.72,1.18-1.48,1.36-1.13-.11-1.26-.64-.22-.74.79-1.26Z"/><path class="cls-2" d="M188.61,166.59c.81,0,1.45.53,1.44,1.13s-.68,1.09-1.49,1.07-1.08-.45-1.07-1a1.05,1.05,0,0,1,1.12-1.15Z"/><path class="cls-2" d="M204.6,168.16c.89-.43,2-.38,2.22.15s-.37,1.35-1.24,1.79-1.4.22-1.67-.31-.19-1.18.69-1.63Z"/><path class="cls-2" d="M174.78,229.49c1.36-.18,1.73.32,1.15,1.51-.24,1.3-2.13,2.1-3.32,3.1-1.53,1.29-2.46,2.63-3,2.65,0,.42-1-.11-2.16-.07a7.38,7.38,0,0,0-2.58,1c-1.06-.28-1.1-.57-.23-1.15,4-1.7,7.68-3.78,10.13-7Z"/><path class="cls-2" d="M156.75,236.94c2.29.47,3.38,1.62,1.54,1.72a52.82,52.82,0,0,1-11.19.26,33.08,33.08,0,0,0-3.93-.9c-2.66-.78-2.57.9-5,.62-13.91-3.41-25.85-7.43-35.63-19.14a82.62,82.62,0,0,1-5.93-10c-1.14-3,.13-1.8,1.74-.06a115,115,0,0,0,8.31,9.19c6.83,4.81,10.74,8.8,18.61,13.15,3.55,1.31,9.68,4.07,13.83,3.64,1.49.2,3.24,1.18,5.54.92a64.5,64.5,0,0,0,12.07.57Z"/><path class="cls-2" d="M183.13,222.56c.11-.92,1.12-1.27,1.51-.81,1.46,3.37,4.25,4.25,6.77,5.63.29-.47.54-1,1.21-1,1.15.41,1.17,1.18.88,2.11-.61,1.71-1.46,1.93-2.83,2.17a10.12,10.12,0,0,1-4.63-2.53,7,7,0,0,1-2.91-5.56Z"/><path class="cls-2" d="M140.85,195c-.57,0-.83.66-.84,1.35a1.25,1.25,0,0,0,1.16,1.27c.59,0,.93-.53.94-1.22a1.47,1.47,0,0,0-1.26-1.4Z"/><path class="cls-2" d="M199.81,225.66a1.36,1.36,0,0,1,.25.81c0,.79-2.17.95-3.13.24s-1.33-1.67-1.05-2.29a.8.8,0,0,1,.49-.4,2.69,2.69,0,0,0,1,1.62c.79.58,2.17.57,2.41,0Z"/><path class="cls-2" d="M198.57,223.54a2.29,2.29,0,0,1,1.28,1.94c0,.72-1.58.78-2.45.16a2.17,2.17,0,0,1-1-2.26c.26-.57,1.26-.41,2.15.16Z"/><path class="cls-2" d="M193.94,224.32c.53.18.84.35.83.77a.81.81,0,0,1-.87.74c-.46,0-.75-.13-.83-.78s.34-.92.87-.73Z"/><path class="cls-2" d="M177.79,217.7c1.94.46,2.27,2.07,1.81,3.74s-1,2.93-2,3-1.73-1.19-2.17-3.27.42-3.9,2.34-3.44Z"/><path class="cls-2" d="M180.27,211.4c1.17,0,2.25,1.58,2.21,3.06s-.61,2.56-2.19,2.64a2,2,0,0,1-2.08-2.73c.43-1.59.88-3,2.06-3Z"/><path class="cls-2" d="M103.69,222.86c.16-.17.59,0,.87.25s.43.66.28.83-.55,0-.83-.22-.48-.7-.32-.86Z"/><path class="cls-3" d="M110.35,229c.08.12-.08.36-.29.51s-.48.17-.56,0,0-.35.27-.48.5-.2.58-.07"/><path class="cls-2" d="M106.27,226.45c.18-.19.68,0,1,.3s.5.76.32.95-.64,0-1-.25-.55-.81-.37-1Z"/><path class="cls-2" d="M110.59,230.23c0-.25.54-.38,1-.35s1.3.29,1.27.56-.86.63-1.31.59-1-.53-.94-.8Z"/><path class="cls-2" d="M176,232.15c-.74,1-.19,1,.41.95,1.53-.78,2.87-1,3.73,0,.64.53,1,.39.92-.46a4.22,4.22,0,0,0-1.7-3c-.88-.38-1.55-.34-1.58.24-.39,1-.78,1.95-1.78,2.25Z"/><path class="cls-2" d="M185.24,223.26c-.75-.56-.76-.39-.92.54.38,1.73,2.25,2.49,3.49,3.92a4.11,4.11,0,0,1,2.33,1.46c1.33.66,2.08.35,2.19-1-.63-.71-3.05-3-3.78-3.26-1.22-.19-2.18-.18-3.31-1.65Z"/><path class="cls-2" d="M118.81,207.33c.29,0,.45.38.45.76s-.2.62-.48.62a.65.65,0,0,1-.53-.7.65.65,0,0,1,.56-.68Z"/><path class="cls-2" d="M122,213.75a1.05,1.05,0,0,1,.59,1.38,1.21,1.21,0,0,1-2.11-1.1,1.12,1.12,0,0,1,1.52-.28Z"/><path class="cls-2" d="M136.69,217.16a1.05,1.05,0,0,1,1.43-.45,1.22,1.22,0,1,1-1.43.45Z"/><path class="cls-2" d="M141.38,222.57a1,1,0,0,1,1.42-.44,1.09,1.09,0,0,1,.19,1.53,1.12,1.12,0,0,1-1.5.45,1.11,1.11,0,0,1-.11-1.54Z"/><path class="cls-2" d="M155.13,213.14a1.13,1.13,0,0,1,.7,1.45,1.31,1.31,0,1,1-.7-1.45Z"/><path class="cls-2" d="M163.43,208.05a1.06,1.06,0,0,1,.67,1.35,1.12,1.12,0,0,1-1.51.42,1,1,0,1,1,.84-1.77Z"/></g><g id="N4"><path class="cls-4" d="M147.82,170a3.94,3.94,0,0,0,.58,2.37,1.76,1.76,0,0,0,1.44.77,1.67,1.67,0,0,0,1.38-.78,4,4,0,0,0,.58-2.36,4,4,0,0,0-.58-2.36,1.75,1.75,0,0,0-1.44-.78,1.67,1.67,0,0,0-1.38.78,3.93,3.93,0,0,0-.58,2.36Zm-1.17,0a4.92,4.92,0,0,1,.9-3.21,2.89,2.89,0,0,1,4.51,0,4.76,4.76,0,0,1,.9,3.12,5.16,5.16,0,0,1-.88,3.3,2.9,2.9,0,0,1-4.52,0A4.9,4.9,0,0,1,146.65,170Zm-6.84,0a3.94,3.94,0,0,0,.58,2.37,1.76,1.76,0,0,0,1.44.77,1.68,1.68,0,0,0,1.38-.78,4,4,0,0,0,.58-2.36,4,4,0,0,0-.58-2.36,1.75,1.75,0,0,0-1.44-.78,1.69,1.69,0,0,0-1.39.78A4,4,0,0,0,139.81,170Zm-1.17,0a4.92,4.92,0,0,1,.9-3.21,2.8,2.8,0,0,1,2.26-1.08,2.84,2.84,0,0,1,2.25,1.08,4.76,4.76,0,0,1,.9,3.12,5.1,5.1,0,0,1-.89,3.3,2.79,2.79,0,0,1-2.26,1.08,2.85,2.85,0,0,1-2.26-1.09A4.9,4.9,0,0,1,138.64,170Zm-7.58,4.1V162.75h1.13v4.07a2.9,2.9,0,0,1,.91-.85,2.24,2.24,0,0,1,1.12-.28,2.22,2.22,0,0,1,1.7.68,3.84,3.84,0,0,1,.62,2.51v5.2H135.4v-5.2a2.45,2.45,0,0,0-.38-1.53,1.27,1.27,0,0,0-1-.47,1.59,1.59,0,0,0-1.26.6,3.23,3.23,0,0,0-.53,2.11v4.49ZM123.8,170a4.15,4.15,0,0,0,.55,2.36,1.57,1.57,0,0,0,1.29.77,1.51,1.51,0,0,0,1.26-.74,3.8,3.8,0,0,0,.53-2.24,4.59,4.59,0,0,0-.53-2.52,1.58,1.58,0,0,0-1.34-.79,1.51,1.51,0,0,0-1.24.76A4.41,4.41,0,0,0,123.8,170Zm3.61,4.09v-1a2.26,2.26,0,0,1-.79.9,1.93,1.93,0,0,1-1.05.32,2.55,2.55,0,0,1-2.06-1.13,5.05,5.05,0,0,1-.87-3.16,6.67,6.67,0,0,1,.38-2.38,3.16,3.16,0,0,1,1-1.44,2.34,2.34,0,0,1,1.44-.47,2.08,2.08,0,0,1,1.05.29,2.46,2.46,0,0,1,.79.84v-4.07h1.15v11.33Zm-12.38,0v-8.21h1V167a2.76,2.76,0,0,1,.91-1,2.31,2.31,0,0,1,1.23-.33,2.44,2.44,0,0,1,1,.21,2.08,2.08,0,0,1,.74.55,2.51,2.51,0,0,1,.42.9,7.62,7.62,0,0,1,.14,1.68v5.05h-1.15v-5a4.24,4.24,0,0,0-.15-1.32,1.28,1.28,0,0,0-.48-.65,1.34,1.34,0,0,0-.77-.23,1.59,1.59,0,0,0-1.3.61,3.41,3.41,0,0,0-.49,2.1v4.48ZM111.32,170a7.33,7.33,0,0,1-1.86.53,3.66,3.66,0,0,0-1,.28,1,1,0,0,0-.44.45,1.3,1.3,0,0,0-.16.67,1.27,1.27,0,0,0,.36.94,1.4,1.4,0,0,0,1,.35,2.09,2.09,0,0,0,1.12-.32,1.91,1.91,0,0,0,.74-.85,3.64,3.64,0,0,0,.25-1.54Zm.09,3.11a4.4,4.4,0,0,1-1.19.9,2.9,2.9,0,0,1-1.28.3,2.24,2.24,0,0,1-1.68-.64,2.35,2.35,0,0,1-.63-1.71,2.61,2.61,0,0,1,.3-1.26,2.12,2.12,0,0,1,.8-.85,4.21,4.21,0,0,1,1.55-.46,8.38,8.38,0,0,0,2-.48v-.35a1.83,1.83,0,0,0-.3-1.19,1.64,1.64,0,0,0-1.3-.49,1.82,1.82,0,0,0-1.19.33,2.08,2.08,0,0,0-.58,1.23l-1.12-.18a3,3,0,0,1,1-1.93,3.21,3.21,0,0,1,2.09-.6,3,3,0,0,1,1.66.4,1.67,1.67,0,0,1,.76,1,7.34,7.34,0,0,1,.16,1.72v1.85c0,1.3,0,2.12.07,2.46a3.92,3.92,0,0,0,.29,1h-1.19A3.86,3.86,0,0,1,111.41,173.07Zm-11,1-3.6-11.33h1.33l2.42,8.23c.18.64.35,1.26.49,1.86.14-.62.31-1.24.49-1.86l2.51-8.23h1.25l-3.63,11.33Z"/><path class="cls-1" d="M217.68,149.79l-127.94,51c-4.93-9.88-4.78-25.58-8.91-37.4L76.17,158c-3.56-.33-.29-4.34-3.92-6l-2.76-5.28c.24-17.9-2.19-35.12-6.56-53-.41-21.76,18-38.56,36.69-50.1Z"/><path class="cls-2" d="M95.7,40a72.14,72.14,0,0,0-11.48,7.69c-3.18,3.44-6.5,6.83-9.29,11.55C73.59,60.94,65,73.88,63.56,75c-2,4.07-2.73,9.26-3.39,15a61.27,61.27,0,0,0,2.14,15.7c-.06,1,3.44,12.32,4.3,14.07.78,1.9,1,3.69,2.23,5.26a11,11,0,0,1,.56,6.2,23.65,23.65,0,0,0-2.61,4.4c-1.16,1.27-1,3.71-.35,6.44a77.49,77.49,0,0,0,5.34,9.5,41.73,41.73,0,0,0,4.87,6.91c1.72,1.16,2.88.69,3.5-1.48a15.69,15.69,0,0,0-.21-5.94c-1.1-6.2-3.5-10.92-5-16.18-.38-3.23.33-7.63.18-9a17.72,17.72,0,0,0-2.22-5.55h-.06c-3.18-8.88-3-13.51-3.92-19.62l-.77-14.7c2.22-12.61,5.46-14.54,11.43-22.32A79.09,79.09,0,0,1,90.42,49.9a40.26,40.26,0,0,1,8.25-5.4c.6-.24.77.32,1.07.68.92,1,1.9,1.81,3.15,1.39a0,0,0,0,0,0,0ZM77.18,149c.74,0,1.31,2.17,1.25,4.43s.27,3.71-1,4-2-1.54-1.57-4.06S76.47,149,77.18,149Zm-3.56-12.37c.77,3.94,1.78,4.74,2.43,6.59s-.53,1.84-1.15,1.09a16.78,16.78,0,0,1-2.59-6,39.3,39.3,0,0,1,.36-7.54c.39-1.07.74-.89,1,.15C73.56,132.87,73.71,134.65,73.62,136.64Zm-1.25-9.44c0-.63.24-1.1.51-1.1s.32.5.32,1.13-.09,1.12-.38,1.09S72.34,127.82,72.37,127.2Zm0-4.55c.3,0,.66.42.83.95s.06,1-.23,1-.48-.41-.66-1S72.05,122.68,72.34,122.65Z"/><path class="cls-2" d="M73.2,127.23c0,.62-.09,1.12-.38,1.09s-.48-.5-.45-1.12.24-1.1.51-1.1S73.2,126.6,73.2,127.23Z"/><path class="cls-2" d="M72.94,124.64c-.3,0-.48-.41-.66-1s-.23-1,.06-1,.66.42.83.95S73.23,124.61,72.94,124.64Z"/><path class="cls-2" d="M74.9,144.32a16.78,16.78,0,0,1-2.59-6,39.3,39.3,0,0,1,.36-7.54c.39-1.07.74-.89,1,.15-.06,2,.09,3.74,0,5.73.77,3.94,1.78,4.74,2.43,6.59S75.52,145.07,74.9,144.32Z"/><path class="cls-2" d="M78.43,153.44c-.06,2.28.27,3.71-1,4s-2-1.54-1.57-4.06.65-4.37,1.36-4.37S78.49,151.18,78.43,153.44Z"/><path class="cls-2" d="M74.9,144.32a16.78,16.78,0,0,1-2.59-6,39.3,39.3,0,0,1,.36-7.54c.39-1.07.74-.89,1,.15-.06,2,.09,3.74,0,5.73.77,3.94,1.78,4.74,2.43,6.59S75.52,145.07,74.9,144.32Z"/><path class="cls-2" d="M92.73,165.81c2-1.87,3.36-1.36,5-.4.77.83,1.87,1.79,2.63,2.62,1.62,2,.77,3.1-.72,4a37.93,37.93,0,0,1-7,.21c-2.06-.41-2.56-1.71-3-3.08.17-1.56,1.63-2.53,3.11-3.33Z"/><path class="cls-2" d="M93.46,177.51c-.2-1.08.52-1.76,2.37-1.59,2.3-.53,3.74,1.26,4.94,3.69,1.43,2.19-.34,3.69.32,4.85,1.94,2.69.68,3.66-.88,2.21-1.15-1.15-2-2.55-3.76-4.79a12.71,12.71,0,0,1-3-4.37Z"/><path class="cls-2" d="M100.53,176.22c-1.35-1.05-1.14-2.31,0-2.76.93-.39,1.86-.79,2.79-1.17s1.41-.1,1.32.85a14.78,14.78,0,0,0,.22,3.69c1.2,2.14-.13,1.44-.95,1.31a14.47,14.47,0,0,1-3.34-1.92Z"/><path class="cls-2" d="M111.81,59.86a1.28,1.28,0,1,1-1.08,1.24,1.18,1.18,0,0,1,1.08-1.24Z"/><path class="cls-2" d="M120.58,75.82a1.37,1.37,0,0,1,1.26,1.29,1.28,1.28,0,0,1-1.3,1.15,1.18,1.18,0,0,1-1-1.29,1.11,1.11,0,0,1,1.08-1.15Z"/><path class="cls-2" d="M95.84,87.73A1.31,1.31,0,0,1,97,89.17a1.21,1.21,0,1,1-1.16-1.44Z"/><path class="cls-2" d="M100.48,80.2a1.27,1.27,0,1,1-1.09,1.23,1.16,1.16,0,0,1,1.09-1.23Z"/><path class="cls-2" d="M93.4,73.55a1.28,1.28,0,1,1-1.08,1.24,1.18,1.18,0,0,1,1.08-1.24Z"/><path class="cls-2" d="M83.28,92.3c1.08-.33,1.56.25,1,1.3s-.51,1.26-1.1,1.25a1.18,1.18,0,0,1-1-1.3c0-.69,0-.92,1.1-1.25Z"/><path class="cls-2" d="M74.76,102a1.2,1.2,0,0,1,1,1.29,1.17,1.17,0,0,1-1.09,1.23,1.15,1.15,0,0,1-1-1.27A1.2,1.2,0,0,1,74.76,102Z"/><path class="cls-2" d="M92.42,96.74a1.18,1.18,0,0,1,1,1.28,1.2,1.2,0,0,1-1.1,1.24,1.28,1.28,0,0,1,0-2.52Z"/><path class="cls-2" d="M107.16,99.7a1.16,1.16,0,0,1,1,1.28,1.07,1.07,0,1,1-1-1.28Z"/><path class="cls-2" d="M111.53,91.85a1.29,1.29,0,0,1-.06,2.53,1.28,1.28,0,0,1,.06-2.53Z"/><path class="cls-2" d="M123.29,98.48a1.28,1.28,0,0,1-.06,2.52,1.28,1.28,0,0,1,.06-2.52Z"/><path class="cls-2" d="M97,101.16a1.19,1.19,0,0,1,1,1.28,1.08,1.08,0,1,1-2.13,0A1.19,1.19,0,0,1,97,101.16Z"/><path class="cls-2" d="M88.06,101a1.28,1.28,0,0,1,0,2.52,1.28,1.28,0,0,1,0-2.52Z"/><path class="cls-2" d="M81.09,104.07A1.28,1.28,0,1,1,80,105.31a1.17,1.17,0,0,1,1.09-1.24Z"/><path class="cls-2" d="M82.13,110.35a1.26,1.26,0,0,1,0,2.51,1.26,1.26,0,0,1,0-2.51Z"/><path class="cls-2" d="M90.54,111.41a1.56,1.56,0,1,1-1.32,1.51,1.43,1.43,0,0,1,1.32-1.51Z"/><path class="cls-2" d="M98.23,112c1.09-.26,1.55.32,1,1.28s-.5,1.25-1.08,1.24a1.18,1.18,0,0,1-1-1.28c0-.7,0-1,1.09-1.24Z"/><path class="cls-2" d="M100.64,118.94c.91-.44,1.55.36,1,1.5s-.51,1.47-1.1,1.45-1.35-.89-1-1.5.18-1,1.08-1.45Z"/><path class="cls-2" d="M115.7,118.44a1.18,1.18,0,0,1,1,1.28,1.2,1.2,0,0,1-1.1,1.24,1.28,1.28,0,0,1,0-2.52Z"/><path class="cls-2" d="M107.57,108.46c.58,0,1,.85,1,1.54a1.08,1.08,0,1,1-2.12,0c0-.69.51-1.52,1.1-1.5Z"/><path class="cls-2" d="M113.28,130.7c.5.31-.09,1.34-.45,1.93s-.89,1-1.38.64a1.16,1.16,0,0,1-.24-1.63c.36-.58,1.57-1.24,2.07-.94Z"/><path class="cls-2" d="M121,125.53a1.27,1.27,0,1,1-1.39,1.23,1.32,1.32,0,0,1,1.39-1.23Z"/><path class="cls-2" d="M124.26,115.39a1.43,1.43,0,1,1-1.22,1.39,1.31,1.31,0,0,1,1.22-1.39Z"/><path class="cls-2" d="M86.28,119.93c.68,0,.9.85.88,1.79s-.6,1.71-1.27,1.69-1.21-.79-1.19-1.74a1.83,1.83,0,0,1,1.58-1.74Z"/><path class="cls-2" d="M130.31,141.67a1.19,1.19,0,0,1,1,1.29,1.08,1.08,0,1,1-2.12-.05,1.18,1.18,0,0,1,1.09-1.24Z"/><path class="cls-2" d="M133.75,137.9a1.28,1.28,0,1,1-1.09,1.24,1.19,1.19,0,0,1,1.09-1.24Z"/><path class="cls-2" d="M115.07,156.5c.67,0,1.17.36,1,1.28s-.48,1.29-1.09,1.24a1.42,1.42,0,0,1-1.19-1.36.52.52,0,0,0,.44.22.62.62,0,0,0,.69-.55c0-.35,0-.68-.37-.7a.25.25,0,0,0-.12,0,1.52,1.52,0,0,1,.6-.15Z"/><path class="cls-2" d="M109.39,166.63c.72.09,1.2.61.88,1.58s-.75,1.3-1.42,1.14a1.57,1.57,0,0,1-1-1.74,1.3,1.3,0,0,1,1.56-1Z"/><path class="cls-2" d="M103.89,161.81c.49.09.81.57.58,1.48s-.51,1.21-1,1.06a1.57,1.57,0,0,1-.68-1.61c.11-.7.58-1,1.06-.93Z"/><path class="cls-2" d="M120.1,174c-.08-.72.29-1.31,1.31-1.25s1.45.39,1.45,1.08a1.55,1.55,0,0,1-1.41,1.43A1.31,1.31,0,0,1,120.1,174Z"/><path class="cls-2" d="M136.62,161a1.18,1.18,0,0,1,1,1.29,1.07,1.07,0,1,1-2.11,0,1.18,1.18,0,0,1,1.08-1.24Z"/><path class="cls-2" d="M110.83,75.1a1.15,1.15,0,0,1,1,1.27,1.07,1.07,0,1,1-1-1.27Z"/><path class="cls-2" d="M127.54,81.15a1.18,1.18,0,0,1,1,1.28,1.08,1.08,0,1,1-1-1.28Z"/><path class="cls-2" d="M135.1,81.18A1.27,1.27,0,1,1,134,82.42a1.18,1.18,0,0,1,1.09-1.24Z"/><path class="cls-2" d="M105.46,155.1c.89-.09,1.19.3,1.22.9-.52.61-.93,1.23-1.45,1.84,0,.41-.21.64-.32,1-1.37.33-1.53,0-1.61-.61.16-.59-.13-.92.3-1.62a4.67,4.67,0,0,1,1.86-1.56Z"/><path class="cls-2" d="M93.83,187.09c-.22-.76-.26-1.5,1.31-1.93,1.38.18,2.33,1.1,3.53,2.33.86.3,1-.28,1.7,0a5.53,5.53,0,0,1,1.29,1.95c.24,1-.19,1.61-1.28,1.94a3.71,3.71,0,0,1-3.18-.82c-.22-.67-.72-.95-1.4-1.48a4.91,4.91,0,0,1-2-2Z"/><path class="cls-2" d="M90.92,157.28l.53-.07c-.47.83-.8,1.3,0,1.78s1.44-.25,1.73-1.36a4.56,4.56,0,0,1,.14-.44c.37.07.6.22.59.49A3.34,3.34,0,0,1,92,160.17c-1.09.4-2.23.24-2.53-.56a1.73,1.73,0,0,1,1.46-2.33Z"/><path class="cls-2" d="M99.42,158.84c1.08.23,1.52.4,1.91,1.61.47,1.45-1,1.91-2.67,1.65s-2.36-.29-2.6-1.76c-.21-1.31.8-1.87,2.16-1.73l0,0c-.13.32.06.58.61.47s.56-.15.61-.29Z"/><path class="cls-2" d="M91.46,168.86c.68.09,1.15,1.1,1.13,2s-.51,1.67-1.1,1.65-.65-.49-1-1.7.32-2.05,1-2Z"/><path class="cls-2" d="M93.61,155.68c.45.15-.17.83-.46,1.94s-.93,1.88-1.73,1.37-.41-1,.09-1.89,1.66-1.56,2.1-1.42Z"/><path class="cls-2" d="M78.43,153.44c-.06,2.28.27,3.71-1,4s-2-1.54-1.57-4.06.65-4.37,1.36-4.37S78.49,151.18,78.43,153.44Z"/><path class="cls-2" d="M116,182.87a1.09,1.09,0,0,0-1.22,1.11c0,.57.87,1,1.7,1.05s1.34-.41,1.35-1-1-1.16-1.83-1.17Z"/><path class="cls-2" d="M173.26,154.71a1.17,1.17,0,0,1,1,1.31,1.15,1.15,0,0,1-1,1.24c-.56,0-.76-.51-.75-1.21s.24-1.35.8-1.34Z"/><path class="cls-2" d="M171.72,148.68c.81,0,1.45.53,1.44,1.13a1.32,1.32,0,0,1-1.48,1.07c-.8,0-1.09-.44-1.07-1a1,1,0,0,1,1.11-1.15Z"/><path class="cls-2" d="M149.75,169.29a1.14,1.14,0,1,1-.05,2.2c-.81,0-1.08-.45-1.08-1.05a1,1,0,0,1,1.13-1.15Z"/><path class="cls-2" d="M156.73,168.33c.8,0,1.45.53,1.43,1.12a1.3,1.3,0,0,1-1.48,1.07c-.8,0-1.09-.44-1.07-1.05a1,1,0,0,1,1.12-1.14Z"/><path class="cls-2" d="M160.14,163.73c.5,0,.91.34.9.71a.83.83,0,0,1-.93.68c-.51,0-.69-.28-.68-.67a.66.66,0,0,1,.71-.72Z"/><path class="cls-2" d="M162.05,136.68a1.15,1.15,0,1,1-.05,2.21,1,1,0,0,1-1.07-1.07,1,1,0,0,1,1.12-1.14Z"/><path class="cls-2" d="M145.35,121.88a1.34,1.34,0,0,1,1.44,1.23,1.12,1.12,0,0,1-1.54,1c-.8-.34-1-.49-1-1s.32-1.27,1.11-1.25Z"/><path class="cls-2" d="M146.74,112.72a1.66,1.66,0,0,1,1.44,1.23c.07.41-.6,1-1.48.92s-1.09-.43-1.08-.9a1.19,1.19,0,0,1,1.12-1.25Z"/><path class="cls-2" d="M155.91,126.78c.71,0,1.28.46,1.27,1a1.18,1.18,0,0,1-1.31.95c-.72,0-1-.4-1-.94a.92.92,0,0,1,1-1Z"/><path class="cls-2" d="M73.2,127.23c0,.62-.09,1.12-.38,1.09s-.48-.5-.45-1.12.24-1.1.51-1.1S73.2,126.6,73.2,127.23Z"/><path class="cls-2" d="M72.94,124.64c-.3,0-.48-.41-.66-1s-.23-1,.06-1,.66.42.83.95S73.23,124.61,72.94,124.64Z"/><path class="cls-2" d="M87.87,185.29c-.8-.12-1.69-.63-2.35-2.32a5.39,5.39,0,0,0-.68-.12,1.84,1.84,0,0,1-.42,0h0a.88.88,0,0,1-.29-.11l-.09-.09a0,0,0,0,1,0,0c0-1.19-.09-2.35.3-2.59a1.85,1.85,0,0,1,1,.06.09.09,0,0,1,.06,0,2,2,0,0,1,.69.3,4.43,4.43,0,0,1,.71.42c.15.53-.33,1-.59,1.51a2.49,2.49,0,0,0,2,2.2C88.94,184.61,88.88,185.44,87.87,185.29Z"/><path class="cls-2" d="M102.14,150.5a.7.7,0,0,1,1-.12c.22.22.13.64-.17.93s-.74.36-1,.13a.71.71,0,0,1,.17-.94Z"/><path class="cls-2" d="M114.59,156.63c.33,0,.38.35.37.7a.62.62,0,0,1-.69.55.49.49,0,0,1-.52-.56c0-.37.51-.7.84-.69Z"/><path class="cls-2" d="M102.07,179c.47-.6.84-.42,1.46.49s1,1.16.5,1.47-.93.05-1.47-.48-1-.87-.49-1.48Z"/><path class="cls-2" d="M111.55,131.19c.15-.09.46.16.71.56s.31.8.16.88-.46-.17-.69-.56-.33-.79-.18-.88Z"/><path class="cls-3" d="M97.54,160a.47.47,0,0,1-.06.63c-.16.1-.43.22-.59.13s-.15-.41,0-.6.48-.29.64-.16"/><path class="cls-2" d="M98.83,158.2c.34,0,.62.22.61.48s-.07.33-.63.45-.74-.14-.61-.48a.59.59,0,0,1,.63-.45Z"/><path class="cls-5" d="M93.89,199.12l-6.35,2.52A64,64,0,0,1,83.74,189a18.22,18.22,0,0,1,.27-6.41.08.08,0,0,0,.09.09.51.51,0,0,0,.29.11h0a1.84,1.84,0,0,0,.42,0,5.39,5.39,0,0,1,.68.12c.66,1.69,1.55,2.2,2.35,2.32,1,.15,1.07-.68.32-.77a2.49,2.49,0,0,1-2-2.2c.26-.51.74-1,.59-1.51a4.43,4.43,0,0,0-.71-.42,2,2,0,0,0-.69-.3.09.09,0,0,0-.06,0,4.1,4.1,0,0,1,.93-.77c1.66-1.39,2.46-1.54,4.18.6.89,2.73.62,5.58.45,8.43A52.69,52.69,0,0,0,93.89,199.12Z"/></g><g id="N1"><path class="cls-4" d="M304.46,145.06V133.73h1.13v11.33Zm-3.65,0v-8.21h1.13v8.21Zm0-9.73v-1.6h1.13v1.6Zm-7.28,5.48a4.07,4.07,0,0,0,.54,2.36,1.57,1.57,0,0,0,1.3.74,1.63,1.63,0,0,0,1.32-.73,5.1,5.1,0,0,0,0-4.61,1.64,1.64,0,0,0-1.35-.75,1.53,1.53,0,0,0-1.25.75A3.84,3.84,0,0,0,293.53,140.81Zm-.95,4.93,1.11.2a1.41,1.41,0,0,0,.47,1,1.63,1.63,0,0,0,1.07.32,1.65,1.65,0,0,0,1.8-1.43,9.85,9.85,0,0,0,.1-1.82,2.62,2.62,0,0,1-.83.8,2,2,0,0,1-1,.27,2.44,2.44,0,0,1-2-1,5,5,0,0,1-.91-3.15,6.07,6.07,0,0,1,.4-2.31,3.12,3.12,0,0,1,1.06-1.45,2.45,2.45,0,0,1,1.46-.47,2.08,2.08,0,0,1,1.08.29,2.87,2.87,0,0,1,.88.89v-1h1.05V144a8.5,8.5,0,0,1-.31,2.7,2.65,2.65,0,0,1-1,1.27,3.05,3.05,0,0,1-1.7.47,2.72,2.72,0,0,1-2-.7A2.58,2.58,0,0,1,292.58,145.74Zm-3.46-.68v-8.21h1.13v8.21Zm0-9.73v-1.6h1.13v1.6Zm-11.59,9.73v-8.21h1V138a2.64,2.64,0,0,1,.87-1,2.11,2.11,0,0,1,1.17-.35,1.91,1.91,0,0,1,1.2.37,2,2,0,0,1,.7,1.07,3.23,3.23,0,0,1,.92-1.08,2,2,0,0,1,1.16-.36,1.88,1.88,0,0,1,1.52.66,3.18,3.18,0,0,1,.56,2.1v5.64h-1.14v-5.17a4.48,4.48,0,0,0-.12-1.25,1.22,1.22,0,0,0-.41-.57,1.16,1.16,0,0,0-.65-.2,1.44,1.44,0,0,0-1.19.58,2.94,2.94,0,0,0-.47,1.84v4.77h-1.15v-5.34a2.56,2.56,0,0,0-.3-1.43,1,1,0,0,0-.87-.42,1.43,1.43,0,0,0-1.23.63,4.21,4.21,0,0,0-.45,2.3v4.26Zm-3.73-4.12a7,7,0,0,1-1.86.52,3.59,3.59,0,0,0-1,.29,1,1,0,0,0-.44.44,1.33,1.33,0,0,0-.16.67,1.24,1.24,0,0,0,.36.94,1.37,1.37,0,0,0,1,.35,2,2,0,0,0,1.11-.32,1.89,1.89,0,0,0,.74-.84,3.67,3.67,0,0,0,.25-1.54Zm.09,3.11a4.35,4.35,0,0,1-1.19.89,2.9,2.9,0,0,1-1.28.3,2.27,2.27,0,0,1-1.68-.63,2.35,2.35,0,0,1-.63-1.71,2.61,2.61,0,0,1,.3-1.26,2.21,2.21,0,0,1,.8-.86,4.43,4.43,0,0,1,1.55-.45,9.44,9.44,0,0,0,2-.48v-.36a1.74,1.74,0,0,0-.3-1.18,1.6,1.6,0,0,0-1.3-.49,1.82,1.82,0,0,0-1.19.32,2.08,2.08,0,0,0-.58,1.24l-1.12-.19a3.09,3.09,0,0,1,1-1.93,3.21,3.21,0,0,1,2.09-.6,3,3,0,0,1,1.66.4,1.72,1.72,0,0,1,.76,1,6.74,6.74,0,0,1,.16,1.71v1.86c0,1.3,0,2.12.07,2.45a3.87,3.87,0,0,0,.29,1h-1.19A3.86,3.86,0,0,1,273.89,144.05Zm-11.71,4.17-.12-1.31a2,2,0,0,0,.65.13,1.11,1.11,0,0,0,.6-.15,1,1,0,0,0,.39-.45c0-.08.18-.53.45-1.37l-2.56-8.22h1.23l1.41,4.75c.17.6.33,1.23.48,1.91a17.62,17.62,0,0,1,.47-1.87l1.43-4.79h1.15l-2.56,8.35a16,16,0,0,1-.79,2.17,2,2,0,0,1-.66.78,1.49,1.49,0,0,1-.83.24A2.05,2.05,0,0,1,262.18,148.22Zm-3.64-3.16v-8.21h1.13v8.21Zm0-9.73v-1.6h1.13v1.6Zm-8,9.73V133.73h1.13v4.06a2.86,2.86,0,0,1,.91-.84,2.25,2.25,0,0,1,1.12-.29,2.22,2.22,0,0,1,1.7.68,3.86,3.86,0,0,1,.62,2.52v5.2h-1.14v-5.2a2.46,2.46,0,0,0-.38-1.54,1.26,1.26,0,0,0-1-.46,1.59,1.59,0,0,0-1.26.6,3.23,3.23,0,0,0-.53,2.11v4.49Zm-8.8-1.34h2a3.44,3.44,0,0,0,1.82-.39,2.46,2.46,0,0,0,.95-1.26,7.75,7.75,0,0,0,.44-2.76,6.5,6.5,0,0,0-.47-2.71,2.55,2.55,0,0,0-1.2-1.31,4.08,4.08,0,0,0-1.57-.22h-2Zm-1.23,1.34V133.73h3.21a6,6,0,0,1,1.81.2,3.19,3.19,0,0,1,1.41,1,5.26,5.26,0,0,1,.92,1.8,9.11,9.11,0,0,1,.34,2.6,8.36,8.36,0,0,1-.57,3.27,4,4,0,0,1-1.44,1.9,4.35,4.35,0,0,1-2.32.56Z"/><path class="cls-4" d="M308.16,145.06v-8.21h1.14v8.21Zm0-9.73v-1.6h1.14v1.6Z"/><path class="cls-1" d="M328.49,99.8a2.18,2.18,0,1,1-2.18-2.18,2.18,2.18,0,0,1,2.18,2.18Z"/><path class="cls-6" d="M328.49,99.8a2.18,2.18,0,1,1-2.18-2.18A2.18,2.18,0,0,1,328.49,99.8Z"/><path class="cls-1" d="M335.29,125l-1.73,2.82-4.15,7.3-.36.42L325.1,140c-4,3-7.89,5.91-11.75,8.58l-95.67,1.25L99.62,43.58c5.11-3.18,10.24-6,15-8.32,3.18-1.6,6.21-3,8.94-4.21l8.75-3c20.78-5.91,42.33-12.41,64.27-13.24l17.19,6.26,32.65,14.52c9.2,4,19.77,8.52,28.77,8.76l20.36-4,8.22,6-.09,7.06,2.85,6.32L308.16,64l.59.77,4.13,5.43,14.54,15.38c3.3,9.56,2.85,19.62,5.34,29.24Z"/><path class="cls-2" d="M133.34,25.44c-2.69,1.34-3.09,3.86.23,3.95,2.13-.1,4.66-.16,6.25-1.62a8.35,8.35,0,0,1,5.05-2.08c.49-.21,1,.59,1.94.63,1.38.05,2.05-2.4,3.31-3,2.58-.86,4.1.41,6.3-.17,2.19-1.47,6-2.85,8.75-3.89a46.21,46.21,0,0,1,10.89-1.12c1.33.31,1.56,1.35,2.13,2.64A2,2,0,0,0,181.06,22c1.2-.86,3.5-1.62,4.08-2.42,1.38-1.58,1.12-3.15-.67-4-3.08-.56-4.93-.17-8.41-.05-5.88-.3-11.74.62-19,2.48-2.61.77-5.22,1.72-7.83,2.5-5.29,1.58-10.59,3-15.89,5Z"/><path class="cls-2" d="M197.88,21.38c-.33-1.87-.27-3.53,2.6-3.71a28.86,28.86,0,0,1,7.93,1.86c2.06.84,1.29,2.83.38,4.1a7.71,7.71,0,0,1-4.69.48c-2.21-.77-4.53-1.46-6.22-2.73"/><path class="cls-2" d="M211.49,21.54a2,2,0,0,1,3.16.65,16.7,16.7,0,0,1,0,5.51c-.7,1.22-1.83,1.69-2.54.35-.39-.62-.14-1.27-.87-1.62a15.76,15.76,0,0,0-3.41,2c-1.84,1.18-2.69-.43-1.9-1.38,1.45-1.06,2.61-1.32,3.76-2.31.62-1,.93-2.38,1.79-3.17Z"/><path class="cls-2" d="M216.79,28c0-1.82.42-3.48,2-3.31a26.85,26.85,0,0,1,9.39,3.4c1.77,2.29,1,3.18-.28,3.27a44.94,44.94,0,0,1-6.77-1.31c-2.83-.63-4.19-1.1-4.31-2.05Z"/><path class="cls-2" d="M230.06,32c.23-.79.48-1.13,1.85-1.41a2.82,2.82,0,0,1,2.12.83,1.9,1.9,0,0,1-.55,2A2.6,2.6,0,0,1,230.06,32Z"/><path class="cls-2" d="M235.07,33.92a1.42,1.42,0,0,1,1.3-2c1.73-.12,5.3.91,7.94,2.77,2.92,2.07,7.07,3.23,11.16,4.24a1.65,1.65,0,0,1-.4,3.11,28.85,28.85,0,0,1-9.92-3.32c-1.84-1.38-2.93-2.45-4.63-3a8.53,8.53,0,0,0-3.7-.84,2,2,0,0,1-1.75-1Z"/><path class="cls-2" d="M255.53,43.89c.48-1.79,1.48-3.24,3.87-3,2.88,1,5.26,3,7.66,4.55a9.84,9.84,0,0,0,5.37.11c1.95-.1,2.77,1.85,1.49,3.48a53.7,53.7,0,0,1-5.53,3.76c-1.57.9-3.69,1.5-4.24-1.26.35-1.87-1.28-2.61-2.12-3.13-5.13-1.25-6.73-2.16-6.5-4.49Z"/><path class="cls-2" d="M277.43,46.65c-1.64.38-1.38,2.26-.54,3.45,1.44,1,3.37.81,5.63.07,3.67-2,7.43-2.24,11.05-2.29,3.29-.16,4.15,2.71,5.94,5.08,2.13,4.85,4.72,9.49,6.85,14.36h0a.1.1,0,0,0,0,.05c1.2,3,4.13,6.48,6.86,9.2,2.59,1.63,4.32,4.13,6.05,7.11,1.75,3.72,4.64,7,5.27,11h.07a137.16,137.16,0,0,1,4.43,17.14c-.39,6.38-1.8,15.63-3.38,18.15-1.12,2.57-9.45,7.24-12.26,11.09-1.72,2.59,2,5.16,4,3.2a72.54,72.54,0,0,1,11.6-8.89c3.7-3.85,7.6-7.69,7.65-18.61-.15-7-4.55-16.24-6.3-24.4-.44-2.14-2-10-6.78-12.1-2.27-1.78-13-12.53-12.72-13a45.68,45.68,0,0,1-4.21-10.49,19.1,19.1,0,0,1-1-7.61c-.07-1-.24-2.81-1-3.55s-1.87-.15-2-.41c-.88-1.27-2.55-3-4.39-2.05-2.67.63-5.11,1.16-7.78,1.78-4.18.76-9.43.4-13.06,1.71Z"/><path class="cls-2" d="M128.7,27c2-.3,3.39,2.91,1.42,3.56-.81.71-3.2,1.52-5.37,2.24a26.41,26.41,0,0,0-3.16,1.83c-1,.51-2.19-1.1-2.26-4.14a1.76,1.76,0,0,1,1.86-1.09c4-1.64,5.57-2.26,7.51-2.4Z"/><path class="cls-2" d="M116.9,31.05c2,0,2.88,2.58,1.91,4.19a11.56,11.56,0,0,1-4.61.11c-3.91.73-3.11,7.08-3.41,9a1.4,1.4,0,0,1-2.74-.45c.86-5.34-1.22-5.44-1.16-7.68.29-1.68,1-2.57,2-2.85,2.15-.8,5.58-2.16,8-2.34Z"/><path class="cls-2" d="M105.29,44.08a4.44,4.44,0,0,1-2.37,2.46L95.7,40a32.25,32.25,0,0,1,5.14-2.19c1.81-1,3.06-.63,3.77.89A9.05,9.05,0,0,1,105.29,44.08Z"/><path class="cls-2" d="M197,99.49c.46-.27.53-.34,1-.6.93.33,1,1.25,1.27,1.71-.09.59-.05.86-.4,1.22a4.2,4.2,0,0,1-1.88-.67c-.46-.55-.13-1.25,0-1.66Z"/><path class="cls-2" d="M122.3,53.45a1.2,1.2,0,0,1,1,1.29,1.19,1.19,0,0,1-1.1,1.23,1.17,1.17,0,0,1-1-1.28,1.18,1.18,0,0,1,1.09-1.24Z"/><path class="cls-2" d="M127.92,63.52a1.28,1.28,0,1,1-1.09,1.24,1.18,1.18,0,0,1,1.09-1.24Z"/><path class="cls-2" d="M139.06,32.33A1.27,1.27,0,1,1,138,33.57a1.17,1.17,0,0,1,1.08-1.24Z"/><path class="cls-2" d="M148.56,78.15a1.28,1.28,0,0,1-.06,2.52,1.28,1.28,0,0,1,.06-2.52Z"/><path class="cls-2" d="M140.09,64.58a1.16,1.16,0,0,1,1,1.28,1.08,1.08,0,1,1-1-1.28Z"/><path class="cls-2" d="M160.31,67.93a1.16,1.16,0,0,1,1,1.28,1.08,1.08,0,1,1-2.12,0,1.16,1.16,0,0,1,1.08-1.23Z"/><path class="cls-2" d="M154.91,91.28a1.28,1.28,0,0,1,0,2.53,1.18,1.18,0,0,1-1-1.3,1.16,1.16,0,0,1,1.08-1.23Z"/><path class="cls-2" d="M194.61,18.32c.32-.6.57-.81,1-.78a3.52,3.52,0,0,1,1.63.87,1.15,1.15,0,0,1-.51,1.24c-.63,0-.85-.12-1.48-.15-.29-.45-.66-.74-.62-1.18"/><path class="cls-2" d="M288.63,123.73a1.35,1.35,0,0,1,1.42,1.25,1.48,1.48,0,0,1-1.48,1.36,1.31,1.31,0,1,1,.06-2.61Z"/><path class="cls-2" d="M275.89,127.55c.85,0,1.62.5,1.61,1.17a1.57,1.57,0,0,1-1.66,1.26,1.25,1.25,0,1,1,.05-2.43Z"/><path class="cls-2" d="M270.88,141.38c.65-.53,1.2-.71,1.83-.15s.39,1.54-.42,2-1.47.72-1.91.2a1.65,1.65,0,0,1,.5-2.09Z"/><path class="cls-2" d="M212.38,23.74c.13-.16.58,0,1,.4s.66.81.51,1-.59,0-1-.41-.65-.8-.51-1"/><path class="cls-2" d="M227.57,29.51a.45.45,0,1,1,0,.9.45.45,0,1,1,0-.9Z"/><path class="cls-3" d="M232,32.1a.33.33,0,0,1,.35.33.34.34,0,0,1-.37.32.35.35,0,0,1-.36-.34.34.34,0,0,1,.38-.31"/><path class="cls-2" d="M225.55,28.67c.46,0,.66.25.41.55s-.2.53-.44.52a.49.49,0,0,1-.42-.55c0-.3,0-.54.45-.52Z"/><path class="cls-2" d="M253.9,40c.11-.19.5-.16.86.06s.55.55.44.74-.5.15-.86-.06-.56-.55-.44-.74Z"/><path class="cls-2" d="M257.92,43c.06-.09.19.49,0,.85s-.52.59-.71.49-.33-.67,0-.85a3.3,3.3,0,0,0,.71-.49Z"/><path class="cls-2" d="M266.65,46.81c.66,0,1.25.43,1.25.66s-.44.12-1.09.1-1.33-.47-1.32-.7.5-.08,1.16-.06Z"/><path class="cls-2" d="M270.86,47.66c.68,0,1.09.1,1.24.84s-.32,1.18-1.27.58-1.25-.69-1.24-1.08.59-.35,1.27-.34Z"/><path class="cls-2" d="M299.16,47.71c1-.23,1.37.86,2.14,2.07s.23,2.14,0,2.17a3.63,3.63,0,0,1-1.41-2.37c-.23-1.25-1.68-1.65-.72-1.87Z"/><path class="cls-2" d="M302.5,53c.19-.06.21,0,.57.58s.32,1-.09.8-.44-.2-.56-.57-.1-.75.08-.81Z"/><path class="cls-2" d="M303.57,55.79a1.9,1.9,0,0,1,1.19.73c.23.34.56,1.2.31,1.36s-.77-.16-1.18-.74-.74-1.43-.32-1.35Z"/><path class="cls-2" d="M322.69,84.46c-.26-.41-.41-1,.87-.73,2.3,2.52,4.16,7.32,6,13.51,1,2.67,1.49,6.45,1.69,11.51,1.68,1.34.7,3.12-.06,3.85-.22,2.5.15,4.64-.07,7.15-.33.81-1,.91-1.07-.28a66.31,66.31,0,0,0,0-10.83A69.79,69.79,0,0,0,328.52,97c-1.95-4.86-3.39-10.24-5.83-12.55Z"/><path class="cls-2" d="M330.08,128.4a1.21,1.21,0,0,1,1.71-.28,2.15,2.15,0,0,0,.91,1.77c-.42.82-1.63-.46-1.57-.57-.53.57-.27,1.53,0,2.55-1.31.2-2.21.41-1.9-.35,1.65-2.19.8-.85.81-3.12Z"/><path class="cls-2" d="M326.41,131.23c1-.69,1.19.85.59,2.2s.11,1.68-.46,1.9-1.1-.74-1.08-1.93,0-1.46,1-2.17Z"/><path class="cls-2" d="M318.87,129.22c.82.17,1,.5,1,1.08a1.06,1.06,0,0,1-1.09,1c-.58,0-.87-.37-1-1.08s.27-1.22,1.09-1Z"/><path class="cls-2" d="M319.67,138.48c.3,0,.53.41.52.9s0,.7-.55.89-.81-.21-.51-.9.25-.9.54-.89Z"/><path class="cls-2" d="M317.82,140.36c.23-.07.51.17.64.54s.21.51-.18.82-.65.07-.62-.54-.05-.75.16-.82Z"/><path class="cls-2" d="M314.82,143.2c.43,0,.76.5.75,1.08a1.14,1.14,0,0,1-.79,1c-.24,0-.26-.37-.49-1s.11-1.17.53-1.16Z"/><path class="cls-2" d="M316.92,142c.45,0,.77,0,.76.41a.86.86,0,0,1-.84.81c-.45,0-.82-.12-.81-.53a.84.84,0,0,1,.89-.69Z"/><path class="cls-2" d="M185.49,17.09c2-.25,3.94-.11,3.6.74s-1.48.76-3.36.47-3.64-.25-3.64-.7,1.35-.25,3.4-.51"/><path class="cls-2" d="M118.16,33.39c.1.11.31.38.45.58s-.22.57-.48.56a.52.52,0,0,1-.45-.58c0-.31.38-.66.48-.56Z"/><path class="cls-2" d="M228.77,122.55c.71-.28,1.29,0,1.31.72a1,1,0,0,1-1,1.13,1.08,1.08,0,0,1-1.31-.71c-.09-.51.26-.85,1-1.14Z"/><path class="cls-2" d="M206.27,110.89c.74.34,1.38,0,1.42-.69a1.1,1.1,0,0,0-1-1.25,1.13,1.13,0,0,0-1.42.69c-.12.54.23.92,1,1.25Z"/><path class="cls-2" d="M215.91,33.78a1.47,1.47,0,0,1-1.38,2.47,1.47,1.47,0,0,1,1.38-2.47Z"/><path class="cls-2" d="M231.09,44.82c.37.45,0,1.39-.6,1.88a1.28,1.28,0,0,1-1.77.06,1.29,1.29,0,0,1,.43-1.73c.6-.48,1.57-.67,1.94-.21Z"/><polygon class="cls-2" points="301.58 44.5 301.82 45.16 302.58 45.19 301.97 45.6 302.17 46.27 301.55 45.87 300.92 46.25 301.15 45.58 300.56 45.15 301.32 45.15 301.58 44.5"/></g><path class="cls-4" d="M191.29,7.4l-.39.38-.27.19-.3.18-.49.24-.48.15-.54.12-.56,0h-.79a.53.53,0,0,1-.2,0,1.35,1.35,0,0,1-1-.83,2,2,0,0,1-.06-.5,1.89,1.89,0,0,1,.17-.65l.22-.27.27-.26L187,6l.15-.09.35-.17.32-.11.31,0h.3l.22,0a.77.77,0,0,1,.18.1l.29.28.28-.27.23-.16.14-.08.17-.06.32-.07.36,0a1.33,1.33,0,0,1,1.07.45l.12.17a1.2,1.2,0,0,1,.06.23v.19A1.87,1.87,0,0,1,191.29,7.4Zm-2.81-.75-.19-.11-.21,0h-.21l-.11,0-.2.08a.84.84,0,0,0-.5.77.39.39,0,0,0,.21.32l.34.15.53-.76Zm2.5-.26c0-.17-.14-.26-.4-.26l-.16,0a1.23,1.23,0,0,0-.42.21l-.53.42-.32.29-.25.29-.13.18-.22.34.69-.12h.09l.15,0,.24-.13.42-.29.34-.24C190.81,6.8,191,6.58,191,6.39Z"/><path class="cls-4" d="M190.74,0h.43a.34.34,0,0,1,.15,0,1.34,1.34,0,0,1,.78.19.57.57,0,0,1,.28.51,1.51,1.51,0,0,1-.5.88l-.32.34-.4.33a3.3,3.3,0,0,1-.39.29,2.56,2.56,0,0,1-.47.23l-.71.3-.35.17-.25,0s-.11,0-.19-.16L188.74,3l-.06-.13a.45.45,0,0,1,.08-.26.82.82,0,0,1,.3-.2l.3-.09.36-.11a1.57,1.57,0,0,0,.37-.16A1.79,1.79,0,0,0,191.26,1l-.07-.05-.08,0-.26,0h-.62l-.12,0L190,1l-.13.07-.13.06h-.18a.28.28,0,0,1-.19-.08l-.13-.19,0-.15a.34.34,0,0,1,.17-.31A4.08,4.08,0,0,1,190,.09,3.2,3.2,0,0,1,190.74,0Z"/><path class="cls-4" d="M180.51,9.4a.74.74,0,0,1-.49-.13.49.49,0,0,1-.16-.41V8.72A.24.24,0,0,1,180,8.5a.82.82,0,0,1,.31-.11,2.73,2.73,0,0,0,1-.23l.82-.46a1.7,1.7,0,0,0,.46-.24l.54-.38.23-.14.23-.2-.11-.09-.19-.23-.09-.19V6a.55.55,0,0,1,.07-.19l.13-.12a.73.73,0,0,1,.37-.15,1.24,1.24,0,0,1,.47.15l.16.09.19.12.55-.29.65-.37.35-.14a2.58,2.58,0,0,1,.68-.21.73.73,0,0,1,.32.1c.08,0,.12.14.13.3v.11a.29.29,0,0,1-.13.19l-.23.15-.13.06-.38.18-.34.14-.55.16-.29.07.45.22.33.17.17.16.05.06v.1a.26.26,0,0,1,0,.11l0,.12a.29.29,0,0,1-.15.16l-.18.08-.23,0a.24.24,0,0,1-.14,0l-.89-.45-.32.19-.31.23-.42.26-.61.38-1.1.64-.45.24-.42.21-.24.08Z"/><path class="cls-4" d="M185.26,0h.43a.34.34,0,0,1,.15,0,1.34,1.34,0,0,1,.78.19.57.57,0,0,1,.28.51,1.49,1.49,0,0,1-.51.88l-.31.34-.4.33a3.3,3.3,0,0,1-.39.29,2.56,2.56,0,0,1-.47.23l-.71.3-.35.17-.25,0s-.11,0-.2-.16L183.26,3l-.06-.13a.45.45,0,0,1,.08-.26.82.82,0,0,1,.3-.2l.3-.09.35-.11a1.23,1.23,0,0,0,.37-.16A1.78,1.78,0,0,0,185.78,1l-.07-.05-.08,0-.26,0h-.62l-.12,0-.16.09-.13.07-.13.06H184a.27.27,0,0,1-.18-.08l-.13-.19,0-.15a.34.34,0,0,1,.17-.31,4.08,4.08,0,0,1,.67-.28A3.2,3.2,0,0,1,185.26,0Z"/><path class="cls-4" d="M176.56,5.31l.26,0a.54.54,0,0,1,.37.22l.1.17a.38.38,0,0,0,.24.11.34.34,0,0,0,.18-.07l.18-.16L178,5.5l.13-.12.13,0a.59.59,0,0,1,.2,0h.1l.11.05.16.08.08,0,0,.08.1.22.07.2.06,0,.08,0a1,1,0,0,0,.4-.11l.18-.14.17-.18.08-.07.11-.08.23-.12.19,0h.17a.13.13,0,0,1,.12.07l.11.14,0,.11a.6.6,0,0,1-.15.42l-.2.24a.48.48,0,0,1-.24.17l-.26.14-.31.13-.31.1-.56.11a.91.91,0,0,1-.46-.13l-.17-.14-.19-.19h-.35a1,1,0,0,0-.27,0,.67.67,0,0,0-.19.1l-.37.35-.58.47-.58.44-.16.11-.21.14-.26.16-.82.46-.63.35-.26.11a2,2,0,0,1-.29.1l-.25.06h-.28l-.17,0-.2-.08a.49.49,0,0,1-.25-.5.4.4,0,0,1,.24-.37l.18,0h.13l.5,0a1.72,1.72,0,0,0,.55-.22l.57-.29.65-.35.59-.39.45-.36.11-.13a.2.2,0,0,0,0-.13l-.21-.4,0-.19v-.1a.19.19,0,0,1,0-.1l.11-.16A.82.82,0,0,1,176.56,5.31Z"/><path class="cls-4" d="M179.6,11.42a.31.31,0,0,1,.32.21l0,.17v.11a.14.14,0,0,1-.06.12l-.13.16-.1.05-.19.09-.21.11-.38.35-.34.25-.6.38-.53.32-.31.17a2.35,2.35,0,0,1-.35.18l-.59.22-.21.06a.41.41,0,0,1-.32-.14.51.51,0,0,1-.13-.33l0-.16a.24.24,0,0,1,.08-.11l.08-.06.28-.16.61-.26.51-.25.34-.16.32-.18.61-.39.35-.23.31-.25.34-.2A.52.52,0,0,1,179.6,11.42Z"/><path class="cls-4" d="M330.92,50.07c0,.38-.37.81-1.09,1.3l-1.33.89-.57.34a5.16,5.16,0,0,1-2,.89c-.46,0-.69-.18-.69-.55a.48.48,0,0,1,.24-.42.59.59,0,0,1,.35-.07h.07l.11,0,.11.06.07,0h.18l.14,0,.22-.07.61-.32.23-.13c.09,0,.23-.13.42-.26l.23-.16c-.49-.22-.74-.5-.74-.84a1.38,1.38,0,0,1,.53-1.1l.25-.17.26-.19a2.43,2.43,0,0,1,1.12-.29,1.59,1.59,0,0,1,1,.39A.8.8,0,0,1,330.92,50.07ZM330,50c-.06-.11-.25-.17-.55-.17a1.48,1.48,0,0,0-.84.39l-.11.13-.12.19-.05.15c0,.1.07.19.2.28a.41.41,0,0,0,.16.05l.13,0,.23-.06.39-.19c.39-.26.59-.47.59-.63A.17.17,0,0,0,330,50Z"/><path class="cls-4" d="M331.17,54.93a.33.33,0,0,1,.33.21l0,.17v.11a.17.17,0,0,1,0,.12l-.13.16-.1,0-.2.09-.21.1-.38.36-.34.25-.6.38-.53.32-.3.17a2.35,2.35,0,0,1-.36.18l-.58.22-.22.06a.47.47,0,0,1-.32-.14.56.56,0,0,1-.12-.33l0-.16a.35.35,0,0,1,.07-.12l.08-.06.28-.15.61-.27.51-.24.35-.16.32-.18.61-.39.34-.24.32-.24.34-.2A.4.4,0,0,1,331.17,54.93Z"/><path class="cls-4" d="M324,48.71h.09l.1,0,.23.19a.28.28,0,0,1,.13.25,2.66,2.66,0,0,1-.52.56l1.86-.05a.08.08,0,0,0,0,.05l0,.06a.33.33,0,0,1,.12.17c0,.16-.2.36-.61.62l-.93.54-.69.41-1.09.7-1.46.76-.86.37-.27.1-.29.08-.35.08a.83.83,0,0,1-.31,0l-.16-.09a.55.55,0,0,1-.16-.46c0-.14.1-.25.31-.32l.31,0a2.78,2.78,0,0,0,.58-.06,2.63,2.63,0,0,0,.59-.21l.14,0,.21-.1.55-.24,2.77-1.59-2.48,0a.35.35,0,0,1-.08-.15,1,1,0,0,1,0-.27l.06-.15.18,0,.19-.08a1.91,1.91,0,0,0,.32-.16l.57-.26.4-.21a.33.33,0,0,0,.17-.18.51.51,0,0,1,.11-.16l.1,0Z"/><path class="cls-4" d="M324.49,43.51h.43a.3.3,0,0,1,.14,0,1.38,1.38,0,0,1,.79.19.57.57,0,0,1,.28.51,1.49,1.49,0,0,1-.51.88l-.31.34-.4.33a2.44,2.44,0,0,1-.39.28,2.32,2.32,0,0,1-.47.24l-.71.3-.36.17-.24,0c-.05,0-.11,0-.2-.16l-.06-.11-.05-.13a.38.38,0,0,1,.08-.26.69.69,0,0,1,.29-.2l.31-.09.35-.12a1.5,1.5,0,0,0,.37-.15A1.84,1.84,0,0,0,325,44.49l-.07-.05-.08,0-.27,0H324l-.12,0-.17.09-.13.07-.12.06h-.19a.37.37,0,0,1-.19-.08l-.13-.19,0-.15a.34.34,0,0,1,.16-.31,3.73,3.73,0,0,1,.68-.28A3.2,3.2,0,0,1,324.49,43.51Z"/><path class="cls-4" d="M319.52,48.15l.16,0h.17a.37.37,0,0,1,.21.14.48.48,0,0,1,0,.13v.11a.67.67,0,0,1-.38.44l-.21.11.09.06.25.14a.66.66,0,0,1,.19.18.32.32,0,0,1,.06.2.62.62,0,0,1-.29.44l-.84.39.24.14.23.15a.79.79,0,0,1,.06.26v.09a.22.22,0,0,1-.06.12l-.22.22-.48.37-.52.37-.41.3-1.11.75-.4.25a2.81,2.81,0,0,1-.35.18l-.11,0-.18.08-.45.2a1.89,1.89,0,0,1-.56.16.46.46,0,0,1-.21,0,.54.54,0,0,1-.13-.06l-.09-.08a.34.34,0,0,1-.09-.15.9.9,0,0,1-.05-.22c0-.22.17-.37.49-.44l.22,0,.16,0,.2-.06a.64.64,0,0,0,.18-.06,1.15,1.15,0,0,0,.22-.07l.29-.13.28-.16,1-.66.51-.34.71-.51-.4-.26a.45.45,0,0,1-.17-.34.3.3,0,0,1,.05-.15,1.08,1.08,0,0,1,.19-.2l.33-.17.49-.24-.22-.14-.27-.16-.15-.09-.06-.07-.07-.13,0-.06,0-.07.05-.06a1.81,1.81,0,0,1,.19-.15l0,0,.08,0a1.22,1.22,0,0,0,.27-.09l.21-.09.21-.1.19-.14Z"/><path class="cls-4" d="M319.57,43.51H320a.3.3,0,0,1,.14,0,1.38,1.38,0,0,1,.79.19.57.57,0,0,1,.28.51,1.49,1.49,0,0,1-.51.88l-.31.34-.4.33a2.44,2.44,0,0,1-.39.28,2.32,2.32,0,0,1-.47.24l-.71.3-.36.17-.24,0c-.05,0-.11,0-.2-.16l-.06-.11-.05-.13a.38.38,0,0,1,.08-.26.69.69,0,0,1,.29-.2l.31-.09.35-.12a1.5,1.5,0,0,0,.37-.15,1.84,1.84,0,0,0,1.18-1.09l-.07-.05-.08,0-.27,0h-.61l-.12,0-.17.09-.13.07-.12.06h-.19a.37.37,0,0,1-.19-.08l-.13-.19,0-.15a.34.34,0,0,1,.16-.31,3.73,3.73,0,0,1,.68-.28A3.2,3.2,0,0,1,319.57,43.51Z"/><path class="cls-4" d="M315.06,48.73q.57,0,.57.33a.84.84,0,0,1-.22.54l-.19.2L315,50l-.26.1-.35.1-.48,0h-.3l-.44,0h-.27l-.08.12-.18.2-.36.37-.25.2-.28.2-.85.58-.49.31-.33.17-.24.13-.46.22-.24.08a1.34,1.34,0,0,1-.4.09l-.1,0-.14-.06-.11-.06-.13-.11a.43.43,0,0,1-.14-.2l0-.14,0-.17a.64.64,0,0,1,.16-.33s.07,0,.16-.07l.17,0,.1,0,.2,0,.21.05.19-.05.22-.07.61-.27.31-.17.3-.18a5.79,5.79,0,0,0,.83-.6l.15-.16.07-.16-.09-.12a.36.36,0,0,1-.11-.22.86.86,0,0,1,.27-.62.9.9,0,0,1,.63-.27.81.81,0,0,1,.39.17c.17.12.25.23.25.33l.47,0a1.47,1.47,0,0,0,.48-.11,3.65,3.65,0,0,0,.6-.36l.14-.09.12-.07A.57.57,0,0,1,315.06,48.73Z"/><path class="cls-4" d="M315.36,54.93a.33.33,0,0,1,.33.21l0,.17v.11a.17.17,0,0,1,0,.12l-.13.16-.1,0-.2.09-.21.1-.38.36-.34.25-.6.38-.53.32-.3.17-.36.18-.59.22-.21.06a.45.45,0,0,1-.32-.14.56.56,0,0,1-.12-.33l0-.16a.35.35,0,0,1,.07-.12l.08-.06.28-.15.61-.27.51-.24.35-.16.31-.18.61-.39.35-.24.31-.24.34-.2A.45.45,0,0,1,315.36,54.93Z"/><path class="cls-4" d="M360.11,129.42h.19l.16,0h.29a.73.73,0,0,1,.32.06l.34.08c.42.1.63.28.63.55a.72.72,0,0,1-.13.39l-.14.21a2.28,2.28,0,0,1-.22.21l-.31.29-.38.31-.32.23-.48.33a13.51,13.51,0,0,1-1.44.8l-.6.29-.29.1-.36.12-.26,0-.19,0-.11-.06-.16-.12-.1-.2,0-.08c0-.25.08-.39.25-.42l.27,0h.24l.26,0,.17,0,.19-.05a1.07,1.07,0,0,0,.23-.1l.31-.16.5-.24.23-.11.4-.21.42-.24.26-.17.15-.11.22-.18a2.37,2.37,0,0,0,.27-.28l.07-.09,0,0a.09.09,0,0,0,0-.07l-.13-.06-.11,0-.28,0-.21,0h-.13l-.46.08-.07,0-.13.06-.14.05-.1,0h-.34l-.2,0a.46.46,0,0,1-.28-.37.6.6,0,0,1,.06-.29.8.8,0,0,1,.29-.2l.23-.08.25-.08Z"/><path class="cls-4" d="M362.59,124.81a.5.5,0,0,1,.27-.1c.27,0,.4.18.4.53l0,.13a.23.23,0,0,1-.07.08,15.33,15.33,0,0,1-1.53,1,13.1,13.1,0,0,1-1.54.78l-.2.07-.16,0a.34.34,0,0,1-.31-.25l0-.14,0-.19c0-.13.08-.22.25-.27a8.92,8.92,0,0,0,1.21-.65l.4-.23.59-.36C362.15,125.13,362.38,125,362.59,124.81Z"/><path class="cls-4" d="M354.48,129.45l.14.05a.36.36,0,0,1,.31.38.49.49,0,0,1-.1.2l-.21.16-.27.1.51.12.2.07.24.06c.36,0,.54.21.54.47l-.07.13-.22.18-.14.11-.21.16-.75.42-.16.12a.12.12,0,0,0,0,.11l.85.18.67.13.24,0c.25,0,.38.11.38.34s-.08.42-.23.44h-.52l-.22,0-.35-.07-.41-.07-.18,0-.19-.05-1.16-.31-.09,0-.07,0-.09,0-.15-.09a.36.36,0,0,1-.09-.17.3.3,0,0,1,.09-.21l.15-.16.42-.29.47-.29.42-.27.29-.22-.44,0-1.27-.19a.12.12,0,0,1-.11-.07v-.21l.21-.16.36-.28.45-.3.39-.22A1.27,1.27,0,0,1,354.48,129.45Z"/><path class="cls-4" d="M357.11,135.53a.31.31,0,0,1,.32.21l0,.17V136a.14.14,0,0,1-.06.11l-.13.16-.1,0-.19.1-.21.1-.38.35-.34.25-.6.38-.53.32-.31.18-.35.17-.59.22-.21.06a.41.41,0,0,1-.32-.14A.51.51,0,0,1,353,138l0-.16a.24.24,0,0,1,.08-.11l.08-.06.28-.15.61-.27.51-.25.34-.16.32-.18.61-.39.35-.23.31-.25.34-.19A.44.44,0,0,1,357.11,135.53Z"/><path class="cls-4" d="M350.71,128.75l.16,0,.16,0a.36.36,0,0,1,.21.14.48.48,0,0,1,.05.13v.12a.65.65,0,0,1-.37.44l-.21.11.09.05.25.14a.83.83,0,0,1,.19.18.34.34,0,0,1,.06.2.69.69,0,0,1-.29.45l-.84.38.23.14.24.15a.88.88,0,0,1,.06.26v.09a.17.17,0,0,1-.05.12l-.22.22-.48.37-.52.38-.42.29-1.1.75c-.17.11-.3.2-.4.25l-.35.19-.12,0-.17.09-.46.19a1.51,1.51,0,0,1-.56.16.52.52,0,0,1-.21,0l-.12-.07-.1-.08a.38.38,0,0,1-.09-.15,1,1,0,0,1,0-.22c0-.21.16-.36.49-.44l.22,0,.16-.05.2,0,.18-.06a1.17,1.17,0,0,0,.21-.08l.29-.13.29-.16,1-.66.51-.34.71-.5-.4-.26a.47.47,0,0,1-.17-.35.3.3,0,0,1,.05-.14.82.82,0,0,1,.19-.21l.33-.17.49-.24-.22-.13-.27-.16-.15-.1-.06-.06-.08-.13,0-.06,0-.08.06-.06.18-.14.05,0,.08,0,.26-.1.22-.09a1,1,0,0,0,.21-.1l.18-.13Z"/><path class="cls-4" d="M350.76,124.11h.43l.14,0a1.38,1.38,0,0,1,.79.19.6.6,0,0,1,.28.51,1.49,1.49,0,0,1-.51.88l-.31.34-.4.33a2.47,2.47,0,0,1-.39.29,4.16,4.16,0,0,1-.47.24l-.71.29-.36.17-.25,0s-.1-.05-.19-.16l-.06-.11-.06-.13a.39.39,0,0,1,.09-.26.69.69,0,0,1,.29-.2l.3-.09.36-.11a1.38,1.38,0,0,0,.37-.16,1.76,1.76,0,0,0,1.17-1.08l-.06,0-.08,0-.27,0h-.62l-.11,0-.17.09-.13.07-.12.06h-.19a.3.3,0,0,1-.19-.08l-.13-.19,0-.15a.34.34,0,0,1,.17-.31,3.61,3.61,0,0,1,.67-.27A2.89,2.89,0,0,1,350.76,124.11Z"/><path class="cls-4" d="M346.25,129.34c.38,0,.57.11.57.32a.8.8,0,0,1-.22.54l-.19.2-.27.18-.26.1-.35.09-.48,0h-.3l-.44,0H344L344,131l-.18.2-.36.37-.25.2-.28.21-.85.58-.49.3-.33.17-.24.13-.46.22-.24.09a1.63,1.63,0,0,1-.4.08l-.1,0-.14-.07-.11-.06-.13-.11a.38.38,0,0,1-.14-.2l0-.14,0-.16a.64.64,0,0,1,.16-.34s.07,0,.16-.07l.17,0h.1l.2,0,.21,0,.19,0,.22-.08.61-.27.31-.17.3-.17a5.79,5.79,0,0,0,.83-.6l.15-.17.07-.16-.09-.12a.31.31,0,0,1-.11-.21.9.9,0,0,1,.27-.63.93.93,0,0,1,.63-.26.72.72,0,0,1,.39.17c.17.11.25.22.25.33l.47,0a1.29,1.29,0,0,0,.48-.12,3.06,3.06,0,0,0,.6-.36l.13-.08.13-.08A.69.69,0,0,1,346.25,129.34Z"/><path class="cls-4" d="M346.55,135.53a.33.33,0,0,1,.33.21l0,.17V136a.16.16,0,0,1,0,.11l-.13.16-.11,0-.19.1-.21.1-.38.35-.34.25-.6.38-.53.32-.3.18-.36.17-.59.22-.21.06a.41.41,0,0,1-.32-.14.58.58,0,0,1-.13-.33l0-.16a.23.23,0,0,1,.07-.11l.08-.06.28-.15.61-.27L344,137l.34-.16.32-.18.61-.39.35-.23.31-.25.34-.19A.46.46,0,0,1,346.55,135.53Z"/><path class="cls-4" d="M278.82,139.84a.33.33,0,0,1,.33.21l0,.17v.11a.17.17,0,0,1-.05.12l-.13.16-.1,0-.2.09-.21.11-.38.35-.34.25-.6.38-.53.32-.3.17-.36.18-.58.22-.22.06a.47.47,0,0,1-.32-.14.56.56,0,0,1-.12-.33l0-.16a.35.35,0,0,1,.07-.12l.08,0,.28-.16.61-.26.51-.25.35-.16L277,141l.6-.39.35-.24.31-.24.34-.2A.45.45,0,0,1,278.82,139.84Z"/><path class="cls-4" d="M277.87,133.62H278l.1,0,.23.19a.28.28,0,0,1,.13.25,2.66,2.66,0,0,1-.52.56l1.86-.05a.08.08,0,0,0,0,.05l0,.06a.33.33,0,0,1,.12.17c0,.16-.21.36-.61.62l-.94.54-.68.41-1.09.7-1.47.76-.85.37-.28.1-.28.08-.35.08a.83.83,0,0,1-.31,0l-.16-.09a.55.55,0,0,1-.17-.46c0-.14.11-.25.32-.32l.31,0a2.78,2.78,0,0,0,.58-.06,2.86,2.86,0,0,0,.58-.2l.14-.05.21-.11.56-.24,2.77-1.59h-2.48a.48.48,0,0,1-.08-.16.91.91,0,0,1,0-.27l.06-.15.18,0a.75.75,0,0,0,.2-.08,1.91,1.91,0,0,0,.32-.16l.56-.26.4-.21a.39.39,0,0,0,.18-.18.36.36,0,0,1,.1-.15l.11,0Z"/><path class="cls-4" d="M286.36,139.84a.33.33,0,0,1,.33.21l0,.17,0,.11a.13.13,0,0,1,0,.12l-.13.16-.1,0-.2.09-.21.11-.37.35-.34.25-.61.38-.52.32-.31.17a2.35,2.35,0,0,1-.35.18l-.59.22-.22.06a.49.49,0,0,1-.32-.14.56.56,0,0,1-.12-.33l0-.16a.63.63,0,0,1,.07-.12l.08,0,.29-.16.61-.26.5-.25.35-.16.32-.18.61-.39.35-.24.31-.24.34-.2A.4.4,0,0,1,286.36,139.84Z"/><path class="cls-4" d="M286.13,133.67l.34,0,.21,0c.11,0,.17.08.17.24l0,.19a.3.3,0,0,1-.1.24.8.8,0,0,1-.31.15l-.43,0-.13,0-.22.06-.39.11c-.14,0-.21.09-.22.16l.11.18,0,.07,0,.09.07.17a.8.8,0,0,1,0,.31v.13l0,.23a.69.69,0,0,1-.06.21l-.11.21-.06.09-.08.09-.1.1-.13.08-.4.19-.24.06h-1.93l-.24,0-.19-.09-.08,0-.16-.11a.72.72,0,0,1-.19-.47.38.38,0,0,1,.07-.21l.14-.16.14-.12a1.46,1.46,0,0,1,.39-.12.29.29,0,0,1,.22.12l.12.15.18.14.22,0,.45,0h.47a.67.67,0,0,0,.62-.24v-.11l0-.11a.46.46,0,0,0-.1-.23l-.13-.14-.13-.17-.18-.24-.05-.29a.4.4,0,0,1,.07-.24l.17-.12.25-.13.24-.16.35-.15.42-.15A3,3,0,0,1,286.13,133.67Z"/><path class="cls-4" d="M293.37,139.84a.32.32,0,0,1,.32.21l0,.17,0,.11a.13.13,0,0,1,0,.12l-.13.16-.1,0-.2.09-.21.11-.37.35-.34.25-.6.38-.53.32-.31.17a2.35,2.35,0,0,1-.35.18l-.59.22-.22.06a.49.49,0,0,1-.32-.14.56.56,0,0,1-.12-.33l0-.16a.63.63,0,0,1,.07-.12l.08,0,.29-.16.61-.26.5-.25.35-.16.32-.18.61-.39.35-.24.31-.24.34-.2A.41.41,0,0,1,293.37,139.84Z"/><path class="cls-4" d="M291.82,133.73H292l.16,0h.29a.81.81,0,0,1,.33.06l.34.08c.41.1.62.28.62.55a.73.73,0,0,1-.12.38l-.15.21a1.52,1.52,0,0,1-.22.22l-.31.29-.37.31-.32.23-.49.32a12.67,12.67,0,0,1-1.44.81l-.6.29-.29.1-.36.12-.26,0-.19,0-.11-.06-.16-.12-.1-.2,0-.08c0-.25.09-.39.25-.42l.27,0H289l.27,0,.16,0a.72.72,0,0,0,.19,0,1.46,1.46,0,0,0,.23-.1l.31-.16.5-.25a2,2,0,0,0,.23-.1l.4-.21.43-.24.25-.17.15-.12.22-.18a1.38,1.38,0,0,0,.27-.27l.08-.09,0,0a.09.09,0,0,0,0-.07l-.12-.06-.12,0-.28,0-.21,0h-.13l-.46.08h-.06l-.14.06-.14.06-.1,0h-.17l-.17,0-.2,0a.43.43,0,0,1-.28-.36.64.64,0,0,1,.06-.3,1,1,0,0,1,.29-.19l.24-.08.24-.08Z"/><path class="cls-4" d="M300.4,129.12a.46.46,0,0,1,.28-.1c.26,0,.4.18.4.53l0,.12a.22.22,0,0,1-.08.09,14.16,14.16,0,0,1-1.52,1,13.93,13.93,0,0,1-1.54.78l-.21.07-.16,0c-.13,0-.23-.08-.31-.24l0-.14,0-.19c0-.13.09-.22.25-.27a10.15,10.15,0,0,0,1.22-.65l.4-.23.58-.36C300,129.43,300.2,129.27,300.4,129.12Z"/><path class="cls-4" d="M297.54,133.88a.67.67,0,0,1,.54.26.27.27,0,0,1,.08.15l0,.14.53,0,.76-.14.29-.16.15-.07.2-.05a.55.55,0,0,1,.49.28l.11.26,0,.29-.13.37-.1.2-.18.41a2.65,2.65,0,0,1-.61.88.58.58,0,0,1-.67.06l-.13-.14,0-.13v-.14l0-.07.07-.07.18-.18.16-.2.19-.28.13-.28.1-.26h-.18l-.49.05-.79.1-.09.11-.28.3-.54.52-.47.38-.45.33-.47.3-.3.17-.7.45-.32.14-.14.05-.19,0-.23,0h-.07a.53.53,0,0,1-.27-.11.38.38,0,0,1-.12-.2l0-.22.07-.15a.28.28,0,0,1,.19-.16l.27,0h.12l.09-.05.23-.08a1.12,1.12,0,0,0,.26-.11l.51-.28.1,0,.11-.09.21-.14.31-.18.29-.19a3.79,3.79,0,0,0,.39-.29c.23-.2.35-.36.35-.49l0,0a.51.51,0,0,1-.35-.36v-.21a.74.74,0,0,1,.12-.33l.1-.14.13-.09.17-.06.16,0Z"/><path class="cls-4" d="M306.86,139.84a.33.33,0,0,1,.33.21l0,.17v.11a.17.17,0,0,1,0,.12l-.13.16-.1,0-.2.09-.21.11-.38.35-.34.25-.6.38-.53.32-.3.17-.36.18-.59.22-.21.06a.45.45,0,0,1-.32-.14.56.56,0,0,1-.12-.33l0-.16a.35.35,0,0,1,.07-.12l.08,0,.28-.16.61-.26.51-.25.35-.16L305,141l.61-.39.35-.24.31-.24.34-.2A.45.45,0,0,1,306.86,139.84Z"/><path class="cls-4" d="M307.48,133.44h.14l.12,0a.57.57,0,0,1,.23.27l0,.25a.3.3,0,0,1-.12.28l-.47.2.23.24a.7.7,0,0,1,.22.52v.23s0,.05,0,.08a.16.16,0,0,1,0,.08,1.16,1.16,0,0,1-.64.84l-.34.19-.24.08-.3,0H306l-.3,0-.58-.14-.1-.07-.38.32-.18.16-.23.18-.49.36-.21.13-.38.24-.34.21-.71.39-.15.06-.17.09-.28.15-.29,0a.68.68,0,0,1-.61-.35l0-.09,0-.19a.3.3,0,0,1,.1-.26l.13-.11.1,0h.62a1,1,0,0,0,.46-.11l.79-.42.28-.18.45-.3.3-.21.19-.2.16-.13.17-.19-.11-.21,0-.15,0-.14a.55.55,0,0,1,.33-.37l.24-.05h.17l.22.11a.38.38,0,0,1,.22.23l0,.19.06.06.21.13.21.09h.28l.18,0,.15-.05a1,1,0,0,0,.38-.25l.1-.15,0-.14a.46.46,0,0,0-.06-.25l-.12-.13-.17-.11-.15-.1-.3-.14-.29-.2-.05-.11,0-.15a.18.18,0,0,1,.09-.17l.27-.13h.49l.19-.08.16-.12.16-.09.17-.07Z"/><path class="cls-4" d="M331,156l.35,0,.2.05q.18,0,.18.24l0,.19a.3.3,0,0,1-.1.24.8.8,0,0,1-.31.15l-.43,0h-.13l-.23.06-.39.11c-.13,0-.2.09-.22.16l.12.18,0,.07.05.09.07.17a1.05,1.05,0,0,1,0,.31v.13l0,.23a.69.69,0,0,1-.06.21l-.11.22-.07.08-.07.09-.1.1-.13.08-.4.19-.24.06h-1.93a.76.76,0,0,1-.24,0l-.19-.09-.08-.05-.16-.11a.67.67,0,0,1-.19-.47.31.31,0,0,1,.07-.21l.14-.16.14-.12a1.15,1.15,0,0,1,.39-.11.35.35,0,0,1,.22.11l.11.15.19.14.22.05h.92a.68.68,0,0,0,.62-.24v-.11l0-.11a.64.64,0,0,0-.1-.23l-.13-.14-.14-.17-.18-.24,0-.29a.41.41,0,0,1,.08-.24l.17-.12.25-.13.23-.16.36-.15.42-.14A2.63,2.63,0,0,1,331,156Z"/><path class="cls-4" d="M330.7,150.74h.43a.3.3,0,0,1,.14,0,1.38,1.38,0,0,1,.79.19.59.59,0,0,1,.28.51,1.49,1.49,0,0,1-.51.88l-.31.34-.4.33a3.3,3.3,0,0,1-.39.29,2.92,2.92,0,0,1-.47.23l-.71.3-.36.17-.24,0c-.05,0-.11-.05-.2-.16l-.06-.11-.06-.13a.39.39,0,0,1,.09-.26.69.69,0,0,1,.29-.2l.3-.09.36-.11a1.38,1.38,0,0,0,.37-.16,1.76,1.76,0,0,0,1.17-1.08l-.06,0-.08-.05-.27,0h-.61l-.12,0-.17.09-.13.07-.12.06h-.19a.3.3,0,0,1-.19-.08l-.13-.19,0-.15a.34.34,0,0,1,.17-.31,4.2,4.2,0,0,1,.68-.28A3.2,3.2,0,0,1,330.7,150.74Z"/><path class="cls-4" d="M320.47,160.14a.77.77,0,0,1-.5-.13.52.52,0,0,1-.16-.41v-.14a.25.25,0,0,1,.14-.22.87.87,0,0,1,.32-.11,2.6,2.6,0,0,0,1-.23l.82-.46a1.47,1.47,0,0,0,.47-.24l.54-.38.22-.14.24-.2-.11-.09-.2-.23-.08-.19v-.19a.71.71,0,0,1,.06-.19l.14-.12a.66.66,0,0,1,.36-.15,1.34,1.34,0,0,1,.48.15l.15.09.19.12.55-.29.66-.37.34-.14a2.72,2.72,0,0,1,.69-.21.78.78,0,0,1,.32.1.35.35,0,0,1,.13.3v.11a.33.33,0,0,1-.13.19l-.23.15-.13.06-.38.18-.35.14-.55.16-.28.07.44.22.34.17.17.16,0,.06v.1a.26.26,0,0,1,0,.11l0,.12a.39.39,0,0,1-.15.16l-.19.08-.23,0a.26.26,0,0,1-.14,0l-.89-.45-.31.19-.31.23-.43.26-.61.38-1.1.64-.44.24-.43.21-.23.08Z"/><path class="cls-4" d="M326.64,151.44a.53.53,0,0,1,.28-.1c.26,0,.4.18.4.53l0,.12a.18.18,0,0,1-.07.09,15.23,15.23,0,0,1-1.52,1,13.93,13.93,0,0,1-1.54.78L324,154l-.16.05c-.13,0-.23-.09-.31-.25l0-.14,0-.19c0-.13.09-.22.25-.27a8.78,8.78,0,0,0,1.22-.65l.4-.23.58-.36C326.2,151.75,326.44,151.59,326.64,151.44Z"/><path class="cls-4" d="M320.44,156.24h.21l.14,0a.38.38,0,0,1,.13.08.66.66,0,0,1,.35.46l.06.25,0,.18c0,.07,0,.11,0,.14l-.05.2-.1.38-.13.36-.12.26-.15.3a1.51,1.51,0,0,1-.44.55l-.2,0-.1,0-.12,0-.12,0-.16-.12-.05-.19a.49.49,0,0,1,0-.15.3.3,0,0,1,.08-.12l.17-.24.18-.26.29-.55.1-.3s0,0,0-.07a.12.12,0,0,0,0-.09l-.08,0a.62.62,0,0,0-.33.11l-.26.24-.6.49-1.15.9-.42.3-.47.28-.36.21-.31.1-.23,0-.22,0-.13,0c-.1,0-.14-.16-.14-.32v-.16c0-.06,0-.1,0-.12l.06-.15s.09-.1.23-.17l.31,0h.25l.18,0,.37-.19.58-.38.28-.2.28-.23.36-.32.37-.31.36-.34.37-.32A1,1,0,0,1,320.44,156.24Z"/><path class="cls-4" d="M321.39,162.16a.33.33,0,0,1,.33.21l0,.17,0,.11a.17.17,0,0,1-.05.12l-.13.16-.1,0-.2.1-.21.1-.37.35-.35.25-.6.38-.53.32-.3.17a2,2,0,0,1-.36.18l-.58.22-.22.06a.43.43,0,0,1-.32-.14.56.56,0,0,1-.12-.33l0-.16a.23.23,0,0,1,.07-.11l.08-.06.28-.16.61-.26.51-.25.35-.16.32-.18.61-.39.34-.23.32-.25.34-.2A.48.48,0,0,1,321.39,162.16Z"/><path class="cls-4" d="M315.71,155.76h.13l.12,0a.57.57,0,0,1,.23.27l0,.25c0,.14,0,.23-.11.28l-.48.2.23.24a.71.71,0,0,1,.23.52v.23a.25.25,0,0,0,0,.08.2.2,0,0,1,0,.08,1.17,1.17,0,0,1-.63.84L315,159l-.24.08-.3,0h-.29l-.31,0-.58-.14-.1-.06-.38.31-.18.16-.22.18-.5.36-.21.13-.37.24-.35.21-.71.39-.15.07L310,161l-.29.16-.28,0a.67.67,0,0,1-.61-.35l0-.09-.05-.18a.35.35,0,0,1,.1-.27l.13-.1.1-.06h.62a1,1,0,0,0,.46-.12l.79-.42.28-.17.46-.31.29-.21.19-.2.16-.13.18-.18-.12-.22,0-.15,0-.14a.56.56,0,0,1,.32-.37l.25,0h.16l.22.1a.38.38,0,0,1,.22.23l0,.19.07.06.2.13.22.09h.27l.18,0,.16-.06A1,1,0,0,0,315,158l.1-.15.05-.14a.49.49,0,0,0-.06-.25l-.12-.13-.16-.1-.16-.11-.3-.14-.28-.2-.05-.11-.05-.15a.17.17,0,0,1,.1-.17l.27-.12h.22l.27,0,.18-.08.17-.11.16-.1.16-.07Z"/><path class="cls-4" d="M312.09,150.79h.19l.14,0,.42.07.44.13.3.13a.72.72,0,0,1,.41.58l0,.21-.11.18-.12.17-.31.25-1.05.71-1,.51-.41.18-.37.08a.43.43,0,0,1-.28-.12l-.08-.14,0-.17,0-.18a.41.41,0,0,1,.14-.16l.34-.17.65-.27.84-.43.34-.18.25-.18.05-.11c0-.16-.21-.24-.64-.24l-.43,0-.51.18c-.37,0-.55-.15-.55-.45a.36.36,0,0,1,.09-.26.84.84,0,0,1,.28-.18l.51-.16Zm3.64,0a2.51,2.51,0,0,1,.71.11.65.65,0,0,1,.21.06l.15.07.31.21a.71.71,0,0,1,.22.24.59.59,0,0,1,.07.31l0,.12-.07.14-.16.19-.16.18-.16.17-.21.18-.58.46-.57.39-.52.3-.22.06-.25,0h-.19a.31.31,0,0,1-.15-.09l-.08-.16a.37.37,0,0,0,0-.12.28.28,0,0,1,.1-.2l.18-.1.24-.11.35-.17.61-.33.47-.37.24-.22a.41.41,0,0,0,.1-.2.21.21,0,0,0-.15-.23l-.37,0-.23,0-.17,0-.18.07-.14,0-.12,0-.32,0-.13-.06-.06,0a.46.46,0,0,0-.07-.07.68.68,0,0,1-.06-.2v-.12a.57.57,0,0,1,.08-.13,1.53,1.53,0,0,1,.23-.17l.17-.07.15,0a1.92,1.92,0,0,1,.37-.11l.27,0Z"/><path class="cls-4" d="M297.17,180.89h.35l.2.05c.12,0,.17.08.17.24l0,.18a.3.3,0,0,1-.11.24.62.62,0,0,1-.31.16l-.42,0H297l-.23.06-.39.12c-.13,0-.2.08-.22.16l.12.17,0,.07.05.1.08.16a1.22,1.22,0,0,1,0,.32v.35a.5.5,0,0,1-.07.21l-.11.22-.06.09-.07.08-.1.1-.13.08-.4.19-.24.06h-1.94a.71.71,0,0,1-.43-.12l-.07,0-.16-.12a.67.67,0,0,1-.19-.47.37.37,0,0,1,.06-.21l.15-.16.14-.11a1,1,0,0,1,.39-.12.29.29,0,0,1,.21.12l.12.15.19.14.22,0h.45l.23,0h.24c.31,0,.52-.08.61-.25v-.11l0-.11a.54.54,0,0,0-.1-.23l-.13-.14-.13-.17-.18-.24-.05-.29a.4.4,0,0,1,.07-.24l.18-.11.24-.13.24-.16a2.68,2.68,0,0,1,.36-.16l.42-.14A3,3,0,0,1,297.17,180.89Z"/><path class="cls-4" d="M297.22,175l.14-.09.15,0c.26,0,.39.18.39.53a.28.28,0,0,1-.09.22c-.55.41-1.09.77-1.63,1.1-.25.15-.5.28-.74.4a7.28,7.28,0,0,1-.71.31l-.35.12a.32.32,0,0,1-.18-.06.7.7,0,0,1-.13-.18l0-.1v-.15a.15.15,0,0,1,0-.08.32.32,0,0,1,.08-.2.32.32,0,0,1,.06-.08l.11-.06a3.92,3.92,0,0,0,1.23-.56A10.63,10.63,0,0,0,297.22,175Zm.81,1.43a.56.56,0,0,1,.28-.1c.27,0,.4.18.4.53a.37.37,0,0,1,0,.12.22.22,0,0,1-.08.09,14.16,14.16,0,0,1-1.52,1,13.1,13.1,0,0,1-1.54.78l-.2.07-.16,0a.36.36,0,0,1-.32-.24l0-.15,0-.18c0-.13.08-.22.24-.28a8.65,8.65,0,0,0,1.23-.65l.4-.23.58-.36C297.6,176.77,297.83,176.61,298,176.46Z"/><path class="cls-4" d="M292.31,180.67h.14c.05,0,.09,0,.11,0a.5.5,0,0,1,.24.27l0,.24c0,.14,0,.24-.12.28l-.47.21.23.23a.7.7,0,0,1,.22.52v.23a.19.19,0,0,1,0,.08.13.13,0,0,1,0,.08,1.16,1.16,0,0,1-.64.84l-.35.19-.23.08-.3,0h-.3l-.3,0-.58-.14-.1-.06-.38.32-.18.16-.23.17-.49.36-.21.13-.38.24-.34.21-.71.39-.15.07-.17.08-.29.16-.28,0a.67.67,0,0,1-.61-.35l0-.08,0-.19a.33.33,0,0,1,.1-.27l.13-.1.1-.06h.62a1,1,0,0,0,.46-.12l.79-.42.28-.17.45-.31.3-.21.19-.2.16-.12.17-.19-.12-.22,0-.14,0-.15c0-.14.13-.26.33-.37l.24,0h.17l.22.1a.39.39,0,0,1,.21.23l0,.2.06.06.21.13.21.08.28,0,.18,0,.15-.06a1,1,0,0,0,.38-.25l.1-.15.05-.14a.49.49,0,0,0-.06-.25l-.12-.13-.17-.1-.15-.1-.3-.15-.29-.2-.05-.11,0-.14a.19.19,0,0,1,.09-.18l.27-.12h.23l.26,0,.18-.08.17-.11.16-.1.17-.07Z"/><path class="cls-4" d="M292.26,187.06a.34.34,0,0,1,.33.22l0,.16v.12a.13.13,0,0,1-.05.11l-.13.16-.1,0-.2.1-.21.1-.38.36-.34.24-.6.39-.53.31-.3.18a2.11,2.11,0,0,1-.36.17l-.58.23-.22.06a.47.47,0,0,1-.32-.14.59.59,0,0,1-.12-.34l0-.16a.23.23,0,0,1,.07-.11l.08-.06.28-.15.61-.27.51-.25.35-.16.32-.18.61-.39.34-.23.32-.25.34-.19A.41.41,0,0,1,292.26,187.06Z"/><path class="cls-4" d="M286.09,181.14h.21l.14,0a.45.45,0,0,1,.14.07.72.72,0,0,1,.35.46l.05.26,0,.18a.42.42,0,0,1,0,.13l-.05.21-.1.37-.13.36-.11.27-.16.29a1.41,1.41,0,0,1-.44.55l-.19,0-.11,0-.12,0-.11,0-.17-.12,0-.19a.53.53,0,0,1,0-.14.38.38,0,0,1,.08-.13l.17-.23.18-.26.29-.56.11-.29a.54.54,0,0,0,0-.08.14.14,0,0,0,0-.09l-.08,0a.51.51,0,0,0-.32.12l-.27.23-.6.5-1.15.9-.42.29-.47.29-.36.2-.31.11-.23,0-.22,0-.13-.05a.34.34,0,0,1-.14-.32v-.16a.22.22,0,0,1,0-.12l.07-.15s.09-.1.23-.17l.3,0h.26l.18-.05.37-.19.58-.39.27-.2.28-.23.37-.32.37-.31.35-.34.37-.31A1,1,0,0,1,286.09,181.14Z"/><path class="cls-4" d="M287.38,176.93c0,.69-.45,1.27-1.34,1.74a1.92,1.92,0,0,1-.92.28q-1.29,0-1.29-1.11a1.85,1.85,0,0,1,.74-1.44,2.46,2.46,0,0,1,1.58-.61,1.44,1.44,0,0,1,.49.08.94.94,0,0,1,.39.22A1.09,1.09,0,0,1,287.38,176.93Zm-.81.13c0-.3-.22-.45-.65-.45a1.17,1.17,0,0,0-.81.38,1.13,1.13,0,0,0-.39.82c0,.19.13.29.39.29h.2a1.46,1.46,0,0,0,.79-.35C286.41,177.51,286.57,177.29,286.57,177.06Z"/><path class="cls-4" d="M280.51,180.28l.16,0,.17,0a.43.43,0,0,1,.21.14,1.11,1.11,0,0,1,0,.13v.12a.69.69,0,0,1-.38.44l-.21.11.09.06.25.13a1.13,1.13,0,0,1,.19.18.34.34,0,0,1,.06.2.62.62,0,0,1-.29.45l-.84.38.24.14.23.15a.89.89,0,0,1,.06.27v.08a.22.22,0,0,1-.06.13l-.22.21-.48.37-.52.38-.41.3-1.11.74-.4.26a2.81,2.81,0,0,1-.35.18l-.11,0-.18.09-.45.19a1.62,1.62,0,0,1-.56.16.46.46,0,0,1-.21,0l-.13-.06-.09-.09a.31.31,0,0,1-.09-.14,1,1,0,0,1-.05-.22c0-.22.17-.37.49-.45l.22,0,.16-.05.2,0,.18-.06a1,1,0,0,0,.22-.08l.29-.13.28-.15,1-.66.51-.34.71-.51-.4-.26a.45.45,0,0,1-.17-.34.3.3,0,0,1,.05-.15,1.47,1.47,0,0,1,.19-.21l.33-.17.49-.23-.22-.14-.27-.16-.15-.1-.06-.06-.07-.13,0-.06,0-.08,0-.06.19-.14,0,0,.08,0a2.14,2.14,0,0,0,.27-.09l.21-.09.21-.1.19-.14Z"/><path class="cls-4" d="M280.56,175.64H281l.14,0a1.46,1.46,0,0,1,.79.19.59.59,0,0,1,.28.52,1.47,1.47,0,0,1-.51.87l-.31.34-.4.34a3.29,3.29,0,0,1-.39.28,4.16,4.16,0,0,1-.47.24l-.71.3-.36.16-.24,0c-.05,0-.11-.05-.2-.16l-.06-.1-.05-.13a.41.41,0,0,1,.08-.27.69.69,0,0,1,.29-.2l.31-.09.35-.11a2.09,2.09,0,0,0,.37-.15,1.84,1.84,0,0,0,1.18-1.09l-.07,0-.08,0-.27,0-.19,0-.21,0h-.21l-.12,0-.17.08-.13.07-.12.06h-.19a.37.37,0,0,1-.19-.08l-.13-.19,0-.15a.35.35,0,0,1,.16-.32,3.71,3.71,0,0,1,.68-.27A3.22,3.22,0,0,1,280.56,175.64Z"/><path class="cls-4" d="M276.06,180.87c.37,0,.56.11.56.33a.79.79,0,0,1-.22.53l-.19.2-.27.18-.26.1-.35.09-.48,0h-.29l-.45,0h-.26l-.09.13-.18.19-.36.37-.25.2-.28.21-.85.58-.49.3-.33.18-.24.13-.46.21-.24.09a1.63,1.63,0,0,1-.4.08l-.1,0-.14-.07-.11-.05-.13-.11a.46.46,0,0,1-.14-.21l0-.13,0-.17a.64.64,0,0,1,.16-.33.44.44,0,0,1,.16-.08l.17,0h.1l.2,0,.21,0,.19,0,.22-.07.61-.28.32-.17.29-.17a5.28,5.28,0,0,0,.83-.6l.15-.17.07-.16-.09-.11a.42.42,0,0,1-.11-.22.86.86,0,0,1,.27-.62.9.9,0,0,1,.63-.27.81.81,0,0,1,.39.17c.17.11.25.22.25.33l.47,0a1.29,1.29,0,0,0,.48-.12,3.54,3.54,0,0,0,.6-.35.51.51,0,0,1,.14-.09.4.4,0,0,1,.12-.07A.56.56,0,0,1,276.06,180.87Z"/><path class="cls-4" d="M276.35,187.06a.34.34,0,0,1,.33.22l0,.16v.12a.13.13,0,0,1-.05.11l-.13.16-.1,0-.2.1-.21.1-.38.36-.34.24-.6.39-.53.31-.3.18a2.54,2.54,0,0,1-.36.17l-.59.23-.21.06a.47.47,0,0,1-.32-.14.59.59,0,0,1-.12-.34l0-.16a.23.23,0,0,1,.07-.11l.08-.06.28-.15.61-.27.51-.25.35-.16.31-.18.61-.39.35-.23.31-.25.34-.19A.46.46,0,0,1,276.35,187.06Z"/><path class="cls-4" d="M41.85,180.66H42l.14,0,.42.07.44.12.3.14a.7.7,0,0,1,.41.57l0,.21-.11.19-.12.17-.31.25-1.06.7-1,.52-.4.18-.37.07a.45.45,0,0,1-.28-.11l-.08-.14,0-.18,0-.17s0-.09.14-.17l.34-.16.64-.28.85-.43.34-.18.25-.18.05-.11c0-.16-.21-.24-.64-.24l-.43,0-.52.17q-.54,0-.54-.45a.37.37,0,0,1,.08-.25.91.91,0,0,1,.29-.18l.51-.17Zm3.64,0a2.93,2.93,0,0,1,.71.11l.21.07.15.07.31.21a.68.68,0,0,1,.22.23.63.63,0,0,1,.07.32l0,.12L47,182l-.16.19-.15.18-.16.18-.21.17-.58.47-.58.39-.51.29-.23.06-.24,0H44a.27.27,0,0,1-.15-.09l-.08-.16a.37.37,0,0,0,0-.12.29.29,0,0,1,.1-.21l.18-.09.24-.12.35-.16.61-.34.47-.37L46,182a.4.4,0,0,0,.1-.21.21.21,0,0,0-.16-.23l-.36,0h-.23l-.17,0-.18.07-.14,0-.13,0-.32,0-.13-.07,0,0-.08-.06a.64.64,0,0,1,0-.2v-.13l.08-.13a1.14,1.14,0,0,1,.23-.16l.16-.08.16,0a1.86,1.86,0,0,1,.37-.1l.27,0Z"/><path class="cls-4" d="M45.88,185.63H46l.12,0a.49.49,0,0,1,.23.27l0,.24a.32.32,0,0,1-.11.29l-.48.2.23.23a.73.73,0,0,1,.23.52v.24a.19.19,0,0,0,0,.08.11.11,0,0,1,0,.07,1.25,1.25,0,0,1-.64.85l-.35.18-.24.08-.3,0h-.29l-.31,0-.58-.13-.1-.07L43,189l-.18.16-.22.17-.49.37-.21.13-.38.23-.35.22-.71.39-.14.06-.17.08-.29.16-.28,0a.66.66,0,0,1-.61-.34l0-.09-.05-.19a.37.37,0,0,1,.1-.27l.13-.1.11-.06h.61a1,1,0,0,0,.47-.12l.79-.42.27-.17.46-.3.29-.21.19-.21.16-.12.18-.19-.12-.22,0-.14,0-.15a.56.56,0,0,1,.32-.37l.25-.05h.17l.21.1a.41.41,0,0,1,.22.23l0,.2.07.06.2.13.22.09h.27l.18,0,.16-.06a1.05,1.05,0,0,0,.37-.24l.1-.16.06-.13a.53.53,0,0,0-.07-.26l-.12-.13L45,187l-.15-.1-.31-.15-.28-.2-.05-.11,0-.14a.21.21,0,0,1,.1-.18l.27-.12H45l.18-.08.17-.12.16-.09.16-.08Z"/><path class="cls-4" d="M53.57,181.9c0,.68-.45,1.26-1.34,1.74a2,2,0,0,1-.92.27q-1.29,0-1.29-1.11a1.81,1.81,0,0,1,.74-1.43,2.47,2.47,0,0,1,1.58-.62,1.44,1.44,0,0,1,.49.08.86.86,0,0,1,.39.23A1.06,1.06,0,0,1,53.57,181.9Zm-.82.13c0-.31-.21-.46-.64-.46a1.17,1.17,0,0,0-.81.38,1.13,1.13,0,0,0-.39.82c0,.2.13.29.39.29h.19a1.39,1.39,0,0,0,.8-.35A.92.92,0,0,0,52.75,182Z"/><path class="cls-4" d="M50.28,185.91l.26,0a.56.56,0,0,1,.37.21l.11.17a.39.39,0,0,0,.23.12.41.41,0,0,0,.19-.08l.17-.15.13-.11.13-.12.13-.06.2,0h.11l.1.05.16.08.08,0a.25.25,0,0,1,.05.08l.1.22.07.19.06,0,.09,0a1,1,0,0,0,.39-.12l.18-.13.17-.18.08-.07a.35.35,0,0,1,.11-.08l.23-.12.19,0h.17a.14.14,0,0,1,.12.08l.11.13,0,.12a.6.6,0,0,1-.15.42l-.2.24a.67.67,0,0,1-.23.17l-.27.14-.31.13-.31.09-.56.11a.9.9,0,0,1-.46-.12l-.17-.15-.19-.19h-.35a1,1,0,0,0-.27,0,.39.39,0,0,0-.19.1l-.37.35-.58.47-.58.43-.16.12-.21.14-.26.15-.82.47-.63.35-.26.11-.29.1-.25,0-.28,0-.17,0-.2-.08a.5.5,0,0,1-.25-.5.39.39,0,0,1,.24-.37l.18,0h.63a1.5,1.5,0,0,0,.55-.22l.57-.29.65-.34.59-.4.45-.35.11-.13a.29.29,0,0,0,0-.13l-.21-.4,0-.2v-.1a.13.13,0,0,1,0-.1l.1-.15A.81.81,0,0,1,50.28,185.91Z"/><path class="cls-4" d="M61.2,181.31a.43.43,0,0,1,.27-.1c.27,0,.4.17.4.53l0,.12a.18.18,0,0,1-.07.09,17.25,17.25,0,0,1-1.53,1,13.1,13.1,0,0,1-1.54.78l-.2.06-.16,0c-.13,0-.23-.08-.31-.24l0-.14,0-.19c0-.13.08-.22.25-.28a8.37,8.37,0,0,0,1.21-.64l.4-.23c.2-.12.4-.24.59-.37S61,181.46,61.2,181.31Z"/><path class="cls-4" d="M59.75,185.81h.09l.1,0,.23.19a.27.27,0,0,1,.13.25,3.49,3.49,0,0,1-.52.56l1.85-.05,0,.05.05.06a.31.31,0,0,1,.11.17c0,.16-.2.36-.6.62l-.94.54-.68.41-1.1.7L57,190.1l-.85.37-.28.1-.28.07-.36.09a.8.8,0,0,1-.3,0l-.16-.09a.56.56,0,0,1-.17-.46c0-.14.11-.25.31-.32l.32,0a2.69,2.69,0,0,0,.57-.06,2.47,2.47,0,0,0,.59-.21l.14,0,.21-.1.56-.25,2.77-1.58-2.48,0a.35.35,0,0,1-.09-.15,1,1,0,0,1,0-.28l.06-.14.18,0,.2-.08.32-.16.56-.26.4-.21a.39.39,0,0,0,.18-.18.55.55,0,0,1,.1-.16l.1,0Z"/><path class="cls-4" d="M68.24,192a.33.33,0,0,1,.33.21l0,.16v.12a.17.17,0,0,1,0,.12l-.13.16-.1,0-.2.09-.21.1-.38.36-.34.24-.6.39-.53.32-.3.17a1.54,1.54,0,0,1-.36.17l-.58.23-.22.06a.47.47,0,0,1-.32-.14.56.56,0,0,1-.12-.33l0-.16a.22.22,0,0,1,.07-.12l.08-.06.28-.15.61-.27.51-.24.35-.16.32-.19.61-.39.34-.23.31-.24.35-.2A.4.4,0,0,1,68.24,192Z"/><path class="cls-4" d="M63,190a.75.75,0,0,1-.49-.14.5.5,0,0,1-.16-.4v-.15a.26.26,0,0,1,.14-.22.86.86,0,0,1,.32-.1,2.82,2.82,0,0,0,1-.23l.82-.46a1.42,1.42,0,0,0,.46-.25l.55-.37.22-.14.23-.2-.1-.1-.2-.22-.09-.19v-.19a.74.74,0,0,1,.06-.2l.14-.11a.54.54,0,0,1,.36-.15,1.34,1.34,0,0,1,.48.15l.15.09.19.11.55-.29.65-.36.35-.15a2.51,2.51,0,0,1,.69-.21.81.81,0,0,1,.32.11c.07,0,.11.14.13.29v.12a.5.5,0,0,1-.13.19l-.23.15-.13.06-.38.17-.35.15-.55.16-.28.07.44.22.33.17.18.16,0,.06v.09a.27.27,0,0,1,0,.12l0,.11a.31.31,0,0,1-.16.16l-.18.08-.23,0-.14,0-.89-.46-.31.2-.31.23-.43.25-.61.39-1.1.64-.44.23-.43.21-.23.08Z"/><path class="cls-4" d="M76.16,192a.32.32,0,0,1,.32.21l0,.16,0,.12a.13.13,0,0,1,0,.12l-.13.16-.1,0-.2.09-.21.1-.37.36-.34.24-.6.39-.53.32-.31.17a1.51,1.51,0,0,1-.35.17l-.59.23-.22.06a.49.49,0,0,1-.32-.14.56.56,0,0,1-.12-.33l0-.16a.23.23,0,0,1,.08-.12l.07-.06.29-.15.61-.27.5-.24.35-.16.32-.19.61-.39.35-.23.31-.24.34-.2A.41.41,0,0,1,76.16,192Z"/><path class="cls-4" d="M75.5,186l.15-.1.15,0,.23,0a.23.23,0,0,1,.15.14l0,.17a.37.37,0,0,1,0,.21l-.21.18-.26.29-.18.13-.14.11-1.06.66-1.1.63-.54.27-.52.22-.54.21a1.78,1.78,0,0,1-.53.09.87.87,0,0,1-.47-.15l-.16-.13a.19.19,0,0,1,0-.09.43.43,0,0,1,0-.11v-.13a.22.22,0,0,1,0-.1.41.41,0,0,1,.23-.25l.21-.08.19,0,.33,0h.12a2,2,0,0,0,.83-.21l.58-.28,1.32-.76.93-.61Z"/><path class="cls-4" d="M37.1,145.81h.19l.15,0,.42.07.43.13.3.13a.7.7,0,0,1,.41.58l0,.21-.11.18-.12.17-.3.25-1.06.71-1,.51L36,149l-.37.08a.43.43,0,0,1-.28-.12l-.08-.14,0-.17,0-.18s0-.09.13-.16l.34-.17.65-.27.84-.43.34-.18.25-.18.05-.11q0-.24-.63-.24l-.44,0-.51.18c-.36,0-.55-.15-.55-.45a.36.36,0,0,1,.09-.26.84.84,0,0,1,.28-.18l.51-.16Zm3.65,0a2.45,2.45,0,0,1,.7.11.65.65,0,0,1,.21.06l.15.07.31.21a.71.71,0,0,1,.22.24.59.59,0,0,1,.07.31l0,.12-.07.14-.16.19-.16.18-.15.17-.21.18-.58.46-.58.39-.52.3-.22.06-.25,0h-.19a.31.31,0,0,1-.15-.09l-.08-.16a.37.37,0,0,0,0-.12.28.28,0,0,1,.1-.2l.18-.1.24-.11.36-.17.61-.33.46-.37.25-.22a.71.71,0,0,0,.1-.2.22.22,0,0,0-.16-.23l-.36,0-.24,0-.16,0-.18.07-.15.05-.12,0-.32,0-.13-.06-.06,0-.07-.07a.68.68,0,0,1-.06-.2v-.12a.57.57,0,0,1,.08-.13,1.24,1.24,0,0,1,.24-.17l.16-.07L40,146a2.93,2.93,0,0,1,.37-.1l.28,0Z"/><path class="cls-4" d="M41.13,150.78h.14l.11,0a.59.59,0,0,1,.24.27l0,.25a.3.3,0,0,1-.12.28l-.48.2.24.24a.7.7,0,0,1,.22.52v.23s0,.06,0,.08a.16.16,0,0,1,0,.08,1.16,1.16,0,0,1-.64.84l-.35.19-.23.08-.3,0h-.3l-.3,0-.58-.14-.1-.07-.38.32-.18.16-.23.18-.49.36-.21.13-.38.24-.34.21-.72.39-.14.07-.17.08-.29.16-.28,0a.67.67,0,0,1-.61-.35l0-.09,0-.18a.31.31,0,0,1,.1-.27l.13-.1.1-.06h.62a1,1,0,0,0,.46-.12l.79-.42.27-.18.46-.3.3-.21.19-.2.16-.13.17-.18-.12-.22,0-.15,0-.14c0-.14.13-.26.33-.37l.24-.05h.17l.22.1a.34.34,0,0,1,.21.23l0,.19.06.06.2.13.22.09h.28l.18,0,.15-.06a1,1,0,0,0,.38-.25l.1-.15,0-.14a.41.41,0,0,0-.07-.25l-.11-.13-.17-.1-.15-.11L39.8,152l-.28-.2-.05-.11,0-.15a.18.18,0,0,1,.09-.17l.27-.12H40l.26,0,.18-.08.17-.11.16-.1.17-.07Z"/><path class="cls-4" d="M44.6,145.81h.18l.15,0,.42.07.43.13.31.13a.69.69,0,0,1,.4.58l0,.21-.11.18-.13.17-.3.25-1.06.71-1,.51-.4.18-.37.08a.46.46,0,0,1-.29-.12l-.08-.14,0-.17,0-.18s0-.09.14-.16l.34-.17.64-.27.84-.43.34-.18.26-.18.05-.11c0-.16-.21-.24-.64-.24l-.43,0-.52.18q-.54,0-.54-.45a.4.4,0,0,1,.08-.26.91.91,0,0,1,.29-.18l.5-.16Zm3.64,0a2.45,2.45,0,0,1,.7.11.53.53,0,0,1,.21.06l.16.07.31.21a.68.68,0,0,1,.21.24.59.59,0,0,1,.08.31l0,.12-.07.14-.16.19-.16.18-.15.17-.21.18-.58.46-.58.39-.51.3-.23.06-.24,0h-.19a.29.29,0,0,1-.16-.09l-.08-.16a.22.22,0,0,0,0-.12.32.32,0,0,1,.1-.2l.19-.1.23-.11.36-.17.61-.33.46-.37.25-.22a.52.52,0,0,0,.1-.2.21.21,0,0,0-.16-.23l-.36,0-.23,0-.17,0-.18.07-.15.05-.12,0-.32,0-.13-.06,0,0-.08-.07a.68.68,0,0,1-.06-.2l0-.12a.35.35,0,0,1,.08-.13,1.14,1.14,0,0,1,.23-.17l.16-.07.16-.05a2.54,2.54,0,0,1,.37-.1l.27,0Z"/><path class="cls-4" d="M46,151.1l.14,0a.38.38,0,0,1,.31.39.57.57,0,0,1-.11.2l-.21.15-.27.11.52.12.19.06.24.07c.36,0,.55.21.55.47l-.07.13L47,153l-.14.12-.22.16-.75.42-.16.12a.16.16,0,0,0,0,.11l.86.18.66.13.24,0c.26,0,.39.11.39.34s-.08.42-.24.44h-.51L47,155l-.35-.07-.42-.07-.18,0-.19-.05-1.16-.31-.09,0-.06,0-.09,0-.15-.09s-.07-.08-.1-.17a.26.26,0,0,1,.1-.21l.15-.16.42-.29.46-.29.43-.27.28-.22-.43,0-1.28-.19a.15.15,0,0,1-.11-.07v-.21l.21-.16.36-.28.44-.3.39-.22A1.3,1.3,0,0,1,46,151.1Z"/><path class="cls-4" d="M51.2,151.06l.26,0a.54.54,0,0,1,.37.22l.11.17a.34.34,0,0,0,.23.11.37.37,0,0,0,.19-.07l.17-.16.13-.11.13-.12.13,0a.6.6,0,0,1,.2,0h.11l.1.05.16.08.08.05s0,.06,0,.08l.1.22.07.2.06,0,.09,0a.93.93,0,0,0,.39-.11l.18-.14.17-.18.08-.07.11-.08.23-.12.19,0h.18a.14.14,0,0,1,.11.08l.11.13,0,.12a.6.6,0,0,1-.15.42l-.2.24a.49.49,0,0,1-.23.17l-.26.14-.32.13-.31.1-.56.11a.94.94,0,0,1-.46-.13l-.17-.14-.19-.19h-.35a1,1,0,0,0-.27,0,.67.67,0,0,0-.19.1l-.37.35-.58.47-.58.44-.16.11a1.91,1.91,0,0,1-.21.14l-.26.16-.82.46-.63.35-.26.11a2,2,0,0,1-.29.1l-.25.06h-.27l-.18,0L47,155a.49.49,0,0,1-.25-.5.4.4,0,0,1,.24-.37l.18,0h.13l.5,0a1.72,1.72,0,0,0,.55-.22l.57-.29.65-.35.6-.39.44-.36.11-.13a.29.29,0,0,0,.05-.13l-.21-.4,0-.19v-.1c0-.05,0-.09,0-.1l.11-.16A.84.84,0,0,1,51.2,151.06Z"/><path class="cls-4" d="M62.12,146.46a.5.5,0,0,1,.27-.1c.27,0,.4.18.4.53l0,.12a.18.18,0,0,1-.07.09,15.33,15.33,0,0,1-1.53,1,13.1,13.1,0,0,1-1.54.78l-.2.07-.16,0c-.13,0-.23-.09-.31-.25l0-.14,0-.19c0-.13.08-.22.25-.27a9.58,9.58,0,0,0,1.21-.65l.4-.23.59-.36C61.68,146.77,61.92,146.61,62.12,146.46Z"/><path class="cls-4" d="M61.55,151.06l.19-.05h.07l.12,0,.09.06.11.12,0,.19,0,.12a.3.3,0,0,1-.09.19l-.15.13-.43.33-.56.41-.55.36-.92.55-.38.18a4,4,0,0,1-.57.26l-.2.07-.26.08-.29,0a.31.31,0,0,1-.18-.08.41.41,0,0,1-.19-.22v-.18a.59.59,0,0,1,.12-.29l.21-.24.15-.16.09-.14.07-.23v-.83a.85.85,0,0,1,0-.29.19.19,0,0,1,.08-.07l.15-.09.24-.05.21,0a.37.37,0,0,1,.2.11.42.42,0,0,1,.17.39v.13l0,.13-.13.29-.12.43-.1.29.18-.08.21-.13.3-.17.4-.24.72-.48.16-.12.25-.23.42-.32Z"/><path class="cls-4" d="M118.49,147h.19l.14,0,.42.07.44.12.3.14a.7.7,0,0,1,.41.57l0,.21-.11.19-.12.17-.31.25-1.06.7-1,.52-.41.18-.37.07a.45.45,0,0,1-.28-.11l-.08-.14,0-.18,0-.17s0-.09.14-.17l.34-.16.65-.28.84-.43.34-.18.25-.18,0-.11c0-.16-.21-.24-.64-.24l-.43,0-.52.17q-.54,0-.54-.45a.37.37,0,0,1,.08-.25.91.91,0,0,1,.29-.18L118,147Zm3.64,0a2.93,2.93,0,0,1,.71.11l.21.07.15.07.31.21a.68.68,0,0,1,.22.23.63.63,0,0,1,.07.32l0,.12-.08.13-.16.19-.15.18-.16.18L123,149l-.58.47-.58.39-.51.29-.23.06-.24,0h-.19a.27.27,0,0,1-.15-.09l-.08-.16a.37.37,0,0,0,0-.12.29.29,0,0,1,.1-.21l.18-.09.24-.12.35-.16.61-.34.47-.37.24-.21a.4.4,0,0,0,.1-.21.22.22,0,0,0-.16-.23l-.36,0H122l-.17.05-.18.07-.14,0-.13,0-.32,0-.13-.07,0,0-.08-.06a.64.64,0,0,1-.05-.2v-.13l.08-.13a1.14,1.14,0,0,1,.23-.16l.16-.08.16,0a1.86,1.86,0,0,1,.37-.1l.27,0Z"/><path class="cls-4" d="M122.52,151.94h.14l.11,0a.49.49,0,0,1,.23.27l0,.24a.32.32,0,0,1-.11.29l-.48.2.23.23a.73.73,0,0,1,.23.52V154a.22.22,0,0,0,0,.08.16.16,0,0,1,0,.08,1.25,1.25,0,0,1-.64.84l-.35.18-.24.08-.3,0H121l-.31,0-.58-.13L120,155l-.38.32-.18.16-.22.17-.49.37-.21.13-.38.24-.35.21-.71.39-.14.06-.17.08-.29.16-.28,0a.66.66,0,0,1-.61-.34l0-.09,0-.19a.37.37,0,0,1,.1-.27l.14-.1.1-.06h.61a1.15,1.15,0,0,0,.47-.11l.79-.42.27-.18.46-.3.3-.21.18-.21.16-.12.18-.19-.12-.22,0-.14,0-.15a.52.52,0,0,1,.32-.36l.25-.06h.17l.21.1a.39.39,0,0,1,.22.24l0,.19.07.06.2.13.22.09h.27l.18,0,.16-.06a1.05,1.05,0,0,0,.37-.24l.1-.15.06-.14a.53.53,0,0,0-.07-.26l-.12-.13-.16-.1-.15-.1-.31-.14-.28-.21,0-.11,0-.14a.21.21,0,0,1,.1-.18l.27-.12h.49l.18-.08.17-.12.16-.09.16-.08Z"/><path class="cls-4" d="M130.21,148.21c0,.68-.45,1.26-1.34,1.74a2,2,0,0,1-.92.27q-1.29,0-1.29-1.11a1.81,1.81,0,0,1,.74-1.43,2.47,2.47,0,0,1,1.58-.62,1.44,1.44,0,0,1,.49.08.86.86,0,0,1,.39.23A1.06,1.06,0,0,1,130.21,148.21Zm-.82.13c0-.31-.21-.46-.64-.46a1.21,1.21,0,0,0-.81.38,1.13,1.13,0,0,0-.39.82c0,.2.13.29.39.29h.19a1.39,1.39,0,0,0,.8-.35A.92.92,0,0,0,129.39,148.34Z"/><path class="cls-4" d="M126.92,152.22l.26,0a.56.56,0,0,1,.37.21l.11.17a.39.39,0,0,0,.23.12.5.5,0,0,0,.19-.07l.17-.16.13-.11.13-.12.13-.06.2,0H129l.1.05.16.08.08,0,.05.08.1.22.07.19.06,0,.09,0a1,1,0,0,0,.39-.12l.18-.13.17-.18.08-.07.11-.08.23-.12.19,0h.18a.14.14,0,0,1,.11.08l.11.13,0,.12a.6.6,0,0,1-.15.42l-.2.24a.67.67,0,0,1-.23.17l-.27.14-.31.13-.31.09-.56.11a.9.9,0,0,1-.46-.12l-.17-.15-.19-.18h-.35a1,1,0,0,0-.27,0,.49.49,0,0,0-.19.1l-.37.35-.58.47-.58.43-.16.12-.21.14-.26.16-.82.46-.63.35-.26.11-.29.1-.25.06h-.28l-.17,0-.2-.08a.5.5,0,0,1-.25-.5.39.39,0,0,1,.24-.37l.18,0h.63a1.5,1.5,0,0,0,.55-.22l.57-.29.65-.34.59-.4.45-.35.11-.13a.29.29,0,0,0,0-.13l-.21-.4,0-.2v-.1a.13.13,0,0,1,0-.1l.1-.15A.81.81,0,0,1,126.92,152.22Z"/><path class="cls-4" d="M137.84,147.62a.43.43,0,0,1,.27-.1c.27,0,.4.17.4.53l0,.12a.18.18,0,0,1-.07.09,15.33,15.33,0,0,1-1.53,1,13.1,13.1,0,0,1-1.54.78l-.2.07-.16,0c-.13,0-.23-.08-.31-.24l0-.14,0-.19c0-.13.08-.22.25-.28a7.85,7.85,0,0,0,1.21-.64l.4-.23c.2-.12.4-.24.59-.37S137.64,147.77,137.84,147.62Z"/><path class="cls-4" d="M137.65,153.48c0,.37-.36.81-1.09,1.3l-1.33.89-.57.34a5.14,5.14,0,0,1-2,.89c-.47,0-.7-.19-.7-.55a.49.49,0,0,1,.25-.43.68.68,0,0,1,.35-.06h.07l.1,0,.11.06.07,0h.18l.14,0,.22-.07.61-.32.24-.13.41-.26L135,155q-.75-.34-.75-.84a1.42,1.42,0,0,1,.54-1.11l.24-.16.26-.19a2.49,2.49,0,0,1,1.12-.29,1.55,1.55,0,0,1,1,.39A.8.8,0,0,1,137.65,153.48Zm-.91-.1c-.07-.12-.26-.17-.55-.17a1.42,1.42,0,0,0-.84.39l-.12.13-.12.19-.05.15q0,.15.21.27s.07,0,.15.06l.14,0,.22-.06.39-.19q.6-.41.6-.63A.15.15,0,0,0,136.74,153.38Z"/><path class="cls-4" d="M242.76,218.5v.27l0,.09-.05.17a.2.2,0,0,1-.06.14l-.2.29-.1.13a1.26,1.26,0,0,1-1,.37h-.21l-.15,0-.12,0-.13-.07-.24-.16-.25-.2-.23-.29,0-.07a.56.56,0,0,0-.24.13l-.24.21-.31.32.31.12.2.11a.64.64,0,0,1,.39.52.65.65,0,0,1-.12.39,1.59,1.59,0,0,1-.39.41,2.52,2.52,0,0,1-.41.22l-.26.12-.51.19-.21.06-.5.11h-.21l-.16,0-.16,0-.2-.09a.38.38,0,0,1-.11-.11l-.05-.31a.74.74,0,0,1,.05-.33l.12-.09.18,0h.33l.47.13.35,0a.78.78,0,0,0,.6-.21l.13-.16.05-.17c0-.14-.13-.25-.38-.34l-.32-.11c-.18-.05-.27-.2-.27-.44a1,1,0,0,1,.21-.36l.69-.66.28-.23.39-.26.52-.29a3.16,3.16,0,0,1,1.61-.45l.26,0a.87.87,0,0,1,.47.37l.15.22a.82.82,0,0,1,.08.25Zm-.85.2a.37.37,0,0,0-.36-.4h-.17a.8.8,0,0,0-.27,0,.94.94,0,0,0-.29.16l-.13.1-.1.1.25.25a.7.7,0,0,0,.23.13l.11,0,.2,0a.57.57,0,0,0,.32-.08l.12,0,.06-.1Z"/><path class="cls-4" d="M242.7,223.36a.33.33,0,0,1,.33.21l0,.16v.12a.17.17,0,0,1-.05.12l-.13.15-.1.06-.2.09-.21.1-.38.36-.34.24-.6.39-.53.32-.3.17a2.54,2.54,0,0,1-.36.17l-.59.23-.21.06a.45.45,0,0,1-.32-.14.58.58,0,0,1-.13-.34l0-.15a.22.22,0,0,1,.07-.12l.08-.06.28-.15.61-.27.51-.25.34-.15.32-.19.61-.39.35-.23.31-.25.34-.19A.45.45,0,0,1,242.7,223.36Z"/><path class="cls-4" d="M235.45,217.25h.19a.3.3,0,0,1,.16,0h.14l.15,0a.73.73,0,0,1,.32.06l.34.08c.42.09.63.28.63.55a.69.69,0,0,1-.13.38l-.14.21-.22.22-.31.29-.38.3-.32.23-.48.33a12,12,0,0,1-1.44.8l-.61.29-.29.11-.35.11-.26,0-.19,0-.11-.06-.16-.11-.1-.2,0-.08c0-.26.08-.4.25-.42l.27,0,.24,0,.26,0,.17,0a.77.77,0,0,0,.19,0l.23-.09.31-.16.5-.25.23-.11.4-.21.42-.24.26-.16.15-.12.22-.18a2.37,2.37,0,0,0,.27-.28l.07-.08,0,0a.11.11,0,0,0,0-.08l-.13-.05-.11,0-.28,0-.21,0-.13,0-.46.07-.07,0-.13.06-.14.05-.1,0h-.34l-.2,0a.45.45,0,0,1-.28-.36.61.61,0,0,1,.06-.3,1,1,0,0,1,.28-.2l.24-.08.25-.08Z"/><path class="cls-4" d="M237.93,212.64a.43.43,0,0,1,.27-.1c.27,0,.4.17.4.52l0,.13a.28.28,0,0,1-.07.09,17.25,17.25,0,0,1-1.53,1,11.64,11.64,0,0,1-1.54.77l-.2.07-.16.05a.34.34,0,0,1-.31-.25l0-.13,0-.19c0-.13.08-.22.25-.28a9.64,9.64,0,0,0,1.21-.64c.13-.08.26-.16.4-.23l.59-.37C237.49,213,237.72,212.79,237.93,212.64Z"/><path class="cls-4" d="M225.91,221.33a.74.74,0,0,1-.49-.13.47.47,0,0,1-.16-.4v-.15a.24.24,0,0,1,.14-.22.81.81,0,0,1,.31-.1,3,3,0,0,0,1-.23l.82-.46a1.53,1.53,0,0,0,.46-.25l.54-.37.23-.14.23-.21-.11-.09-.19-.22-.09-.19V218a.52.52,0,0,1,.07-.2l.13-.11a.59.59,0,0,1,.37-.15,1.17,1.17,0,0,1,.48.15l.15.08.19.12.55-.29.65-.36.35-.15a2.51,2.51,0,0,1,.69-.21.9.9,0,0,1,.31.1.36.36,0,0,1,.13.3v.12a.34.34,0,0,1-.13.19l-.23.15-.13.06-.37.17-.35.15-.55.15-.29.08.45.21.33.18.17.16.05.06V219a.27.27,0,0,1,0,.12l0,.11a.26.26,0,0,1-.15.16l-.18.08-.23,0a.41.41,0,0,1-.14,0l-.89-.46-.31.2-.32.23-.42.25-.61.39-1.1.63-.45.24-.42.21-.24.08Z"/><path class="cls-4" d="M232.09,212.64a.44.44,0,0,1,.28-.1c.26,0,.4.17.4.52l0,.13a.18.18,0,0,1-.07.09,17.25,17.25,0,0,1-1.53,1,11.06,11.06,0,0,1-1.54.77l-.2.07-.16.05c-.13,0-.23-.08-.31-.25l0-.13,0-.19c0-.13.09-.22.25-.28a9,9,0,0,0,1.21-.64l.4-.23.59-.37C231.65,213,231.89,212.79,232.09,212.64Z"/><path class="cls-4" d="M225.65,216.57l.16,0H226a.34.34,0,0,1,.21.13.39.39,0,0,1,0,.13v.12a.66.66,0,0,1-.38.44l-.21.11.1.06.25.14a1.12,1.12,0,0,1,.19.17.34.34,0,0,1,.06.2.65.65,0,0,1-.29.45l-.84.39.23.13.24.16a2.11,2.11,0,0,1,.06.26v.08a.27.27,0,0,1,0,.13l-.23.21-.47.37-.53.38-.41.3-1.11.74-.39.26-.35.18-.12,0-.17.09-.46.2a1.72,1.72,0,0,1-.56.15.46.46,0,0,1-.21,0l-.13-.06-.09-.09a.42.42,0,0,1-.09-.14,1.09,1.09,0,0,1,0-.22c0-.22.16-.37.49-.45l.22,0,.16,0,.2-.05.17-.06.22-.07.29-.13.28-.16,1.05-.66.5-.34.71-.51-.39-.26a.42.42,0,0,1-.17-.34.23.23,0,0,1,0-.15,1,1,0,0,1,.19-.21l.32-.16.5-.24-.22-.14-.28-.16-.14-.09-.07-.07-.07-.13,0-.06,0-.08.06-.06.18-.14,0,0,.08,0a1.07,1.07,0,0,0,.27-.09l.22-.09.2-.1.19-.14Z"/><path class="cls-4" d="M225.71,211.94h.42l.15,0a1.4,1.4,0,0,1,.78.19.59.59,0,0,1,.28.52,1.5,1.5,0,0,1-.5.87l-.32.34-.39.34a4.62,4.62,0,0,1-.4.28,3.45,3.45,0,0,1-.47.24l-.71.3-.35.16-.25,0s-.11-.06-.19-.16l-.06-.11-.06-.13a.45.45,0,0,1,.08-.26.82.82,0,0,1,.3-.21l.3-.08.36-.12a2.53,2.53,0,0,0,.37-.15,1.8,1.8,0,0,0,1.17-1.09l-.07,0-.08,0-.26,0-.2,0-.2,0h-.22l-.12,0-.16.08-.13.08-.13,0h-.18a.37.37,0,0,1-.19-.08l-.13-.19,0-.15a.36.36,0,0,1,.17-.32A3.61,3.61,0,0,1,225,212,3.22,3.22,0,0,1,225.71,211.94Z"/><path class="cls-4" d="M221.2,217.16q.57,0,.57.33a.85.85,0,0,1-.22.53l-.2.21-.26.17-.26.1-.35.1-.48.05h-.3l-.45,0H219l-.09.13-.18.19-.35.37-.26.21-.28.2-.85.58-.48.3-.33.18-.24.13-.47.22-.23.08a1.61,1.61,0,0,1-.41.08l-.1,0-.13-.07-.11-.05-.13-.11a.41.41,0,0,1-.14-.2l0-.14v-.17a.52.52,0,0,1,.16-.33.36.36,0,0,1,.16-.08l.16,0,.1,0a.76.76,0,0,1,.21,0l.21,0,.19,0,.21-.07.61-.28.32-.16.3-.18a5.28,5.28,0,0,0,.82-.6l.16-.17.06-.16-.08-.11a.33.33,0,0,1-.11-.22.89.89,0,0,1,.26-.62.94.94,0,0,1,.64-.27.85.85,0,0,1,.39.17c.17.11.25.22.25.33l.46,0a1.33,1.33,0,0,0,.49-.12,3.49,3.49,0,0,0,.59-.35l.14-.09.12-.07A.56.56,0,0,1,221.2,217.16Z"/><path class="cls-4" d="M221.49,223.36a.33.33,0,0,1,.33.21l0,.16,0,.12a.13.13,0,0,1-.05.12l-.13.15-.1.06-.2.09-.21.1-.37.36-.34.24-.61.39-.52.32-.31.17a2.1,2.1,0,0,1-.35.17l-.59.23-.22.06a.49.49,0,0,1-.32-.14.56.56,0,0,1-.12-.34l0-.15a.31.31,0,0,1,.07-.12l.08-.06.29-.15.61-.27.5-.25.35-.15.32-.19.61-.39.35-.23.31-.25.34-.19A.4.4,0,0,1,221.49,223.36Z"/><path class="cls-4" d="M159.41,218.19h.19l.14,0,.42.08.44.12.3.14a.68.68,0,0,1,.41.57l0,.21-.11.19-.12.17-.31.25-1.05.7-1,.52-.41.18-.37.07a.43.43,0,0,1-.28-.12l-.08-.13,0-.18,0-.17s.06-.09.14-.17l.34-.16.65-.28.84-.43.34-.18.25-.18.05-.11q0-.24-.63-.24l-.44,0-.51.17c-.37,0-.55-.15-.55-.45a.33.33,0,0,1,.09-.25.84.84,0,0,1,.28-.18l.51-.17Zm3.65,0a2.93,2.93,0,0,1,.7.11l.21.07.15.07.31.21a.68.68,0,0,1,.22.23.63.63,0,0,1,.07.32l0,.12-.07.13-.16.19-.16.18-.15.18-.21.17-.58.46-.58.4-.52.29-.22.06-.25,0h-.19a.31.31,0,0,1-.15-.09l-.08-.16a.33.33,0,0,0,0-.12.29.29,0,0,1,.1-.21l.18-.09.24-.12.36-.16.6-.34.47-.37.24-.21a.49.49,0,0,0,.11-.21.22.22,0,0,0-.16-.23l-.37,0h-.23l-.16,0-.19.07-.14,0-.12,0-.32,0-.13-.07-.06,0-.07-.06a1,1,0,0,1-.06-.2v-.13a.57.57,0,0,1,.08-.13,1.52,1.52,0,0,1,.23-.16l.17-.08.15,0a1.86,1.86,0,0,1,.37-.1l.27,0Z"/><path class="cls-4" d="M160.77,223.48l.13,0a.36.36,0,0,1,.31.38.45.45,0,0,1-.1.21l-.21.15-.27.11.51.11.2.07.24.06c.36.06.54.21.54.48l-.06.13-.23.17-.14.12-.21.15-.75.43-.16.11a.16.16,0,0,0,0,.12l.85.17.67.13.24,0c.25,0,.38.12.38.34s-.08.43-.23.45H162l-.22,0-.35-.06-.41-.08-.18,0-.19-.05-1.16-.31-.09,0-.07,0-.09-.05-.15-.09a.31.31,0,0,1-.09-.17.28.28,0,0,1,.09-.2l.15-.17.42-.29.47-.28.43-.28.28-.21-.44-.05-1.27-.19a.12.12,0,0,1-.11-.07v-.21l.21-.16.36-.27.45-.3.39-.23A1.1,1.1,0,0,1,160.77,223.48Z"/><path class="cls-4" d="M169.89,219.43c0,.68-.45,1.26-1.34,1.73a1.89,1.89,0,0,1-.91.28c-.87,0-1.3-.37-1.3-1.11a1.82,1.82,0,0,1,.74-1.43,2.42,2.42,0,0,1,1.58-.62,1.4,1.4,0,0,1,.49.08.94.94,0,0,1,.39.22A1.09,1.09,0,0,1,169.89,219.43Zm-.81.13c0-.31-.22-.46-.65-.46a1.21,1.21,0,0,0-.81.38,1.13,1.13,0,0,0-.39.82c0,.2.13.29.39.29h.2a1.39,1.39,0,0,0,.79-.35A.94.94,0,0,0,169.08,219.56Z"/><path class="cls-4" d="M166.6,223.44l.26,0a.58.58,0,0,1,.38.21l.1.17a.42.42,0,0,0,.23.12.41.41,0,0,0,.19-.08l.17-.16.13-.1.13-.12.13-.06.21,0h.1l.1.05.16.08.08,0a.33.33,0,0,1,.06.08l.09.22.07.19.06,0,.09,0a1,1,0,0,0,.4-.12l.17-.13.17-.19.08-.06.11-.08.24-.12.18,0h.18s.08,0,.11.08l.11.13,0,.12a.57.57,0,0,1-.16.42l-.2.24a.58.58,0,0,1-.23.17l-.26.14-.31.13-.32.09-.55.11a.94.94,0,0,1-.47-.12l-.17-.15-.19-.19h-.35a1.12,1.12,0,0,0-.27,0,.35.35,0,0,0-.18.1l-.38.35-.57.47L166,226l-.17.12-.21.13-.25.16-.83.47-.63.35-.25.1-.29.11-.26,0-.27,0-.18,0-.2-.08a.51.51,0,0,1-.25-.5.39.39,0,0,1,.24-.37l.18,0h.63a1.53,1.53,0,0,0,.56-.22l.56-.29.65-.35.6-.39.45-.35.11-.13a.5.5,0,0,0,0-.13l-.21-.4,0-.2V224c0-.05,0-.08,0-.1l.11-.15A.76.76,0,0,1,166.6,223.44Z"/><path class="cls-4" d="M177.52,218.84a.44.44,0,0,1,.28-.1c.26,0,.39.17.39.53l0,.12a.18.18,0,0,1-.07.09,17.25,17.25,0,0,1-1.53,1,11.64,11.64,0,0,1-1.54.77l-.2.07a.56.56,0,0,1-.16,0c-.13,0-.23-.08-.31-.25l0-.13,0-.19c0-.13.08-.22.25-.28a9,9,0,0,0,1.21-.64l.4-.23.59-.37C177.08,219.15,177.32,219,177.52,218.84Z"/><path class="cls-4" d="M175.48,223.45h.19a.26.26,0,0,1,.15,0H176l.14,0a.75.75,0,0,1,.33.06l.34.08c.42.09.62.28.62.55a.73.73,0,0,1-.12.38,1.37,1.37,0,0,1-.15.21,1.39,1.39,0,0,1-.21.22l-.31.29-.38.3-.32.23-.48.33a12.08,12.08,0,0,1-1.45.8l-.6.29-.29.11-.35.11-.26,0-.19,0-.11-.06-.16-.11-.1-.2,0-.08c0-.26.08-.4.25-.42l.26,0,.24,0,.27-.05.17,0a.77.77,0,0,0,.19-.05l.23-.09.3-.16.5-.25.24-.11.39-.21.43-.24.25-.16.16-.12.21-.18a1.85,1.85,0,0,0,.28-.28l.07-.08,0,0a.11.11,0,0,0,0-.08l-.12,0-.11,0-.28,0-.22,0-.13,0-.45.07-.07,0-.13.06-.14,0-.11,0h-.33l-.2,0a.46.46,0,0,1-.29-.36.6.6,0,0,1,.07-.3,1,1,0,0,1,.28-.2l.24-.08.25-.08Z"/><path class="cls-4" d="M181,218.55a.47.47,0,0,1,.25-.07q.24,0,.3.33V219c-.29.23-.58.44-.85.63a3.33,3.33,0,0,0-.62.49.6.6,0,0,0-.2.36c0,.21.16.31.4.31h.18a.79.79,0,0,0,.68-.26.36.36,0,0,1,.31-.13q.3,0,.39.51c0,.31-.21.5-.62.57l-.25,0h-.4c-1.11,0-1.66-.32-1.66-1a1.4,1.4,0,0,1,.56-.88l.37-.3.34-.25Zm3.56,0,.15-.05.15-.05c.19,0,.31.12.36.34v.09a.39.39,0,0,1-.13.28l-.9.5c-.61.34-.92.57-.92.69v.14c0,.19.23.29.67.29a.86.86,0,0,0,.61-.19l.19-.13.13-.06a.47.47,0,0,1,.3.15.36.36,0,0,1,.15.29.55.55,0,0,1-.23.39l-.21.11-.24.09-.4,0h-.52c-.95,0-1.42-.28-1.42-.84l0-.24a2.88,2.88,0,0,1,1.1-1.16A10.59,10.59,0,0,1,184.58,218.55Z"/><path class="cls-4" d="M184,224.7c0,.37-.37.81-1.09,1.3l-1.34.89-.56.34a5.15,5.15,0,0,1-2,.88q-.69,0-.69-.54a.5.5,0,0,1,.24-.43.7.7,0,0,1,.35-.06H179l.1,0,.12.06.07,0h.18l.13,0,.23-.08.61-.31.23-.13.42-.26.23-.17c-.5-.22-.74-.5-.74-.84a1.4,1.4,0,0,1,.53-1.1l.25-.16.26-.19a2.31,2.31,0,0,1,1.12-.29,1.59,1.59,0,0,1,1,.39A.8.8,0,0,1,184,224.7Zm-.92-.1c-.07-.12-.25-.17-.55-.17a1.48,1.48,0,0,0-.84.39l-.12.13-.11.19,0,.15a.35.35,0,0,0,.2.27.29.29,0,0,0,.16.05l.13,0,.23-.06.39-.2c.39-.26.59-.47.59-.63A.12.12,0,0,0,183.07,224.6Z"/><path class="cls-4" d="M147.34,249.82h.19l.14,0,.42.07.44.13.3.13a.73.73,0,0,1,.41.58l0,.21-.11.18-.12.17-.31.26-1,.7-1,.51-.41.18-.37.08a.43.43,0,0,1-.28-.12l-.08-.14,0-.17,0-.18a.41.41,0,0,1,.14-.16l.34-.17.65-.27.84-.43.34-.18.25-.18.05-.11c0-.16-.21-.24-.64-.24l-.43,0-.51.18c-.37,0-.55-.15-.55-.45a.36.36,0,0,1,.09-.26.84.84,0,0,1,.28-.18l.51-.16Zm3.64,0a2.51,2.51,0,0,1,.71.11.65.65,0,0,1,.21.06l.15.07.31.21a.71.71,0,0,1,.22.24.59.59,0,0,1,.07.31l0,.12-.07.14-.16.19-.16.18-.16.17-.21.18-.58.46-.57.39-.52.3-.22.06-.25,0-.19,0a.31.31,0,0,1-.15-.09l-.08-.16a.37.37,0,0,0,0-.12.28.28,0,0,1,.1-.2l.18-.1.24-.11.35-.17.61-.33.47-.37.24-.22a.41.41,0,0,0,.1-.2.21.21,0,0,0-.15-.23l-.37,0-.23,0-.17,0-.18.07-.14,0-.12,0-.32,0-.13-.06-.06,0-.07-.07a.68.68,0,0,1-.06-.2v-.12a.57.57,0,0,1,.08-.13l.23-.17.17-.07.15,0a1.92,1.92,0,0,1,.37-.11l.27,0Z"/><path class="cls-4" d="M151.37,254.79h.14l.11,0a.57.57,0,0,1,.23.27l0,.25a.3.3,0,0,1-.12.28l-.48.2.23.24a.71.71,0,0,1,.23.52v.23s0,.06,0,.08a.16.16,0,0,1,0,.08,1.18,1.18,0,0,1-.64.84l-.35.19-.24.08-.29,0h-.3l-.31,0-.58-.14-.1-.06-.37.32-.18.15-.23.18-.49.36-.21.13-.38.24-.35.21-.71.39-.14.07-.17.08-.29.16-.28,0a.67.67,0,0,1-.61-.35l0-.09,0-.18a.34.34,0,0,1,.11-.27l.13-.1.1-.06h.61a1,1,0,0,0,.47-.12l.79-.42.27-.17.46-.31.3-.21.19-.2.15-.13.18-.18-.12-.22,0-.15,0-.14a.56.56,0,0,1,.32-.37l.25-.05h.17l.21.1a.38.38,0,0,1,.22.23l0,.19.07.06.2.13.22.09H150l.19,0,.15-.06a1.07,1.07,0,0,0,.38-.25l.1-.15,0-.14a.41.41,0,0,0-.07-.25l-.11-.13-.17-.1-.15-.11L150,256l-.28-.2,0-.11,0-.15a.18.18,0,0,1,.09-.17l.27-.12h.22l.27,0,.18-.08.17-.11.16-.1.17-.07Z"/><path class="cls-4" d="M158.59,261.19a.32.32,0,0,1,.32.21l0,.17v.12a.14.14,0,0,1-.06.11l-.13.16-.1.05-.19.09-.21.11-.38.35-.34.25-.6.38-.53.32-.31.18-.35.17-.59.22-.21.06a.41.41,0,0,1-.32-.14.51.51,0,0,1-.13-.33l0-.16a.24.24,0,0,1,.08-.11l.08-.06.28-.15.61-.27.5-.25.35-.16.32-.18.61-.39.35-.23.31-.25.34-.19A.44.44,0,0,1,158.59,261.19Z"/><path class="cls-4" d="M158.64,257.17l-.39.38-.27.19-.3.18-.49.24-.48.15-.54.12-.56,0h-.79a.53.53,0,0,1-.2,0,1.35,1.35,0,0,1-1-.83,2,2,0,0,1-.06-.5,1.89,1.89,0,0,1,.17-.65l.22-.27.27-.26.14-.11.16-.09.34-.17.32-.11.31,0h.3l.22.05a.77.77,0,0,1,.18.1l.29.28.28-.27.23-.16.14-.08.17-.06.32-.07.36,0a1.32,1.32,0,0,1,1.07.45l.12.17a1.2,1.2,0,0,1,.06.23v.19A1.87,1.87,0,0,1,158.64,257.17Zm-2.81-.75-.19-.11-.2,0h-.21l-.12,0-.2.09a.82.82,0,0,0-.5.76.39.39,0,0,0,.21.32l.34.15.53-.76Zm2.5-.26c0-.17-.14-.26-.4-.26l-.16,0a1.23,1.23,0,0,0-.42.21l-.53.42-.32.29-.25.29-.13.18-.22.34.69-.12h.09l.15,0,.24-.13.42-.29.34-.24C158.16,256.57,158.33,256.35,158.33,256.16Z"/><path class="cls-4" d="M162.32,255.08l.26,0a.56.56,0,0,1,.38.22l.1.17a.36.36,0,0,0,.23.11.37.37,0,0,0,.19-.07l.17-.16.13-.11.13-.11a.31.31,0,0,1,.13-.06.68.68,0,0,1,.21,0h.1l.1,0,.16.08.08,0,.06.08.09.22.07.2.06,0,.09,0a1,1,0,0,0,.4-.11l.17-.14.18-.18.07-.07.11-.08.24-.12.18,0h.18a.11.11,0,0,1,.11.08l.11.13.05.11a.57.57,0,0,1-.16.42l-.2.24a.44.44,0,0,1-.23.17l-.26.14-.31.13-.31.1-.56.11a.85.85,0,0,1-.47-.13l-.17-.14-.19-.19h-.35a1.12,1.12,0,0,0-.27,0,.61.61,0,0,0-.18.1l-.38.35-.57.47-.58.44-.17.11-.21.14L161,258l-.83.46-.63.35-.25.11-.29.1-.26.06h-.27l-.18,0-.2-.08a.49.49,0,0,1-.25-.5.4.4,0,0,1,.24-.37l.19,0h.13l.5,0a1.82,1.82,0,0,0,.55-.22l.56-.29.65-.35.6-.39.45-.36.11-.13a.4.4,0,0,0,0-.13l-.21-.39,0-.2v-.1s0-.08,0-.1l.11-.16A.82.82,0,0,1,162.32,255.08Z"/><path class="cls-4" d="M173.21,261.19a.32.32,0,0,1,.32.21l0,.17,0,.12a.13.13,0,0,1-.05.11l-.13.16-.1.05-.2.09-.21.11-.37.35-.34.25-.6.38-.53.32-.31.18-.35.17-.59.22-.22.06a.44.44,0,0,1-.32-.14.56.56,0,0,1-.12-.33l0-.16a.35.35,0,0,1,.07-.11l.08-.06.29-.15.61-.27.5-.25.35-.16.32-.18.61-.39.35-.23.31-.25.34-.19A.41.41,0,0,1,173.21,261.19Z"/><path class="cls-4" d="M173.14,255.08l.19-.06h.07a.27.27,0,0,1,.12,0l.08.06.11.12,0,.19,0,.12a.46.46,0,0,1-.09.19l-.15.13-.43.33-.56.41-.55.36-.92.55-.38.18a4.51,4.51,0,0,1-.57.26l-.21.07a1.77,1.77,0,0,1-.25.08l-.29,0a.34.34,0,0,1-.19-.08.44.44,0,0,1-.18-.22v-.18a.54.54,0,0,1,.13-.29l.21-.23.14-.17.1-.14.06-.23,0-.16,0-.25,0-.42a.85.85,0,0,1,0-.29s0,0,.08-.07l.14-.09.25,0,.2,0a.39.39,0,0,1,.21.11.44.44,0,0,1,.17.39v.13l-.05.13-.13.29-.11.43-.11.29.19-.08.21-.13.3-.17.39-.24.73-.48.16-.11.24-.24.43-.32Z"/><path class="cls-4" d="M101.38,243.15h.19l.15,0,.42.08.43.12.31.14a.69.69,0,0,1,.4.57l0,.21-.11.19-.12.17-.3.25-1.06.7-1,.52-.4.18-.37.07a.44.44,0,0,1-.29-.12l-.08-.13,0-.18,0-.17s0-.1.14-.17l.34-.16.64-.28.84-.43.34-.18.26-.18,0-.11c0-.16-.22-.24-.64-.24l-.44,0-.51.17q-.54,0-.54-.45a.37.37,0,0,1,.08-.26.81.81,0,0,1,.29-.17l.5-.17Zm3.65,0a2.86,2.86,0,0,1,.7.11,1.05,1.05,0,0,1,.21.06l.15.08.32.21a.65.65,0,0,1,.21.23.63.63,0,0,1,.08.32l0,.11-.07.14-.16.19-.16.18-.15.18-.21.17-.58.46-.58.39-.52.3-.22.06-.25,0-.18,0a.33.33,0,0,1-.16-.08l-.08-.16a.24.24,0,0,0,0-.13.34.34,0,0,1,.1-.2l.18-.09.24-.12.36-.16.61-.34.46-.37.25-.22a.39.39,0,0,0,.1-.2.21.21,0,0,0-.16-.23l-.36,0h-.23l-.17.05-.18.07-.15,0-.12,0-.32,0-.13-.06-.05,0-.08-.06a.93.93,0,0,1-.06-.21l0-.12a.26.26,0,0,1,.08-.13,1.24,1.24,0,0,1,.23-.17l.16-.07.16,0a1.7,1.7,0,0,1,.37-.1l.27,0Z"/><path class="cls-4" d="M105.41,248.12h.14a.22.22,0,0,1,.12,0,.49.49,0,0,1,.23.27l0,.24a.32.32,0,0,1-.12.29l-.47.2.23.23a.7.7,0,0,1,.22.52v.23a.25.25,0,0,0,0,.08.3.3,0,0,1,0,.08,1.16,1.16,0,0,1-.64.84l-.34.19-.24.08-.3,0h-.3l-.3,0-.58-.14-.1-.06-.38.32-.18.16-.23.17-.49.36-.21.13-.38.24-.34.21-.71.39-.15.07-.16.08-.29.16-.29,0a.67.67,0,0,1-.61-.35l0-.08,0-.19a.33.33,0,0,1,.1-.27l.13-.1.1-.06h.62a1,1,0,0,0,.46-.12l.79-.42.28-.17.45-.31.3-.21.19-.2.16-.12.17-.19-.11-.22,0-.14,0-.15a.61.61,0,0,1,.33-.37l.24-.05h.17l.22.1a.44.44,0,0,1,.22.23l0,.2.06.06.21.13.21.08.28,0,.18,0,.15-.06a1.08,1.08,0,0,0,.38-.24l.1-.16,0-.13a.5.5,0,0,0-.06-.26l-.12-.13-.17-.1-.15-.1-.3-.15-.29-.2,0-.11,0-.14a.19.19,0,0,1,.09-.18l.27-.12h.49l.19-.08.16-.12.16-.09.17-.08Z"/><path class="cls-4" d="M112.67,243.8a.43.43,0,0,1,.27-.1c.27,0,.4.17.4.52l0,.13a.18.18,0,0,1-.07.09,17.25,17.25,0,0,1-1.53,1,11.64,11.64,0,0,1-1.54.77l-.2.07-.16.05a.34.34,0,0,1-.31-.25l0-.13,0-.19c0-.13.08-.23.25-.28a9.64,9.64,0,0,0,1.21-.64l.4-.23.59-.37C112.23,244.11,112.46,244,112.67,243.8Z"/><path class="cls-4" d="M110.62,248.41h.19a.3.3,0,0,1,.16,0h.15l.14,0a.75.75,0,0,1,.33.06l.34.07c.41.1.62.28.62.56a.76.76,0,0,1-.12.38l-.15.21-.21.22-.32.29-.37.3-.32.23-.49.33a11.24,11.24,0,0,1-1.44.8l-.6.29-.29.11-.36.11-.26,0-.18,0-.11-.06-.16-.11-.1-.21,0-.08q0-.37.24-.42l.27,0,.24,0,.27,0,.16,0,.19,0,.24-.09.3-.16.5-.25.24-.11.39-.21.43-.24.25-.17.15-.11.22-.18a1.85,1.85,0,0,0,.28-.28l.07-.08,0,0a.11.11,0,0,0,0-.08l-.12,0-.12,0-.27,0-.22,0-.13,0-.46.07-.06,0-.13.06-.15.05-.1,0h-.33l-.21,0a.46.46,0,0,1-.28-.36.51.51,0,0,1,.07-.3.9.9,0,0,1,.28-.2l.24-.08.25-.08Z"/><path class="cls-4" d="M120,243l.11,0,.12,0a.28.28,0,0,1,.1.16l.07.19,0,.15c0,.24-.1.35-.31.35a4.34,4.34,0,0,0-.57.11l-.23.09-.18.09-.18.09a.48.48,0,0,0-.15.11l-.17.18-.17.2a.33.33,0,0,0,.15.22l.23.1.24,0h.6l.24,0,.13,0c.1.05.14.16.14.32a.32.32,0,0,1-.23.32l-.32.07-.42,0h-.35l-.15,0-.45-.09a.82.82,0,0,1-.57-.32,1.51,1.51,0,0,1-.21-.73l-.09.12a.24.24,0,0,1-.14.11l-.12.12-.35.25-.54.35-.38.21-.32.2-.34.14-.29.12-.23.06h-.18c-.2,0-.3-.12-.3-.35l0-.24a.37.37,0,0,1,.18-.14l.23-.07.3-.11a3.62,3.62,0,0,0,1.19-.65l.24-.2.25-.23-.92,0-.25,0-.14,0-.13-.06a.36.36,0,0,1-.23-.39.37.37,0,0,1,.33-.39l.35,0h.89a1.24,1.24,0,0,1,.66.15.49.49,0,0,1,.15.21l.12.21.12.31.17-.15.09-.08.07,0,.13-.08.24-.22.38-.26.69-.45A1.27,1.27,0,0,1,120,243Z"/><path class="cls-4" d="M118.44,248.59h.21l.13,0a.37.37,0,0,1,.14.07.69.69,0,0,1,.35.46l.06.26,0,.18a.46.46,0,0,1,0,.14l0,.2-.1.38-.13.35-.12.27-.15.3a1.56,1.56,0,0,1-.44.54l-.2,0-.11,0-.11,0-.12,0-.17-.12,0-.19c0-.06,0-.11,0-.14a.31.31,0,0,1,.09-.13l.17-.23.17-.26.3-.55.1-.3s0,0,0-.08a.14.14,0,0,0,0-.09l-.08,0a.56.56,0,0,0-.33.12l-.27.24-.59.49-1.15.9-.42.29-.48.29-.36.2-.3.11-.23,0-.22,0-.13-.05a.33.33,0,0,1-.15-.32v-.15a.39.39,0,0,1,0-.13l.07-.15s.09-.1.23-.17l.31,0h.25l.18-.05.37-.19.58-.39.28-.2.28-.23.36-.32.37-.31.36-.33.37-.32A1,1,0,0,1,118.44,248.59Z"/><path class="cls-4" d="M255.38,81.54h2.43l6,9.7h0v-9.7h2.19V94.7h-2.43l-6-9.67h-.06V94.7h-2.19Z"/><path class="cls-4" d="M268.36,83.94c1.77,0,3.45-.59,3.76-2.14h1.71V94.7h-2.3V85.6h-3.17Z"/><path class="cls-4" d="M276.4,198.36h2.43l6,9.7h0v-9.7h2.19v13.16h-2.43l-6-9.68h-.06v9.68H276.4Z"/><path class="cls-4" d="M297.93,211.52h-8.81a5.76,5.76,0,0,1,2.84-4.88c1.67-1.22,3.85-2.23,3.89-4.24a2.05,2.05,0,0,0-2.18-2.29c-1.66,0-2.16,1.42-2.21,3.23h-2.1c0-2.86,1.56-5,4.44-5a3.83,3.83,0,0,1,4.15,4c0,2.05-1.4,3.32-2.88,4.35s-3.06,1.83-3.43,3h6.29Z"/><path class="cls-4" d="M116,264.59h2.43l6,9.7h0v-9.7h2.19v13.16h-2.43l-6-9.67h-.06v9.67H116Z"/><path class="cls-4" d="M132.19,270.2c1.4.05,2.86-.45,2.86-2a1.85,1.85,0,0,0-2-1.83c-1.46,0-2.18,1.31-2.14,2.64h-2.1c.11-2.51,1.68-4.39,4.28-4.39,2,0,4.07,1.16,4.07,3.45a2.71,2.71,0,0,1-1.83,2.76v0a3.05,3.05,0,0,1,2.35,3.23c0,2.43-2.11,3.94-4.58,3.94-3,0-4.47-1.81-4.53-4.5h2.1a2.38,2.38,0,0,0,2.43,2.75,2.25,2.25,0,0,0,2.47-2.3c0-2-1.71-2.27-3.37-2.2Z"/><path class="cls-4" d="M13.61,165h2.44l6,9.7h0V165h2.2v13.16H21.85l-6-9.67h0v9.67h-2.2Z"/><path class="cls-4" d="M35.24,175.06H33.58v3.06h-2v-3.06H26.06V173l5.53-7.76h2v8.19h1.66Zm-7.56-1.65h3.91v-5.68h0Z"/><g id="Lines"><line class="cls-7" x1="95.7" y1="40.04" x2="64.12" y2="11.63"/><polyline class="cls-7" points="102.92 46.54 153.86 92.38 155.31 93.68 216.43 148.66 217.68 149.79 313.32 148.54 355.77 148"/><line class="cls-7" x1="87.54" y1="201.64" x2="0.12" y2="236.49"/><polyline class="cls-7" points="93.89 199.12 119.93 188.76 119.93 188.73 120.14 188.64 120.16 188.64 215.66 150.59 217.68 149.79 214.74 163.03 214.26 165.1 212.72 172.11 212.6 172.61 211.21 178.91 211 179.86 201.47 222.66 191.59 267.13"/></g></g></g></svg>