<svg xmlns="http://www.w3.org/2000/svg" viewBox="0 0 228.22 219.56"><defs><style>.cls-1{fill:#383838;}.cls-2,.cls-3{fill:#f1f2f2;}.cls-2,.cls-6{fill-rule:evenodd;}.cls-4,.cls-5{fill:none;}.cls-4{stroke:#004417;stroke-width:1.12px;}.cls-5{stroke:#72c9e7;stroke-width:0.49px;}.cls-6{fill:#396287;}.cls-7{isolation:isolate;}</style></defs><title>V</title><g id="Layer_2" data-name="Layer 2"><g id="Layer_1-2" data-name="Layer 1"><g id="J1"><path class="cls-1" d="M113.71,93.77a3,3,0,0,0,.44,1.8,1.35,1.35,0,0,0,1.09.58,1.3,1.3,0,0,0,1-.59,3.84,3.84,0,0,0,0-3.58,1.31,1.31,0,0,0-1.09-.59,1.23,1.23,0,0,0-1.05.6,3,3,0,0,0-.44,1.78m-.88,0a3.74,3.74,0,0,1,.68-2.43,2.08,2.08,0,0,1,1.71-.82,2.11,2.11,0,0,1,1.71.82,3.69,3.69,0,0,1,.68,2.37,4,4,0,0,1-.67,2.49,2.13,2.13,0,0,1-1.72.82,2.17,2.17,0,0,1-1.71-.82,3.76,3.76,0,0,1-.63-2.43Zm-5.19,0a3,3,0,0,0,.44,1.8,1.35,1.35,0,0,0,1.09.58,1.3,1.3,0,0,0,1-.59,3.84,3.84,0,0,0,0-3.58,1.31,1.31,0,0,0-1.09-.59,1.22,1.22,0,0,0-1,.6,3,3,0,0,0-.39,1.78Zm-.88,0a3.74,3.74,0,0,1,.68-2.43,2.08,2.08,0,0,1,1.71-.82,2.11,2.11,0,0,1,1.71.82,3.69,3.69,0,0,1,.68,2.37,4,4,0,0,1-.67,2.49,2.13,2.13,0,0,1-1.72.82,2.17,2.17,0,0,1-1.71-.82,3.76,3.76,0,0,1-.63-2.43ZM101,96.88V88.3h.86v3.08a2.14,2.14,0,0,1,.69-.65,1.68,1.68,0,0,1,.85-.21,1.6,1.6,0,0,1,1.28.52,2.83,2.83,0,0,1,.47,1.9v3.94h-.86V92.94a1.81,1.81,0,0,0-.28-1.16,1,1,0,0,0-.79-.35,1.2,1.2,0,0,0-1,.45,2.38,2.38,0,0,0-.4,1.6v3.4Zm-5.49-3.1a3.22,3.22,0,0,0,.41,1.79,1.2,1.2,0,0,0,1,.58,1.16,1.16,0,0,0,1-.56,3,3,0,0,0,.4-1.69,3.49,3.49,0,0,0-.4-1.91,1.2,1.2,0,0,0-1-.6A1.11,1.11,0,0,0,96,92a3.28,3.28,0,0,0-.48,1.81Zm2.73,3.1V96.1a1.78,1.78,0,0,1-.6.68,1.53,1.53,0,0,1-.8.24,1.94,1.94,0,0,1-1.56-.85,3.87,3.87,0,0,1-.66-2.4,5,5,0,0,1,.29-1.8,2.39,2.39,0,0,1,.79-1.09,1.7,1.7,0,0,1,1.08-.36,1.51,1.51,0,0,1,.8.22,1.84,1.84,0,0,1,.6.64V88.3H99v8.58Zm-6.12-3.12a5.69,5.69,0,0,1-1.41.4,2.53,2.53,0,0,0-.76.21.75.75,0,0,0-.34.34.9.9,0,0,0-.12.51.92.92,0,0,0,1,1,1.61,1.61,0,0,0,.85-.24,1.5,1.5,0,0,0,.56-.64,2.73,2.73,0,0,0,.19-1.16Zm.07,2.35a3.14,3.14,0,0,1-.9.68,2.29,2.29,0,0,1-1,.23A1.71,1.71,0,0,1,89,96.54a1.78,1.78,0,0,1-.48-1.29,1.91,1.91,0,0,1,.22-1,1.66,1.66,0,0,1,.61-.65,3.16,3.16,0,0,1,1.17-.34,6.87,6.87,0,0,0,1.55-.37v-.22a1.36,1.36,0,0,0-.23-.9,1.19,1.19,0,0,0-1-.38,1.41,1.41,0,0,0-.84.28,1.61,1.61,0,0,0-.43.94l-.85-.14A2.24,2.24,0,0,1,89.47,91,2.34,2.34,0,0,1,91,90.52a2.28,2.28,0,0,1,1.27.3,1.27,1.27,0,0,1,.57.75,5.14,5.14,0,0,1,.16,1.3v1.4a14.43,14.43,0,0,0,0,1.86,2.49,2.49,0,0,0,.22.75h-.91a2.89,2.89,0,0,1-.13-.77Zm-9.4.77V90.67h.78v.89a2,2,0,0,1,.69-.77,1.81,1.81,0,0,1,1.69-.1,1.36,1.36,0,0,1,.56.42,1.53,1.53,0,0,1,.32.68A5,5,0,0,1,87,93.07v3.82h-.87V93.1a3,3,0,0,0-.11-1,1,1,0,0,0-1-.67,1.19,1.19,0,0,0-1,.47,2.56,2.56,0,0,0-.37,1.58v3.4Zm-2.78,0V90.67h.86v6.22Zm0-7.37V88.3h.86v1.21ZM74,96.88V88.3h.86v3.08a2,2,0,0,1,.69-.65,1.57,1.57,0,0,1,.84-.21,1.62,1.62,0,0,1,1.29.52,2.9,2.9,0,0,1,.47,1.9v3.94h-.86V92.94A1.89,1.89,0,0,0,77,91.78a.93.93,0,0,0-.79-.35,1.21,1.21,0,0,0-1,.45,2.43,2.43,0,0,0-.39,1.6v3.4Zm-4.68,0V89.31H67v-1h5.58v1H70.2v7.57Z"/><path class="cls-1" d="M122.63,115.61a2.94,2.94,0,0,0,.45,1.8,1.33,1.33,0,0,0,1.08.59,1.29,1.29,0,0,0,1-.6,3.84,3.84,0,0,0,0-3.58,1.32,1.32,0,0,0-1.09-.58,1.25,1.25,0,0,0-1,.59,3,3,0,0,0-.44,1.78m-.88,0a3.74,3.74,0,0,1,.68-2.43,2.08,2.08,0,0,1,1.71-.82,2.11,2.11,0,0,1,1.71.82,3.69,3.69,0,0,1,.68,2.37,3.87,3.87,0,0,1-.67,2.49,2.13,2.13,0,0,1-1.72.82,2.17,2.17,0,0,1-1.71-.82A3.77,3.77,0,0,1,121.75,115.61Zm-5.19,0a2.94,2.94,0,0,0,.45,1.8,1.33,1.33,0,0,0,1.08.59,1.28,1.28,0,0,0,1-.6,3.84,3.84,0,0,0,0-3.58,1.32,1.32,0,0,0-1.09-.58,1.25,1.25,0,0,0-1,.59A3,3,0,0,0,116.56,115.61Zm-.88,0a3.74,3.74,0,0,1,.68-2.43,2.08,2.08,0,0,1,1.71-.82,2.11,2.11,0,0,1,1.71.82,3.69,3.69,0,0,1,.68,2.37,3.87,3.87,0,0,1-.67,2.49,2.13,2.13,0,0,1-1.72.82,2.17,2.17,0,0,1-1.71-.82A3.77,3.77,0,0,1,115.68,115.61Zm-5.75,3.11v-8.58h.86v3.08a2.11,2.11,0,0,1,.69-.64,1.8,1.8,0,0,1,2.13.3,2.83,2.83,0,0,1,.47,1.9v3.94h-.86v-3.94a1.81,1.81,0,0,0-.28-1.16,1,1,0,0,0-.79-.35,1.2,1.2,0,0,0-1,.45,2.38,2.38,0,0,0-.4,1.6v3.4Zm-5.49-3.1a3.22,3.22,0,0,0,.41,1.79,1.24,1.24,0,0,0,1,.59,1.19,1.19,0,0,0,1-.57,2.94,2.94,0,0,0,.4-1.69,3.49,3.49,0,0,0-.4-1.91,1.2,1.2,0,0,0-1-.6,1.11,1.11,0,0,0-.94.58,3.27,3.27,0,0,0-.47,1.86Zm2.73,3.1v-.78a1.78,1.78,0,0,1-.6.68,1.53,1.53,0,0,1-.8.24,1.94,1.94,0,0,1-1.56-.85,3.87,3.87,0,0,1-.66-2.4,5,5,0,0,1,.29-1.8,2.39,2.39,0,0,1,.79-1.09,1.7,1.7,0,0,1,1.08-.36,1.52,1.52,0,0,1,.8.23,1.73,1.73,0,0,1,.6.63v-3.08H108v8.58Zm-8.82-3.11a3,3,0,0,0,.44,1.8,1.35,1.35,0,0,0,1.09.59,1.29,1.29,0,0,0,1-.6,3.84,3.84,0,0,0,0-3.58,1.32,1.32,0,0,0-1.09-.58,1.25,1.25,0,0,0-1,.59A3,3,0,0,0,98.35,115.61Zm-.88,0a3.74,3.74,0,0,1,.68-2.43,2.08,2.08,0,0,1,1.71-.82,2.11,2.11,0,0,1,1.71.82,3.69,3.69,0,0,1,.68,2.37,3.93,3.93,0,0,1-.67,2.49,2.13,2.13,0,0,1-1.72.82,2.17,2.17,0,0,1-1.71-.82,3.77,3.77,0,0,1-.68-2.43Zm-5.22,5.51-.09-1a2,2,0,0,0,.49.09,1,1,0,0,0,.45-.11,1,1,0,0,0,.3-.34c0-.06.14-.4.34-1l-1.94-6.23h.93l1.07,3.6c.13.45.25.93.36,1.45a12.78,12.78,0,0,1,.36-1.42l1.09-3.63h.86l-1.94,6.33a12.36,12.36,0,0,1-.59,1.64,1.81,1.81,0,0,1-.5.6,1.39,1.39,0,0,1-.63.18A1.73,1.73,0,0,1,92.25,121.12Zm-5.4-6.1H89.7a2.25,2.25,0,0,0-.35-1.21,1.21,1.21,0,0,0-1.06-.58,1.26,1.26,0,0,0-1,.48A2.11,2.11,0,0,0,86.85,115Zm2.84,1.7.9.14a2.74,2.74,0,0,1-.81,1.5,2.32,2.32,0,0,1-3.2-.32,3.65,3.65,0,0,1-.67-2.37,3.82,3.82,0,0,1,.68-2.46,2.07,2.07,0,0,1,1.71-.85,2,2,0,0,1,1.65.83,3.8,3.8,0,0,1,.66,2.41v.28H86.8a2.66,2.66,0,0,0,.49,1.58,1.31,1.31,0,0,0,1,.54C89,118,89.44,117.57,89.69,116.72Zm-10.55,2v-8.58h.93v4.25l3.5-4.25h1.26l-3,3.48,3.09,5.1H83.73l-2.51-4.34-1.15,1.37v3Z"/><polygon class="cls-2" points="165.56 155.77 166.55 156.49 166.94 155.55 166.34 155.11 165.56 155.77"/><polygon class="cls-1" points="75.88 143.27 75.74 145.33 77.61 144.62 77.9 145.71 75.99 146.13 77.22 147.65 76.27 148.28 75.31 146.63 74.35 148.28 73.4 147.65 74.62 146.13 72.72 145.71 73.01 144.62 74.88 145.33 74.75 143.27 75.88 143.27"/><path class="cls-1" d="M98,27.76a1.93,1.93,0,1,1-1.93-1.93A1.93,1.93,0,0,1,98,27.76h0"/><path class="cls-1" d="M103.71,49.16a1.94,1.94,0,1,1-1.95-1.93h0a1.92,1.92,0,0,1,1.93,1.93h0"/><path class="cls-3" d="M70.77,141.34a1.66,1.66,0,1,1-1.66-1.67,1.67,1.67,0,0,1,1.66,1.67"/><path class="cls-4" d="M70.77,141.34a1.66,1.66,0,1,1-1.66-1.67,1.67,1.67,0,0,1,1.66,1.67Z"/><path class="cls-3" d="M33.16,45.26a1.66,1.66,0,0,1-3.32,0,1.65,1.65,0,0,1,1.65-1.67h0a1.65,1.65,0,0,1,1.65,1.65h0"/><path class="cls-4" d="M33.16,45.26a1.66,1.66,0,0,1-3.32,0,1.65,1.65,0,0,1,1.65-1.67h0a1.65,1.65,0,0,1,1.65,1.65Z"/><path class="cls-3" d="M1.36,95.57a65.87,65.87,0,0,1,4-10.9A10.73,10.73,0,0,0,5.11,86c-.06,1,.48,1.77,2.73,2.06a9.26,9.26,0,0,0,2.78-.76,6.36,6.36,0,0,1,3.54.08c.77.08,1-.67.26-1.25a6.4,6.4,0,0,1-2.5-2.34c-.39-1.44-.8-2.88-1.2-4.32a1.76,1.76,0,0,0-2.43-.55L8.17,79c.71-1.34,1.43-2.69,2.18-4.06a3.68,3.68,0,0,0,.34.69,23.65,23.65,0,0,0,4.71,1c1.36-.41,1.32-.82.36-1.38h.39c.89,0,1.56-.38,1.56-.77s-.58-.5-1.61-.7c-.81-.15-1.4.08-1.56.44l-.93-.82a2.55,2.55,0,0,0-2-.75l1.1-2c.14.85,1,1.39,2.27,1.74a43.37,43.37,0,0,1,9-2c1.73-.64,1.08-1.17.09-1.67-.92,0-1.1-.67-3.52-.56-1.75-.38-3.57-.55-5.31-.92a6.18,6.18,0,0,0-.83.27c.49-.88,1-1.77,1.44-2.66.2,1.39,1.3,2,4.26.85,2-1.53,3.87-3.68,6.13-3.82.78-.58,1-1.41.2-2.83a17.05,17.05,0,0,1-5-2.29A3.84,3.84,0,0,0,20,56.5c.19-.41.37-.82.55-1.24v.08c.34.58,1.05,1.19,4.23,2.07a9.18,9.18,0,0,0,4.42-1.63c.37.2.75.28,1.12.47,1.06.25,1.74,0,1.6-1.39a5,5,0,0,0-.68-2.77c-1.34-1.36-2.64-2.72-4-4.08a2.32,2.32,0,0,0-1.18-.48c.27-.39.54-.79.82-1.17a3.23,3.23,0,0,0,1.93.74A8.91,8.91,0,0,0,35.06,47q3.4-1.38,4.09-6.19a3.11,3.11,0,0,0-.66-2.56,7.18,7.18,0,0,0-2.75-1.53c-1.11-.87-1.92-.2-2.76.39h0A159.89,159.89,0,0,1,43.51,21.91c.81-.81,1.58-1.61,2.35-2.38-.9,1.72-2.25,3.15-3.15,4.87-1.06,1.38-2,2.9-3,4.28A1.59,1.59,0,0,0,40,30.91a1.72,1.72,0,0,0,.73.32,23.22,23.22,0,0,0,3.74,1.37c1.37.46,1.74-.08,1-1.22a5.3,5.3,0,0,0-1.13-2c-.16-.54-.79-.28-1.37-.06-.89,0-1.08-.34-.56-1s1.39-.66,1.76-1.84c.56-1.84,2.16-3.29,3.33-4.81.4-.43.79-.37,1.2.17.28.7.28,1.52.56,2.23.61,1.2,2,.59,1.47-.59l-2.24-4.21c-.2-.8-.73-1.26-1.41-1,.53-.52,1.06-1,1.58-1.52.08,2,1.16,3.29,2.07,5.14.28.78.72,1.14,1,.86A7.26,7.26,0,0,0,51.8,24c.85,1.3,1.93.53,1.81-.47-.2-1.8-.55-3.6-.75-5.51s-.85-2.26-1.25-.85h0a2.11,2.11,0,0,1,.49-1.91,3.94,3.94,0,0,1,2.3-.85c.35,0,1.08.18.85.35A.89.89,0,0,0,54.89,16a.93.93,0,0,0,.78.47,1.2,1.2,0,0,1,.85,1.12,14.88,14.88,0,0,1-.24,3.26c.11,1.62,1.37,1.74,1.46-.48-.07-1.68-.14-3.36-.22-5a5.57,5.57,0,0,0-1-2.75,1.7,1.7,0,0,0-.91-1c.48-.26,1-.49,1.47-.7-.28.41.11.92.35,1.41C58,13.69,59.15,16.59,61,16c.49-.49,1.09-1,1-1.62,0-1-.23-1.31-.83-.82-.33.75-.8.44-1.08.37-.29-.66-.62-.66-.3-1.37a6.58,6.58,0,0,0,4-.85l1.28.07c.22.94,1.38,1.11,2.68,1.18l5.32-.23c1.26-.69,2.1-1.37,0-2-2.25-.42-4.59-.76-6.93-1q.76.06,1.56.18c5,.3,10.09.29,15,.61-.33.13-.45.53-.45,1.1-.21,1.36.76,2.48,4.33,3.37,1.17-.22,2.32-.36,3.49-.58.81-.34.81-.83,0-1.48l-6-2.3a2.18,2.18,0,0,0-.47-.21A52.52,52.52,0,0,1,95,12.26c1.18,1.11,2.31,2.17,3.39,3.21l-.19.06a2,2,0,0,0-1.38,1.9c-.23.35-.5.83-.73,1.18s-.49,1.48,1.2.44c.38-.24.58.46.86,1a7.93,7.93,0,0,1,.16,2.12,9,9,0,0,1-2.69,1.91c-.81.83-.84,1.56,0,1.61,1.12-.26,2.38-1,3-.38-.14.64-.08,1.33.53,1.09a29.52,29.52,0,0,0,4.22-1.13c1-.36,1.81-.87,1.17-2.31-.21-.44-.41-.89-.62-1.33a19.6,19.6,0,0,1,2.83,5.49A2,2,0,0,0,104.6,27c-1.13.8-2.27,1.51-3.4,2.32-2.19,1.1-1.07,2-.61,2.81,1.19,2.14,2.16,4.17,3.13,6.2,1.09.37,2.17.9,3.24-1-.15.6-.31,1.22-.46,1.83l-.32.17a4.92,4.92,0,0,0-2.4,1.09,39.61,39.61,0,0,0-1,5.94c0,1.32,1.33,1.78,2.21.18.16-.33.31-.66.45-1a54.53,54.53,0,0,0-.34,6.77c-1-1.26-1.84-1.09-2.32-.21,0,.56-.24,1.12-.29,1.68-.55.67-.78,1.39-1.33,2.07-.48.87-.16,1.07,1,.62a8.71,8.71,0,0,0,2.78-1.9,1.9,1.9,0,0,0,.23-.39c0,.85.09,1.68.16,2.53a2.15,2.15,0,0,0-1.3.51,27.17,27.17,0,0,1-3.53,1.58,1.42,1.42,0,0,0-.12,2.59,2,2,0,0,1,1.7,2.15c0,1.09-.43,1.25-.9,1.26a5.61,5.61,0,0,1-1.2-1.46c-.6-.74-1-.45-1.11.85A3,3,0,0,0,100.21,66a13.47,13.47,0,0,0,4.61-.11c.92.06,1.3-.47,1.46-1.27V63.32c.13.69.28,1.38.44,2.07a36.38,36.38,0,0,1,2.69,5,2.3,2.3,0,0,0-1.89-.75,2.77,2.77,0,0,0-1.74,1c-1.06.54-1,1.08-.69,1.61s.85.88,1.27,1.32c-.73.14-1.32.37-1.19.84-.06.57.37.52,1,.48.54-.56,1.1-.63,1.63-1.19a9,9,0,0,0,2-1.07A1.63,1.63,0,0,0,110,71.5c.29.64.59,1.28.89,1.92a1.77,1.77,0,0,0-1.4.57,12.09,12.09,0,0,0-2.08,1.55c-1.38,1.08-.62,1.93,0,2.79a18.2,18.2,0,0,1,2.06,3.41,4,4,0,0,0,3.58,1.2c.79-.38,1.54-.79,1.51-1.76a46.07,46.07,0,0,0,2.27,4.49,2.48,2.48,0,0,0-.87-.29c-.66,0-1.44.17-2,.15s-.79-.29-1.31-.33a2,2,0,0,0-1.32,1.13,4,4,0,0,0,0,2.45,4.23,4.23,0,0,0-1.1,2.1c.21,1.5,1.51,1.71,3.49,1a22.83,22.83,0,0,0,3.82-3.66,2.89,2.89,0,0,0,.19-1.16c.39.62.78,1.24,1.19,1.86a1.43,1.43,0,0,0-.73.2,5.54,5.54,0,0,0-2.92,2.68c-.61,1.22-.27,1.66.5,1.75a6.65,6.65,0,0,0,3.43,0c.91-.36,1.66-.82,1.24-1.9a9.19,9.19,0,0,1-.36-1c1,1.52,2.09,3,3.12,4.48a2.39,2.39,0,0,0-1.35,0c-1.81,1.25-2.8,2-3.45,3.29-.16.85.27,1.08,1.26.88,2.08-.74,3.58-1.64,4.24-3v-.2a8,8,0,0,1,1,2.25,1.43,1.43,0,0,0-1.29-.08,11.12,11.12,0,0,0-3.13,1.49,4.42,4.42,0,0,0-1.8,2.11c-.61,1.24-.11,1.89,1.48,2a21.65,21.65,0,0,0,2.44-1.14,9,9,0,0,0,2.75-2.69c.11.4.23.79.37,1.17-1.49.41-2.06,1.29-3.16,2.49a1.37,1.37,0,0,0,.17,1.93,1.67,1.67,0,0,0,.28.18,2.69,2.69,0,0,0,1.92-.51,4.51,4.51,0,0,1,2.39-.14c.17.27.36.54.56.83a10.3,10.3,0,0,0-2.55,1.1,2.89,2.89,0,0,0-2,2.06c.07.52.39,1,1.28.83a27,27,0,0,1,2.54-1.85c.12.06.44-.11.43,0,0,.29-.16.77.84.42.22-.4.22-.42.43-.83v-.33c.44.56.93,1.12,1.42,1.66a.25.25,0,0,0-.16.06,6.9,6.9,0,0,0-2.58,1.19,34.7,34.7,0,0,1-3.34,1c-.52.46-.07,1,.33,1.43.92-.32.81-.09,1.2,0-.74.43-1,1-1.79,1.45-.75.87-.29,1.47.23,2.1a4.55,4.55,0,0,0,4.26.45,5.87,5.87,0,0,0,1.52-3.37,25.14,25.14,0,0,1,2.14-2.46h0l.69.65a2.65,2.65,0,0,0-.57.15,5.4,5.4,0,0,0-1.87,2.74,1.71,1.71,0,0,0,.89,1.74c.78,1,1.15.54,1.44-.36a14.91,14.91,0,0,1,.87-3.37v-.28a12.63,12.63,0,0,0,1.7,1.19c-1.53.68-1.57,1.67-.93,2.79a4.79,4.79,0,0,0,2.61,2.71c5.22,1.69,8.81,1.78,11.66,1.35a2,2,0,0,0,1.95-2,2,2,0,0,0-.43-1.19,22.55,22.55,0,0,0-6.27-2.72,50.6,50.6,0,0,0,12-2.22h-.05l-4.53,3.33c-.78.5-1,1.42.17,2.3a4.49,4.49,0,0,1,2.43,1.49c.6.55,1.38.79,1.38-.3a8.42,8.42,0,0,0-.82-2.4c2.38-1.6,5.48-4.76,6.54-3.83a2.56,2.56,0,0,0,1.75,1.25,1.82,1.82,0,0,0,1.39-1.48,2.5,2.5,0,0,0-1.28-2.3,5.21,5.21,0,0,0-.79,0l1.57-.53a4.92,4.92,0,0,0,.3.61,6.93,6.93,0,0,0,1.24,1.84c-.13.52-.48,1-.62,1.54.35.93.57,1.09,1.72.38a6.31,6.31,0,0,0,.92-2.43c1.77-.27,3.45-.38,4.71-1.49.52-.47,1-.16,1.44-.34.67.91,1.41,1.3,1.76,1.07a10.24,10.24,0,0,0,.11-3.22,2,2,0,0,0-1.16-.85h0a6.87,6.87,0,0,0,1.41-.47,1.42,1.42,0,0,0,0,1.24,7.66,7.66,0,0,1,.8,2.93c.35.78.7.88,1.05.48a5.63,5.63,0,0,0,0-2.45c.29-1,1.61-1.44,3.41-1.63,2.76-.64,5.54-1.27,7.82-2,.75-.42.75-.76,0-1-1.75.53-3.19.7-4.93,1.23-.31-.28-.65-.32-.38-.83a62.37,62.37,0,0,0,10.1-3.72,3.66,3.66,0,0,0,2.17-.16,2.4,2.4,0,0,0-.84-2.78l.66-.32v.17c.31,1.06.92,2.09,1.23,3.16.55.94,1.27.45,1.59-.25a3.41,3.41,0,0,1,1.12-2.6,17.78,17.78,0,0,1,9.83-.45,9.05,9.05,0,0,1,5.36,4.36l5.1,9.18a6.91,6.91,0,0,1,.32,4l-.87,2.27c-.85.51-1.42,5.12-1.51,5.37a61.52,61.52,0,0,1-2.4,6.17c-.24.89.39,1.42.91.62a21.08,21.08,0,0,0,1.77-5.34c.25-.29.72-.6.7.08a20.64,20.64,0,0,1-1.4,4.8c-1.19,2.42-2.13,4.78-3.32,7.19-1.73,2.53-2.8,5.32-5.23,7.16a9.37,9.37,0,0,1-4.24.26l-11.75-.82a39.4,39.4,0,0,0-7.6.26l-8.07,3.84c-1.77,1.86-4.5,2.49-8.18,2.25a48,48,0,0,0-22.58,3.75c-1,.85-6.34,2.41-7.58,2.65-2.55.88-5,1.53-7.11.53-2.46-1.6-5.74-.53-8.89.08-2.27.43-2.07,1.49-1.71,2.42.29.74-.52,1-1,1.28-1.06-.8-2.14-.57-3.29.51-1.38,1.28-3.74.89-5.59,1.21a2.28,2.28,0,0,0-2.06.71c-.22.16-.22.42,0,.79s1.39-.16,1.94,0c-.45.7-1.9,2.32-2.35,3-.94.62-1.3.37-1.15-.78.22-.73.45-1.45.67-2.18-.3-.75-1.33-.94-3.06-.57l-1.07,2.58c-1.54,4-6.34,6.92-11.27,10.55-1.17,1.57-1.1,3.15-.52,3.78a1.85,1.85,0,0,0-.08.47A72.21,72.21,0,0,1,82.37,175c.26-.2.35-.81.19-2.09A25.66,25.66,0,0,0,81,165.73a6.48,6.48,0,0,0-3.51-2.18,4,4,0,0,0-3.88.58c-1.51,1.46-.59,3.43.44,5l-1.14-1-5.22-12.19.25.41,1.86,3c.54.94,1.31,1.28,2.55.26a35.57,35.57,0,0,1,3.86-4,1.32,1.32,0,0,0-.33-1.84,1.14,1.14,0,0,0-.31-.16,6.59,6.59,0,0,0-2-1,4.59,4.59,0,0,0-2.69-.27v.35c.78.47,1.32,1.07,2.11,1.55a4,4,0,0,1,.42,1.44c-.74.91-1.09.56-2.06.35-.37-.66-.69-.79-.51-1.47-.11-1.51-.48-1.69-1-1.78-.71.57-1.45.82-1.89,1.48a1.07,1.07,0,0,0-.4,1.31l-1-2.28-1.34-1.24a4.26,4.26,0,0,0,1-.16,27.4,27.4,0,0,0,3.06-2.4,5.13,5.13,0,0,0,1-2.26c-.26-1.35-1.51-1.6-2.55-1.47a32.86,32.86,0,0,0-4.19-5A2.52,2.52,0,0,0,61,139.21a18.64,18.64,0,0,0-2.94.75c-1.28.09-1.23.88-1,1.78.65,1.19,1.29,2.31,2,3.39-1.54-2.25-3.42-5.1-5.2-7.68a2.16,2.16,0,0,1,.66.86c.49.91,1.09,1.34,2.51.77a19.71,19.71,0,0,1,4.19-2.26c.9-.45.79-1.39,0-1.93.68-1.47,0-1.71-1.22-2.43-2.06-.15-2.29.27-2,1.54a23.88,23.88,0,0,0-3.42.89,1.76,1.76,0,0,0-1.86.94c-.69-1-1.34-1.89-1.92-2.68H51c2.11-.6,4.13-1.71,6.86-2.65.94-.09,1.72-.27,2.67-.32,1.13-.21,1.13-1,.21-1.16a17.73,17.73,0,0,0-4.77-.13,39.89,39.89,0,0,0-6,1.5.9.9,0,0,0-.67.89c-.74-.83-1.2-1.14-1.25-.65-2.63-2.28-5.16-5.53-8-8.4a2.14,2.14,0,0,0,1.3-.07,8,8,0,0,0,2.1-3.48,2.72,2.72,0,0,0-1.08-3.5c-2.89-.57-4.9-1.47-7.27-2a8.13,8.13,0,0,0-2.56,1.21c-1,.57-.77,1.08,0,1.55a27.09,27.09,0,0,1,4.85,3.75A16.61,16.61,0,0,0,29.73,116a56.34,56.34,0,0,1-10.28-3c1.53-.43,1.84-1.94.55-3.44a4.25,4.25,0,0,0-.46-.4c.09-.08.11-.27,0-.62a51.12,51.12,0,0,1-1.32-5.43c-.65-.77-1.15-.61-1.57.31A7.45,7.45,0,0,0,18,108.21c-.86-.46-1.8-.85-2.79-1.29a42.78,42.78,0,0,1-7.93-5.15c-1.38-2-2.08-3.62-1.35-5,.24-.08,1.55-1.32,1.38-.56-.24,1.1-.62,3.17.47,3.31,1.86-.42,2-2.48.58-4.89-.42-.7.17-1.57-.14-2.31C7.39,91.16,6.76,90,5.92,88.8c-1-1-2-.65-2.64.89-.62,2-1.26,3.89-1.92,5.88"/><path class="cls-3" d="M68.68,217.67l-.73.06c.06-1.16-.2-1.82-1.21-1.52-3.26-2.32-3.23-2-3.52-1.42-.22.32.1.73.25,1,.47.45.85.91.7,1.49-2.22-.25-4.09-3.13-5.57-5.68a26.84,26.84,0,0,1-.06-11.83c.9-4,2.47-7.15,7.28-7.42A38.91,38.91,0,0,1,82,197.76c4.8,3.07,4.3,7,2.38,11.35a24.57,24.57,0,0,1-11.76,7.61,3.68,3.68,0,0,1-3.74-1.45,5,5,0,0,0-.22,2.43"/><path class="cls-5" d="M68.68,217.67l-.73.06c.06-1.16-.2-1.82-1.21-1.52-3.26-2.32-3.23-2-3.52-1.42-.22.32.1.73.25,1,.47.45.85.91.7,1.49-2.22-.25-4.09-3.13-5.57-5.68a26.84,26.84,0,0,1-.06-11.83c.9-4,2.47-7.15,7.28-7.42A38.91,38.91,0,0,1,82,197.76c4.8,3.07,4.3,7,2.38,11.35a24.57,24.57,0,0,1-11.76,7.61,3.68,3.68,0,0,1-3.74-1.45A5,5,0,0,0,68.68,217.67Z"/><path class="cls-6" d="M150.54,156.19c-.86.11-1.71.24-2.55.37l.2-.2a14.22,14.22,0,0,1,2.35-.17"/><path class="cls-6" d="M215.69,90.38h0a68.27,68.27,0,0,0,.91,6.83,24.29,24.29,0,0,1-.91-6.5v-.33"/><path class="cls-6" d="M44.26,34.23c1.18,1.6.46,1.9-.54,1.88a36.77,36.77,0,0,1-6.9-1.35c-1.15-.75-.87-3,1.06-3.57,3,.45,4.52,1.9,6.38,3"/><path class="cls-6" d="M107.48,32a20.15,20.15,0,0,1-.19,3c.06-1,.12-2,.19-3"/><path class="cls-6" d="M171.41,107.18l.48-.1a2.73,2.73,0,0,1-.48.1"/><path class="cls-6" d="M25.68,103.73c-.88.86-.93,1.46,0,1.56a5.68,5.68,0,0,1,2.24-.29c.46.36.48.57.11,1.25-.85.43-1.3,1.1-2.15,1.53-1-.39-1.49-.61-1.93-.48-1.2,0-.88.93-.38,1.67l1.23.93a2,2,0,0,1-1.45,1.2c-.89.21-.74-.69-.81-1.13a11.37,11.37,0,0,0,.1-4.27c0-1.44-.43-1.77-1.27-1-.61.24-.86,1-.93,2.12a42.24,42.24,0,0,0,1.5,6.26c.78,1.61,2,1.1,2.91.68a52.33,52.33,0,0,0,2.67-4.8c.91-1,1.65-1.78,2.55-2.73.29-1.25.16-2.42-1.11-2.92a4,4,0,0,0-3.27.41"/><path class="cls-6" d="M59,122.49a1.16,1.16,0,0,1,.17-1.19c.34-.25.33-.66,1.4.54.26,1.11.63,2.12-.28,3.14-.65.56-3.61.74-5.55,1a21.74,21.74,0,0,0-5.12,2.94c-1.38.69-2.4.64-3-.15a7.48,7.48,0,0,1-2.41-2.91,1.86,1.86,0,0,1,1.57-2.11h.13a15.79,15.79,0,0,1,3.28.52,7.5,7.5,0,0,0,4.48-1.7c1.49-.64,1.94.22,1.34,1.16a9.38,9.38,0,0,0-2.66.63c-.44.72-.31,1,.4.88a7.39,7.39,0,0,1,3.15-1.07c1.15-.53,3.68.5,3.15-1.7"/><path class="cls-6" d="M2.3,106.52l-.08-.25a4.67,4.67,0,0,0,.72.42l-.64-.17"/><path class="cls-6" d="M73.09,12.57c1.26-.69,2.1-1.37,0-2-2.76-.52-5.68-.91-8.56-1.2a25.18,25.18,0,0,0-6.33,1c-1.77.42-1.07,1.21-.71,1.94.58,1.34,1.72,4.24,3.55,3.6.49-.49,1.1-1,1-1.62,0-1-.23-1.3-.83-.82-.33.75-.8.44-1.08.37-.29-.65-.62-.66-.31-1.37a6.52,6.52,0,0,0,4-.86l1.28.08c.22.94,1.38,1.11,2.68,1.18l5.32-.23"/><path class="cls-6" d="M84,10.58c-1.32-.69-1.74-.19-1.74.84-.2,1.36.77,2.48,4.34,3.37,1.17-.22,2.32-.36,3.49-.58.81-.34.81-.83,0-1.48L84,10.58"/><rect class="cls-3" x="97.4" y="89.01" width="8.94" height="8.94" rx="0.79" transform="translate(-36.26 99.41) rotate(-45)"/><path class="cls-6" d="M101.7,108c.45,0,.66.3.66.74a.82.82,0,0,1-1.64,0c0-.43.53-.75,1-.75"/><rect class="cls-3" x="101.42" y="105.67" width="8.94" height="8.94" rx="0.79" transform="translate(-46.86 107.14) rotate(-45)"/><path class="cls-6" d="M57.82,20.34c-.07-1.68-.14-3.36-.22-5a5.66,5.66,0,0,0-1-2.75c-.46-1-1.07-1.31-1.84-.9a13.6,13.6,0,0,0-3.94,2.23,3.39,3.39,0,0,0-2.12,2.75c.06,2.1,1.16,3.35,2.08,5.23.28.78.72,1.14,1,.86q0,.64.09,1.29c.85,1.3,1.94.53,1.81-.47-.2-1.8-.55-3.59-.75-5.51s-.84-2.26-1.25-.85h0a2.11,2.11,0,0,1,.49-1.91,3.94,3.94,0,0,1,2.3-.85c.35,0,1.09.18.85.35A.89.89,0,0,0,55,16a.93.93,0,0,0,.78.47,1.2,1.2,0,0,1,.85,1.12,15.52,15.52,0,0,1-.24,3.26c.11,1.62,1.37,1.73,1.46-.48"/><path class="cls-6" d="M45.87,19.52c1.25-1.94,2.36-1.55,2.67-.29l2.24,4.21c.53,1.18-.86,1.79-1.47.59-.28-.7-.28-1.53-.56-2.23-.41-.54-.8-.6-1.2-.17-1.17,1.52-2.77,3-3.33,4.81-.37,1.23-1.2,1.14-1.76,1.84s-.33,1,.56,1c.58-.22,1.21-.49,1.37.06a5.43,5.43,0,0,1,1.13,2c.7,1.15.33,1.69-1,1.23a23.22,23.22,0,0,1-3.74-1.37,1.6,1.6,0,0,1-1.32-1.83,1.51,1.51,0,0,1,.32-.72c1.06-1.39,2-2.89,3-4.28.9-1.72,2.26-3.16,3.16-4.88"/><path class="cls-6" d="M49.16,27.21c.41-.87,1-.87,1.74,0,.38.73.75,1.46,1.12,2.2.62,1,.32,1.38-.91,1.11-.4-.31-.8-.49-1.2-.79-.85.31-1.7.5-2.57.82-1.53.12-2.23-1-.7-1.48.74-.29,1.43-.37,2.16-.65l.36-1.2"/><path class="cls-6" d="M44.26,34.23c1.18,1.6.46,1.9-.54,1.88a36.77,36.77,0,0,1-6.9-1.35c-1.15-.75-.87-3,1.06-3.57,3,.45,4.52,1.9,6.38,3"/><path class="cls-6" d="M33,37.05c.83-.59,1.64-1.26,2.76-.39a7.08,7.08,0,0,1,2.77,1.54,3.11,3.11,0,0,1,.66,2.56q-.69,4.83-4.08,6.19a8.94,8.94,0,0,1-6.24.15c-1.71-.27-3-.76-1.31-2.75A70.56,70.56,0,0,1,33,37.05"/><path class="cls-6" d="M36,41.26a1.77,1.77,0,0,1,1.2,0c.3.68,0,1.45-.93,2.58-.69.72-1,1.25-1.72,2-.5.17-1.17.47-1-.33a4.31,4.31,0,0,1,.93-2.46A6.24,6.24,0,0,1,36,41.26"/><path class="cls-6" d="M24.45,48.82q1-2.1,2.83-.81c1.34,1.36,2.64,2.72,4,4.08A4.8,4.8,0,0,1,32,54.86c.15,1.38-.53,1.64-1.59,1.4-.37-.2-.75-.28-1.12-.48a9.18,9.18,0,0,1-4.42,1.63c-3.18-.88-3.88-1.5-4.23-2.07A5.73,5.73,0,0,1,22,51.89c.8-1,1.61-2,2.41-3.07"/><path class="cls-6" d="M18.92,57.67c.14-1,.78-1.44,2.55-.9a17.05,17.05,0,0,0,5,2.29c.85,1.42.58,2.25-.2,2.83-2.26.14-4.14,2.29-6.13,3.82-3.12,1.18-4.17.48-4.28-1.07a18.9,18.9,0,0,1,1.36-3.51l1.7-3.46"/><path class="cls-6" d="M24.11,68.67c1,.51,1.64,1-.09,1.67a43.37,43.37,0,0,0-9,2c-1.7-.48-2.7-1.28-2.13-2.76-.05-1.34.94-2,2.42-2.4,1.74.37,3.56.54,5.31.92,2.42-.1,2.6.55,3.52.56"/><path class="cls-6" d="M13.61,73.37l.93.82c.16-.36.75-.59,1.56-.44,1,.2,1.61.31,1.61.7s-.67.76-1.56.77h-.39c1,.56,1,1-.36,1.38a22.33,22.33,0,0,1-4.71-1,2,2,0,0,1,0-2.49c.78-.73,1.74-.75,3,.25"/><path class="cls-6" d="M8.11,79a1.77,1.77,0,0,1,2.49.26.91.91,0,0,1,.11.16c.41,1.44.81,2.88,1.21,4.32a6.54,6.54,0,0,0,2.5,2.34c.73.58.5,1.33-.26,1.25a6.36,6.36,0,0,0-3.54-.08A9.56,9.56,0,0,1,7.84,88c-2.25-.29-2.79-1.11-2.73-2a17.41,17.41,0,0,1,3-7"/><path class="cls-6" d="M3.31,89.67C4,88.12,5,87.8,6,88.77c.84,1.16,1.48,2.36,2.32,3.52.31.74-.28,1.61.14,2.31,1.42,2.41,1.28,4.47-.58,4.89-1.09-.14-.72-2.21-.47-3.31.17-.76-1.14.48-1.38.56-.73,1.43,0,3,1.34,5a44,44,0,0,0,7.93,5.15c1,.44,1.94.83,2.81,1.29a7.37,7.37,0,0,1-1.34-4.74c.42-.92.92-1.08,1.57-.31a51.12,51.12,0,0,0,1.32,5.43c.09.35.07.54,0,.62.17.13.32.26.47.4,2.1,2.44,0,4.9-4.79,2.75A46.24,46.24,0,0,0,8,108.67c-1.56-.65-3.2-1.14-4.75-1.79C.74,105.8-.24,103.56.05,100.36A107.13,107.13,0,0,1,3.31,89.67"/><path class="cls-6" d="M10.07,88.6c-1.36.25-1,1-.31,1.89.77.69,1.25.25,1.94-.39.14-.13.56.1.71,0a5,5,0,0,1,1.82,1.33.76.76,0,0,0,.86-1.25c-.76-1.3-1.15-1.51-2.31-1.51a14.45,14.45,0,0,0-2.71-.07"/><path class="cls-6" d="M25.68,103.73c-.88.85-.93,1.46,0,1.56a5.68,5.68,0,0,1,2.24-.29c.46.36.49.57.11,1.25-.85.43-1.3,1.1-2.15,1.53-1-.4-1.5-.61-1.93-.48-1.2,0-.88.93-.38,1.66.4.32.81.63,1.23.94a2,2,0,0,1-1.45,1.2c-.89.21-.74-.69-.81-1.13a11.37,11.37,0,0,0,.1-4.27c0-1.44-.43-1.77-1.27-1-.61.24-.86,1-.93,2.12a43.49,43.49,0,0,0,1.49,6.26c.79,1.61,2,1.1,2.92.67A49.9,49.9,0,0,0,27.52,109c.91-1,1.65-1.78,2.55-2.73.28-1.25.16-2.42-1.11-2.92a4,4,0,0,0-3.27.41"/><path class="cls-6" d="M41.45,122.22a8.19,8.19,0,0,0,2.1-3.49,2.7,2.7,0,0,0-1.08-3.49c-2.89-.57-4.91-1.48-7.27-1.95a8.34,8.34,0,0,0-2.56,1.2c-1,.58-.76,1.08,0,1.56a25.88,25.88,0,0,1,6,4.94,2.33,2.33,0,0,0,2.88,1.23"/><path class="cls-6" d="M36,105.87c1,.53,1,.79,0,1.33a4.54,4.54,0,0,0-2.14,1.38l-.28.3c1.87.36.51,2-.38,1.81-1.06-.19-1.41,1.59-1.91,2.54a3.43,3.43,0,0,1-2.88,1.13c-1.7-.11-1.75-1.07-1.57-2.15a12.69,12.69,0,0,1,4-3.92A9.76,9.76,0,0,1,36,105.87"/><path class="cls-6" d="M59,122.49a1.16,1.16,0,0,1,.17-1.19c.34-.26.33-.66,1.4.54.26,1.11.63,2.12-.28,3.14-.65.56-3.61.74-5.55,1a21.74,21.74,0,0,0-5.12,2.94c-1.38.69-2.4.64-3-.15a7.48,7.48,0,0,1-2.41-2.91,1.86,1.86,0,0,1,1.57-2.11h.13a15.79,15.79,0,0,1,3.28.52,7.5,7.5,0,0,0,4.48-1.7c1.49-.64,1.94.22,1.34,1.16a9.38,9.38,0,0,0-2.66.63c-.44.72-.31,1,.4.88a7.39,7.39,0,0,1,3.15-1.07c1.15-.53,3.68.5,3.15-1.7"/><path class="cls-6" d="M50.08,130.44c-1.39.49-.35,2.65,1,2.77,2.11-.6,4.13-1.71,6.85-2.65,1-.09,1.73-.27,2.68-.32,1.13-.21,1.12-1,.21-1.16a17.73,17.73,0,0,0-4.77-.13,41.42,41.42,0,0,0-6,1.49"/><path class="cls-6" d="M58.09,134c-.32-1.27-.09-1.69,2-1.54,1.2.72,1.9,1,1.22,2.43.79.54.9,1.48,0,1.93a19.71,19.71,0,0,0-4.19,2.26c-1.42.57-2,.14-2.51-.77-.25-.65-1-1.14-1.67-1.69-.59-1.19.89-1.85,1.76-1.73a23.88,23.88,0,0,1,3.42-.89"/><path class="cls-6" d="M58.15,140c-1.28.09-1.23.89-1,1.78a90.35,90.35,0,0,0,5.58,8.91c1.37,1.66,2.48,1.6,3.56,1.3a27.4,27.4,0,0,0,3.06-2.4,5.13,5.13,0,0,0,1-2.26c-.26-1.36-1.51-1.6-2.55-1.47a32.38,32.38,0,0,0-4.19-5,2.53,2.53,0,0,0-2.54-1.56,18.64,18.64,0,0,0-2.94.75"/><path class="cls-6" d="M73.62,152.67a4.59,4.59,0,0,0-2.69-.27v.34c.79.48,1.33,1.09,2.12,1.56a3.93,3.93,0,0,1,.42,1.44c-.74.91-1.09.57-2.06.35-.37-.66-.69-.79-.51-1.46-.11-1.52-.48-1.7-1-1.79-.71.57-1.45.82-1.89,1.48-.76.59-.52,1.3,0,2l1.85,3c.55.94,1.32,1.27,2.56.25a38.39,38.39,0,0,1,3.86-4,1.31,1.31,0,0,0-.31-1.83,1.29,1.29,0,0,0-.33-.17,6.59,6.59,0,0,0-2-1"/><path class="cls-6" d="M73.66,164.13a4,4,0,0,1,3.88-.58A6.55,6.55,0,0,1,81,165.73a25.65,25.65,0,0,1,1.48,7.15c.38,2.86-.56,2.37-1.73,1.4a29.63,29.63,0,0,1-6.2-4.45c-1.18-1.63-2.69-4-.94-5.7"/><path class="cls-6" d="M96.77,17.43c.15-.83.38-1.6,1.39-1.9a1.64,1.64,0,0,1,2.1.75c2.31,2.22,3.18,4.46,4.25,6.68.64,1.44-.16,1.95-1.17,2.32a30.86,30.86,0,0,1-4.22,1.12c-.61.24-.67-.45-.53-1.09-.66-.66-1.93.12-3,.38-.81-.05-.78-.78,0-1.61a9,9,0,0,0,2.69-1.92,7.85,7.85,0,0,0-.16-2.11c-.29-.54-.48-1.24-.87-1-1.68,1-1.57,0-1.19-.44a7.06,7.06,0,0,0,.72-1.18"/><path class="cls-6" d="M89.77,24.55c-.23-.53-.41-1.15.55-1.14a3.37,3.37,0,0,1,2.32.13,1.14,1.14,0,0,1,.58,1.5l0,0c-.74,1.2-1.56,2.39-2.41,3.59-1.12.47-1.54.24-1.27-.69a11,11,0,0,0,.89-2.67c-.21-.26-.42-.51-.64-.76"/><path class="cls-6" d="M104.61,26.94c1.46-.56,2.49,0,3.1,1.73L107.14,37c-1.12,2.25-2.26,1.69-3.41,1.29-1-2-1.94-4.06-3.13-6.2-.46-.85-1.58-1.71.61-2.81,1.13-.8,2.27-1.52,3.4-2.33"/><path class="cls-6" d="M103.78,40.4a4.92,4.92,0,0,1,2.41-1.09c.94-.54,1.27-.36,1,.54A34.2,34.2,0,0,1,105,46.52c-.88,1.6-2.2,1.14-2.21-.18a40.92,40.92,0,0,1,1-5.94"/><path class="cls-6" d="M99.41,49c-.93,1.07-.46,1.55.23,2a22.31,22.31,0,0,0,4.4-.11,1.61,1.61,0,0,0,.2-2.26,1.8,1.8,0,0,0-.2-.19,3.42,3.42,0,0,0-2.44-.4,9.7,9.7,0,0,0-2.17,1"/><path class="cls-6" d="M102.77,52.09c.48-.89,1.29-1.05,2.33.23a2.6,2.6,0,0,1-.19,2.24,9,9,0,0,1-2.78,1.9c-1.14.46-1.46.25-1-.62.55-.68.78-1.4,1.33-2.07.05-.56.25-1.12.29-1.68"/><path class="cls-6" d="M104,57.21a27.17,27.17,0,0,1-3.53,1.58,1.42,1.42,0,0,0-.12,2.59,2,2,0,0,1,1.7,2.14c0,1.1-.43,1.26-.9,1.27A5.85,5.85,0,0,1,100,63.33c-.59-.74-1-.46-1.11.85A3,3,0,0,0,100.2,66a13,13,0,0,0,4.61-.1c.92.06,1.31-.47,1.46-1.27v-5.8c0-1.72-.44-2.81-2.2-1.6"/><path class="cls-6" d="M105.25,67a1.47,1.47,0,0,1,1.43,1.53,1.49,1.49,0,0,1-.33.88,12.83,12.83,0,0,1-2.77,1.84c-.64.22-1.15,0-1.34-1-.54,1.29-1.21,1.8-2.35,1.69-1.58.17-3.28-.73-2.19-2.12a5.47,5.47,0,0,1,3.17-.87,8.49,8.49,0,0,1,4.38-1.9"/><path class="cls-6" d="M105.74,70.67c-1.06.54-1,1.08-.69,1.61l1.27,1.32c-.73.14-1.32.37-1.19.84-.06.57.37.52,1,.48.54-.56,1.1-.63,1.63-1.19a9,9,0,0,0,2-1.07,2,2,0,0,0-.35-2.23,2.37,2.37,0,0,0-1.91-.76,2.77,2.77,0,0,0-1.74,1"/><path class="cls-6" d="M109.4,74c.91-.78,1.73-.83,2.45.18l2.36,5.85c.77,1.83-.21,2.37-1.24,2.88a4,4,0,0,1-3.57-1.16,17.89,17.89,0,0,0-2.06-3.41c-.64-.86-1.4-1.71,0-2.79A12.49,12.49,0,0,1,109.42,74"/><path class="cls-6" d="M112.57,85.18c.52,0,.83.31,1.31.33s1.39-.19,2-.15c1.75.29,1.9,1.6,1.49,2.79a22.89,22.89,0,0,1-3.83,3.66c-2,.76-3.28.55-3.49-.94a4.22,4.22,0,0,1,1.1-2.11,4,4,0,0,1,0-2.45,2,2,0,0,1,1.32-1.13"/><path class="cls-6" d="M118,89.05a1.2,1.2,0,0,1,1.67.34,1,1,0,0,1,.08.14,5.63,5.63,0,0,0,.51,2.09c.42,1.08-.33,1.54-1.24,1.9a6.65,6.65,0,0,1-3.43,0c-.77-.09-1.1-.53-.5-1.75A5.56,5.56,0,0,1,118,89.05"/><path class="cls-6" d="M121.72,95.06c1.26-.28,2.07.09,2,1.22-.66,1.31-2.16,2.21-4.24,3-1,.2-1.42,0-1.26-.88.66-1.24,1.64-2,3.45-3.29"/><path class="cls-6" d="M123.51,98.24c1.28-.37,1.77.3,1.9,1.45a8.7,8.7,0,0,1-2.91,3,21.72,21.72,0,0,1-2.44,1.15c-1.59-.07-2.09-.71-1.48-2a4.42,4.42,0,0,1,1.8-2.11,11.12,11.12,0,0,1,3.13-1.49"/><path class="cls-6" d="M130.1,109c.61-.37,2.51,1.15,2,1.87a25.14,25.14,0,0,0-2.14,2.46,6,6,0,0,1-1.52,3.38,4.58,4.58,0,0,1-4.26-.46c-.52-.62-1-1.23-.23-2.1.75-.42,1-1,1.79-1.45-.39-.13-.28-.36-1.2,0-.4-.46-.85-1-.33-1.44a29.82,29.82,0,0,0,3.34-1,7,7,0,0,1,2.58-1.18"/><path class="cls-6" d="M132.22,111.67c1.46-.5,1.23.25,1.33.75a16.07,16.07,0,0,0-.88,3.37c-.28.9-.65,1.37-1.43.36a1.71,1.71,0,0,1-.89-1.74,5.4,5.4,0,0,1,1.87-2.74"/><path class="cls-6" d="M135.24,113.31c-1.56.68-1.6,1.67-1,2.8a4.79,4.79,0,0,0,2.61,2.71c5.22,1.69,8.81,1.78,11.66,1.35a2,2,0,0,0,2-2,2,2,0,0,0-.43-1.19,23.43,23.43,0,0,0-10.35-3.45,14.34,14.34,0,0,0-4.48-.17"/><path class="cls-6" d="M137.21,115.67c-1.64-.34-1.33.32-.76,1.13a14.42,14.42,0,0,0,3.28,1.77,48.91,48.91,0,0,0,7,.38c1.39-.45,1.17-.59-.22-1-2.34-.52-4.46-1.25-6.79-1.77-.82-.13-1.64-.36-2.46-.49"/><path class="cls-6" d="M162.76,110.08a2.52,2.52,0,0,1,1.27,2.3,1.82,1.82,0,0,1-1.39,1.48,2.55,2.55,0,0,1-1.75-1.24c-1.06-.94-4.16,2.22-6.54,3.82a8.42,8.42,0,0,1,.82,2.4c0,1.09-.78.84-1.38.3a4.49,4.49,0,0,0-2.43-1.49c-1.22-.88-1-1.81-.17-2.3l4.52-3.33c2.64-1.36,5.08-2.21,7-1.94"/><path class="cls-6" d="M164.91,107.83c-1.88.28-1.65,1.32-1.08,2.28a6.34,6.34,0,0,0,1.24,1.84c-.12.52-.48,1-.62,1.54.35.93.57,1.09,1.72.38a6.15,6.15,0,0,0,.92-2.43c1.77-.27,3.45-.38,4.7-1.49.53-.47,1-.16,1.45-.34.66.91,1.41,1.3,1.75,1.07a9.68,9.68,0,0,0,.12-3.22,2,2,0,0,0-1.9-.82c-1,.22-1.68,1-3.54.31-1.53-.55-3.26.28-4.76.88"/><path class="cls-6" d="M194.32,97.24a2.45,2.45,0,0,1,1.14,3,3.55,3.55,0,0,1-2.16.15,62.87,62.87,0,0,1-10.11,3.73c-.27.51.07.55.38.83,1.74-.53,3.19-.7,4.93-1.23.76.29.76.63,0,1-2.28.75-5.06,1.38-7.82,2-1.8.2-3.12.64-3.4,1.63a6,6,0,0,1,0,2.45c-.35.39-.7.29-1.05-.48a7.66,7.66,0,0,0-.8-2.93,1.41,1.41,0,0,1,.7-1.87l.06,0a48.08,48.08,0,0,1,7.53-3.14c4.42-1.75,8.56-5.37,10.58-5.19"/><path class="cls-6" d="M219,117.06l.87-2.27a6.91,6.91,0,0,0-.32-4.05l-5.1-9.19A9.12,9.12,0,0,0,209,97.19a17.87,17.87,0,0,0-9.83.46,3.43,3.43,0,0,0-1.11,2.57c-.32.7-1,1.19-1.59.24-.3-1.06-.92-2.09-1.23-3.16a2.25,2.25,0,0,1,1.48-2.7,62.64,62.64,0,0,0,8.08-.92,27.88,27.88,0,0,0,7.64-4.28c2.22-1.12,3.08-.38,3.22,1.31a24.4,24.4,0,0,0,1.24,7.57,43.56,43.56,0,0,0,7.76,10.39c4.38,2,3.77,3.83,3,5.63a9.62,9.62,0,0,0-1.15,3.78h.07c.08,1.14.12,2.28.1,3.43l-3.8,6.8c-.41,3.32-.83,6.64-1.24,9.95-2,2.92-3.8,6.63-5.74,9.56-2.92,3.26-6.89,2.26-10.79,3a116.52,116.52,0,0,0-19.75,1.23c-4.14,1.27-9.21,3.06-15.47,3.7-5.4.66-10.86,1.52-15.79.23-1.94.29-4,.06-5.91.36-1.49,1.77-7.9,2-9.19,1.63l-16.76,3.41A16.93,16.93,0,0,0,113.6,166c-3.61,4.56-7.19,8.69-10.8,13.25-1.73,1-3.52,2-5.37,1.59-1.41-.45-3-.9-4.85-1.34-1,0-1.52-2.06,0-4.06,4.93-3.63,9.73-6.51,11.27-10.55.35-.86.71-1.72,1.07-2.58,1.73-.37,2.76-.18,3.06.57-.22.72-.45,1.45-.67,2.18-.15,1.15.21,1.4,1.15.78.45-.69,1.9-2.31,2.35-3-.55-.12-1.83.51-1.94,0s-.23-.63,0-.79a2.28,2.28,0,0,1,2.06-.71c1.85-.32,4.21.06,5.59-1.21,1.16-1.08,2.23-1.31,3.29-.51.5-.32,1.31-.54,1-1.28-.37-.93-.58-2,1.7-2.42,3.15-.61,6.43-1.68,8.89-.07,2.11,1,4.56.34,7.11-.54,1.24-.24,6.55-1.79,7.58-2.65a47.91,47.91,0,0,1,22.58-3.82c3.68.25,6.41-.38,8.18-2.25l8.07-3.82a39.4,39.4,0,0,1,7.6-.26l11.75.83a9.51,9.51,0,0,0,4.24-.27c2.43-1.84,3.5-4.63,5.23-7.16,1.19-2.41,2.13-4.77,3.32-7.19a20.17,20.17,0,0,0,1.4-4.8c0-.68-.45-.37-.7-.08a21.48,21.48,0,0,1-1.77,5.34c-.51.8-1.15.27-.91-.62a63.45,63.45,0,0,0,2.4-6.17c.09-.25.66-4.86,1.51-5.37"/><path class="cls-6" d="M86.33,174.36c-1.47.38-1.32.92-.91,1.64a21.67,21.67,0,0,1,4.36,2.18c1.46-.16,1.88-.85,1.27-2.42-.13-.72-.18-1.49-1.59-1.66-1,0-2.07.22-3.13.26"/><path class="cls-6" d="M127.83,105.89c1,.14,1.08.9,1,1.74-.21.41-.21.43-.42.83-1,.35-.9-.13-.85-.42,0-.1-.31.07-.43,0a27,27,0,0,0-2.54,1.85c-.89.14-1.21-.31-1.28-.83a2.91,2.91,0,0,1,2-2.06,10.32,10.32,0,0,1,2.6-1.12"/><path class="cls-6" d="M125.82,101.07c.32-.19.65-.36,1.09.37a2.35,2.35,0,0,1-.34,1.46,3,3,0,0,1,1.18.68c.27.63.31,1.24-.47,1.51a4.64,4.64,0,0,0-2.45.13,2.64,2.64,0,0,1-1.92.51,1.36,1.36,0,0,1-.63-1.82,1,1,0,0,1,.18-.28c1.15-1.26,1.72-2.15,3.36-2.56"/><path class="cls-6" d="M86,31.37c.44-.62.63-.59,1.4-.57.27.43.63.25.9.68.46-.4,1.26-.06,1.5.62-.12.62-.76,2.74-2,2a3,3,0,0,1-.57-1.66h0a1.39,1.39,0,0,1-1.25-1"/><path class="cls-6" d="M57.1,105.27c.5-.78,1.64-1.44,3.78-1.15A3.37,3.37,0,0,1,62.52,106c.78,0,1.23-.27,2-.25,1.4.3,1.4,1.37.76,2.77-.64,0-.77.54-1.7-.14.24-1.15-.51-1.12-1.24-1-.29.93-.65,1.63-1.15,1.81-.93.18-1.27-.22-1.23-1a5.25,5.25,0,0,0-1.11-2c-1.19.31-1.79-.32-1.75-.9"/><path class="cls-6" d="M50.71,90.06c.25-.91.84-1.19,1.84-1.34.94.32,1.51,1.23,2.14,1.57.49.15.73.42.9,1.12-.31,1-.88,1.47-1.86,1.16l-1.12-1.23A2.23,2.23,0,0,0,51.24,91c-.37-.18-.68-.4-.53-.9"/><path class="cls-6" d="M32.68,102.1c1.44-.07,1.77.75,1.22,1.77s-.58,1.73-1.31,1.74-1.32-.77-1.33-1.73,0-1.71,1.42-1.78"/><path class="cls-6" d="M38.61,103.35a.75.75,0,0,1,.62.8c0,.45-.29.82-.61.82a.84.84,0,0,1-.77-.76.91.91,0,0,1,.76-.86"/><path class="cls-6" d="M78.72,138a1,1,0,0,1,.89,1,1,1,0,0,1-.87,1c-.45,0-1.11-.38-1.11-.92a1.19,1.19,0,0,1,1.09-1"/><path class="cls-6" d="M90.25,125.24a1,1,0,0,1,0,2c-.45,0-1.1-.39-1.11-.93a1.19,1.19,0,0,1,1.09-1"/><path class="cls-6" d="M83.64,126.56a1.13,1.13,0,0,1,1.23,1,1.17,1.17,0,0,1-1.22,1c-.63,0-1.54-.37-1.54-.92s.9-1,1.53-1"/><path class="cls-6" d="M85,143a1.18,1.18,0,0,1,0,2.36c-.65,0-1.59-.45-1.59-1.11S84.35,143,85,143"/><path class="cls-6" d="M96.59,137.6c.93,0,1.82.57,1.83,1.28s-.88,1.31-1.81,1.32-2.29-.5-2.29-1.22,1.33-1.37,2.27-1.38"/><path class="cls-6" d="M69.26,139.24a.91.91,0,0,1,.77,1,.92.92,0,0,1-.77.78c-.42,0-1-.37-1-.86a1.11,1.11,0,0,1,1-1"/><path class="cls-6" d="M74.53,141.76a.87.87,0,0,1,.91.8.9.9,0,0,1-.9.83c-.47,0-1.15-.32-1.16-.77s.68-.86,1.15-.86"/><path class="cls-6" d="M69.59,134.31a.9.9,0,0,1,1,.81.92.92,0,0,1-.81,1h-.19c-.48,0-1.17-.35-1.18-.85s.68-1,1.16-1"/><path class="cls-6" d="M67.26,125c.79-.21,1.59-.47,1.85.26s-.43,1.24-1.12,1.52-1.65.6-2-.16.48-1.42,1.28-1.62"/><path class="cls-6" d="M65.93,121.48c1-.21,2-.47,2.35.25s-.6,1-1.46,1.25-2.41.92-2.87.17,1-1.47,2-1.67"/><path class="cls-6" d="M66.39,130.6c1.41.16,2.83.26,2.9,1.07s-1.23.69-2.49.65-3.55,0-3.78-.85,2-1,3.37-.87"/><path class="cls-6" d="M59.75,117.77a.81.81,0,0,1,0,1.62h0c-.38,0-.93-.31-.93-.76a1,1,0,0,1,.91-.86"/><path class="cls-6" d="M61.25,114.49a1,1,0,0,1,.94,1.14,1.05,1.05,0,0,1-.94,1c-.48,0-1.18-.4-1.18-1a1.28,1.28,0,0,1,1.17-1.11"/><path class="cls-6" d="M58,112c1,0,1.66-.1,1.74.8s-.94,1.4-2,1.41-2.25-.08-2.25-.66S57,112,58,112"/><path class="cls-6" d="M47.21,105.45c.59.1,1,.4,1,.84s-.54.78-1,.78a1,1,0,0,1-1-.76c-.16-.55.44-1,1-.86"/><path class="cls-6" d="M48.58,114.36c.59-.08,1.09,0,1.24.46s-.22.78-.72,1.07-1.15.35-1.38-.28a1,1,0,0,1,.71-1.23l.15,0"/><path class="cls-6" d="M50,116.51c.7-.12,1.31,0,1.48.66s-.26,1.14-.86,1.56-1.39.51-1.65-.4a1.43,1.43,0,0,1,.9-1.8l.1,0"/><path class="cls-6" d="M41.27,108.67a.61.61,0,0,1,.69.53.62.62,0,0,1-.53.7h-.16c-.37,0-.9-.24-.9-.58s.52-.64.89-.65"/><path class="cls-6" d="M46.14,120c.37.24-.53,1.3-1.23,2.4s-1.32,2-1.81,1.59-.28-1.5.52-2.47,2.15-1.74,2.52-1.52"/><path class="cls-6" d="M75.82,132.67c1.59,0,2.75.66,2.75,1.26s-1.65,1.13-3.24,1.15-2.51-.23-2.52-.83,1.41-1.57,3-1.58"/><path class="cls-6" d="M74.93,131.54c1.9,0,3-.7,2.58-1.44s-1.32-.92-2.6-.8-1.66.3-2.16.94.27,1.31,2.18,1.3"/><path class="cls-6" d="M89.23,130.36a2.65,2.65,0,0,1,2.62,2.25c.17,1.22-.81,2.2-2.42,2.08s-2.46-.9-2.47-2a2.29,2.29,0,0,1,2.27-2.29"/><path class="cls-6" d="M99,126.22a3.21,3.21,0,0,1,3.32,2.35c.21,1.28-1,2.32-3.08,2.2s-3.11-1-3.11-2.15a2.65,2.65,0,0,1,2.87-2.4"/><path class="cls-6" d="M71,102.51c1.7.14,2,.68,2,1.53a1.8,1.8,0,0,1-2,1.55,1.94,1.94,0,0,1-2-1.53c-.29-.91.26-1.69,2-1.55"/><path class="cls-6" d="M67.68,100.1c.68.21.76.64.76,1.44S68.11,103,67.7,103s-.48-.42-.76-1.43,0-1.66.74-1.45"/><path class="cls-6" d="M67.53,92.32A1.64,1.64,0,1,1,65.66,94a1.76,1.76,0,0,1,1.87-1.64"/><path class="cls-6" d="M79,93.84a2.34,2.34,0,1,1-3.47.77A2.51,2.51,0,0,1,79,93.84"/><path class="cls-6" d="M71.84,86c.49.21,1,.57,1,1a1,1,0,0,1-2,0c0-.55.51-1.2,1-1"/><path class="cls-6" d="M81,86.52c.84-.25,1.33.56,1.22,1.33S81.73,89,81.08,89a1.15,1.15,0,0,1-1.17-1.11h0A1.32,1.32,0,0,1,81,86.52"/><path class="cls-6" d="M89.36,91.44a1.13,1.13,0,0,1,1.5,1.22,1.29,1.29,0,0,1-1.42,1.07c-.79,0-1.44-.46-1.45-1s.35-1,1.37-1.26"/><path class="cls-6" d="M63.19,86.75a1.14,1.14,0,0,1,1.12,1.15,1.13,1.13,0,0,1-1.08,1.16h0a1.07,1.07,0,0,1-1-1.14h0a1.08,1.08,0,0,1,1-1.17"/><path class="cls-6" d="M61,90a1.06,1.06,0,0,1,1.13,1A1.09,1.09,0,0,1,61,92a1,1,0,0,1,0-2"/><path class="cls-6" d="M45.52,87.91a1.31,1.31,0,1,1,.32,2.6h-.32a1.3,1.3,0,1,1,0-2.6h0"/><path class="cls-6" d="M51.09,79.39a1.28,1.28,0,0,1,1.43,1.07c0,.58-.63,1.07-1.42,1.08a1.11,1.11,0,0,1-1.31-.85,1.09,1.09,0,0,1,.84-1.3.94.94,0,0,1,.47,0"/><path class="cls-6" d="M52.35,74.39c.78,0,1.43.47,1.43,1.06a1.44,1.44,0,0,1-1.38,1.33A1.4,1.4,0,0,1,51,75.47a1.19,1.19,0,0,1,1.32-1.08"/><path class="cls-6" d="M58,76.33c.54,0,1,.33,1,.74a1,1,0,0,1-1.25.65,1,1,0,0,1-.66-.65.84.84,0,0,1,.89-.77h0"/><path class="cls-6" d="M60,67.27a1.18,1.18,0,0,1,1.17,1.16c0,.64-.48,1.43-1.12,1.43S59,69.09,59,68.44a1.08,1.08,0,0,1,1-1.17H60"/><path class="cls-6" d="M67.56,69.93a1.83,1.83,0,0,1,2,1.59,2.07,2.07,0,0,1-1.92,2,2,2,0,0,1-1.92-2A1.68,1.68,0,0,1,67.46,70h.09"/><path class="cls-6" d="M74.56,63.05c1.1,0,2,.6,2,1.35a1.94,1.94,0,0,1-1.93,1.69,1.9,1.9,0,0,1-1.93-1.65c0-.76.74-1.38,1.84-1.39"/><path class="cls-6" d="M78.87,70.26c1,.44,1.59,1.36,1.29,2A2,2,0,0,1,77.7,73a1.92,1.92,0,0,1-1.07-2.31,1.57,1.57,0,0,1,2.24-.5"/><path class="cls-6" d="M73.35,78.72c1,.44,1.5,1.36,1.21,2a1.78,1.78,0,0,1-2.32.75,2,2,0,0,1-1-2.3,1.46,1.46,0,0,1,2.14-.5"/><path class="cls-6" d="M67.78,59.49c.69-.08,1.3.23,1.35.69A1.22,1.22,0,0,1,68,61.35a1.19,1.19,0,0,1-1.31-.88c-.06-.47.37-.9,1.06-1"/><path class="cls-6" d="M46.15,82.47a1.08,1.08,0,1,1,.21,2.15h-.21a1.09,1.09,0,0,1-1.18-1,1.07,1.07,0,0,1,1-1.17.74.74,0,0,1,.21,0"/><path class="cls-6" d="M42.82,72.48a1,1,0,0,1,1,.78.93.93,0,0,1-1,.8.82.82,0,0,1-1-.62.8.8,0,0,1,.61-1,.73.73,0,0,1,.36,0"/><path class="cls-6" d="M32.85,59.33A.83.83,0,0,1,34,59.24a1,1,0,0,1-.18,1.26.84.84,0,0,1-1.17-.08.77.77,0,0,1,.17-1.08h0"/><path class="cls-6" d="M29.79,61c.7-.62,1.45.21,2.29.74s1.15,1.13,0,2.2-2,.2-2.43-.54a1.9,1.9,0,0,1,.14-2.4"/><path class="cls-6" d="M33.87,55.27a.77.77,0,0,1,1.06-.08.87.87,0,0,1-.16,1.15.77.77,0,0,1-1.07-.07.72.72,0,0,1,.16-1h0"/><path class="cls-6" d="M35.8,70a.71.71,0,0,1,1-.17l.09.08a1,1,0,0,1-.22,1.23.67.67,0,0,1-.93.07l-.07-.07a.93.93,0,0,1,.18-1.19"/><path class="cls-6" d="M29.35,68.9a.68.68,0,0,1,.93.27.67.67,0,0,1,.07.18.8.8,0,0,1-.42,1.06.83.83,0,0,1-.34.07c-.65,0-.91-.25-.95-.64a.9.9,0,0,1,.73-.94"/><path class="cls-6" d="M21,100.94a.49.49,0,0,1,.67.22.56.56,0,0,1,0,.12.6.6,0,0,1-.3.78.7.7,0,0,1-.25,0c-.48,0-.68-.18-.71-.47a.67.67,0,0,1,.55-.7"/><path class="cls-6" d="M33.22,73a.81.81,0,0,1,1.09.36l.06.18a1,1,0,0,1-.63,1.26,1.1,1.1,0,0,1-.26.06c-.77,0-1.07-.29-1.13-.74A1.1,1.1,0,0,1,33.22,73"/><path class="cls-6" d="M42.23,75.49a1.42,1.42,0,0,1,.53,2.79,1.57,1.57,0,0,1-.53,0A1.4,1.4,0,0,1,40.72,77,1.39,1.39,0,0,1,42,75.49h.24"/><path class="cls-6" d="M37.73,89.23a.93.93,0,0,1,1,.83,1,1,0,0,1-.84,1h-.19a.94.94,0,0,1-1-.84.93.93,0,0,1,.84-1,.6.6,0,0,1,.19,0"/><path class="cls-6" d="M33,85.6c1.12.32,1.43.47,1.44,1.07A1.32,1.32,0,0,1,33,87.77c-.79,0-1-.15-1.33-1.08s.2-1.41,1.31-1.09"/><path class="cls-6" d="M34.77,91.57a1.39,1.39,0,0,1,1.55,1.21,1.41,1.41,0,0,1-1.22,1.55,1.82,1.82,0,0,1-.33,0,1.38,1.38,0,0,1,0-2.76h0"/><path class="cls-6" d="M49.61,63.14c1,.51,1.49,1.58,1.31,1.94s-1.22.35-2.34.09a1.62,1.62,0,0,1-1.36-1.83.85.85,0,0,1,0-.17c.29-.56,1.34-.59,2.35-.08"/><path class="cls-6" d="M43.89,63.12c1.61.44,1.58,1.87,1,2.37s-1.22.55-2.34.25a2,2,0,0,1-1.32-2.36c.29-.63,1-.69,2.63-.26"/><path class="cls-6" d="M57.48,61.33c1.16.58,1.72,1.8,1.51,2.23s-1.6.85-2.89.54a2.13,2.13,0,0,1-1.3-2.68c.32-.64,1.53-.68,2.68-.09"/><path class="cls-6" d="M15.09,78.67c.87.64,1.36,1,1.22,1.41s-.91.5-1.73.12-1.36-.91-1.24-1.47.88-.71,1.75-.06"/><path class="cls-6" d="M33.32,48.13c1.5,0,2.77.92,2.78,1.74s-1.21,1.58-2.71,1.59-2.73-.75-2.73-1.56,1.16-1.75,2.66-1.77"/><path class="cls-6" d="M39.12,47.42c.3-.35,1-.29,1.47.14s.7,1.06.41,1.42a1.1,1.1,0,0,1-1.47-.14c-.52-.43-.7-1.06-.41-1.42"/><path class="cls-6" d="M47.37,45.38a1.64,1.64,0,0,1,1.94.07c.56.45.75,1.15.44,1.53s-1,.31-1.59-.15-1.14-1.06-.79-1.45"/><path class="cls-6" d="M40.16,39.88c.26-.31,1.31,0,1.76.42s.78,1.18.53,1.49-1,0-1.47-.36-1.08-1.23-.82-1.55"/><path class="cls-6" d="M42.52,42.67c.33-.39,1.48.17,2,.64s1.26,1.52.93,1.91-1.38-.13-2-.61-1.35-1.55-1-1.94"/><path class="cls-6" d="M51.53,42.43c.32-.4,2.11,0,2.69.47A1.82,1.82,0,0,1,54.51,45c-.33.4-1.34,0-1.91-.53s-1.4-1.62-1.07-2"/><path class="cls-6" d="M48.36,51.58c.36-.59,1.85-.14,2.69.47s1.18,1.7.53,2.2-2.07,0-2.64-.48a2,2,0,0,1-.58-2.19"/><path class="cls-6" d="M43.47,36.67c1.81,0,3.44,1,3.44,1.78s-1.62,1.22-3.41,1.22-3.08-1.33-3.08-2.15,1.25-.8,3-.82"/><path class="cls-6" d="M57.93,28.51a.7.7,0,0,1,.81.57.71.71,0,0,1-.57.81h-.24a.7.7,0,1,1,0-1.38"/><path class="cls-6" d="M59.62,16.67c.51.12.71.59.71,1.31s-.3,1.32-.69,1.33-.62-.5-.73-1.32.19-1.44.71-1.32"/><path class="cls-6" d="M65.52,16c1,.33,1.62.32,1.62.73s-.72.75-1.62.77-1.54-.13-1.62-.75.58-1.09,1.62-.75"/><path class="cls-6" d="M90.47,35.91a.84.84,0,0,1,.93.76v.09c0,.45-.49.81-1.09.81s-1.1-.35-1.1-.8.66-.85,1.26-.86"/><path class="cls-6" d="M96,26.28c.92-.34,1.8-.11,2,.32s-.47,1.21-1.39,1.54a1.85,1.85,0,0,1-2.12-.64c-.15-.42.63-.88,1.55-1.22"/><path class="cls-6" d="M95.45,53c1-.31,2-.15,2.13.42S97,54.67,96,55s-2,.1-2.21-.47.63-1.24,1.68-1.55"/><path class="cls-6" d="M58,36a1.84,1.84,0,0,1,1.54,1.65c0,.69-.46,1-1.15,1a1.27,1.27,0,0,1-1.27-1.25c0-.7.2-1.33.9-1.34"/><path class="cls-6" d="M64.46,37.05c.86.6,1.38.72,1.27,1.08s-.84.47-1.65.22-1.34-.43-1.28-1.07.8-.84,1.66-.23"/><path class="cls-6" d="M63.27,45.57a1.69,1.69,0,0,1,1.62,1.22c0,.42-.72.77-1.61.78s-1.62-.34-1.62-.76a1.68,1.68,0,0,1,1.61-1.24"/><path class="cls-6" d="M61.94,50.45c1.06,0,1.85.54,1.87,1s-.87.78-1.93.78S60,51.9,60,51.47s.93-1,2-1"/><path class="cls-6" d="M63.38,54.53c1.16,0,2.1.24,2.24,1.18s-.89,1.6-2.2,1.1-2-.65-2-1.07.8-1.2,2-1.21"/><path class="cls-6" d="M71.8,52.18a1.49,1.49,0,0,1,.58,1.9c-.25.35-1.16.14-2-.47S69,52.37,69.22,52s1.7-.45,2.58.15"/><path class="cls-6" d="M79.81,34.94c.61-.09,1.2.51,1.33,1.34A1.57,1.57,0,0,1,80.27,38c-.64.41-1.24-.37-1.35-1.39s.28-1.59.89-1.67"/><path class="cls-6" d="M75.61,115.07a1.78,1.78,0,0,1,1.92,1.65,1.8,1.8,0,0,1-1.65,1.92h-.27a1.79,1.79,0,0,1-.27-3.57h.27"/><path class="cls-6" d="M81.45,115.47a.89.89,0,0,1,.88.9.89.89,0,0,1-1.78,0,.88.88,0,0,1,.88-.9h0"/><path class="cls-6" d="M82.19,119.81c.87,0,1.4.5,1.41,1s-.7.9-1.56.9-1.56-.38-1.57-.87.86-1,1.72-1"/><path class="cls-6" d="M93.87,113.67c.82,0,1.71.75,1.49,1.43a3,3,0,0,1-1.46,1.46c-.44.19-1.48-.63-1.49-1.43a1.46,1.46,0,0,1,1.46-1.46"/><path class="cls-6" d="M82.68,107.67a1,1,0,1,1-1.19,1,1.12,1.12,0,0,1,1.19-1"/><path class="cls-6" d="M95.63,156.86a.95.95,0,1,1-1,.95,1,1,0,0,1,1-.95"/><path class="cls-6" d="M102.12,153.67c1.5,0,2.78,3.24,0,3.26a1.64,1.64,0,1,1-.36-3.26,1.09,1.09,0,0,1,.36,0"/><path class="cls-6" d="M88.91,149.74c.37.55-.22,1.84-1.33,2.58s-2.3.63-2.67.08.22-1.61,1.33-2.35,2.3-.87,2.67-.31"/><path class="cls-6" d="M75,148.94a1.64,1.64,0,0,1,1.3.41.4.4,0,0,0-.24,0,.39.39,0,0,0-.45.32.4.4,0,0,0,.32.45h.13a1.7,1.7,0,0,1-1.06.38c-.75,0-1.37-.31-1.37-.7s.6-.8,1.36-.81"/><path class="cls-6" d="M27.13,88.55c.88.21,1.65.6,1.52,1.17s-1,.87-1.84.66-1.5-.84-1.36-1.41.8-.62,1.68-.42"/><path class="cls-6" d="M20.12,93.51c.87.27,1.73.32,1.89-.25s-.39-1.23-1.26-1.5-1.71,0-1.88.55.38.94,1.25,1.2"/><path class="cls-6" d="M152.89,135.37c.63,0,1.4.49,1.41,1.09s-.76,1.12-1.4,1.13a1.11,1.11,0,0,1,0-2.22"/><path class="cls-6" d="M176.19,128.2c.48,0,1,.79,1,1.55a1.2,1.2,0,0,1-1,1.24c-.48.09-.88-.62-.88-1.39s.38-1.4.85-1.4"/><path class="cls-6" d="M42,99.22a.73.73,0,0,1,.17,1.45H42a.74.74,0,0,1-.84-.6.72.72,0,0,1,.6-.84.49.49,0,0,1,.24,0"/><path class="cls-6" d="M45.46,101.13c.67-.35,1.37-.34,1.55,0s-.22,1.19-.9,1.54a1.59,1.59,0,0,1-1.82-.25c-.18-.35.5-1,1.17-1.3"/><path class="cls-6" d="M67.82,219c.27-1.87.24-3.13-1.08-2.74-3.27-2.32-3.23-2-3.52-1.42-.23.32.1.73.25,1,.47.44.85.91.7,1.48-2.21-.24-4.09-3.12-5.57-5.67a26.84,26.84,0,0,1-.06-11.83c.89-4,2.47-7.16,7.27-7.42A39,39,0,0,1,82,197.76c4.8,3.07,4.3,7,2.38,11.35a24.57,24.57,0,0,1-11.76,7.61,3.68,3.68,0,0,1-3.74-1.45c-1.68,5.71,4.45,3.91,5.76,3.07,5.5-2.18,10.67-4.75,14.78-8.92,3.51-3.42,3.5-7-1-10.83a75.35,75.35,0,0,0-23.36-8.06c-3.22.15-7,1.37-8.38,6.21-1.11,4.32-1.13,8.64-1.36,13a13,13,0,0,0,2.7,6.4c3.78,3.33,6.38,3.37,8.7,3.42a1,1,0,0,0,1-.53"/></g><g id="Labels"><g class="cls-7"><path class="cls-1" d="M85.55,3.51l.12,0h.13a.26.26,0,0,1,.16.1.29.29,0,0,1,0,.1v.09a.51.51,0,0,1-.29.33l-.16.09.07,0,.19.11a.67.67,0,0,1,.15.13.24.24,0,0,1,0,.15.48.48,0,0,1-.22.34l-.63.29.17.11.18.11a1,1,0,0,1,0,.2v.06a.16.16,0,0,1,0,.1L85.33,6,85,6.26l-.4.29-.31.22-.84.57a3.35,3.35,0,0,1-.3.19l-.26.14-.09,0-.13.07-.35.14a1.33,1.33,0,0,1-.42.13.42.42,0,0,1-.16,0l-.1,0-.07-.06a.41.41,0,0,1-.07-.11s0-.1,0-.17.13-.27.37-.33l.17,0,.12,0,.15,0,.13,0,.17-.06L82.77,7,83,6.85l.79-.49.39-.26.54-.39-.31-.19a.35.35,0,0,1-.12-.26.2.2,0,0,1,0-.11A1,1,0,0,1,84.45,5l.25-.13.37-.18-.17-.1-.2-.12-.11-.08,0,0-.06-.1V4.13l0,0L84.66,4l0,0,.06,0,.2-.08.16-.07a.64.64,0,0,0,.16-.07l.14-.1Z"/></g><g class="cls-7"><path class="cls-1" d="M85.59,0H86a1,1,0,0,1,.6.15.43.43,0,0,1,.21.38,1.13,1.13,0,0,1-.38.67l-.24.26-.3.25a2.59,2.59,0,0,1-.3.21,2.31,2.31,0,0,1-.35.18l-.54.23-.27.13h-.19s-.08,0-.15-.12l0-.08,0-.1a.34.34,0,0,1,.06-.2.69.69,0,0,1,.22-.15l.23-.07.27-.09a1.09,1.09,0,0,0,.28-.11A1.38,1.38,0,0,0,86,.75l0,0-.06,0-.2,0H85.2l-.09,0L85,.74l-.1.06-.1,0h-.14a.18.18,0,0,1-.14-.06l-.1-.14,0-.11a.25.25,0,0,1,.13-.24A3.89,3.89,0,0,1,85,.07,2.22,2.22,0,0,1,85.59,0Z"/></g><g class="cls-7"><path class="cls-1" d="M81.26,3.94h.15l.17.15a.2.2,0,0,1,.1.19,2.17,2.17,0,0,1-.39.42l1.4,0,0,0,0,0a.33.33,0,0,1,.09.14c0,.11-.15.27-.46.46l-.71.41-.52.31-.83.53-1.1.58-.65.28-.21.08-.21,0-.27.07a.45.45,0,0,1-.23,0l-.12-.06a.41.41,0,0,1-.13-.35q0-.16.24-.24l.23,0a2.12,2.12,0,0,0,.44,0,2.37,2.37,0,0,0,.45-.15l.1,0L79,6.63l.42-.19,2.1-1.2H79.65a.23.23,0,0,1-.06-.11.66.66,0,0,1,0-.21l0-.11.13,0,.15-.06a.9.9,0,0,0,.24-.12l.43-.2.3-.15A.32.32,0,0,0,81,4.09.26.26,0,0,1,81.08,4l.07,0Z"/></g><g class="cls-7"><path class="cls-1" d="M82.41,8.65a.25.25,0,0,1,.25.16l0,.12,0,.09a.12.12,0,0,1,0,.09l-.1.12-.08,0-.15.07-.16.08-.28.27-.26.18-.46.29-.4.25-.23.13a1.58,1.58,0,0,1-.27.13l-.44.17-.17,0a.36.36,0,0,1-.24-.1.45.45,0,0,1-.09-.25l0-.12a.19.19,0,0,1,0-.09l.06-.05.22-.11.46-.2.38-.19.26-.12L81,9.51l.46-.3L81.73,9,82,8.85l.25-.15A.41.41,0,0,1,82.41,8.65Z"/></g><g class="cls-7"><path class="cls-1" d="M78.11,3.8h.1l.09,0a.35.35,0,0,1,.17.2l0,.19q0,.17-.09.21L78,4.58l.18.17a.57.57,0,0,1,.16.4v.17a.35.35,0,0,1,0,.06.14.14,0,0,1,0,.06.93.93,0,0,1-.49.64l-.26.14-.18.06-.23,0H77l-.23,0-.44-.1-.08,0-.28.24-.14.12-.17.13-.37.28L75.1,7l-.29.18-.26.16L74,7.63l-.11,0-.12.06-.22.12-.22,0a.51.51,0,0,1-.46-.27l0-.06,0-.14a.27.27,0,0,1,.08-.21l.1-.07.07-.05h.47A.76.76,0,0,0,73.9,7l.6-.32.21-.13.34-.23.23-.16L75.42,6l.12-.1.13-.14-.08-.16,0-.11V5.41a.44.44,0,0,1,.25-.28l.19,0h.12l.17.08a.26.26,0,0,1,.16.18l0,.14,0,0,.15.1.17.06h.21l.13,0,.12,0a.66.66,0,0,0,.28-.19l.08-.11,0-.11a.36.36,0,0,0,0-.19L77.57,5l-.12-.08-.12-.07-.23-.11-.21-.16,0-.08,0-.11a.14.14,0,0,1,.07-.13l.2-.09h.37L77.6,4,77.73,4l.12-.07L78,3.83Z"/></g><g class="cls-7"><path class="cls-1" d="M75.37,0h.14l.11,0,.32.06.33.09.23.1a.55.55,0,0,1,.31.44l0,.16-.08.14-.09.12-.23.2-.8.53-.74.39-.31.14-.28,0A.35.35,0,0,1,74,2.39L74,2.29V2.16L74,2s0-.08.1-.13l.26-.13.49-.21.63-.32.26-.14L75.92,1l0-.09Q76,.7,75.48.7l-.33,0-.39.13c-.28,0-.41-.11-.41-.34a.27.27,0,0,1,.06-.19.7.7,0,0,1,.22-.14L75,.07Zm2.76,0a1.84,1.84,0,0,1,.53.08l.16.05.12,0,.23.16a.58.58,0,0,1,.17.18.54.54,0,0,1,0,.24l0,.09L79.3,1l-.12.14-.12.14L79,1.43l-.16.13-.44.36-.44.29-.39.23-.17,0-.19,0H77s-.06,0-.12-.06l-.06-.13a.22.22,0,0,0,0-.09.21.21,0,0,1,.07-.15L77,2l.18-.09.27-.13L78,1.52l.35-.28.19-.16a.46.46,0,0,0,.08-.16.16.16,0,0,0-.12-.17l-.28,0H78l-.13,0-.14.06-.11,0-.09,0-.24,0-.1,0,0,0L77.09.73a.75.75,0,0,1,0-.15V.48a.27.27,0,0,1,.06-.1.83.83,0,0,1,.17-.12L77.42.2l.12,0a1.29,1.29,0,0,1,.28-.08l.2,0Z"/></g><g class="cls-7"><path class="cls-1" d="M132.38,96.75h.14l.11,0,.32.06.33.09.23.1a.55.55,0,0,1,.31.44l0,.16-.08.14-.09.12-.23.2-.8.53-.74.39-.31.14-.28,0a.35.35,0,0,1-.22-.09L131,99v-.13l0-.13s0-.08.1-.13l.26-.13.49-.21.63-.32.26-.14.19-.13,0-.09q0-.18-.48-.18l-.33,0-.39.13c-.28,0-.41-.11-.41-.34a.27.27,0,0,1,.06-.19.59.59,0,0,1,.22-.14l.38-.12Zm2.76,0a1.84,1.84,0,0,1,.53.08l.16,0,.12,0,.23.16a.58.58,0,0,1,.17.18.54.54,0,0,1,.05.24l0,.09-.06.1-.12.14-.12.14-.11.13-.16.13-.44.36-.44.29-.39.23-.17,0-.19,0H134s-.06,0-.12-.06l0-.13a.2.2,0,0,0,0-.09.21.21,0,0,1,.07-.15l.14-.07.18-.09.27-.13.46-.25.35-.28.19-.16a.46.46,0,0,0,.08-.16.16.16,0,0,0-.12-.17l-.28,0H135l-.13,0-.14.06-.11,0-.09,0-.24,0-.1,0,0,0-.06,0a.75.75,0,0,1,0-.15v-.1a.27.27,0,0,1,.06-.1.83.83,0,0,1,.17-.12l.13-.06.12,0a1.47,1.47,0,0,1,.28-.08l.2,0Z"/><path class="cls-1" d="M135.43,100.51h.1l.09,0a.4.4,0,0,1,.18.2v.19a.23.23,0,0,1-.08.21l-.37.16.18.17a.58.58,0,0,1,.17.4v.23s0,0,0,.06a.91.91,0,0,1-.48.64l-.27.14-.18.06-.22,0h-.23l-.23,0-.44-.1-.07,0-.29.24-.14.12-.17.13-.37.28-.16.1-.28.18-.27.16-.53.29-.11,0-.13.06-.22.12-.21,0a.51.51,0,0,1-.47-.27v-.06l0-.14a.27.27,0,0,1,.08-.21l.1-.07.08,0h.46a.8.8,0,0,0,.36-.09l.59-.32.21-.13.35-.23.22-.16.15-.15.12-.1.13-.14-.09-.17,0-.1,0-.11a.42.42,0,0,1,.25-.28l.18,0h.13l.16.08a.27.27,0,0,1,.17.18l0,.14,0,0,.16.1.16.06h.21l.14,0,.11,0a.69.69,0,0,0,.29-.19l.08-.11,0-.11a.36.36,0,0,0,0-.19l-.09-.1-.13-.08-.11-.07-.23-.11-.22-.16,0-.08,0-.11a.14.14,0,0,1,.07-.13l.2-.09h.38l.13-.07.13-.08.12-.07.13-.06Z"/><path class="cls-1" d="M140.9,105.36a.23.23,0,0,1,.24.16l0,.12v.09a.1.1,0,0,1,0,.09l-.1.12-.07,0-.15.07-.16.08-.29.27-.26.18-.45.29-.4.25-.23.13-.27.13-.45.17-.16,0a.33.33,0,0,1-.24-.1.45.45,0,0,1-.09-.25v-.12a.2.2,0,0,1,.06-.09l.06,0,.21-.11.46-.2.39-.19.26-.12.24-.14.46-.3.27-.17.23-.19.26-.15A.38.38,0,0,1,140.9,105.36Z"/><path class="cls-1" d="M140.18,100.65h.14l.18.15a.21.21,0,0,1,.09.19,2.17,2.17,0,0,1-.39.42l1.4,0,0,0,0,0a.33.33,0,0,1,.09.14c0,.11-.15.27-.46.46l-.71.41-.51.31-.83.53-1.11.58-.65.28-.21.08-.21,0-.27.07a.47.47,0,0,1-.23,0l-.12-.06a.41.41,0,0,1-.13-.35q0-.17.24-.24l.23,0a2.12,2.12,0,0,0,.44,0,2.16,2.16,0,0,0,.45-.15l.1,0,.16-.08.42-.19,2.1-1.2h-1.88a.36.36,0,0,1-.06-.11.68.68,0,0,1,0-.21l0-.11.14,0,.15-.06.24-.12.42-.2.31-.15a.3.3,0,0,0,.13-.14c0-.07.06-.11.08-.12l.08,0Z"/><path class="cls-1" d="M146.29,96.76l.18-.07.18,0c.14,0,.24,0,.28.07a.21.21,0,0,1,.11.19.23.23,0,0,1-.1.22l-.07.06-.12,0-.24.11-.7.32c-.37.17-.55.39-.55.65a.31.31,0,0,0,.11.22l.08,0,.11,0,.24,0H146l.09,0,.09,0,.11,0a.3.3,0,0,1,.11,0,.36.36,0,0,1,.18,0l.11.14a.3.3,0,0,1,0,.18c0,.18-.21.32-.52.4l-.2,0-.19,0-.28,0-.32-.08-.16,0-.14-.1a.81.81,0,0,1-.41-.71.88.88,0,0,1,.16-.45l.15-.18.22-.2.17-.13.21-.14.38-.24Z"/><path class="cls-1" d="M145.93,100.22l.13,0h.12a.26.26,0,0,1,.16.1.29.29,0,0,1,0,.1v.09a.51.51,0,0,1-.29.33l-.16.09.08,0,.18.11a.5.5,0,0,1,.15.13.24.24,0,0,1,0,.15.48.48,0,0,1-.22.34l-.63.29.17.11.18.11a.59.59,0,0,1,.05.2v.06a.16.16,0,0,1,0,.1l-.17.16-.36.28-.39.29-.32.22-.84.57-.29.19-.27.14-.09,0-.13.07-.35.14a1.33,1.33,0,0,1-.42.13.42.42,0,0,1-.16,0l-.09,0-.07-.06a.19.19,0,0,1-.07-.11.61.61,0,0,1,0-.17c0-.16.13-.27.38-.33l.16,0,.12,0,.15,0,.14,0,.16-.06.22-.09.22-.13.79-.49.38-.26.54-.39-.3-.19a.33.33,0,0,1-.13-.26.15.15,0,0,1,0-.11.6.6,0,0,1,.14-.16l.25-.13.37-.18-.16-.1-.21-.12-.11-.08-.05,0-.06-.1v-.11l0,0,.14-.11,0,0,.06,0,.2-.08.16-.07a.5.5,0,0,0,.16-.07l.14-.1Z"/></g><g class="cls-7"><path class="cls-1" d="M105.64,107.25h.14l.11,0,.32.06.33.09.23.1a.55.55,0,0,1,.31.44l0,.16-.08.14-.09.12-.23.2-.8.53-.74.39-.31.14-.28,0a.35.35,0,0,1-.22-.09l-.06-.1v-.13l0-.13s0-.08.1-.13l.26-.13.49-.21.63-.32.26-.14.19-.13,0-.09q0-.18-.48-.18l-.33,0-.39.13c-.28,0-.41-.11-.41-.34a.27.27,0,0,1,.06-.19.59.59,0,0,1,.22-.14l.38-.12Zm2.76,0a1.84,1.84,0,0,1,.53.08l.16,0,.12,0,.23.16a.58.58,0,0,1,.17.18.54.54,0,0,1,0,.24l0,.09-.06.1-.12.14-.12.14-.11.13-.16.13-.44.36-.44.29-.39.23-.17,0-.19,0h-.14s-.06,0-.12-.06l-.06-.13a.22.22,0,0,0,0-.09.21.21,0,0,1,.07-.15l.14-.07.18-.09.27-.13.46-.25.35-.28.19-.16a.46.46,0,0,0,.08-.16.16.16,0,0,0-.12-.17l-.28,0h-.17l-.13,0L108,108l-.11,0-.09,0-.24,0-.1,0,0,0-.06,0a.75.75,0,0,1,0-.15v-.1a.27.27,0,0,1,.06-.1.83.83,0,0,1,.17-.12l.13-.06.12,0a1.29,1.29,0,0,1,.28-.08l.2,0Z"/><path class="cls-1" d="M108.69,111h.1l.09,0a.4.4,0,0,1,.18.2v.19a.23.23,0,0,1-.08.21l-.37.16.18.17a.58.58,0,0,1,.17.4v.23s0,0,0,.06a.91.91,0,0,1-.48.64l-.27.14-.18.06-.22,0h-.23l-.23,0-.44-.1-.07,0-.29.24-.14.12-.17.13-.37.28-.16.1-.28.18-.27.16-.53.29-.11,0-.13.06-.22.12-.21,0a.51.51,0,0,1-.47-.27v-.06l0-.14a.27.27,0,0,1,.08-.21l.1-.07.08,0h.46a.8.8,0,0,0,.36-.09l.59-.32.21-.13.35-.23.22-.16.15-.15.12-.1.13-.14-.09-.17,0-.1,0-.11a.42.42,0,0,1,.25-.28l.18,0h.13l.16.08a.27.27,0,0,1,.17.18l0,.14,0,0,.16.1.16.06h.21l.14,0,.11,0a.69.69,0,0,0,.29-.19l.08-.11,0-.11a.29.29,0,0,0-.05-.19l-.08-.1-.13-.08-.11-.07-.23-.11-.22-.16,0-.08,0-.11a.14.14,0,0,1,.07-.13l.2-.09h.38l.13-.07.13-.08.12-.07.13-.06Z"/><path class="cls-1" d="M114.76,107.15h.09l.09,0a.23.23,0,0,1,.07.11l.06.15v.12c0,.17-.08.26-.23.26l-.44.08-.17.07-.14.06-.14.08-.11.08-.13.13-.12.16a.25.25,0,0,0,.11.16l.18.08.18,0h.63l.1,0a.25.25,0,0,1,.11.24.24.24,0,0,1-.18.24l-.24,0-.32,0h-.26l-.12,0-.34-.07A.62.62,0,0,1,113,109a1.11,1.11,0,0,1-.16-.55l-.07.09a.16.16,0,0,1-.1.08l-.09.09-.27.19-.41.26-.28.17-.25.14-.25.12-.23.08-.17.05h-.13q-.24,0-.24-.27l0-.18a.24.24,0,0,1,.13-.11l.17,0,.23-.08a2.74,2.74,0,0,0,.9-.49l.19-.16.18-.17h-1l-.1,0a.28.28,0,0,1-.17-.29.27.27,0,0,1,.25-.3l.27,0h.67a.9.9,0,0,1,.5.12.37.37,0,0,1,.11.15l.09.17.1.23.12-.12.07-.06,0,0a.29.29,0,0,0,.1,0l.18-.17.29-.2.52-.34A1,1,0,0,1,114.76,107.15Z"/><path class="cls-1" d="M112.1,111.35a.52.52,0,0,1,.42.2s0,0,0,.11l0,.11.4,0,.57-.11.22-.11a.44.44,0,0,1,.12-.06l.15,0a.43.43,0,0,1,.37.21l.08.2,0,.22-.1.29-.08.14-.13.32a2.4,2.4,0,0,1-.46.66.56.56,0,0,1-.28.11.37.37,0,0,1-.23-.07l-.1-.1v-.2l0-.06,0,0,.13-.13.12-.16.15-.21.1-.21.08-.2h-.14l-.37,0-.6.07-.07.09-.21.22-.41.4-.36.29-.33.25-.36.23-.23.12-.53.34-.24.11-.11,0-.14,0-.18,0h-.05a.45.45,0,0,1-.2-.09.32.32,0,0,1-.09-.15l0-.17.06-.11a.18.18,0,0,1,.14-.12l.21,0h.08l.07,0,.18-.06.19-.08.39-.22.07,0,.09-.07.16-.1L111,113l.22-.15a1.38,1.38,0,0,0,.3-.22c.17-.15.26-.27.26-.37h0a.37.37,0,0,1-.26-.27v-.16a.54.54,0,0,1,.08-.25l.09-.1.09-.08.13,0,.12,0Z"/><path class="cls-1" d="M118.84,107.26l.18-.07.18,0a.42.42,0,0,1,.29.07.22.22,0,0,1,.1.19.24.24,0,0,1-.09.22l-.08.06-.12,0-.24.11-.7.32c-.37.17-.55.39-.55.65a.29.29,0,0,0,.12.22l.07,0,.11,0,.24,0h.22l.09,0,.09,0,.11,0a.3.3,0,0,1,.11,0,.38.38,0,0,1,.19,0l.11.14a.42.42,0,0,1,0,.18c0,.18-.21.32-.52.4l-.2,0-.19,0-.28,0-.32-.08-.15,0-.15-.1a.79.79,0,0,1-.24-1.16l.14-.18.22-.2.17-.13.21-.14.39-.24Z"/><path class="cls-1" d="M118.85,111.23l.14,0h.06l.08,0,.07,0,.08.09,0,.15,0,.09a.37.37,0,0,1-.07.14l-.11.1-.33.25-.43.31-.41.27-.7.42-.29.14a4,4,0,0,1-.43.2l-.15,0-.19.06-.22,0a.24.24,0,0,1-.15-.06.26.26,0,0,1-.13-.17v-.13a.46.46,0,0,1,.09-.22l.16-.18.11-.12.07-.11.05-.17v-.63a.67.67,0,0,1,0-.22l0-.06.12-.06.18,0h.16a.25.25,0,0,1,.15.09.31.31,0,0,1,.13.29v.1l0,.1-.1.22-.09.32-.07.22.13-.05.16-.1.23-.13.3-.19.55-.36.12-.08.18-.18.33-.24Z"/></g><g class="cls-7"><path class="cls-1" d="M62.34,174.08h.14l.11,0,.32.06.33.09.23.1a.55.55,0,0,1,.31.44l0,.16-.08.14-.09.12-.23.2-.8.53-.74.39-.31.14-.28.05a.35.35,0,0,1-.22-.09l-.06-.1v-.13l0-.13s0-.08.1-.13l.26-.13.49-.21.63-.32.26-.14.19-.13,0-.09q0-.18-.48-.18l-.33,0-.39.13c-.28,0-.41-.11-.41-.34a.27.27,0,0,1,.06-.19.59.59,0,0,1,.22-.14l.38-.12Zm2.76,0a1.84,1.84,0,0,1,.53.08l.16.05.12,0,.23.16a.58.58,0,0,1,.17.18.54.54,0,0,1,0,.24l0,.09-.06.1-.12.14-.12.14-.11.13-.16.13-.44.36-.44.29-.39.23-.17,0-.19,0H64s-.06,0-.12-.06l-.06-.13a.22.22,0,0,0,0-.09.21.21,0,0,1,.07-.15L64,176l.18-.09.27-.13.46-.25.35-.28.19-.16a.46.46,0,0,0,.08-.16.16.16,0,0,0-.12-.17l-.28,0H65l-.13,0-.14.06-.11,0-.09,0-.24,0-.1-.05,0,0-.06,0a.75.75,0,0,1,0-.15v-.1a.27.27,0,0,1,.06-.1.83.83,0,0,1,.17-.12l.13-.06.12,0a1.29,1.29,0,0,1,.28-.08l.2,0Z"/><path class="cls-1" d="M65.39,177.84h.1l.09,0a.4.4,0,0,1,.18.2v.19a.23.23,0,0,1-.08.21l-.37.16.18.17a.58.58,0,0,1,.17.4v.23s0,0,0,.06a.91.91,0,0,1-.48.64l-.27.14-.18.06-.22,0h-.23l-.23,0-.44-.1-.07-.05-.29.24-.14.12-.17.13-.37.28-.16.1-.28.18-.27.16-.53.29-.11.05-.13.06-.22.12-.21,0a.51.51,0,0,1-.47-.27v-.06l0-.14a.27.27,0,0,1,.08-.21l.1-.07.08-.05h.46a.8.8,0,0,0,.36-.09l.59-.32.21-.13.35-.23.22-.16.15-.15.12-.1.13-.14-.09-.16,0-.11,0-.11a.42.42,0,0,1,.25-.28l.18,0h.13l.16.08a.27.27,0,0,1,.17.18v.14l.05.05.16.1.16.06h.21l.14,0,.11,0a.76.76,0,0,0,.29-.19l.08-.11,0-.11a.36.36,0,0,0,0-.19l-.09-.1-.13-.08-.11-.07-.24-.11-.21-.16,0-.08,0-.11a.14.14,0,0,1,.07-.13l.2-.09h.38l.13-.07L65,178l.12-.07.13-.06Z"/><path class="cls-1" d="M70.33,182.48q.27,0,.27.42s0,.07-.12.14l-.14.11-.21.13-1,.63-1.12.65-.1,0c-.18,0-.28-.12-.28-.35s.11-.23.31-.34l.44-.25.41-.23.72-.45A3.62,3.62,0,0,1,70.33,182.48Zm.36,1.16.08,0,.14,0a.26.26,0,0,1,.26.21l0,.17a.19.19,0,0,1-.07.17l-1.55.91-.73.42-.12.06-.14,0a.36.36,0,0,1-.25-.15l0-.11v-.11a.29.29,0,0,1,.11-.19,3.53,3.53,0,0,1,.36-.26l.62-.32c.24-.13.49-.27.73-.42Z"/><path class="cls-1" d="M71,178.06l.15,0h.05l.09,0,.07,0,.08.09,0,.15,0,.09a.21.21,0,0,1-.07.14l-.11.1-.33.25-.42.31-.42.27-.69.42-.29.14c-.16.08-.3.15-.43.2l-.16,0-.19.06-.22,0a.24.24,0,0,1-.14-.06.3.3,0,0,1-.14-.17V180a.46.46,0,0,1,.09-.22l.16-.18.11-.12.07-.11.05-.17v-.63a.69.69,0,0,1,0-.22l.06-.06.11-.06.19,0h.15a.26.26,0,0,1,.16.09.31.31,0,0,1,.13.29v.1l0,.1L69,179l-.09.32-.08.22.14,0,.16-.1.23-.13.3-.19.54-.36.13-.08.18-.18.33-.24Z"/><path class="cls-1" d="M76.11,174.57a.35.35,0,0,1,.21-.07c.2,0,.3.13.3.4V175l-.06.07a13,13,0,0,1-1.15.78,9.17,9.17,0,0,1-1.17.59l-.15.06-.12,0c-.1,0-.18-.06-.24-.19l0-.1,0-.14c0-.1.06-.17.19-.21a6.36,6.36,0,0,0,.92-.49l.3-.18.45-.27C75.78,174.81,76,174.69,76.11,174.57Z"/><path class="cls-1" d="M71.76,181.16a.55.55,0,0,1-.37-.1.39.39,0,0,1-.12-.31v-.11a.21.21,0,0,1,.11-.17.61.61,0,0,1,.24-.07,1.89,1.89,0,0,0,.74-.18l.63-.35a1.28,1.28,0,0,0,.35-.18l.41-.29.17-.1.17-.16-.08-.07-.15-.17-.06-.14v-.14a.5.5,0,0,1,0-.15l.11-.09a.44.44,0,0,1,.27-.11.89.89,0,0,1,.36.11l.12.07.14.09.42-.22.49-.28.26-.11a2.31,2.31,0,0,1,.53-.16.59.59,0,0,1,.24.08.29.29,0,0,1,.1.22v.09a.26.26,0,0,1-.1.14l-.18.12-.1,0-.28.14-.27.11-.41.12-.22,0,.34.16.25.14.13.12,0,0v.07a.29.29,0,0,1,0,.09l0,.09a.23.23,0,0,1-.12.12l-.14.06-.17,0h-.11l-.67-.35-.24.15-.23.17L74,180l-.46.29-.83.48-.34.18-.32.16-.18.06Z"/></g><g class="cls-7"><path class="cls-1" d="M95.48,92.39h.14l.11,0,.32.06.33.09.23.1a.55.55,0,0,1,.31.44l0,.16-.08.14-.09.12-.23.2-.8.53-.74.39-.31.14-.28,0a.35.35,0,0,1-.22-.09l-.06-.1v-.13l0-.13s0-.08.1-.13l.26-.13.49-.21.63-.32.26-.14.19-.13,0-.09q0-.18-.48-.18l-.33,0-.39.13c-.28,0-.41-.11-.41-.34a.27.27,0,0,1,.06-.19.59.59,0,0,1,.22-.14l.38-.12Zm2.76,0a1.84,1.84,0,0,1,.53.08l.16,0,.12,0,.23.16a.58.58,0,0,1,.17.18.54.54,0,0,1,0,.24l0,.09-.06.1-.12.14-.12.14-.11.13-.16.13-.44.36-.44.29-.39.23-.17,0-.19,0h-.14s-.06,0-.12-.06L97,94.65a.22.22,0,0,0,0-.09.21.21,0,0,1,.07-.15l.14-.07.18-.09.27-.13.46-.25.35-.28.19-.16a.46.46,0,0,0,.08-.16.16.16,0,0,0-.12-.17l-.28,0h-.17l-.13,0-.14.06-.11,0-.09,0-.24,0-.1,0,0,0-.06,0a.75.75,0,0,1,0-.15v-.1a.27.27,0,0,1,.06-.1.83.83,0,0,1,.17-.12l.13-.06.12,0a1.29,1.29,0,0,1,.28-.08l.2,0Z"/><path class="cls-1" d="M98.53,96.15h.1l.09,0a.4.4,0,0,1,.18.2v.19a.23.23,0,0,1-.08.21l-.37.16.18.17a.58.58,0,0,1,.17.4v.23s0,0,0,.06a.91.91,0,0,1-.48.64l-.27.14-.18.06-.22,0h-.23l-.23,0-.44-.1-.07,0-.29.24-.14.12-.17.13-.37.28-.16.1-.28.18-.27.16-.53.29-.11,0-.13.06-.22.12-.21,0a.51.51,0,0,1-.47-.27v-.06l0-.14a.27.27,0,0,1,.07-.21l.1-.07.08,0H94a.8.8,0,0,0,.36-.09l.59-.32.21-.13.35-.23.22-.16.15-.15.12-.1.13-.14L96,98l0-.11,0-.11a.42.42,0,0,1,.25-.28l.18,0h.13l.16.08a.27.27,0,0,1,.17.18v.14l0,0,.16.1.16.06h.21l.14,0,.11,0a.76.76,0,0,0,.29-.19l.08-.11,0-.11a.36.36,0,0,0,0-.19L98,97.3l-.13-.08-.11-.07L97.53,97l-.22-.16,0-.08,0-.11a.14.14,0,0,1,.07-.13l.2-.09h.38L98,96.4l.13-.09.12-.07.13-.06Z"/><path class="cls-1" d="M104,92.88a.35.35,0,0,1,.21-.07c.2,0,.3.13.3.4v.09l-.06.07a13,13,0,0,1-1.15.78,9.17,9.17,0,0,1-1.17.59l-.15.06-.12,0c-.1,0-.18-.06-.24-.19l0-.1,0-.14c0-.1.06-.17.19-.21a6.36,6.36,0,0,0,.92-.49l.3-.18.45-.27C103.69,93.12,103.87,93,104,92.88Z"/><path class="cls-1" d="M101.77,96.37l.2,0a.41.41,0,0,1,.29.16l.07.13a.37.37,0,0,0,.18.08.24.24,0,0,0,.14,0l.13-.12.1-.08.1-.09.1-.05h.23l.08,0,.12.06.06,0,0,.06.07.16.06.15,0,0,.07,0a.79.79,0,0,0,.3-.09l.13-.11.13-.13.06,0,.09-.06.17-.09.14,0H105a.09.09,0,0,1,.08.06l.09.1,0,.08a.44.44,0,0,1-.12.32l-.15.18a.4.4,0,0,1-.18.14l-.19.1-.24.1-.24.07-.42.08a.7.7,0,0,1-.35-.09l-.13-.11-.14-.14h-.27a.56.56,0,0,0-.2,0,.26.26,0,0,0-.14.07l-.29.26-.43.36-.44.33-.12.09-.17.1-.19.12-.62.35-.48.27-.19.08-.22.08-.2,0h-.2l-.13,0-.16-.06a.37.37,0,0,1-.19-.37.29.29,0,0,1,.19-.28l.13,0h.48a1.18,1.18,0,0,0,.42-.16l.43-.22.49-.27.45-.29.34-.27.08-.1a.3.3,0,0,0,0-.1l-.16-.3,0-.15v-.08s0-.06,0-.07l.08-.12A.62.62,0,0,1,101.77,96.37Z"/><path class="cls-1" d="M110,101a.23.23,0,0,1,.24.16l0,.12v.09a.1.1,0,0,1,0,.09l-.1.12-.07,0-.15.07-.16.08-.29.27-.25.18-.46.29-.4.25-.23.13-.27.13-.44.17-.17,0a.33.33,0,0,1-.24-.1.45.45,0,0,1-.09-.25v-.12a.35.35,0,0,1,.06-.09l.06,0,.21-.11.46-.2.39-.19.26-.12.24-.14.46-.3.27-.17.23-.19.26-.15A.38.38,0,0,1,110,101Z"/><path class="cls-1" d="M110.49,97.32v.27l0,.13a.15.15,0,0,1,0,.11l-.16.22-.07.1a1,1,0,0,1-.78.28h-.16l-.12,0-.09,0-.09,0-.19-.12-.19-.15-.17-.22,0-.06a.56.56,0,0,0-.18.1L108,98l-.23.24.23.1.15.08a.5.5,0,0,1,.3.39.54.54,0,0,1-.1.3,1.31,1.31,0,0,1-.29.31l-.31.17-.2.09-.39.14-.15,0-.39.08-.16,0-.11,0-.12,0-.15-.07a.24.24,0,0,1-.09-.08l0-.23a.66.66,0,0,1,0-.26l.09-.06.14,0h.25l.36.09.26,0a.61.61,0,0,0,.46-.16l.09-.12,0-.13c0-.1-.1-.19-.29-.25l-.24-.09a.3.3,0,0,1-.21-.33,1,1,0,0,1,.16-.28l.53-.49.21-.17.29-.21.4-.22a2.47,2.47,0,0,1,1.22-.34l.19,0a.66.66,0,0,1,.36.28l.11.16a1.07,1.07,0,0,1,.07.19Zm-.64.16a.28.28,0,0,0-.27-.31h-.13a.76.76,0,0,0-.21,0,.81.81,0,0,0-.22.12l-.09.08-.08.08.19.19a.88.88,0,0,0,.18.1l.08,0h.15a.48.48,0,0,0,.24-.06l.09,0,0-.09Z"/></g><g class="cls-7"><g class="cls-7"><path class="cls-1" d="M185.37,178.42c0,1.73-.42,3.45-3.28,3.45-2.11,0-3-1.38-3-3.2v-.53h1.75v.52c0,1.13.31,1.79,1.37,1.79s1.4-.69,1.4-1.93v-6.86h1.74Z"/></g><g class="cls-7"><path class="cls-1" d="M187.17,173.47c1.34,0,2.61-.44,2.85-1.62h1.3v9.79h-1.75v-6.91h-2.4Z"/></g></g></g></g></g></svg>